<svg width="21" height="21" viewBox="0 0 21 21" fill="none" xmlns="http://www.w3.org/2000/svg">
<path d="M15.0782 9.19851C14.7683 7.99766 13.7999 7.3004 13.0252 7.02926C12.2117 6.75809 11.282 6.99051 10.4685 7.57157C9.6163 6.95176 8.72537 6.71934 7.91189 7.02926C7.13717 7.30043 6.20748 7.9977 5.85885 9.19851C5.62643 9.97324 5.58768 11.2128 6.78854 12.6848C9.61634 16.2486 10.1586 16.4036 10.4298 16.4036C10.4686 16.4036 10.6622 16.4423 10.8947 16.2486C11.3207 15.9774 12.2117 15.1253 14.1486 12.6848C15.3106 11.2128 15.3106 9.97324 15.0782 9.19851ZM12.9864 11.7551C12.2117 12.7236 11.0883 14.0794 10.4685 14.6604C9.84872 14.0406 8.72537 12.7236 7.95064 11.7551C7.33084 10.9804 7.09842 10.2444 7.29213 9.62461C7.4858 9.04356 7.98939 8.61746 8.41548 8.4625C8.80287 8.34629 9.38392 8.57871 9.92622 9.12102C10.2361 9.4309 10.7009 9.4309 11.0109 9.12102C11.5532 8.57871 12.1342 8.30754 12.5216 8.4625C12.9477 8.61746 13.49 9.04356 13.645 9.62461C13.8386 10.2444 13.6062 10.9804 12.9864 11.7551Z" fill="#429466"/>
<path d="M19.1473 3.17027H16.1377V2.33476C16.1377 1.917 15.7766 1.5752 15.3352 1.5752C14.8938 1.5752 14.5326 1.917 14.5326 2.33476V3.1703H6.42686V2.33476C6.42686 1.917 6.06572 1.5752 5.62433 1.5752C5.18294 1.5752 4.82179 1.917 4.82179 2.33476V3.1703H1.85234C1.41095 3.17027 1.0498 3.51208 1.0498 3.92987V18.6656C1.0498 19.0834 1.41095 19.4252 1.85234 19.4252H19.1071C19.5485 19.4252 19.9097 19.0834 19.9498 18.6656V3.92987C19.9498 3.51208 19.5887 3.17027 19.1473 3.17027ZM18.3447 17.944H2.61477V4.68943H4.82179V5.37305C4.82179 5.7908 5.18294 6.13261 5.62433 6.13261C6.06572 6.13261 6.38676 5.7908 6.42686 5.411V4.68943H14.5326V5.37305C14.5326 5.7908 14.8938 6.13261 15.3351 6.13261C15.7765 6.13261 16.1377 5.7908 16.1377 5.411V4.68943H18.3447V17.944Z" fill="#429466"/>
</svg>
