<svg width="20" height="20" viewBox="0 0 20 20" fill="none" xmlns="http://www.w3.org/2000/svg">
<path d="M13.7411 0.999023C11.9895 0.999023 10.4559 1.78546 9.5 3.11478C8.54406 1.78546 7.01049 0.999023 5.25893 0.999023C3.86466 1.00066 2.52794 1.57969 1.54204 2.60908C0.55614 3.63846 0.00157152 5.03413 0 6.4899C0 12.6893 8.80362 17.7072 9.17853 17.9145C9.27734 17.97 9.38779 17.999 9.5 17.999C9.6122 17.999 9.72266 17.97 9.82147 17.9145C10.1964 17.7072 19 12.6893 19 6.4899C18.9984 5.03413 18.4439 3.63846 17.458 2.60908C16.4721 1.57969 15.1353 1.00066 13.7411 0.999023ZM9.5 16.4798C7.95116 15.5375 1.35714 11.2448 1.35714 6.4899C1.35849 5.40987 1.77 4.37448 2.50144 3.61079C3.23287 2.84709 4.22452 2.41743 5.25893 2.41602C6.90871 2.41602 8.29384 3.33353 8.87232 4.80721C8.92344 4.93716 9.01041 5.0483 9.12218 5.12652C9.23394 5.20474 9.36545 5.24651 9.5 5.24651C9.63455 5.24651 9.76606 5.20474 9.87782 5.12652C9.98958 5.0483 10.0766 4.93716 10.1277 4.80721C10.7062 3.33088 12.0913 2.41602 13.7411 2.41602C14.7755 2.41743 15.7671 2.84709 16.4986 3.61079C17.23 4.37448 17.6415 5.40987 17.6429 6.4899C17.6429 11.2377 11.0471 15.5366 9.5 16.4798Z" fill="#6E2F2F"/>
</svg>
