<svg width="20" height="20" viewBox="0 0 20 20" fill="none" xmlns="http://www.w3.org/2000/svg">
<path d="M9.5 0.999023C7.81886 0.999023 6.17547 1.49754 4.77766 2.43153C3.37984 3.36552 2.29037 4.69304 1.64703 6.24621C1.00368 7.79938 0.835355 9.50845 1.16333 11.1573C1.4913 12.8061 2.30085 14.3207 3.4896 15.5094C4.67834 16.6982 6.1929 17.5077 7.84173 17.8357C9.49057 18.1637 11.1996 17.9953 12.7528 17.352C14.306 16.7087 15.6335 15.6192 16.5675 14.2214C17.5015 12.8235 18 11.1802 18 9.49902C17.9976 7.24541 17.1013 5.08479 15.5078 3.49124C13.9142 1.8977 11.7536 1.0014 9.5 0.999023ZM9.5 16.6913C8.0775 16.6913 6.68694 16.2695 5.50417 15.4792C4.3214 14.6889 3.39955 13.5656 2.85518 12.2514C2.31081 10.9372 2.16838 9.49104 2.44589 8.09587C2.72341 6.7007 3.40841 5.41916 4.41427 4.41329C5.42014 3.40743 6.70168 2.72243 8.09685 2.44491C9.49202 2.1674 10.9382 2.30983 12.2524 2.8542C13.5666 3.39857 14.6899 4.32042 15.4802 5.50319C16.2705 6.68596 16.6923 8.07652 16.6923 9.49902C16.6901 11.4059 15.9317 13.234 14.5833 14.5824C13.235 15.9307 11.4069 16.6892 9.5 16.6913ZM14.7308 9.49902C14.7308 9.67243 14.6619 9.83874 14.5393 9.96136C14.4166 10.084 14.2503 10.1529 14.0769 10.1529H9.5C9.32659 10.1529 9.16028 10.084 9.03766 9.96136C8.91504 9.83874 8.84616 9.67243 8.84616 9.49902V4.9221C8.84616 4.74869 8.91504 4.58238 9.03766 4.45976C9.16028 4.33714 9.32659 4.26825 9.5 4.26825C9.67341 4.26825 9.83972 4.33714 9.96234 4.45976C10.085 4.58238 10.1538 4.74869 10.1538 4.9221V8.84518H14.0769C14.2503 8.84518 14.4166 8.91406 14.5393 9.03668C14.6619 9.1593 14.7308 9.32561 14.7308 9.49902Z" fill="#6E2F2F"/>
</svg>
