<svg width="25" height="27" viewBox="0 0 25 27" fill="none" xmlns="http://www.w3.org/2000/svg">
<g filter="url(#filter0_d_998_7652)">
<path d="M12.5 1.81006C10.8189 1.81006 9.17547 2.30857 7.77766 3.24257C6.37984 4.17656 5.29037 5.50408 4.64703 7.05725C4.00368 8.61042 3.83535 10.3195 4.16333 11.9683C4.4913 13.6172 5.30085 15.1317 6.4896 16.3205C7.67834 17.5092 9.1929 18.3188 10.8417 18.6467C12.4906 18.9747 14.1996 18.8064 15.7528 18.163C17.306 17.5197 18.6335 16.4302 19.5675 15.0324C20.5015 13.6346 21 11.9912 21 10.3101C20.9976 8.05645 20.1013 5.89582 18.5078 4.30228C16.9142 2.70874 14.7536 1.81244 12.5 1.81006ZM17.7308 10.3101C17.7308 10.4835 17.6619 10.6498 17.5393 10.7724C17.4166 10.895 17.2503 10.9639 17.0769 10.9639H12.5C12.3266 10.9639 12.1603 10.895 12.0377 10.7724C11.915 10.6498 11.8462 10.4835 11.8462 10.3101V5.73313C11.8462 5.55972 11.915 5.39342 12.0377 5.2708C12.1603 5.14818 12.3266 5.07929 12.5 5.07929C12.6734 5.07929 12.8397 5.14818 12.9623 5.2708C13.085 5.39342 13.1538 5.55972 13.1538 5.73313V9.65621H17.0769C17.2503 9.65621 17.4166 9.7251 17.5393 9.84772C17.6619 9.97034 17.7308 10.1366 17.7308 10.3101Z" fill="#429466"/>
</g>
<defs>
<filter id="filter0_d_998_7652" x="0" y="1.81006" width="25" height="25" filterUnits="userSpaceOnUse" color-interpolation-filters="sRGB">
<feFlood flood-opacity="0" result="BackgroundImageFix"/>
<feColorMatrix in="SourceAlpha" type="matrix" values="0 0 0 0 0 0 0 0 0 0 0 0 0 0 0 0 0 0 127 0" result="hardAlpha"/>
<feOffset dy="4"/>
<feGaussianBlur stdDeviation="2"/>
<feComposite in2="hardAlpha" operator="out"/>
<feColorMatrix type="matrix" values="0 0 0 0 0 0 0 0 0 0 0 0 0 0 0 0 0 0 0.25 0"/>
<feBlend mode="normal" in2="BackgroundImageFix" result="effect1_dropShadow_998_7652"/>
<feBlend mode="normal" in="SourceGraphic" in2="effect1_dropShadow_998_7652" result="shape"/>
</filter>
</defs>
</svg>
