<svg width="20" height="20" viewBox="0 0 20 20" fill="none" xmlns="http://www.w3.org/2000/svg">
<path d="M14.3606 8.76107C14.0654 7.6174 13.1431 6.95334 12.4053 6.69512C11.6305 6.43686 10.7451 6.65821 9.9704 7.2116C9.15876 6.62131 8.31025 6.39995 7.53551 6.69512C6.79767 6.95337 5.91226 7.61743 5.58023 8.76107C5.35888 9.49891 5.32197 10.6795 6.46564 12.0814C9.15879 15.4755 9.67527 15.623 9.93353 15.623C9.97043 15.623 10.1549 15.6599 10.3762 15.4755C10.782 15.2172 11.6306 14.4056 13.4752 12.0814C14.5819 10.6795 14.5819 9.49891 14.3606 8.76107ZM12.3684 11.196C11.6305 12.1183 10.5607 13.4095 9.9704 13.9629C9.38011 13.3726 8.31025 12.1183 7.57241 11.196C6.98212 10.4581 6.76077 9.75716 6.94525 9.16688C7.1297 8.61349 7.60932 8.20769 8.01512 8.06011C8.38405 7.94943 8.93744 8.17078 9.45392 8.68726C9.74904 8.98239 10.1918 8.98239 10.4869 8.68726C11.0034 8.17078 11.5568 7.91253 11.9257 8.06011C12.3315 8.20769 12.848 8.61349 12.9956 9.16688C13.18 9.75716 12.9587 10.4581 12.3684 11.196Z" fill="#6E2F2F"/>
<path d="M18.2357 3.01912H15.3694V2.22339C15.3694 1.82553 15.0255 1.5 14.6051 1.5C14.1847 1.5 13.8408 1.82553 13.8408 2.22339V3.01915H6.12101V2.22339C6.12101 1.82553 5.77706 1.5 5.35669 1.5C4.93632 1.5 4.59237 1.82553 4.59237 2.22339V3.01915H1.76432C1.34395 3.01912 1 3.34465 1 3.74254V17.7766C1 18.1745 1.34395 18.5 1.76432 18.5H18.1975C18.6178 18.5 18.9618 18.1745 19 17.7766V3.74254C19 3.34465 18.656 3.01912 18.2357 3.01912ZM17.4713 17.0894H2.49045V4.46594H4.59237V5.117C4.59237 5.51486 4.93632 5.84039 5.35669 5.84039C5.77706 5.84039 6.08281 5.51486 6.12101 5.15315V4.46594H13.8408V5.117C13.8408 5.51486 14.1847 5.84039 14.6051 5.84039C15.0255 5.84039 15.3694 5.51486 15.3694 5.15315V4.46594H17.4713V10.7776V17.0894Z" fill="#6E2F2F"/>
</svg>
