<svg width="26" height="27" viewBox="0 0 26 27" fill="none" xmlns="http://www.w3.org/2000/svg">
<g filter="url(#filter0_d_998_7886)">
<path d="M17.3606 8.76107C17.0654 7.6174 16.1431 6.95334 15.4053 6.69512C14.6305 6.43686 13.7451 6.65821 12.9704 7.2116C12.1588 6.62131 11.3102 6.39995 10.5355 6.69512C9.79767 6.95337 8.91226 7.61743 8.58023 8.76107C8.35888 9.49891 8.32197 10.6795 9.46564 12.0814C12.1588 15.4755 12.6753 15.623 12.9335 15.623C12.9704 15.623 13.1549 15.6599 13.3762 15.4755C13.782 15.2172 14.6306 14.4056 16.4752 12.0814C17.5819 10.6795 17.5819 9.49891 17.3606 8.76107Z" fill="#429466"/>
</g>
<g filter="url(#filter1_d_998_7886)">
<path d="M21.2357 3.01912H18.3694V2.22339C18.3694 1.82553 18.0255 1.5 17.6051 1.5C17.1847 1.5 16.8408 1.82553 16.8408 2.22339V3.01915H9.12101V2.22339C9.12101 1.82553 8.77706 1.5 8.35669 1.5C7.93632 1.5 7.59237 1.82553 7.59237 2.22339V3.01915H4.76432C4.34395 3.01912 4 3.34465 4 3.74254V17.7766C4 18.1745 4.34395 18.5 4.76432 18.5H21.1975C21.6178 18.5 21.9618 18.1745 22 17.7766V3.74254C22 3.34465 21.656 3.01912 21.2357 3.01912ZM20.4713 17.0894H5.49045V4.46594H7.59237V5.117C7.59237 5.51486 7.93632 5.84039 8.35669 5.84039C8.77706 5.84039 9.08281 5.51486 9.12101 5.15315V4.46594H16.8408V5.117C16.8408 5.51486 17.1847 5.84039 17.6051 5.84039C18.0255 5.84039 18.3694 5.51486 18.3694 5.15315V4.46594H20.4713V10.7776V17.0894Z" fill="#429466"/>
</g>
<defs>
<filter id="filter0_d_998_7886" x="4.45703" y="6.56494" width="17.0195" height="17.061" filterUnits="userSpaceOnUse" color-interpolation-filters="sRGB">
<feFlood flood-opacity="0" result="BackgroundImageFix"/>
<feColorMatrix in="SourceAlpha" type="matrix" values="0 0 0 0 0 0 0 0 0 0 0 0 0 0 0 0 0 0 127 0" result="hardAlpha"/>
<feOffset dy="4"/>
<feGaussianBlur stdDeviation="2"/>
<feComposite in2="hardAlpha" operator="out"/>
<feColorMatrix type="matrix" values="0 0 0 0 0 0 0 0 0 0 0 0 0 0 0 0 0 0 0.25 0"/>
<feBlend mode="normal" in2="BackgroundImageFix" result="effect1_dropShadow_998_7886"/>
<feBlend mode="normal" in="SourceGraphic" in2="effect1_dropShadow_998_7886" result="shape"/>
</filter>
<filter id="filter1_d_998_7886" x="0" y="1.5" width="26" height="25" filterUnits="userSpaceOnUse" color-interpolation-filters="sRGB">
<feFlood flood-opacity="0" result="BackgroundImageFix"/>
<feColorMatrix in="SourceAlpha" type="matrix" values="0 0 0 0 0 0 0 0 0 0 0 0 0 0 0 0 0 0 127 0" result="hardAlpha"/>
<feOffset dy="4"/>
<feGaussianBlur stdDeviation="2"/>
<feComposite in2="hardAlpha" operator="out"/>
<feColorMatrix type="matrix" values="0 0 0 0 0 0 0 0 0 0 0 0 0 0 0 0 0 0 0.25 0"/>
<feBlend mode="normal" in2="BackgroundImageFix" result="effect1_dropShadow_998_7886"/>
<feBlend mode="normal" in="SourceGraphic" in2="effect1_dropShadow_998_7886" result="shape"/>
</filter>
</defs>
</svg>
