<svg width="413" height="368" viewBox="0 0 413 368" fill="none" xmlns="http://www.w3.org/2000/svg">
<path opacity="0.6" d="M80 145L104.5 78.5M80 145L16.5 112M80 145V62.5M80 145L22.5 83.5M104.5 78.5L80 62.5M104.5 78.5L16.5 112M80 62.5L22.5 83.5M22.5 83.5L16.5 112" stroke="url(#paint0_linear_253_4895)" stroke-width="2"/>
<path opacity="0.6" d="M333.502 75.7765L398.73 48.0673M333.502 75.7765L314.04 6.91083M333.502 75.7765L393.601 19.2585M333.502 75.7765L338.912 -8.24271M398.73 48.0673L393.601 19.2585M398.73 48.0673L314.04 6.91083M393.601 19.2585L338.912 -8.24271M338.912 -8.24271L314.04 6.91083" stroke="url(#paint1_linear_253_4895)" stroke-width="2"/>
<mask id="path-3-inside-1_253_4895" fill="white">
<circle cx="118.014" cy="249.295" r="112" transform="rotate(93.1662 118.014 249.295)"/>
</mask>
<path d="M111.58 365.617C111.745 362.622 111.911 359.626 112.077 356.631C100.806 356.086 89.6495 353.784 79.1031 349.779C36.4524 334.179 6.64999 289.088 9.55504 243.295C10.935 185.457 65.7339 135.465 124.076 139.712C182.515 141.112 233.014 196.478 228.72 255.419C227.137 302.206 192.287 345.544 146.641 357.373C135.343 360.445 123.56 361.702 111.828 361.124C123.552 361.852 135.373 360.747 146.756 357.808C192.719 346.54 228.721 303.273 230.967 255.543C236.159 195.51 185.18 137.513 124.325 135.219C63.6929 129.98 5.12878 181.466 2.81535 242.922C-0.899194 291.493 30.166 340.293 76.0174 357.753C87.3507 362.224 99.3939 364.872 111.58 365.617ZM112.077 356.631L111.58 365.617L111.828 361.124L112.077 356.631Z" fill="url(#paint2_linear_253_4895)" mask="url(#path-3-inside-1_253_4895)"/>
<mask id="path-5-inside-2_253_4895" fill="white">
<circle cx="277.014" cy="172.295" r="112" transform="rotate(76.3309 277.014 172.295)"/>
</mask>
<path d="M304.545 285.495C303.836 282.58 303.127 279.665 302.418 276.75C291.472 279.493 280.127 280.521 268.873 279.742C223.532 277.163 181.948 242.636 171.466 197.964C156.036 142.205 194.007 78.4849 251.079 65.6534C307.418 50.0684 371.788 88.4352 384.749 146.094C396.784 191.334 375.98 242.908 335.716 267.45C325.792 273.662 314.878 278.278 303.481 281.123C314.913 278.424 325.908 273.943 335.952 267.833C376.681 243.737 398.61 191.897 386.935 145.562C374.519 86.5981 308.927 45.8509 250.015 61.2809C190.465 73.8264 149.322 140.068 164.907 199.56C175.419 247.125 219.286 284.836 268.229 288.268C280.372 289.265 292.666 288.312 304.545 285.495ZM302.418 276.75L304.545 285.495L303.481 281.123L302.418 276.75Z" fill="url(#paint3_linear_253_4895)" mask="url(#path-5-inside-2_253_4895)"/>
<defs>
<linearGradient id="paint0_linear_253_4895" x1="96" y1="94" x2="32.5" y2="129" gradientUnits="userSpaceOnUse">
<stop stop-color="#E7B8A5" stop-opacity="0.5"/>
<stop offset="0.666739" stop-color="white" stop-opacity="0.5"/>
<stop offset="1" stop-color="#FFF6EC" stop-opacity="0.5"/>
</linearGradient>
<linearGradient id="paint1_linear_253_4895" x1="381.615" y1="52.4938" x2="312.617" y2="30.2127" gradientUnits="userSpaceOnUse">
<stop stop-color="#E7B8A5" stop-opacity="0.5"/>
<stop offset="0.666739" stop-color="white" stop-opacity="0.5"/>
<stop offset="1" stop-color="#FFF6EC" stop-opacity="0.5"/>
</linearGradient>
<linearGradient id="paint2_linear_253_4895" x1="196.999" y1="181.5" x2="50.9991" y2="437" gradientUnits="userSpaceOnUse">
<stop stop-color="#E7B8A5" stop-opacity="0.8"/>
<stop offset="0.63853" stop-color="white"/>
<stop offset="1" stop-color="#E7BAA7" stop-opacity="0.5"/>
</linearGradient>
<linearGradient id="paint3_linear_253_4895" x1="382.499" y1="262.5" x2="183.499" y2="223" gradientUnits="userSpaceOnUse">
<stop stop-color="#E7B8A5" stop-opacity="0.8"/>
<stop offset="0.581731" stop-color="white"/>
<stop offset="1" stop-color="#E7BAA7" stop-opacity="0.5"/>
</linearGradient>
</defs>
</svg>
