<svg width="20" height="20" viewBox="0 0 20 20" fill="none" xmlns="http://www.w3.org/2000/svg">
<path d="M10.3193 1.24707C10.9102 1.24707 11.4823 1.45656 11.9336 1.83789L11.9385 1.8418L17.7686 6.83789H17.7676C18.0438 7.07218 18.2665 7.36382 18.4189 7.69238C18.5719 8.02216 18.6514 8.38159 18.6514 8.74512V16.2412C18.6514 16.9043 18.3877 17.5408 17.9189 18.0098C17.45 18.4787 16.8136 18.7421 16.1504 18.7422H4.48926C3.82599 18.7422 3.18971 18.4788 2.7207 18.0098C2.25182 17.5408 1.98828 16.9044 1.98828 16.2412V8.74512C1.98825 8.38154 2.0677 8.0222 2.2207 7.69238C2.37302 7.36419 2.59434 7.07204 2.87012 6.83789L8.70117 1.8418L8.70508 1.83789C9.15637 1.45653 9.72849 1.24715 10.3193 1.24707ZM10.3193 2.91699C10.1231 2.91707 9.93307 2.98667 9.7832 3.11328L3.95703 8.10645L3.95312 8.11035C3.86096 8.18824 3.78622 8.28511 3.73535 8.39453C3.68451 8.50409 3.65821 8.62434 3.6582 8.74512V16.2412C3.6582 16.4615 3.74567 16.6733 3.90137 16.8291C4.05719 16.9849 4.2689 17.0723 4.48926 17.0723H6.98438V11.2441C6.98444 10.8019 7.15992 10.3772 7.47266 10.0645L7.59473 9.9541C7.89157 9.71077 8.26515 9.57617 8.65234 9.57617H11.9844C12.3713 9.57626 12.7443 9.71101 13.041 9.9541L13.1631 10.0645L13.2744 10.1865C13.5176 10.4833 13.6523 10.8571 13.6523 11.2441C13.6523 11.2571 13.652 11.2703 13.6514 11.2832C13.544 13.5696 13.5828 14.9514 13.6328 17.0723H16.1504C16.3706 17.0722 16.5816 16.9847 16.7373 16.8291C16.893 16.6733 16.9814 16.4615 16.9814 16.2412V8.74512C16.9814 8.62434 16.9551 8.50409 16.9043 8.39453C16.8535 8.28511 16.7787 8.18826 16.6865 8.11035L16.6826 8.10645L10.8564 3.11328L10.7363 3.0293C10.6105 2.95634 10.4665 2.91699 10.3193 2.91699ZM8.6543 17.0723H11.9629C11.9133 14.9887 11.8733 13.556 11.9805 11.2461H8.6543V17.0723Z" fill="#6E2F2F"/>
</svg>
