<svg width="26" height="26" viewBox="0 0 26 26" fill="none" xmlns="http://www.w3.org/2000/svg">
<g filter="url(#filter0_d_998_7592)">
<path d="M12.5371 0C13.0968 4.56264e-05 13.6412 0.173228 14.0957 0.493164L14.2852 0.639648L14.29 0.643555L20.1152 5.63574C20.4159 5.88989 20.6575 6.20732 20.8232 6.56445C20.9889 6.92149 21.0752 7.31051 21.0752 7.7041V15.2002C21.0752 15.9179 20.7896 16.6066 20.2822 17.1143C19.7747 17.6218 19.086 17.9071 18.3682 17.9072H6.70703C5.98908 17.9072 5.30064 17.6219 4.79297 17.1143C4.28537 16.6066 4 15.9181 4 15.2002V7.7041C3.99998 7.3106 4.08539 6.92142 4.25098 6.56445C4.41672 6.20739 4.6593 5.88985 4.95996 5.63574L10.7842 0.643555L10.79 0.639648C11.2785 0.22692 11.8976 7.51818e-05 12.5371 0Z" fill="#429466"/>
</g>
<defs>
<filter id="filter0_d_998_7592" x="0" y="0" width="25.0762" height="25.9072" filterUnits="userSpaceOnUse" color-interpolation-filters="sRGB">
<feFlood flood-opacity="0" result="BackgroundImageFix"/>
<feColorMatrix in="SourceAlpha" type="matrix" values="0 0 0 0 0 0 0 0 0 0 0 0 0 0 0 0 0 0 127 0" result="hardAlpha"/>
<feOffset dy="4"/>
<feGaussianBlur stdDeviation="2"/>
<feComposite in2="hardAlpha" operator="out"/>
<feColorMatrix type="matrix" values="0 0 0 0 0 0 0 0 0 0 0 0 0 0 0 0 0 0 0.25 0"/>
<feBlend mode="normal" in2="BackgroundImageFix" result="effect1_dropShadow_998_7592"/>
<feBlend mode="normal" in="SourceGraphic" in2="effect1_dropShadow_998_7592" result="shape"/>
</filter>
</defs>
</svg>
