<svg width="27" height="27" viewBox="0 0 27 27" fill="none" xmlns="http://www.w3.org/2000/svg">
<g filter="url(#filter0_d_998_3776)">
<path d="M17.7411 1.81006C15.9895 1.81006 14.4559 2.59649 13.5 3.92582C12.5441 2.59649 11.0105 1.81006 9.25893 1.81006C7.86466 1.8117 6.52794 2.39073 5.54204 3.42011C4.55614 4.4495 4.00157 5.84517 4 7.30094C4 13.5003 12.8036 18.5183 13.1785 18.7255C13.2773 18.781 13.3878 18.8101 13.5 18.8101C13.6122 18.8101 13.7227 18.781 13.8215 18.7255C14.1964 18.5183 23 13.5003 23 7.30094C22.9984 5.84517 22.4439 4.4495 21.458 3.42011C20.4721 2.39073 19.1353 1.8117 17.7411 1.81006Z" fill="#429466"/>
</g>
<defs>
<filter id="filter0_d_998_3776" x="0" y="1.81006" width="27" height="25" filterUnits="userSpaceOnUse" color-interpolation-filters="sRGB">
<feFlood flood-opacity="0" result="BackgroundImageFix"/>
<feColorMatrix in="SourceAlpha" type="matrix" values="0 0 0 0 0 0 0 0 0 0 0 0 0 0 0 0 0 0 127 0" result="hardAlpha"/>
<feOffset dy="4"/>
<feGaussianBlur stdDeviation="2"/>
<feComposite in2="hardAlpha" operator="out"/>
<feColorMatrix type="matrix" values="0 0 0 0 0 0 0 0 0 0 0 0 0 0 0 0 0 0 0.25 0"/>
<feBlend mode="normal" in2="BackgroundImageFix" result="effect1_dropShadow_998_3776"/>
<feBlend mode="normal" in="SourceGraphic" in2="effect1_dropShadow_998_3776" result="shape"/>
</filter>
</defs>
</svg>
