<svg width="160" height="160" viewBox="0 0 160 160" fill="none" xmlns="http://www.w3.org/2000/svg">
<path d="M77.0176 129.115C75.6185 127.058 75.3109 122.797 74.5359 121.664C73.855 120.67 72.2461 120.29 71.2915 121.888C70.6799 122.91 71.1866 124.229 71.9066 125.317C72.7901 126.654 74.8576 128.722 77.0176 129.115Z" fill="url(#paint0_linear_660_55966)"/>
<path d="M70.1787 130.727C71.2382 130.991 74.1857 129.648 76.1074 130.116C74.6675 128.6 73.103 127.682 71.8622 127.4C70.8542 127.17 69.7929 127.723 69.3165 128.617C68.9005 129.394 69.2489 130.496 70.1787 130.727Z" fill="url(#paint1_linear_660_55966)"/>
<path d="M79.5039 123.612C79.5003 122.613 78.6044 121.711 77.831 121.701C76.9422 121.688 76.2293 122.406 76.2151 123.48C76.1973 124.801 76.3751 126.922 77.6977 128.906C77.6977 126.845 79.5075 124.751 79.5039 123.612Z" fill="url(#paint2_linear_660_55966)"/>
<path d="M83.6889 146.638C83.6374 147.389 83.2214 149.646 82.6383 150.494C83.1254 148.775 83.1058 145.405 83.0347 143.847C83.0205 143.534 83.0063 143.218 82.9991 142.9C82.848 142.903 82.6898 142.919 82.5263 142.955C81.7156 143.131 81.2267 144.011 81.0667 144.825C80.9068 145.639 81.0365 146.478 81.1521 147.3C81.2872 148.267 81.4027 149.236 81.4614 150.212C81.5094 151.026 81.5112 151.872 81.1805 152.619C81.9041 152.117 82.7183 151.769 83.4969 151.358C84.2756 150.948 85.0364 150.455 85.5573 149.748C86.0817 149.035 86.3271 148.133 86.3075 147.248C86.2897 146.363 86.0177 145.494 85.5946 144.715C85.2889 144.153 84.8907 143.623 84.3573 143.27C84.2258 143.182 83.9733 143.053 83.6427 142.971C83.6693 144.194 83.7725 145.417 83.6889 146.638Z" fill="url(#paint3_linear_660_55966)"/>
<path d="M88.6783 135.876C88.7903 135.841 90.1342 135.48 90.1289 135.448V135.446C90.0951 135.364 88.5165 135.698 88.3885 135.729C87.7201 135.885 87.0676 136.102 86.4419 136.385C85.1743 136.959 84.0935 137.905 83.537 139.201C83.0357 140.365 82.9699 141.641 83.0002 142.9C83.2348 142.897 83.4517 142.925 83.6419 142.971C83.633 142.619 83.6313 142.267 83.6419 141.915C83.6846 140.424 84.0153 138.945 85.0943 137.848C86.0614 136.861 87.3787 136.289 88.6783 135.876Z" fill="url(#paint4_linear_660_55966)"/>
<path d="M108.118 126.167C109.049 127.159 109.922 128.206 110.772 129.27C111.494 130.173 112.221 131.108 113.199 131.726C114.176 132.345 115.536 132.692 116.493 132.039C116.687 131.908 116.855 131.764 117.001 131.613C116.687 131.302 116.379 130.983 116.075 130.669C114.564 129.104 111.167 125.855 108.957 124.701C110.376 124.921 113.062 126.662 113.874 127.33C115.193 128.416 116.335 129.693 117.545 130.893C117.782 130.48 117.89 130.1 117.929 129.883C118.084 129.003 117.927 128.094 117.65 127.245C117.268 126.07 116.646 124.96 115.766 124.095C114.886 123.227 113.739 122.612 112.512 122.461C111.295 122.31 110.066 122.61 108.905 123.005C107.745 123.399 106.61 123.892 105.409 124.144C106.482 124.525 107.339 125.339 108.118 126.167Z" fill="url(#paint5_linear_660_55966)"/>
<path d="M121.267 134.613C123.112 135.288 125.109 135.1 126.906 134.366C127.793 134.003 128.636 133.548 129.436 133.022C129.589 132.921 131.439 131.641 131.39 131.529C131.363 131.491 129.71 132.506 129.566 132.586C127.903 133.507 126.06 134.295 124.131 134.334C121.985 134.376 120.17 133.294 118.617 131.907C118.25 131.58 117.895 131.241 117.546 130.894C117.411 131.13 117.234 131.379 117.004 131.614C118.249 132.849 119.605 134.005 121.267 134.613Z" fill="url(#paint6_linear_660_55966)"/>
<path d="M80.2686 132.512C82.4392 134.718 86.0889 135.369 88.9937 134.974C92.7821 134.46 96.2842 132.723 100.122 132.426C102.053 132.277 103.966 132.49 105.838 132.962C106.106 133.036 108.606 133.893 108.632 133.84C108.728 133.641 105.936 132.524 105.66 132.426C103.72 131.74 101.653 131.436 99.5979 131.509C94.6594 131.685 89.511 134.698 84.6045 133.084C82.6365 132.442 80.3041 131.109 80.5299 128.709C80.7041 126.851 82.6383 124.546 84.7182 125.476C85.5609 125.815 85.5538 127.136 84.8285 127.259C84.5387 127.308 84.0551 126.548 83.9129 126.352C83.4258 125.682 81.5699 126.046 82.4765 128.304C83.3494 130.482 86.3164 130.683 87.7457 128.613C90.8888 124.062 85.3511 121.225 81.6748 123.927C78.9886 125.9 77.7869 129.991 80.2686 132.512Z" fill="url(#paint7_linear_660_55966)"/>
<path d="M47.4901 151.065C50.6101 150.642 53.4953 149.211 56.6544 148.968C58.2437 148.845 59.8187 149.021 61.3618 149.407C61.5823 149.467 63.6409 150.175 63.664 150.13C63.744 149.965 61.4436 149.048 61.216 148.966C59.6179 148.401 57.9166 148.15 56.2242 148.21C52.1567 148.354 47.9168 150.836 43.8778 149.506C42.2565 148.978 40.3365 147.88 40.5214 145.905C40.6654 144.374 42.2565 142.477 43.9702 143.242C44.6635 143.521 44.6582 144.609 44.0609 144.71C43.8227 144.751 43.4245 144.123 43.3071 143.963C42.9054 143.411 41.3783 143.711 42.1232 145.572C42.8431 147.366 45.2857 147.531 46.4626 145.828C49.051 142.081 44.4911 139.743 41.4636 141.969C39.2539 143.594 38.2637 146.962 40.3063 149.039C42.0929 150.856 45.0973 151.391 47.4901 151.065Z" fill="url(#paint8_linear_660_55966)"/>
<path d="M101.293 129.873C104.882 131.829 108.094 131.455 112.494 134.728C109.764 130.095 102.409 130.545 98.7096 125.462C97.4065 123.674 96.2545 121.038 97.97 119.112C99.2962 117.623 102.423 116.862 103.627 118.979C104.137 119.806 103.296 120.938 102.59 120.586C102.309 120.446 102.375 119.482 102.377 119.224C102.382 118.337 100.553 117.477 99.9024 119.998C99.2767 122.426 101.703 124.479 104.245 123.603C109.836 121.674 106.862 115.72 101.984 115.72C98.4234 115.72 94.7968 118.483 95.3372 122.227C95.8065 125.502 98.5389 128.373 101.293 129.873Z" fill="url(#paint9_linear_660_55966)"/>
<path d="M66.7926 150.364C70.0796 150.748 73.5568 148.842 75.7132 146.567C78.5238 143.6 78.9861 140.398 83.2793 136.985C78.1007 138.435 76.6501 145.658 70.7889 147.932C68.725 148.732 65.8824 149.169 64.4619 147.018C63.3615 145.354 63.4273 142.137 65.7846 141.516C66.7143 141.235 67.5943 142.339 67.0717 142.93C66.8637 143.164 65.9499 142.855 65.701 142.787C64.8459 142.554 63.5429 144.103 65.813 145.378C67.9996 146.606 70.6058 144.786 70.4103 142.105C69.98 136.206 63.4629 137.554 62.2113 142.27C61.294 145.712 63.0344 149.925 66.7926 150.364Z" fill="url(#paint10_linear_660_55966)"/>
<path d="M74.6077 135.506C74.0228 133.993 72.1331 133.673 71.2566 134.907C70.3482 136.186 71.4575 136.695 71.8628 136.347C71.9819 136.245 72.3997 135.842 72.5739 135.915C73.0113 136.101 72.8157 136.93 72.2362 137.017C70.7909 137.287 69.9251 135.55 70.0958 134.359C70.3162 132.819 71.9784 132.336 73.3099 132.229C76.629 131.956 79.4058 134.62 82.4759 135.472C83.7541 135.827 85.0963 135.947 86.4154 135.808C86.6038 135.788 88.5238 135.509 88.4918 135.369C88.4829 135.331 86.7869 135.493 86.6074 135.499C85.363 135.511 84.131 135.358 82.9417 134.974C80.5791 134.211 78.6449 132.595 76.3463 131.703C74.5846 131.019 72.1971 130.876 70.5046 131.934C68.5687 133.143 68.7074 135.888 70.094 137.529C71.9944 139.779 75.8947 138.834 74.6077 135.506Z" fill="url(#paint11_linear_660_55966)"/>
<path d="M97.3069 137.07C103.472 134.608 110.318 138.064 116.67 137.897C119.313 137.827 121.941 137.271 124.375 136.236C124.721 136.089 128.216 134.434 128.076 134.187C128.039 134.119 124.897 135.419 124.561 135.536C122.195 136.288 119.76 136.714 117.271 136.677C112.323 136.602 107.691 134.654 102.789 134.295C99.0313 134.019 94.4003 135.145 91.7906 138.149C88.8075 141.582 90.6759 146.734 94.2759 149.052C99.2091 152.227 106.087 148.145 101.693 142.556C99.6944 140.016 95.9043 140.51 94.9567 143.374C93.9736 146.344 96.3843 146.664 96.9567 145.765C97.1238 145.502 97.6838 144.487 98.0589 144.528C99.0011 144.629 99.1131 146.321 98.0607 146.824C95.4652 148.183 92.8003 145.379 92.4288 143.009C91.947 139.946 94.8341 138.05 97.3069 137.07Z" fill="url(#paint12_linear_660_55966)"/>
<path d="M118.379 140.267C119.691 139.913 121.018 139.596 122.296 139.134C123.266 138.784 124.203 138.327 125.126 137.868C126.767 137.052 128.31 136.062 129.732 134.912C129.81 134.848 131.716 133.157 132.034 132.823C132.5 132.363 132.962 131.899 133.435 131.445C133.922 130.978 135.851 128.768 135.91 128.695C137.074 127.261 138.075 125.705 138.9 124.048C139.359 123.124 139.815 122.189 140.166 121.218C140.628 119.938 140.944 118.612 141.298 117.302C141.92 114.994 142.697 111.565 145.259 110.66C146.672 110.161 148.388 110.49 149.083 111.942C149.845 113.537 149.028 115.343 147.474 116.056C146.715 116.361 145.806 116.395 145.085 115.963C144.477 115.599 144.059 114.834 144.192 114.118C144.336 113.345 145.154 112.857 145.908 112.916C146.288 112.946 146.601 113.121 146.827 113.425C146.834 113.435 146.85 113.474 146.864 113.508C146.612 113.567 146.382 113.721 146.26 113.974C146.041 114.418 146.224 114.953 146.669 115.172C147.113 115.389 147.648 115.208 147.867 114.763C148.085 114.319 147.901 113.784 147.458 113.565C147.298 113.487 147.129 113.476 146.964 113.496C146.907 113.346 146.852 113.215 146.834 113.192C146.443 112.692 145.78 112.566 145.181 112.703C143.892 113.001 143.41 114.347 143.942 115.49C144.509 116.708 145.972 117.138 147.214 116.886C148.45 116.635 149.534 115.718 150.013 114.555C150.972 112.221 149.413 109.59 146.901 109.354C144.134 109.094 142.263 111.115 141.241 113.46C140.242 115.752 139.858 118.237 139.058 120.594C138.487 122.276 137.641 123.92 136.717 125.435C135.823 126.903 134.777 128.267 133.632 129.547C133.108 130.141 132.576 130.727 132.063 131.33C131.579 131.751 131.103 132.18 130.621 132.606C129.341 133.753 127.977 134.796 126.509 135.691C124.994 136.613 123.35 137.461 121.668 138.03C119.311 138.83 116.826 139.214 114.534 140.213C112.191 141.235 110.168 143.106 110.428 145.874C110.664 148.384 113.293 149.943 115.629 148.985C116.792 148.506 117.709 147.422 117.96 146.186C118.212 144.942 117.782 143.481 116.564 142.914C115.421 142.382 114.076 142.864 113.777 144.153C113.638 144.75 113.766 145.415 114.266 145.806C114.289 145.822 114.42 145.879 114.57 145.936C114.55 146.101 114.561 146.27 114.639 146.428C114.858 146.873 115.393 147.056 115.837 146.837C116.282 146.618 116.465 146.083 116.246 145.639C116.028 145.194 115.492 145.011 115.048 145.23C114.797 145.354 114.641 145.582 114.582 145.834C114.548 145.82 114.509 145.804 114.499 145.797C114.195 145.571 114.019 145.26 113.99 144.878C113.932 144.124 114.419 143.306 115.192 143.163C115.907 143.029 116.673 143.445 117.036 144.055C117.468 144.777 117.434 145.685 117.128 146.444C116.415 147.998 114.609 148.817 113.014 148.053C111.562 147.356 111.233 145.642 111.733 144.227C112.643 141.666 116.072 140.889 118.379 140.267Z" fill="url(#paint13_linear_660_55966)"/>
<path d="M136.007 87.9119C136.401 85.0071 135.751 81.3574 133.545 79.1868C131.024 76.7051 126.933 77.9069 124.96 80.5913C122.258 84.2676 125.095 89.8052 129.646 86.6622C131.715 85.2329 131.513 82.2676 129.337 81.393C127.077 80.4863 126.713 82.3423 127.385 82.8294C127.58 82.9716 128.341 83.4569 128.291 83.7449C128.167 84.472 126.848 84.4774 126.508 83.6347C125.578 81.553 127.884 79.6206 129.742 79.4464C132.142 79.2206 133.475 81.553 134.117 83.5209C135.731 88.4257 132.718 93.5758 132.542 98.5144C132.469 100.569 132.773 102.637 133.459 104.576C133.557 104.852 134.673 107.645 134.872 107.549C134.926 107.522 134.069 105.023 133.994 104.754C133.525 102.882 133.312 100.969 133.461 99.0388C133.756 95.2042 135.491 91.7003 136.007 87.9119Z" fill="url(#paint14_linear_660_55966)"/>
<path d="M146.412 43.9921C148.033 42.8721 147.875 40.5486 146.169 39.8642C144.398 39.1531 144.113 40.6073 144.638 40.9895C144.791 41.1015 145.388 41.4801 145.349 41.7077C145.251 42.2766 144.218 42.2819 143.952 41.6206C143.223 39.9904 145.029 38.4758 146.485 38.3389C148.364 38.1629 149.409 39.9904 149.912 41.5317C151.176 45.3752 148.816 49.4088 148.679 53.279C148.622 54.8896 148.86 56.5091 149.397 58.0291C149.473 58.246 150.348 60.4344 150.504 60.3579C150.547 60.3366 149.875 58.3793 149.816 58.1677C149.448 56.7011 149.281 55.2025 149.399 53.6897C149.632 50.6835 150.992 47.9386 151.393 44.9716C151.703 42.6961 151.194 39.8357 149.464 38.1362C147.489 36.1931 144.284 37.1336 142.739 39.2367C140.624 42.1166 142.848 46.4542 146.412 43.9921Z" fill="url(#paint15_linear_660_55966)"/>
<path d="M124.635 103.161C125.511 100.619 123.46 98.192 121.03 98.8178C118.509 99.4684 119.371 101.298 120.258 101.292C120.518 101.291 121.479 101.227 121.62 101.506C121.974 102.21 120.839 103.052 120.013 102.54C117.894 101.337 118.655 98.2098 120.146 96.8836C122.071 95.1699 124.708 96.3201 126.496 97.6232C131.579 101.324 131.129 108.679 135.762 111.408C132.489 107.008 132.864 103.797 130.907 100.206C129.406 97.4525 126.535 94.7201 123.259 94.2473C119.515 93.7068 116.752 97.3334 116.752 100.894C116.754 105.778 122.706 108.752 124.635 103.161Z" fill="url(#paint16_linear_660_55966)"/>
<path d="M142.5 68.3008C145.188 68.2617 146.774 65.5062 145.359 63.4352C143.89 61.2859 142.463 62.7187 142.769 63.5507C142.858 63.7943 143.247 64.6778 143.03 64.9053C142.488 65.4778 141.311 64.6973 141.51 63.7462C141.922 61.3445 145.121 60.9979 146.875 61.9472C149.142 63.1738 148.955 66.0449 148.338 68.171C146.585 74.2082 139.517 76.2864 138.523 81.5698C141.549 76.9975 144.696 76.2562 147.407 73.1967C149.485 70.8501 151.08 67.22 150.409 63.9791C149.645 60.2743 145.295 58.909 141.947 60.1196C137.359 61.7783 136.586 68.3862 142.5 68.3008Z" fill="url(#paint17_linear_660_55966)"/>
<path d="M136.013 81.8629C136.397 83.0505 136.551 84.2825 136.537 85.5269C136.532 85.7064 136.37 87.4024 136.408 87.4113C136.546 87.4415 136.827 85.5215 136.847 85.3349C136.985 84.0158 136.864 82.6736 136.509 81.3954C135.656 78.3253 132.991 75.5484 133.266 72.2294C133.373 70.8979 133.858 69.2357 135.396 69.0153C136.587 68.8446 138.324 69.7103 138.054 71.1556C137.967 71.7352 137.138 71.9307 136.951 71.4934C136.877 71.3192 137.282 70.9014 137.383 70.7823C137.73 70.3752 137.223 69.2659 135.942 70.1761C134.708 71.0507 135.028 72.9423 136.541 73.5272C139.869 74.8142 140.815 70.9139 138.566 69.0153C136.925 67.6286 134.178 67.4917 132.971 69.4259C131.913 71.1201 132.056 73.5058 132.74 75.2676C133.632 77.5644 135.248 79.5003 136.013 81.8629Z" fill="url(#paint18_linear_660_55966)"/>
<path d="M137.707 116.19C137.744 118.679 137.317 121.116 136.565 123.481C136.45 123.819 135.149 126.958 135.216 126.995C135.465 127.136 137.118 123.639 137.266 123.294C138.301 120.859 138.857 118.233 138.926 115.589C139.093 109.239 135.637 102.392 138.1 96.2264C139.079 93.7518 140.976 90.8664 144.037 91.3464C146.407 91.718 149.21 94.3828 147.852 96.9783C147.349 98.0325 145.655 97.9188 145.555 96.9766C145.516 96.6015 146.531 96.0414 146.793 95.8743C147.692 95.3019 147.372 92.8931 144.402 93.8762C141.538 94.8237 141.044 98.612 143.584 100.612C149.173 105.008 153.255 98.1285 150.08 93.1953C147.763 89.5954 142.61 87.727 139.177 90.71C136.173 93.3197 135.049 97.9507 135.323 101.709C135.684 106.61 137.634 111.243 137.707 116.19Z" fill="url(#paint19_linear_660_55966)"/>
<path d="M122.696 73.4543C123.828 74.2294 128.09 74.537 130.146 75.936C129.754 73.7743 127.686 71.7086 126.347 70.8233C125.259 70.1033 123.942 69.5966 122.918 70.2081C121.324 71.1663 121.704 72.7734 122.696 73.4543Z" fill="url(#paint20_linear_660_55966)"/>
<path d="M131.149 75.0261C130.681 73.1044 132.024 70.1569 131.76 69.0974C131.531 68.1676 130.427 67.8192 129.65 68.2352C128.756 68.7116 128.205 69.7729 128.434 70.7809C128.713 72.0217 129.632 73.5879 131.149 75.0261Z" fill="url(#paint21_linear_660_55966)"/>
<path d="M124.514 75.1345C123.44 75.1487 122.722 75.8616 122.734 76.7505C122.745 77.5238 123.645 78.4216 124.646 78.4233C125.785 78.4269 127.879 76.6154 129.941 76.6154C127.956 75.2927 125.835 75.1167 124.514 75.1345Z" fill="url(#paint22_linear_660_55966)"/>
<path d="M148.333 80.0695C147.512 79.954 146.673 79.826 145.859 79.9842C145.045 80.1424 144.165 80.6331 143.989 81.4437C143.953 81.6073 143.935 81.7655 143.933 81.9166C144.252 81.9237 144.568 81.9379 144.881 81.9521C146.438 82.0232 149.809 82.0428 151.53 81.5557C150.682 82.1388 148.424 82.5566 147.674 82.6064C146.453 82.6899 145.229 82.5868 144.006 82.5583C144.086 82.889 144.216 83.1415 144.303 83.273C144.657 83.8063 145.185 84.2046 145.749 84.5103C146.527 84.9334 147.396 85.2054 148.282 85.2232C149.167 85.241 150.068 84.9974 150.781 84.473C151.491 83.9521 151.981 83.1912 152.392 82.4126C152.803 81.6339 153.151 80.8198 153.652 80.0962C152.906 80.4269 152.059 80.4251 151.245 80.3771C150.269 80.3202 149.299 80.2046 148.333 80.0695Z" fill="url(#paint23_linear_660_55966)"/>
<path d="M140.233 82.4535C138.939 83.01 137.991 84.0908 137.417 85.3584C137.135 85.9841 136.918 86.6366 136.761 87.305C136.731 87.433 136.397 89.0116 136.479 89.0454H136.48C136.512 89.0507 136.873 87.7067 136.909 87.5947C137.321 86.297 137.894 84.9779 138.879 84.0091C139.975 82.93 141.454 82.6011 142.946 82.5567C143.298 82.546 143.65 82.5478 144.002 82.5567C143.956 82.3664 143.926 82.1495 143.931 81.9149C142.674 81.8864 141.398 81.9522 140.233 82.4535Z" fill="url(#paint24_linear_660_55966)"/>
<path d="M127.298 146.202C128.122 144.615 128.779 141.31 129.021 139.769C129.069 139.459 129.121 139.146 129.176 138.833C129.028 138.805 128.868 138.791 128.701 138.793C127.873 138.803 127.215 139.566 126.897 140.332C126.579 141.098 126.536 141.946 126.484 142.773C126.422 143.747 126.342 144.721 126.203 145.687C126.088 146.494 125.919 147.324 125.446 147.989C126.255 147.644 127.123 147.466 127.967 147.219C128.811 146.972 129.656 146.643 130.308 146.053C130.966 145.459 131.386 144.625 131.546 143.754C131.706 142.883 131.615 141.977 131.355 141.129C131.169 140.517 130.886 139.918 130.433 139.465C130.321 139.353 130.1 139.175 129.791 139.029C129.574 140.233 129.43 141.452 129.103 142.631C128.902 143.361 128.042 145.488 127.298 146.202Z" fill="url(#paint25_linear_660_55966)"/>
<path d="M147.235 126.217C146.522 126.96 144.394 127.819 143.669 128.02C142.488 128.347 141.271 128.492 140.065 128.709C140.211 129.017 140.389 129.239 140.501 129.351C140.954 129.803 141.552 130.085 142.163 130.274C143.009 130.533 143.916 130.624 144.789 130.464C145.662 130.304 146.494 129.884 147.087 129.227C147.678 128.574 148.007 127.73 148.254 126.885C148.501 126.041 148.679 125.172 149.023 124.365C148.359 124.837 147.528 125.006 146.721 125.122C145.754 125.261 144.782 125.342 143.808 125.403C142.979 125.454 142.133 125.497 141.367 125.815C140.601 126.135 139.838 126.789 139.827 127.62C139.825 127.787 139.84 127.947 139.868 128.094C140.181 128.037 140.494 127.988 140.803 127.94C142.341 127.698 145.648 127.04 147.235 126.217Z" fill="url(#paint26_linear_660_55966)"/>
<path d="M140.064 128.711C139.981 128.534 139.908 128.327 139.865 128.096C138.626 128.318 137.497 128.825 136.349 129.366C135.437 129.796 134.07 130.937 132.955 132.233C131.809 133.282 130.834 134.491 130.443 135.319C129.903 136.468 129.398 137.596 129.174 138.836C129.405 138.878 129.611 138.951 129.789 139.035C129.851 138.688 129.908 138.34 130.001 138C130.683 135.517 131.908 133.735 133.928 131.766C135.483 130.381 137.026 129.474 139.028 128.925C139.369 128.829 139.718 128.774 140.064 128.711Z" fill="url(#paint27_linear_660_55966)"/>
<path d="M132.76 112.119C132.141 111.142 131.206 110.414 130.303 109.693C129.24 108.843 128.193 107.97 127.201 107.039C126.372 106.26 125.558 105.403 125.178 104.331C124.925 105.531 124.433 106.665 124.038 107.828C123.643 108.989 123.343 110.217 123.494 111.435C123.647 112.662 124.262 113.808 125.13 114.688C125.997 115.568 127.105 116.19 128.28 116.573C129.13 116.848 130.038 117.005 130.918 116.852C131.135 116.814 131.515 116.704 131.928 116.468C130.726 115.257 129.45 114.116 128.365 112.797C127.698 111.986 125.956 109.3 125.736 107.881C126.89 110.091 130.139 113.49 131.704 114.999C132.018 115.303 132.335 115.611 132.648 115.925C132.797 115.778 132.943 115.609 133.074 115.417C133.725 114.457 133.378 113.097 132.76 112.119Z" fill="url(#paint28_linear_660_55966)"/>
<path d="M132.941 117.536C134.328 119.09 135.41 120.905 135.368 123.051C135.328 124.979 134.541 126.823 133.62 128.485C133.54 128.629 132.523 130.282 132.559 130.309C132.671 130.359 133.953 128.508 134.054 128.355C134.58 127.555 135.035 126.713 135.398 125.826C136.132 124.028 136.32 122.034 135.645 120.188C135.037 118.526 133.881 117.17 132.644 115.924C132.409 116.153 132.162 116.331 131.926 116.466C132.274 116.814 132.614 117.168 132.941 117.536Z" fill="url(#paint29_linear_660_55966)"/>
<path d="M33.9517 153.792C47.7043 154.082 61.4586 154.256 75.2112 154.395C75.2432 154.402 75.2805 154.386 75.2752 154.429C75.2912 154.592 75.3765 154.767 75.4299 154.914C75.9632 156.345 76.8929 157.583 78.1053 158.539C78.7151 159.014 79.4067 159.415 80.1817 159.68C80.948 159.943 81.8297 160.054 82.6599 159.959C84.3328 159.78 85.8207 158.937 86.9389 157.796C87.5007 157.222 87.9789 156.562 88.3469 155.832C88.5424 155.408 88.6687 154.982 88.8447 154.559C88.8482 154.56 88.8518 154.56 88.8553 154.562C93.7388 154.879 98.6489 154.916 103.541 154.921C108.066 154.927 112.958 155.277 117.427 154.424C118.136 154.262 118.746 153.967 119.32 153.624C120.282 153.039 121.262 152.241 121.775 151.231C121.783 151.236 121.829 151.373 121.822 151.357C122.261 152.024 122.728 152.676 123.411 153.126C123.921 153.49 124.504 153.745 125.102 153.905C125.706 154.05 126.318 154.075 126.908 154.027C127.491 153.949 128.062 153.826 128.579 153.606C129.629 153.197 130.517 152.555 131.269 151.835C132.774 150.383 133.745 148.605 134.385 146.824C134.561 146.308 134.73 145.796 134.863 145.268C134.868 145.247 134.861 145.275 134.863 145.268C134.936 144.906 134.986 144.538 135.011 144.17C135.023 144.18 135.839 145.419 136.692 146.052C138.765 147.588 141.368 148.038 143.778 148.71C145.297 149.057 148.676 152.326 146.559 154.441C144.443 156.559 144.427 151.631 142.714 151.318C139.562 150.744 140.385 154.84 141.009 155.656C141.354 156.166 141.814 156.671 142.431 157.051C143.039 157.435 143.805 157.696 144.637 157.686C146.314 157.682 148.065 156.504 148.904 154.678C149.641 153.041 149.521 151.515 148.633 149.983C148.303 149.506 147.894 149.076 147.432 148.706C146.495 147.978 145.384 147.499 144.246 147.138C142.043 146.433 139.432 146.305 137.524 144.882C135.681 143.515 135.06 140.806 134.301 138.772C134.255 138.9 134.198 139.032 134.166 139.165C133.734 142.435 133.437 145.661 131.613 148.502C131.149 149.218 130.607 149.89 129.98 150.461C129.356 151.03 128.643 151.508 127.88 151.778C127.502 151.933 127.11 151.995 126.726 152.043C126.342 152.061 125.964 152.038 125.606 151.942C125.254 151.833 124.918 151.682 124.62 151.458C122.68 150.187 122.481 146.239 122.021 144.443C121.212 147.133 120.805 150.161 118.172 151.704C117.763 151.94 117.315 152.143 116.896 152.223C107.202 153.576 96.5938 152.601 86.8536 152.029C86.7274 152.959 86.6136 153.912 86.2065 154.765C85.9576 155.268 85.6234 155.737 85.2323 156.143C84.4519 156.959 83.4279 157.52 82.4092 157.636C81.899 157.696 81.4173 157.645 80.916 157.485C80.4217 157.323 79.94 157.056 79.5027 156.724C78.628 156.057 77.9045 155.126 77.5187 154.12C77.4174 153.848 77.22 152.262 77.0014 152.187C62.6053 152.233 48.3496 152.441 33.9517 152.774C34.0015 153.003 33.9962 153.588 33.9517 153.792Z" fill="url(#paint30_linear_660_55966)"/>
<path d="M4.00411 155.781C5.15253 156.321 6.43073 155.735 6.43073 154.709C6.43073 154.261 6.08054 153.928 5.68588 153.695H21.7246C21.6802 153.557 21.6482 153.411 21.6482 153.256C21.6482 153.102 21.6784 152.956 21.7246 152.817H5.76053C6.14808 152.593 6.48407 152.282 6.48407 151.868C6.48407 150.887 5.13299 150.14 4.00235 150.746C1.87973 151.884 0.000654221 153.262 0.000654221 153.262C0.000654221 153.262 1.85661 154.771 4.00411 155.781Z" fill="url(#paint31_linear_660_55966)"/>
<path d="M154.435 75.2704C154.393 75.2757 154.41 75.2384 154.403 75.2064C154.265 61.452 154.09 47.6977 153.801 33.9469C153.596 33.9913 153.01 33.9967 152.784 33.9452C152.451 48.343 152.243 62.5987 152.197 76.9948C152.272 77.2135 153.856 77.4108 154.13 77.5121C155.134 77.8979 156.067 78.6214 156.734 79.4961C157.066 79.9352 157.333 80.4152 157.495 80.9094C157.655 81.4107 157.706 81.8925 157.646 82.4027C157.53 83.4213 156.969 84.4435 156.153 85.2257C155.746 85.6168 155.276 85.951 154.775 86.1999C153.922 86.607 152.969 86.7208 152.039 86.847C152.61 96.5872 153.586 107.195 152.233 116.889C152.153 117.309 151.95 117.757 151.714 118.165C150.169 120.798 147.143 121.205 144.453 122.014C146.249 122.476 150.197 122.674 151.468 124.613C151.692 124.912 151.843 125.25 151.952 125.6C152.046 125.957 152.069 126.336 152.053 126.72C152.003 127.104 151.943 127.495 151.788 127.874C151.518 128.638 151.04 129.349 150.471 129.973C149.9 130.601 149.23 131.143 148.512 131.607C145.671 133.431 142.445 133.729 139.175 134.16C139.044 134.192 138.91 134.249 138.782 134.295C140.816 135.054 143.525 135.674 144.892 137.518C146.315 139.425 146.443 142.037 147.148 144.239C147.509 145.379 147.988 146.488 148.716 147.425C149.088 147.887 149.516 148.296 149.993 148.627C151.525 149.514 153.049 149.635 154.686 148.897C156.512 148.058 157.69 146.305 157.694 144.631C157.705 143.799 157.443 143.032 157.059 142.424C156.679 141.808 156.174 141.345 155.664 141.002C154.848 140.38 150.752 139.555 151.326 142.707C151.639 144.421 156.565 144.435 154.45 146.552C152.332 148.67 149.065 145.29 148.718 143.772C148.046 141.361 147.596 138.757 146.06 136.686C145.428 135.833 144.188 135.017 144.18 135.004C144.549 134.979 144.916 134.929 145.278 134.857C145.285 134.855 145.259 134.864 145.278 134.857C145.806 134.723 146.32 134.554 146.834 134.378C148.615 133.738 150.393 132.769 151.845 131.262C152.565 130.51 153.207 129.625 153.616 128.572C153.836 128.057 153.959 127.484 154.037 126.901C154.085 126.311 154.062 125.699 153.914 125.095C153.756 124.498 153.5 123.913 153.136 123.404C152.686 122.722 152.034 122.254 151.367 121.815C151.383 121.822 151.244 121.776 151.241 121.769C152.251 121.253 153.049 120.274 153.634 119.314C153.977 118.74 154.272 118.13 154.434 117.421C155.289 112.951 154.937 108.061 154.931 103.535C154.926 98.6423 154.89 93.7322 154.572 88.8488C154.572 88.8452 154.57 88.8416 154.569 88.8381C154.994 88.6621 155.42 88.5341 155.842 88.3403C156.572 87.9705 157.232 87.4923 157.806 86.9324C158.947 85.8142 159.792 84.328 159.969 82.6551C160.062 81.8249 159.953 80.9431 159.69 80.1769C159.425 79.4018 159.024 78.7103 158.549 78.1005C157.593 76.8863 156.354 75.9584 154.924 75.425C154.773 75.3717 154.599 75.2846 154.435 75.2704Z" fill="url(#paint32_linear_660_55966)"/>
<path d="M151.877 6.48164C152.291 6.48164 152.602 6.14562 152.826 5.75807V21.7222C152.965 21.6777 153.111 21.6457 153.265 21.6457C153.42 21.6457 153.566 21.6759 153.705 21.7222V5.68342C153.937 6.07808 154.27 6.42831 154.718 6.42831C155.744 6.42831 156.328 5.15008 155.79 4.00166C154.78 1.85415 153.273 1.52588e-05 153.273 1.52588e-05C153.273 1.52588e-05 151.893 1.87726 150.755 4.00166C150.149 5.13052 150.896 6.48164 151.877 6.48164Z" fill="url(#paint33_linear_660_55966)"/>
<path d="M32.051 154.682C32.8385 154.682 33.4785 154.044 33.4785 153.255C33.4785 152.467 32.8403 151.827 32.051 151.827C31.2617 151.827 30.6235 152.465 30.6235 153.255C30.6235 154.044 31.2635 154.682 32.051 154.682Z" fill="url(#paint34_linear_660_55966)"/>
<path d="M23.6643 154.682C24.4518 154.682 25.0918 154.044 25.0918 153.255C25.0918 152.467 24.4536 151.827 23.6643 151.827C22.8767 151.827 22.2367 152.465 22.2367 153.255C22.2367 154.044 22.8767 154.682 23.6643 154.682Z" fill="url(#paint35_linear_660_55966)"/>
<path d="M27.8708 155.549C29.1383 155.549 30.1641 154.522 30.1641 153.254C30.1641 151.987 29.1365 150.961 27.8708 150.961C26.605 150.961 25.5775 151.988 25.5775 153.254C25.5757 154.522 26.6033 155.549 27.8708 155.549Z" fill="url(#paint36_linear_660_55966)"/>
<path d="M151.836 32.043C151.836 32.8305 152.476 33.4705 153.264 33.4705C154.053 33.4705 154.691 32.8323 154.691 32.043C154.691 31.2554 154.051 30.6154 153.264 30.6154C152.475 30.6154 151.836 31.2554 151.836 32.043Z" fill="url(#paint37_linear_660_55966)"/>
<path d="M154.691 23.6579C154.691 22.8704 154.051 22.2304 153.264 22.2304C152.476 22.2304 151.836 22.8686 151.836 23.6579C151.836 24.4472 152.476 25.0854 153.264 25.0854C154.051 25.0854 154.691 24.4454 154.691 23.6579Z" fill="url(#paint38_linear_660_55966)"/>
<path d="M150.968 27.8634C150.968 29.131 151.996 30.1567 153.262 30.1567C154.527 30.1567 155.557 29.1292 155.557 27.8634C155.557 26.5959 154.529 25.5701 153.262 25.5701C151.994 25.5701 150.968 26.5959 150.968 27.8634Z" fill="url(#paint39_linear_660_55966)"/>
<path d="M140.558 138.408C139.097 138.408 137.913 139.593 137.913 141.054C137.913 142.515 139.097 143.699 140.558 143.699C142.019 143.699 143.203 142.515 143.203 141.054C143.203 139.593 142.019 138.408 140.558 138.408Z" fill="url(#paint40_linear_660_55966)"/>
<path d="M133.312 135.083C133.312 136.018 134.07 136.775 135.005 136.775C135.94 136.775 136.697 136.018 136.697 135.083C136.697 134.147 135.94 133.39 135.005 133.39C134.07 133.39 133.312 134.147 133.312 135.083Z" fill="url(#paint41_linear_660_55966)"/>
<defs>
<linearGradient id="paint0_linear_660_55966" x1="76.6028" y1="131.35" x2="70.3845" y2="130.604" gradientUnits="userSpaceOnUse">
<stop stop-color="#E3B450"/>
<stop offset="0.427885" stop-color="#F6DC7F"/>
<stop offset="1" stop-color="#CAA043"/>
</linearGradient>
<linearGradient id="paint1_linear_660_55966" x1="75.6259" y1="131.68" x2="69.0586" y2="129.453" gradientUnits="userSpaceOnUse">
<stop stop-color="#E3B450"/>
<stop offset="0.427885" stop-color="#F6DC7F"/>
<stop offset="1" stop-color="#CAA043"/>
</linearGradient>
<linearGradient id="paint2_linear_660_55966" x1="79.2765" y1="130.844" x2="75.8371" y2="130.582" gradientUnits="userSpaceOnUse">
<stop stop-color="#E3B450"/>
<stop offset="0.427885" stop-color="#F6DC7F"/>
<stop offset="1" stop-color="#CAA043"/>
</linearGradient>
<linearGradient id="paint3_linear_660_55966" x1="85.941" y1="155.232" x2="80.397" y2="154.728" gradientUnits="userSpaceOnUse">
<stop stop-color="#E3B450"/>
<stop offset="0.427885" stop-color="#F6DC7F"/>
<stop offset="1" stop-color="#CAA043"/>
</linearGradient>
<linearGradient id="paint4_linear_660_55966" x1="89.6357" y1="144.998" x2="82.3151" y2="143.846" gradientUnits="userSpaceOnUse">
<stop stop-color="#E3B450"/>
<stop offset="0.427885" stop-color="#F6DC7F"/>
<stop offset="1" stop-color="#CAA043"/>
</linearGradient>
<linearGradient id="paint5_linear_660_55966" x1="117.12" y1="135.071" x2="104.45" y2="132.412" gradientUnits="userSpaceOnUse">
<stop stop-color="#E3B450"/>
<stop offset="0.427885" stop-color="#F6DC7F"/>
<stop offset="1" stop-color="#CAA043"/>
</linearGradient>
<linearGradient id="paint6_linear_660_55966" x1="130.396" y1="136.143" x2="119.06" y2="129.588" gradientUnits="userSpaceOnUse">
<stop stop-color="#E3B450"/>
<stop offset="0.427885" stop-color="#F6DC7F"/>
<stop offset="1" stop-color="#CAA043"/>
</linearGradient>
<linearGradient id="paint7_linear_660_55966" x1="106.58" y1="138.366" x2="79.7306" y2="127.498" gradientUnits="userSpaceOnUse">
<stop stop-color="#E3B450"/>
<stop offset="0.427885" stop-color="#F6DC7F"/>
<stop offset="1" stop-color="#CAA043"/>
</linearGradient>
<linearGradient id="paint8_linear_660_55966" x1="61.9741" y1="153.859" x2="39.864" y2="144.909" gradientUnits="userSpaceOnUse">
<stop stop-color="#E3B450"/>
<stop offset="0.427885" stop-color="#F6DC7F"/>
<stop offset="1" stop-color="#CAA043"/>
</linearGradient>
<linearGradient id="paint9_linear_660_55966" x1="111.304" y1="139.84" x2="93.6096" y2="137.176" gradientUnits="userSpaceOnUse">
<stop stop-color="#E3B450"/>
<stop offset="0.427885" stop-color="#F6DC7F"/>
<stop offset="1" stop-color="#CAA043"/>
</linearGradient>
<linearGradient id="paint10_linear_660_55966" x1="81.8062" y1="154.025" x2="60.8596" y2="148.499" gradientUnits="userSpaceOnUse">
<stop stop-color="#E3B450"/>
<stop offset="0.427885" stop-color="#F6DC7F"/>
<stop offset="1" stop-color="#CAA043"/>
</linearGradient>
<linearGradient id="paint11_linear_660_55966" x1="87.1482" y1="140.797" x2="69.8453" y2="133.428" gradientUnits="userSpaceOnUse">
<stop stop-color="#E3B450"/>
<stop offset="0.427885" stop-color="#F6DC7F"/>
<stop offset="1" stop-color="#CAA043"/>
</linearGradient>
<linearGradient id="paint12_linear_660_55966" x1="125.469" y1="154.461" x2="91.0675" y2="140.941" gradientUnits="userSpaceOnUse">
<stop stop-color="#E3B450"/>
<stop offset="0.427885" stop-color="#F6DC7F"/>
<stop offset="1" stop-color="#CAA043"/>
</linearGradient>
<linearGradient id="paint13_linear_660_55966" x1="147.541" y1="160.011" x2="106.722" y2="153.232" gradientUnits="userSpaceOnUse">
<stop stop-color="#E3B450"/>
<stop offset="0.427885" stop-color="#F6DC7F"/>
<stop offset="1" stop-color="#CAA043"/>
</linearGradient>
<linearGradient id="paint14_linear_660_55966" x1="135.271" y1="115.544" x2="122.495" y2="114.671" gradientUnits="userSpaceOnUse">
<stop stop-color="#E3B450"/>
<stop offset="0.427885" stop-color="#F6DC7F"/>
<stop offset="1" stop-color="#CAA043"/>
</linearGradient>
<linearGradient id="paint15_linear_660_55966" x1="150.817" y1="66.6218" x2="140.81" y2="65.9384" gradientUnits="userSpaceOnUse">
<stop stop-color="#E3B450"/>
<stop offset="0.427885" stop-color="#F6DC7F"/>
<stop offset="1" stop-color="#CAA043"/>
</linearGradient>
<linearGradient id="paint16_linear_660_55966" x1="134.448" y1="116.037" x2="115.113" y2="112.487" gradientUnits="userSpaceOnUse">
<stop stop-color="#E3B450"/>
<stop offset="0.427885" stop-color="#F6DC7F"/>
<stop offset="1" stop-color="#CAA043"/>
</linearGradient>
<linearGradient id="paint17_linear_660_55966" x1="149.716" y1="87.4542" x2="136.916" y2="86.2598" gradientUnits="userSpaceOnUse">
<stop stop-color="#E3B450"/>
<stop offset="0.427885" stop-color="#F6DC7F"/>
<stop offset="1" stop-color="#CAA043"/>
</linearGradient>
<linearGradient id="paint18_linear_660_55966" x1="139.266" y1="92.6393" x2="131.32" y2="92.1235" gradientUnits="userSpaceOnUse">
<stop stop-color="#E3B450"/>
<stop offset="0.427885" stop-color="#F6DC7F"/>
<stop offset="1" stop-color="#CAA043"/>
</linearGradient>
<linearGradient id="paint19_linear_660_55966" x1="150.087" y1="137.158" x2="133.37" y2="135.982" gradientUnits="userSpaceOnUse">
<stop stop-color="#E3B450"/>
<stop offset="0.427885" stop-color="#F6DC7F"/>
<stop offset="1" stop-color="#CAA043"/>
</linearGradient>
<linearGradient id="paint20_linear_660_55966" x1="129.572" y1="77.55" x2="121.274" y2="75.6395" gradientUnits="userSpaceOnUse">
<stop stop-color="#E3B450"/>
<stop offset="0.427885" stop-color="#F6DC7F"/>
<stop offset="1" stop-color="#CAA043"/>
</linearGradient>
<linearGradient id="paint21_linear_660_55966" x1="131.559" y1="76.8992" x2="127.994" y2="76.6087" gradientUnits="userSpaceOnUse">
<stop stop-color="#E3B450"/>
<stop offset="0.427885" stop-color="#F6DC7F"/>
<stop offset="1" stop-color="#CAA043"/>
</linearGradient>
<linearGradient id="paint22_linear_660_55966" x1="129.443" y1="79.3081" x2="122.753" y2="76.8714" gradientUnits="userSpaceOnUse">
<stop stop-color="#E3B450"/>
<stop offset="0.427885" stop-color="#F6DC7F"/>
<stop offset="1" stop-color="#CAA043"/>
</linearGradient>
<linearGradient id="paint23_linear_660_55966" x1="152.98" y1="86.6532" x2="143.627" y2="83.8087" gradientUnits="userSpaceOnUse">
<stop stop-color="#E3B450"/>
<stop offset="0.427885" stop-color="#F6DC7F"/>
<stop offset="1" stop-color="#CAA043"/>
</linearGradient>
<linearGradient id="paint24_linear_660_55966" x1="143.481" y1="90.9646" x2="135.794" y2="89.6149" gradientUnits="userSpaceOnUse">
<stop stop-color="#E3B450"/>
<stop offset="0.427885" stop-color="#F6DC7F"/>
<stop offset="1" stop-color="#CAA043"/>
</linearGradient>
<linearGradient id="paint25_linear_660_55966" x1="131.198" y1="150.462" x2="124.781" y2="149.745" gradientUnits="userSpaceOnUse">
<stop stop-color="#E3B450"/>
<stop offset="0.427885" stop-color="#F6DC7F"/>
<stop offset="1" stop-color="#CAA043"/>
</linearGradient>
<linearGradient id="paint26_linear_660_55966" x1="148.388" y1="132.205" x2="139.276" y2="129.95" gradientUnits="userSpaceOnUse">
<stop stop-color="#E3B450"/>
<stop offset="0.427885" stop-color="#F6DC7F"/>
<stop offset="1" stop-color="#CAA043"/>
</linearGradient>
<linearGradient id="paint27_linear_660_55966" x1="139.312" y1="141.976" x2="128.167" y2="140.131" gradientUnits="userSpaceOnUse">
<stop stop-color="#E3B450"/>
<stop offset="0.427885" stop-color="#F6DC7F"/>
<stop offset="1" stop-color="#CAA043"/>
</linearGradient>
<linearGradient id="paint28_linear_660_55966" x1="132.735" y1="120.295" x2="122.431" y2="118.937" gradientUnits="userSpaceOnUse">
<stop stop-color="#E3B450"/>
<stop offset="0.427885" stop-color="#F6DC7F"/>
<stop offset="1" stop-color="#CAA043"/>
</linearGradient>
<linearGradient id="paint29_linear_660_55966" x1="135.777" y1="134.179" x2="131.437" y2="133.972" gradientUnits="userSpaceOnUse">
<stop stop-color="#E3B450"/>
<stop offset="0.427885" stop-color="#F6DC7F"/>
<stop offset="1" stop-color="#CAA043"/>
</linearGradient>
<linearGradient id="paint30_linear_660_55966" x1="141.406" y1="165.7" x2="74.648" y2="105.319" gradientUnits="userSpaceOnUse">
<stop stop-color="#E3B450"/>
<stop offset="0.427885" stop-color="#F6DC7F"/>
<stop offset="1" stop-color="#CAA043"/>
</linearGradient>
<linearGradient id="paint31_linear_660_55966" x1="20.2228" y1="157.454" x2="4.33818" y2="146.942" gradientUnits="userSpaceOnUse">
<stop stop-color="#E3B450"/>
<stop offset="0.427885" stop-color="#F6DC7F"/>
<stop offset="1" stop-color="#CAA043"/>
</linearGradient>
<linearGradient id="paint32_linear_660_55966" x1="158.535" y1="180.425" x2="136.245" y2="179.744" gradientUnits="userSpaceOnUse">
<stop stop-color="#E3B450"/>
<stop offset="0.427885" stop-color="#F6DC7F"/>
<stop offset="1" stop-color="#CAA043"/>
</linearGradient>
<linearGradient id="paint33_linear_660_55966" x1="155.617" y1="27.5641" x2="149.889" y2="27.3248" gradientUnits="userSpaceOnUse">
<stop stop-color="#E3B450"/>
<stop offset="0.427885" stop-color="#F6DC7F"/>
<stop offset="1" stop-color="#CAA043"/>
</linearGradient>
<linearGradient id="paint34_linear_660_55966" x1="33.2811" y1="155.45" x2="30.36" y2="154.964" gradientUnits="userSpaceOnUse">
<stop stop-color="#E3B450"/>
<stop offset="0.427885" stop-color="#F6DC7F"/>
<stop offset="1" stop-color="#CAA043"/>
</linearGradient>
<linearGradient id="paint35_linear_660_55966" x1="24.8944" y1="155.45" x2="21.9733" y2="154.964" gradientUnits="userSpaceOnUse">
<stop stop-color="#E3B450"/>
<stop offset="0.427885" stop-color="#F6DC7F"/>
<stop offset="1" stop-color="#CAA043"/>
</linearGradient>
<linearGradient id="paint36_linear_660_55966" x1="29.847" y1="156.783" x2="25.1542" y2="156.003" gradientUnits="userSpaceOnUse">
<stop stop-color="#E3B450"/>
<stop offset="0.427885" stop-color="#F6DC7F"/>
<stop offset="1" stop-color="#CAA043"/>
</linearGradient>
<linearGradient id="paint37_linear_660_55966" x1="154.494" y1="34.2383" x2="151.573" y2="33.7526" gradientUnits="userSpaceOnUse">
<stop stop-color="#E3B450"/>
<stop offset="0.427885" stop-color="#F6DC7F"/>
<stop offset="1" stop-color="#CAA043"/>
</linearGradient>
<linearGradient id="paint38_linear_660_55966" x1="154.494" y1="25.8533" x2="151.573" y2="25.3676" gradientUnits="userSpaceOnUse">
<stop stop-color="#E3B450"/>
<stop offset="0.427885" stop-color="#F6DC7F"/>
<stop offset="1" stop-color="#CAA043"/>
</linearGradient>
<linearGradient id="paint39_linear_660_55966" x1="155.239" y1="31.3902" x2="150.545" y2="30.6094" gradientUnits="userSpaceOnUse">
<stop stop-color="#E3B450"/>
<stop offset="0.427885" stop-color="#F6DC7F"/>
<stop offset="1" stop-color="#CAA043"/>
</linearGradient>
<linearGradient id="paint40_linear_660_55966" x1="142.837" y1="145.122" x2="137.424" y2="144.222" gradientUnits="userSpaceOnUse">
<stop stop-color="#E3B450"/>
<stop offset="0.427885" stop-color="#F6DC7F"/>
<stop offset="1" stop-color="#CAA043"/>
</linearGradient>
<linearGradient id="paint41_linear_660_55966" x1="136.463" y1="137.685" x2="133" y2="137.109" gradientUnits="userSpaceOnUse">
<stop stop-color="#E3B450"/>
<stop offset="0.427885" stop-color="#F6DC7F"/>
<stop offset="1" stop-color="#CAA043"/>
</linearGradient>
</defs>
</svg>
