<svg width="59" height="63" viewBox="0 0 59 63" fill="none" xmlns="http://www.w3.org/2000/svg">
<g clip-path="url(#clip0_653_23647)">
<path d="M58.9876 30.879C58.9713 30.8445 58.9411 30.8161 58.894 30.8113C57.1778 30.6368 57.1754 28.4474 56.8102 27.1917C56.4884 26.085 55.9313 25.0373 55.1469 24.1887C54.4563 23.4414 53.5745 22.8781 52.6208 22.5718C53.3397 22.5307 54.0522 22.2671 54.6305 21.8511C55.3054 21.3655 56.1307 20.4213 55.7941 19.5163C55.4517 18.5954 54.3155 18.5458 53.5271 18.8193C52.7636 19.0841 52.0887 19.5614 51.5638 20.169C51.7314 19.7667 51.8487 19.3421 51.9097 18.9047C52.0963 17.5689 51.9393 15.9778 51.5498 14.6828C51.1003 13.1879 49.7281 11.736 50.5511 10.1173C50.5727 10.0747 50.5569 10.0365 50.5284 10.0147C50.5277 9.9546 50.4787 9.89409 50.401 9.91196C48.8932 10.2577 47.6214 9.585 46.2507 9.0691C45.1003 8.6361 43.8676 8.40123 42.6363 8.48728C41.8299 8.54363 41.0248 8.74831 40.2934 9.09438C40.8606 8.52854 41.3659 7.88193 41.4828 7.07832C41.5868 6.36202 41.2937 5.57024 40.6066 5.24982C39.8945 4.91771 39.1097 5.34468 38.7009 5.94663C38.2706 6.58003 38.1582 7.43232 38.1165 8.2548C37.9427 7.56391 37.6311 6.90648 37.2166 6.3278C36.5784 5.43689 35.7019 4.71933 34.6889 4.29727C33.179 3.66827 31.3661 3.62613 30.3412 2.17038C30.3108 2.12723 30.2588 2.13251 30.2303 2.16006C30.1863 2.14773 30.1352 2.15629 30.1011 2.20183C29.1649 3.45051 27.5953 3.70777 26.1885 4.11662C25.0761 4.4398 24.0292 4.93935 23.1663 5.72434C22.4079 6.4141 21.8437 7.3118 21.5638 8.27769C21.3852 6.87088 20.9259 4.74801 19.1384 5.22617C18.4513 5.40997 18.165 6.03003 18.2286 6.7052C18.3137 7.60781 18.9212 8.29996 19.588 8.86996C19.098 8.66075 18.5474 8.58251 17.9136 8.60477C16.5073 8.65409 15.1726 9.15427 13.8318 9.53091C12.1635 9.99964 10.5771 10.1 8.88335 9.6908C8.82473 9.67658 8.78535 9.71558 8.7763 9.76049C8.71818 9.78326 8.6749 9.84767 8.71566 9.91749C9.57915 11.401 8.64358 12.9953 8.0371 14.3766C7.48559 15.6327 7.3613 16.8526 7.67153 18.1928C7.86563 19.0315 8.14944 19.9032 8.60999 20.6516C7.81896 20.0288 6.92956 19.3866 5.99915 19.0797C5.19692 18.8152 4.15367 18.9278 3.74758 19.773C3.34817 20.6043 4.01466 21.3442 4.7297 21.6932C5.60162 22.1187 6.60437 22.2076 7.57692 22.1831C6.2983 22.4546 5.1037 23.1088 4.1865 24.0938C3.39245 24.9465 2.91089 25.9767 2.55815 27.0763C2.1493 28.3508 1.8967 30.2348 0.560578 30.8824C0.450504 30.9357 0.517932 31.0813 0.617188 31.0912C1.56786 31.1871 2.02715 32.0417 2.38782 32.8189C2.69867 33.4887 3.01493 34.1543 3.36302 34.8057C3.98874 35.9765 4.71775 37.136 5.78956 37.9497C6.30811 38.3434 6.89597 38.6401 7.51931 38.7939C6.95736 38.8176 6.39567 38.8452 5.83397 38.872C5.29127 38.8978 4.71272 38.8728 4.1792 38.9942C3.35132 39.1825 2.99568 39.933 3.33597 40.719C3.71299 41.5898 4.67762 41.979 5.57784 41.8775C6.57657 41.7649 7.35904 41.1825 8.05069 40.5069C7.63819 41.5848 7.62548 42.8312 7.6709 44.059C7.7621 46.5185 9.19357 48.9527 8.46821 51.4144C8.44507 51.4927 8.52294 51.5712 8.60156 51.5477C10.1702 51.0794 11.6923 51.6429 13.2171 52.0027C14.6004 52.3292 16.0554 52.3911 17.4641 52.1977C18.2839 52.0853 19.0267 51.8101 19.6848 51.4095C19.356 51.7538 19.0666 52.1449 18.7848 52.5196C18.4322 52.9886 18.0575 53.4733 17.8354 54.0214C17.4987 54.8516 17.6483 55.7498 18.5616 56.0915C19.3019 56.3685 20.1741 56.0729 20.6591 55.4657C20.9693 55.0773 21.0499 54.6001 21.0898 54.1174C21.1309 53.6196 21.1674 53.1135 21.1849 52.6092C21.5502 53.6995 22.3255 54.6999 23.1936 55.4044C25.1684 57.0073 28.0943 57.5753 29.4065 59.913C29.4497 59.9899 29.5556 59.9814 29.6005 59.913C31.1487 57.5568 34.1967 57.0883 36.2395 55.3134C36.9553 54.6915 37.4972 53.9219 37.7512 53.0274C37.696 53.9957 37.7985 54.992 38.3997 55.7777C38.9258 56.4654 39.8933 56.8922 40.7295 56.5153C41.5687 56.137 41.9001 55.1597 41.5798 54.325C41.2318 53.4185 40.4328 52.5478 39.6449 51.9012C40.73 52.4486 42.0131 52.6412 43.2639 52.5814C45.9967 52.4508 48.6216 51.3327 51.3824 51.6947C51.4685 51.706 51.521 51.5911 51.4796 51.5252C50.7169 50.306 51.1053 48.9276 51.4957 47.6528C51.865 46.4465 51.9357 45.3523 51.8862 44.0941C51.8421 42.9783 51.706 41.772 51.229 40.7652C51.8152 41.3415 52.4861 41.8424 53.2775 42.079C53.9331 42.275 55.0341 42.3669 55.4306 41.6489C55.8036 40.9736 55.225 40.2907 54.6568 39.9835C53.7229 39.4785 52.6203 39.3657 51.5693 39.2924C52.5003 39.1019 53.3356 38.5755 54.0166 37.9118C54.9982 36.9551 55.6378 35.7319 56.2655 34.5298C56.937 33.2439 57.6125 31.7169 59.004 31.0787C59.0915 31.0385 59.0602 30.9103 58.9876 30.879ZM52.9392 19.2852C53.7596 18.8467 55.6496 18.4579 55.6667 19.9394C55.6765 20.7861 54.8078 21.5546 54.1238 21.9185C53.3842 22.312 52.623 22.3929 51.802 22.3308C51.7699 22.3284 51.7467 22.3437 51.7313 22.3655C51.1143 22.2763 50.4834 22.2963 49.8675 22.4436C50.98 21.9507 52.1004 21.44 53.171 20.8641C53.2263 20.8977 53.2954 20.9115 53.3782 20.8941C53.3801 20.8938 53.3812 20.8927 53.3829 20.8922C53.5882 21.0474 53.9139 21.0105 54.0859 20.8178C54.289 20.5901 54.2099 20.2224 53.9743 20.0495C53.6906 19.8413 53.2421 19.9992 53.0686 20.2846C52.9916 20.4113 52.9896 20.5985 53.0566 20.7336C52.0146 21.1901 50.9904 21.7156 49.9828 22.2489C50.0966 22.1592 50.2068 22.0648 50.3128 21.9659C50.7043 21.6013 51.0338 21.1805 51.2932 20.721C51.7418 20.1353 52.2822 19.6364 52.9392 19.2852ZM53.3636 20.2143C53.5696 20.0797 53.851 20.0683 53.9865 20.3002C54.2237 20.7062 53.711 20.9801 53.3892 20.7507C53.3658 20.7341 53.3429 20.7404 53.3271 20.7559C53.3247 20.7549 53.3224 20.7537 53.3202 20.7526C53.3262 20.7022 53.2731 20.6489 53.2115 20.6674C53.112 20.5322 53.1914 20.3269 53.3636 20.2143ZM43.7381 8.71673C44.9926 8.81712 46.1048 9.25956 47.2613 9.71697C48.2421 10.1049 49.3024 10.425 50.3477 10.1418C49.8156 11.082 50.1719 12.1738 50.6113 13.0929C50.9365 13.7731 51.2782 14.4297 51.4417 15.1721C51.621 15.9868 51.7137 16.8453 51.7397 17.6791C51.7858 19.1518 51.3868 20.5413 50.3475 21.6166C49.8594 22.1217 49.2629 22.5309 48.6058 22.7831C48.432 22.8499 48.2552 22.9057 48.0777 22.9585C48.0848 22.9516 48.0922 22.9454 48.098 22.9355C49.9199 19.7434 50.2372 15.3074 47.1693 12.7339C45.741 11.5358 43.8827 11.1 42.052 11.0863C40.4509 11.0742 38.7043 11.3165 37.4874 12.4356C37.6265 12.1518 37.7547 11.8626 37.8648 11.5675C37.8798 11.5648 37.8941 11.556 37.9047 11.5385C39.1384 9.49267 41.3927 8.52892 43.7381 8.71673ZM21.9792 49.0118C21.9746 49.0069 21.9699 49.0018 21.964 48.999C22.086 48.7826 22.1997 48.5599 22.3019 48.3295C22.3463 52.0356 25.9003 54.5936 29.4188 54.685C33.0473 54.7795 37.0661 52.3122 36.7436 48.2744C36.7512 48.2827 36.7597 48.2901 36.7673 48.2984C36.7668 48.3156 36.7691 48.3334 36.7775 48.3523C36.9699 48.7872 37.1557 49.2395 37.3089 49.7029C37.3039 49.7097 37.298 49.7149 37.2939 49.724C36.907 50.6071 36.604 51.5405 36.062 52.3457C35.6017 53.0294 34.9933 53.6073 34.308 54.0623C32.9093 54.991 31.2127 55.4351 29.5429 55.4454C27.6711 55.4569 25.7348 54.9436 24.2693 53.7407C22.8383 52.5661 22.1201 50.9402 22.0009 49.1244C22.0049 49.1205 22.0095 49.1171 22.0136 49.1132C22.0509 49.0768 22.0215 49.0189 21.9792 49.0118ZM37.1398 12.5339C37.1474 12.5491 37.1605 12.5574 37.1749 12.5609C37.0738 12.7585 36.9697 12.9542 36.8613 13.1454C36.5999 9.51078 33.5836 6.55235 29.8663 6.54254C26.0447 6.53248 22.7556 9.74489 22.8334 13.6033C22.8256 13.6064 22.8178 13.6097 22.8099 13.6129C22.809 13.6077 22.8086 13.6028 22.807 13.5974C22.6922 13.2156 22.5536 12.8408 22.3972 12.4732C22.4345 12.4969 22.4892 12.4903 22.5034 12.434C22.9027 10.8485 23.6349 9.39429 24.7954 8.22775C26.179 6.83691 27.8465 6.1659 29.8037 6.15319C31.6507 6.14124 33.4933 6.68885 34.8757 7.94659C36.1105 9.07011 36.8973 10.6093 37.0996 12.2638C37.0841 12.3584 37.0966 12.4468 37.1398 12.5339ZM47.9909 22.9848C47.6493 23.0848 47.3061 23.1773 46.9761 23.3143C49.2058 20.4285 49.8362 16.0751 46.9077 13.3923C45.5587 12.1565 43.7403 11.5487 41.9229 11.587C40.1637 11.6241 38.0842 12.1712 36.8797 13.5415C36.8794 13.5248 36.878 13.5084 36.8777 13.4917C36.9022 13.4858 36.9253 13.4712 36.9418 13.4429C37.0947 13.1825 37.2429 12.9163 37.3822 12.6452C37.3996 12.651 37.4199 12.6496 37.4378 12.6346C38.7619 11.5373 40.4875 11.2619 42.1612 11.2895C43.9685 11.3192 45.8152 11.7805 47.1829 13.0196C50.0077 15.5791 49.6541 19.775 47.9147 22.8284C47.8727 22.9023 47.9273 22.9712 47.9909 22.9848ZM29.4189 54.4729C25.7814 54.3832 22.5959 51.7804 22.4172 48.0515C22.4267 48.0412 22.4361 48.0309 22.4457 48.0208C23.3677 48.4156 24.3279 48.7372 25.3189 48.98C25.1502 49.454 25.4737 50.0439 25.9591 50.1737C26.307 50.2668 26.6831 50.1023 26.8982 49.8236C26.9586 50.2054 27.2047 50.5704 27.5822 50.6428C27.8928 50.7025 28.128 50.4704 28.3188 50.2571C28.3681 50.202 28.4154 50.1456 28.4579 50.0873C28.3601 50.6251 28.38 51.1806 28.5139 51.7183C28.6353 52.2063 28.863 52.9326 29.446 53.0259C30.852 53.2507 30.7791 50.8845 30.7757 49.7811C30.8893 50.1495 31.2251 50.4348 31.636 50.4241C32.0056 50.4145 32.2177 50.2096 32.3386 49.9357C32.3524 49.9925 32.3797 50.0476 32.4299 50.1004C32.6295 50.3104 33.0378 50.4484 33.3233 50.4184C34.0123 50.3462 34.0487 49.5748 33.9604 49.0342C34.8391 48.8304 35.6939 48.5638 36.5204 48.2402C36.5191 48.2487 36.5186 48.2581 36.5194 48.268C36.8354 52.1922 32.9346 54.5596 29.4189 54.4729ZM46.7412 23.2717C46.3095 22.3129 45.7987 21.3971 45.2175 20.5322C45.5802 20.2348 45.9263 19.815 45.6829 19.3316C45.4367 18.8426 44.8706 18.7632 44.3992 18.9222C44.5493 18.5891 44.4641 18.1413 44.2236 17.8782C44.0065 17.6407 43.6742 17.5573 43.3824 17.6407C44.0667 17.1303 44.6839 16.5283 45.205 15.8518C45.6039 15.334 45.8655 14.711 45.2097 14.2542C43.7669 13.2493 42.2741 15.6924 41.7646 16.6757L41.7645 16.6761C41.7455 16.66 41.7266 16.6439 41.7075 16.6279C41.9802 16.3934 42.1253 16.0025 41.8811 15.6858C41.6783 15.4227 41.2584 15.4295 40.9477 15.5737C41.0807 15.3342 41.0296 15.0031 40.7717 14.8269C40.4052 14.5769 39.7133 14.6117 39.4777 15.0185C38.6771 14.5262 37.8369 14.0922 36.9626 13.7236C39.4194 11.1372 44.1788 11.1871 46.7523 13.5472C49.6147 16.1725 48.9656 20.4527 46.7534 23.2472C46.7474 23.2553 46.745 23.2636 46.7412 23.2717ZM44.4333 19.4508C44.4386 19.4508 44.4443 19.4503 44.4504 19.4482C44.6218 19.3884 44.8451 19.3595 44.9675 19.5305C45.0769 19.6833 44.9646 19.9036 44.7839 19.9158C44.6693 19.7589 44.5527 19.6037 44.4333 19.4508ZM45.125 19.5376C45.0238 19.2712 44.6314 19.1987 44.4129 19.3593C44.3998 19.3688 44.3939 19.3834 44.3927 19.3981C44.3329 19.3221 44.2717 19.2474 44.2108 19.1723C44.2368 19.1503 44.2612 19.127 44.2834 19.1022C44.7327 18.9411 45.3688 18.93 45.5614 19.4747C45.6975 19.8597 45.3979 20.1585 45.1206 20.3902C45.0422 20.2758 44.9628 20.1624 44.8819 20.0499C45.0824 19.9971 45.1999 19.7353 45.125 19.5376ZM43.7189 18.5559C43.7113 18.5588 43.7049 18.5636 43.6991 18.569C43.5993 18.4561 43.4981 18.3444 43.3956 18.2341C43.5301 18.1886 43.7297 18.1595 43.8149 18.2959C43.8442 18.3429 43.8486 18.4047 43.8325 18.457C43.8124 18.5222 43.7763 18.5334 43.7189 18.5559ZM43.9341 18.2921C43.8398 18.0577 43.5293 18.0787 43.3378 18.1577C43.3346 18.1591 43.3324 18.1614 43.3297 18.1632C43.2558 18.0844 43.1814 18.0064 43.1061 17.929C43.11 17.927 43.1139 17.9256 43.1176 17.9226C43.4382 17.6583 43.9027 17.7055 44.1501 18.0435C44.3907 18.3722 44.3299 18.7413 44.1145 19.0531C44.0084 18.9245 43.9002 18.7978 43.7906 18.6721C43.936 18.6432 43.9841 18.4161 43.9341 18.2921ZM42.0898 16.9579C42.2821 16.5481 42.5087 16.1583 42.7882 15.8005C43.1105 15.388 43.6973 14.6479 44.3102 14.7645C44.3068 14.7819 44.314 14.8017 44.3361 14.8102C45.3689 15.2104 43.1824 17.2228 42.7723 17.5938C42.5501 17.3761 42.3226 17.1642 42.0898 16.9579ZM44.5693 14.812C44.5971 14.7853 44.6036 14.7373 44.5594 14.7139C43.995 14.4158 43.507 14.8243 43.1142 15.2172C42.634 15.6974 42.2673 16.2629 42.0122 16.8889C41.9608 16.8439 41.9093 16.7991 41.8574 16.7546C41.8628 16.7502 41.8681 16.7455 41.8724 16.7387C42.4471 15.8399 43.2076 14.3707 44.424 14.2898C45.2339 14.2359 45.5905 14.8475 45.1577 15.5731C44.9851 15.8624 44.7023 16.14 44.4699 16.3859C44.0232 16.8584 43.5304 17.2685 43.0088 17.6553C42.9587 17.6924 42.955 17.752 42.9767 17.7963C42.9451 17.7645 42.9138 17.7324 42.882 17.7007C43.3302 17.3335 45.4361 15.3027 44.5693 14.812ZM43.0348 17.85C43.0338 17.8513 43.0337 17.8527 43.0328 17.8539C43.0296 17.8507 43.0265 17.8475 43.0233 17.8442C43.0272 17.8461 43.0308 17.8487 43.0348 17.85ZM41.0155 16.0742C41.1348 16.0042 41.2849 15.9134 41.4243 15.9804C41.6036 16.0667 41.4759 16.2574 41.3924 16.3692C41.2681 16.2694 41.1424 16.171 41.0155 16.0742ZM41.5356 15.9191C41.3544 15.7702 41.1233 15.8881 40.9596 15.9993C40.9516 16.0048 40.9468 16.0116 40.9434 16.0188C40.8747 15.9669 40.8052 15.9161 40.7358 15.8652C41.016 15.7537 41.3891 15.4874 41.6862 15.7103C41.9986 15.9445 41.8649 16.3305 41.6494 16.5786C41.5944 16.5328 41.5389 16.4875 41.4833 16.4423C41.6034 16.2963 41.7147 16.0663 41.5356 15.9191ZM40.2697 15.5343C40.1661 15.4631 40.0615 15.393 39.9562 15.3239C40.0274 15.2096 40.1989 15.1311 40.3096 15.2358C40.3938 15.3152 40.3738 15.4816 40.2697 15.5343ZM40.376 15.1694C40.2253 15.0251 39.9787 15.1109 39.885 15.2768C39.8087 15.2271 39.7318 15.1781 39.6547 15.1294C39.6536 15.1115 39.6489 15.0939 39.6375 15.0806C39.8116 14.8386 40.1437 14.8249 40.4296 14.8798C40.9016 14.9702 41.0231 15.4514 40.6252 15.7399C40.6144 15.7477 40.6091 15.7595 40.6075 15.7716C40.5285 15.7147 40.4487 15.6586 40.3687 15.6029C40.4886 15.4971 40.4965 15.2847 40.376 15.1694ZM32.9204 12.5413C32.6982 12.5031 32.4747 12.4688 32.2499 12.4385C32.2979 12.2503 32.4222 12.0661 32.6518 12.1116C32.8501 12.1506 32.9511 12.3567 32.9204 12.5413ZM32.6365 11.9909C32.4104 11.9703 32.1346 12.1849 32.1325 12.422C32.0178 12.4073 31.9023 12.3947 31.7869 12.382C31.7879 12.357 31.7899 12.3323 31.7896 12.3069C31.9168 11.8941 32.451 11.5334 32.8831 11.6494C33.3238 11.7676 33.4419 12.2385 33.4425 12.6384C33.309 12.6115 33.1753 12.5853 33.0408 12.5613C33.0944 12.3043 32.906 12.0156 32.6365 11.9909ZM30.6614 12.2927C30.6272 12.1153 30.8195 11.9674 30.9834 12.0465C31.1009 12.1033 31.1421 12.2099 31.1693 12.3238C31.0007 12.3111 30.8312 12.301 30.6614 12.2927ZM31.2864 12.334C31.269 12.1345 31.1023 11.9196 30.8975 11.9171C30.7152 11.9148 30.5122 12.1065 30.5918 12.2902C30.4813 12.2853 30.3706 12.2805 30.2593 12.2775C30.2609 12.2737 30.2639 12.2711 30.264 12.2664C30.2795 11.8285 30.8984 11.4909 31.285 11.6452C31.5996 11.7708 31.5973 12.0781 31.6464 12.3662C31.5268 12.3539 31.4066 12.3438 31.2864 12.334ZM28.8036 12.2941C28.5741 11.4533 28.0704 9.75446 29.1586 9.34045C29.7419 9.21113 29.5975 10.6407 29.6008 10.8845C29.6071 11.3464 29.6018 11.8106 29.6316 12.2717C29.3542 12.2735 29.0781 12.2804 28.8036 12.2941ZM29.7285 9.74842C29.6776 9.47417 29.5408 9.21792 29.2738 9.22937C29.2625 9.20987 29.2409 9.1959 29.2118 9.20119C27.9138 9.43568 28.3188 11.4315 28.7018 12.3004C28.6026 12.3059 28.5034 12.3122 28.4046 12.3193C28.4054 12.311 28.4057 12.3021 28.4035 12.2923C28.1794 11.275 27.6945 9.74854 28.8147 9.03891C30.0571 8.2519 30.0679 9.75999 30.0798 10.3902C30.0917 11.0148 30.0602 11.6226 29.9661 12.2414C29.9643 12.2527 29.966 12.2629 29.9674 12.273C29.9048 12.2722 29.8426 12.2707 29.7799 12.2706C29.8085 11.4745 29.8729 10.5264 29.7285 9.74842ZM27.4013 12.418C27.2521 12.3024 27.3614 12.0937 27.5329 12.0921C27.6989 12.0906 27.7844 12.2272 27.8162 12.3703C27.6774 12.3848 27.5391 12.4005 27.4013 12.418ZM27.9446 12.3581C27.9041 12.1172 27.6904 11.9046 27.4302 11.9821C27.2412 12.0383 27.1583 12.2933 27.2807 12.4345C27.1653 12.4498 27.0501 12.4654 26.9355 12.4829C26.9839 12.0659 27.131 11.4165 27.7129 11.6241C27.8949 11.689 28.0309 11.8133 28.1395 11.962C28.1789 12.0945 28.2213 12.2184 28.2649 12.3297C28.158 12.338 28.0512 12.3478 27.9446 12.3581ZM25.7985 12.6938C25.7979 12.6925 25.7984 12.6912 25.7976 12.69C25.7552 12.6185 25.7101 12.5597 25.7284 12.4698C25.7526 12.3521 25.8639 12.2959 25.9769 12.2994C26.1617 12.3052 26.2667 12.4384 26.3494 12.5827C26.1647 12.6169 25.9812 12.6541 25.7985 12.6938ZM26.4882 12.5568C26.3714 12.3048 26.1069 12.0835 25.8189 12.1916C25.6961 12.2376 25.6094 12.3453 25.5992 12.4774C25.5927 12.5622 25.6192 12.6658 25.6884 12.7178C25.5705 12.7441 25.4532 12.7718 25.3361 12.8003C25.2325 12.384 25.4036 11.9298 25.8771 11.8417C26.3694 11.75 26.6066 12.1302 26.81 12.5032C26.7025 12.5204 26.5951 12.5378 26.4882 12.5568ZM32.7957 11.4823C32.3984 11.4506 31.9495 11.7111 31.7637 12.0752C31.6928 11.7415 31.4775 11.44 31.1033 11.4501C30.8149 11.4579 30.3718 11.6613 30.2251 11.9595C30.3565 11.1739 30.3677 10.3056 30.2497 9.53871C30.1635 8.97865 29.8146 8.55219 29.2064 8.65245C27.8089 8.88279 27.7834 10.4901 28.0602 11.663C27.8988 11.5136 27.6944 11.4178 27.4763 11.4307C27.0642 11.4554 26.808 11.918 26.8188 12.3116C26.6335 11.8657 26.2555 11.5382 25.7215 11.7138C25.2491 11.869 25.0495 12.3902 25.1803 12.8384C24.4358 13.027 23.7092 13.2605 23.0032 13.5359C23.1678 9.82377 26.0554 6.73942 29.8665 6.753C33.622 6.76634 36.6345 9.87824 36.6634 13.6012C35.6807 13.2069 34.6569 12.8942 33.6003 12.6712C33.6077 12.1557 33.3972 11.5302 32.7957 11.4823ZM30.1909 12.2759C30.1821 12.2756 30.1732 12.2757 30.1644 12.2755C30.1691 12.2511 30.1735 12.2264 30.1785 12.2021C30.1808 12.2264 30.1842 12.2509 30.1909 12.2759ZM29.7509 12.5218C38.9895 12.5218 46.6558 19.3772 47.9332 28.2679C47.9122 28.2764 47.8918 28.2855 47.8734 28.2954C47.7992 28.3351 47.8656 28.4495 47.9395 28.4084C47.9434 28.4063 47.9482 28.4045 47.952 28.4025C48.0629 29.2169 48.1214 30.0478 48.1214 30.8923C48.1214 36.6931 45.4182 41.8736 41.206 45.2426C41.18 45.2176 41.1297 45.2257 41.1291 45.2727C41.1289 45.2831 41.1306 45.2927 41.1313 45.3028C37.9998 47.7812 34.0452 49.2628 29.7507 49.2628C19.6212 49.2628 11.3802 41.0218 11.3802 30.8923C11.3803 20.7628 19.6214 12.5218 29.7509 12.5218ZM48.2206 33.2783C48.3801 33.3373 48.5761 33.341 48.6863 33.4745C48.7923 33.6027 48.6943 33.7458 48.5593 33.7946C48.4246 33.8433 48.2844 33.7995 48.1499 33.7729C48.1756 33.6087 48.1994 33.4439 48.2206 33.2783ZM48.3615 31.511C48.5485 31.5062 48.773 31.5331 48.8242 31.7355C48.8929 32.0073 48.532 32.057 48.335 32.0634C48.3466 31.8798 48.3555 31.6958 48.3615 31.511ZM48.3245 29.5548C48.3462 29.548 48.3681 29.5412 48.3908 29.5344C48.3687 29.5439 48.3469 29.5542 48.3252 29.5644C48.3249 29.5611 48.3247 29.558 48.3245 29.5548ZM48.1959 28.3298C48.3383 28.3133 48.4873 28.3384 48.5788 28.4409C48.7782 28.6639 48.4457 28.7928 48.2606 28.8516C48.2415 28.6769 48.2197 28.5029 48.1959 28.3298ZM48.1389 33.8398C48.3746 33.9237 48.8092 33.9558 48.8377 33.6063C48.8636 33.2888 48.4594 33.2531 48.2341 33.1645C48.2512 33.0242 48.2672 32.8836 48.2811 32.7423C48.373 32.7514 48.471 32.756 48.5724 32.7525C48.9062 32.9232 49.2553 33.1753 49.1634 33.5808C49.081 33.9443 48.4451 34.3354 48.0801 34.1919C48.1011 34.0752 48.1201 33.9575 48.1389 33.8398ZM48.4107 32.5756C48.3891 32.5681 48.3672 32.5603 48.3463 32.5536C48.325 32.5467 48.3069 32.5597 48.2984 32.5769C48.2976 32.5769 48.2969 32.5769 48.296 32.5769C48.3092 32.4308 48.3206 32.2844 48.3305 32.1373C48.5783 32.1404 48.9518 32.0825 48.9317 31.7572C48.9137 31.4677 48.61 31.4075 48.3658 31.4044C48.3691 31.2848 48.3702 31.1645 48.3712 31.0443C48.4824 31.0816 48.6232 31.123 48.7867 31.1648C49.1313 31.3264 49.4654 31.5604 49.4557 31.9659C49.4425 32.52 48.8521 32.5686 48.4107 32.5756ZM48.3722 30.8356C48.3721 30.7771 48.3707 30.7188 48.37 30.6603C48.9905 30.8078 52.4978 31.5068 51.5489 29.9097C51.5284 29.8752 51.4929 29.8738 51.4674 29.8899C51.247 29.601 50.812 29.4971 50.4464 29.4363C50.0085 29.3636 49.5076 29.3121 49.0358 29.3689C50.1333 29.1343 51.676 29.0439 52.0361 30.1288C52.5791 31.7636 49.13 31.0438 48.3722 30.8356ZM51.5399 30.2531C51.541 30.2575 51.5446 30.2593 51.5472 30.2624C51.6503 30.8334 50.9121 30.7859 50.6185 30.7868C50.3929 30.7875 50.1674 30.7803 49.9422 30.7668C49.4211 30.7353 48.9062 30.6586 48.393 30.5669C48.384 30.5652 48.3761 30.5664 48.3688 30.5686C48.364 30.2935 48.3533 30.02 48.3367 29.7479C49.0875 29.4206 51.2787 29.2711 51.5399 30.2531ZM48.3174 29.4481C48.3039 29.274 48.2876 29.1008 48.2694 28.9281C48.5052 28.894 48.8353 28.7362 48.7179 28.4489C48.634 28.2437 48.3985 28.1872 48.1789 28.2087C48.1691 28.1409 48.1595 28.0731 48.1489 28.0056C48.5443 28.0307 49.0095 28.1032 49.1473 28.5283C49.2933 28.9793 48.7196 29.2897 48.3174 29.4481ZM47.9203 26.8066C48.0741 26.7443 48.2701 26.7886 48.3414 26.9548C48.4302 27.1613 48.2352 27.3572 48.0368 27.3672C48.0007 27.1793 47.9621 26.9924 47.9203 26.8066ZM48.0557 27.4657C48.3123 27.463 48.5449 27.2051 48.4652 26.9423C48.3975 26.7192 48.1053 26.5886 47.8927 26.6814C47.8797 26.6258 47.8655 26.5707 47.852 26.5154C48.2605 26.5004 48.7267 26.5671 48.8713 27.0126C49.0378 27.5263 48.5102 27.7196 48.1142 27.7968C48.0957 27.6862 48.0763 27.5757 48.0557 27.4657ZM40.686 45.9558C40.7161 46.0023 40.741 46.0491 40.7456 46.1175C40.7524 46.2196 40.7183 46.3288 40.6422 46.3996C40.4936 46.5378 40.2647 46.48 40.1412 46.3392C40.3252 46.2149 40.5065 46.0865 40.686 45.9558ZM40.0806 46.379C40.213 46.5653 40.4935 46.6428 40.6903 46.4991C40.8554 46.3785 40.9305 46.049 40.8005 45.8723C40.8661 45.8236 40.9316 45.7745 40.9966 45.725C41.2828 46.0289 41.283 46.5271 40.8934 46.7624C40.5022 46.9988 40.1756 46.7633 39.9039 46.4954C39.963 46.4569 40.022 46.4182 40.0806 46.379ZM41.7667 45.1068C41.9022 45.185 41.8891 45.4027 41.7549 45.4859C41.6367 45.5593 41.4573 45.5431 41.339 45.4586C41.4833 45.3435 41.6258 45.226 41.7667 45.1068ZM41.1533 45.6047C41.1844 45.5805 41.216 45.557 41.2469 45.5327C41.4038 45.6712 41.6813 45.6977 41.8522 45.5792C42.0422 45.4472 42.0494 45.1472 41.8816 45.0097C41.9666 44.9364 42.0505 44.8621 42.1342 44.7875C42.3735 45.0737 42.8433 45.6753 42.2731 45.8944C41.9364 46.0237 41.3097 45.9742 41.1533 45.6047ZM42.2869 44.651C42.3676 44.5774 42.4472 44.5028 42.5264 44.428C42.9306 45.257 43.6593 45.9239 44.5015 46.2938C44.9584 46.4946 45.723 46.5979 45.7048 45.8846C45.7028 45.804 45.592 45.8085 45.5827 45.8846C45.4522 46.9497 43.8429 45.7837 43.5694 45.5512C43.1719 45.2133 42.8684 44.8059 42.5912 44.3676C42.819 44.1505 43.041 43.9272 43.2576 43.6988C43.2605 43.7021 43.2617 43.7059 43.2654 43.7089C43.6457 44.0283 44.0345 44.3358 44.4059 44.6661C44.7874 45.0055 45.5058 45.4824 45.4712 46.0494C45.4689 46.0869 45.5212 46.089 45.5328 46.0577C45.7109 45.5763 45.2294 45.1953 44.9198 44.8949C44.4351 44.4246 43.9233 43.9688 43.378 43.5696C43.3926 43.554 43.4072 43.5384 43.4216 43.5227C44.0186 43.9044 47.1999 46.1996 45.4105 46.7688C44.7494 46.9792 43.9158 46.3226 43.4294 45.9144C42.9903 45.5456 42.6227 45.1142 42.2869 44.651ZM44.1148 42.7314C44.2281 42.8289 44.3512 42.951 44.2946 43.1049C44.2083 43.3393 43.9509 43.1895 43.8154 43.0848C43.9165 42.9683 44.0165 42.8506 44.1148 42.7314ZM43.7659 43.1405C43.9112 43.3055 44.1832 43.4233 44.3523 43.2243C44.5226 43.0239 44.3606 42.7845 44.1894 42.639C44.2588 42.5538 44.3283 42.4688 44.3961 42.3823C44.7728 42.5664 44.8686 43.0549 44.5641 43.3624C44.2761 43.6533 43.8694 43.5817 43.5801 43.3499C43.6425 43.2807 43.7044 43.2109 43.7659 43.1405ZM44.5157 42.2265C44.6142 42.0984 44.7111 41.9691 44.8063 41.8385C44.8079 41.8396 44.8088 41.8413 44.8107 41.8423C44.9761 41.938 45.2674 42.0512 45.4021 41.8471C45.4654 41.7512 45.4514 41.6267 45.3938 41.5313C45.3394 41.4412 45.2511 41.385 45.1582 41.3403C45.2158 41.2556 45.2721 41.1699 45.3285 41.0841C45.5903 41.3454 45.8131 41.697 45.5918 42.0556C45.3438 42.4572 44.8786 42.406 44.5157 42.2265ZM45.0917 41.4362C45.2349 41.5095 45.4213 41.6405 45.3028 41.7952C45.2036 41.9248 44.975 41.8217 44.8624 41.7618C44.9399 41.6541 45.0163 41.5455 45.0917 41.4362ZM33.1381 50.2457C32.8521 50.2141 32.4525 50.0618 32.4596 49.7238C32.4626 49.5742 32.5113 49.4621 32.4793 49.3141C32.6076 49.2953 32.7355 49.2746 32.8629 49.2531C32.8441 49.4748 32.9005 49.7547 33.1615 49.7765C33.5167 49.806 33.6177 49.3894 33.5818 49.1175C33.652 49.1028 33.722 49.0872 33.7919 49.0717C33.8534 49.5774 33.8557 50.3249 33.1381 50.2457ZM25.4947 49.0232C25.6097 49.0502 25.7253 49.0754 25.8411 49.1003C25.7717 49.2612 25.8262 49.4833 25.9828 49.5722C26.1085 49.6435 26.2647 49.6124 26.3752 49.5273C26.4584 49.463 26.5379 49.3459 26.5299 49.235C26.667 49.259 26.8044 49.2819 26.9425 49.3029C26.9118 49.3846 26.8937 49.4728 26.8869 49.5637C26.718 49.8789 26.39 50.1056 26.0072 50.0005C25.5659 49.8792 25.4151 49.425 25.4947 49.0232ZM25.9307 49.1198C26.0901 49.1531 26.2502 49.1847 26.4111 49.214C26.3969 49.2978 26.3861 49.3675 26.3102 49.4313C26.2297 49.4989 26.1097 49.5296 26.017 49.4661C25.9028 49.3876 25.8845 49.2404 25.9307 49.1198ZM27.1164 49.3272C27.2098 49.3406 27.3031 49.3543 27.3969 49.3662C27.3915 49.3709 27.3868 49.3765 27.3846 49.3843C27.3203 49.6134 27.3131 49.9805 27.6164 50.0315C27.9536 50.0881 28.1326 49.7197 28.1865 49.4491C28.1867 49.4488 28.1865 49.4485 28.1865 49.4481C28.3037 49.4579 28.421 49.4664 28.5388 49.4739C28.5387 49.4755 28.5371 49.4763 28.5371 49.4781C28.5397 49.8869 27.9731 50.6094 27.5228 50.4285C27.0824 50.2514 27.039 49.725 27.1164 49.3272ZM27.4602 49.3735C27.6599 49.3982 27.8608 49.4189 28.0625 49.4372C27.9999 49.6381 27.9132 49.9522 27.6406 49.9132C27.3969 49.8784 27.4458 49.5685 27.4653 49.3953C27.4663 49.3865 27.464 49.3794 27.4602 49.3735ZM28.7607 49.4881C28.868 49.4938 28.9759 49.4974 29.0837 49.5013C28.7497 50.1386 28.6993 50.8977 28.9234 51.5821C29.0382 51.9328 29.3268 52.5571 29.7773 52.2263C29.7926 52.2151 29.8007 52.2006 29.8037 52.1858C30.0504 52.0641 30.1239 51.8116 30.1709 51.511C30.2737 50.8544 30.3443 50.1862 30.4112 49.525C30.4121 49.5164 30.4103 49.5089 30.4083 49.5017C30.4613 49.4998 30.5142 49.4979 30.567 49.4957C30.5424 49.9759 30.5177 50.4559 30.4932 50.9361C30.465 51.4846 30.5205 52.4619 29.8874 52.7358C28.9299 53.15 28.6616 51.5882 28.6125 51.064C28.5624 50.5287 28.636 50.0071 28.7607 49.4881ZM28.6216 49.4792C28.6224 49.4792 28.6233 49.4793 28.6242 49.4793C28.6236 49.481 28.6229 49.4827 28.6224 49.4844C28.6219 49.4827 28.6217 49.481 28.6216 49.4792ZM29.7509 49.5144C29.9204 49.5144 30.0894 49.5118 30.258 49.5073C30.2066 49.8746 30.1657 50.2433 30.1218 50.6115C30.0716 51.0321 30.1234 52.0258 29.6052 52.1594C29.6041 52.1596 29.6034 52.1604 29.6023 52.1607C29.0946 52.263 28.9421 50.99 28.9361 50.7725C28.9237 50.3256 29.0319 49.9174 29.1885 49.5051C29.3753 49.5108 29.5627 49.5144 29.7509 49.5144ZM31.9196 49.3875C31.9745 49.5798 31.8503 49.8236 31.6279 49.8214C31.4359 49.8194 31.3137 49.6249 31.3242 49.4474C31.5236 49.4306 31.722 49.4105 31.9196 49.3875ZM31.6112 49.9362C31.8951 49.9557 32.1311 49.64 32.0467 49.3729C32.1351 49.3619 32.2231 49.3497 32.3111 49.3377C32.2655 49.7765 32.1348 50.2743 31.5908 50.2678C31.1403 50.2624 30.9038 49.875 30.8151 49.4835C30.9534 49.4757 31.0914 49.4669 31.2288 49.4559C31.2061 49.6817 31.3681 49.9195 31.6112 49.9362ZM33.449 49.1451C33.4573 49.3348 33.4291 49.7019 33.1472 49.6465C32.9761 49.6129 32.9566 49.394 32.9577 49.2373C33.1223 49.2086 33.2861 49.178 33.449 49.1451ZM13.6932 40.3127C13.4949 40.3534 13.3389 40.6044 13.4637 40.7911C13.5801 40.9652 13.8687 40.9689 14.0004 40.8164C14.0782 40.9397 14.1576 41.0618 14.2384 41.1831C14.2032 41.2166 14.1659 41.2528 14.1278 41.2917C13.739 41.4944 13.1205 41.7269 12.9886 41.1313C12.8899 40.6857 13.2803 40.3732 13.5737 40.1081C13.6129 40.1767 13.6532 40.2446 13.6932 40.3127ZM13.9324 40.7076C13.8523 40.8186 13.6727 40.8556 13.5738 40.7412C13.4572 40.606 13.5947 40.4298 13.7434 40.3973C13.8054 40.5015 13.8684 40.6048 13.9324 40.7076ZM14.3388 41.3334C14.4081 41.4354 14.4783 41.5367 14.5496 41.6372C14.3971 41.8022 14.2045 42.0759 14.3826 42.2394C14.5321 42.3768 14.8062 42.3256 14.9771 42.2146C15.0376 42.2934 15.0984 42.372 15.16 42.4498C14.7859 42.5634 14.2576 42.815 13.9384 42.543C13.5143 42.1821 14.0289 41.6691 14.3388 41.3334ZM14.9016 42.1164C14.7753 42.1806 14.624 42.2407 14.4967 42.1706C14.3587 42.0946 14.5003 41.8678 14.6095 41.7208C14.7051 41.8541 14.8026 41.9858 14.9016 42.1164ZM15.1492 42.6288C15.2182 42.5713 15.2265 42.5738 15.2362 42.5445C15.2809 42.6001 15.3252 42.6561 15.3705 42.7111C14.9323 43.0951 14.5349 43.5148 14.1617 43.9626C13.919 44.2539 13.6425 44.5604 13.5601 44.9417C13.4368 45.5129 13.8016 45.9333 14.3691 45.9167C14.4032 45.9157 14.4226 45.8955 14.4288 45.8715C14.7486 45.8933 14.9093 45.6497 15.1624 45.3298C15.5589 44.8288 15.9869 44.3341 16.3447 43.8036C16.4069 43.8682 16.4696 43.9324 16.5326 43.9961C16.5201 44.0036 16.5086 44.0141 16.4988 44.0279C16.1407 44.5312 15.8779 45.1108 15.469 45.5765C14.9734 46.1407 13.7056 46.7041 13.3385 45.6322C13.0871 44.8977 13.842 44.1361 14.262 43.6398C14.5451 43.3057 14.8329 42.9257 15.1434 42.6231C15.1397 42.6268 15.1453 42.6319 15.1492 42.6288ZM16.2433 43.6981C15.9306 44.0475 15.6562 44.4373 15.3691 44.8074C15.0537 45.214 14.7557 45.8656 14.172 45.7461C14.1618 45.744 14.1537 45.7465 14.1477 45.751C13.0706 45.495 14.1625 44.2258 14.504 43.8303C14.8084 43.4776 15.1231 43.1335 15.4312 42.7839C15.6921 43.0974 15.9628 43.4024 16.2433 43.6981ZM16.6638 44.1643C16.669 44.157 16.6741 44.1494 16.6793 44.1422C16.7734 44.235 16.8682 44.3271 16.9643 44.418C16.8024 44.5624 16.773 44.85 16.9399 45.0068C17.1011 45.158 17.4099 45.1168 17.5405 44.9414C17.6822 45.0646 17.8258 45.1855 17.9711 45.3045C17.9556 45.3064 17.9399 45.312 17.9256 45.3263C17.6011 45.6512 16.9721 45.8347 16.5955 45.4724C16.2153 45.1062 16.491 44.5645 16.6638 44.1643ZM17.0449 44.4928C17.1757 44.615 17.3081 44.7354 17.4424 44.8539C17.3399 44.9814 17.1445 45.046 17.0137 44.9144C16.893 44.7933 16.9335 44.6028 17.0449 44.4928ZM18.0146 45.4632C18.0227 45.4551 18.0314 45.4476 18.039 45.4394C18.0578 45.4195 18.0631 45.3971 18.0604 45.3761C18.19 45.4809 18.3208 45.5838 18.4533 45.6852C18.3013 45.8576 18.2137 46.1143 18.4317 46.2695C18.6472 46.423 18.8989 46.3065 19.0481 46.1229C19.1736 46.2113 19.3003 46.2982 19.4281 46.3836C19.4262 46.3853 19.4242 46.3855 19.4225 46.3873C19.0642 46.74 18.4904 47.0157 18.0309 46.6734C17.8307 46.5243 17.6993 46.2922 17.7373 46.0382C17.7683 45.8305 17.9248 45.6522 18.0146 45.4632ZM18.9449 46.0502C18.84 46.1732 18.6927 46.2745 18.5294 46.1874C18.3308 46.0815 18.4352 45.8972 18.5436 45.7546C18.6761 45.8547 18.8097 45.9534 18.9449 46.0502ZM11.3109 28.2747C10.989 28.127 10.6352 27.9263 10.6336 27.5202C10.6318 27.0696 11.1652 26.8861 11.559 26.9095C11.5307 27.0388 11.5036 27.1686 11.478 27.299C11.2543 27.2146 10.9372 27.3465 10.9359 27.6147C10.9349 27.8287 11.1792 27.9896 11.3679 27.9146C11.3485 28.0348 11.3304 28.1554 11.3134 28.2763C11.3124 28.2759 11.312 28.2752 11.3109 28.2747ZM11.2069 29.1955C11.0583 29.2114 10.8522 29.2164 10.8139 29.0529C10.7589 28.8185 11.108 28.8398 11.2418 28.845C11.229 28.9615 11.2174 29.0784 11.2069 29.1955ZM11.131 31.0669C11.1303 31.0669 11.1298 31.0665 11.129 31.0665C10.6298 31.0806 10.1322 31.0987 9.63312 31.0664C9.35674 31.0485 9.07646 31.0273 8.80573 30.9677C8.4896 30.8978 7.68725 30.5905 8.01685 30.091C8.56256 29.7201 9.19181 29.9542 9.77074 30.082C10.2148 30.18 10.6584 30.2808 11.1037 30.3729C11.1157 30.3754 11.1265 30.3746 11.1364 30.3721C11.1316 30.545 11.1287 30.7185 11.1287 30.8924C11.1287 30.9507 11.1304 31.0087 11.131 31.0669ZM11.1935 32.4394C11.1345 32.4367 11.076 32.4417 11.0133 32.4417C10.9212 32.4418 10.7666 32.41 10.8212 32.2824C10.8588 32.1943 10.9491 32.1202 11.0306 32.0753C11.0733 32.0518 11.1191 32.0402 11.1644 32.0283C11.1728 32.1658 11.1822 32.3029 11.1935 32.4394ZM11.3149 33.5191C11.3307 33.6302 11.3471 33.741 11.3649 33.8514C11.2109 33.8655 10.995 33.8817 10.9735 33.6998C10.9549 33.5421 11.1939 33.5307 11.2985 33.5233C11.3047 33.5229 11.3095 33.5208 11.3149 33.5191ZM11.3917 27.7715C11.386 27.7729 11.3802 27.7747 11.3747 27.7786C11.2479 27.867 11.0448 27.7445 11.0705 27.5878C11.0979 27.4207 11.3083 27.3702 11.4443 27.4206C11.4478 27.4219 11.451 27.4215 11.4544 27.422C11.4323 27.5382 11.4114 27.6546 11.3917 27.7715ZM11.2556 28.7254C11.0348 28.6864 10.6507 28.7283 10.6803 29.0409C10.7051 29.303 10.9856 29.3275 11.1983 29.2921C11.1859 29.4384 11.1752 29.5851 11.166 29.7323C10.9145 29.6197 10.6149 29.5073 10.5159 29.2296C10.3329 28.7166 10.8662 28.4605 11.2909 28.4371C11.2781 28.5328 11.2668 28.629 11.2556 28.7254ZM11.1257 29.8214C11.1372 29.8246 11.1484 29.8273 11.1597 29.8303C11.152 29.9659 11.1462 30.102 11.1415 30.2384C11.1412 30.2384 11.1411 30.2381 11.1408 30.2381C10.4363 30.0735 9.7135 29.8675 8.99557 29.775C8.67 29.7329 8.38254 29.7602 8.13069 29.9186C8.12176 29.8927 8.09069 29.8741 8.05999 29.8898C7.51818 30.1671 7.91293 30.768 8.30568 30.9743C9.08715 31.3847 10.296 31.2896 11.132 31.1532C11.1329 31.2205 11.1329 31.2881 11.1345 31.3551C10.05 31.4361 7.94363 31.656 7.53415 30.3896C6.97044 28.6462 10.302 29.7807 11.0065 29.9599C11.0986 29.9832 11.1508 29.8892 11.1257 29.8214ZM11.1402 31.5129C11.1442 31.6338 11.1484 31.7547 11.1547 31.8749C10.9439 31.8972 10.6903 32.1209 10.669 32.3055C10.6564 32.414 10.7256 32.4963 10.8217 32.5368C10.9458 32.5892 11.0744 32.5492 11.2027 32.5419C11.2129 32.6577 11.2237 32.7733 11.2361 32.8884C10.8527 32.8472 10.3478 32.8475 10.2538 32.3732C10.1675 31.9373 10.5062 31.6836 10.8677 31.5471C10.9588 31.5364 11.0496 31.5247 11.1402 31.5129ZM11.2544 33.049C11.2675 33.1614 11.2811 33.2736 11.2962 33.3853C11.0919 33.3697 10.798 33.4561 10.8164 33.7107C10.8368 33.9928 11.1591 34.0384 11.3866 33.9827C11.4097 34.1198 11.4342 34.2564 11.4601 34.3926C11.0611 34.4809 10.642 34.3107 10.5385 33.8826C10.4401 33.4759 10.7152 33.1544 11.0777 33.0597C11.1382 33.0601 11.1971 33.0558 11.2544 33.049ZM15.0708 19.4371C15.0748 19.4169 15.0723 19.3949 15.0585 19.3775C14.8364 19.0966 14.5431 18.6787 14.8832 18.3568C15.1843 18.0719 15.613 18.2775 15.9339 18.4208C15.8612 18.5013 15.7891 18.5826 15.7178 18.6643C15.7143 18.6525 15.7072 18.6414 15.6954 18.6333C15.5345 18.5229 15.1337 18.4429 14.9851 18.6141C14.8341 18.7884 15.1174 19.0683 15.2507 19.1578C15.2715 19.1718 15.2926 19.166 15.3072 19.1523C15.2296 19.2477 15.1523 19.3435 15.0766 19.4404C15.0745 19.4394 15.0726 19.4383 15.0708 19.4371ZM19.3696 15.4396C19.291 15.4329 19.2198 15.4037 19.1656 15.3416C19.093 15.2583 19.0331 15.052 19.2375 15.0656C19.3085 15.0702 19.3943 15.1301 19.4559 15.1641C19.5147 15.1967 19.5695 15.2347 19.6256 15.2709C19.54 15.3266 19.4543 15.3825 19.3696 15.4396ZM19.7246 15.2059C19.5773 15.0723 19.1272 14.7784 19.0076 15.0606C18.9238 15.2584 19.0839 15.4568 19.2724 15.5063C19.1448 15.5934 19.0184 15.6823 18.8931 15.7725C18.8911 15.7688 18.8902 15.765 18.8874 15.7615C18.8847 15.758 18.8814 15.7548 18.8786 15.7513C18.8896 15.7294 18.8869 15.6974 18.8647 15.6806C18.4918 15.4018 18.6036 14.8682 19.0555 14.7449C19.4027 14.6502 19.6954 14.839 19.8984 15.0972C19.8404 15.1335 19.782 15.169 19.7246 15.2059ZM18.7728 15.8601C18.6643 15.9396 18.5567 16.0202 18.45 16.1019C18.2891 15.8859 17.8901 15.7065 17.6879 15.971C17.5114 16.2019 17.758 16.3977 17.967 16.4839C17.8185 16.6055 17.6718 16.7293 17.5273 16.8553C17.4729 16.69 17.3451 16.5636 17.2998 16.393C17.2407 16.1697 17.3104 15.9297 17.4509 15.7525C17.8107 15.2991 18.4419 15.4758 18.7728 15.8601ZM18.0373 16.4271C17.8787 16.3544 17.5943 16.1692 17.8267 16.0095C18.0292 15.8702 18.2025 16.0695 18.367 16.1656C18.2561 16.2516 18.1462 16.3388 18.0373 16.4271ZM17.3473 17.0152C17.2923 17.0644 17.2372 17.1137 17.1827 17.1635C16.5988 16.5026 15.2679 14.7273 14.2774 15.6758C14.2615 15.6909 14.271 15.713 14.2868 15.721C14.1867 15.9878 14.4656 16.4475 14.5975 16.6402C15.0133 17.2473 15.5789 17.7694 16.2502 18.0792C16.1833 18.1497 16.1175 18.221 16.0517 18.2925C15.2205 17.9284 12.7826 16.1024 14.3897 15.2135C15.6148 14.536 16.6958 16.1777 17.3473 17.0152ZM16.3184 18.0079C15.943 17.7729 15.5808 17.5257 15.2644 17.2121C15.1126 17.0617 14.0088 15.857 14.6025 15.6377C14.6326 15.6265 14.6437 15.6028 14.6417 15.5801C15.6114 15.34 16.4658 16.6396 17.082 17.2571C16.8206 17.5003 16.5656 17.7504 16.3184 18.0079ZM15.3116 19.0787C15.2301 18.9957 14.9756 18.7464 15.162 18.6699C15.311 18.6087 15.5106 18.6931 15.6526 18.7343C15.6539 18.7347 15.6549 18.7344 15.6562 18.7347C15.541 18.868 15.4282 19.0034 15.3169 19.1399C15.3279 19.1215 15.3296 19.097 15.3116 19.0787ZM14.57 20.1181C14.5667 20.1163 14.5642 20.114 14.5604 20.1128C14.4789 20.0856 14.3863 20.0622 14.3236 19.9996C14.2575 19.9338 14.2318 19.823 14.3275 19.7721C14.4793 19.6915 14.6025 19.8477 14.7281 19.9017C14.6752 19.9735 14.6218 20.0452 14.57 20.1181ZM14.786 19.8222C14.6652 19.6438 14.3393 19.5256 14.1811 19.7212C14.1082 19.8115 14.1195 19.9364 14.1814 20.0294C14.2539 20.1383 14.3831 20.1839 14.5063 20.2099C14.4179 20.3356 14.3312 20.4625 14.2459 20.5905C13.8456 20.437 13.5719 20.0128 13.9098 19.6207C14.1965 19.2879 14.6484 19.4072 15.0099 19.5273C14.9343 19.6249 14.8595 19.7231 14.786 19.8222ZM20.0355 15.0116C19.7368 14.6152 19.186 14.3889 18.7452 14.722C18.5173 14.8942 18.4363 15.2137 18.5293 15.4637C18.1838 15.2764 17.7495 15.2592 17.4352 15.5362C17.2512 15.6985 17.1325 15.9453 17.1275 16.1916C17.1256 16.2867 17.1446 16.3685 17.1746 16.444C16.7312 15.8632 16.245 15.2632 15.5746 14.999C15.0012 14.7731 14.2778 14.8347 13.8946 15.3722C13.1978 16.3496 14.2585 17.455 15.2394 18.0574C15.0485 18.0487 14.8652 18.1054 14.7207 18.2773C14.4599 18.5871 14.5589 19.0207 14.7997 19.3118C14.3794 19.1732 13.8795 19.2391 13.6713 19.6803C13.477 20.0922 13.7081 20.6347 14.1525 20.7321C13.6518 21.4982 13.2057 22.3031 12.8204 23.1415C10.1185 20.9188 9.79452 16.2285 12.3096 13.7471C13.6296 12.4448 15.727 11.9478 17.5356 11.9902C19.3404 12.0324 21.0566 12.7081 22.5273 13.7286C21.6613 14.0944 20.829 14.5243 20.0355 15.0116ZM11.5931 26.7532C11.156 26.6731 10.5614 26.9212 10.4765 27.3782C10.3979 27.8013 10.6989 28.1552 11.0709 28.3044C10.6944 28.3696 10.3396 28.6067 10.328 29.0296C10.32 29.3235 10.5084 29.5298 10.7471 29.6663C9.65073 29.3193 7.2657 28.5499 7.18959 30.1851C7.16116 30.7963 7.78651 31.1566 8.27738 31.3556C8.97116 31.6368 9.71036 31.6535 10.4438 31.5909C10.1837 31.7686 10.0109 32.0466 10.0718 32.3981C10.1335 32.755 10.4429 32.9544 10.7824 33.0274C10.5029 33.1744 10.3201 33.4881 10.3653 33.8327C10.4361 34.3726 10.9806 34.694 11.4893 34.544C11.6698 35.4485 11.9161 36.3294 12.223 37.1818C12.2085 37.1837 12.1936 37.1883 12.1783 37.1985C12.1682 37.2053 12.1578 37.212 12.1477 37.2188C10.4399 37.1224 8.74472 35.9829 7.61554 34.7652C6.41428 33.4699 5.68817 31.7014 5.91234 29.9224C6.34874 26.4609 9.56342 24.4763 12.6332 23.5623C12.1945 24.5827 11.8445 25.6495 11.5931 26.7532ZM12.3386 37.4934C12.6633 38.3469 13.0488 39.1705 13.4903 39.9591C13.0882 40.2651 12.5861 40.7969 12.8727 41.345C13.0886 41.7579 13.5119 41.7242 13.8835 41.5689C13.6372 41.8848 13.4588 42.264 13.689 42.5562C13.957 42.8962 14.4577 42.8555 14.8675 42.6971C14.2688 43.178 13.7032 43.8687 13.3461 44.4943C13.0487 45.0153 12.9367 45.7306 13.4427 46.1645C14.6111 47.1666 15.6326 45.7335 16.3001 44.7138C16.2068 45.057 16.2367 45.4141 16.554 45.651C16.8998 45.9091 17.3689 45.8749 17.7336 45.6736C17.6272 45.833 17.5445 46.0017 17.5644 46.2069C17.5877 46.4476 17.7335 46.669 17.9226 46.8136C18.4481 47.2159 19.129 46.9211 19.5461 46.5112C19.5574 46.5 19.5639 46.4881 19.5679 46.4757C20.4112 47.0287 21.3018 47.5151 22.2323 47.9273C21.0936 49.1514 19.2934 49.3724 17.696 49.3369C15.9601 49.2984 14.1393 48.8712 12.7972 47.7115C9.98561 45.2818 9.55311 40.0661 12.3386 37.4934ZM39.7514 46.595C40.0647 46.9978 40.6339 47.207 41.0674 46.8486C41.3339 46.6282 41.4008 46.2966 41.3038 46.0064C41.3691 46.0401 41.44 46.0661 41.516 46.0824C41.7884 46.1405 42.2034 46.1509 42.4478 45.9934C42.6827 45.8421 42.7281 45.6321 42.6766 45.4198C43.0356 45.8539 43.4619 46.2295 43.9417 46.5355C44.4826 46.8804 45.3288 47.3115 45.9024 46.7809C46.916 45.8433 45.1148 44.4083 44.053 43.6798C44.307 43.7021 44.5692 43.608 44.7449 43.3874C44.9666 43.109 44.9555 42.7502 44.7772 42.4893C45.1023 42.5763 45.4632 42.5005 45.6924 42.2217C46.0542 41.7818 45.802 41.2605 45.4363 40.9208C46.0011 40.0405 46.4938 39.1098 46.9062 38.137C47.8254 39.6195 48.3896 41.2971 48.5044 43.0423C48.6322 44.9827 48.208 46.6771 46.8466 48.1114C44.3854 50.7042 39.672 50.6442 37.0177 48.3203C37.0003 48.2944 36.9828 48.2685 36.9655 48.2427C36.9416 48.2071 36.91 48.1933 36.879 48.1921C36.855 48.1696 36.8309 48.1472 36.8067 48.1248C37.8374 47.7011 38.8225 47.1885 39.7514 46.595ZM48.0469 34.3648C48.4633 34.557 49.1346 34.1037 49.2863 33.7252C49.4717 33.2627 49.1529 32.9394 48.776 32.7355C49.1719 32.6808 49.5498 32.496 49.6078 32.0638C49.6559 31.706 49.4687 31.4471 49.2046 31.2608C50.5111 31.528 52.4932 31.6419 52.2681 30.2433C52.0554 28.9218 50.239 28.89 49.019 29.2037C49.2168 29.0424 49.3491 28.8345 49.3111 28.5752C49.2404 28.093 48.7944 27.921 48.3608 27.8594C48.7586 27.7603 49.1393 27.5194 49.0441 27.042C48.93 26.4699 48.3234 26.2999 47.8098 26.3429C47.5716 25.3979 47.2614 24.4812 46.8846 23.5993C46.8853 23.5991 46.886 23.5987 46.8867 23.5984C48.8394 23.7915 50.9371 24.7888 52.2115 26.2924C53.394 27.6877 53.9382 29.582 53.7722 31.3944C53.606 33.2069 52.6804 34.8507 51.2937 36.0154C50.5859 36.6099 49.7673 37.0772 48.8939 37.3804C48.4914 37.5202 48.0765 37.6267 47.6557 37.6949C47.4977 37.7205 47.2306 37.7045 47.0502 37.7844C47.4873 36.6914 47.823 35.5476 48.0469 34.3648ZM22.538 13.4676C20.9433 12.3877 19.059 11.7088 17.115 11.7744C15.263 11.8371 13.2509 12.4018 11.9685 13.8062C10.7761 15.1119 10.2605 16.8946 10.4194 18.6409C10.5443 20.0147 11.084 21.8644 12.1954 22.8859C11.9904 22.8049 11.7849 22.7246 11.5811 22.6417C11.5784 22.6318 11.5737 22.6219 11.566 22.6124C10.4535 21.2617 9.75061 19.6804 9.76634 17.9059C9.78131 16.2155 10.4867 14.5936 11.6613 13.3855C14.5305 10.4348 18.8082 11.203 22.2147 12.6629C22.2186 12.6646 22.2221 12.6641 22.226 12.6653C22.3367 12.9296 22.4419 13.197 22.538 13.4676ZM12.2711 23.1322C12.2859 23.1295 12.2972 23.1236 12.3077 23.1173C12.4012 23.1442 12.4947 23.17 12.5876 23.1944C12.6404 23.2292 12.6937 23.2629 12.7485 23.2941C9.45322 24.2337 5.92379 26.4291 5.65672 30.2038C5.53054 31.9875 6.31629 33.7222 7.53201 34.9964C8.59917 36.115 10.2638 37.3109 11.8961 37.3844C11.6633 37.536 11.4237 37.6855 11.1786 37.8268C11.1698 37.8161 11.1583 37.8074 11.1415 37.8046C9.37812 37.5204 7.92967 36.2705 6.81609 34.9371C5.5947 33.4747 4.94809 31.7032 5.20434 29.7918C5.69043 26.1634 8.84599 23.7771 12.2711 23.1322ZM11.0453 38.1509C11.3608 37.9804 11.6681 37.7932 11.9668 37.5998C9.19961 40.1569 9.9456 45.5264 12.6449 47.8641C14.0306 49.0641 15.9 49.5133 17.696 49.5535C19.1834 49.5869 20.8444 49.3939 22.0191 48.4302C21.8875 48.7064 21.7391 48.9737 21.5769 49.2316C18.5518 50.88 14.4544 50.0565 11.9832 47.7219C9.37749 45.2603 8.69667 41.1282 11.0206 38.2365C11.0423 38.2092 11.049 38.179 11.0453 38.1509ZM37.1545 48.6658C38.3889 49.718 40.1705 50.1856 41.7401 50.2431C43.6254 50.3121 45.489 49.7777 46.8485 48.4309C48.2413 47.0511 48.7949 45.4162 48.7494 43.4735C48.7053 41.5942 48.1472 39.7655 47.1823 38.1595C47.419 38.2934 47.6626 38.4251 47.9112 38.5504C47.9123 38.5652 47.9163 38.5807 47.9245 38.5964C49.5439 41.698 50.0228 45.753 47.5448 48.5687C44.9296 51.5402 40.711 50.9902 37.4791 49.4993C37.381 49.2167 37.2719 48.938 37.1545 48.6658ZM48.1406 38.4218C47.8222 38.2778 47.5084 38.126 47.199 37.9811C47.2042 37.9612 47.2028 37.9412 47.1961 37.9225C47.392 37.931 47.6723 37.9186 47.7155 37.9115C47.956 37.8722 48.1943 37.821 48.4297 37.7579C48.8511 37.6452 49.2625 37.495 49.6589 37.3131C50.4975 36.9284 51.2699 36.3944 51.9242 35.7436C53.21 34.4645 53.9765 32.7557 54.024 30.9385C54.0708 29.15 53.4541 27.3324 52.2447 26.0025C51.0404 24.6782 49.0251 23.5876 47.1862 23.4721C47.4541 23.3701 47.7299 23.2925 48.005 23.2125C48.0044 23.2414 48.0182 23.2695 48.0516 23.274C51.56 23.7548 54.497 26.6358 54.613 30.2483C54.6705 32.0385 54.0877 33.8579 52.9424 35.2428C51.7083 36.7349 49.9146 37.591 48.1879 38.3759C48.1633 38.3871 48.1496 38.4037 48.1406 38.4218ZM38.1784 10.8095C38.7599 9.73131 39.2594 8.61509 39.7128 7.47748C39.9302 7.55221 40.1952 7.47534 40.3148 7.26664C40.4588 7.01504 40.3353 6.67073 40.085 6.53939C39.8136 6.39699 39.4519 6.53587 39.3189 6.80471C39.187 7.0714 39.3219 7.32514 39.5631 7.42012C39.562 7.42251 39.5601 7.42389 39.5591 7.42641C39.1244 8.51747 38.6404 9.58563 38.1387 10.6471C38.2145 10.3067 38.2626 9.95976 38.2713 9.60563C38.2774 9.35403 38.2625 9.10332 38.2303 8.85486C38.2953 8.29531 38.3476 7.73235 38.4534 7.18135C38.6156 6.33661 39.1935 5.16617 40.2464 5.35977C41.3443 5.56168 41.4597 6.85264 41.077 7.69109C40.7508 8.40576 40.1579 8.92367 39.6153 9.47241C38.9843 9.88 38.4367 10.4077 38.0349 11.0553C38.0579 10.9766 38.0772 10.897 38.0973 10.8176C38.1193 10.8407 38.1587 10.8461 38.1784 10.8095ZM39.7124 7.30551C39.4096 7.27268 39.3339 6.94246 39.5518 6.74696C39.7029 6.61135 39.9502 6.59034 40.1019 6.73438C40.4013 7.01882 40.1214 7.45974 39.7833 7.39773C39.7874 7.3576 39.7643 7.31105 39.7124 7.30551ZM24.3785 5.10666C26.2533 4.00189 28.8701 4.18405 30.2775 2.33568C30.8373 3.24684 31.8391 3.65318 32.8341 3.94654C34.1911 4.34658 35.4352 4.72423 36.4531 5.76447C37.3432 6.67425 37.9376 7.8774 38.0356 9.15238C38.1189 10.2358 37.796 11.2726 37.3346 12.2415C37.3246 12.2116 37.3118 12.1828 37.2946 12.1557C36.816 8.48489 33.6621 5.99758 30.0238 5.93782C28.0694 5.90562 26.3642 6.48656 24.9192 7.8179C23.6164 9.01815 22.6668 10.6437 22.3629 12.3951C22.2464 12.1268 22.122 11.8617 21.9851 11.6031C20.837 9.11829 22.1319 6.43058 24.3785 5.10666ZM18.6795 7.56441C18.2514 6.73564 18.2905 5.40883 19.4835 5.36745C21.1966 5.30794 21.2791 7.63775 21.4341 8.80203C21.4349 8.80731 21.4375 8.81108 21.4388 8.81586C21.3237 9.47531 21.3425 10.1539 21.5243 10.8099C21.4748 10.732 21.4218 10.6567 21.3705 10.58C21.4017 10.5714 21.4275 10.5358 21.4097 10.4968C21.0235 9.64815 20.6835 8.73397 20.2428 7.91338C20.4482 7.7799 20.5452 7.4956 20.4986 7.25683C20.4352 6.9329 20.123 6.76068 19.8093 6.81628C19.4915 6.87264 19.2319 7.14512 19.284 7.48101C19.3381 7.82947 19.6931 8.10761 20.044 8.03226C20.0736 8.02597 20.0901 8.00395 20.0961 7.97867C20.0984 7.97816 20.1001 7.97703 20.1023 7.9764C20.3378 8.75208 20.7407 9.5294 21.1408 10.249C21.0613 10.1388 20.9817 10.0286 20.8983 9.92152C20.6111 9.55318 20.3032 9.27252 19.966 9.06621C19.4856 8.61408 18.9861 8.15793 18.6795 7.56441ZM20.1727 7.82305C20.1302 7.81148 20.0786 7.84406 20.08 7.89287C20.0785 7.89375 20.0772 7.89476 20.0757 7.89577C20.063 7.88331 20.0454 7.87614 20.0234 7.87841C19.7645 7.90583 19.5101 7.74896 19.4523 7.4839C19.3937 7.21557 19.6133 7.00787 19.8635 6.9734C20.1066 6.93994 20.3219 7.08046 20.358 7.32916C20.3865 7.52428 20.3107 7.69927 20.1727 7.82305ZM7.70776 16.9364C7.63831 15.4816 8.36845 14.32 8.89103 13.021C9.29585 12.0148 9.48166 10.8849 8.9582 9.89787C10.108 10.2325 11.3151 10.2797 12.4957 10.077C13.8405 9.84616 15.1137 9.32787 16.443 9.03236C17.8794 8.71309 19.5119 8.61031 20.5443 9.83711C21.1913 10.6059 21.6964 11.4699 22.1031 12.3809C18.5839 10.9155 14.2429 10.258 11.3831 13.366C9.0908 15.8572 8.9026 19.9982 11.2664 22.5098C10.5406 22.1968 9.85125 21.8229 9.29987 21.2177C8.30518 20.1259 7.7772 18.3911 7.70776 16.9364ZM5.78868 21.8389C4.9023 21.6374 3.31534 20.9633 3.99403 19.7829C5.0598 17.9293 7.84374 20.3533 8.89493 21.1014C8.90738 21.1103 8.92021 21.1134 8.93292 21.1142C9.06312 21.28 9.20364 21.4375 9.35774 21.5829C9.46857 21.6873 9.58469 21.7863 9.70533 21.8801C8.70107 21.5181 7.67102 21.2177 6.66752 20.8504C6.6806 20.8363 6.69519 20.8234 6.70689 20.8083C6.7386 20.7673 6.71897 20.7064 6.67871 20.691C6.69834 20.4991 6.63104 20.3044 6.46272 20.1801C6.21439 19.9968 5.85033 20.0301 5.65571 20.2731C5.46324 20.5133 5.51369 20.8517 5.77887 21.0134C6.00015 21.1482 6.2905 21.1169 6.51027 20.9821C6.51958 20.9894 6.53065 20.9934 6.54235 20.9935C7.648 21.4193 8.81089 21.8549 9.97932 22.0783C10.0127 22.1011 10.0456 22.1243 10.0796 22.1465C9.51738 22.0418 8.94827 22.0169 8.38707 22.0634C8.37927 22.0517 8.36644 22.0429 8.34732 22.0427C7.49088 22.0305 6.6289 22.03 5.78868 21.8389ZM6.55002 20.7463C6.40825 20.8421 6.27251 20.9401 6.08821 20.9331C5.82416 20.9232 5.60917 20.6779 5.75761 20.425C5.8746 20.2258 6.13941 20.1777 6.33465 20.2903C6.49895 20.3849 6.57141 20.5692 6.55002 20.7463ZM4.65674 36.4729C3.83829 35.3856 3.23558 34.1279 2.66822 32.8968C2.28252 32.06 1.83933 31.1764 0.929926 30.9269C1.6378 30.4546 1.97519 29.6293 2.24579 28.8349C2.6725 27.582 2.93781 26.2565 3.66342 25.1282C5.16208 22.798 7.95357 21.8396 10.6048 22.4524C11.0123 22.6658 11.4438 22.8401 11.879 22.9845C8.42645 23.7504 5.34033 26.2792 4.95929 29.9732C4.77021 31.8064 5.38877 33.5059 6.53015 34.9286C7.62938 36.2988 9.16766 37.7203 10.9818 37.9372C10.145 38.3964 9.24163 38.7364 8.28316 38.6866C6.78225 38.6087 5.53054 37.6338 4.65674 36.4729ZM6.07903 41.5625C5.14547 41.8503 3.94547 41.6258 3.53373 40.6352C2.96109 39.2574 4.41218 39.1348 5.34197 39.0869C6.24357 39.0405 7.14593 39.0021 8.04679 38.944C8.08339 38.9416 8.10679 38.9207 8.11925 38.8948C8.34392 38.9152 8.57137 38.9172 8.8007 38.8967C8.95015 38.8832 9.09771 38.8618 9.24364 38.8337C9.1937 38.8748 9.14627 38.9169 9.09935 38.9595C9.08614 38.9149 9.03582 38.8789 8.98009 38.9049C7.84802 39.4317 6.71344 39.9027 5.5508 40.3513C5.54174 40.3402 5.53256 40.3292 5.52211 40.3187C5.4967 40.2937 5.46802 40.2915 5.44462 40.3021C5.36738 40.1225 5.15075 40.011 4.95086 40.0514C4.64277 40.1137 4.53811 40.4889 4.64139 40.7527C4.75096 41.0328 5.10459 41.1854 5.38059 41.0543C5.59973 40.9501 5.70075 40.6744 5.61458 40.4582C6.75709 40.1603 7.90803 39.6901 8.93669 39.1154C8.61125 39.4453 8.36443 39.8112 8.1795 40.204C7.55906 40.7632 6.88402 41.3144 6.07903 41.5625ZM5.37983 40.5191C5.386 40.5176 5.39229 40.5157 5.39858 40.5142C5.41946 40.5253 5.44701 40.5205 5.46223 40.5004C5.53344 40.6686 5.45154 40.8805 5.26158 40.9328C5.06483 40.987 4.84066 40.8668 4.7765 40.6747C4.71989 40.5053 4.77021 40.2715 4.95476 40.2036C5.11981 40.1427 5.32322 40.2575 5.36411 40.424C5.36096 40.4253 5.35769 40.4265 5.35455 40.4278C5.29869 40.4493 5.31945 40.5336 5.37983 40.5191ZM21.1664 50.1561C21.1508 50.1647 21.137 50.178 21.1289 50.1985C20.6267 51.469 20.1113 52.6951 19.4513 53.8943C19.4499 53.8968 19.4499 53.899 19.4489 53.9016C19.1769 53.9247 18.9552 54.1976 18.9448 54.4645C18.9327 54.7713 19.1953 54.9873 19.4874 54.9985C19.779 55.0097 20.0388 54.8049 20.0468 54.5044C20.0541 54.2315 19.8608 53.9416 19.5748 53.9188C19.5719 53.9185 19.5698 53.9195 19.5671 53.9197C19.5665 53.919 19.5657 53.9185 19.565 53.918C20.1122 53.0763 20.6054 52.1493 20.967 51.1923C20.958 51.4495 20.9756 51.7065 21.0192 51.9608C20.9273 52.8426 21.0161 53.7781 20.8142 54.6369C20.5827 55.6212 19.4689 56.3318 18.4953 55.8423C16.6044 54.8915 19.3056 52.2331 20.0562 51.1637C20.4674 50.8685 20.8414 50.5226 21.174 50.1335C21.1712 50.1408 21.1692 50.1484 21.1664 50.1561ZM19.5577 54.0464C19.9499 54.185 20.0059 54.8303 19.5062 54.8292C19.3072 54.8287 19.1111 54.699 19.1102 54.4843C19.1092 54.2519 19.2991 54.0749 19.521 54.0554C19.5344 54.0543 19.5456 54.0504 19.5554 54.0451C19.5563 54.0455 19.5568 54.0461 19.5577 54.0464ZM20.1149 50.8791C19.0019 51.7505 17.6855 52.023 16.2968 52.0726C14.8694 52.1234 13.5488 51.8637 12.1758 51.5099C11.0357 51.216 9.88069 51 8.72686 51.2893C9.24654 49.238 8.3243 47.2771 8.00137 45.2644C7.64473 43.0417 7.65366 40.305 9.55097 38.7807C9.55915 38.7742 9.56481 38.7666 9.56858 38.7586C9.94762 38.6582 10.3138 38.5129 10.6696 38.3419C8.5374 41.2817 9.18779 45.3195 11.7589 47.8073C13.1667 49.1695 15.0391 49.982 16.9725 50.2249C18.3376 50.3965 20.0323 50.3671 21.2935 49.6486C20.958 50.1068 20.5681 50.5241 20.1149 50.8791ZM37.5708 52.85C37.2397 54.2186 36.1882 55.1929 35.0363 55.9172C33.1491 57.104 30.8468 57.7602 29.5107 59.6478C28.3669 57.7749 26.1885 57.0961 24.4036 55.9901C22.2624 54.6631 20.4624 52.3624 21.4743 49.7586C21.5746 49.623 21.6682 49.4812 21.7592 49.3373C21.7969 49.3072 21.832 49.2734 21.8686 49.2416C21.7563 50.9219 22.675 52.6071 23.8951 53.7078C25.3172 54.9907 27.2407 55.5944 29.1303 55.6612C30.8851 55.7233 32.6861 55.3246 34.1917 54.4031C34.8975 53.9711 35.5325 53.4233 36.0363 52.7651C36.6668 51.9413 37.0064 50.9669 37.408 50.0228C37.6785 50.9453 37.7995 51.9044 37.5708 52.85ZM41.0167 53.7298C41.6053 54.584 41.7822 55.8252 40.6384 56.333C39.5519 56.8155 38.4971 55.8906 38.1433 54.9139C37.8205 54.0227 37.9046 53.0707 37.9346 52.1431C37.9354 52.1181 37.9219 52.1038 37.9049 52.0987C37.9452 51.4134 37.8425 50.73 37.6577 50.0657C37.6986 50.135 37.7415 50.2018 37.7852 50.2678C37.7848 50.2736 37.7844 50.2797 37.7861 50.2863C38.078 51.5485 38.5014 52.8617 39.1814 53.9768C39.171 53.9858 39.159 53.9926 39.1492 54.0028C39.1346 54.018 39.129 54.0347 39.1272 54.051C38.9144 54.1452 38.8045 54.4299 38.8902 54.6514C39.0093 54.9595 39.4267 55.0526 39.699 54.9005C39.9742 54.7468 40.109 54.3489 39.9231 54.0779C39.7966 53.8932 39.5501 53.821 39.3447 53.8843C38.7677 52.8185 38.4046 51.7003 38.0009 50.5671C38.3189 50.9739 38.6917 51.3122 39.1049 51.5872C39.0739 51.6224 39.0633 51.6774 39.1044 51.7143C39.7995 52.3362 40.4833 52.9557 41.0167 53.7298ZM39.4236 54.0401C39.545 54.0129 39.6804 54.0487 39.7654 54.1481C39.9209 54.3299 39.8206 54.6273 39.6343 54.7442C39.4606 54.8532 39.1926 54.8203 39.0741 54.6448C38.9415 54.4483 39.0706 54.1973 39.2799 54.131C39.3437 54.1874 39.4495 54.1238 39.4236 54.0401ZM51.6872 45.5371C51.6202 47.5112 50.1557 49.5343 51.1734 51.4451C46.6135 50.9785 41.056 54.5702 37.6829 49.9C37.6619 49.8709 37.6279 49.8716 37.6059 49.8873C37.5819 49.8077 37.556 49.7287 37.5299 49.6497C40.7193 51.3413 45.1138 51.6719 47.7043 48.7283C50.1937 45.8998 49.8082 41.873 48.2327 38.707C48.6353 38.8952 49.0503 39.0602 49.4751 39.1782C49.4823 39.2011 49.4969 39.2225 49.5248 39.2376C51.6987 40.4082 51.7605 43.3733 51.6872 45.5371ZM53.5827 39.7929C53.9435 39.889 54.312 40.0101 54.6352 40.2005C55.1918 40.5284 55.7095 41.3727 54.9515 41.8482C54.262 42.2808 53.194 41.9155 52.5578 41.5653C51.9696 41.2415 51.4753 40.7803 50.9877 40.3222C50.7859 39.9993 50.5396 39.7051 50.238 39.4517C50.9738 39.8892 51.7375 40.279 52.5225 40.62C52.5076 40.6603 52.5349 40.7029 52.5704 40.7139C52.5408 40.819 52.5612 40.9438 52.6353 41.031C52.846 41.2787 53.3012 41.1915 53.5258 41.0106C53.8022 40.7882 53.6883 40.4308 53.3784 40.3107C53.1207 40.2107 52.788 40.2908 52.6032 40.5003C51.7932 40.1475 51.007 39.7575 50.2334 39.332C50.4874 39.3647 50.7437 39.3785 51.0021 39.3657C51.0481 39.3634 51.0936 39.3587 51.1393 39.3548C51.1338 39.4099 51.1657 39.4723 51.2373 39.4776C52.0238 39.5365 52.8175 39.5892 53.5827 39.7929ZM52.8161 40.5187C52.8807 40.4736 52.9532 40.4401 53.04 40.4251C53.2443 40.3899 53.6674 40.52 53.5133 40.8092C53.4276 40.9701 53.1719 41.0368 53.005 41.0353C52.8839 41.0343 52.7421 40.9987 52.6952 40.8711C52.6564 40.7657 52.6937 40.641 52.8089 40.6039C52.8483 40.5913 52.8499 40.532 52.8161 40.5187ZM56.8309 33.0153C56.122 34.224 55.575 35.5302 54.7647 36.6786C54.0272 37.7239 53.0156 38.684 51.7501 39.0221C50.577 39.3356 49.4565 38.9953 48.3867 38.5309C50.1717 37.7176 52.0044 36.8121 53.2371 35.2325C54.391 33.7541 54.9559 31.834 54.8228 29.9662C54.5725 26.4504 51.6833 23.5125 48.1923 23.157C48.4183 23.0891 48.6424 23.0156 48.8602 22.9214C48.9182 22.8962 48.9753 22.8696 49.0323 22.8423C49.0437 22.8474 49.0568 22.8493 49.0712 22.844C51.7694 21.8439 54.578 23.2332 55.9311 25.6609C56.2433 26.2207 56.4809 26.8199 56.6448 27.4394C56.8116 28.0697 56.8735 28.7279 57.0809 29.3475C57.3421 30.1272 57.86 30.8162 58.6692 30.9986C57.8459 31.4376 57.2991 32.2169 56.8309 33.0153Z" fill="#A96060"/>
<path d="M11.3484 12.345C11.6827 12.1171 11.5537 11.6587 11.3169 11.4142C10.9508 11.0361 10.3988 10.7981 9.89463 10.636C9.8857 10.6256 9.87677 10.6152 9.86771 10.6047C9.84557 10.5791 9.8082 10.5741 9.77726 10.5808C9.75587 10.5853 9.73461 10.5899 9.71323 10.5945C9.69675 10.5981 9.68454 10.606 9.67423 10.6153C9.65221 10.6192 9.63196 10.6354 9.63284 10.6615C9.65121 11.1717 9.88041 11.6631 10.2422 12.0219C10.5027 12.2801 10.9839 12.5936 11.3484 12.345ZM9.75411 10.7905C10.0832 10.8886 10.4001 11.0166 10.6992 11.1867C10.8565 11.2761 11.0303 11.3741 11.1619 11.5004C11.3939 11.7232 11.5583 12.2797 10.9838 12.2607C10.6195 12.2487 10.2778 11.889 10.086 11.6104C9.9135 11.3598 9.81449 11.083 9.75411 10.7905Z" fill="#A96060"/>
<path d="M29.8613 5.33811C30.1815 5.3917 30.4729 5.1479 30.5779 4.85806C30.7741 4.31574 30.4095 3.65391 30.2449 3.14857C30.2173 3.06403 30.0764 3.07309 30.0825 3.17059C30.0827 3.17549 30.0836 3.18015 30.084 3.18505C29.7361 3.53465 29.4119 4.03282 29.3672 4.53576C29.3366 4.87479 29.4853 5.27521 29.8613 5.33811ZM29.6178 4.18906C29.7283 3.8728 29.9029 3.59441 30.1033 3.32985C30.1397 3.51981 30.2138 3.69542 30.2832 3.88148C30.4035 4.20403 30.608 4.79617 30.2576 5.04739C29.9075 5.29849 29.5464 5.07821 29.5237 4.66081C29.5149 4.50381 29.5667 4.33511 29.6178 4.18906Z" fill="#A96060"/>
<path d="M48.6691 12.4481C49.2511 12.0633 49.3064 11.2687 49.7268 10.7552C49.7736 10.6981 49.7477 10.6281 49.7018 10.5948C49.7124 10.5476 49.6749 10.4892 49.6116 10.5017C49.0185 10.6191 48.4204 10.8378 47.9609 11.2429C47.6467 11.5198 47.3067 11.9781 47.643 12.3733C47.9087 12.6857 48.3516 12.658 48.6691 12.4481ZM48.006 11.4667C48.1479 11.3246 48.3152 11.2034 48.4873 11.1003C48.8109 10.906 49.1653 10.7839 49.5257 10.6811C49.3536 10.9111 49.2407 11.1635 49.1284 11.4305C48.9503 11.8535 48.5496 12.6853 47.9372 12.3648C47.5617 12.1682 47.779 11.6943 48.006 11.4667Z" fill="#A96060"/>
<path d="M1.68413 30.6387C1.62475 30.6666 1.6279 30.7387 1.66224 30.7822C1.63004 30.8003 1.61796 30.857 1.65872 30.8765C2.28105 31.1746 3.00314 31.5223 3.71278 31.3912C4.0976 31.3201 4.48682 31.086 4.45525 30.6463C4.35511 29.2512 2.2774 30.3593 1.68413 30.6387ZM4.0503 31.0753C3.88198 31.1731 3.69932 31.2256 3.50231 31.2332C3.257 31.2531 3.01056 31.2068 2.77318 31.1495C2.431 31.067 2.10065 30.9319 1.77194 30.8071C2.20217 30.6501 4.20415 29.6185 4.24378 30.5526C4.17924 30.7268 4.11483 30.9011 4.0503 31.0753Z" fill="#A96060"/>
<path d="M10.3722 48.5315C9.76909 49.0136 9.67725 49.9235 9.4093 50.5964C9.39961 50.6207 9.40226 50.6425 9.41144 50.6613C9.32552 50.6804 9.36464 50.8061 9.44981 50.7936C10.1475 50.6921 11.0085 50.505 11.5245 49.9787C11.8696 49.6267 12.0225 49.0243 11.7099 48.5997C11.3903 48.1657 10.7582 48.2229 10.3722 48.5315ZM10.9861 50.1421C10.5685 50.3845 10.0864 50.5184 9.61322 50.6195C9.81576 50.2123 9.88822 49.7584 10.0642 49.34C10.1779 49.0696 10.3354 48.7932 10.5911 48.6321C10.909 48.4319 11.3994 48.4348 11.5934 48.8061C11.8761 49.3474 11.43 49.8844 10.9861 50.1421Z" fill="#A96060"/>
<path d="M57.6213 30.8314C57.0476 30.6294 56.3615 30.3619 55.7427 30.4638C55.352 30.5281 54.8844 30.7991 54.907 31.2523C54.9277 31.6648 55.346 31.858 55.7157 31.8407C56.3354 31.8115 57.046 31.3592 57.5547 31.0445C57.5828 31.0271 57.5955 31.0025 57.5984 30.9771C57.6798 30.9792 57.7063 30.8613 57.6213 30.8314ZM56.599 31.3473C56.4232 31.4282 56.2341 31.5338 56.0419 31.5737C55.7372 31.637 54.6666 31.6961 55.267 30.8865C55.5392 30.5193 56.2511 30.6434 56.6159 30.7255C56.873 30.7833 57.1251 30.8602 57.3801 30.9265C57.127 31.0803 56.8686 31.2234 56.599 31.3473Z" fill="#A96060"/>
<path d="M29.2529 56.2689C27.9372 56.4213 28.8386 58.3369 29.42 58.8172C29.4602 58.8504 29.5074 58.834 29.5286 58.8015C29.582 58.821 29.6454 58.8045 29.6607 58.7316C29.7898 58.1209 30.4557 57.5672 30.292 56.8968C30.1809 56.4411 29.6927 56.2179 29.2529 56.2689ZM29.458 58.6462C29.1986 58.3488 28.9876 58.0283 28.8809 57.6411C28.7386 57.1244 28.7564 56.3622 29.5146 56.4793C30.7858 56.6758 29.5939 58.0108 29.458 58.6462Z" fill="#A96060"/>
<path d="M50.6765 50.8302C49.8842 50.5268 50.0217 49.3846 49.2152 49.0837C48.8204 48.9364 48.3241 49.0503 48.0596 49.387C47.6906 49.8569 48.0329 50.3881 48.4492 50.6908C49.0769 51.1471 49.8864 51.1472 50.6274 51.0978C50.6732 51.0947 50.6967 51.0605 50.6985 51.0258C50.7615 50.9883 50.7697 50.8659 50.6765 50.8302ZM48.8477 50.6805C48.6128 50.5655 48.3102 50.366 48.1971 50.115C47.8446 49.3332 48.8096 49.0916 49.2368 49.3181C49.8794 49.6587 49.8354 50.5658 50.4535 50.9452C49.9087 50.9332 49.345 50.924 48.8477 50.6805Z" fill="#A96060"/>
<path d="M50.0576 48.2044C50.2784 48.12 50.3974 47.877 50.2989 47.6553C50.2006 47.434 49.8414 47.3365 49.7088 47.5847C49.7034 47.5949 49.7002 47.6051 49.699 47.6151C49.5985 47.6962 49.5503 47.8375 49.5781 47.9728C49.6234 48.1936 49.8598 48.2802 50.0576 48.2044ZM49.7913 47.7075C49.8078 47.7058 49.8244 47.6996 49.8395 47.6855C49.8477 47.6778 49.8565 47.6725 49.8652 47.6663C49.8671 47.6658 49.8686 47.6647 49.8705 47.6642C49.8823 47.6611 49.8906 47.6541 49.8972 47.6459C50.0058 47.5904 50.129 47.6369 50.1573 47.7816C50.1826 47.9108 50.0859 48.0252 49.9639 48.0551C49.7401 48.1102 49.6607 47.8272 49.7913 47.7075Z" fill="#A96060"/>
<path d="M50.1832 45.289C50.1753 45.3067 50.1757 45.3283 50.1826 45.3471C50.1303 45.425 50.1113 45.5282 50.1478 45.6184C50.2433 45.8549 50.5466 45.8885 50.737 45.752C50.9248 45.6174 51.0509 45.3228 50.8466 45.1455C50.6576 44.9815 50.2875 45.057 50.1832 45.289ZM50.7193 45.5341C50.6432 45.6379 50.5078 45.7086 50.3829 45.6443C50.2228 45.5621 50.2575 45.339 50.4433 45.3244C50.4798 45.3215 50.4967 45.2817 50.4815 45.2559C50.5116 45.2422 50.5435 45.2321 50.5796 45.23C50.7746 45.2188 50.8218 45.3944 50.7193 45.5341Z" fill="#A96060"/>
<path d="M50.8214 43.0045C51.0033 42.8937 51.0838 42.6202 50.9426 42.4466C50.8216 42.2979 50.5176 42.2627 50.4091 42.4449C50.2919 42.5182 50.2234 42.676 50.2673 42.8141C50.3375 43.035 50.6301 43.121 50.8214 43.0045ZM50.4546 42.5792C50.4732 42.5806 50.4931 42.5753 50.5118 42.5585C50.5944 42.4842 50.7222 42.4475 50.8097 42.5427C50.8934 42.6338 50.8441 42.7883 50.754 42.855C50.6532 42.9294 50.4927 42.9013 50.4253 42.7928C50.3762 42.7145 50.4004 42.6355 50.4546 42.5792Z" fill="#A96060"/>
<path d="M46.6218 50.6001C46.4666 50.6922 46.3548 50.8746 46.4226 51.0518C46.513 51.2876 46.8342 51.2329 46.9956 51.11C47.165 50.9809 47.218 50.714 47.0541 50.5561C46.9324 50.439 46.7119 50.4642 46.6218 50.6001ZM46.8322 51.0203C46.7095 51.0765 46.5216 51.0657 46.5612 50.8844C46.5716 50.8369 46.5976 50.7983 46.6294 50.7632C46.6646 50.7848 46.7115 50.7839 46.7318 50.7368C46.7767 50.6327 46.9186 50.6038 46.9733 50.7199C47.0318 50.8436 46.944 50.969 46.8322 51.0203Z" fill="#A96060"/>
<path d="M44.5639 51.2076C44.3949 51.0862 44.0933 51.1018 43.9924 51.3057C43.971 51.349 43.9954 51.3945 44.0314 51.4102C43.9832 51.5014 43.9709 51.6183 44.0029 51.707C44.091 51.9513 44.4186 51.9576 44.5819 51.792C44.7419 51.6297 44.7604 51.3487 44.5639 51.2076ZM44.4952 51.6432C44.4159 51.7511 44.2118 51.7976 44.1534 51.6427C44.1079 51.5219 44.1895 51.4049 44.2928 51.3517C44.3186 51.3384 44.3184 51.3139 44.3071 51.2944C44.3513 51.2915 44.3968 51.3 44.4417 51.3233C44.5654 51.3872 44.5719 51.5388 44.4952 51.6432Z" fill="#A96060"/>
<path d="M40.9263 51.2601C40.9282 51.2393 40.9184 51.2192 40.8907 51.2141C40.6931 51.1772 40.4931 51.3465 40.5087 51.5507C40.5243 51.7551 40.7477 51.9119 40.9419 51.8296C41.1112 51.7578 41.2009 51.5338 41.0925 51.3753C41.0545 51.3199 40.9934 51.28 40.9263 51.2601ZM40.8941 51.6745C40.7989 51.7271 40.6808 51.6422 40.6615 51.5442C40.6545 51.5079 40.6598 51.4755 40.6725 51.4465C40.6908 51.4523 40.711 51.4526 40.7291 51.4434C40.8017 51.406 40.8887 51.3804 40.9522 51.4542C41.0126 51.5242 40.9676 51.6338 40.8941 51.6745Z" fill="#A96060"/>
<path d="M31.8993 56.0611C31.8923 56.0655 31.8865 56.0715 31.8798 56.0765C31.8561 56.0943 31.8356 56.1153 31.8177 56.1394C31.809 56.1509 31.8001 56.1617 31.7928 56.1742C31.7914 56.1767 31.7904 56.1793 31.7891 56.1818C31.7418 56.2666 31.7244 56.3707 31.7503 56.459C31.8109 56.6652 32.0591 56.7156 32.2333 56.624C32.4346 56.5181 32.4605 56.2504 32.3 56.0942C32.1888 55.9858 32.0195 55.9848 31.8993 56.0611ZM32.1267 56.5097C32.0224 56.5456 31.8992 56.5065 31.8759 56.3885C31.8729 56.3733 31.8718 56.3585 31.8719 56.3439C31.8861 56.3356 31.8983 56.322 31.9048 56.3007C31.9445 56.1672 32.1114 56.1023 32.2102 56.2195C32.3001 56.3265 32.2532 56.466 32.1267 56.5097Z" fill="#A96060"/>
<path d="M34.9524 54.5809C34.8135 54.6401 34.747 54.8183 34.8174 54.9558C34.9026 55.1219 35.1385 55.1636 35.286 55.0588C35.431 54.9559 35.4858 54.7221 35.3531 54.5866C35.253 54.4842 35.048 54.4658 34.9524 54.5809ZM35.2014 54.9333C35.1279 54.9883 35.0122 54.9785 34.9503 54.9093C34.9001 54.8532 34.9041 54.768 34.946 54.7098C34.969 54.7264 35.0019 54.729 35.0299 54.7033C35.0885 54.6501 35.1829 54.6315 35.2437 54.696C35.3081 54.7643 35.2684 54.8831 35.2014 54.9333Z" fill="#A96060"/>
<path d="M36.7619 52.7413C36.7511 52.7289 36.7347 52.721 36.7168 52.7245C36.5498 52.7578 36.454 52.9554 36.4869 53.1136C36.523 53.2872 36.7046 53.3671 36.8668 53.3228C37.0343 53.277 37.1449 53.105 37.069 52.938C37.023 52.8369 36.885 52.7389 36.7619 52.7413ZM36.8047 53.2057C36.7024 53.2243 36.6074 53.1665 36.5947 53.0597C36.5874 52.9985 36.6044 52.9439 36.6366 52.8991C36.651 52.9093 36.6693 52.9147 36.6903 52.9102C36.7444 52.8986 36.7807 52.8802 36.8363 52.9022C36.8841 52.9212 36.9297 52.9619 36.948 53.0108C36.9845 53.1094 36.8949 53.1892 36.8047 53.2057Z" fill="#A96060"/>
<path d="M26.3243 55.8221C26.3206 55.8287 26.3189 55.8355 26.3178 55.8421C26.2719 55.9163 26.2665 56.0141 26.2944 56.0949C26.3647 56.2983 26.6034 56.4091 26.7879 56.2764C26.9537 56.1573 27.0008 55.8972 26.8404 55.7537C26.692 55.6211 26.4251 55.6442 26.3243 55.8221ZM26.7558 56.1001C26.6914 56.1947 26.5772 56.2134 26.4915 56.1349C26.4513 56.098 26.4226 56.0434 26.4174 55.9887C26.4154 55.9674 26.4213 55.9269 26.4357 55.8952C26.4509 55.8784 26.4677 55.8634 26.4864 55.8514C26.4925 55.8514 26.4989 55.8521 26.506 55.8553C26.5381 55.8698 26.5758 55.8453 26.5805 55.8163C26.6231 55.8102 26.6675 55.8156 26.7094 55.8373C26.8099 55.8896 26.8147 56.0135 26.7558 56.1001Z" fill="#A96060"/>
<path d="M23.7065 54.4232C23.6809 54.438 23.6715 54.4591 23.6715 54.4801C23.6065 54.5388 23.5631 54.6254 23.5589 54.7133C23.55 54.9051 23.7275 55.0256 23.9055 54.9998C24.0838 54.974 24.2299 54.8121 24.1728 54.6267C24.1158 54.4417 23.8803 54.323 23.7065 54.4232ZM23.8771 54.8544C23.6686 54.8765 23.6692 54.642 23.7934 54.5436C23.8928 54.5109 24.0181 54.5797 24.0365 54.6859C24.0529 54.7813 23.9621 54.8453 23.8771 54.8544Z" fill="#A96060"/>
<path d="M22.0162 52.6599C21.9905 52.6899 21.9964 52.7376 22.0219 52.7621C21.9637 52.8426 21.9503 52.964 21.9805 53.0546C22.0431 53.2432 22.2555 53.2973 22.4179 53.196C22.5854 53.0916 22.6444 52.8647 22.5084 52.71C22.3999 52.5869 22.1383 52.5164 22.0162 52.6599ZM22.3556 53.0667C22.2646 53.1347 22.1411 53.1145 22.1045 53.0008C22.0708 52.8961 22.1163 52.8123 22.1942 52.7458C22.1958 52.7444 22.1958 52.7421 22.1971 52.7405C22.2573 52.73 22.3155 52.7371 22.3756 52.7856C22.4731 52.8641 22.4502 52.9959 22.3556 53.0667Z" fill="#A96060"/>
<path d="M12.871 50.2016C12.8624 50.1979 12.8524 50.1966 12.8404 50.2004C12.6323 50.2647 12.5555 50.5166 12.6286 50.7096C12.7133 50.9333 12.9794 50.9894 13.1729 50.8675C13.3635 50.7475 13.4376 50.4871 13.2693 50.3143C13.1665 50.2087 13.0091 50.1664 12.871 50.2016ZM13.0842 50.7422C12.8324 50.8854 12.6954 50.6106 12.7781 50.4098C12.7878 50.4067 12.7974 50.4015 12.8063 50.3927C12.8995 50.3 13.0539 50.3166 13.1484 50.401C13.2689 50.5087 13.2109 50.6701 13.0842 50.7422Z" fill="#A96060"/>
<path d="M15.1558 50.7564C15.1186 50.7795 15.1198 50.8266 15.1432 50.8533C15.047 50.9291 14.9994 51.0641 15.0206 51.1894C15.0552 51.3947 15.2614 51.4946 15.4521 51.4292C15.6447 51.3631 15.7745 51.1562 15.6892 50.9587C15.6086 50.7719 15.3422 50.6408 15.1558 50.7564ZM15.4146 51.2931C15.1266 51.4017 15.0439 50.9671 15.2884 50.8652C15.2932 50.8632 15.2958 50.8587 15.2993 50.8549C15.3981 50.851 15.4921 50.8873 15.5487 50.9832C15.623 51.1093 15.5406 51.2455 15.4146 51.2931Z" fill="#A96060"/>
<path d="M17.6092 51.0202C17.5046 51.0734 17.4484 51.2417 17.4997 51.3519C17.5982 51.5637 17.899 51.6123 18.0808 51.4839C18.2562 51.3599 18.2676 51.0883 18.1084 50.9455C17.9732 50.8243 17.6871 50.8397 17.6092 51.0202ZM18.0365 51.3122C17.9671 51.4151 17.8053 51.424 17.7062 51.3621C17.6033 51.2979 17.5981 51.1846 17.6708 51.1225C17.6771 51.121 17.6833 51.1185 17.6892 51.1143C17.6977 51.1083 17.7062 51.1022 17.7146 51.0961C17.7274 51.0907 17.7408 51.0854 17.7561 51.0826C17.7706 51.0798 17.777 51.0669 17.7769 51.0537C17.8284 51.0223 17.8832 51.0035 17.9512 51.027C18.0637 51.0661 18.1007 51.2172 18.0365 51.3122Z" fill="#A96060"/>
<path d="M9.67721 47.1341C9.82226 47.0485 9.88944 46.865 9.7971 46.7158C9.72703 46.6025 9.50235 46.4893 9.39102 46.6111C9.38863 46.6137 9.38838 46.6168 9.38674 46.6197C9.36963 46.6122 9.34913 46.6112 9.32875 46.6203C9.18446 46.6853 9.18936 46.9134 9.25478 47.0308C9.33994 47.1836 9.53053 47.2205 9.67721 47.1341ZM9.37089 46.9378C9.33378 46.8455 9.3763 46.787 9.41718 46.7087C9.42247 46.6985 9.42436 46.6887 9.42486 46.6793C9.46914 46.6818 9.50952 46.6721 9.55418 46.6871C9.60198 46.7032 9.64325 46.7348 9.67117 46.7767C9.73068 46.866 9.68614 46.9696 9.59506 47.0158C9.50713 47.0603 9.4085 47.0315 9.37089 46.9378Z" fill="#A96060"/>
<path d="M8.72126 43.7707C8.58149 43.7279 8.28536 43.7901 8.30084 43.9851C8.30096 43.9869 8.30209 43.9878 8.30235 43.9894C8.26284 44.1191 8.31367 44.2705 8.42525 44.3571C8.58942 44.4847 8.80894 44.3996 8.89725 44.2247C8.98644 44.048 8.91839 43.8309 8.72126 43.7707ZM8.78051 44.1566C8.73208 44.2632 8.60791 44.3286 8.50312 44.2562C8.42324 44.2011 8.38713 44.0968 8.40512 44.0038C8.48488 43.9367 8.54124 43.8718 8.66427 43.899C8.78667 43.926 8.83008 44.0475 8.78051 44.1566Z" fill="#A96060"/>
<path d="M8.75277 41.3243C8.55363 41.3069 8.38606 41.5153 8.47991 41.701C8.48507 41.7112 8.49173 41.7184 8.49903 41.7237C8.51652 41.8145 8.56684 41.8985 8.64622 41.9448C8.7968 42.0326 9.02324 41.9568 9.08136 41.7897C9.15243 41.5855 8.9582 41.3421 8.75277 41.3243ZM8.91568 41.8098C8.83076 41.8838 8.70597 41.8691 8.6398 41.7793C8.6154 41.7462 8.60181 41.7107 8.59627 41.6744C8.59766 41.6652 8.5969 41.6555 8.59388 41.6454C8.59175 41.5974 8.60194 41.5484 8.61842 41.5011C8.67188 41.4567 8.76686 41.4463 8.82825 41.4823C8.93304 41.544 9.02726 41.7127 8.91568 41.8098Z" fill="#A96060"/>
<path d="M3.90202 32.4038C3.83963 32.3829 3.74955 32.3714 3.69873 32.4195C3.67948 32.4048 3.65332 32.4007 3.62489 32.4194C3.48009 32.5141 3.43694 32.7113 3.51481 32.8646C3.59646 33.0251 3.79132 33.0681 3.94656 32.9902C4.10582 32.9102 4.18344 32.7206 4.09173 32.5603C4.05034 32.4878 3.98103 32.4302 3.90202 32.4038ZM3.89032 32.8511C3.81095 32.896 3.70527 32.8919 3.65395 32.8078C3.604 32.7259 3.62048 32.6038 3.6981 32.5447C3.71509 32.5317 3.72389 32.5148 3.72729 32.4976C3.75912 32.5033 3.79082 32.4992 3.82478 32.5092C3.87498 32.524 3.91989 32.5567 3.95046 32.5991C4.01524 32.6891 3.98417 32.7979 3.89032 32.8511Z" fill="#A96060"/>
<path d="M5.07589 34.7231C4.9838 34.6846 4.88153 34.6652 4.78718 34.7073C4.73157 34.732 4.68792 34.7777 4.68037 34.8309C4.36638 35.0986 5.07576 35.7193 5.31868 35.2556C5.43366 35.036 5.28333 34.8099 5.07589 34.7231ZM5.16458 35.222C5.0311 35.3789 4.66666 35.1274 4.73686 34.9419C4.7707 34.9492 4.80819 34.9235 4.81309 34.8827C4.82806 34.7573 5.06507 34.8757 5.11237 34.9134C5.20722 34.989 5.25012 35.1214 5.16458 35.222Z" fill="#A96060"/>
<path d="M6.93546 36.6919C6.79582 36.5929 6.5836 36.5866 6.46824 36.7248C6.44346 36.7544 6.44698 36.788 6.46346 36.8122C6.41037 36.904 6.40597 37.0281 6.4627 37.1246C6.57202 37.3104 6.83117 37.3343 6.98075 37.1836C7.1224 37.0409 7.09598 36.8057 6.93546 36.6919ZM6.91621 37.0069C6.87935 37.1308 6.71808 37.1778 6.62234 37.0908C6.51403 36.9926 6.55378 36.8589 6.65254 36.7786C6.79016 36.7446 6.96427 36.845 6.91621 37.0069Z" fill="#A96060"/>
<path d="M3.49966 27.6255C3.46293 27.7763 3.49488 27.9457 3.60785 28.0572C3.74095 28.1886 3.95116 28.1771 4.08388 28.0506C4.43347 27.7173 3.73931 27.2642 3.44783 27.5093C3.39638 27.5525 3.44381 27.6257 3.49966 27.6255ZM3.61137 27.5943C3.83203 27.5723 4.1976 27.8026 3.95845 27.9728C3.85152 28.0489 3.72308 28.0176 3.65238 27.9102C3.58986 27.8152 3.5881 27.7016 3.61137 27.5943Z" fill="#A96060"/>
<path d="M4.66224 25.452C4.63997 25.5755 4.69029 25.7142 4.80112 25.7796C4.96617 25.8771 5.1999 25.8114 5.27073 25.6291C5.3369 25.4587 5.25601 25.2448 5.08379 25.1749C4.90213 25.1011 4.67658 25.1936 4.60261 25.3748C4.58374 25.421 4.62211 25.4512 4.66224 25.452ZM4.80389 25.3452C4.80565 25.3422 4.80439 25.3394 4.80527 25.3365C4.86062 25.2963 4.92767 25.2756 5.00064 25.292C5.11209 25.317 5.17613 25.4378 5.15461 25.5465C5.13008 25.67 4.99133 25.7288 4.87886 25.6808C4.74036 25.6218 4.7386 25.4588 4.80389 25.3452Z" fill="#A96060"/>
<path d="M7.13967 24.0471C7.22949 23.8582 7.15841 23.598 6.94216 23.5379C6.74755 23.4838 6.51356 23.6105 6.48815 23.8149C6.48362 23.8277 6.48022 23.8407 6.47859 23.8534C6.46551 23.9593 6.51708 24.0683 6.59533 24.1378C6.76604 24.2898 7.03739 24.2623 7.13967 24.0471ZM6.60011 23.8571C6.60678 23.8377 6.61621 23.8203 6.62678 23.804C6.63232 23.8031 6.63634 23.8009 6.64351 23.8016C6.67748 23.8048 6.69182 23.7695 6.68251 23.7428C6.81712 23.6363 7.04368 23.6676 7.0267 23.892C7.01839 24.0015 6.94065 24.1027 6.82252 24.0931C6.75925 24.0879 6.69899 24.0525 6.6566 24.0066C6.64012 23.9889 6.60288 23.9202 6.59458 23.867C6.59634 23.8637 6.59873 23.861 6.60011 23.8571Z" fill="#A96060"/>
<path d="M9.66326 14.0912C9.84051 14.0206 9.93247 13.8141 9.81434 13.6496C9.75434 13.5661 9.63181 13.5009 9.5201 13.5012C9.51544 13.4844 9.50249 13.4708 9.47972 13.4717C9.28775 13.4793 9.18836 13.7281 9.22698 13.8923C9.27303 14.088 9.48827 14.1609 9.66326 14.0912ZM9.3509 13.8367C9.34058 13.7806 9.3509 13.733 9.37279 13.6911C9.38562 13.697 9.40021 13.6985 9.41518 13.6922C9.51255 13.6512 9.60627 13.6324 9.68464 13.7245C9.7644 13.8182 9.70037 13.9276 9.59759 13.9645C9.49028 14.0028 9.37279 13.9558 9.3509 13.8367Z" fill="#A96060"/>
<path d="M8.87199 16.6863C9.05554 16.5957 9.12863 16.3824 9.00836 16.2086C8.92043 16.0817 8.76746 16.0274 8.61675 16.0348C8.60605 16.0313 8.59448 16.031 8.58341 16.0363L8.58328 16.0364C8.49044 16.0469 8.40037 16.0807 8.3293 16.1377C8.27659 16.18 8.33458 16.2578 8.39119 16.2441C8.39521 16.2431 8.39924 16.242 8.40314 16.241C8.36993 16.3318 8.36867 16.4351 8.40578 16.5263C8.48252 16.7151 8.6955 16.7734 8.87199 16.6863ZM8.55158 16.202C8.66493 16.1754 8.77714 16.169 8.87099 16.271C8.97339 16.3824 8.91036 16.5205 8.78268 16.5689C8.66279 16.6143 8.54441 16.556 8.51422 16.4293C8.4951 16.3493 8.51158 16.2694 8.55158 16.202Z" fill="#A96060"/>
<path d="M8.63678 18.6757C8.61754 18.6702 8.59539 18.6725 8.57464 18.6886C8.44104 18.7925 8.44896 19.0115 8.53916 19.1397C8.64509 19.2903 8.84725 19.3015 8.98839 19.1936C9.1269 19.0877 9.17533 18.8909 9.05721 18.7505C8.9704 18.6475 8.75 18.5673 8.63678 18.6757ZM8.91417 19.0976C8.6944 19.2566 8.51702 18.9564 8.66647 18.7806C8.67704 18.7681 8.68144 18.7553 8.68295 18.7428C8.72899 18.7311 8.76774 18.7181 8.82032 18.7294C8.868 18.7396 8.91404 18.7636 8.94851 18.7982C9.04022 18.89 9.01607 19.024 8.91417 19.0976Z" fill="#A96060"/>
<path d="M13.5063 11.0089C13.668 10.9183 13.7738 10.6826 13.6491 10.5204C13.5575 10.4014 13.3384 10.3744 13.2561 10.5148C13.1313 10.5549 13.0385 10.684 13.068 10.8236C13.1105 11.0252 13.3347 11.105 13.5063 11.0089ZM13.2935 10.631C13.3118 10.6353 13.3321 10.6312 13.3501 10.6119C13.3572 10.6105 13.3643 10.6087 13.3715 10.6081C13.3915 10.6066 13.4067 10.594 13.4151 10.5782C13.4552 10.5699 13.4985 10.579 13.5261 10.6148C13.5861 10.6926 13.5198 10.8094 13.454 10.8584C13.3747 10.9176 13.2629 10.9118 13.2172 10.8135C13.1809 10.7352 13.2268 10.6656 13.2935 10.631Z" fill="#A96060"/>
<path d="M16.7111 10.3116C16.8723 10.2602 16.9846 10.0959 16.9247 9.92769C16.8656 9.76164 16.6548 9.6464 16.4903 9.73232C16.4806 9.73736 16.4736 9.74377 16.468 9.75094C16.3478 9.82152 16.2918 9.97499 16.3266 10.1124C16.3699 10.2824 16.5488 10.3633 16.7111 10.3116ZM16.5313 9.8614C16.5357 9.86114 16.5399 9.8619 16.5445 9.86077C16.6449 9.83611 16.7598 9.87662 16.7903 9.98619C16.8162 10.0792 16.7386 10.1564 16.6535 10.1765C16.4514 10.2246 16.4076 9.9716 16.5313 9.8614Z" fill="#A96060"/>
<path d="M19.6576 10.5381C19.8378 10.4381 19.929 10.1583 19.7691 9.9993C19.6734 9.90407 19.4821 9.89111 19.3783 9.97904C19.2098 9.99754 19.0839 10.1806 19.1311 10.3522C19.1905 10.5685 19.476 10.6389 19.6576 10.5381ZM19.3115 10.114C19.32 10.1642 19.3889 10.1862 19.4218 10.1357C19.4778 10.0497 19.6067 10.0143 19.6826 10.1021C19.7689 10.2021 19.6919 10.3689 19.5904 10.4231C19.4882 10.4776 19.3343 10.4529 19.2696 10.3509C19.2194 10.2717 19.248 10.1733 19.3115 10.114Z" fill="#A96060"/>
<path d="M55.2021 33.5531C55.1654 33.5833 55.1801 33.6321 55.2117 33.6568C55.1626 33.7237 55.1355 33.8066 55.1473 33.8924C55.1751 34.0947 55.4025 34.2055 55.5888 34.1497C55.7984 34.0868 55.872 33.8221 55.7684 33.6409C55.6543 33.4414 55.3723 33.4127 55.2021 33.5531ZM55.543 34.0245C55.4367 34.0553 55.2959 33.9963 55.2647 33.8847C55.233 33.7713 55.3097 33.6555 55.4136 33.6129C55.4991 33.5985 55.5876 33.6199 55.6412 33.7004C55.7139 33.8095 55.6772 33.9856 55.543 34.0245Z" fill="#A96060"/>
<path d="M53.9807 35.9707C53.9379 35.97 53.8973 35.9793 53.8632 35.9975C53.692 36.0213 53.5726 36.2417 53.6077 36.4021C53.653 36.6084 53.9023 36.703 54.0875 36.6253C54.2868 36.5416 54.3324 36.2857 54.2193 36.1133C54.1666 36.0331 54.079 35.9726 53.9807 35.9707ZM53.9944 36.5139C53.8877 36.5356 53.7582 36.48 53.7288 36.3689C53.7072 36.2866 53.734 36.2196 53.7819 36.167C53.8052 36.1991 53.865 36.2059 53.8836 36.1644C53.951 36.0143 54.1151 36.1691 54.1374 36.2651C54.1631 36.3753 54.1113 36.4902 53.9944 36.5139Z" fill="#A96060"/>
<path d="M51.9217 37.8249C51.9149 37.8143 51.9037 37.8072 51.8871 37.8089C51.7201 37.8272 51.6155 38.0135 51.6789 38.1682C51.7464 38.3329 51.959 38.4019 52.1141 38.3213C52.263 38.2439 52.3535 38.0339 52.233 37.8928C52.1612 37.8087 52.0198 37.7732 51.9217 37.8249ZM52.0448 38.2124C51.9592 38.2512 51.842 38.2164 51.795 38.1331C51.7531 38.0591 51.7806 37.9759 51.8404 37.9274C51.8427 37.9726 51.9024 38.0011 51.9437 37.9671C51.9977 37.9224 52.0734 37.917 52.1269 37.9702C52.2062 38.0493 52.1285 38.1744 52.0448 38.2124Z" fill="#A96060"/>
<path d="M55.565 28.5734C55.5724 28.6214 55.5898 28.6681 55.6188 28.7071C55.7363 28.8641 55.9522 28.812 56.0464 28.6593C56.1443 28.5007 56.0805 28.2774 55.884 28.2435C55.7176 28.2147 55.5162 28.3347 55.5196 28.517C55.5201 28.5454 55.5408 28.5651 55.565 28.5734ZM55.8327 28.3687C55.9546 28.3693 55.9896 28.4897 55.9399 28.5859C55.8913 28.68 55.7755 28.7227 55.6995 28.6327C55.6709 28.599 55.6539 28.5546 55.6497 28.5098C55.6717 28.4262 55.7411 28.3682 55.8327 28.3687Z" fill="#A96060"/>
<path d="M54.3854 25.1357C54.3795 25.1255 54.3708 25.1167 54.3581 25.1152C54.1643 25.0914 54 25.2964 54.0531 25.482C54.1041 25.6605 54.3315 25.7588 54.4903 25.6566C54.632 25.5655 54.6772 25.3412 54.5555 25.2154C54.5119 25.1704 54.45 25.1433 54.3854 25.1357ZM54.4199 25.533C54.3327 25.5941 54.2109 25.5314 54.1766 25.439C54.1668 25.4126 54.1658 25.3877 54.1692 25.3638C54.1854 25.3651 54.2023 25.3598 54.2166 25.343C54.2713 25.2795 54.3614 25.2401 54.4385 25.2972C54.5154 25.3544 54.4921 25.4824 54.4199 25.533Z" fill="#A96060"/>
<path d="M51.9993 23.3821C51.9851 23.399 51.9804 23.4169 51.9821 23.4333C51.9541 23.481 51.9395 23.5374 51.9475 23.5936C51.9769 23.8016 52.2376 23.8674 52.4091 23.8056C52.5982 23.7375 52.7291 23.5074 52.5819 23.3343C52.4241 23.1487 52.1419 23.2122 51.9993 23.3821ZM52.3837 23.6676C52.2986 23.7083 52.1754 23.7021 52.1096 23.629C52.0643 23.5786 52.0715 23.5107 52.1066 23.463C52.1277 23.4461 52.1502 23.4292 52.1739 23.4138C52.1906 23.4084 52.2084 23.4053 52.2276 23.4077C52.2503 23.4106 52.2633 23.3901 52.2646 23.3696C52.3172 23.3526 52.3724 23.3516 52.4274 23.3843C52.5587 23.4624 52.5008 23.6116 52.3837 23.6676Z" fill="#A96060"/>
<path d="M49.6131 13.8001C49.4789 13.8725 49.4186 14.045 49.4731 14.1872C49.5335 14.3444 49.7112 14.3938 49.8584 14.3287C50.0052 14.2638 50.0817 14.0948 49.9947 13.9504C49.9287 13.8408 49.7829 13.775 49.6631 13.8155C49.6549 13.7988 49.6354 13.788 49.6131 13.8001ZM49.8802 14.0283C49.9252 14.111 49.8584 14.1907 49.7802 14.2167C49.6002 14.2766 49.5215 14.0796 49.5847 13.9439C49.6038 13.963 49.6343 13.9728 49.6629 13.9595C49.7413 13.9231 49.8374 13.9496 49.8802 14.0283Z" fill="#A96060"/>
<path d="M50.7062 17.3426C50.87 17.2794 50.957 17.0622 50.8525 16.913C50.8073 16.8486 50.7325 16.8096 50.6551 16.7994C50.6657 16.7776 50.6527 16.7452 50.6229 16.7443C50.4428 16.7387 50.2834 16.9084 50.307 17.0898C50.3309 17.272 50.5287 17.411 50.7062 17.3426ZM50.4336 16.9664C50.4542 16.9843 50.4844 16.992 50.5093 16.9766C50.5813 16.9321 50.6766 16.9121 50.7366 16.9913C50.7987 17.0732 50.7303 17.1997 50.6381 17.2232C50.5333 17.25 50.4257 17.1486 50.4196 17.0471C50.4177 17.0176 50.4233 16.9908 50.4336 16.9664Z" fill="#A96060"/>
<path d="M50.4789 19.1814C50.4663 19.1952 50.4616 19.2101 50.4609 19.2247C50.4029 19.3118 50.3856 19.4272 50.4198 19.5304C50.4843 19.7248 50.7133 19.7738 50.8786 19.6755C51.0461 19.576 51.1101 19.35 50.9665 19.2005C50.8416 19.0703 50.6072 19.0415 50.4789 19.1814ZM50.7997 19.5629C50.5973 19.6775 50.4804 19.4546 50.5453 19.295C50.5558 19.2922 50.5661 19.2876 50.5759 19.2784C50.6537 19.2055 50.7753 19.2153 50.8539 19.284C50.9552 19.3725 50.9036 19.5042 50.7997 19.5629Z" fill="#A96060"/>
<path d="M27.5667 5.32261C27.7542 5.27292 27.8281 5.04271 27.7441 4.87754C27.6547 4.70179 27.3982 4.62782 27.2274 4.72431C27.2238 4.72632 27.2214 4.72947 27.2184 4.73211C27.0911 4.76482 27.0074 4.92924 27.0437 5.05906C27.1006 5.26261 27.3726 5.37407 27.5667 5.32261ZM27.2423 4.8642C27.2495 4.86596 27.2573 4.86709 27.2658 4.86609C27.3608 4.85527 27.4602 4.8325 27.5445 4.89402C27.6184 4.94798 27.6421 5.07844 27.5623 5.13995C27.4812 5.20248 27.3236 5.147 27.2544 5.08863C27.1847 5.0295 27.176 4.91465 27.2423 4.8642Z" fill="#A96060"/>
<path d="M24.6645 6.6937C24.8717 6.6469 24.9361 6.41367 24.8896 6.22723C24.869 6.14433 24.8146 6.06759 24.7286 6.04533C24.6489 6.0247 24.5624 6.05539 24.5304 6.132C24.383 6.13301 24.2806 6.32095 24.2942 6.45317C24.3127 6.63294 24.497 6.73156 24.6645 6.6937ZM24.5685 6.22208C24.5931 6.22962 24.622 6.22686 24.6434 6.20987C24.7372 6.13477 24.7551 6.32007 24.7516 6.37668C24.7452 6.48072 24.684 6.56249 24.5732 6.55331C24.4903 6.54651 24.4279 6.48877 24.4321 6.40285C24.4367 6.30624 24.4995 6.26975 24.5685 6.22208Z" fill="#A96060"/>
<path d="M22.3331 8.71022C22.3922 8.90936 22.6185 8.96031 22.7835 8.85401C22.9477 8.74821 22.9967 8.51963 22.8418 8.38214C22.7227 8.27634 22.4437 8.23923 22.3624 8.41497C22.356 8.42868 22.3549 8.4439 22.3572 8.45862C22.3193 8.53611 22.3094 8.63072 22.3331 8.71022ZM22.4873 8.49485C22.5615 8.44654 22.6338 8.42025 22.7226 8.47674C22.8247 8.54165 22.8011 8.66443 22.7096 8.72771C22.6192 8.79023 22.4929 8.77224 22.4638 8.65525C22.4487 8.59486 22.4595 8.54052 22.4873 8.49485Z" fill="#A96060"/>
<path d="M33.1882 5.2211C33.33 5.10461 33.3762 4.84508 33.183 4.75212C33.1123 4.71802 33.0198 4.72218 32.9473 4.75614C32.7779 4.72608 32.624 4.93151 32.6858 5.09769C32.7598 5.29683 33.0307 5.35067 33.1882 5.2211ZM32.8349 4.94283C32.8355 4.94849 32.8341 4.95327 32.8354 4.95918C32.8486 5.02384 32.9382 5.01378 32.9565 4.95918C32.977 4.89792 33.0431 4.86056 33.1067 4.88622C33.196 4.9222 33.1588 5.03806 33.107 5.09077C33.0369 5.1621 32.9168 5.15807 32.8485 5.08448C32.8062 5.03881 32.8083 4.98371 32.8349 4.94283Z" fill="#A96060"/>
<path d="M35.3115 6.6801C35.4903 6.67381 35.6406 6.53417 35.6306 6.34975C35.6258 6.26119 35.5809 6.17766 35.5001 6.13715C35.4434 6.10872 35.3827 6.10847 35.3235 6.12193C35.1605 6.07727 35.0029 6.22068 34.9892 6.38321C34.974 6.56449 35.1432 6.68601 35.3115 6.6801ZM35.1587 6.29905C35.1813 6.32119 35.2154 6.33277 35.2519 6.31654C35.3425 6.27628 35.4908 6.2388 35.4711 6.39114C35.4595 6.48008 35.3758 6.52801 35.2919 6.52738C35.2125 6.52675 35.127 6.48184 35.1266 6.39315C35.1265 6.36032 35.1389 6.32736 35.1587 6.29905Z" fill="#A96060"/>
<path d="M36.8673 8.68066C37.0644 8.62317 37.1575 8.36553 37.0316 8.19935C36.9784 8.12903 36.8926 8.09733 36.8087 8.09934C36.8049 8.08336 36.7942 8.06877 36.7724 8.06713C36.5812 8.05367 36.4051 8.22879 36.4325 8.42352C36.4604 8.62216 36.6829 8.73438 36.8673 8.68066ZM36.5787 8.31999C36.6065 8.36339 36.6829 8.37383 36.7171 8.32062C36.7643 8.24703 36.8821 8.23784 36.9141 8.33182C36.9474 8.42981 36.8739 8.52781 36.7749 8.5341C36.6817 8.54014 36.5823 8.47976 36.5732 8.38189C36.5711 8.361 36.5739 8.34025 36.5787 8.31999Z" fill="#A96060"/>
<path d="M46.2119 10.8964C46.4144 10.8322 46.5216 10.6045 46.3518 10.4407C46.2374 10.3305 46.0614 10.3372 45.9325 10.4167C45.8196 10.4357 45.7327 10.569 45.7529 10.6888C45.7873 10.892 46.0424 10.9501 46.2119 10.8964ZM45.8916 10.6168C45.976 10.5695 46.0707 10.4832 46.1748 10.5114C46.2277 10.5258 46.286 10.5751 46.2818 10.6338C46.2777 10.6925 46.2222 10.7279 46.1709 10.7474C46.0951 10.7761 45.9931 10.7742 45.9298 10.7191C45.8976 10.6912 45.8867 10.6529 45.8916 10.6168Z" fill="#A96060"/>
<path d="M42.9763 10.1963C43.1707 10.1518 43.2664 9.91641 43.1592 9.74721C43.1112 9.67135 43.0253 9.63324 42.9397 9.63122C42.9354 9.62808 42.9328 9.62368 42.926 9.62242C42.742 9.5882 42.5743 9.76621 42.591 9.94799C42.6079 10.1312 42.8079 10.2348 42.9763 10.1963ZM42.7269 9.84923C42.7557 9.87112 42.7996 9.87616 42.8265 9.84697C42.8879 9.78017 43.0045 9.75187 43.0409 9.86421C43.0709 9.95742 43.0074 10.0474 42.9124 10.0555C42.8311 10.0625 42.7377 10.0157 42.7215 9.93038C42.7162 9.90207 42.7188 9.87465 42.7269 9.84923Z" fill="#A96060"/>
<path d="M40.409 10.3812C40.5185 10.27 40.594 10.0342 40.4522 9.91759C40.4083 9.88149 40.3408 9.86803 40.2805 9.87746C40.2704 9.8674 40.2549 9.86312 40.2403 9.87205C40.1011 9.95873 39.9834 10.1434 40.0507 10.308C40.114 10.4626 40.291 10.5011 40.409 10.3812ZM40.1552 10.1279C40.1613 10.1081 40.17 10.0898 40.1799 10.0723C40.2091 10.0898 40.2513 10.085 40.2738 10.0506C40.3201 9.97974 40.387 10.0367 40.3845 10.1091C40.3821 10.1791 40.3335 10.3063 40.2537 10.3173C40.1555 10.331 40.1334 10.1983 40.1552 10.1279Z" fill="#A96060"/>
<g filter="url(#filter0_d_653_23647)">
<path d="M29.4971 33.6494C30.4252 33.6495 31.3153 34.0177 31.9717 34.6738C32.6281 35.3303 32.9971 36.2211 32.9971 37.1494V38.6357C32.9967 38.9274 32.7604 39.1639 32.4688 39.1641C32.177 39.1641 31.9398 38.9274 31.9395 38.6357V37.1494C31.9394 36.5016 31.6826 35.88 31.2246 35.4219C30.7665 34.9638 30.1449 34.7061 29.4971 34.7061H25.0391C24.3911 34.7061 23.7697 34.9637 23.3115 35.4219C22.8534 35.88 22.5957 36.5015 22.5957 37.1494V38.6357C22.5954 38.9274 22.3592 39.1641 22.0674 39.1641C21.7756 39.1641 21.5394 38.9274 21.5391 38.6357V37.1494C21.5391 36.2211 21.9071 35.3303 22.5635 34.6738C23.2199 34.0174 24.1107 33.6494 25.0391 33.6494H29.4971ZM34.8291 33.7627C35.5797 33.9566 36.2456 34.3941 36.7207 35.0068C37.1957 35.6197 37.4545 36.374 37.4551 37.1494V38.6357C37.4547 38.9273 37.2174 39.1639 36.9258 39.1641C36.6342 39.1639 36.3978 38.9273 36.3975 38.6357V37.1504L36.3887 36.9482C36.3495 36.4792 36.1748 36.0296 35.8848 35.6553C35.5533 35.2277 35.0892 34.9215 34.5654 34.7861C34.2829 34.7132 34.1129 34.4251 34.1855 34.1426C34.2585 33.86 34.5465 33.6899 34.8291 33.7627ZM27.2686 24.7344C29.2017 24.7344 30.7685 26.3012 30.7686 28.2344C30.7684 30.1674 29.2016 31.7343 27.2686 31.7344C25.3355 31.7343 23.7687 30.1674 23.7686 28.2344C23.7686 26.3012 25.3354 24.7344 27.2686 24.7344ZM32.6016 24.8457C33.352 25.0403 34.0167 25.4787 34.4912 26.0918C34.9658 26.7051 35.2236 27.4589 35.2236 28.2344C35.2236 29.0096 34.9656 29.7628 34.4912 30.376C34.0167 30.9891 33.352 31.4275 32.6016 31.6221C32.319 31.6951 32.0303 31.5257 31.957 31.2432C31.884 30.9607 32.0536 30.6721 32.3359 30.5986C32.8597 30.4629 33.3241 30.1573 33.6553 29.7295C33.9864 29.3016 34.1659 28.7755 34.166 28.2344C34.166 27.6933 33.9864 27.1672 33.6553 26.7393C33.3241 26.3113 32.8598 26.0049 32.3359 25.8691C32.0536 25.7957 31.8839 25.507 31.957 25.2246C32.0303 24.9422 32.3191 24.7727 32.6016 24.8457ZM27.2686 25.791C25.9193 25.791 24.8252 26.8852 24.8252 28.2344C24.8254 29.5835 25.9194 30.6777 27.2686 30.6777C28.6177 30.6777 29.7117 29.5835 29.7119 28.2344C29.7119 26.8852 28.6178 25.7911 27.2686 25.791Z" fill="#6E2F2F"/>
</g>
</g>
<defs>
<filter id="filter0_d_653_23647" x="7.92308" y="12.0646" width="43.1538" height="43.1538" filterUnits="userSpaceOnUse" color-interpolation-filters="sRGB">
<feFlood flood-opacity="0" result="BackgroundImageFix"/>
<feColorMatrix in="SourceAlpha" type="matrix" values="0 0 0 0 0 0 0 0 0 0 0 0 0 0 0 0 0 0 127 0" result="hardAlpha"/>
<feOffset dy="1.69231"/>
<feGaussianBlur stdDeviation="2.53846"/>
<feComposite in2="hardAlpha" operator="out"/>
<feColorMatrix type="matrix" values="0 0 0 0 0.831373 0 0 0 0 0.686275 0 0 0 0 0.215686 0 0 0 0.1 0"/>
<feBlend mode="normal" in2="BackgroundImageFix" result="effect1_dropShadow_653_23647"/>
<feBlend mode="normal" in="SourceGraphic" in2="effect1_dropShadow_653_23647" result="shape"/>
</filter>
<clipPath id="clip0_653_23647">
<rect width="59" height="62.8998" fill="white"/>
</clipPath>
</defs>
</svg>
