<svg width="413" height="395" viewBox="0 0 413 395" fill="none" xmlns="http://www.w3.org/2000/svg">
<path opacity="0.6" d="M80 172L104.5 105.5M80 172L16.5 139M80 172V89.5M80 172L22.5 110.5M104.5 105.5L80 89.5M104.5 105.5L16.5 139M80 89.5L22.5 110.5M22.5 110.5L16.5 139" stroke="url(#paint0_linear_653_19723)" stroke-width="2"/>
<path opacity="0.6" d="M333.5 102.777L398.728 75.0673M333.5 102.777L314.038 33.9108M333.5 102.777L393.599 46.2585M333.5 102.777L338.91 18.7573M398.728 75.0673L393.599 46.2585M398.728 75.0673L314.038 33.9108M393.599 46.2585L338.91 18.7573M338.91 18.7573L314.038 33.9108" stroke="url(#paint1_linear_653_19723)" stroke-width="2"/>
<mask id="path-3-inside-1_653_19723" fill="white">
<circle cx="118.016" cy="276.295" r="112" transform="rotate(93.1662 118.016 276.295)"/>
</mask>
<path d="M111.582 392.618C111.747 389.622 111.913 386.627 112.079 383.631C100.808 383.087 89.6515 380.784 79.1051 376.78C36.4544 361.179 6.65194 316.088 9.557 270.296C10.9369 212.457 65.7358 162.465 124.078 166.713C182.517 168.113 233.016 223.478 228.722 282.419C227.139 329.206 192.289 372.545 146.643 384.374C135.345 387.445 123.562 388.702 111.83 388.124C123.554 388.852 135.375 387.747 146.758 384.809C192.721 373.541 228.723 330.274 230.969 282.544C236.161 222.511 185.182 164.513 124.326 162.22C63.6949 156.981 5.13073 208.467 2.8173 269.923C-0.897241 318.494 30.168 367.294 76.0193 384.753C87.3527 389.224 99.3959 391.873 111.582 392.618ZM112.079 383.631L111.582 392.618L111.83 388.124L112.079 383.631Z" fill="url(#paint2_linear_653_19723)" mask="url(#path-3-inside-1_653_19723)"/>
<mask id="path-5-inside-2_653_19723" fill="white">
<circle cx="277.014" cy="199.295" r="112" transform="rotate(76.3309 277.014 199.295)"/>
</mask>
<path d="M304.545 312.495C303.836 309.58 303.127 306.665 302.418 303.75C291.472 306.493 280.127 307.521 268.873 306.742C223.532 304.163 181.948 269.636 171.466 224.964C156.036 169.205 194.007 105.485 251.079 92.6534C307.418 77.0684 371.788 115.435 384.749 173.094C396.784 218.334 375.98 269.908 335.716 294.45C325.792 300.662 314.878 305.278 303.481 308.123C314.913 305.424 325.908 300.943 335.952 294.833C376.681 270.737 398.61 218.897 386.935 172.562C374.519 113.598 308.927 72.8509 250.015 88.2809C190.465 100.826 149.322 167.068 164.907 226.56C175.419 274.125 219.286 311.836 268.229 315.268C280.372 316.265 292.666 315.312 304.545 312.495ZM302.418 303.75L304.545 312.495L303.481 308.123L302.418 303.75Z" fill="url(#paint3_linear_653_19723)" mask="url(#path-5-inside-2_653_19723)"/>
<defs>
<linearGradient id="paint0_linear_653_19723" x1="96" y1="121" x2="32.5" y2="156" gradientUnits="userSpaceOnUse">
<stop stop-color="#E7B8A5" stop-opacity="0.5"/>
<stop offset="0.666739" stop-color="white" stop-opacity="0.5"/>
<stop offset="1" stop-color="#FFF6EC" stop-opacity="0.5"/>
</linearGradient>
<linearGradient id="paint1_linear_653_19723" x1="381.613" y1="79.4938" x2="312.615" y2="57.2127" gradientUnits="userSpaceOnUse">
<stop stop-color="#E7B8A5" stop-opacity="0.5"/>
<stop offset="0.666739" stop-color="white" stop-opacity="0.5"/>
<stop offset="1" stop-color="#FFF6EC" stop-opacity="0.5"/>
</linearGradient>
<linearGradient id="paint2_linear_653_19723" x1="197.001" y1="208.5" x2="51.0011" y2="464" gradientUnits="userSpaceOnUse">
<stop stop-color="#E7B8A5" stop-opacity="0.8"/>
<stop offset="0.63853" stop-color="white"/>
<stop offset="1" stop-color="#E7BAA7" stop-opacity="0.5"/>
</linearGradient>
<linearGradient id="paint3_linear_653_19723" x1="382.499" y1="289.5" x2="183.499" y2="250" gradientUnits="userSpaceOnUse">
<stop stop-color="#E7B8A5" stop-opacity="0.8"/>
<stop offset="0.581731" stop-color="white"/>
<stop offset="1" stop-color="#E7BAA7" stop-opacity="0.5"/>
</linearGradient>
</defs>
</svg>
