<svg width="160" height="160" viewBox="0 0 160 160" fill="none" xmlns="http://www.w3.org/2000/svg">
<path d="M82.9883 30.8779C84.3874 32.9348 84.6949 37.196 85.47 38.3284C86.1509 39.3222 87.7597 39.7026 88.7144 38.1044C89.3259 37.0822 88.8193 35.7632 88.0993 34.6752C87.2157 33.3383 85.1482 31.2708 82.9883 30.8779Z" fill="url(#paint0_linear_653_20022)"/>
<path d="M89.8272 29.265C88.7677 29.0019 85.8202 30.3441 83.8984 29.8765C85.3384 31.3929 86.9028 32.3103 88.1437 32.5929C89.1516 32.8223 90.213 32.2694 90.6894 31.3752C91.1054 30.5983 90.7569 29.4961 89.8272 29.265Z" fill="url(#paint1_linear_653_20022)"/>
<path d="M80.5 36.381C80.5036 37.3801 81.3995 38.2814 82.1729 38.2921C83.0617 38.3045 83.7746 37.5863 83.7888 36.5126C83.8066 35.1917 83.6288 33.0709 82.3062 31.0869C82.3062 33.1473 80.4964 35.2415 80.5 36.381Z" fill="url(#paint2_linear_653_20022)"/>
<path d="M76.315 13.3543C76.3666 12.6041 76.7825 10.3464 77.3656 9.49843C76.8785 11.2175 76.8981 14.5881 76.9692 16.1454C76.9834 16.4582 76.9977 16.7747 77.0048 17.0929C77.1559 17.0893 77.3141 17.0734 77.4776 17.0378C78.2883 16.8618 78.7772 15.9818 78.9372 15.1676C79.0972 14.3534 78.9674 13.5143 78.8518 12.693C78.7167 11.7259 78.6012 10.7571 78.5425 9.78109C78.4945 8.96688 78.4927 8.12067 78.8234 7.37402C78.0998 7.87535 77.2856 8.22375 76.507 8.63441C75.7283 9.04507 74.9675 9.53751 74.4466 10.2451C73.9222 10.9579 73.6768 11.8592 73.6964 12.7446C73.7142 13.6299 73.9862 14.4992 74.4093 15.2778C74.715 15.8396 75.1133 16.3694 75.6466 16.7231C75.7781 16.8103 76.0306 16.94 76.3612 17.0218C76.3346 15.7987 76.2314 14.5756 76.315 13.3543Z" fill="url(#paint3_linear_653_20022)"/>
<path d="M71.3257 24.1164C71.2137 24.152 69.8697 24.5129 69.875 24.5449V24.5466C69.9088 24.6284 71.4874 24.2942 71.6154 24.264C72.2839 24.1076 72.9363 23.8906 73.562 23.608C74.8296 23.0338 75.9104 22.088 76.4669 20.7921C76.9682 19.6277 77.034 18.3512 77.0037 17.0926C76.7691 17.0961 76.5522 17.0677 76.362 17.0215C76.3709 17.3735 76.3726 17.7255 76.362 18.0774C76.3193 19.569 75.9887 21.048 74.9096 22.1449C73.9425 23.1315 72.6252 23.704 71.3257 24.1164Z" fill="url(#paint4_linear_653_20022)"/>
<path d="M51.8801 33.8253C50.9486 32.8333 50.0757 31.7862 49.226 30.7231C48.5042 29.8201 47.7771 28.8849 46.7994 28.2663C45.8216 27.6476 44.4616 27.301 43.5052 27.9534C43.3114 28.085 43.1426 28.2289 42.9968 28.38C43.3114 28.6912 43.619 29.0094 43.923 29.324C45.4341 30.8884 48.8313 34.1381 51.041 35.2919C49.6224 35.0714 46.9362 33.3311 46.1238 32.6627C44.8047 31.5765 43.6634 30.3 42.4528 29.1C42.2164 29.5125 42.1079 29.8929 42.0688 30.1098C41.9141 30.9898 42.0706 31.8982 42.3479 32.7479C42.7301 33.923 43.3523 35.0323 44.2323 35.8981C45.1123 36.7656 46.2589 37.3807 47.4856 37.5319C48.7033 37.683 49.9317 37.3825 51.0926 36.9879C52.2535 36.5932 53.3876 36.1008 54.5894 35.8484C53.5156 35.4679 52.6588 34.6537 51.8801 33.8253Z" fill="url(#paint5_linear_653_20022)"/>
<path d="M38.7328 25.3795C36.8875 24.7039 34.8911 24.8924 33.0938 25.6266C32.2067 25.9893 31.3641 26.4443 30.5641 26.9705C30.4112 27.0719 28.5606 28.3519 28.6104 28.4639C28.637 28.5012 30.2903 27.4861 30.4343 27.4061C32.0965 26.4853 33.94 25.6977 35.8689 25.6586C38.0146 25.6159 39.8297 26.6986 41.3834 28.0852C41.7496 28.4123 42.1052 28.7519 42.4536 29.0985C42.5887 28.8621 42.7665 28.6132 42.9958 28.3785C41.7514 27.143 40.395 25.9875 38.7328 25.3795Z" fill="url(#paint6_linear_653_20022)"/>
<path d="M79.7334 27.4809C77.5628 25.2747 73.9131 24.624 71.0083 25.0187C67.2199 25.5325 63.7178 27.2693 59.8796 27.5662C57.949 27.7155 56.0362 27.5022 54.1642 27.0311C53.8958 26.9565 51.3963 26.0996 51.3696 26.1529C51.2736 26.352 54.0664 27.4684 54.342 27.5662C56.2815 28.2524 58.349 28.5564 60.404 28.4835C65.3426 28.3075 70.4909 25.2943 75.3975 26.9085C77.3654 27.5502 79.6978 28.8835 79.4721 31.2835C79.2978 33.1412 77.3637 35.4469 75.2837 34.5172C74.4411 34.1776 74.4482 32.8567 75.1735 32.7341C75.4633 32.6843 75.9468 33.4452 76.089 33.6407C76.5761 34.3109 78.4321 33.9465 77.5254 31.6888C76.6526 29.5111 73.6855 29.3102 72.2562 31.3794C69.1132 35.9304 74.6508 38.7677 78.3272 36.0656C81.0133 34.0923 82.2151 30.0017 79.7334 27.4809Z" fill="url(#paint7_linear_653_20022)"/>
<path d="M112.512 8.92748C109.392 9.35058 106.507 10.7816 103.348 11.0252C101.758 11.1479 100.183 10.9719 98.6401 10.5861C98.4197 10.5257 96.3611 9.81812 96.338 9.86257C96.258 10.0279 98.5584 10.9452 98.7859 11.027C100.384 11.5923 102.085 11.843 103.778 11.7826C107.845 11.6386 112.085 9.15683 116.124 10.4866C117.745 11.0146 119.665 12.1132 119.481 14.0883C119.337 15.6189 117.745 17.5157 116.032 16.7513C115.338 16.4722 115.344 15.3842 115.941 15.2829C116.179 15.242 116.577 15.8695 116.695 16.0295C117.097 16.5824 118.624 16.282 117.879 14.4207C117.159 12.6269 114.716 12.4616 113.539 14.1647C110.951 17.9122 115.511 20.2499 118.538 18.0242C120.748 16.3993 121.738 13.0305 119.696 10.9541C117.909 9.13728 114.905 8.60215 112.512 8.92748Z" fill="url(#paint8_linear_653_20022)"/>
<path d="M58.7093 30.1197C55.1201 28.1642 51.9077 28.5375 47.5078 25.2646C50.2384 29.8974 57.5929 29.4477 61.2924 34.5302C62.5955 36.3186 63.7474 38.955 62.0319 40.8803C60.7057 42.37 57.5787 43.1309 56.3752 41.0136C55.8649 40.187 56.7058 39.0546 57.4116 39.4066C57.6925 39.547 57.6267 40.5105 57.6249 40.7683C57.6196 41.6554 59.4489 42.5158 60.0995 39.995C60.7253 37.5666 58.2987 35.5133 55.7565 36.3897C50.1655 38.3186 53.1397 44.2722 58.0178 44.2722C61.5786 44.2722 65.2052 41.5096 64.6647 37.7657C64.1954 34.4911 61.463 31.6201 58.7093 30.1197Z" fill="url(#paint9_linear_653_20022)"/>
<path d="M93.2094 9.6286C89.9224 9.2446 86.4451 11.1503 84.2887 13.4258C81.4781 16.3929 81.0159 19.5946 76.7227 23.0078C81.9012 21.5572 83.3518 14.3342 89.213 12.0605C91.277 11.2605 94.1196 10.8232 95.54 12.9743C96.6404 14.6382 96.5746 17.8559 94.2174 18.4764C93.2876 18.7573 92.4076 17.6533 92.9303 17.0631C93.1383 16.8284 94.052 17.1377 94.3009 17.2053C95.156 17.4382 96.4591 15.8898 94.1889 14.6151C92.0023 13.3867 89.3962 15.2071 89.5917 17.888C90.0219 23.7865 96.5391 22.439 97.7906 17.7226C98.7079 14.2809 96.9675 10.0677 93.2094 9.6286Z" fill="url(#paint10_linear_653_20022)"/>
<path d="M85.3923 24.487C85.9772 25.9999 87.8669 26.3199 88.7434 25.0862C89.6518 23.8062 88.5425 23.2977 88.1372 23.6461C88.0181 23.7475 87.6003 24.151 87.4261 24.0781C86.9887 23.8915 87.1843 23.0631 87.7638 22.976C89.2091 22.7057 90.0749 24.4426 89.9042 25.6337C89.6838 27.1732 88.0216 27.6567 86.6901 27.7634C83.371 28.0372 80.5942 25.3723 77.5241 24.5208C76.2459 24.1652 74.9037 24.0461 73.5846 24.1848C73.3962 24.2044 71.4762 24.4835 71.5082 24.6239C71.5171 24.6613 73.2131 24.4995 73.3926 24.4942C74.637 24.4817 75.869 24.6346 77.0583 25.0186C79.4209 25.7812 81.3551 27.3972 83.6537 28.2896C85.4154 28.9741 87.8029 29.1163 89.4954 28.0585C91.4313 26.8497 91.2926 24.1048 89.906 22.464C88.0056 20.2134 84.1053 21.1591 85.3923 24.487Z" fill="url(#paint11_linear_653_20022)"/>
<path d="M62.6951 22.9227C56.5299 25.3849 49.6838 21.9289 43.332 22.096C40.6885 22.1654 38.061 22.7218 35.6272 23.7564C35.2806 23.904 31.7856 25.559 31.926 25.8061C31.9633 25.8737 35.1046 24.5742 35.4406 24.4568C37.8067 23.7048 40.2422 23.2782 42.7311 23.3155C47.6785 23.3902 52.3113 25.3386 57.2125 25.6977C60.9706 25.9733 65.6017 24.848 68.2114 21.8436C71.1944 18.4108 69.326 13.2589 65.7261 10.9407C60.7929 7.76567 53.9148 11.8474 58.3094 17.4366C60.3076 19.977 64.0977 19.4827 65.0452 16.6188C66.0283 13.6482 63.6177 13.3282 63.0453 14.2277C62.8782 14.4908 62.3182 15.506 61.9431 15.4651C61.0009 15.3637 60.8889 13.6713 61.9413 13.1682C64.5368 11.8101 67.2016 14.6135 67.5732 16.9833C68.0549 20.0463 65.1679 21.9432 62.6951 22.9227Z" fill="url(#paint12_linear_653_20022)"/>
<path d="M41.6225 19.7261C40.3105 20.0799 38.9843 20.3963 37.7061 20.8585C36.7355 21.2087 35.7986 21.6656 34.876 22.1243C33.2351 22.9402 31.692 23.9304 30.2698 25.0806C30.1916 25.1446 28.2859 26.8352 27.9677 27.1695C27.5019 27.6299 27.0397 28.0939 26.5668 28.5472C26.0797 29.0148 24.1509 31.2245 24.0922 31.2974C22.9278 32.732 21.9269 34.2875 21.1021 35.9444C20.6434 36.8688 20.1865 37.8039 19.8363 38.7745C19.3741 40.0545 19.0577 41.3807 18.7039 42.6909C18.0817 44.9984 17.3048 48.4276 14.7431 49.3325C13.3298 49.8321 11.6143 49.5032 10.9192 48.0507C10.1565 46.4561 10.9743 44.6499 12.528 43.9371C13.2871 43.6313 14.1956 43.5975 14.9173 44.0295C15.5253 44.394 15.9431 45.1584 15.8097 45.8748C15.6657 46.6481 14.848 47.1352 14.0942 47.0765C13.7138 47.0463 13.4009 46.8721 13.1751 46.5681C13.168 46.5575 13.152 46.5184 13.1378 46.4846C13.3902 46.4259 13.6196 46.2713 13.7422 46.0188C13.9609 45.5744 13.7778 45.0393 13.3334 44.8206C12.8889 44.6037 12.3538 44.7851 12.1352 45.2295C11.9165 45.674 12.1014 46.209 12.544 46.4277C12.704 46.5059 12.8729 46.5166 13.0382 46.497C13.0951 46.6463 13.1503 46.7779 13.168 46.801C13.5591 47.3005 14.2222 47.4268 14.8213 47.2899C16.1102 46.9913 16.5919 45.6455 16.0604 44.5024C15.4933 43.2846 14.0302 42.8545 12.7876 43.1069C11.5521 43.3576 10.4676 44.2748 9.98943 45.4375C9.02945 47.7716 10.5885 50.4027 13.1005 50.6392C15.8684 50.8987 17.7386 48.8774 18.7608 46.5326C19.7599 44.2411 20.1439 41.7558 20.9438 39.3986C21.5145 37.7168 22.3607 36.0724 23.2851 34.5577C24.1793 33.0893 25.2246 31.7258 26.3695 30.4459C26.8939 29.8521 27.4255 29.2655 27.9392 28.6628C28.4228 28.2415 28.8992 27.813 29.381 27.3864C30.6609 26.2397 32.0245 25.1962 33.4929 24.302C35.0075 23.3794 36.6519 22.5314 38.3337 21.9625C40.6909 21.1625 43.1762 20.7785 45.4677 19.7794C47.8108 18.7572 49.8338 16.8871 49.5743 14.1191C49.3378 11.609 46.7086 10.0499 44.3726 11.0081C43.21 11.4863 42.2927 12.5707 42.042 13.8062C41.7896 15.0506 42.2198 16.5119 43.4375 17.079C44.5806 17.6106 45.9264 17.1288 46.225 15.84C46.3637 15.2426 46.2357 14.5778 45.7361 14.1867C45.713 14.1707 45.5815 14.1138 45.4322 14.0569C45.4517 13.8916 45.441 13.7227 45.3628 13.5645C45.1442 13.12 44.6091 12.9369 44.1646 13.1556C43.7202 13.3742 43.5371 13.9093 43.7558 14.3538C43.9744 14.7982 44.5095 14.9813 44.954 14.7627C45.2046 14.6382 45.3611 14.4106 45.4197 14.1582C45.4535 14.1724 45.4926 14.1885 45.5033 14.1956C45.8073 14.4214 45.9833 14.7325 46.0117 15.1147C46.0704 15.8684 45.5833 16.6862 44.81 16.8302C44.0953 16.9635 43.3291 16.5475 42.9664 15.9377C42.5344 15.216 42.5682 14.3076 42.874 13.5485C43.5869 11.9947 45.3931 11.1752 46.9877 11.9396C48.4401 12.6365 48.769 14.3502 48.2694 15.7653C47.3592 18.327 43.93 19.1039 41.6225 19.7261Z" fill="url(#paint13_linear_653_20022)"/>
<path d="M23.9953 72.0807C23.6006 74.9856 24.2512 78.6352 26.4574 80.8058C28.9782 83.2876 33.0688 82.0858 35.0421 79.4014C37.7443 75.7251 34.907 70.1875 30.356 73.3305C28.2867 74.7598 28.4894 77.725 30.6653 78.5997C32.9248 79.5063 33.2893 77.6503 32.6173 77.1632C32.4217 77.021 31.6609 76.5357 31.7106 76.2477C31.8351 75.5206 33.1542 75.5153 33.4937 76.3579C34.4235 78.4397 32.1177 80.3721 30.26 80.5463C27.8601 80.7721 26.5268 78.4397 25.885 76.4717C24.2708 71.567 27.2841 66.4168 27.4601 61.4783C27.5329 59.4232 27.229 57.3557 26.5428 55.4162C26.445 55.1406 25.3286 52.3478 25.1295 52.4438C25.0761 52.4705 25.933 54.97 26.0077 55.2385C26.477 57.1104 26.6903 59.0233 26.541 60.9539C26.2459 64.7885 24.5108 68.2924 23.9953 72.0807Z" fill="url(#paint14_linear_653_20022)"/>
<path d="M13.5899 116.001C11.9686 117.121 12.1268 119.444 13.8334 120.128C15.604 120.84 15.8885 119.385 15.364 119.003C15.2112 118.891 14.6138 118.513 14.6529 118.285C14.7507 117.716 15.7836 117.711 16.0502 118.372C16.7791 120.002 14.9729 121.517 13.517 121.654C11.6379 121.83 10.5926 120.002 10.0895 118.461C8.82552 114.618 11.1864 110.584 11.3232 106.714C11.3801 105.103 11.1419 103.484 10.605 101.964C10.5286 101.747 9.65395 99.5583 9.4975 99.6348C9.45484 99.6561 10.1268 101.613 10.1855 101.825C10.5535 103.292 10.7206 104.79 10.6033 106.303C10.3704 109.309 9.0104 112.054 8.60864 115.021C8.29931 117.297 8.80775 120.157 10.5375 121.856C12.5126 123.8 15.7178 122.859 17.2627 120.756C19.3782 117.876 17.1542 113.538 13.5899 116.001Z" fill="url(#paint15_linear_653_20022)"/>
<path d="M35.3651 56.8319C34.4887 59.3741 36.5402 61.8007 38.9704 61.1749C41.4912 60.5242 40.629 58.695 39.7419 58.7003C39.4824 58.7021 38.5206 58.7661 38.3802 58.487C38.0264 57.783 39.1606 56.9403 39.9873 57.4523C42.1063 58.6558 41.3454 61.7828 39.8539 63.109C37.9286 64.8228 35.2922 63.6726 33.5038 62.3695C28.4213 58.6683 28.8711 51.3138 24.2383 48.585C27.5111 52.9849 27.136 56.1954 29.0933 59.7865C30.5937 62.5402 33.4647 65.2725 36.7411 65.7454C40.485 66.2859 43.2476 62.6593 43.2476 59.0985C43.2458 54.2151 37.294 51.2409 35.3651 56.8319Z" fill="url(#paint16_linear_653_20022)"/>
<path d="M17.5017 91.6919C14.8138 91.731 13.2281 94.4865 14.6431 96.5575C16.1115 98.7068 17.5391 97.2739 17.2333 96.442C17.1444 96.1984 16.7551 95.3149 16.972 95.0873C17.5142 94.5149 18.691 95.2953 18.4919 96.2464C18.0795 98.6482 14.8814 98.9948 13.1267 98.0455C10.8601 96.8189 11.0468 93.9478 11.6637 91.8216C13.4165 85.7844 20.4848 83.7063 21.4785 78.4229C18.4528 82.9952 15.3062 83.7365 12.5952 86.796C10.517 89.1426 8.92238 92.7727 9.59259 96.0135C10.357 99.7183 14.7071 101.084 18.0546 99.873C22.643 98.2144 23.4163 91.6065 17.5017 91.6919Z" fill="url(#paint17_linear_653_20022)"/>
<path d="M23.9891 78.1297C23.6051 76.9422 23.4505 75.7102 23.4647 74.4658C23.47 74.2863 23.6318 72.5903 23.5944 72.5814C23.4558 72.5512 23.1749 74.4711 23.1554 74.6578C23.0167 75.9769 23.1376 77.3191 23.4931 78.5973C24.3464 81.6674 27.0113 84.4443 26.7357 87.7633C26.629 89.0948 26.1437 90.757 24.606 90.9774C23.4149 91.1481 21.6781 90.2824 21.9483 88.8371C22.0354 88.2575 22.8638 88.062 23.0505 88.4993C23.1251 88.6735 22.7198 89.0913 22.6185 89.2104C22.2718 89.6175 22.7785 90.7268 24.0602 89.8166C25.294 88.9419 24.974 87.0504 23.4611 86.4655C20.1332 85.1784 19.1874 89.0788 21.4363 90.9774C23.0771 92.364 25.8237 92.501 27.0308 90.5668C28.0886 88.8726 27.9463 86.4869 27.2619 84.7251C26.3695 82.4283 24.7535 80.4923 23.9891 78.1297Z" fill="url(#paint18_linear_653_20022)"/>
<path d="M22.2972 43.8024C22.2598 41.3135 22.6865 38.8762 23.4385 36.5118C23.554 36.1741 24.8553 33.0346 24.7878 32.9973C24.5389 32.8568 22.8856 36.3536 22.738 36.6985C21.7034 39.134 21.147 41.7597 21.0776 44.4032C20.9105 50.7533 24.3664 57.6011 21.9043 63.7663C20.9247 66.2409 19.0279 69.1262 15.9666 68.6462C13.5969 68.2747 10.7934 65.6099 12.1516 63.0144C12.6547 61.9602 14.3489 62.0739 14.4484 63.0161C14.4876 63.3912 13.4725 63.9512 13.2111 64.1184C12.3116 64.6908 12.6316 67.0996 15.6022 66.1165C18.4661 65.169 18.9603 61.3806 16.42 59.3807C10.8308 54.9843 6.74907 61.8642 9.92411 66.7974C12.2405 70.3973 17.3942 72.2657 20.827 69.2827C23.8313 66.673 24.9549 62.0419 24.6811 58.2838C24.3202 53.3826 22.37 48.7498 22.2972 43.8024Z" fill="url(#paint19_linear_653_20022)"/>
<path d="M37.306 86.5384C36.1735 85.7633 31.9123 85.4557 29.8555 84.0566C30.2483 86.2184 32.3159 88.2841 33.6545 89.1694C34.7425 89.8894 36.0598 90.3961 37.0837 89.7845C38.6784 88.8263 38.2979 87.2193 37.306 86.5384Z" fill="url(#paint20_linear_653_20022)"/>
<path d="M28.8531 84.9668C29.3206 86.8885 27.9784 89.836 28.2416 90.8955C28.4709 91.8253 29.5749 92.1737 30.3517 91.7577C31.2459 91.2813 31.797 90.22 31.5677 89.212C31.2886 87.9712 30.3695 86.405 28.8531 84.9668Z" fill="url(#paint21_linear_653_20022)"/>
<path d="M35.4899 84.8582C36.5637 84.8439 37.2819 84.1311 37.2694 83.2422C37.2588 82.4689 36.3592 81.5711 35.3584 81.5693C34.2188 81.5658 32.1247 83.3773 30.0625 83.3773C32.0482 84.6999 34.1691 84.8759 35.4899 84.8582Z" fill="url(#paint22_linear_653_20022)"/>
<path d="M11.6705 79.9232C12.4919 80.0387 13.331 80.1667 14.1452 80.0085C14.9594 79.8503 15.8393 79.3596 16.0153 78.5489C16.0509 78.3854 16.0687 78.2272 16.0704 78.0761C15.7522 78.069 15.4358 78.0548 15.1229 78.0405C13.5656 77.9694 10.195 77.9499 8.47417 78.437C9.32215 77.8539 11.5799 77.4361 12.3301 77.3863C13.5514 77.3028 14.7745 77.4059 15.9976 77.4343C15.9176 77.1037 15.7878 76.8512 15.7007 76.7197C15.3469 76.1863 14.8189 75.7881 14.2554 75.4823C13.4767 75.0592 12.6074 74.7872 11.7221 74.7695C10.8368 74.7517 9.93548 74.9952 9.2226 75.5197C8.51329 76.0405 8.02263 76.8015 7.61198 77.5801C7.20132 78.3588 6.85288 79.1729 6.35156 79.8965C7.09821 79.5658 7.94441 79.5676 8.75862 79.6156C9.7346 79.6725 10.7052 79.788 11.6705 79.9232Z" fill="url(#paint23_linear_653_20022)"/>
<path d="M19.7688 77.5391C21.063 76.9827 22.0105 75.9018 22.5847 74.6343C22.8674 74.0086 23.0843 73.3561 23.2407 72.6877C23.2709 72.5597 23.6052 70.9811 23.5234 70.9473H23.5216C23.4896 70.9419 23.1287 72.2859 23.0932 72.3979C22.6807 73.6957 22.1083 75.0148 21.1234 75.9836C20.0266 77.0627 18.5475 77.3916 17.056 77.436C16.704 77.4467 16.352 77.4449 16 77.436C16.0462 77.6262 16.0764 77.8432 16.0711 78.0778C17.328 78.1063 18.6044 78.0405 19.7688 77.5391Z" fill="url(#paint24_linear_653_20022)"/>
<path d="M32.7015 13.7905C31.8784 15.378 31.2206 18.6828 30.9789 20.2241C30.9309 20.5335 30.8793 20.8464 30.8242 21.1592C30.9718 21.1877 31.1318 21.2019 31.2989 21.2001C32.1273 21.1894 32.7851 20.4268 33.1033 19.6606C33.4215 18.8944 33.4642 18.0464 33.5157 17.2198C33.5779 16.2456 33.6579 15.2714 33.7966 14.306C33.9121 13.499 34.081 12.6688 34.5539 12.0039C33.745 12.3488 32.8775 12.5265 32.0331 12.7736C31.1886 13.0207 30.3442 13.3496 29.6918 13.9398C29.034 14.5336 28.6145 15.3674 28.4545 16.2385C28.2945 17.1095 28.3852 18.0162 28.6447 18.8642C28.8314 19.4757 29.114 20.0748 29.5673 20.5281C29.6793 20.6401 29.8998 20.8179 30.2091 20.9637C30.426 19.7601 30.57 18.5406 30.8971 17.362C31.098 16.6313 31.9584 14.5051 32.7015 13.7905Z" fill="url(#paint25_linear_653_20022)"/>
<path d="M12.765 33.7757C13.4778 33.0326 15.6058 32.174 16.3311 31.9731C17.5115 31.646 18.7293 31.5002 19.9346 31.2833C19.7888 30.9758 19.611 30.7535 19.499 30.6415C19.0457 30.19 18.4484 29.9074 17.8368 29.7189C16.9906 29.4594 16.084 29.3687 15.2111 29.5287C14.3383 29.6887 13.5063 30.1082 12.9125 30.766C12.3223 31.4184 11.9934 32.2629 11.7463 33.1073C11.4992 33.9517 11.3214 34.821 10.9766 35.6281C11.6414 35.1552 12.4716 34.9863 13.2787 34.8708C14.2458 34.7321 15.2182 34.6503 16.1924 34.5899C17.0209 34.5383 17.8671 34.4957 18.6333 34.1775C19.3995 33.8575 20.1621 33.2032 20.1728 32.373C20.1746 32.2059 20.1604 32.0459 20.1319 31.8984C19.819 31.9553 19.5061 32.0051 19.1968 32.0531C17.6591 32.2948 14.3525 32.9526 12.765 33.7757Z" fill="url(#paint26_linear_653_20022)"/>
<path d="M19.9336 31.2813C20.0171 31.4591 20.09 31.6653 20.1327 31.8964C21.3718 31.6742 22.5006 31.1675 23.6491 30.6271C24.561 30.1969 25.9281 29.0556 27.0428 27.7596C28.1894 26.7107 29.1636 25.5019 29.5547 24.6735C30.0951 23.5251 30.6 22.3962 30.824 21.1571C30.5929 21.1144 30.3867 21.0416 30.2089 20.958C30.1467 21.3047 30.0898 21.6531 29.9974 21.9927C29.3147 24.4761 28.0898 26.2574 26.0703 28.2272C24.5148 29.612 22.9717 30.5187 20.97 31.068C20.6287 31.164 20.2803 31.2191 19.9336 31.2813Z" fill="url(#paint27_linear_653_20022)"/>
<path d="M27.2423 47.8733C27.861 48.8511 28.796 49.5782 29.6991 50.3C30.7622 51.1497 31.8093 52.0225 32.8013 52.9541C33.6297 53.7327 34.4439 54.5896 34.8243 55.6616C35.0768 54.4616 35.5692 53.3274 35.9639 52.1648C36.3585 51.0039 36.659 49.7755 36.5079 48.5577C36.355 47.3311 35.7399 46.1845 34.8723 45.3045C34.0048 44.4245 32.8973 43.8023 31.7222 43.4201C30.8724 43.1445 29.964 42.9881 29.084 43.141C28.8672 43.1783 28.4867 43.2886 28.0743 43.525C29.276 44.7356 30.5524 45.8769 31.6369 47.196C32.3035 48.0067 34.0457 50.6928 34.2661 52.1114C33.1124 49.9017 29.8627 46.5027 28.2983 44.9934C27.9836 44.6894 27.6672 44.3818 27.3543 44.0672C27.205 44.2147 27.0592 44.3836 26.9276 44.5756C26.277 45.5356 26.6236 46.8955 27.2423 47.8733Z" fill="url(#paint28_linear_653_20022)"/>
<path d="M27.059 42.4566C25.6724 40.9029 24.5897 39.0878 24.6324 36.9421C24.6715 35.0133 25.459 33.1697 26.3799 31.5076C26.4599 31.3636 27.4768 29.7103 27.4412 29.6836C27.3292 29.6338 26.0475 31.4844 25.9461 31.6373C25.4199 32.4373 24.9648 33.28 24.6022 34.1671C23.868 35.9644 23.6795 37.959 24.3551 39.8042C24.9631 41.4664 26.1186 42.8229 27.3559 44.0691C27.5906 43.8397 27.8377 43.662 28.0741 43.5269C27.7257 43.1784 27.3861 42.8246 27.059 42.4566Z" fill="url(#paint29_linear_653_20022)"/>
<path d="M126.052 6.20019C112.3 5.91042 98.5453 5.73622 84.7927 5.59756C84.7607 5.59044 84.7234 5.60642 84.7287 5.56376C84.7127 5.4002 84.6274 5.22597 84.574 5.07842C84.0407 3.64734 83.111 2.41003 81.8986 1.45361C81.2888 0.978953 80.5973 0.577188 79.8222 0.312305C79.056 0.0492002 78.1742 -0.0609882 77.344 0.0332318C75.6712 0.212783 74.1832 1.05539 73.065 2.1967C72.5032 2.77091 72.025 3.43047 71.657 4.16112C71.4615 4.58422 71.3352 5.01088 71.1592 5.43399C71.1557 5.43221 71.1521 5.43218 71.1486 5.4304C66.2651 5.11397 61.355 5.07664 56.4627 5.07131C51.9384 5.06598 47.046 4.71576 42.5768 5.56907C41.8675 5.73085 41.2577 6.02597 40.6835 6.36908C39.7218 6.95395 38.7422 7.75217 38.2285 8.76192C38.2213 8.75659 38.1751 8.61968 38.1822 8.63568C37.7431 7.96903 37.2756 7.31661 36.5929 6.86684C36.0827 6.5024 35.4996 6.24815 34.9023 6.08816C34.2979 5.94238 33.6863 5.9175 33.0961 5.96549C32.513 6.04371 31.9424 6.16643 31.4251 6.38687C30.3744 6.79575 29.4873 7.43746 28.7354 8.15745C27.2296 9.60986 26.259 11.3876 25.619 13.1689C25.443 13.6844 25.2741 14.1964 25.1408 14.7244C25.1354 14.7457 25.1425 14.7173 25.1408 14.7244C25.0679 15.0871 25.0181 15.4551 24.9932 15.8231C24.9808 15.8124 24.1648 14.5733 23.3115 13.9405C21.2386 12.4045 18.636 11.9547 16.2254 11.2828C14.7072 10.9361 11.3278 7.66684 13.445 5.55133C15.5605 3.43405 15.5765 8.36191 17.2903 8.6748C20.4422 9.249 19.6191 5.1531 18.9951 4.33711C18.6503 3.8269 18.1898 3.32202 17.5729 2.94158C16.965 2.55759 16.1988 2.29628 15.3668 2.30694C13.6904 2.3105 11.9393 3.48911 11.1002 5.31485C10.3624 6.95214 10.4833 8.47748 11.3704 10.0099C11.7011 10.4863 12.11 10.9165 12.5722 11.2863C13.509 12.0152 14.6201 12.4933 15.7579 12.8542C17.9605 13.56 20.572 13.688 22.4795 15.1102C24.323 16.4773 24.9434 19.1866 25.7025 21.2203C25.7488 21.0923 25.8056 20.9607 25.8376 20.8274C26.2696 17.5581 26.5665 14.3315 28.3905 11.4907C28.8545 10.7743 29.3967 10.1023 30.0242 9.53165C30.6482 8.96278 31.3611 8.48457 32.1237 8.21436C32.5024 8.05969 32.8935 7.9975 33.2775 7.9495C33.6615 7.93172 34.0401 7.95479 34.3974 8.05079C34.7494 8.15923 35.0854 8.31034 35.3841 8.53434C37.3236 9.80542 37.5227 13.7538 37.9831 15.5493C38.792 12.8596 39.1991 9.83208 41.8319 8.28901C42.2408 8.05257 42.6888 7.84992 43.1084 7.76992C52.8023 6.41707 63.4101 7.39128 73.1503 7.96371C73.2765 7.03396 73.3903 6.08109 73.7974 5.22777C74.0463 4.72467 74.3805 4.25536 74.7716 3.85004C75.552 3.03406 76.576 2.47224 77.5947 2.35669C78.1049 2.29625 78.5866 2.34784 79.088 2.50784C79.5822 2.66961 80.0639 2.93623 80.5013 3.26867C81.3759 3.93532 82.0994 4.8669 82.4852 5.8731C82.5865 6.1451 82.7839 7.73079 83.0025 7.80546C97.3986 7.75924 111.654 7.55127 126.052 7.21883C126.002 6.9895 126.008 6.40463 126.052 6.20019Z" fill="url(#paint30_linear_653_20022)"/>
<path d="M155.998 4.21189C154.849 3.67146 153.571 4.25811 153.571 5.28386C153.571 5.73185 153.921 6.0643 154.316 6.29719H138.277C138.322 6.43585 138.354 6.58164 138.354 6.7363C138.354 6.89097 138.324 7.03676 138.277 7.17542H154.241C153.854 7.39942 153.518 7.71051 153.518 8.12473C153.518 9.10604 154.869 9.85265 156 9.24644C158.122 8.10869 160.001 6.73099 160.001 6.73099C160.001 6.73099 158.145 5.22165 155.998 4.21189Z" fill="url(#paint31_linear_653_20022)"/>
<path d="M5.56658 84.722C5.60925 84.7167 5.59147 84.754 5.59859 84.786C5.73725 98.5404 5.91146 112.295 6.20123 126.046C6.40567 126.001 6.99233 125.996 7.2181 126.047C7.55054 111.649 7.75853 97.3937 7.80475 82.9976C7.73009 82.7789 6.14613 82.5816 5.87236 82.4803C4.86793 82.0946 3.93462 81.371 3.26797 80.4964C2.93553 80.0573 2.66887 79.5773 2.5071 79.083C2.3471 78.5817 2.29555 78.1 2.35599 77.5898C2.47154 76.5711 3.03331 75.5489 3.84929 74.7667C4.25639 74.3756 4.72572 74.0414 5.22704 73.7925C6.08035 73.3854 7.03322 73.2716 7.96297 73.1454C7.39232 63.4052 6.41634 52.7975 7.7692 43.1035C7.84919 42.6839 8.05186 42.2359 8.2883 41.827C9.83315 39.1942 12.8589 38.7871 15.5486 37.9783C13.7531 37.5161 9.8047 37.3187 8.53362 35.3792C8.30963 35.0805 8.15852 34.7428 8.05008 34.3926C7.95586 34.0352 7.93275 33.6566 7.94875 33.2726C7.99853 32.8886 8.05897 32.4975 8.21363 32.1188C8.48385 31.3544 8.96206 30.6433 9.53094 30.0193C10.1016 29.3918 10.7718 28.8496 11.49 28.3856C14.3308 26.5616 17.5574 26.263 20.8267 25.8328C20.9582 25.8008 21.0916 25.7438 21.2196 25.6976C19.1858 24.9385 16.4766 24.3181 15.1095 22.4746C13.6873 20.5671 13.5593 17.9556 12.8535 15.753C12.4926 14.6134 12.0144 13.5042 11.2856 12.5673C10.914 12.1051 10.4856 11.6962 10.0091 11.3655C8.47674 10.4785 6.95322 10.3576 5.31592 11.0953C3.49019 11.9344 2.31155 13.6872 2.30799 15.3619C2.29733 16.1939 2.55865 16.9601 2.94264 17.568C3.32308 18.1849 3.82796 18.6472 4.33817 18.9903C5.15415 19.6125 9.25005 20.4373 8.67585 17.2854C8.36296 15.5716 3.43686 15.5574 5.55236 13.4402C7.66965 11.3229 10.9371 14.7023 11.2838 16.2205C11.9558 18.6311 12.4055 21.2355 13.9415 23.3066C14.5744 24.1599 15.8135 24.9759 15.8223 24.9883C15.4526 25.0132 15.0864 25.063 14.7237 25.1359C14.7166 25.1377 14.7433 25.1288 14.7237 25.1359C14.1957 25.2692 13.682 25.4381 13.1682 25.6141C11.3869 26.2541 9.60916 27.223 8.15675 28.7305C7.43676 29.4825 6.795 30.3677 6.38612 31.4201C6.16568 31.9357 6.04302 32.5081 5.96479 33.0912C5.9168 33.6814 5.93991 34.293 6.08746 34.8974C6.24568 35.4948 6.50167 36.0796 6.86611 36.588C7.31587 37.2707 7.96831 37.7383 8.63496 38.1774C8.61896 38.1703 8.75762 38.2165 8.76118 38.2236C7.75142 38.7391 6.95322 39.7186 6.36834 40.6786C6.02524 41.2528 5.73013 41.8626 5.56836 42.5719C4.71327 47.0411 5.06526 51.9317 5.0706 56.4578C5.07593 61.3501 5.11148 66.2602 5.4297 71.1437C5.4297 71.1472 5.43147 71.1508 5.43325 71.1544C5.00837 71.3303 4.58172 71.4583 4.16039 71.6521C3.42974 72.0219 2.7702 72.5001 2.196 73.0601C1.05469 74.1783 0.210266 75.6645 0.0324921 77.3373C-0.0599502 78.1675 0.0484876 79.0493 0.311593 79.8155C0.576475 80.5906 0.978248 81.2821 1.4529 81.8919C2.40933 83.1061 3.6484 84.0341 5.0777 84.5674C5.22881 84.6207 5.40303 84.7078 5.56658 84.722Z" fill="url(#paint32_linear_653_20022)"/>
<path d="M8.12491 153.511C7.7107 153.511 7.3996 153.847 7.1756 154.235V138.271C7.03694 138.315 6.89116 138.347 6.7365 138.347C6.58184 138.347 6.43606 138.317 6.29739 138.271V154.309C6.06451 153.915 5.73208 153.564 5.28409 153.564C4.25833 153.564 3.67346 154.843 4.21211 155.991C5.22186 158.139 6.72938 159.993 6.72938 159.993C6.72938 159.993 8.10891 158.115 9.24666 155.991C9.85287 154.862 9.10622 153.511 8.12491 153.511Z" fill="url(#paint33_linear_653_20022)"/>
<path d="M127.951 5.31055C127.163 5.31055 126.523 5.94877 126.523 6.73809C126.523 7.52562 127.162 8.16562 127.951 8.16562C128.74 8.16562 129.378 7.5274 129.378 6.73809C129.378 5.94877 128.738 5.31055 127.951 5.31055Z" fill="url(#paint34_linear_653_20022)"/>
<path d="M136.338 5.31055C135.55 5.31055 134.91 5.94877 134.91 6.73809C134.91 7.52562 135.548 8.16562 136.338 8.16562C137.125 8.16562 137.765 7.5274 137.765 6.73809C137.765 5.94877 137.125 5.31055 136.338 5.31055Z" fill="url(#paint35_linear_653_20022)"/>
<path d="M132.133 4.44336C130.866 4.44336 129.84 5.47092 129.84 6.73844C129.84 8.00597 130.867 9.03174 132.133 9.03174C133.399 9.03174 134.426 8.00419 134.426 6.73844C134.428 5.47092 133.401 4.44336 132.133 4.44336Z" fill="url(#paint36_linear_653_20022)"/>
<path d="M8.16755 127.95C8.16755 127.162 7.52756 126.522 6.74002 126.522C5.95071 126.522 5.3125 127.161 5.3125 127.95C5.3125 128.737 5.95249 129.377 6.74002 129.377C7.52934 129.377 8.16755 128.737 8.16755 127.95Z" fill="url(#paint37_linear_653_20022)"/>
<path d="M5.3125 136.335C5.3125 137.122 5.95249 137.762 6.74002 137.762C7.52756 137.762 8.16755 137.124 8.16755 136.335C8.16755 135.545 7.52756 134.907 6.74002 134.907C5.95249 134.907 5.3125 135.547 5.3125 136.335Z" fill="url(#paint38_linear_653_20022)"/>
<path d="M9.03365 132.129C9.03365 130.862 8.00612 129.836 6.74037 129.836C5.47462 129.836 4.44531 130.863 4.44531 132.129C4.44531 133.397 5.47284 134.423 6.74037 134.423C8.0079 134.423 9.03365 133.397 9.03365 132.129Z" fill="url(#paint39_linear_653_20022)"/>
<path d="M19.4461 21.5845C20.907 21.5845 22.0913 20.4002 22.0913 18.9392C22.0913 17.4783 20.907 16.2939 19.4461 16.2939C17.9851 16.2939 16.8008 17.4783 16.8008 18.9392C16.8008 20.4002 17.9851 21.5845 19.4461 21.5845Z" fill="url(#paint40_linear_653_20022)"/>
<path d="M26.6895 24.9102C26.6895 23.9751 25.9322 23.2178 24.9971 23.2178C24.062 23.2178 23.3047 23.9751 23.3047 24.9102C23.3047 25.8453 24.062 26.6026 24.9971 26.6026C25.9322 26.6026 26.6895 25.8453 26.6895 24.9102Z" fill="url(#paint41_linear_653_20022)"/>
<defs>
<linearGradient id="paint0_linear_653_20022" x1="83.403" y1="28.6427" x2="89.6214" y2="29.389" gradientUnits="userSpaceOnUse">
<stop stop-color="#E3B450"/>
<stop offset="0.427885" stop-color="#F6DC7F"/>
<stop offset="1" stop-color="#CAA043"/>
</linearGradient>
<linearGradient id="paint1_linear_653_20022" x1="84.3799" y1="28.3122" x2="90.9473" y2="30.5396" gradientUnits="userSpaceOnUse">
<stop stop-color="#E3B450"/>
<stop offset="0.427885" stop-color="#F6DC7F"/>
<stop offset="1" stop-color="#CAA043"/>
</linearGradient>
<linearGradient id="paint2_linear_653_20022" x1="80.7274" y1="29.1491" x2="84.1668" y2="29.4102" gradientUnits="userSpaceOnUse">
<stop stop-color="#E3B450"/>
<stop offset="0.427885" stop-color="#F6DC7F"/>
<stop offset="1" stop-color="#CAA043"/>
</linearGradient>
<linearGradient id="paint3_linear_653_20022" x1="74.0629" y1="4.76027" x2="79.6069" y2="5.26452" gradientUnits="userSpaceOnUse">
<stop stop-color="#E3B450"/>
<stop offset="0.427885" stop-color="#F6DC7F"/>
<stop offset="1" stop-color="#CAA043"/>
</linearGradient>
<linearGradient id="paint4_linear_653_20022" x1="70.3683" y1="14.9942" x2="77.6888" y2="16.1463" gradientUnits="userSpaceOnUse">
<stop stop-color="#E3B450"/>
<stop offset="0.427885" stop-color="#F6DC7F"/>
<stop offset="1" stop-color="#CAA043"/>
</linearGradient>
<linearGradient id="paint5_linear_653_20022" x1="42.8776" y1="24.9215" x2="55.5483" y2="27.5803" gradientUnits="userSpaceOnUse">
<stop stop-color="#E3B450"/>
<stop offset="0.427885" stop-color="#F6DC7F"/>
<stop offset="1" stop-color="#CAA043"/>
</linearGradient>
<linearGradient id="paint6_linear_653_20022" x1="29.6039" y1="23.8494" x2="40.9398" y2="30.4044" gradientUnits="userSpaceOnUse">
<stop stop-color="#E3B450"/>
<stop offset="0.427885" stop-color="#F6DC7F"/>
<stop offset="1" stop-color="#CAA043"/>
</linearGradient>
<linearGradient id="paint7_linear_653_20022" x1="53.4218" y1="21.627" x2="80.2713" y2="32.4951" gradientUnits="userSpaceOnUse">
<stop stop-color="#E3B450"/>
<stop offset="0.427885" stop-color="#F6DC7F"/>
<stop offset="1" stop-color="#CAA043"/>
</linearGradient>
<linearGradient id="paint8_linear_653_20022" x1="98.0279" y1="6.13422" x2="120.138" y2="15.0837" gradientUnits="userSpaceOnUse">
<stop stop-color="#E3B450"/>
<stop offset="0.427885" stop-color="#F6DC7F"/>
<stop offset="1" stop-color="#CAA043"/>
</linearGradient>
<linearGradient id="paint9_linear_653_20022" x1="48.6976" y1="20.1528" x2="66.3923" y2="22.8167" gradientUnits="userSpaceOnUse">
<stop stop-color="#E3B450"/>
<stop offset="0.427885" stop-color="#F6DC7F"/>
<stop offset="1" stop-color="#CAA043"/>
</linearGradient>
<linearGradient id="paint10_linear_653_20022" x1="78.1958" y1="5.96762" x2="99.1423" y2="11.494" gradientUnits="userSpaceOnUse">
<stop stop-color="#E3B450"/>
<stop offset="0.427885" stop-color="#F6DC7F"/>
<stop offset="1" stop-color="#CAA043"/>
</linearGradient>
<linearGradient id="paint11_linear_653_20022" x1="72.8518" y1="19.1959" x2="90.1547" y2="26.5643" gradientUnits="userSpaceOnUse">
<stop stop-color="#E3B450"/>
<stop offset="0.427885" stop-color="#F6DC7F"/>
<stop offset="1" stop-color="#CAA043"/>
</linearGradient>
<linearGradient id="paint12_linear_653_20022" x1="34.5332" y1="5.53161" x2="68.9344" y2="19.0522" gradientUnits="userSpaceOnUse">
<stop stop-color="#E3B450"/>
<stop offset="0.427885" stop-color="#F6DC7F"/>
<stop offset="1" stop-color="#CAA043"/>
</linearGradient>
<linearGradient id="paint13_linear_653_20022" x1="12.4611" y1="-0.0184189" x2="53.2803" y2="6.76079" gradientUnits="userSpaceOnUse">
<stop stop-color="#E3B450"/>
<stop offset="0.427885" stop-color="#F6DC7F"/>
<stop offset="1" stop-color="#CAA043"/>
</linearGradient>
<linearGradient id="paint14_linear_653_20022" x1="24.7307" y1="44.449" x2="37.5068" y2="45.3216" gradientUnits="userSpaceOnUse">
<stop stop-color="#E3B450"/>
<stop offset="0.427885" stop-color="#F6DC7F"/>
<stop offset="1" stop-color="#CAA043"/>
</linearGradient>
<linearGradient id="paint15_linear_653_20022" x1="9.18454" y1="93.3709" x2="19.1924" y2="94.0543" gradientUnits="userSpaceOnUse">
<stop stop-color="#E3B450"/>
<stop offset="0.427885" stop-color="#F6DC7F"/>
<stop offset="1" stop-color="#CAA043"/>
</linearGradient>
<linearGradient id="paint16_linear_653_20022" x1="25.5524" y1="43.9554" x2="44.8875" y2="47.5055" gradientUnits="userSpaceOnUse">
<stop stop-color="#E3B450"/>
<stop offset="0.427885" stop-color="#F6DC7F"/>
<stop offset="1" stop-color="#CAA043"/>
</linearGradient>
<linearGradient id="paint17_linear_653_20022" x1="10.2864" y1="72.5385" x2="23.0861" y2="73.7329" gradientUnits="userSpaceOnUse">
<stop stop-color="#E3B450"/>
<stop offset="0.427885" stop-color="#F6DC7F"/>
<stop offset="1" stop-color="#CAA043"/>
</linearGradient>
<linearGradient id="paint18_linear_653_20022" x1="20.7356" y1="67.3533" x2="28.6816" y2="67.8691" gradientUnits="userSpaceOnUse">
<stop stop-color="#E3B450"/>
<stop offset="0.427885" stop-color="#F6DC7F"/>
<stop offset="1" stop-color="#CAA043"/>
</linearGradient>
<linearGradient id="paint19_linear_653_20022" x1="9.91709" y1="22.8347" x2="26.6338" y2="24.0104" gradientUnits="userSpaceOnUse">
<stop stop-color="#E3B450"/>
<stop offset="0.427885" stop-color="#F6DC7F"/>
<stop offset="1" stop-color="#CAA043"/>
</linearGradient>
<linearGradient id="paint20_linear_653_20022" x1="30.43" y1="82.4427" x2="38.7277" y2="84.3532" gradientUnits="userSpaceOnUse">
<stop stop-color="#E3B450"/>
<stop offset="0.427885" stop-color="#F6DC7F"/>
<stop offset="1" stop-color="#CAA043"/>
</linearGradient>
<linearGradient id="paint21_linear_653_20022" x1="28.443" y1="83.0938" x2="32.0075" y2="83.3842" gradientUnits="userSpaceOnUse">
<stop stop-color="#E3B450"/>
<stop offset="0.427885" stop-color="#F6DC7F"/>
<stop offset="1" stop-color="#CAA043"/>
</linearGradient>
<linearGradient id="paint22_linear_653_20022" x1="30.5607" y1="80.6845" x2="37.2509" y2="83.1213" gradientUnits="userSpaceOnUse">
<stop stop-color="#E3B450"/>
<stop offset="0.427885" stop-color="#F6DC7F"/>
<stop offset="1" stop-color="#CAA043"/>
</linearGradient>
<linearGradient id="paint23_linear_653_20022" x1="7.02345" y1="73.3395" x2="16.3771" y2="76.1839" gradientUnits="userSpaceOnUse">
<stop stop-color="#E3B450"/>
<stop offset="0.427885" stop-color="#F6DC7F"/>
<stop offset="1" stop-color="#CAA043"/>
</linearGradient>
<linearGradient id="paint24_linear_653_20022" x1="16.521" y1="69.0281" x2="24.2078" y2="70.3778" gradientUnits="userSpaceOnUse">
<stop stop-color="#E3B450"/>
<stop offset="0.427885" stop-color="#F6DC7F"/>
<stop offset="1" stop-color="#CAA043"/>
</linearGradient>
<linearGradient id="paint25_linear_653_20022" x1="28.8022" y1="9.53067" x2="35.2187" y2="10.2475" gradientUnits="userSpaceOnUse">
<stop stop-color="#E3B450"/>
<stop offset="0.427885" stop-color="#F6DC7F"/>
<stop offset="1" stop-color="#CAA043"/>
</linearGradient>
<linearGradient id="paint26_linear_653_20022" x1="11.6123" y1="27.7875" x2="20.7237" y2="30.0422" gradientUnits="userSpaceOnUse">
<stop stop-color="#E3B450"/>
<stop offset="0.427885" stop-color="#F6DC7F"/>
<stop offset="1" stop-color="#CAA043"/>
</linearGradient>
<linearGradient id="paint27_linear_653_20022" x1="20.6865" y1="18.0163" x2="31.8315" y2="19.8612" gradientUnits="userSpaceOnUse">
<stop stop-color="#E3B450"/>
<stop offset="0.427885" stop-color="#F6DC7F"/>
<stop offset="1" stop-color="#CAA043"/>
</linearGradient>
<linearGradient id="paint28_linear_653_20022" x1="27.2673" y1="39.6977" x2="37.5707" y2="41.0553" gradientUnits="userSpaceOnUse">
<stop stop-color="#E3B450"/>
<stop offset="0.427885" stop-color="#F6DC7F"/>
<stop offset="1" stop-color="#CAA043"/>
</linearGradient>
<linearGradient id="paint29_linear_653_20022" x1="24.2235" y1="25.8136" x2="28.5629" y2="26.021" gradientUnits="userSpaceOnUse">
<stop stop-color="#E3B450"/>
<stop offset="0.427885" stop-color="#F6DC7F"/>
<stop offset="1" stop-color="#CAA043"/>
</linearGradient>
<linearGradient id="paint30_linear_653_20022" x1="18.5975" y1="-5.70692" x2="85.3559" y2="54.674" gradientUnits="userSpaceOnUse">
<stop stop-color="#E3B450"/>
<stop offset="0.427885" stop-color="#F6DC7F"/>
<stop offset="1" stop-color="#CAA043"/>
</linearGradient>
<linearGradient id="paint31_linear_653_20022" x1="139.779" y1="2.53896" x2="155.664" y2="13.0509" gradientUnits="userSpaceOnUse">
<stop stop-color="#E3B450"/>
<stop offset="0.427885" stop-color="#F6DC7F"/>
<stop offset="1" stop-color="#CAA043"/>
</linearGradient>
<linearGradient id="paint32_linear_653_20022" x1="1.46696" y1="-20.4324" x2="23.7569" y2="-19.7511" gradientUnits="userSpaceOnUse">
<stop stop-color="#E3B450"/>
<stop offset="0.427885" stop-color="#F6DC7F"/>
<stop offset="1" stop-color="#CAA043"/>
</linearGradient>
<linearGradient id="paint33_linear_653_20022" x1="4.38509" y1="132.429" x2="10.113" y2="132.668" gradientUnits="userSpaceOnUse">
<stop stop-color="#E3B450"/>
<stop offset="0.427885" stop-color="#F6DC7F"/>
<stop offset="1" stop-color="#CAA043"/>
</linearGradient>
<linearGradient id="paint34_linear_653_20022" x1="126.721" y1="4.54271" x2="129.642" y2="5.02839" gradientUnits="userSpaceOnUse">
<stop stop-color="#E3B450"/>
<stop offset="0.427885" stop-color="#F6DC7F"/>
<stop offset="1" stop-color="#CAA043"/>
</linearGradient>
<linearGradient id="paint35_linear_653_20022" x1="135.108" y1="4.54271" x2="138.029" y2="5.02839" gradientUnits="userSpaceOnUse">
<stop stop-color="#E3B450"/>
<stop offset="0.427885" stop-color="#F6DC7F"/>
<stop offset="1" stop-color="#CAA043"/>
</linearGradient>
<linearGradient id="paint36_linear_653_20022" x1="130.157" y1="3.20938" x2="134.85" y2="3.98932" gradientUnits="userSpaceOnUse">
<stop stop-color="#E3B450"/>
<stop offset="0.427885" stop-color="#F6DC7F"/>
<stop offset="1" stop-color="#CAA043"/>
</linearGradient>
<linearGradient id="paint37_linear_653_20022" x1="5.50988" y1="125.755" x2="8.43099" y2="126.24" gradientUnits="userSpaceOnUse">
<stop stop-color="#E3B450"/>
<stop offset="0.427885" stop-color="#F6DC7F"/>
<stop offset="1" stop-color="#CAA043"/>
</linearGradient>
<linearGradient id="paint38_linear_653_20022" x1="5.50988" y1="134.139" x2="8.43099" y2="134.625" gradientUnits="userSpaceOnUse">
<stop stop-color="#E3B450"/>
<stop offset="0.427885" stop-color="#F6DC7F"/>
<stop offset="1" stop-color="#CAA043"/>
</linearGradient>
<linearGradient id="paint39_linear_653_20022" x1="4.76252" y1="128.602" x2="9.45693" y2="129.383" gradientUnits="userSpaceOnUse">
<stop stop-color="#E3B450"/>
<stop offset="0.427885" stop-color="#F6DC7F"/>
<stop offset="1" stop-color="#CAA043"/>
</linearGradient>
<linearGradient id="paint40_linear_653_20022" x1="17.1665" y1="14.8711" x2="22.5795" y2="15.7711" gradientUnits="userSpaceOnUse">
<stop stop-color="#E3B450"/>
<stop offset="0.427885" stop-color="#F6DC7F"/>
<stop offset="1" stop-color="#CAA043"/>
</linearGradient>
<linearGradient id="paint41_linear_653_20022" x1="23.5387" y1="22.3075" x2="27.0018" y2="22.8833" gradientUnits="userSpaceOnUse">
<stop stop-color="#E3B450"/>
<stop offset="0.427885" stop-color="#F6DC7F"/>
<stop offset="1" stop-color="#CAA043"/>
</linearGradient>
</defs>
</svg>
