<svg width="191" height="314" viewBox="0 0 191 314" fill="none" xmlns="http://www.w3.org/2000/svg">
<path d="M54.7253 0.733551C46.3244 3.17288 41.2246 8.38269 40.7354 14.9689L40.5311 17.7751L38.3697 17.0003C34.2915 15.5822 26.0922 16.3073 21.5651 18.5081C17.3633 20.54 13.7744 25.3019 13.1211 29.7383C12.6319 33.0327 12.8765 33.3197 16.5057 33.1937C19.1188 33.1159 19.9736 33.2767 21.6458 34.089C24.0518 35.2657 28.1729 39.0543 30.743 42.4291C33.149 45.6029 36.3293 52.2254 37.2272 55.8843C37.9207 58.8115 38.1654 66.1345 37.5954 67.0674C37.3911 67.3971 36.8185 66.7007 35.9233 65.036C35.1894 63.6528 34.2915 62.187 33.9232 61.7795C33.5979 61.4176 33.313 60.8474 33.313 60.523C33.313 58.853 31.4366 53.0349 29.8451 49.7431C28.4579 46.8936 27.5197 45.5536 25.7669 43.9265C23.3179 41.7337 19.9736 39.6182 17.0783 38.4763C14.9169 37.6239 10.5108 36.9727 10.2258 37.4606C10.1022 37.6241 9.81721 37.7079 9.6129 37.5444C8.83868 37.0941 4.67719 39.5757 2.43514 41.8113C-1.35806 45.5963 -3.72376 49.6641 -4.62165 53.8163C-5.15125 56.1725 -5.11092 63.5348 -4.54101 65.9313C-4.29637 67.0303 -4.33669 68.0464 -4.62165 68.9417C-4.86629 69.6735 -5.19158 71.4241 -5.35557 72.8421L-5.68353 75.4075L-6.57873 73.9835C-7.068 73.2088 -8.00623 71.0152 -8.57883 69.104C-9.55737 66.0106 -9.67834 65.0781 -9.63802 60.1565C-9.63802 55.68 -9.43372 53.9368 -8.57883 50.8059C-6.21313 41.7751 -2.5409 36.6852 2.39482 35.5915C4.31158 35.1841 4.55621 34.9826 4.67719 34.0471C5.08581 30.6347 -0.134872 25.5921 -5.51955 24.1258C-10.8612 22.7426 -19.0605 24.4077 -23.9156 27.9058C-25.0151 28.6805 -25.9533 29.2507 -25.9963 29.1676C-26.077 29.0898 -26.362 28.3978 -26.6469 27.6231C-28.1174 23.8435 -31.666 20.5447 -35.8248 19.2044C-38.0695 18.4726 -46.1048 18.0628 -48.0619 18.6337C-48.9195 18.8375 -49.8147 19.7277 -51.1212 21.6389C-54.1805 26.1155 -55.8526 31.4865 -55.4037 35.1884C-55.1187 37.5875 -53.2826 41.6957 -51.9788 42.8322C-50.9599 43.7704 -50.8766 44.2982 -51.7745 44.2982C-53.1213 44.2982 -57.2398 46.858 -59.6055 49.2195C-62.4202 51.9832 -64.7052 55.2406 -65.6838 57.8005C-66.622 60.2828 -66.622 65.4851 -65.6434 68.214C-64.8692 70.4496 -62.8691 73.1772 -61.9712 73.1772C-61.6863 73.1772 -60.7077 72.3597 -59.7695 71.3867C-57.4844 68.9876 -55.0381 68.1738 -50.3067 68.214C-42.5186 68.2917 -32.6042 72.0367 -27.2195 76.9154C-24.9345 79.0303 -21.7542 82.9347 -21.7542 83.6692C-21.7542 84.4814 -28.8513 81.5977 -31.2573 79.8472C-39.169 74.0304 -45.3709 72.4442 -53.2826 74.2348C-62.0519 76.2238 -65.3155 80.7788 -64.8665 90.6219C-64.5815 98.1088 -62.8261 101.767 -56.5462 108.072C-54.6698 109.905 -52.7934 112.182 -52.3041 113.156C-51.8148 114.094 -51.0406 115.39 -50.632 116.004C-49.5297 117.548 -49.9384 117.789 -52.0191 116.899C-56.9145 114.741 -61.2776 110.835 -64.8665 105.428C-70.9851 96.1129 -72.6976 86.108 -68.864 82.1247C-67.2322 80.4547 -67.6005 79.2764 -70.0872 78.0567C-71.84 77.2043 -72.6572 77.041 -75.8375 77.041C-79.222 77.0786 -79.835 77.2035 -82.2813 78.4232C-87.7467 81.1091 -93.376 88.3879 -94.1905 93.7946C-94.3142 94.773 -94.5588 95.5433 -94.6395 95.5433C-94.7631 95.5433 -95.497 95.1359 -96.3116 94.648C-99.4112 92.7368 -104.307 92.4131 -108.14 93.8365C-111.689 95.1768 -117.522 99.6538 -118.786 101.972C-119.399 103.149 -118.622 109.25 -117.399 112.464C-115.237 118.161 -111.444 121.572 -106.1 122.553L-104.592 122.831L-105.734 125.15C-107.242 128.117 -107.979 132.719 -107.731 137.48C-107.527 140.653 -107.283 141.539 -106.019 144.139C-104.266 147.72 -101.368 150.453 -98.1074 151.673C-94.4352 153.056 -93.5399 152.642 -93.5399 149.631C-93.4996 147.071 -92.2765 144.636 -89.7468 142.197C-84.1175 136.747 -74.0014 132.841 -65.6004 132.841C-59.7265 132.884 -54.0165 134.505 -57.3204 135.197C-58.0543 135.366 -59.6055 135.934 -60.705 136.422C-62.1325 137.031 -64.0089 137.395 -66.6596 137.558C-71.3507 137.883 -76.1224 139.068 -78.9774 140.569C-81.5474 141.909 -86.4832 146.752 -88.0746 149.438C-91.1339 154.683 -91.1742 158.26 -88.1956 163.385C-86.5638 166.269 -81.6281 171.113 -78.9774 172.537C-76.1224 174.04 -71.3507 175.217 -66.6596 175.547C-64.0089 175.711 -62.1325 176.075 -60.705 176.688C-59.6028 177.176 -58.0543 177.742 -57.3204 177.903C-54.0165 178.6 -59.7265 180.221 -65.6004 180.264C-74.0041 180.264 -84.1175 176.358 -89.7468 170.908C-92.2765 168.469 -93.4996 166.03 -93.5399 163.427C-93.5399 160.459 -94.4379 160.049 -98.1074 161.432C-101.371 162.652 -104.266 165.38 -106.019 168.956C-107.283 171.564 -107.527 172.46 -107.731 175.626C-107.976 180.384 -107.242 184.98 -105.734 187.95L-104.592 190.269L-106.1 190.557C-111.444 191.53 -115.237 194.945 -117.399 200.641C-118.622 203.855 -119.396 209.956 -118.786 211.133C-117.522 213.451 -111.689 217.928 -108.14 219.269C-104.307 220.692 -99.4112 220.368 -96.3116 218.457C-95.497 217.964 -94.7604 217.562 -94.6395 217.562C-94.5588 217.562 -94.3142 218.332 -94.1905 219.311C-93.376 224.72 -87.7467 232.001 -82.2813 234.682C-79.835 235.902 -79.222 236.027 -75.8375 236.064C-72.6545 236.064 -71.84 235.901 -70.0872 235.049C-67.5978 233.829 -67.2322 232.651 -68.864 230.981C-74.6546 224.965 -67.2322 205.927 -56.2183 198.609C-53.4439 196.776 -50.425 195.352 -50.0593 195.719C-49.9384 195.84 -50.183 196.45 -50.6293 197.102C-51.0379 197.715 -51.8121 199.012 -52.3014 199.95C-52.7907 200.928 -54.6671 203.203 -56.5435 205.033C-62.8261 211.338 -64.5789 214.996 -64.8638 222.483C-65.3128 232.326 -62.0492 236.876 -53.2799 238.87C-45.3683 240.661 -39.1663 239.075 -31.2547 233.258C-28.8486 231.51 -21.7515 228.624 -21.7515 229.436C-21.7515 230.168 -24.9318 234.07 -27.2168 236.185C-32.6015 241.069 -42.5133 244.814 -50.304 244.891C-55.0354 244.934 -57.4818 244.118 -59.7668 241.719C-60.705 240.746 -61.6836 239.928 -61.9685 239.928C-62.8664 239.928 -64.8638 242.656 -65.6407 244.891C-66.6193 247.62 -66.6193 252.822 -65.6811 255.305C-64.7025 257.865 -62.4175 261.122 -59.6028 263.886C-57.2371 266.242 -53.1186 268.807 -51.7718 268.807C-50.8739 268.807 -50.9572 269.335 -51.9761 270.268C-53.2799 271.41 -55.116 275.512 -55.401 277.917C-55.8499 281.619 -54.1778 286.985 -51.1185 291.461C-49.812 293.372 -48.9168 294.268 -48.0592 294.471C-46.1022 295.037 -38.0668 294.635 -35.8221 293.901C-31.6633 292.561 -28.1147 289.267 -26.6442 285.482C-26.3593 284.707 -26.0743 284.021 -25.9937 283.938C-25.9506 283.855 -25.0124 284.425 -23.9129 285.199C-21.4236 286.985 -18.3239 288.248 -14.4904 288.979C-10.6972 289.711 -8.24818 289.711 -5.51686 288.979C-0.132187 287.513 5.08849 282.471 4.67987 279.053C4.5589 278.12 4.31427 277.916 2.39751 277.508C-2.53822 276.409 -6.21044 271.33 -8.57615 262.299C-9.43103 259.168 -9.63533 257.42 -9.63533 252.943C-9.67566 248.022 -9.55469 247.089 -8.57615 243.996C-8.00354 242.085 -7.06532 239.891 -6.57604 239.122L-5.68083 237.698L-5.35288 240.263C-5.1889 241.681 -4.8636 243.432 -4.61897 244.164C-4.33401 245.059 -4.29369 246.075 -4.53832 247.174C-5.10824 249.573 -5.14856 256.93 -4.61897 259.289C-3.72107 263.436 -1.35536 267.506 2.43783 271.294C4.67987 273.53 8.84136 276.011 9.6156 275.566C9.8199 275.397 10.1049 275.484 10.2285 275.645C10.5135 276.132 14.9196 275.481 17.081 274.629C19.9763 273.487 23.3206 271.371 25.7696 269.179C27.5224 267.552 28.4606 266.212 29.8478 263.362C31.4392 260.068 33.3157 254.252 33.3157 252.582C33.3157 252.258 33.6006 251.688 33.9259 251.326C34.2942 250.918 35.1921 249.452 35.926 248.069C36.8212 246.405 37.3938 245.708 37.5981 246.027C38.1681 246.966 37.9234 254.288 37.2298 257.221C36.3319 260.88 33.1517 267.505 30.7457 270.676C28.1757 274.054 24.0545 277.834 21.6485 279.016C19.9763 279.829 19.1214 279.989 16.5084 279.912C12.8792 279.791 12.6346 280.075 13.1238 283.367C13.7771 287.801 17.366 292.56 21.5678 294.592C26.0949 296.79 34.2942 297.523 38.3724 296.105L40.5338 295.33L40.7381 298.136C41.023 301.718 42.4505 304.722 45.1442 307.204C47.5502 309.445 52.5666 311.963 56.1152 312.738L58.6449 313.262L61.5402 311.309C66.5162 307.891 70.0244 302.85 70.6374 298.215C70.882 296.341 70.3498 293.166 69.4546 290.77C69.2502 290.282 69.6992 290.162 72.0246 290.079C73.9816 290.036 75.6134 289.711 77.6109 288.896C83.6488 286.539 87.9312 282.921 89.8883 278.728C91.6035 274.949 91.6438 268.807 89.9716 267.137C89.1947 266.368 89.1544 266.369 87.0333 267.425C81.2427 270.392 71.7799 266.651 63.4166 258.111C59.0535 253.677 56.2388 248.634 55.5049 243.954L55.2173 242.169L57.5427 244.284C58.8492 245.461 60.0724 246.436 60.2767 246.436C60.481 246.436 61.3359 247.495 62.1531 248.755C65.6183 254.248 69.6992 258.356 73.4521 260.184C78.9577 262.827 86.8693 263.483 90.9502 261.572C95.9262 259.21 100.453 249.039 99.5958 241.965C99.2705 239.158 97.679 234.561 95.7623 230.577C94.9047 228.907 94.2138 226.792 94.1304 225.897C94.0901 225.002 93.8455 223.578 93.6412 222.682C93.3966 221.83 93.3159 221.018 93.4772 220.892C93.6009 220.771 94.4584 221.389 95.3536 222.284C101.187 227.855 104.287 236.435 104.287 246.849C104.287 254.253 102.695 258.363 98.9855 260.556C96.7811 261.853 96.8242 262.955 99.1065 265.027C102.206 267.876 107.386 269.253 111.793 268.441C116.809 267.502 123.661 263.075 126.315 259.006L127.823 256.687L129.699 258.64C132.35 261.403 134.756 262.463 138.713 262.624C140.466 262.745 143.036 262.586 144.423 262.299C147.483 261.691 152.623 259.41 153.152 258.357C154.908 255.143 155.518 247.127 154.335 243.101C153.48 240.294 151.031 237.084 148.544 235.666C147.523 235.052 146.708 234.483 146.708 234.363C146.708 234.242 147.606 233.346 148.706 232.368C151.031 230.296 154.09 224.562 154.865 220.777C156.171 214.839 154.499 208.988 150.461 205.321C147.647 202.761 146.504 202.719 145.525 205.285C143.364 210.772 136.307 213.657 125.293 213.614C117.586 213.571 113.056 212.352 107.47 208.813C104.411 206.902 104.615 206.662 109.102 206.662C111.873 206.662 113.709 206.867 115.301 207.389C117.831 208.29 118.726 208.452 123.051 209.018C127.578 209.631 130.923 208.98 135.899 206.457C140.509 204.096 146.504 198.039 144.179 198.039C143.894 198.039 142.547 199.138 141.203 200.478C139.367 202.347 137.735 203.441 134.552 205.028C130.678 206.939 129.984 207.147 126.925 207.311C124.03 207.474 115.709 206.454 115.709 205.923C115.709 205.846 116.973 205.154 118.564 204.384C122.113 202.636 123.989 201.326 128.312 197.667C130.229 196.08 132.065 194.787 132.474 194.787C133.288 194.787 133.942 192.793 133.288 192.343C133.044 192.222 132.474 189.986 132.025 187.421C131.003 181.851 129.82 177.777 128.476 175.092C127.293 172.735 127.334 172.736 131.984 175.379C139.162 179.406 143.079 185.71 143.813 194.374C144.015 196.693 144.219 197.421 144.668 197.421C145.566 197.421 145.485 191.206 144.547 188.316C141.732 179.94 137.694 175.793 128.476 171.767C126.804 171.07 124.64 169.685 123.54 168.709C122.479 167.731 121.175 166.595 120.602 166.228L119.583 165.537H121.54C122.602 165.494 124.804 165.777 126.436 166.144C135.979 168.259 147.074 177.734 149.932 186.154C150.95 189.127 150.991 190.064 150.176 192.343C149.319 194.742 149.399 195.028 150.786 195.599C153.641 196.776 159.884 195.071 163.349 192.138C167.959 188.238 171.344 177.536 169.712 171.966C169.551 171.395 170.04 171.318 173.344 171.359C176.809 171.396 177.341 171.275 179.828 170.055C183.336 168.347 186.476 164.892 188.802 160.254C190.393 157.04 190.474 156.793 189.985 155.375C188.148 150.206 183.906 145.042 179.828 143.05C177.341 141.831 176.809 141.704 173.344 141.747C170.04 141.79 169.551 141.705 169.712 141.139C170.65 138.003 170 133.043 168.08 128.208C166.043 123.082 163.921 120.722 159.351 118.564C156.335 117.181 152.703 116.737 150.786 117.506C149.399 118.077 149.319 118.358 150.176 120.763C150.991 123.041 150.95 123.976 149.932 126.941C147.074 135.366 135.979 144.836 126.436 146.951C124.804 147.323 122.602 147.603 121.54 147.563H119.583L120.602 146.872C121.175 146.505 122.479 145.369 123.54 144.391C124.64 143.417 126.804 142.03 128.476 141.343C137.694 137.312 141.649 133.285 144.507 124.825C145.485 121.898 145.606 115.679 144.668 115.679C144.219 115.679 144.015 116.41 143.813 118.726C143.079 127.39 139.162 133.694 131.984 137.721C127.334 140.364 127.293 140.365 128.476 138.003C129.82 135.323 131.003 131.254 132.025 125.684C132.474 123.119 133.044 120.883 133.288 120.763C133.942 120.312 133.288 118.323 132.474 118.323C132.065 118.323 130.229 117.02 128.312 115.433C123.989 111.774 122.113 110.469 118.564 108.721C116.973 107.952 115.709 107.26 115.709 107.177C115.709 106.648 124.03 105.634 126.925 105.794C129.984 105.958 130.678 106.161 134.552 108.072C137.735 109.659 139.367 110.758 141.203 112.627C142.547 113.967 143.894 115.066 144.179 115.066C146.504 115.066 140.509 109.009 135.899 106.648C130.923 104.125 127.578 103.474 123.051 104.088C118.726 104.659 117.831 104.81 115.301 105.705C113.709 106.233 111.873 106.438 109.102 106.438C104.615 106.438 104.411 106.193 107.47 104.281C113.056 100.748 117.586 99.5285 125.293 99.4856C136.307 99.4427 143.364 102.336 145.525 107.821C146.504 110.386 147.647 110.344 150.461 107.784C154.499 104.12 156.171 98.2611 154.865 92.3182C154.09 88.5386 151.031 82.8094 148.706 80.7373C147.606 79.7589 146.708 78.8632 146.708 78.7426C146.708 78.6219 147.523 78.0501 148.544 77.4389C151.031 76.0155 153.48 72.8031 154.335 69.9993C155.518 65.973 154.908 57.9569 153.152 54.7482C152.623 53.6894 147.483 51.4145 144.423 50.8007C143.036 50.5192 140.466 50.3554 138.713 50.4761C134.756 50.6396 132.35 51.6966 129.699 54.4603L127.823 56.4131L126.315 54.0938C123.661 50.0247 116.809 45.5976 111.793 44.6594C107.386 43.8472 102.206 45.2314 99.1065 48.0782C96.8242 50.1503 96.7811 51.2466 98.9855 52.5493C102.695 54.7474 104.287 58.8548 104.287 66.2559C104.287 76.6699 101.187 85.2506 95.3536 90.8209C94.4584 91.7162 93.6009 92.3237 93.4772 92.203C93.3159 92.0824 93.3966 91.2703 93.6412 90.4125C93.8455 89.5225 94.0901 88.0984 94.1304 87.2031C94.2138 86.3078 94.9047 84.1926 95.7623 82.5226C97.679 78.5392 99.2705 73.9419 99.5958 71.1354C100.453 64.0613 95.9262 53.8899 90.9502 51.5336C86.8693 49.6224 78.9577 50.2701 73.4521 52.9158C69.6992 54.7493 65.6183 58.8534 62.1531 64.303C61.3359 65.6058 60.481 66.6642 60.2767 66.6642C60.0724 66.6642 58.8492 67.6375 57.5427 68.7794L55.2173 70.9312L55.5049 69.1459C56.2388 64.4656 59.0535 59.4227 63.4166 54.9891C71.7799 46.4488 81.2427 42.7077 87.0333 45.6751C89.1544 46.7339 89.1947 46.7351 89.9716 45.9631C91.6438 44.2931 91.6035 38.1513 89.8883 34.3717C87.9312 30.1792 83.6488 26.5607 77.6109 24.1991C75.6134 23.3869 73.9816 23.0613 72.0246 23.0211C69.6992 22.9434 69.2502 22.8179 69.4546 22.33C71.7369 16.4354 70.8417 11.5517 66.5995 6.34601C64.4355 3.74316 59.3384 -0.0422974 58.0319 0.000579834C57.54 0.000579834 56.0722 0.326111 54.7253 0.733551ZM59.0078 1.91153C59.0078 2.07504 59.5401 2.52502 60.1906 2.93246C63.0483 4.59711 67.1264 9.35434 68.4303 12.571C69.2072 14.5252 69.1239 18.4296 68.2287 20.995C67.6561 22.7856 67.2904 23.1833 66.1076 23.6336C65.3307 23.8749 64.7204 24.326 64.7204 24.6075C64.7204 25.2561 67.0458 25.666 67.9814 25.1781C69.0836 24.5643 71.9385 24.6907 74.6725 25.3823C80.7911 26.9692 86.665 31.5227 88.3372 35.9161C89.192 38.2348 89.6007 42.9097 88.9877 43.8479C88.8264 44.1294 88.0092 43.9693 86.7054 43.4814C84.216 42.503 80.7508 42.4238 77.7318 43.3192C71.4493 45.1473 63.7419 50.6382 59.2551 56.455C55.7469 61.0093 53.0935 67.7218 53.3812 71.2977C53.4618 72.4798 53.2172 73.4549 52.5236 74.6746C51.9537 75.653 51.3811 76.4232 51.1768 76.4232C50.7278 76.4232 49.6283 74.1877 49.6283 73.2924C49.6283 71.4589 52.6473 62.1463 54.1554 59.3398C55.0533 57.6751 57.3357 54.4603 59.2551 52.2247C64.1478 46.4508 65.9436 42.4584 65.9436 37.2983C65.9436 33.4356 64.7204 30.3828 62.231 27.9006C60.5186 26.2359 59.989 25.9896 58.5615 25.9896C57.2147 25.9896 56.6421 26.2352 55.5023 27.3718C53.2172 29.6503 53.8301 31.0363 56.2361 29.0419C57.8249 27.6963 59.0911 27.7396 60.7633 29.2461C63.4139 31.5246 64.5564 36.1197 63.6989 40.8375C63.2096 43.4403 61.2525 46.731 57.3356 51.4918C53.0129 56.6599 51.0155 60.4397 49.424 66.3396L48.2411 70.6066L47.3432 69.549C46.405 68.4902 46.405 68.4909 45.1415 69.1825L43.8753 69.9155L44.2033 68.371C44.3646 67.5588 44.4883 64.3867 44.448 61.3764C44.448 55.4389 44.284 54.7842 41.2247 46.3243C39.9208 42.7055 39.7165 41.5726 39.7165 38.8009C39.7568 33.8418 41.4693 30.017 44.8136 27.6179C45.9561 26.7654 46.9776 26.398 48.0368 26.398C49.545 26.398 50.1176 26.8428 51.5047 29.0838C52.3193 30.3812 52.9725 29.2827 52.3999 27.4974C51.0155 23.0638 45.7921 23.1028 41.714 27.6598C39.0633 30.544 38.0444 33.2733 37.8804 38.0313L37.7164 42.1359L40.0821 49.0049L42.4478 55.8791L42.4075 62.1827C42.3672 70.6855 42.2435 71.7425 40.8161 73.2034C40.2058 73.8575 39.5526 74.3866 39.3886 74.3866C39.2273 74.3866 38.8993 73.4491 38.6547 72.35C38.2891 70.6854 38.3293 70.0708 38.8186 69.1406C39.8375 67.1034 40.2864 62.917 39.8778 59.1722C38.6546 48.3963 30.7027 36.0738 22.5033 32.2513C20.9925 31.5195 19.729 31.2722 17.6483 31.2722H14.8336L15.0782 29.8063C15.6912 26.0267 18.8714 22.1199 22.912 20.2515C28.4982 17.6487 37.3508 17.6487 40.6951 20.2515C42.1225 21.3506 44.3243 21.7548 44.3243 20.9426C44.3243 20.5753 43.835 20.0044 43.2651 19.6023C42.2032 18.9482 42.2032 18.8273 42.4075 15.817C42.7758 10.488 45.1819 7.11676 50.5262 4.38794C54.521 2.36142 59.0078 1.05643 59.0078 1.91153ZM-36.3141 20.8641C-32.2762 22.0837 -29.3809 24.8912 -27.7088 29.2042C-27.0959 30.7911 -27.0959 31.0716 -27.6685 31.9267C-28.4024 33.0686 -28.483 34.2876 -27.7491 33.9633C-27.5045 33.8427 -26.9346 33.597 -26.5259 33.4764C-26.1577 33.3129 -25.8324 33.0703 -25.8324 32.8638C-25.8324 32.6574 -25.2194 31.8053 -24.4452 30.9529C-21.8752 28.1463 -16.6545 26.1519 -10.6999 25.7069C-7.15135 25.4603 -4.74531 26.0748 -1.64301 28.0262C0.190414 29.1628 2.72011 32.1263 2.72011 33.1047C2.72011 33.3459 1.6609 33.8752 0.394714 34.2827C-8.25087 37.0061 -14.2888 54.9047 -10.9849 67.9993C-9.92297 72.1462 -8.53851 75.0791 -6.66208 77.0305C-5.80451 77.9259 -5.39587 78.8591 -5.19157 80.3656L-4.94695 82.4807L-6.66208 81.8263C-8.33421 81.1776 -8.53851 80.8936 -10.3719 76.9049C-13.7995 69.5869 -14.4931 66.7814 -14.6974 58.7691C-14.9017 49.2933 -15.8803 46.1561 -19.7541 42.0522C-22.1198 39.5297 -24.8941 38.105 -27.7491 37.8637C-31.623 37.5394 -33.5827 39.157 -33.5827 42.6176C-33.5827 45.4241 -32.1956 45.1354 -31.9913 42.2511C-31.7869 38.627 -25.1791 39.2396 -21.2219 43.3087C-17.7137 46.8846 -16.4502 51.2825 -16.4905 59.989C-16.5308 67.5134 -15.9206 69.7482 -11.2295 79.3446C-11.1488 79.5135 -11.7591 79.5125 -12.536 79.3865C-13.8802 79.1828 -14.0441 79.2646 -14.5334 80.4441L-15.063 81.7059L-17.2244 78.4913C-20.8563 73.0818 -24.7705 69.7119 -32.4402 65.4444C-39.0481 61.78 -42.8009 55.3148 -41.6987 49.4604C-41.0455 45.922 -39.7013 44.612 -37.2523 45.183C-35.0102 45.7539 -34.6823 45.7546 -34.521 45.2668C-34.2763 44.5349 -36.9673 43.0678 -38.5991 43.0678C-42.352 43.0678 -44.758 48.3143 -43.6988 54.2142C-43.1665 57.1414 -41.2901 60.3927 -38.5588 63.1617C-36.4377 65.3142 -35.0102 66.2919 -29.0126 69.6694C-25.1791 71.8219 -22.3644 74.6736 -17.469 81.3027C-15.227 84.3961 -14.6571 86.3075 -15.5926 87.7738C-16.1652 88.6638 -18.9799 86.0158 -19.5498 84.0671C-22.2435 75.1568 -37.2523 66.2963 -49.8981 66.1355C-54.6295 66.0926 -57.4844 66.9049 -60.1351 69.1459C-62.2159 70.8534 -62.2562 70.8526 -63.603 68.2873C-64.1729 67.2284 -64.3369 65.9726 -64.3772 63.2036C-64.3772 59.9949 -64.2133 59.2615 -63.2347 57.3503C-60.1754 51.4128 -53.5676 45.8795 -49.2851 45.7589C-47.6936 45.6758 -45.9812 44.617 -46.3898 43.9684C-46.5538 43.6869 -47.2071 43.5171 -47.8576 43.56C-49.4491 43.6859 -50.8363 42.3404 -52.425 39.0888C-54.0568 35.8319 -54.1375 33.0684 -52.7933 28.9215C-51.8148 25.989 -49.2448 21.3921 -47.9383 20.419C-47.0001 19.6873 -39.2927 19.9741 -36.3141 20.8641ZM12.9168 39.0051C16.0595 39.7798 17.8929 40.6323 21.3608 42.9108C24.99 45.3099 26.4605 46.937 28.2133 50.3923C29.4364 52.8316 31.3532 58.1612 31.1086 58.4079C31.0279 58.5285 30.0494 57.9573 28.9472 57.188C26.2965 55.2767 23.3179 53.8533 18.2612 51.942C15.8955 51.0842 13.6938 50.1512 13.3658 49.8269C12.4679 49.0951 11.2044 49.1716 11.0001 49.9892C10.8791 50.3564 9.4086 51.817 7.69615 53.2404C3.57767 56.618 -0.0945435 60.4022 -1.60268 62.7638C-2.25594 63.7797 -2.90921 64.6276 -3.11353 64.6276C-3.68344 64.6276 -3.11351 54.3868 -2.46025 52.2719C-1.64301 49.7065 1.25229 45.4349 3.78198 42.9527C6.34931 40.4704 9.69624 38.1993 10.4705 38.403C10.7958 38.4781 11.898 38.7638 12.9168 39.0051ZM116.4 48.6018C121.782 51.2877 126.269 55.924 126.312 58.811C126.352 59.7063 127.697 61.3764 128.35 61.3764C128.718 61.3764 128.799 60.8891 128.594 59.79C128.35 58.2809 128.474 58.0427 130.39 56.0885C131.49 54.9466 133.366 53.567 134.549 53.0362C138.262 51.3287 143.891 51.8174 149.601 54.3399L151.886 55.3556L152.58 58.366C153.434 62.3091 153.394 67.517 152.496 69.9993C151.601 72.4815 149.276 75.2013 146.87 76.6274C145.154 77.6005 144.789 77.6857 143.523 77.3185C142.708 77.0719 141.974 76.9518 141.851 77.0724C141.445 77.4799 142.993 79.4753 143.81 79.5959C144.3 79.679 145.644 80.6111 146.87 81.753C150.335 84.9268 153.354 91.7175 153.313 96.3496C153.313 100.952 151.558 104.655 148.254 107.255C147.644 107.743 147.439 107.58 146.542 105.789C144.259 101.27 139.24 98.6693 130.595 97.5328C120.315 96.1925 109.709 99.0373 104.08 104.653C101.959 106.768 98.4532 108.96 97.921 108.475C97.8806 108.392 98.0043 107.533 98.2059 106.517C98.5742 104.769 98.8189 104.567 102.98 101.763C109.954 97.1257 113.096 95.8631 120.194 94.7265C128.678 93.3863 133.856 90.2027 136.59 84.6325C138.302 81.2201 138.506 77.2352 137.079 75.3185C135.815 73.611 134.264 73.0055 132.267 73.4076C129.941 73.9357 129.982 74.9517 132.388 75.0777C135.038 75.1983 135.896 76.2149 135.856 79.1823C135.856 82.1497 134.673 84.7161 132.183 87.4021C129.452 90.2864 126.393 91.6263 119.376 92.8889C111.545 94.3123 108.65 95.4958 102.736 99.6427C99.6764 101.841 99.3888 101.96 99.6361 101.025C99.9614 99.7623 99.2275 98.7893 97.921 98.7893C97.3914 98.7893 96.9424 98.7074 96.9424 98.627C96.9424 98.5439 98.4533 96.9572 100.327 95.0459C104.488 90.816 106.65 87.3168 108.935 81.0148C111.096 75.0773 112.279 73.0058 114.849 70.6013C117.624 67.9985 119.745 67.026 123.21 66.7794C125.78 66.6159 126.269 66.6965 127.535 67.5543C128.839 68.4442 128.963 68.6901 128.963 70.6013C128.963 73.0836 129.248 73.534 130.062 72.2715C131.858 69.5024 131.001 66.6591 128.025 65.3135C125.374 64.1769 121.132 64.5024 117.868 66.0465C112.973 68.4456 109.75 72.8789 106.61 81.5854C104.652 86.952 103.021 89.3925 98.0043 94.6009C93.6788 99.0721 93.5175 99.1977 91.8024 99.1977C90.8238 99.1977 90.0093 99.1107 90.0093 99.0249C90.0093 98.9472 90.4583 98.0932 91.0282 97.0773C91.6411 95.9354 92.5793 95.0406 93.4745 94.5957C98.0043 92.4378 102.693 85.7258 104.857 78.2818C107.833 67.9938 106.895 57.5442 102.491 53.0677C101.593 52.0946 100.451 51.1143 100.042 50.9106C99.0635 50.3825 99.4318 49.8165 101.714 48.4709C106.489 45.7152 110.731 45.7148 116.4 48.6018ZM15.4465 52.8739L18.5865 54.1357L16.9977 56.4969C16.0998 57.8372 15.3659 59.014 15.3659 59.1775C15.3659 59.5447 14.0594 60.5221 13.4894 60.5596C13.2448 60.5596 12.6319 60.1975 12.1426 59.79C11.6533 59.3397 10.3468 58.4077 9.24731 57.633L7.24721 56.2927L9.57259 53.9734C10.8361 52.6706 11.9786 51.6551 12.1023 51.6122C12.2233 51.6122 13.7341 52.185 15.4465 52.8739ZM88.9877 52.2666C90.9072 52.5079 91.1518 52.6679 92.7836 54.8687C97.8 61.7014 99.0635 69.8737 96.2489 77.24C95.5956 78.9046 94.8617 80.6534 94.617 81.1038C94.1681 81.8302 94.1278 81.8293 93.8831 80.6954C92.9852 76.7067 90.9072 71.9893 87.8049 66.8266C86.9903 65.5238 86.3371 64.0623 86.3371 63.612C86.3371 62.596 84.8289 61.5813 84.1757 62.1094C83.8907 62.3077 80.5868 62.5961 76.7533 62.7167C70.511 62.9204 68.554 63.209 64.7608 64.4287C63.8226 64.7155 63.8629 64.6312 65.1694 62.8057C67.5351 59.5086 71.4896 55.8127 73.9386 54.6278C78.3421 52.4727 83.7267 51.6528 88.9877 52.2666ZM22.912 55.8843L25.1943 56.8582L22.8689 60.235C21.5651 62.1088 20.4629 63.6965 20.3823 63.7742C20.3016 63.8949 19.1591 63.4491 17.8122 62.8004C15.2019 61.5379 14.9976 60.9659 16.5057 59.3817C16.9143 58.9742 17.8929 57.7956 18.7505 56.7796C19.608 55.7208 20.3822 54.8687 20.4629 54.8687C20.5866 54.8713 21.6861 55.3161 22.912 55.8843ZM11.1641 60.3188C13.0405 61.257 13.0002 61.9472 10.8361 64.0622L8.83869 66.0098L7.9408 65.1564C7.4112 64.7115 5.94337 63.6529 4.67719 62.8004C3.37336 61.948 2.31149 61.1734 2.31149 61.0099C2.31149 60.8893 3.08841 60.0328 4.02663 59.0571L5.73907 57.3084L7.98112 58.612C9.24731 59.3036 10.6748 60.0722 11.1641 60.3188ZM29.2321 59.79L31.3532 61.4549L28.7832 64.0622C26.8261 66.011 26.3368 66.7849 26.6621 67.1093C27.0304 67.4765 27.7643 67.0316 29.6811 65.3187C31.4366 63.7747 32.4151 63.1665 32.7 63.4078C33.27 63.8581 35.5147 67.8856 35.2701 68.0464C35.2298 68.0893 33.9232 68.9833 32.4554 69.9993C29.7214 71.8676 29.7214 71.8667 29.3155 70.9312C28.5386 69.2665 26.2562 66.9886 24.0518 65.769C22.8689 65.1203 21.8904 64.4666 21.8904 64.303C21.8904 63.8581 26.4175 58.1199 26.7455 58.1199C26.9498 58.1199 28.0923 58.8545 29.2321 59.79ZM5.04549 64.8737L8.02413 66.7428L6.63697 68.3291C4.92183 70.2029 3.69865 72.4804 3.33304 74.5123C3.16905 75.3647 2.88409 76.0984 2.72011 76.219C2.39483 76.4228 -3.23449 75.0837 -3.64311 74.7165C-3.92808 74.4296 -3.11353 69.8726 -2.66457 69.4705C-2.50059 69.2668 -1.11341 69.6742 0.478065 70.3658C2.02653 71.0145 3.57767 71.4602 3.90295 71.3396C4.80084 70.9723 3.78198 70.1636 0.67968 68.7375C-2.50058 67.2712 -2.41993 67.5595 -0.258537 64.0988C0.883995 62.2707 0.803345 62.2709 5.04549 64.8737ZM22.2184 66.5805C24.6244 67.7573 27.1111 70.2387 28.3369 72.6432C28.7832 73.4956 29.7214 75.9817 30.3747 78.1771L31.6409 82.1561L30.2134 84.1142C28.6622 86.3123 25.5223 92.4531 24.7454 94.8522C23.9711 97.2513 23.8905 96.4021 24.5411 93.2658C26.5815 83.7471 23.1566 74.5539 17.159 73.3343C15.5272 73.0099 13.5298 74.6324 12.2636 77.4389C10.1452 81.9155 11.6533 90.0512 15.6912 95.8627C17.3633 98.2645 16.9977 98.06 14.019 94.8889C12.3066 93.0553 9.53226 90.5389 7.86013 89.2764C6.18801 87.9736 4.76053 86.5905 4.63686 86.1456C4.51589 85.7381 4.47289 83.0509 4.47289 80.1666C4.55622 73.3714 5.24979 71.8685 10.5108 66.502L14.304 62.6748L17.159 64.0622C18.7504 64.8717 21.0355 65.972 22.2184 66.5805ZM85.9715 67.2297L87.4796 70.2401L84.8693 70.9312C83.4418 71.2984 82.1353 71.7877 82.0143 71.9888C81.646 72.6428 79.4039 72.3966 79.4039 71.7479C79.4039 71.4236 79.1996 71.1354 78.955 71.1354C78.7104 71.1354 78.5867 70.8551 78.7104 70.528C78.8313 70.2037 78.6297 68.7797 78.2211 67.3134C77.6915 65.4451 77.6082 64.586 77.9361 64.4653C78.1808 64.3876 79.7696 64.2612 81.4417 64.2612H84.501L85.9715 67.2297ZM76.1 65.6852C76.8339 67.3552 78.1807 71.4595 78.1807 72.1511C78.1807 72.5585 77.7722 72.7653 77.0786 72.8055C76.4253 72.8055 75.2021 72.8837 74.2639 73.0097L72.5918 73.2086L71.5729 69.2244C70.796 66.3401 70.6347 65.156 71.0003 64.9522C71.2449 64.7887 72.3875 64.6276 73.53 64.6276C75.3661 64.6276 75.6511 64.7524 76.1 65.6852ZM69.8578 68.7794C70.4707 70.6478 71.0406 72.3547 71.1239 72.6013C71.2046 72.8828 70.5514 73.1734 69.5325 73.3343C68.554 73.4978 67.4114 73.7006 66.9625 73.8212C66.2286 73.9847 65.9033 73.5398 64.7204 70.6904C63.9435 68.8568 63.3333 67.2299 63.4139 67.1093C63.5376 66.7849 67.1668 65.5212 68.0647 65.481C68.5539 65.4435 69.0432 66.3401 69.8578 68.7794ZM63.2499 71.1354C64.1075 72.6794 64.9651 73.9835 65.25 73.9835C65.4947 73.9835 64.6371 74.7147 63.2929 75.5698L60.8842 77.1614L59.8654 75.6903C59.3358 74.8378 58.3976 73.6627 57.8249 73.0516L56.7658 71.8736L58.8062 70.083C59.9057 69.11 61.0482 68.2925 61.2928 68.2925C61.5375 68.2925 62.4353 69.5485 63.2499 71.1354ZM36.5336 71.4233C37.6761 75.7739 37.6761 75.7734 35.3104 78.2557C34.1679 79.4753 33.1087 80.4077 32.985 80.287C32.8237 80.1235 30.4983 73.2513 30.458 72.884C30.458 72.7205 35.555 69.9155 35.84 69.9155C36.004 69.9155 36.3293 70.6084 36.5336 71.4233ZM49.5046 77.3604C55.1339 89.1147 55.5426 90.7787 55.5023 101.847C55.5023 107.741 55.2979 110.547 54.8893 112.051C53.7871 115.753 54.6447 115.999 58.3169 112.946C61.5375 110.266 65.25 107.864 69.4518 105.789C75.7317 102.658 80.5464 101.438 88.3775 101.03C91.1921 100.867 94.4961 100.629 95.7192 100.423C96.9424 100.254 98.0043 100.135 98.085 100.219C98.1656 100.296 97.8403 101.68 97.3914 103.308C96.9021 104.978 96.0876 108.15 95.5553 110.386C94.9854 112.622 94.0068 115.92 93.3132 117.705C90.9072 123.929 84.38 132.59 78.7507 137.15C74.7532 140.318 75.0381 140.683 81.646 140.846C92.4556 141.176 101.349 144.02 109.056 149.673C110.811 150.971 113.666 152.967 115.419 154.15C117.134 155.369 118.562 156.427 118.562 156.547C118.562 156.668 117.134 157.728 115.419 158.95C113.666 160.127 110.811 162.124 109.056 163.427C101.349 169.075 92.4556 171.924 81.646 172.254C75.0381 172.417 74.7532 172.782 78.7507 175.955C84.38 180.51 90.9072 189.171 93.3132 195.395C94.0068 197.185 94.9854 200.478 95.5553 202.714C96.0876 204.955 96.9021 208.122 97.3914 209.792C97.8403 211.42 98.1656 212.804 98.085 212.881C98.0043 212.965 96.9424 212.838 95.7192 212.682C94.4961 212.479 91.1921 212.228 88.3775 212.065C80.5464 211.657 75.7317 210.442 69.4518 207.311C65.25 205.239 61.5375 202.84 58.3169 200.154C54.6447 197.101 53.7871 197.347 54.8893 201.049C55.2979 202.553 55.5023 205.356 55.5023 211.253C55.5426 222.158 55.134 223.943 49.709 235.253C47.7922 239.279 46.2007 242.613 46.1604 242.656C46.1201 242.733 43.2651 239.969 39.7972 236.556C33.27 230.169 31.1086 227.362 28.5386 222.033C26.0519 216.865 23.5222 208.531 23.5222 205.52C23.5222 204.344 22.9523 203.735 21.9307 203.735C21.7291 203.735 20.9925 204.913 20.3016 206.374C18.5865 209.829 14.183 215.448 10.2258 219.185C5.69875 223.458 1.7819 225.979 -4.41733 228.499C-6.21312 229.274 -8.90412 230.453 -10.3719 231.185L-13.0656 232.567L-13.6355 226.996C-14.4528 218.901 -14.3694 209.997 -13.4312 206.175C-12.0037 200.395 -8.25086 191.573 -6.41743 189.458C-5.68353 188.6 -5.68353 187.504 -6.45776 187.217C-6.78304 187.053 -7.68095 187.259 -8.41486 187.583C-12.536 189.457 -19.9181 191.044 -26.1173 191.369C-31.9106 191.693 -35.9888 191.044 -43.8601 188.683C-46.8388 187.788 -49.5701 187.055 -49.8981 187.055C-50.226 187.055 -50.7959 186.895 -51.1212 186.657C-51.6105 186.332 -51.6105 186.206 -51.0406 185.557C-50.6723 185.15 -48.7555 182.343 -46.7178 179.296C-41.0078 170.672 -37.1743 167.013 -28.975 162.333C-25.5501 160.378 -20.0014 157.983 -18.289 157.699C-17.7164 157.616 -17.4717 157.244 -17.4717 156.553C-17.4717 155.861 -17.7164 155.494 -18.289 155.411C-20.0014 155.13 -25.5501 152.732 -28.975 150.778C-37.1743 146.103 -41.0078 142.438 -46.7178 133.82C-48.7582 130.767 -50.675 127.961 -51.0406 127.553C-51.6105 126.904 -51.6105 126.783 -51.1212 126.454C-50.7959 126.212 -50.2233 126.051 -49.8981 126.051C-49.5728 126.051 -46.8388 125.323 -43.8601 124.428C-35.9888 122.071 -31.9106 121.417 -26.1173 121.742C-19.9181 122.071 -12.536 123.653 -8.41486 125.522C-7.68095 125.852 -6.78304 126.054 -6.45776 125.894C-5.68353 125.607 -5.68353 124.505 -6.41743 123.653C-8.25086 121.538 -12.0037 112.715 -13.4312 106.936C-14.3694 103.113 -14.4528 94.2095 -13.6355 86.1142L-13.0656 80.5436L-10.3719 81.9258C-8.90412 82.6575 -6.21312 83.8369 -4.41733 84.6116C1.7819 87.1286 5.69875 89.6527 10.2258 93.9255C14.183 97.6649 18.5865 103.276 20.3016 106.737C21.1968 108.605 21.8097 109.381 22.3797 109.381C23.2372 109.381 23.2776 109.339 23.8905 105.433C24.7884 99.4555 28.0923 90.9921 31.5979 85.5854C32.8641 83.6312 45.1818 70.6166 45.9561 70.4129C46.0797 70.3673 47.6685 73.4977 49.5046 77.3604ZM89.6813 74.2662L90.7029 76.6274L87.1543 77.5227C85.1946 78.0105 83.3611 78.4606 83.0332 78.5384C82.6675 78.6215 82.0143 77.7637 81.3207 76.3028C80.2185 74.0243 80.1782 73.9017 80.8718 73.3709C81.2804 73.0895 81.81 72.9266 82.0546 73.0097C82.2589 73.0874 83.2778 72.8828 84.2993 72.6013C85.3182 72.277 86.7054 71.9888 87.3989 71.9888C88.5818 71.9539 88.7431 72.1512 89.6813 74.2662ZM57.54 75.0829C59.946 77.6429 60.11 78.2138 58.8465 79.5541C58.2335 80.1679 57.255 81.464 56.6421 82.4022C56.0318 83.3806 55.3786 84.1508 55.1339 84.1508C54.4807 84.1079 52.3596 79.0295 52.6472 78.1771C53.0532 76.9146 55.2979 73.5751 55.7039 73.5751C55.9082 73.5724 56.7657 74.2654 57.54 75.0829ZM78.9953 74.5123C78.9953 74.7937 79.6486 76.3815 80.4631 78.0515C82.5842 82.4449 83.4821 85.2084 83.4821 87.444C83.4821 89.642 81.974 94.6842 80.3018 97.9411C79.1996 100.094 79.1593 100.093 76.0597 100.988C74.3445 101.516 71.0406 102.862 68.7583 103.999C66.4329 105.141 64.4758 106.035 64.4328 105.951C64.3521 105.874 65.0457 105.302 65.9839 104.658C68.4733 102.945 72.3875 98.5163 73.7343 95.8679C76.1404 91.1099 76.1807 86.4314 73.8553 83.9519C72.9171 82.9359 72.6321 82.8582 70.839 83.0566C64.6774 83.7884 60.2337 89.6911 58.4379 99.695L57.8679 102.664L57.8249 100.428C57.7846 97.2489 57.0507 91.6842 56.3168 88.9151L55.7039 86.512L57.2147 84.355C62.3547 76.9111 65.2903 75.1251 73.6106 74.5542C75.5704 74.3906 77.2425 74.2341 77.3232 74.151C77.7721 73.7811 78.9953 74.0244 78.9953 74.5123ZM-43.3708 75.6536C-40.8412 76.1817 -37.048 77.8889 -33.9887 79.8001L-31.7869 81.2242L-33.787 81.465C-38.3141 82.036 -40.8842 82.684 -45.8602 84.3969C-48.7152 85.3699 -51.3255 86.1049 -51.6535 85.9414C-52.4681 85.6599 -52.917 86.4689 -53.0004 88.423C-53.0407 89.3183 -53.4896 92.614 -53.9789 95.7422C-54.5918 99.8891 -54.7934 102.333 -54.5918 104.69L-54.3472 107.946L-56.6726 105.501C-59.3232 102.695 -61.8529 98.5895 -62.5868 95.9464C-63.4014 93.0192 -63.2804 86.0592 -62.3825 82.4859L-61.6083 79.4336L-58.5087 77.9311C-53.5676 75.6124 -47.6936 74.7181 -43.3708 75.6536ZM0.109764 77.2766L2.67979 77.7269L2.80076 81.4284C2.88409 83.5005 2.88409 85.291 2.84377 85.4545C2.63946 85.8994 -2.29627 83.5007 -2.86888 82.6482C-3.15384 82.1979 -3.51945 80.7357 -3.64311 79.3499C-3.9684 76.4629 -4.13238 76.5421 0.109764 77.2766ZM91.6008 79.3499C91.7621 79.8779 92.047 81.1402 92.211 82.1561L92.496 84.0304L89.52 84.3131C87.8882 84.4767 86.1758 84.6794 85.7268 84.8C84.9096 85.0038 84.6246 84.4762 83.4418 80.5331C83.3181 80.1257 84.095 79.7575 86.3371 79.2295C90.5389 78.2564 91.1921 78.2937 91.6008 79.3499ZM-70.9851 79.5959L-69.8022 80.0828L-70.7001 81.4284C-72.4529 84.0312 -72.8615 85.4914 -72.8615 88.8314C-72.8615 92.8951 -71.9636 96.1917 -69.4339 101.475C-64.7025 111.401 -56.3822 118.846 -49.1615 119.658C-48.0592 119.822 -47.0404 120.307 -46.0618 121.202C-44.4731 122.626 -44.5134 122.873 -46.5511 123.522C-47.8146 123.972 -48.3039 123.804 -52.874 121.611C-58.8689 118.761 -62.0115 116.529 -65.2321 112.784C-70.1275 107.093 -73.2271 104.282 -76.2031 102.821C-78.8941 101.518 -79.2624 101.438 -83.3405 101.438C-86.7251 101.438 -87.908 101.602 -89.0505 102.208C-91.1312 103.307 -93.048 105.261 -93.333 106.564C-93.7819 108.553 -91.2522 112.538 -90.2333 111.522C-89.9484 111.241 -90.0694 110.67 -90.642 109.732C-91.7442 107.946 -91.7038 107.255 -90.478 105.789C-87.5827 102.334 -79.9533 102.29 -74.9772 105.705C-73.0605 107.008 -70.1248 110.018 -68.0844 112.663C-65.2294 116.443 -61.3959 119.452 -56.0919 122.098C-51.2368 124.497 -51.1158 124.58 -52.1347 125.108C-53.2369 125.717 -53.5219 127.14 -52.6643 127.998C-51.9707 128.69 -52.5003 128.607 -56.6215 127.428C-62.0062 125.918 -67.5521 125.716 -73.5497 126.815C-78.6494 127.753 -83.2572 127.915 -85.4186 127.223C-91.0882 125.433 -94.9621 121.286 -94.6771 117.381C-94.5534 115.794 -94.3921 115.589 -92.72 114.737C-91.7011 114.249 -90.8033 113.637 -90.7629 113.433C-90.5183 112.784 -93.4539 112.946 -94.7604 113.637C-96.3116 114.449 -96.8009 115.385 -96.8009 117.663C-96.8009 122.751 -91.5802 127.874 -85.053 129.255C-81.913 129.909 -78.7704 129.826 -73.754 128.893C-67.0252 127.668 -63.4336 127.795 -56.4199 129.543C-50.5056 131.009 -50.4653 131.004 -49.5674 132.543L-48.6695 134.092L-50.7906 134.26C-52.382 134.338 -53.1563 134.176 -54.1348 133.527C-57.9683 130.924 -66.6972 130.028 -73.1438 131.532C-84.9723 134.301 -94.0695 141.007 -95.1691 147.762C-95.3734 149.06 -95.6583 150.244 -95.739 150.364C-96.2282 150.815 -100.511 148.292 -101.898 146.705C-104.428 143.941 -105.487 141.096 -105.691 136.705C-105.976 130.727 -104.508 125.434 -101.898 123.035C-100.839 122.062 -100.185 120.146 -100.796 119.778C-101 119.658 -101.489 119.899 -101.898 120.349C-102.347 120.837 -103.161 121.171 -104.019 121.171C-105.895 121.171 -109.648 119.778 -111.361 118.475C-114.256 116.282 -116.417 111.444 -117.194 105.501L-117.563 102.658L-115.442 100.705C-113.076 98.5128 -108.67 95.7417 -106.549 95.093C-105.774 94.8464 -104.019 94.6857 -102.632 94.6428C-100.551 94.6428 -99.6128 94.8893 -97.3305 95.9883C-94.9648 97.1651 -94.5561 97.5313 -94.3115 98.7108C-93.6986 101.804 -92.6394 100.626 -92.4754 96.6375C-92.3114 92.815 -90.9269 89.6004 -87.6633 85.4911C-83.7061 80.6125 -80.0769 78.742 -74.9772 78.9886C-73.3911 79.0664 -71.598 79.3493 -70.9851 79.5959ZM-30.1955 83.622C-30.1148 83.8258 -30.1552 85.2916 -30.2788 86.8785C-30.5638 90.173 -30.4831 90.6586 -29.7062 90.6586C-29.3406 90.6586 -29.096 89.7192 -28.932 87.69C-28.768 86.0629 -28.483 84.4758 -28.319 84.2346C-27.8701 83.5028 -22.6924 85.4548 -22.937 86.2241C-23.0177 86.5484 -23.4263 87.9724 -23.7919 89.4387C-24.2006 90.905 -24.6898 92.0417 -24.8941 91.9989C-25.0581 91.9613 -26.3619 91.7176 -27.7491 91.4334C-29.6659 91.026 -30.9294 91.0253 -32.8488 91.3497C-34.2763 91.5963 -35.4592 91.7563 -35.4995 91.7161C-35.5398 91.6786 -35.7038 90.009 -35.8651 88.0146C-36.1097 84.8006 -36.0694 84.356 -35.3758 83.8681C-34.6016 83.2971 -30.4831 83.1342 -30.1955 83.622ZM-37.4163 87.69C-37.2119 89.6844 -37.048 91.5122 -37.048 91.8365C-37.048 92.2038 -38.0292 92.6952 -39.618 93.1402C-42.7606 94.0355 -42.8412 93.9531 -42.8009 88.868L-42.7606 85.2503L-41.1288 84.7634C-37.7819 83.7072 -37.7819 83.704 -37.4163 87.69ZM-44.1451 88.868C-43.6155 92.4064 -43.6155 93.5067 -44.0644 93.9517C-44.2687 94.1554 -46.1452 94.4026 -48.2259 94.4857L-52.0191 94.6794L-51.7745 92.9727C-51.6105 92.0345 -51.3659 90.533 -51.2449 89.6376L-51.0406 87.9675L-47.9006 86.9989C-46.1882 86.428 -44.7607 85.9824 -44.6801 86.0199C-44.6344 86.0628 -44.3897 87.324 -44.1451 88.868ZM92.4557 86.0199C92.4557 86.1888 92.2513 87.4865 92.0067 88.9099L91.5578 91.5119L88.2135 91.2345C86.4204 91.1085 84.9096 90.9474 84.8693 90.9099C84.8289 90.9099 84.9096 89.7668 84.9929 88.3864L85.1945 85.9466L88.8264 85.8262C90.8239 85.7806 92.4557 85.8564 92.4557 86.0199ZM-19.0605 88.1769C-16.0416 90.3348 -15.9206 90.6167 -16.3292 94.0773L-16.6545 97.1663L-19.6735 95.1245C-21.3456 94.0308 -22.8537 93.0531 -23.0984 92.9727C-23.671 92.8091 -21.5902 86.9989 -20.937 86.9989C-20.773 87.0016 -19.9181 87.5282 -19.0605 88.1769ZM87.8049 92.7318C89.1114 92.9784 90.3346 93.2586 90.4986 93.3444C90.8642 93.591 88.6625 98.0631 87.8882 98.6689C87.1946 99.2399 81.2804 99.8514 81.4847 99.3233C83.2375 94.9299 84.544 92.2868 84.9096 92.2868C85.1542 92.2868 86.4607 92.4906 87.8049 92.7318ZM-25.7087 93.669C-22.9774 94.8109 -19.3455 96.9199 -17.6733 98.3862C-16.6948 99.2386 -16.4502 99.8525 -16.2459 101.847C-15.9609 104.653 -14.7781 109.937 -13.8398 112.58C-12.8613 115.266 -13.0253 115.146 -15.063 111.642C-17.3078 107.82 -21.5499 103.432 -24.4049 102.046C-26.0367 101.234 -27.0555 101.03 -29.6256 101.03C-32.6445 101.03 -32.8892 101.113 -33.8274 102.166C-35.0102 103.555 -35.1312 105.829 -34.1123 108.8C-33.0935 111.847 -29.0126 115.716 -24.6092 117.831C-22.6924 118.721 -20.3267 119.699 -19.3455 119.946C-18.4073 120.187 -17.6734 120.469 -17.7137 120.511C-17.797 120.589 -19.6331 120.434 -21.7542 120.145C-23.8753 119.821 -27.5851 119.656 -29.9912 119.742L-34.357 119.899L-37.091 116.972C-40.0669 113.758 -41.903 110.874 -42.5966 108.349C-42.8816 107.29 -42.9622 104.773 -42.7606 100.988L-42.473 95.2553L-39.782 94.6061C-38.2738 94.2818 -36.0291 93.7106 -34.8059 93.3863C-31.3783 92.4481 -28.4427 92.5699 -25.7087 93.669ZM-44.1047 95.5381C-43.6988 95.5381 -43.9838 100.175 -44.4327 100.91C-44.5537 101.073 -45.4919 101.233 -46.5538 101.271C-47.613 101.271 -49.4491 101.44 -50.5916 101.601L-52.753 101.883L-52.7127 100.459C-52.589 96.6369 -52.2234 96.271 -47.941 95.826C-47.0027 95.7429 -46.0645 95.5393 -45.9436 95.3757C-45.7796 95.2122 -45.414 95.208 -45.086 95.3286C-44.7983 95.4573 -44.3494 95.5381 -44.1047 95.5381ZM-44.594 105.014V107.58L-47.7367 108.349C-49.4921 108.757 -51.1212 109.167 -51.3659 109.245C-51.8551 109.448 -52.1401 108.637 -52.5487 105.627C-52.8337 103.836 -52.753 103.716 -51.8955 103.47C-51.0809 103.266 -47.0834 102.694 -45.0833 102.496C-44.758 102.453 -44.594 103.229 -44.594 105.014ZM22.299 103.145C22.299 103.349 22.1754 103.876 22.0544 104.407L21.7694 105.344L21.1565 104.449C20.6672 103.717 20.6269 103.51 21.1161 103.229C21.8097 102.779 22.299 102.781 22.299 103.145ZM-43.0859 111.606L-42.2283 113.229L-45.2473 114.695L-48.2663 116.203L-49.0405 115.103C-50.2233 113.433 -51.1616 111.402 -50.9572 111.035C-50.8336 110.872 -49.3658 110.303 -47.6533 109.815C-45.9812 109.287 -44.594 108.68 -44.5537 108.433C-44.5537 108.152 -44.3897 108.391 -44.2284 108.962C-44.0241 109.527 -43.5348 110.71 -43.0859 111.606ZM111.056 108.758C111.177 109.082 110.975 110.752 110.607 112.459L109.913 115.548L108.69 115.307C107.997 115.181 106.895 115.061 106.244 115.061H105.018L105.306 111.883C105.467 110.176 105.671 108.637 105.795 108.433C105.876 108.27 107.059 108.15 108.405 108.15C110.198 108.15 110.892 108.307 111.056 108.758ZM103.795 112.213L103.674 115.182L100.002 115.92C98.0043 116.322 96.2085 116.684 96.0876 116.684C95.6789 116.684 97.3107 111.275 97.8403 110.747C98.6145 110.015 103.225 108.55 103.591 108.915C103.755 109.081 103.876 110.591 103.795 112.213ZM57.9889 110.752C57.255 111.281 57.1743 111.281 57.0507 110.752C56.97 110.423 57.0104 109.858 57.1744 109.491C57.3787 108.882 57.4594 108.882 58.0696 109.491C58.7228 110.142 58.7228 110.224 57.9889 110.752ZM116.236 109.732C117.255 110.182 118.153 110.669 118.274 110.873C118.478 111.197 116.032 117.705 115.583 118.155C115.502 118.233 114.32 117.704 112.973 116.972C111.016 115.956 110.607 115.589 111.016 115.182C111.301 114.9 111.871 113.397 112.279 111.81C113.137 108.596 113.341 108.512 116.236 109.732ZM122.315 113.108C124.597 114.652 124.68 115.18 123.253 118.276C122.11 120.675 122.191 122.465 123.333 120.962C123.659 120.511 124.393 119.17 124.925 117.988L125.903 115.873L128.554 117.784C131.49 119.947 131.449 119.741 130.35 124.784L129.941 126.815L127.412 125.595C126.024 124.946 124.637 124.422 124.352 124.422C123.538 124.422 122.516 123.241 122.804 122.585C123.089 121.772 122.315 121.409 121.621 121.977C121.008 122.505 119.296 121.692 117.5 120.025L116.645 119.213L118.193 116.04C119.091 114.25 119.785 112.578 119.785 112.297C119.785 111.565 120.194 111.69 122.315 113.108ZM-36.642 120.066C-36.642 120.265 -37.7819 120.793 -39.169 121.166C-42.188 121.978 -43.1665 121.69 -45.5726 119.213L-47.121 117.585L-46.1828 116.972C-45.6532 116.605 -44.387 115.872 -43.4085 115.344L-41.6154 114.328L-39.126 116.972C-37.7819 118.438 -36.642 119.82 -36.642 120.066ZM109.629 117.218C111.341 117.746 113.341 118.927 117.745 121.977C118.766 122.669 119.825 123.4 120.11 123.564C120.519 123.805 120.315 124.987 119.212 129.051C118.438 131.9 117.419 134.829 116.97 135.558C115.462 137.998 112.32 140.481 108.322 142.432L104.448 144.343L101.674 143.124C100.166 142.432 96.8215 141.339 94.2111 140.647C91.5578 139.993 89.3964 139.384 89.3561 139.344C89.3157 139.301 91.0282 139.265 93.1896 139.265C99.0232 139.222 104.04 137.716 107.139 135.113C108.69 133.816 110.282 131.164 110.607 129.218C110.852 127.83 110.771 127.548 109.588 126.448C107.916 124.904 104.368 123.845 101.878 124.129C97.7166 124.622 92.6599 127.14 88.3775 130.804C86.4204 132.512 86.1758 132.347 87.9286 130.516C88.9877 129.417 93.0686 122.993 94.0471 120.878L94.9854 118.805L98.3296 117.956C100.125 117.506 102.002 117.061 102.448 116.941C104.284 116.566 107.956 116.733 109.629 117.218ZM158.738 120.349C162.736 122.26 165.631 126.288 167.303 132.145C168.322 135.726 168.322 140.478 167.263 142.558C166.489 144.102 166.405 146.38 167.099 146.38C167.303 146.38 167.752 145.852 168.121 145.16C168.895 143.694 170.037 143.328 173.871 143.328C176.277 143.328 177.134 143.532 179.132 144.548C181.987 146.014 185.374 149.75 187.452 153.862L188.839 156.547L187.452 159.233C185.374 163.337 181.987 167.081 179.132 168.547C177.134 169.563 176.277 169.767 173.871 169.767C170.037 169.767 168.895 169.401 168.121 167.935C167.752 167.243 167.303 166.715 167.099 166.715C166.405 166.715 166.489 168.993 167.263 170.542C168.322 172.609 168.322 177.374 167.303 180.95C165.061 188.839 160.451 193.437 154.332 193.887L151.926 194.086L152.211 191.892C152.701 188.595 152.539 187.092 151.437 184.285C148.991 178.066 141.361 170.376 133.856 166.636C129.084 164.234 122.151 162.929 118.887 163.825C117.339 164.275 116.89 164.233 115.134 163.458L113.177 162.647L114.645 161.469C115.787 160.531 116.481 160.292 117.46 160.453C118.193 160.531 120.763 160.819 123.253 161.06C128.635 161.588 132.92 162.895 137.243 165.374C144.706 169.682 146.991 170.495 152.007 170.495C155.066 170.495 155.8 170.375 158.126 169.238C161.185 167.815 162.163 167.04 163.591 164.888C165.061 162.73 165.018 160.531 163.47 158.987C162.327 157.851 160.37 157.034 159.881 157.485C159.757 157.605 160.33 158.38 161.185 159.149C162.572 160.452 162.696 160.772 162.491 162.113C161.962 165.287 157.432 168.255 152.539 168.662C148.542 168.987 145.359 167.887 138.711 163.987C133.041 160.652 127.452 159.022 121.538 158.982C118.927 158.982 118.478 158.7 119.581 157.762C119.906 157.481 120.194 156.95 120.194 156.542C120.194 156.135 119.906 155.604 119.581 155.322C118.478 154.384 118.927 154.102 121.538 154.102C127.452 154.06 133.041 152.442 138.711 149.108C145.359 145.202 148.542 144.103 152.539 144.427C157.432 144.829 161.962 147.801 162.491 150.966C162.696 152.312 162.572 152.637 161.185 153.94C160.33 154.709 159.757 155.484 159.881 155.605C160.37 156.055 162.327 155.244 163.47 154.102C165.018 152.558 165.061 150.36 163.591 148.207C162.163 146.049 161.185 145.275 158.126 143.851C155.8 142.709 155.066 142.59 152.007 142.59C146.991 142.59 144.706 143.407 137.243 147.715C132.92 150.197 128.635 151.501 123.253 152.029C120.763 152.27 118.193 152.556 117.46 152.636C116.481 152.8 115.787 152.559 114.645 151.621L113.177 150.443L115.134 149.626C116.89 148.851 117.339 148.815 118.887 149.26C122.151 150.155 129.084 148.852 133.856 146.453C141.361 142.711 148.991 135.029 151.437 128.804C152.539 125.998 152.701 124.492 152.211 121.197L151.926 119.004L154.332 119.208C155.679 119.294 157.556 119.778 158.738 120.349ZM-9.59769 122.182C-9.10842 123.197 -9.06809 123.199 -10.9849 122.585C-11.5145 122.421 -11.5548 122.261 -11.1489 121.773C-10.4553 120.921 -10.1273 120.997 -9.59769 122.182ZM123.987 125.27C124.272 125.512 125.576 126.287 126.922 127.019C129.573 128.523 129.616 128.605 128.718 131.982L128.269 133.689L124.516 131.899C120.438 129.944 120.479 129.988 121.417 126.532C121.866 124.785 122.885 124.297 123.987 125.27ZM122.559 132.59C123.578 133.078 125.129 133.891 125.984 134.422L127.535 135.396L126.312 137.841C125.619 139.181 124.965 140.281 124.801 140.281C124.637 140.281 123.293 139.423 121.742 138.37C119.621 136.981 118.806 136.616 118.478 136.946C118.193 137.227 118.072 137.473 118.193 137.553C122.436 140.805 123.454 141.667 123.454 141.951C123.454 142.155 122.516 143.045 121.333 143.94L119.255 145.605L116.89 143.296L114.524 140.977L116.277 139.019C117.255 137.92 118.562 135.849 119.212 134.385C119.866 132.925 120.438 131.742 120.519 131.742C120.6 131.742 121.497 132.145 122.559 132.59ZM-45.5726 138.815L-43.7392 141.296L-45.2876 141.579C-46.1452 141.7 -47.9786 141.904 -49.4061 141.987L-52.0164 142.108L-52.7503 140.113C-54.0138 136.819 -53.9735 136.454 -52.3417 136.213C-51.5675 136.087 -50.14 136.088 -49.1615 136.171C-47.5323 136.294 -47.2474 136.496 -45.5726 138.815ZM-54.2208 140.239C-53.6509 141.662 -53.202 142.843 -53.2423 142.883C-55.729 143.856 -58.463 145.69 -59.8905 147.317C-61.9712 149.596 -61.8072 149.631 -64.7455 146.422C-67.3962 143.615 -67.3962 143.615 -65.2751 141.621C-64.2563 140.648 -63.2347 139.872 -63.0331 139.872C-62.8288 139.872 -61.9712 140.888 -61.1567 142.108C-59.3609 144.673 -58.6673 145.321 -58.0974 144.956C-57.8124 144.83 -58.3017 143.693 -59.2399 142.192C-60.1378 140.803 -60.912 139.422 -60.9927 139.097C-61.1567 138.328 -56.3849 136.496 -55.772 137.15C-55.5274 137.431 -54.8338 138.815 -54.2208 140.239ZM81.974 138.689C81.7697 138.893 81.2804 138.976 80.8718 138.815C80.2185 138.568 80.2185 138.492 80.8718 137.757C81.525 137.066 81.646 137.065 81.974 137.673C82.1783 138.084 82.1783 138.491 81.974 138.689ZM-68.3747 141.904C-69.8022 143.491 -72.4126 147.15 -74.125 150.04C-75.8778 152.929 -77.5499 155.368 -77.7973 155.448C-78.4908 155.735 -78.3268 157.239 -77.5526 157.888C-77.2273 158.134 -75.5955 160.616 -73.9234 163.38C-72.2916 166.109 -69.7619 169.647 -68.3344 171.186C-66.9069 172.778 -65.9687 174.034 -66.294 174.034C-69.1087 174.034 -76.4101 172.079 -78.4478 170.825C-82.4453 168.342 -86.5235 163.625 -88.2789 159.395L-89.5021 156.547L-88.2789 153.699C-86.5262 149.469 -82.4453 144.747 -78.4478 142.265C-76.3671 140.968 -70.0872 139.261 -66.6999 139.092C-65.8854 139.06 -66.0897 139.464 -68.3747 141.904ZM115.462 143.982C117.379 146.338 117.46 146.5 116.685 146.945C115.623 147.559 112.36 148.82 111.79 148.82C111.381 148.82 107.548 146.421 106.61 145.563C106.405 145.405 107.671 144.591 109.384 143.736C111.096 142.884 112.564 142.018 112.688 141.82C113.096 141.209 113.462 141.5 115.462 143.982ZM-40.0266 145.364C-37.8249 147.318 -31.7063 151.747 -29.9508 152.6C-28.7277 153.171 -30.8084 152.563 -33.5827 151.547C-39.9029 149.146 -46.3898 149.263 -50.2233 151.788C-52.2207 153.171 -53.9762 155.365 -53.9762 156.542C-53.9762 157.719 -52.2207 159.921 -50.2233 161.301C-46.3898 163.818 -39.9029 163.944 -33.5827 161.542C-30.8084 160.526 -28.7277 159.921 -29.9508 160.49C-31.7063 161.342 -37.8249 165.774 -40.0266 167.725C-42.7606 170.207 -43.4515 170.367 -48.5915 169.558C-54.8311 168.542 -57.5651 166.667 -61.9282 160.322L-64.5789 156.542L-61.9282 152.757C-60.5007 150.647 -58.5033 148.212 -57.5221 147.317C-54.8311 144.83 -50.0163 143.286 -44.6747 143.16C-42.5563 143.12 -42.3923 143.209 -40.0266 145.364ZM-63.3181 152.155C-64.9095 154.637 -65.6434 155.286 -66.5816 155.045C-67.0306 154.919 -67.4392 154.595 -67.4392 154.354C-67.4392 154.107 -67.9688 153.333 -68.5817 152.642C-71.4367 149.511 -71.5604 149.306 -70.7835 148.087C-70.4179 147.478 -69.7216 146.499 -69.2753 145.893L-68.4608 144.83L-65.4821 147.841L-62.4632 150.851L-63.3181 152.155ZM-70.8641 152.155C-70.1705 152.887 -68.9474 154.109 -68.1301 154.841C-67.3156 155.61 -66.622 156.344 -66.622 156.547C-66.622 156.751 -67.2752 157.49 -68.1301 158.259C-68.9447 158.991 -70.2512 160.249 -70.9851 161.018C-72.2916 162.364 -72.4126 162.412 -72.8615 161.72C-73.1465 161.313 -73.9637 160.045 -74.6573 158.903C-76.0445 156.831 -76.2891 155.942 -75.6359 155.532C-75.3912 155.406 -74.6573 154.312 -73.9637 153.087C-73.2701 151.867 -72.5362 150.851 -72.3722 150.851C-72.2083 150.848 -71.5147 151.463 -70.8641 152.155ZM-22.1601 156.139C-21.6305 156.506 -21.6305 156.589 -22.1601 156.956C-23.1387 157.604 -23.7919 157.443 -23.7919 156.547C-23.7919 155.652 -23.1387 155.49 -22.1601 156.139ZM-64.9472 158.663C-64.5386 159.191 -63.8046 160.205 -63.3154 160.94L-62.4578 162.238L-65.4364 165.249L-68.4151 168.223L-69.2726 167.16C-69.7216 166.594 -70.4152 165.622 -70.8238 165.008C-71.5577 163.826 -71.4367 163.584 -68.5817 160.453C-67.9688 159.761 -67.4392 158.988 -67.4392 158.741C-67.4392 158.46 -67.1139 158.133 -66.7053 158.055C-66.337 157.929 -65.9311 157.852 -65.8881 157.809C-65.8047 157.812 -65.3961 158.177 -64.9472 158.663ZM-95.4191 163.746C-95.3384 164.395 -95.1341 165.575 -94.9701 166.39C-94.8492 167.243 -93.9513 168.949 -92.9297 170.338C-89.2575 175.297 -81.7948 179.525 -73.1465 181.557C-66.7026 183.067 -57.9737 182.171 -54.1375 179.568C-53.159 178.919 -52.382 178.754 -50.7933 178.84L-48.6722 179.002L-49.5701 180.547C-50.468 182.096 -50.5083 182.096 -56.4226 183.557C-63.439 185.305 -67.0279 185.431 -73.7567 184.212C-78.7731 183.274 -81.9157 183.191 -85.0557 183.845C-91.5829 185.228 -96.8036 190.311 -96.8036 195.353C-96.8036 197.715 -96.3143 198.643 -94.7631 199.452C-93.4593 200.149 -90.521 200.311 -90.7656 199.657C-90.8059 199.453 -91.7039 198.849 -92.7227 198.363C-94.3948 197.511 -94.5588 197.304 -94.6798 195.719C-94.9648 191.814 -91.0909 187.667 -85.4213 185.877C-83.2599 185.185 -78.6494 185.344 -73.5524 186.275C-67.5575 187.374 -62.0089 187.176 -56.6242 185.667C-52.503 184.49 -51.9734 184.405 -52.667 185.097C-53.5246 185.954 -53.2396 187.375 -52.1374 187.987C-51.1185 188.515 -51.2395 188.595 -56.0946 190.997C-61.3959 193.64 -65.2321 196.644 -68.0871 200.431C-70.1275 203.074 -73.0631 206.084 -74.9799 207.384C-79.956 210.802 -87.5827 210.766 -90.4807 207.311C-91.7038 205.85 -91.7442 205.149 -90.6447 203.358C-90.072 202.425 -89.9511 201.854 -90.236 201.567C-91.2549 200.552 -93.7846 204.544 -93.3356 206.536C-93.0507 207.839 -91.1339 209.793 -89.0532 210.892C-87.9106 211.5 -86.7278 211.662 -83.3432 211.662C-79.2651 211.662 -78.8968 211.58 -76.2058 210.274C-73.2271 208.808 -70.1275 206.002 -65.2348 200.311C-62.0115 196.569 -58.8716 194.333 -52.8767 191.484C-48.3092 189.286 -47.82 189.128 -46.5538 189.573C-44.5134 190.222 -44.4731 190.469 -46.0645 191.892C-47.0431 192.788 -48.0619 193.276 -49.1641 193.437C-56.3849 194.249 -64.7052 201.694 -69.4366 211.614C-71.9663 216.903 -72.8642 220.194 -72.8642 224.269C-72.8642 227.598 -72.4556 229.064 -70.7028 231.666L-69.8049 233.012L-70.9878 233.457C-72.9449 234.269 -76.9424 234.396 -79.3081 233.661C-82.491 232.766 -84.9374 230.976 -87.6284 227.598C-90.9323 223.494 -92.3195 220.28 -92.4808 216.457C-92.6447 212.474 -93.7039 211.288 -94.3169 214.384C-94.5615 215.561 -94.9701 215.932 -97.3358 217.112C-99.6209 218.211 -100.559 218.457 -102.637 218.457C-104.024 218.414 -105.777 218.254 -106.554 218.007C-108.675 217.358 -113.081 214.59 -115.447 212.389L-117.568 210.436L-117.2 207.588C-116.425 201.651 -114.264 196.813 -111.366 194.615C-109.654 193.312 -105.901 191.929 -104.024 191.929C-103.167 191.929 -102.352 192.258 -101.903 192.746C-101.495 193.191 -101.005 193.437 -100.801 193.311C-100.188 192.949 -100.841 191.038 -101.903 190.06C-104.514 187.661 -105.981 182.376 -105.696 176.395C-105.492 172.045 -104.433 169.154 -101.944 166.39C-100.637 164.967 -96.9272 162.647 -95.9487 162.647C-95.7847 162.647 -95.5401 163.132 -95.4191 163.746ZM-59.8501 165.861C-58.463 167.405 -55.6886 169.239 -53.2423 170.212C-53.0783 170.295 -55.2827 175.379 -55.729 175.95C-56.0139 176.312 -56.6269 176.232 -58.3796 175.584C-59.6862 175.133 -60.826 174.645 -60.99 174.484C-61.154 174.321 -60.5007 172.897 -59.4818 171.27C-58.42 169.562 -57.85 168.259 -58.0947 168.139C-58.6646 167.772 -59.3582 168.43 -61.154 170.992C-61.9685 172.212 -62.8261 173.228 -63.0304 173.228C-63.2347 173.228 -64.2536 172.457 -65.2724 171.479C-66.6999 170.096 -67.0682 169.567 -66.7806 169.039C-66.3316 168.265 -62.1298 163.872 -61.8449 163.872C-61.7266 163.869 -60.8287 164.762 -59.8501 165.861ZM114.075 165.008C117.745 166.431 117.704 166.391 115.908 168.584C115.013 169.645 114.075 170.783 113.83 171.107C113.462 171.595 113.137 171.558 111.79 170.662C110.892 170.134 109.301 169.274 108.201 168.751C107.099 168.258 106.405 167.729 106.569 167.568C107.507 166.716 111.381 164.27 111.79 164.27C112.035 164.272 113.053 164.601 114.075 165.008ZM121.742 169.442C122.68 170.212 123.454 170.986 123.454 171.149C123.454 171.431 122.436 172.285 118.193 175.542C118.072 175.62 118.193 175.87 118.478 176.154C118.806 176.484 119.621 176.111 121.742 174.73C123.293 173.677 124.637 172.819 124.801 172.819C124.965 172.819 125.619 173.919 126.312 175.264L127.535 177.704L125.984 178.673C124.272 179.731 120.559 181.484 120.438 181.28C120.395 181.202 119.704 179.772 118.887 178.102C118.072 176.437 116.726 174.4 115.951 173.631L114.481 172.249L116.806 169.887C118.073 168.625 119.296 167.688 119.54 167.814C119.785 167.932 120.763 168.668 121.742 169.442ZM109.139 171.065C112.728 172.899 115.502 175.212 116.97 177.573C117.704 178.715 120.804 189.087 120.519 189.285C118.562 190.588 115.747 192.463 113.747 193.803C109.384 196.73 105.263 197.055 98.249 195.144L94.9854 194.248L94.0471 192.175C93.0686 190.103 88.9877 183.672 87.9286 182.578C86.1758 180.745 86.4204 180.588 88.3775 182.296C92.6599 185.96 97.7166 188.48 101.878 188.971C104.368 189.252 107.916 188.196 109.588 186.652C110.771 185.552 110.852 185.262 110.607 183.882C109.505 177.784 102.776 173.918 93.1896 173.84C91.0282 173.84 89.3157 173.797 89.3561 173.756C89.3964 173.714 91.5578 173.107 94.1681 172.458C96.7784 171.766 100.082 170.667 101.51 170.013C102.94 169.364 104.448 168.919 104.857 169.039C105.306 169.152 107.223 170.049 109.139 171.065ZM-45.2876 171.558L-43.7392 171.798L-45.6156 174.322C-47.371 176.761 -47.5727 176.881 -49.2045 176.924C-51.7342 177.002 -53.3256 176.842 -53.6509 176.557C-53.8552 176.311 -53.366 174.486 -52.1428 171.27C-51.9358 170.742 -49.5701 170.823 -45.2876 171.558ZM82.0143 174.4C82.1783 174.604 82.1353 175.091 82.0143 175.458C81.7697 176.072 81.689 176.03 80.9954 175.416C80.3825 174.851 80.3018 174.648 80.7078 174.364C81.4013 173.956 81.7697 173.955 82.0143 174.4ZM129.248 183.432C129.369 184.608 129.207 184.816 126.922 186.076C125.576 186.807 124.272 187.575 123.987 187.819C122.925 188.757 121.866 188.306 121.457 186.72C120.395 182.736 120.11 183.269 124.352 181.275L128.146 179.437L128.635 180.783C128.879 181.52 129.167 182.7 129.248 183.432ZM130.799 190.426C131.084 191.93 131.245 193.232 131.165 193.274C131.084 193.312 129.861 194.247 128.474 195.306L125.903 197.264L124.925 195.112C124.393 193.93 123.659 192.589 123.333 192.138C122.191 190.635 122.11 192.42 123.253 194.824C124.68 197.918 124.597 198.443 122.315 199.95C120.194 201.416 119.785 201.536 119.785 200.761C119.785 200.52 119.091 198.85 118.193 197.06L116.645 193.892L117.5 193.07C119.296 191.4 121.008 190.589 121.621 191.117C122.315 191.688 123.089 191.322 122.804 190.505C122.516 189.862 123.538 188.678 124.352 188.678C124.637 188.678 125.984 188.15 127.331 187.542C130.146 186.199 129.982 186.033 130.799 190.426ZM-9.59769 190.913C-10.1273 192.095 -10.4553 192.177 -11.1489 191.322C-11.5548 190.834 -11.5548 190.673 -11.1058 190.552C-10.6166 190.383 -9.55737 190.055 -9.23208 189.934C-9.14874 189.897 -9.35306 190.35 -9.59769 190.913ZM-36.642 193.028C-36.642 193.275 -37.7819 194.656 -39.1287 196.123L-41.6181 198.761L-43.4112 197.746C-44.3897 197.217 -45.6559 196.487 -46.1855 196.123L-47.1237 195.51L-45.5753 193.887C-43.1665 191.399 -42.1907 191.117 -39.1717 191.929C-37.7819 192.293 -36.642 192.822 -36.642 193.028ZM-18.2863 192.746C-18.7352 192.909 -20.4074 193.559 -22.0392 194.17C-29.7895 197.019 -34.8059 202.503 -34.8059 208.039C-34.8059 209.301 -34.521 210.111 -33.8274 210.923C-32.8892 211.985 -32.6445 212.065 -29.6256 212.065C-27.0555 212.065 -26.0367 211.861 -24.4049 211.049C-21.5499 209.666 -17.3078 205.275 -15.063 201.447C-13.0253 197.949 -12.8613 197.829 -13.8398 200.515C-14.7781 203.158 -15.9609 208.447 -16.2459 211.248C-16.5308 214.017 -17.1034 214.665 -21.1009 217.065C-26.4856 220.362 -29.7895 220.97 -34.6016 219.75C-35.9484 219.383 -38.2738 218.818 -39.782 218.489L-42.473 217.839L-42.7606 212.107C-42.9622 208.322 -42.8816 205.796 -42.5966 204.745C-41.903 202.223 -40.0669 199.331 -37.091 196.123L-34.357 193.185L-29.9912 193.353C-27.5851 193.436 -23.9559 193.231 -21.9558 192.95C-17.469 192.339 -17.2674 192.295 -18.2863 192.746ZM116.847 197.709C118.642 202.059 118.642 202.142 116.521 203.196C113.462 204.705 113.137 204.542 112.279 201.285C111.871 199.698 111.301 198.197 111.016 197.913C110.607 197.506 110.975 197.181 112.809 196.159C114.075 195.427 115.218 194.862 115.338 194.819C115.462 194.819 116.153 196.122 116.847 197.709ZM100.002 197.18L103.674 197.913L103.795 200.871C103.876 202.498 103.755 204.009 103.591 204.17C103.225 204.537 98.6145 203.072 97.8403 202.337C97.3107 201.809 95.6789 196.4 96.0876 196.4C96.2085 196.405 98.0043 196.773 100.002 197.18ZM-43.2069 201.772C-43.7391 202.833 -44.1881 204.014 -44.1881 204.416C-44.1881 204.909 -44.3091 204.986 -44.5134 204.662C-44.6774 204.38 -46.1048 203.767 -47.6533 203.279C-49.2448 202.835 -50.6723 202.3 -50.8336 202.102C-51.2019 201.772 -50.3443 199.86 -49.0378 197.992L-48.2636 196.897L-45.2446 198.4L-42.2256 199.861L-43.2069 201.772ZM110.607 200.677C111.016 202.342 111.177 204.013 111.056 204.337C110.892 204.782 110.198 204.95 108.405 204.95C107.059 204.95 105.876 204.824 105.795 204.62C105.671 204.456 105.467 202.911 105.306 201.206L105.018 198.075L106.814 197.913C107.792 197.83 108.895 197.744 109.26 197.709C109.793 197.623 110.077 198.276 110.607 200.677ZM58.5615 202.793C58.6422 202.835 58.4782 203.161 58.1932 203.526C57.54 204.338 56.97 203.928 56.97 202.63C56.97 201.692 57.0507 201.653 57.704 202.143C58.0696 202.428 58.4782 202.752 58.5615 202.793ZM-47.7367 204.745L-44.594 205.515V208.08V210.682L-45.9005 210.478C-46.6344 210.358 -48.1453 210.154 -49.2851 210.028C-52.874 209.583 -52.874 209.583 -52.5487 207.468C-52.1401 204.458 -51.8551 203.684 -51.3659 203.85C-51.1212 203.928 -49.4894 204.335 -47.7367 204.745ZM99.8377 205.232C100.776 205.594 102.693 207.024 104.08 208.447C109.709 214.055 120.315 216.902 130.595 215.562C139.24 214.42 144.259 211.82 146.542 207.306C147.439 205.515 147.644 205.352 148.254 205.845C151.558 208.448 153.313 212.14 153.313 216.735C153.354 221.372 150.335 228.165 146.87 231.337C145.644 232.478 144.3 233.413 143.81 233.494C142.993 233.614 141.445 235.61 141.851 236.017C141.974 236.138 142.708 236.018 143.523 235.771C144.789 235.404 145.154 235.484 146.87 236.462C149.276 237.885 151.601 240.608 152.496 243.09C153.394 245.572 153.434 250.775 152.58 254.724L151.886 257.734L149.601 258.75C143.891 261.272 138.262 261.761 134.549 260.053C133.366 259.525 131.49 258.143 130.39 257.001C128.474 255.047 128.35 254.809 128.594 253.299C128.799 252.2 128.718 251.713 128.35 251.713C127.697 251.713 126.352 253.378 126.312 254.273C126.312 255.662 124.557 258.426 122.355 260.498C121.008 261.801 118.683 263.347 116.277 264.566C112.524 266.478 112.199 266.556 109.016 266.556C106.325 266.518 105.306 266.359 103.47 265.503C102.246 264.932 100.776 264.033 100.206 263.545C99.1872 262.693 99.1872 262.697 100.002 262.247C101.798 261.188 104.244 258.216 105.018 256.059C107.139 250.488 107.059 242.359 104.857 234.792C102.693 227.348 98.0043 220.636 93.4745 218.478C92.5793 218.033 91.6411 217.138 91.0282 216.002C90.4583 214.98 90.0093 214.127 90.0093 214.044C90.0093 213.966 90.8238 213.887 91.8024 213.887C93.5175 213.887 93.6788 214.007 98.0043 218.478C103.021 223.687 104.652 226.13 106.61 231.494C109.75 240.195 112.973 244.628 117.868 247.033C121.132 248.577 125.374 248.902 128.025 247.766C131.001 246.42 131.858 243.577 130.062 240.808C129.248 239.55 128.963 239.995 128.963 242.478C128.963 244.389 128.839 244.629 127.535 245.525C126.269 246.383 125.78 246.463 123.21 246.3C119.745 246.053 117.624 245.081 114.849 242.478C112.279 240.076 111.096 237.997 108.935 232.059C106.65 225.754 104.488 222.263 100.327 218.033C98.4533 216.122 96.9424 214.535 96.9424 214.452C96.9424 214.374 97.3914 214.285 97.921 214.285C99.2275 214.285 99.9614 213.312 99.6361 212.049C99.3888 211.111 99.6764 211.236 102.736 213.436C108.65 217.583 111.545 218.759 119.376 220.185C126.393 221.447 129.452 222.793 132.183 225.677C134.673 228.363 135.856 230.924 135.856 233.897C135.896 236.859 135.038 237.881 132.388 238.001C129.982 238.127 129.941 239.143 132.267 239.671C134.264 240.074 135.815 239.463 137.079 237.755C138.506 235.839 138.302 231.856 136.59 228.441C133.856 222.866 128.678 219.693 120.194 218.353C113.096 217.216 109.954 215.953 102.98 211.316C99.3888 208.917 98.5742 208.143 98.3699 207.169C98.2059 206.473 98.0043 205.627 97.921 205.217C97.6763 204.38 97.7166 204.38 99.8377 205.232ZM-54.5891 208.484C-54.7934 210.845 -54.6295 213.12 -53.9762 217.353C-53.4869 220.483 -53.038 223.776 -52.9977 224.672C-52.917 226.626 -52.4681 227.435 -51.6508 227.153C-51.3255 226.99 -48.7152 227.725 -45.8575 228.698C-40.8815 230.411 -38.3115 231.059 -33.7844 231.63L-31.7843 231.871L-33.986 233.295C-39.411 236.712 -44.1021 238.139 -48.6292 237.729C-52.8713 237.322 -55.1564 236.714 -58.5006 235.127L-61.6002 233.661L-62.3745 230.604C-63.2724 227.028 -63.3933 220.073 -62.5788 217.148C-61.8852 214.666 -59.3555 210.519 -56.8285 207.672C-55.686 206.41 -54.6268 205.353 -54.5031 205.353C-54.3794 205.353 -54.4251 206.776 -54.5891 208.484ZM69.2072 209.3C71.5729 210.437 74.7532 211.74 76.3446 212.185C79.119 212.96 79.1996 213.004 80.3018 215.154C81.974 218.411 83.4821 223.453 83.4821 225.651C83.4821 227.886 82.5842 230.65 80.4631 235.043C79.6486 236.713 78.9953 238.295 78.9953 238.624C78.9953 239.026 78.5464 239.112 77.2829 238.949C76.3043 238.828 74.2639 238.625 72.6724 238.499C65.1694 237.85 62.1907 235.983 57.2147 228.74L55.7039 226.577L56.3168 224.18C57.0507 221.416 57.7846 215.84 57.8249 212.672L57.8679 210.431L58.4379 213.4C59.4997 219.259 61.2928 223.403 64.0268 226.379C66.0646 228.571 68.1857 229.709 70.839 230.033C72.6321 230.237 72.9171 230.159 73.8553 229.138C76.1807 226.621 76.1404 221.982 73.694 217.143C72.5111 214.824 68.0243 209.816 65.3307 207.824C63.7419 206.655 64.1075 206.775 69.2072 209.3ZM22.2587 209.703C22.299 210.317 21.9307 210.356 21.1565 209.871C20.6672 209.584 20.6672 209.378 21.1161 208.646C21.6458 207.877 21.6861 207.877 21.9737 208.525C22.0947 208.893 22.2587 209.462 22.2587 209.703ZM-46.5538 211.819C-45.4919 211.861 -44.5537 212.022 -44.4327 212.185C-44.3091 212.389 -44.1048 213.65 -43.9435 215.033C-43.6558 217.676 -43.8198 217.883 -45.8199 217.593C-46.1452 217.556 -47.1667 217.429 -48.0619 217.311C-52.3041 216.74 -52.589 216.458 -52.7127 212.63L-52.753 211.217L-50.5916 211.494C-49.4491 211.655 -47.613 211.819 -46.5538 211.819ZM87.8882 214.421C88.7028 215.075 90.8642 219.509 90.4986 219.75C90.0496 220.037 84.7053 220.932 84.544 220.766C84.3397 220.562 81.4417 213.774 81.4417 213.567C81.4417 213.246 87.399 214.019 87.8882 214.421ZM16.7504 215.604C16.5891 215.885 16.0998 216.621 15.6912 217.232C11.6533 223.049 10.1452 231.179 12.2636 235.656C13.5298 238.462 15.5272 240.08 17.159 239.755C23.1566 238.536 26.5815 229.342 24.5411 219.829C23.8905 216.698 23.9711 215.841 24.7454 218.243C25.5223 220.642 28.6622 226.783 30.2537 228.981L31.6409 230.928L30.2537 235.331C28.8262 239.88 27.3557 242.566 25.2776 244.483C24.6244 245.126 21.8904 246.714 19.1994 248.012L14.3443 250.415L10.5511 246.593C5.24979 241.264 4.59655 239.715 4.47289 232.923C4.47289 230.033 4.51589 227.351 4.63686 226.944C4.76053 226.499 6.26867 225.076 8.02413 223.693C9.7769 222.352 12.4276 219.865 13.9787 218.201C16.7504 215.153 17.323 214.625 16.7504 215.604ZM-16.7351 222.923C-17.5927 223.896 -20.5283 226.096 -20.937 226.096C-21.5902 226.096 -23.671 220.278 -23.0984 220.117C-22.8537 220.039 -21.3456 219.059 -19.6735 217.96L-16.6545 215.928L-16.3292 219.017C-16.0012 221.703 -16.0846 222.189 -16.7351 222.923ZM-44.0644 219.143C-43.6558 219.545 -43.6155 220.884 -43.9435 222.436C-44.0644 223.002 -44.2687 224.274 -44.3897 225.29L-44.6344 227.117L-47.8173 226.101L-51.0406 225.085L-51.2449 223.457C-51.3686 222.562 -51.6105 221.058 -51.7745 220.122L-52.0191 218.415L-48.2259 218.62C-46.1452 218.695 -44.2687 218.939 -44.0644 219.143ZM-37.048 221.258C-37.048 221.583 -37.2119 223.411 -37.4163 225.363C-37.7819 229.346 -37.7415 229.346 -40.9245 228.373L-42.7606 227.844L-42.8009 224.227C-42.8412 219.144 -42.7606 219.059 -39.618 219.955C-38.0292 220.4 -37.048 220.886 -37.048 221.258ZM-23.7516 223.776C-23.3833 225.165 -23.0177 226.541 -22.937 226.871C-22.6924 227.64 -27.8701 229.595 -28.319 228.86C-28.483 228.619 -28.768 227.032 -28.932 225.405C-29.096 223.373 -29.3406 222.436 -29.7062 222.436C-30.4831 222.436 -30.5638 222.924 -30.2788 226.216C-30.1552 227.803 -30.1148 229.27 -30.1955 229.431C-30.4401 229.919 -34.357 229.798 -35.2952 229.31C-36.0694 228.903 -36.1097 228.619 -35.8651 225.164C-35.7038 223.127 -35.5398 221.422 -35.4995 221.379C-35.4592 221.296 -34.6823 221.421 -33.787 221.625C-31.502 222.153 -29.2169 222.109 -26.8512 221.452C-25.7087 221.17 -24.7301 221.008 -24.6495 221.085C-24.5258 221.174 -24.1602 222.396 -23.7516 223.776ZM92.0067 224.185C92.2513 225.608 92.4557 226.909 92.4557 227.075C92.4557 227.233 90.8239 227.317 88.7861 227.279L85.1139 227.153V225.525C85.1139 224.592 84.9929 223.453 84.8693 222.965C84.6246 222.153 84.7886 222.071 86.786 221.907C92.09 221.54 91.5174 221.293 92.0067 224.185ZM-15.4716 225.525C-14.6141 227.723 -15.5926 229.676 -21.1413 236.63C-23.0177 238.948 -26.6066 242.08 -29.0126 243.42C-35.0102 246.798 -36.4377 247.775 -38.5588 249.928C-41.2901 252.697 -43.1665 255.953 -43.6988 258.886C-44.758 264.78 -42.352 270.022 -38.5991 270.022C-36.9673 270.022 -34.2763 268.56 -34.521 267.833C-34.6823 267.34 -35.0102 267.336 -37.2523 267.907C-39.7013 268.478 -41.0455 267.175 -41.6987 263.634C-42.8009 257.78 -39.0481 251.315 -32.4402 247.65C-24.7705 243.383 -20.8563 240.005 -17.2244 234.598L-15.063 231.384L-14.5334 232.651C-14.0441 233.827 -13.8802 233.912 -12.536 233.708C-11.7591 233.582 -11.1488 233.581 -11.2295 233.745C-15.9206 243.347 -16.5308 245.581 -16.4905 253.106C-16.4502 261.812 -17.7137 266.205 -21.2219 269.781C-24.2812 272.912 -29.3406 274.257 -31.1337 272.467C-31.5826 272.022 -31.9509 271.294 -31.9509 270.849C-31.9509 269.624 -31.9913 269.461 -32.4402 268.933C-33.1338 268.12 -33.5827 268.73 -33.5827 270.472C-33.5827 273.933 -31.623 275.561 -27.7491 275.231C-24.8941 274.99 -22.1198 273.568 -19.7541 271.043C-15.8803 266.939 -14.9017 263.807 -14.6974 254.326C-14.4931 246.316 -13.7995 243.511 -10.3719 236.185C-8.53851 232.201 -8.33421 231.917 -6.66208 231.263L-4.94695 230.614L-5.19157 232.729C-5.39587 234.238 -5.80451 235.169 -6.66208 236.064C-8.53851 238.018 -9.92297 240.949 -10.9849 245.095C-14.2888 258.19 -8.25087 276.091 0.394714 278.812C1.6609 279.22 2.72011 279.746 2.72011 279.99C2.72011 280.969 0.190414 283.935 -1.64301 285.069C-4.74531 287.023 -7.15135 287.634 -10.6999 287.388C-16.6545 286.943 -21.8752 284.948 -24.4452 282.142C-25.2194 281.289 -25.8324 280.429 -25.8324 280.231C-25.8324 280.027 -26.1577 279.787 -26.5259 279.618C-26.9346 279.498 -27.5045 279.252 -27.7491 279.131C-28.483 278.807 -28.4024 280.026 -27.6685 281.163C-27.0959 282.021 -27.0959 282.304 -27.7088 283.891C-29.3809 288.198 -32.2762 291.006 -36.3141 292.225C-38.6394 292.917 -46.3898 293.409 -47.613 292.964C-48.6319 292.556 -51.5299 287.713 -52.6294 284.582C-54.1375 280.309 -54.0972 277.381 -52.425 274.006C-50.8336 270.754 -49.4464 269.414 -47.8576 269.535C-47.2044 269.572 -46.5538 269.413 -46.3898 269.126C-45.9812 268.478 -47.6963 267.419 -49.2851 267.336C-53.5676 267.215 -60.1754 261.687 -63.2347 255.744C-64.2133 253.833 -64.3772 253.103 -64.3772 249.891C-64.3369 247.122 -64.1729 245.858 -63.603 244.808C-62.2562 242.242 -62.2159 242.241 -60.1351 243.949C-57.4844 246.19 -54.6295 247.002 -49.8981 246.959C-41.6987 246.839 -31.7869 242.975 -25.8324 237.603C-22.6494 234.676 -19.9584 230.973 -19.4692 228.818C-19.3052 228.092 -18.5713 226.951 -17.7137 226.216C-16.0012 224.712 -15.7969 224.63 -15.4716 225.525ZM2.80076 231.666L2.67979 235.368L0.109764 235.818C-4.09205 236.55 -3.9684 236.63 -3.68343 233.823C-3.51945 232.44 -3.19416 230.975 -2.98985 230.53C-2.5409 229.713 2.3545 227.235 2.72011 227.682C2.84377 227.803 2.88409 229.592 2.80076 231.666ZM89.52 228.782L92.496 229.064L92.211 230.928C91.8024 233.614 91.3534 234.63 90.5389 234.63C90.1302 234.63 88.3372 234.267 86.5414 233.865C84.1757 233.337 83.3181 232.969 83.4418 232.562C84.6246 228.578 84.9096 228.091 85.7268 228.295C86.1758 228.418 87.8882 228.621 89.52 228.782ZM56.6421 230.693C57.255 231.631 58.2335 232.927 58.8465 233.541C59.7847 234.557 59.8654 234.839 59.4567 235.614C58.8062 236.791 56.1958 239.52 55.7039 239.52C55.2979 239.52 53.0532 236.18 52.6472 234.923C52.3596 234.065 54.4807 228.984 55.1339 228.944C55.3786 228.944 56.0318 229.714 56.6421 230.693ZM96.2489 235.855C99.0635 243.216 97.8 251.393 92.7836 258.226C91.1518 260.419 90.9072 260.587 88.9877 260.828C83.7267 261.442 78.7103 260.665 74.2236 258.593C71.5326 257.29 67.6964 253.792 65.1694 250.294C63.8629 248.466 63.8226 248.382 64.7608 248.666C68.554 249.891 70.511 250.174 76.7533 250.378C80.5868 250.499 83.8907 250.784 84.1757 250.991C84.8289 251.524 86.3371 250.499 86.3371 249.483C86.3371 249.032 86.9903 247.576 87.8049 246.273C90.9072 241.105 92.9852 236.383 93.8831 232.399C94.1278 231.257 94.1681 231.262 94.617 232.001C94.8617 232.444 95.5956 234.19 96.2489 235.855ZM37.0228 236.792C37.4315 237.524 36.8185 241.715 36.168 242.771C35.9233 243.178 35.1894 242.934 33.1087 241.797C31.6409 240.945 30.458 240.049 30.579 239.802C30.6596 239.521 31.1489 238.011 31.6409 236.467C32.1705 234.88 32.6597 233.373 32.7404 233.049C32.864 232.646 33.4743 233.011 34.7808 234.268C35.7997 235.247 36.8185 236.382 37.0228 236.792ZM87.8049 235.734L90.7029 236.467L89.6813 238.787C88.5415 241.473 88.0925 241.632 84.38 240.53C83.1971 240.163 82.0949 239.959 81.9337 240.08C81.7697 240.163 81.3207 240.003 80.9121 239.713C80.2588 239.225 80.2588 239.105 81.0358 237.237C82.2589 234.468 82.5036 234.227 83.8101 234.672C84.4203 234.881 86.2161 235.367 87.8049 235.734ZM63.6182 237.729C64.7608 238.498 65.4947 239.111 65.25 239.111C64.9651 239.111 64.1075 240.372 63.2499 241.959C62.4353 243.503 61.5375 244.813 61.2928 244.813C61.0482 244.813 59.9057 243.99 58.8062 243.012L56.7658 241.274L58.0696 239.808C58.7632 239.033 59.661 237.813 60.0697 237.122C60.4783 236.473 60.9676 235.985 61.1289 236.106C61.3332 236.229 62.4354 236.954 63.6182 237.729ZM3.33304 238.703C3.9836 241.142 4.92183 242.892 6.63697 244.766L8.02413 246.352L5.04549 248.221C0.803345 250.824 0.883995 250.824 -0.258537 248.996C-2.41993 245.535 -2.50058 245.826 0.67968 244.362C3.78198 242.939 4.80084 242.122 3.90295 241.755C3.57767 241.635 2.02653 242.08 0.478065 242.729C-1.11341 243.421 -2.50059 243.828 -2.66457 243.624C-3.11353 243.217 -3.92808 238.665 -3.60279 238.378C-3.27482 238.011 1.57758 236.751 2.27116 236.834C2.63947 236.869 3.0884 237.644 3.33304 238.703ZM52.5236 238.378C53.2172 239.641 53.4618 240.615 53.3812 241.797C53.0935 245.373 55.7469 252.085 59.2551 256.64C63.7419 262.457 71.4493 267.95 77.7318 269.776C80.7508 270.671 84.216 270.594 86.7054 269.613C88.0092 269.125 88.8264 268.96 88.9877 269.242C89.6007 270.18 89.192 274.86 88.3372 277.173C86.665 281.567 80.7911 286.126 74.6725 287.712C71.9385 288.404 69.0836 288.525 67.9814 287.911C67.0458 287.424 64.7204 287.839 64.7204 288.487C64.7204 288.769 65.3307 289.215 66.1076 289.456C67.2904 289.906 67.6561 290.309 68.2287 292.1C69.1239 294.665 69.2072 298.564 68.4303 300.519C67.8604 301.907 65.9436 304.832 64.4328 306.623C64.0268 307.068 62.68 308.25 61.4568 309.183C60.2337 310.116 59.0911 311.053 58.9272 311.257C58.5185 311.827 54.1554 310.526 50.8111 308.859C45.1818 306.009 42.7758 302.717 42.4075 297.267C42.2032 294.257 42.2032 294.136 43.2651 293.482C43.835 293.08 44.3243 292.509 44.3243 292.142C44.3243 291.329 42.1225 291.734 40.6951 292.833C37.3508 295.436 28.4982 295.436 22.912 292.833C18.8714 290.964 15.6912 287.058 15.0782 283.273L14.8336 281.812H17.6483C19.729 281.812 20.9925 281.565 22.5033 280.833C30.7027 277.011 38.6546 264.688 39.8778 253.912C40.2864 250.17 39.8375 245.981 38.8186 243.944C38.3293 243.005 38.2891 242.399 38.6547 240.734C38.8993 239.635 39.2273 238.698 39.3886 238.698C39.5526 238.698 40.2058 239.227 40.8161 239.876C42.2435 241.342 42.3672 242.399 42.4075 250.902L42.4478 257.205L40.0821 264.079L37.7164 270.954L37.8804 275.053C38.0041 278.388 38.2487 279.577 39.1036 281.446C42.6118 289.053 50.5665 291.535 52.3999 285.592C52.9725 283.807 52.3193 282.708 51.5047 284.011C50.1176 286.247 49.545 286.692 48.0368 286.692C46.9776 286.692 45.9561 286.324 44.8136 285.472C41.4693 283.073 39.7568 279.242 39.7165 274.283C39.7165 271.52 39.9208 270.379 41.2247 266.755C44.284 258.295 44.448 257.651 44.448 251.708C44.4883 248.698 44.3646 245.528 44.2033 244.718L43.8753 243.174L45.1415 243.897C46.405 244.593 46.405 244.594 47.3432 243.535L48.2411 242.478L49.424 246.745C51.0155 252.645 53.0129 256.424 57.3356 261.593C61.2525 266.351 63.2096 269.644 63.6989 272.247C64.5564 276.97 63.4139 281.562 60.7633 283.838C59.0911 285.347 57.8249 285.383 56.2361 284.042C53.8301 282.048 53.2172 283.429 55.5023 285.712C56.6421 286.849 57.2147 287.095 58.5615 287.095C59.989 287.095 60.5186 286.849 62.231 285.142C64.7204 282.703 65.9436 279.649 65.9436 275.786C65.9436 270.623 64.1478 266.634 59.2551 260.86C57.3357 258.624 55.0533 255.414 54.1554 253.75C52.6473 250.938 49.6283 241.631 49.6283 239.797C49.6283 238.902 50.7278 236.666 51.1768 236.666C51.3811 236.674 51.9537 237.445 52.5236 238.378ZM69.5325 239.76C70.5514 239.924 71.2046 240.207 71.1239 240.493C71.0406 240.74 70.4707 242.448 69.8578 244.279C69.0432 246.756 68.5539 247.651 68.0647 247.614C66.8818 247.571 63.4946 246.225 63.4542 245.823C63.4542 245.577 64.0269 243.99 64.7608 242.242C65.9033 239.519 66.2286 239.11 66.9625 239.274C67.4114 239.394 68.554 239.6 69.5325 239.76ZM77.0786 240.289C78.4254 240.332 78.4657 240.778 77.3635 243.949C75.8554 248.468 75.8554 248.467 73.53 248.467C72.3875 248.467 71.2449 248.303 71.0003 248.137C70.6347 247.939 70.796 246.755 71.5729 243.87L72.5918 239.881L74.2639 240.085C75.2021 240.206 76.4253 240.289 77.0786 240.289ZM82.0143 241.101C82.1353 241.304 83.4418 241.799 84.8693 242.164L87.4796 242.855L85.9715 245.86L84.501 248.834L81.5653 248.87C77.3232 248.87 77.3635 248.912 78.2211 245.781C78.6297 244.315 78.8313 242.891 78.7104 242.567C78.5867 242.242 78.7104 241.959 78.955 241.959C79.1996 241.959 79.4039 241.674 79.4039 241.347C79.4039 240.701 81.646 240.457 82.0143 241.101ZM35.2701 245.048C35.5147 245.212 33.27 249.239 32.7 249.687C32.4151 249.928 31.4366 249.32 29.6811 247.776C27.7643 246.063 27.0304 245.618 26.6621 245.985C26.3368 246.31 26.8261 247.084 28.7832 249.033L31.3532 251.64L29.2321 253.305C28.0923 254.243 26.9498 254.975 26.7455 254.975C26.4175 254.975 21.8904 249.237 21.8904 248.792C21.8904 248.628 22.8689 247.974 24.0518 247.326C26.2562 246.106 28.5386 243.828 29.3155 242.164C29.7214 241.225 29.7214 241.224 32.4554 243.095C33.9232 244.111 35.2298 245.005 35.2701 245.048ZM10.9597 249.153C12.6319 250.866 12.7959 251.191 12.3469 251.802C12.062 252.204 11.6937 252.535 11.613 252.535C11.4893 252.535 10.1022 253.258 8.59405 254.153L5.81973 255.781L4.06695 254.074C3.08841 253.136 2.31149 252.24 2.31149 252.08C2.31149 251.919 3.49434 251.02 4.92183 250.085C6.39233 249.147 7.7768 248.132 8.06445 247.807C8.75803 247.001 8.879 247.043 10.9597 249.153ZM-1.60268 250.336C-0.0945435 252.698 3.57767 256.477 7.69615 259.854C9.4086 261.278 10.8791 262.738 11.0001 263.106C11.2044 263.923 12.4679 264 13.3658 263.268C13.6938 262.944 15.8955 262.011 18.2612 261.153C23.3179 259.241 26.2965 257.818 28.9472 255.907C30.0494 255.137 31.0279 254.566 31.1086 254.687C31.3532 254.934 29.4364 260.263 28.2133 262.702C26.4605 266.158 24.99 267.785 21.3608 270.184C17.6079 272.666 16.7504 273.073 12.7555 274.132L9.94089 274.865L7.57519 273.273C3.16906 270.263 -1.11341 264.938 -2.46025 260.792C-3.11351 258.714 -3.64312 248.467 -3.11353 248.467C-2.90921 248.467 -2.25594 249.323 -1.60268 250.336ZM22.8286 252.776L25.1943 256.237L22.8286 257.252L20.4629 258.305L19.2397 256.891C14.7529 251.849 14.7529 251.808 17.487 250.425C18.6698 249.811 19.8527 249.326 20.0543 249.326C20.3016 249.323 21.5248 250.865 22.8286 252.776ZM14.6723 253.101C15.0379 253.382 15.3659 253.754 15.3659 253.917C15.3659 254.081 16.0998 255.258 16.9977 256.598L18.5865 258.959L15.3659 260.263L12.1023 261.561L9.65323 259.242L7.24721 256.886L9.57259 255.216C10.8361 254.32 12.1426 253.348 12.4276 253.059C13.1212 252.41 13.7341 252.409 14.6723 253.101Z" fill="#E3B450" fill-opacity="0.45"/>
<path d="M45.8084 79.5691C45.7681 79.8935 44.3406 81.3158 42.6685 82.7419C37.2838 87.2131 33.6143 92.8249 31.0443 100.553C28.3103 108.689 28.1893 113.773 30.391 129.511C31.5335 137.971 32.0228 147.123 31.2889 146.228C30.8399 145.783 28.5549 139.192 27.985 136.709C27.7403 135.693 26.9231 131.872 26.1488 128.17C22.9283 112.921 20.2749 107.225 12.8928 99.5374C8.57003 95.0661 3.63432 91.9307 -2.32027 89.8988C-3.74776 89.4109 -5.01394 88.8391 -5.13492 88.5951C-5.6672 87.8258 -6.68608 88.6382 -6.64576 89.815C-6.64576 90.4289 -6.85006 92.0139 -7.13503 93.3542C-8.3582 99.2971 -7.58397 107.06 -5.01395 114.139C-2.15897 121.95 1.63422 126.95 11.3417 135.573C18.8474 142.285 25.8639 149.525 25.3343 150.013C24.845 150.501 17.2156 145.578 12.1993 141.552C-3.4628 128.94 -11.3368 125.569 -24.4692 125.893C-29.8942 126.056 -32.6282 126.541 -36.9107 128.254C-38.1339 128.742 -39.521 129.106 -40.0506 129.066C-41.1528 128.988 -41.3571 130.208 -40.3356 131.055C-40.0103 131.342 -39.3167 132.322 -38.8678 133.217C-34.7089 141.348 -25.7757 148.668 -15.9446 152.002C-10.6836 153.793 -7.46032 154.16 8.97596 154.809C14.6886 155.055 22.6406 156.11 22.6406 156.641C22.6406 157.172 14.6886 158.232 8.97596 158.479C-7.46032 159.127 -10.6836 159.494 -15.9446 161.285C-25.7757 164.62 -34.7089 171.94 -38.8678 180.075C-39.3167 180.965 -40.0103 181.943 -40.3356 182.227C-41.3571 183.079 -41.1528 184.305 -40.0506 184.222C-39.521 184.179 -38.1339 184.545 -36.9107 185.033C-32.6282 186.746 -29.8942 187.231 -24.4692 187.394C-11.3368 187.719 -3.4628 184.342 12.1993 171.735C17.2156 167.709 24.845 162.787 25.3343 163.274C25.8639 163.762 18.8474 171.002 11.3417 177.714C1.63422 186.337 -2.15897 191.337 -5.01395 199.148C-7.58397 206.227 -8.3582 213.996 -7.13503 219.933C-6.85006 221.273 -6.64576 222.861 -6.64576 223.472C-6.68608 224.649 -5.6672 225.461 -5.13492 224.692C-5.01394 224.445 -3.74776 223.874 -2.32027 223.388C3.63432 221.357 8.57003 218.226 12.8928 213.75C20.2749 206.065 22.9283 200.369 26.1488 185.117C26.9231 181.415 27.7403 177.594 27.985 176.578C28.5549 174.096 30.8399 167.505 31.2889 167.06C32.0228 166.164 31.5335 175.306 30.391 183.766C28.1893 199.509 28.3103 204.594 31.0443 212.724C33.6143 220.457 37.2838 226.072 42.6685 230.54C44.3406 231.964 45.7681 233.388 45.8084 233.713C46.0127 234.565 47.7279 234.366 47.7279 233.519C47.7682 233.189 48.6231 231.352 49.6446 229.441C53.3142 222.771 54.497 217.975 54.497 209.917C54.497 201.096 53.0695 196.218 47.0343 184.745C44.9938 180.802 42.6685 176.405 41.9346 174.944C40.3028 171.687 38.0607 165.588 38.4667 165.588C38.671 165.588 39.8135 166.812 41.0367 168.321C43.2814 171.002 45.4428 174.212 51.6017 184.012C57.9246 193.981 63.0216 198.938 71.3849 203.085C77.0545 205.937 84.6006 207.609 89.8616 207.164C91.2488 207.08 92.2273 207.2 92.636 207.525C93.6145 208.342 94.2678 207.404 93.6951 205.98C93.4505 205.372 93.0446 203.661 92.7973 202.2C91.1251 191.301 83.2941 180.476 72.6081 174.217C69.9574 172.707 66.0809 170.959 54.8653 166.41C50.3785 164.577 43.0368 160.714 43.0368 160.185C43.0368 160.022 43.4427 159.981 43.975 160.102C44.4642 160.185 46.3407 160.552 48.1338 160.877C49.9296 161.201 52.5802 161.892 54.0481 162.337C65.5916 166.079 68.081 166.857 70.8957 167.588C84.7619 171.207 99.6927 167.874 109.156 159.133C110.134 158.238 111.277 157.468 111.683 157.468C112.091 157.468 112.376 157.134 112.376 156.646C112.376 156.158 112.091 155.835 111.683 155.835C111.277 155.835 110.134 155.06 109.156 154.165C99.6927 145.421 84.7619 142.085 70.8957 145.704C68.081 146.436 65.5916 147.213 54.0481 150.95C52.5802 151.4 49.9296 152.097 48.1338 152.421C46.3407 152.746 44.4642 153.108 43.975 153.186C43.4427 153.312 43.0368 153.273 43.0368 153.112C43.0368 152.584 50.3785 148.718 54.8653 146.892C66.0809 142.333 69.9574 140.582 72.6081 139.081C83.2941 132.819 91.1251 121.997 92.7973 111.097C93.0446 109.631 93.4505 107.923 93.6951 107.317C94.2678 105.894 93.6145 104.955 92.636 105.773C92.2273 106.097 91.2488 106.217 89.8616 106.139C84.6006 105.689 77.0545 107.363 71.3849 110.207C63.0216 114.36 57.9246 119.317 51.6017 129.28C45.4428 139.08 43.2814 142.299 41.0367 144.94C39.8135 146.489 38.671 147.704 38.4667 147.704C38.0607 147.704 40.3028 141.61 41.9346 138.353C42.6685 136.887 44.9938 132.498 47.0343 128.553C53.0695 117.082 54.497 112.197 54.497 103.37C54.497 95.3173 53.3142 90.5211 49.6446 83.8518C48.6231 81.9405 47.7682 80.1081 47.7279 79.7838C47.7279 78.9126 46.0127 78.7167 45.8084 79.5691ZM48.5424 85.3439C51.7657 92.1338 52.2146 94.2475 52.2146 103.155C52.2146 111.658 51.8866 113.406 49.1553 119.668C47.2789 123.941 41.8136 134.191 41.8136 133.416C41.8136 133.296 42.5475 131.181 43.4024 128.699C46.0557 121.295 47.8085 112.758 46.7466 112.144C46.3004 111.863 45.8084 112.512 45.6471 113.694C44.9939 118.567 43.4857 123.537 38.7543 136.709C36.9182 141.878 36.144 144.605 36.2649 145.374C36.7139 147.653 34.7138 152.938 33.7782 152.002C33.2056 151.437 33.6143 145.579 34.2245 145.091C34.6734 144.724 34.8374 141.999 35.0417 131.427C35.2057 122.72 35.4907 116.947 35.8563 114.542C36.6332 110.028 36.6332 110.275 35.9396 110.275C35.4074 110.275 35.0417 111.333 34.0229 115.563C33.8186 116.579 33.4906 120.853 33.3696 125.118L33.0847 132.846L32.1868 126.542C30.8803 117.637 30.5953 113.156 31.1652 108.846C32.0228 102.501 35.4074 93.9655 38.9156 89.3281C40.2221 87.6206 46.2574 81.3963 46.5853 81.3963C46.666 81.399 47.5639 83.1431 48.5424 85.3439ZM1.7982 93.6422C6.44896 95.9984 10.5271 99.4974 14.6456 104.663C19.092 110.193 21.4174 115.847 23.6622 126.542C24.2321 129.349 24.8047 132.071 24.9257 132.636C25.3343 134.553 24.7214 133.255 22.8853 128.296C20.3582 121.501 16.1968 113.935 15.0139 113.935C14.3203 113.935 14.3606 114.786 15.0542 115.767C17.2156 118.941 20.1943 125.81 25.3343 139.641C26.9661 144.113 27.9043 146.065 28.3102 146.065C29.0038 146.108 31.2082 150.575 31.2082 151.835C31.2082 152.609 30.5147 152.774 29.7808 152.243C28.7995 151.552 26.3532 147.646 26.5575 147.118C26.7215 146.75 24.3558 143.579 20.3179 138.657C11.6696 128.165 8.08076 123.327 6.6936 120.317C6.40864 119.703 6.04034 119.218 5.87635 119.218C5.06179 119.218 5.14246 120.195 6.04035 121.951C8.40606 126.499 9.7529 128.536 13.4224 133.05C14.9736 134.961 16.522 136.872 16.8903 137.322C18.0732 138.783 13.1375 134.514 8.44637 130.003C1.83852 123.693 -0.607826 120.077 -3.17784 112.877C-5.4629 106.532 -6.07315 102.787 -5.74786 97.0557C-5.6242 94.3751 -5.37957 91.7715 -5.25859 91.281C-5.01396 90.4688 -4.93061 90.4727 -3.62679 91.0035C-2.85256 91.3251 -0.403519 92.5002 1.7982 93.6422ZM91.9827 107.673C91.9827 108.322 89.8616 115.725 89.168 117.432C88.0658 120.239 86.926 122.156 83.7834 126.338C79.5843 131.991 74.9335 135.897 69.1805 138.626C65.8363 140.17 54.4567 144.806 54.4567 144.605C54.4567 144.521 56.6181 143.18 59.2687 141.631C61.9221 140.087 65.1024 138.011 66.3255 137.076C68.9359 135.044 72.4038 131.793 72.4038 131.343C72.4038 130.815 70.8553 130.976 70.487 131.547C69.4278 133.338 58.9838 140.05 44.9939 148.06C43.5664 148.872 42.6282 149.646 42.6282 150.091C42.6282 150.823 38.55 153.793 37.5284 153.793C36.3886 153.793 36.9182 152.409 38.835 150.458C39.8942 149.399 41.077 148.505 41.4453 148.505C41.8136 148.505 45.1175 144.973 48.8274 140.657C55.8438 132.521 61.2688 126.832 64.0432 124.631C65.226 123.693 65.5513 123.207 65.226 122.882C64.9383 122.601 64.0028 123.046 61.9624 124.553C58.2096 127.359 56.7014 128.819 52.5399 133.741C50.6232 136.06 48.951 137.935 48.8677 137.935C48.6661 137.935 49.1957 136.992 52.5399 131.621C60.4946 118.85 68.1213 112.472 79.5412 109.097C83.2135 108.001 91.9827 107.017 91.9827 107.673ZM-16.6785 128.333C-7.66463 129.92 -2.80954 132.321 6.93824 140.086C11.7906 143.992 12.7289 144.845 10.8121 143.746C10.0379 143.301 8.04045 142.164 6.40865 141.186C1.67724 138.5 -5.66721 135.49 -7.62429 135.49C-9.17276 135.49 -8.27756 136.63 -6.19681 137.322C-2.64825 138.464 2.36812 140.945 12.3632 146.521C17.8286 149.609 22.1513 151.766 22.56 151.683C23.5788 151.402 28.5146 153.881 28.6785 154.693C28.7995 155.264 28.5549 155.421 27.6597 155.421C25.7402 155.378 22.56 154.367 22.1917 153.678C21.99 153.31 21.1325 152.899 20.2749 152.735C5.02148 150.049 -2.27995 148.506 -7.66462 146.798C-9.82601 146.107 -11.7428 145.656 -11.9068 145.819C-13.0493 146.961 -4.97363 149.813 4.89781 151.767L8.97596 152.542L1.55358 152.369C-11.5815 152.002 -16.7618 150.541 -25.8967 144.641C-30.6684 141.51 -32.7492 139.359 -37.1956 132.971C-38.4188 131.224 -38.8274 130.207 -38.3382 130.207C-38.2575 130.207 -37.115 129.92 -35.8085 129.552C-30.6684 128.129 -28.792 127.844 -24.4692 127.804C-21.9825 127.761 -18.5146 128.008 -16.6785 128.333ZM90.3509 147.165C95.2866 148.138 99.6094 149.725 102.792 151.72C106.79 154.242 109.93 156.394 109.93 156.641C109.93 156.882 106.79 159.04 102.792 161.562C95.042 166.406 82.2752 168.274 72.8124 165.955C68.5703 164.939 57.1503 161.154 58.1289 161.154C58.4542 161.111 60.8602 161.484 63.4302 161.929C68.6106 162.867 78.6864 163.149 79.4606 162.374C80.0735 161.765 79.5412 161.682 72.6081 161.154C69.2638 160.913 61.7581 159.89 55.9648 158.96C48.0128 157.615 45.2788 157.289 44.9536 157.657C44.3003 158.305 39.1199 157.943 38.5097 157.212C38.1414 156.761 38.1414 156.521 38.5097 156.07C39.1199 155.344 44.3003 154.971 44.9536 155.625C45.2788 155.987 48.0128 155.673 55.9648 154.327C61.7581 153.389 69.2638 152.372 72.6081 152.133C79.5412 151.605 80.0735 151.519 79.4606 150.913C78.6864 150.139 68.6106 150.426 63.4302 151.358C60.8602 151.809 58.4542 152.171 58.1289 152.133C57.352 152.133 67.5917 148.669 71.5892 147.61C77.6245 146.02 83.907 145.862 90.3509 147.165ZM34.9181 155.259C35.695 155.95 35.652 157.254 34.8375 158.023C33.2057 159.573 31.0846 158.799 31.0846 156.641C31.0846 154.483 33.1653 153.712 34.9181 155.259ZM28.6785 158.552C28.5146 159.404 23.5788 161.886 22.56 161.604C22.1513 161.521 17.8286 163.676 12.3632 166.766C2.36812 172.342 -2.64825 174.818 -6.19681 175.96C-8.27756 176.652 -9.17276 177.798 -7.62429 177.798C-5.66721 177.798 1.67724 174.787 6.40865 172.101C8.04045 171.128 10.0379 169.986 10.8121 169.541C12.7289 168.442 11.7906 169.295 6.93824 173.201C-2.80954 180.964 -7.66463 183.368 -16.6785 184.955C-22.9207 186.054 -28.7113 185.681 -35.8085 183.735C-37.115 183.367 -38.2575 183.08 -38.3382 183.08C-39.0721 183.08 -37.9699 181.213 -34.1767 176.128C-30.5878 171.284 -23.1224 166.08 -16.1489 163.557C-11.4175 161.815 -6.93071 161.157 1.55358 160.918L8.97596 160.756L4.89781 161.526C-2.80955 163.07 -10.1943 165.349 -11.5815 166.651C-12.8047 167.75 -11.5385 167.706 -7.66462 166.484C-2.27995 164.776 5.02148 163.227 20.2749 160.547C21.1325 160.383 21.99 159.977 22.1917 159.61C22.6003 158.878 25.294 157.983 27.4554 157.903C28.5549 157.86 28.7995 158.024 28.6785 158.552ZM40.3861 160.992C41.6496 161.844 42.6282 162.826 42.6282 163.191C42.6282 163.636 43.5664 164.41 44.9939 165.222C58.9838 173.237 69.4278 179.944 70.487 181.735C70.8553 182.306 72.4038 182.467 72.4038 181.939C72.4038 181.494 68.9359 178.233 66.3255 176.196C65.1024 175.263 61.9221 173.195 59.2687 171.651C56.6181 170.102 54.4567 168.761 54.4567 168.677C54.4567 168.474 65.8363 173.112 69.1805 174.662C74.9335 177.385 79.5843 181.291 83.7834 186.944C86.926 191.134 88.0658 193.038 89.168 195.844C90.2299 198.404 92.1064 205.488 91.8187 205.734C91.2891 206.3 81.7456 204.915 78.4417 203.776C67.2234 200.08 60.3306 194.18 52.5399 181.651C49.1957 176.284 48.6661 175.353 48.8677 175.353C48.951 175.353 50.6232 177.221 52.5399 179.499C56.7014 184.458 58.2096 185.928 61.9624 188.729C64.0028 190.239 64.9383 190.684 65.226 190.4C65.5513 190.075 65.226 189.581 64.0432 188.651C61.2688 186.453 55.8438 180.762 48.8274 172.583C45.1578 168.316 41.8136 164.777 41.4856 164.777C40.5877 164.777 36.9182 161.112 36.9182 160.217C36.9182 159.123 37.8967 159.327 40.3861 160.992ZM31.2082 161.4C31.2082 162.703 29.0038 167.174 28.3102 167.217C27.9043 167.217 26.9661 169.165 25.3343 173.599C20.1943 187.468 17.2156 194.341 15.0542 197.515C14.3606 198.493 14.3203 199.352 15.0139 199.352C16.1968 199.352 20.3582 191.786 22.8853 184.996C24.7214 180.032 25.3343 178.729 24.9257 180.641C24.8047 181.211 24.2321 183.939 23.6622 186.745C21.4174 197.441 19.092 203.092 14.6456 208.624C10.0378 214.358 6.44897 217.33 0.411041 220.294C-5.82851 223.431 -5.37957 223.711 -5.74786 216.315C-6.07315 210.456 -5.4629 206.757 -3.17784 200.41C-0.607826 193.21 1.83852 189.589 8.44637 183.284C13.1375 178.77 18.0732 174.499 16.8903 175.965C16.522 176.41 14.9736 178.321 13.4224 180.237C9.7529 184.751 8.40606 186.78 6.04035 191.337C5.14246 193.09 5.06179 194.064 5.87635 194.064C6.04034 194.064 6.40864 193.581 6.6936 192.97C8.08076 189.965 11.6696 185.117 20.3179 174.62C24.3558 169.704 26.7215 166.534 26.5575 166.17C26.3532 165.642 28.7995 161.736 29.7808 161.044C30.5147 160.508 31.2082 160.666 31.2082 161.4ZM34.8375 161.683C35.5714 162.535 36.5096 166.648 36.2649 167.908C36.144 168.677 36.9182 171.407 38.7543 176.573C43.4857 189.75 44.9939 194.709 45.6471 199.593C45.8084 200.77 46.3004 201.422 46.7466 201.138C47.8085 200.524 46.0557 191.981 43.4024 184.578C42.5475 182.095 41.8136 179.981 41.8136 179.86C41.8136 179.086 47.2789 189.336 49.1553 193.604C51.8866 199.871 52.2146 201.619 52.2146 210.116C52.2146 219.027 51.7657 221.142 48.5424 227.975L46.666 231.959L44.5449 229.969C41.241 226.916 38.6306 223.786 36.9182 220.896C35.0014 217.602 32.676 211.827 31.7782 208.085C30.719 203.734 30.7996 196.127 32.0228 187.546L33.0417 180.426L33.2863 187.96C33.5309 194.589 33.9799 198.126 35.1224 202.069C35.2461 202.598 35.652 203.007 35.9396 203.007C36.6332 203.007 36.6332 203.254 35.8563 198.734C35.4907 196.335 35.2057 190.562 35.0417 181.855C34.8374 172.138 34.6735 168.519 34.3079 168.232C33.6949 167.782 33.1653 163.353 33.5309 162.007C33.7783 160.991 34.1842 160.871 34.8375 161.683Z" fill="#E3B450" fill-opacity="0.45"/>
</svg>
