<svg width="141" height="141" viewBox="0 0 141 141" fill="none" xmlns="http://www.w3.org/2000/svg">
<path d="M73.1328 27.2109C74.3658 29.0236 74.6368 32.779 75.3199 33.777C75.92 34.6527 77.3378 34.988 78.1791 33.5795C78.7181 32.6787 78.2716 31.5162 77.6371 30.5574C76.8584 29.3793 75.0363 27.5572 73.1328 27.2109Z" fill="url(#paint0_linear_653_19748)"/>
<path d="M79.1585 25.7902C78.2248 25.5583 75.6272 26.7412 73.9336 26.3291C75.2026 27.6655 76.5813 28.4739 77.6749 28.723C78.5632 28.9252 79.4985 28.4379 79.9184 27.6499C80.285 26.9652 79.9779 25.9939 79.1585 25.7902Z" fill="url(#paint1_linear_653_19748)"/>
<path d="M70.9414 32.0601C70.9445 32.9406 71.7342 33.7349 72.4157 33.7443C73.199 33.7553 73.8273 33.1224 73.8398 32.1761C73.8555 31.012 73.6988 29.143 72.5332 27.3945C72.5332 29.2103 70.9383 31.0559 70.9414 32.0601Z" fill="url(#paint2_linear_653_19748)"/>
<path d="M67.254 11.7674C67.2994 11.1063 67.666 9.11659 68.1799 8.36928C67.7506 9.88427 67.7679 12.8547 67.8305 14.2271C67.8431 14.5028 67.8556 14.7817 67.8619 15.0621C67.995 15.059 68.1345 15.0449 68.2786 15.0136C68.993 14.8585 69.4239 14.083 69.5649 13.3654C69.7059 12.6479 69.5915 11.9084 69.4897 11.1846C69.3706 10.3323 69.2688 9.47849 69.2171 8.61838C69.1748 7.90083 69.1732 7.15508 69.4646 6.49707C68.827 6.93888 68.1094 7.24592 67.4232 7.60783C66.737 7.96974 66.0664 8.40372 65.6074 9.02726C65.1452 9.65551 64.929 10.4498 64.9463 11.23C64.9619 12.0103 65.2016 12.7763 65.5745 13.4626C65.844 13.9576 66.1949 14.4245 66.6649 14.7363C66.7809 14.8131 67.0033 14.9274 67.2947 14.9995C67.2712 13.9216 67.1804 12.8437 67.254 11.7674Z" fill="url(#paint3_linear_653_19748)"/>
<path d="M62.8566 21.2527C62.7579 21.284 61.5734 21.602 61.5781 21.6302V21.6318C61.6079 21.7039 62.9991 21.4093 63.1119 21.3827C63.701 21.2448 64.276 21.0537 64.8275 20.8046C65.9445 20.2985 66.8971 19.4651 67.3874 18.323C67.8292 17.2968 67.8872 16.1719 67.8606 15.0626C67.6538 15.0658 67.4626 15.0407 67.295 15C67.3028 15.3102 67.3044 15.6204 67.295 15.9306C67.2574 17.2451 66.966 18.5485 66.015 19.5152C65.1627 20.3847 64.0018 20.8892 62.8566 21.2527Z" fill="url(#paint4_linear_653_19748)"/>
<path d="M45.7237 29.8092C44.9028 28.935 44.1336 28.0122 43.3847 27.0753C42.7486 26.2795 42.1078 25.4553 41.2462 24.9101C40.3845 24.3649 39.1859 24.0594 38.3431 24.6344C38.1723 24.7503 38.0235 24.8772 37.895 25.0104C38.1723 25.2846 38.4433 25.565 38.7112 25.8423C40.0429 27.221 43.0369 30.0849 44.9843 31.1017C43.734 30.9074 41.3668 29.3737 40.6508 28.7846C39.4883 27.8274 38.4825 26.7024 37.4156 25.6449C37.2072 26.0084 37.1116 26.3437 37.0772 26.5348C36.9409 27.3103 37.0787 28.1109 37.3231 28.8598C37.66 29.8953 38.2083 30.873 38.9839 31.6359C39.7594 32.4005 40.7699 32.9426 41.8509 33.0757C42.9241 33.2089 44.0067 32.9441 45.0297 32.5963C46.0528 32.2485 47.0523 31.8146 48.1114 31.5921C47.1651 31.2568 46.41 30.5393 45.7237 29.8092Z" fill="url(#paint5_linear_653_19748)"/>
<path d="M34.1365 22.366C32.5102 21.7707 30.7508 21.9368 29.1669 22.5838C28.3851 22.9034 27.6425 23.3045 26.9375 23.7682C26.8028 23.8575 25.1718 24.9856 25.2157 25.0843C25.2392 25.1172 26.6962 24.2226 26.8231 24.1521C28.288 23.3405 29.9127 22.6465 31.6125 22.612C33.5035 22.5744 35.1031 23.5285 36.4724 24.7506C36.7951 25.0388 37.1085 25.3381 37.4155 25.6436C37.5346 25.4352 37.6913 25.2159 37.8934 25.0091C36.7967 23.9202 35.6013 22.9019 34.1365 22.366Z" fill="url(#paint6_linear_653_19748)"/>
<path d="M70.2643 24.2167C68.3514 22.2724 65.135 21.699 62.575 22.0468C59.2364 22.4996 56.15 24.0303 52.7675 24.2919C51.0661 24.4235 49.3803 24.2355 47.7306 23.8203C47.494 23.7545 45.2913 22.9994 45.2678 23.0464C45.1832 23.2218 47.6444 24.2057 47.8873 24.2919C49.5965 24.8967 51.4186 25.1645 53.2297 25.1003C57.5819 24.9452 62.1191 22.2897 66.4432 23.7122C68.1775 24.2778 70.233 25.4528 70.034 27.5679C69.8805 29.2051 68.1759 31.2371 66.3429 30.4177C65.6003 30.1184 65.6065 28.9544 66.2458 28.8463C66.5011 28.8024 66.9273 29.4729 67.0526 29.6453C67.4819 30.2359 69.1175 29.9148 68.3185 27.9251C67.5492 26.0059 64.9344 25.8288 63.6748 27.6524C60.9049 31.6632 65.7851 34.1636 69.0251 31.7823C71.3923 30.0432 72.4514 26.4383 70.2643 24.2167Z" fill="url(#paint7_linear_653_19748)"/>
<path d="M99.154 7.86606C96.4044 8.23893 93.8617 9.50011 91.0777 9.71474C89.6771 9.82285 88.289 9.66778 86.9291 9.32781C86.7348 9.27454 84.9206 8.65097 84.9002 8.69014C84.8297 8.83584 86.857 9.64425 87.0576 9.71632C88.466 10.2145 89.9653 10.4355 91.4568 10.3822C95.0414 10.2553 98.778 8.06819 102.338 9.24007C103.766 9.70538 105.458 10.6736 105.295 12.4142C105.169 13.7631 103.766 15.4347 102.256 14.7611C101.645 14.5151 101.65 13.5563 102.176 13.467C102.386 13.431 102.737 13.984 102.84 14.125C103.194 14.6122 104.54 14.3475 103.884 12.7071C103.249 11.1263 101.097 10.9807 100.06 12.4816C97.7784 15.7841 101.797 17.8443 104.465 15.8828C106.412 14.4509 107.285 11.482 105.485 9.65211C103.91 8.05095 101.263 7.57936 99.154 7.86606Z" fill="url(#paint8_linear_653_19748)"/>
<path d="M51.7389 26.5423C48.5758 24.819 45.7447 25.148 41.8672 22.2637C44.2736 26.3465 50.755 25.9501 54.0153 30.4293C55.1637 32.0054 56.1789 34.3288 54.6671 36.0255C53.4983 37.3384 50.7425 38.0089 49.6818 36.143C49.2322 35.4145 49.9732 34.4165 50.5952 34.7267C50.8428 34.8505 50.7848 35.6996 50.7832 35.9268C50.7785 36.7086 52.3907 37.4669 52.9641 35.2453C53.5155 33.1052 51.377 31.2956 49.1366 32.068C44.2094 33.7679 46.8305 39.0148 51.1295 39.0148C54.2676 39.0148 57.4636 36.5801 56.9873 33.2807C56.5737 30.3948 54.1657 27.8646 51.7389 26.5423Z" fill="url(#paint9_linear_653_19748)"/>
<path d="M82.1428 8.48502C79.246 8.14662 76.1815 9.82609 74.2811 11.8315C71.8042 14.4463 71.3968 17.2679 67.6133 20.2759C72.1771 18.9975 73.4555 12.632 78.6209 10.6282C80.4398 9.92322 82.9449 9.53782 84.1967 11.4335C85.1665 12.8999 85.1085 15.7357 83.0311 16.2824C82.2117 16.53 81.4362 15.5571 81.8968 15.0369C82.0801 14.8301 82.8854 15.1027 83.1047 15.1623C83.8583 15.3675 85.0067 14.0029 83.006 12.8796C81.079 11.797 78.7822 13.4013 78.9546 15.7639C79.3337 20.9621 85.0772 19.7746 86.1802 15.6182C86.9886 12.5851 85.4548 8.872 82.1428 8.48502Z" fill="url(#paint10_linear_653_19748)"/>
<path d="M75.2557 21.5788C75.7712 22.912 77.4366 23.1941 78.209 22.1068C79.0095 20.9788 78.0319 20.5306 77.6747 20.8377C77.5697 20.927 77.2016 21.2827 77.048 21.2184C76.6626 21.0539 76.835 20.3239 77.3457 20.2471C78.6194 20.009 79.3824 21.5396 79.232 22.5893C79.0377 23.946 77.5729 24.3722 76.3994 24.4662C73.4744 24.7075 71.0272 22.359 68.3216 21.6085C67.1951 21.2952 66.0123 21.1902 64.8498 21.3124C64.6837 21.3297 62.9917 21.5757 63.0199 21.6994C63.0277 21.7323 64.5223 21.5898 64.6806 21.5851C65.7773 21.5741 66.863 21.7088 67.9111 22.0472C69.9932 22.7193 71.6978 24.1435 73.7235 24.93C75.2761 25.5331 77.3802 25.6585 78.8717 24.7263C80.5778 23.6609 80.4556 21.242 79.2336 19.7959C77.5588 17.8125 74.1215 18.6459 75.2557 21.5788Z" fill="url(#paint11_linear_653_19748)"/>
<path d="M55.2527 20.2003C49.8195 22.3702 43.7861 19.3245 38.1883 19.4718C35.8587 19.5329 33.5431 20.0233 31.3983 20.9351C31.0928 21.0651 28.0127 22.5237 28.1364 22.7414C28.1693 22.801 30.9377 21.6557 31.2338 21.5523C33.3191 20.8896 35.4654 20.5136 37.6588 20.5465C42.0189 20.6123 46.1017 22.3294 50.4211 22.6459C53.733 22.8888 57.8143 21.897 60.1142 19.2493C62.7431 16.2241 61.0965 11.6837 57.9239 9.64077C53.5764 6.84266 47.5149 10.4398 51.3877 15.3655C53.1487 17.6043 56.4889 17.1687 57.3239 14.6448C58.1903 12.0268 56.0658 11.7448 55.5614 12.5376C55.4141 12.7695 54.9206 13.6641 54.59 13.628C53.7597 13.5387 53.661 12.0472 54.5885 11.6039C56.8758 10.4069 59.2243 12.8776 59.5517 14.966C59.9763 17.6654 57.432 19.3371 55.2527 20.2003Z" fill="url(#paint12_linear_653_19748)"/>
<path d="M36.6808 17.3848C35.5246 17.6966 34.3558 17.9754 33.2294 18.3828C32.374 18.6914 31.5483 19.0941 30.7352 19.4983C29.2892 20.2174 27.9293 21.09 26.6759 22.1037C26.607 22.1601 24.9275 23.65 24.647 23.9445C24.2366 24.3503 23.8292 24.7592 23.4125 25.1587C22.9832 25.5708 21.2834 27.5182 21.2317 27.5824C20.2055 28.8467 19.3234 30.2175 18.5965 31.6777C18.1923 32.4924 17.7896 33.3165 17.481 34.1719C17.0737 35.2999 16.7948 36.4687 16.483 37.6233C15.9347 39.6569 15.25 42.679 12.9924 43.4765C11.7469 43.9167 10.2351 43.6269 9.62248 42.3469C8.95037 40.9415 9.67105 39.3498 11.0403 38.7215C11.7093 38.4521 12.5099 38.4223 13.146 38.803C13.6818 39.1242 14.05 39.7979 13.9324 40.4292C13.8055 41.1107 13.0849 41.54 12.4206 41.4883C12.0853 41.4617 11.8096 41.3082 11.6106 41.0403C11.6043 41.0309 11.5902 40.9964 11.5777 40.9666C11.8002 40.9149 12.0023 40.7786 12.1104 40.5562C12.3031 40.1645 12.1417 39.6929 11.75 39.5002C11.3584 39.3091 10.8868 39.4689 10.6941 39.8606C10.5014 40.2522 10.6643 40.7238 11.0544 40.9165C11.1954 40.9854 11.3443 40.9948 11.49 40.9776C11.5401 41.1092 11.5887 41.2251 11.6043 41.2455C11.949 41.6857 12.5334 41.797 13.0614 41.6764C14.1972 41.4131 14.6218 40.2271 14.1534 39.2197C13.6536 38.1466 12.3642 37.7675 11.2691 37.9899C10.1802 38.2108 9.22454 39.0192 8.8031 40.0438C7.95709 42.1009 9.33107 44.4196 11.5448 44.628C13.9841 44.8567 15.6323 43.0754 16.5332 41.0089C17.4136 38.9894 17.752 36.7992 18.457 34.7218C18.96 33.2397 19.7057 31.7905 20.5204 30.4557C21.3084 29.1616 22.2296 27.96 23.2386 26.8319C23.7008 26.3087 24.1692 25.7917 24.622 25.2606C25.0481 24.8893 25.468 24.5117 25.8926 24.1357C27.0206 23.1251 28.2222 22.2055 29.5163 21.4175C30.8511 20.6044 32.3003 19.857 33.7824 19.3557C35.8599 18.6507 38.0501 18.3123 40.0696 17.4318C42.1345 16.5309 43.9174 14.8828 43.6886 12.4435C43.4802 10.2313 41.1631 8.8573 39.1045 9.70175C38.0799 10.1232 37.2715 11.0788 37.0505 12.1677C36.8281 13.2644 37.2072 14.5522 38.2804 15.052C39.2878 15.5204 40.4738 15.0958 40.737 13.96C40.8592 13.4336 40.7464 12.8477 40.3061 12.503C40.2858 12.4889 40.1698 12.4388 40.0382 12.3886C40.0555 12.2429 40.0461 12.0941 39.9771 11.9546C39.7844 11.563 39.3129 11.4016 38.9212 11.5943C38.5295 11.787 38.3681 12.2586 38.5608 12.6502C38.7535 13.0419 39.2251 13.2033 39.6168 13.0106C39.8377 12.9009 39.9756 12.7004 40.0273 12.4779C40.057 12.4904 40.0915 12.5046 40.1009 12.5108C40.3688 12.7098 40.5239 12.984 40.549 13.3208C40.6007 13.9851 40.1714 14.7058 39.4899 14.8327C38.8601 14.9502 38.1848 14.5835 37.8652 14.0462C37.4845 13.4101 37.5143 12.6095 37.7838 11.9405C38.412 10.5712 40.0038 9.849 41.4091 10.5227C42.6891 11.1368 42.9789 12.6471 42.5387 13.8942C41.7365 16.1518 38.7144 16.8365 36.6808 17.3848Z" fill="url(#paint13_linear_653_19748)"/>
<path d="M21.1464 63.5217C20.7986 66.0817 21.372 69.2981 23.3163 71.211C25.5379 73.3981 29.1428 72.339 30.8818 69.9733C33.2632 66.7334 30.7628 61.8532 26.7521 64.6231C24.9284 65.8827 25.107 68.4959 27.0247 69.2668C29.0159 70.0658 29.3371 68.4301 28.7449 68.0008C28.5725 67.8755 27.902 67.4478 27.9459 67.194C28.0555 66.5532 29.218 66.5485 29.5173 67.2911C30.3366 69.1257 28.3046 70.8287 26.6675 70.9823C24.5524 71.1812 23.3774 69.1258 22.8118 67.3914C21.3893 63.0689 24.0448 58.5302 24.1999 54.1779C24.2641 52.3668 23.9962 50.5448 23.3915 48.8355C23.3053 48.5927 22.3215 46.1314 22.146 46.216C22.099 46.2395 22.8541 48.4423 22.9199 48.6789C23.3335 50.3286 23.5215 52.0144 23.3899 53.7158C23.1299 57.0951 21.6008 60.1831 21.1464 63.5217Z" fill="url(#paint14_linear_653_19748)"/>
<path d="M11.9767 102.228C10.5479 103.215 10.6873 105.263 12.1913 105.866C13.7517 106.493 14.0024 105.211 13.5402 104.875C13.4055 104.776 12.8791 104.442 12.9136 104.242C12.9997 103.74 13.91 103.736 14.145 104.318C14.7873 105.755 13.1956 107.09 11.9124 107.21C10.2564 107.366 9.33523 105.755 8.89186 104.397C7.77794 101.01 9.85851 97.4547 9.97914 94.044C10.0293 92.6246 9.81934 91.1973 9.3462 89.8578C9.27883 89.6667 8.50802 87.7381 8.37015 87.8054C8.33255 87.8242 8.92476 89.5492 8.97646 89.7356C9.30077 91.0281 9.44804 92.3488 9.34463 93.6821C9.1394 96.3313 7.94088 98.7503 7.5868 101.365C7.3142 103.371 7.76228 105.891 9.28667 107.389C11.0273 109.101 13.852 108.273 15.2135 106.419C17.0778 103.881 15.1179 100.059 11.9767 102.228Z" fill="url(#paint15_linear_653_19748)"/>
<path d="M31.1692 50.0843C30.3968 52.3247 32.2048 54.4632 34.3464 53.9117C36.568 53.3383 35.8082 51.7262 35.0264 51.7309C34.7977 51.7325 33.9501 51.7889 33.8263 51.5429C33.5145 50.9225 34.5141 50.1799 35.2426 50.6311C37.1101 51.6917 36.4395 54.4475 35.1251 55.6162C33.4284 57.1265 31.105 56.1129 29.5289 54.9645C25.0497 51.7027 25.4461 45.2213 21.3633 42.8164C24.2476 46.694 23.917 49.5234 25.6419 52.6881C26.9642 55.1149 29.4944 57.5229 32.3818 57.9397C35.6813 58.4159 38.1159 55.2199 38.1159 52.0818C38.1143 47.7781 32.8691 45.1571 31.1692 50.0843Z" fill="url(#paint16_linear_653_19748)"/>
<path d="M15.4233 80.8051C13.0545 80.8396 11.657 83.2679 12.9041 85.0931C14.1981 86.9873 15.4562 85.7245 15.1867 84.9913C15.1084 84.7767 14.7653 83.998 14.9564 83.7975C15.4343 83.293 16.4714 83.9808 16.2959 84.819C15.9325 86.9356 13.114 87.2411 11.5677 86.4045C9.57013 85.3234 9.73464 82.7932 10.2783 80.9195C11.823 75.599 18.0522 73.7675 18.928 69.1113C16.2615 73.1409 13.4884 73.7942 11.0992 76.4904C9.26776 78.5585 7.86244 81.7576 8.45308 84.6137C9.12676 87.8787 12.9605 89.082 15.9105 88.015C19.9542 86.5533 20.6357 80.7299 15.4233 80.8051Z" fill="url(#paint17_linear_653_19748)"/>
<path d="M21.1421 68.8528C20.8037 67.8063 20.6674 66.7206 20.68 65.6239C20.6847 65.4657 20.8272 63.971 20.7943 63.9632C20.6721 63.9366 20.4246 65.6286 20.4074 65.7931C20.2852 66.9556 20.3917 68.1384 20.705 69.2649C21.457 71.9706 23.8055 74.4177 23.5627 77.3428C23.4687 78.5162 23.041 79.981 21.6858 80.1753C20.6361 80.3257 19.1054 79.5628 19.3436 78.289C19.4203 77.7783 20.1504 77.606 20.3149 77.9914C20.3807 78.1449 20.0235 78.5131 19.9342 78.618C19.6287 78.9768 20.0752 79.9544 21.2048 79.1523C22.2921 78.3815 22.0101 76.7145 20.6768 76.1991C17.744 75.0648 16.9105 78.5021 18.8924 80.1753C20.3384 81.3973 22.759 81.518 23.8228 79.8134C24.7549 78.3204 24.6296 76.2179 24.0264 74.6653C23.2399 72.6411 21.8158 70.935 21.1421 68.8528Z" fill="url(#paint18_linear_653_19748)"/>
<path d="M19.6494 38.6022C19.6165 36.4088 19.9926 34.2608 20.6553 32.1771C20.7571 31.8795 21.9039 29.1127 21.8444 29.0798C21.625 28.956 20.168 32.0377 20.038 32.3417C19.1262 34.488 18.6358 36.802 18.5747 39.1317C18.4274 44.7279 21.4731 50.7628 19.3032 56.1961C18.44 58.3769 16.7683 60.9197 14.0705 60.4967C11.9821 60.1692 9.51138 57.8208 10.7083 55.5334C11.1517 54.6044 12.6448 54.7046 12.7325 55.5349C12.767 55.8655 11.8724 56.3591 11.6421 56.5063C10.8493 57.0108 11.1313 59.1336 13.7493 58.2673C16.2732 57.4322 16.7088 54.0936 14.47 52.3311C9.54428 48.4566 5.94716 54.5197 8.74527 58.8673C10.7867 62.0399 15.3285 63.6865 18.3538 61.0576C21.0015 58.7577 21.9916 54.6764 21.7504 51.3644C21.4323 47.0451 19.7137 42.9623 19.6494 38.6022Z" fill="url(#paint19_linear_653_19748)"/>
<path d="M32.8785 76.2653C31.8805 75.5822 28.1252 75.3111 26.3125 74.0781C26.6587 75.9832 28.4808 77.8037 29.6605 78.5839C30.6193 79.2185 31.7803 79.665 32.6827 79.126C34.088 78.2816 33.7527 76.8653 32.8785 76.2653Z" fill="url(#paint20_linear_653_19748)"/>
<path d="M25.4287 74.8799C25.8408 76.5735 24.6579 79.171 24.8898 80.1048C25.0919 80.9242 26.0648 81.2312 26.7495 80.8646C27.5375 80.4447 28.0232 79.5095 27.8211 78.6211C27.5751 77.5276 26.7651 76.1473 25.4287 74.8799Z" fill="url(#paint21_linear_653_19748)"/>
<path d="M31.2753 74.7841C32.2216 74.7716 32.8545 74.1434 32.8436 73.36C32.8342 72.6785 32.0414 71.8873 31.1594 71.8857C30.1551 71.8826 28.3095 73.4791 26.4922 73.4791C28.2422 74.6447 30.1112 74.7998 31.2753 74.7841Z" fill="url(#paint22_linear_653_19748)"/>
<path d="M10.2852 70.4333C11.009 70.5351 11.7485 70.6479 12.466 70.5085C13.1836 70.3691 13.9591 69.9366 14.1142 69.2222C14.1455 69.0781 14.1612 68.9387 14.1628 68.8055C13.8823 68.7992 13.6034 68.7867 13.3277 68.7742C11.9553 68.7115 8.98484 68.6943 7.46828 69.1235C8.21559 68.6097 10.2053 68.2415 10.8664 68.1976C11.9428 68.124 13.0206 68.2149 14.0985 68.2399C14.028 67.9485 13.9137 67.726 13.8369 67.6101C13.5251 67.1401 13.0598 66.7891 12.5632 66.5197C11.877 66.1468 11.1108 65.9071 10.3306 65.8914C9.55042 65.8758 8.7561 66.0904 8.12786 66.5526C7.50275 67.0116 7.07035 67.6822 6.70844 68.3684C6.34653 69.0546 6.03946 69.7721 5.59766 70.4098C6.25567 70.1184 7.00141 70.1199 7.71896 70.1622C8.57907 70.2124 9.43448 70.3142 10.2852 70.4333Z" fill="url(#paint23_linear_653_19748)"/>
<path d="M17.4229 68.3328C18.5635 67.8424 19.3986 66.8898 19.9046 65.7728C20.1537 65.2213 20.3448 64.6463 20.4827 64.0572C20.5093 63.9444 20.8039 62.5532 20.7318 62.5235H20.7302C20.702 62.5188 20.384 63.7032 20.3527 63.8019C19.9892 64.9456 19.4847 66.1081 18.6168 66.9619C17.6501 67.9129 16.3466 68.2027 15.0322 68.2419C14.722 68.2513 14.4118 68.2497 14.1016 68.2419C14.1423 68.4095 14.1689 68.6007 14.1642 68.8075C15.2719 68.8325 16.3968 68.7746 17.4229 68.3328Z" fill="url(#paint24_linear_653_19748)"/>
<path d="M28.8207 12.1516C28.0953 13.5507 27.5156 16.4632 27.3026 17.8215C27.2603 18.0941 27.2148 18.3699 27.1663 18.6456C27.2963 18.6707 27.4373 18.6832 27.5846 18.6816C28.3146 18.6722 28.8943 18.0001 29.1748 17.3249C29.4552 16.6496 29.4928 15.9023 29.5382 15.1738C29.5931 14.3153 29.6636 13.4567 29.7858 12.606C29.8876 11.8947 30.0364 11.1631 30.4532 10.5771C29.7403 10.8811 28.9758 11.0377 28.2316 11.2555C27.4874 11.4733 26.7433 11.7631 26.1683 12.2833C25.5886 12.8065 25.2189 13.5413 25.0779 14.309C24.9369 15.0767 25.0168 15.8757 25.2455 16.623C25.41 17.1619 25.6591 17.6899 26.0586 18.0894C26.1573 18.1881 26.3516 18.3448 26.6242 18.4732C26.8153 17.4126 26.9422 16.3378 27.2305 15.2991C27.4075 14.6552 28.1658 12.7814 28.8207 12.1516Z" fill="url(#paint25_linear_653_19748)"/>
<path d="M11.2519 29.765C11.8801 29.1101 13.7554 28.3534 14.3947 28.1764C15.4349 27.8881 16.5081 27.7597 17.5703 27.5685C17.4419 27.2975 17.2852 27.1016 17.1865 27.0029C16.787 26.605 16.2606 26.3559 15.7216 26.1898C14.9759 25.9611 14.1769 25.8812 13.4076 26.0222C12.6384 26.1632 11.9052 26.5329 11.3819 27.1126C10.8618 27.6876 10.5719 28.4318 10.3542 29.1759C10.1364 29.9201 9.97972 30.6862 9.67578 31.3975C10.2617 30.9808 10.9934 30.8319 11.7046 30.7301C12.5569 30.6079 13.4139 30.5358 14.2725 30.4825C15.0025 30.4371 15.7483 30.3995 16.4235 30.1191C17.0988 29.8371 17.7709 29.2605 17.7803 28.5289C17.7818 28.3816 17.7693 28.2406 17.7442 28.1106C17.4685 28.1607 17.1928 28.2046 16.9202 28.2469C15.565 28.4599 12.6509 29.0396 11.2519 29.765Z" fill="url(#paint26_linear_653_19748)"/>
<path d="M17.5703 27.5675C17.6439 27.7242 17.7082 27.9059 17.7458 28.1096C18.8378 27.9138 19.8326 27.4672 20.8447 26.991C21.6484 26.6118 22.8532 25.606 23.8355 24.4639C24.846 23.5395 25.7046 22.4742 26.0492 21.7441C26.5255 20.732 26.9705 19.7372 27.1679 18.6452C26.9642 18.6076 26.7825 18.5434 26.6258 18.4697C26.571 18.7752 26.5208 19.0823 26.4394 19.3815C25.8377 21.5702 24.7583 23.14 22.9785 24.8759C21.6077 26.0964 20.2478 26.8954 18.4837 27.3795C18.1829 27.4641 17.8758 27.5127 17.5703 27.5675Z" fill="url(#paint27_linear_653_19748)"/>
<path d="M24.0072 42.1901C24.5524 43.0518 25.3765 43.6926 26.1724 44.3287C27.1093 45.0776 28.032 45.8468 28.9063 46.6677C29.6363 47.3539 30.3539 48.1091 30.6891 49.0538C30.9116 47.9963 31.3456 46.9967 31.6934 45.9721C32.0412 44.9491 32.306 43.8665 32.1728 42.7933C32.0381 41.7123 31.496 40.7018 30.7314 39.9263C29.9669 39.1508 28.9908 38.6024 27.9553 38.2656C27.2064 38.0227 26.4058 37.8849 25.6303 38.0196C25.4392 38.0525 25.1039 38.1497 24.7404 38.358C25.7995 39.4249 26.9244 40.4308 27.8801 41.5933C28.4676 42.3077 30.0029 44.6749 30.1972 45.9251C29.1804 43.9777 26.3165 40.9822 24.9378 39.6521C24.6605 39.3842 24.3816 39.1132 24.1059 38.8359C23.9743 38.9659 23.8458 39.1147 23.7299 39.2839C23.1565 40.13 23.462 41.3285 24.0072 42.1901Z" fill="url(#paint28_linear_653_19748)"/>
<path d="M23.8486 37.4167C22.6266 36.0474 21.6725 34.4479 21.7101 32.5569C21.7445 30.857 22.4386 29.2323 23.2501 27.7675C23.3206 27.6406 24.2168 26.1835 24.1854 26.16C24.0867 26.1162 22.9571 27.7471 22.8678 27.8818C22.4041 28.5869 22.003 29.3295 21.6834 30.1112C21.0364 31.6952 20.8703 33.453 21.4657 35.0792C22.0015 36.5441 23.0198 37.7395 24.1102 38.8377C24.317 38.6356 24.5348 38.479 24.7432 38.3599C24.4361 38.0528 24.1369 37.741 23.8486 37.4167Z" fill="url(#paint29_linear_653_19748)"/>
<path d="M111.087 5.46413C98.9666 5.20876 86.8451 5.05524 74.7252 4.93304C74.697 4.92677 74.6641 4.94085 74.6688 4.90325C74.6547 4.75912 74.5795 4.60556 74.5325 4.47553C74.0625 3.21434 73.2431 2.12392 72.1746 1.28104C71.6373 0.862736 71.0278 0.508667 70.3447 0.27523C69.6695 0.0433594 68.8924 -0.0537479 68.1608 0.0292867C66.6865 0.187523 65.3752 0.930103 64.3897 1.93592C63.8947 2.44196 63.4732 3.02322 63.1489 3.66713C62.9766 4.04 62.8654 4.41601 62.7102 4.78889C62.7071 4.78732 62.704 4.7873 62.7009 4.78573C58.3972 4.50686 54.07 4.47397 49.7584 4.46927C45.7712 4.46457 41.4596 4.15593 37.521 4.90794C36.8959 5.05051 36.3585 5.3106 35.8525 5.61297C35.0049 6.12841 34.1416 6.83187 33.6889 7.72175C33.6826 7.71705 33.6419 7.59639 33.6481 7.61049C33.2611 7.02298 32.8491 6.44801 32.2475 6.05164C31.7979 5.73047 31.284 5.5064 30.7576 5.3654C30.2249 5.23693 29.686 5.215 29.1658 5.2573C28.6519 5.32623 28.149 5.43438 27.6931 5.62865C26.7672 5.98899 25.9854 6.55452 25.3227 7.18903C23.9957 8.46902 23.1403 10.0357 22.5763 11.6055C22.4212 12.0599 22.2724 12.5111 22.1549 12.9764C22.1502 12.9952 22.1564 12.9701 22.1549 12.9764C22.0906 13.296 22.0468 13.6203 22.0248 13.9446C22.0139 13.9352 21.2948 12.8433 20.5427 12.2855C18.716 10.9319 16.4223 10.5355 14.2979 9.94331C12.96 9.63781 9.98168 6.75667 11.8476 4.8923C13.712 3.02637 13.7261 7.36922 15.2364 7.64496C18.0141 8.151 17.2887 4.54134 16.7388 3.82223C16.4349 3.37259 16.0291 2.92764 15.4855 2.59237C14.9497 2.25397 14.2744 2.02367 13.5412 2.03307C12.0638 2.03621 10.5206 3.0749 9.78114 4.68389C9.13097 6.12681 9.2375 7.47107 10.0193 8.82156C10.3107 9.24143 10.671 9.62055 11.0784 9.94642C11.904 10.5888 12.8832 11.0102 13.8859 11.3282C15.827 11.9502 18.1285 12.063 19.8095 13.3164C21.4342 14.5212 21.981 16.9088 22.6499 18.7011C22.6907 18.5883 22.7408 18.4724 22.769 18.3549C23.1497 15.4737 23.4114 12.6301 25.0188 10.1266C25.4277 9.4952 25.9055 8.90301 26.4586 8.4001C27.0085 7.89876 27.6367 7.47732 28.3088 7.23918C28.6425 7.10288 28.9872 7.04807 29.3256 7.00577C29.664 6.9901 29.9977 7.01043 30.3126 7.09503C30.6228 7.1906 30.9189 7.32377 31.1821 7.52118C32.8914 8.64136 33.0669 12.121 33.4726 13.7034C34.1855 11.333 34.5443 8.66486 36.8645 7.30497C37.2249 7.0966 37.6197 6.91801 37.9894 6.84751C46.5326 5.65526 55.881 6.51382 64.4649 7.01829C64.5762 6.19892 64.6764 5.35917 65.0352 4.60715C65.2546 4.16378 65.5491 3.75018 65.8938 3.39298C66.5815 2.67387 67.484 2.17875 68.3817 2.07692C68.8313 2.02365 69.2559 2.06912 69.6977 2.21012C70.1332 2.35269 70.5578 2.58766 70.9432 2.88063C71.714 3.46814 72.3517 4.28913 72.6916 5.17587C72.7809 5.41558 72.9548 6.81303 73.1476 6.87883C85.8346 6.83809 98.3979 6.65481 111.087 6.36184C111.043 6.15974 111.047 5.6443 111.087 5.46413Z" fill="url(#paint30_linear_653_19748)"/>
<path d="M137.476 3.71196C136.464 3.23569 135.338 3.75269 135.338 4.65667C135.338 5.05148 135.646 5.34446 135.994 5.5497H121.859C121.899 5.6719 121.927 5.80038 121.927 5.93669C121.927 6.07299 121.9 6.20147 121.859 6.32367H135.928C135.587 6.52108 135.291 6.79524 135.291 7.16028C135.291 8.0251 136.481 8.68308 137.478 8.14884C139.348 7.14615 141.004 5.932 141.004 5.932C141.004 5.932 139.369 4.60184 137.476 3.71196Z" fill="url(#paint31_linear_653_19748)"/>
<path d="M4.90574 74.6652C4.94334 74.6605 4.92768 74.6935 4.93395 74.7217C5.05615 86.8432 5.20968 98.9647 5.46505 111.083C5.64522 111.044 6.16223 111.039 6.3612 111.085C6.65417 98.3959 6.83747 85.8326 6.87821 73.1456C6.81241 72.9529 5.41649 72.779 5.17522 72.6897C4.29004 72.3497 3.46752 71.7121 2.88001 70.9412C2.58704 70.5543 2.35204 70.1312 2.20947 69.6957C2.06846 69.2539 2.02303 68.8293 2.0763 68.3797C2.17813 67.482 2.67321 66.5812 3.39232 65.8918C3.75109 65.5471 4.1647 65.2526 4.60651 65.0333C5.35852 64.6745 6.19826 64.5742 7.01764 64.463C6.51474 55.8791 5.65462 46.5306 6.84687 37.9875C6.91737 37.6177 7.09598 37.2229 7.30435 36.8626C8.66581 34.5423 11.3323 34.1835 13.7027 33.4707C12.1204 33.0634 8.64073 32.8895 7.52055 31.1802C7.32315 30.917 7.18998 30.6193 7.09441 30.3107C7.01138 29.9958 6.99101 29.6621 7.00511 29.3237C7.04898 28.9853 7.10224 28.6406 7.23854 28.3069C7.47668 27.6332 7.89812 27.0065 8.39947 26.4566C8.90237 25.9036 9.49302 25.4258 10.126 25.0168C12.6295 23.4094 15.4731 23.1462 18.3542 22.7671C18.4702 22.7389 18.5877 22.6887 18.7005 22.648C16.9082 21.979 14.5205 21.4322 13.3157 19.8076C12.0624 18.1265 11.9496 15.825 11.3276 13.8839C11.0096 12.8797 10.5881 11.9021 9.94579 11.0764C9.61835 10.6691 9.24078 10.3087 8.82091 10.0173C7.47042 9.23556 6.12777 9.12901 4.68484 9.77919C3.07585 10.5187 2.03713 12.0634 2.034 13.5392C2.0246 14.2724 2.2549 14.9477 2.5933 15.4835C2.92858 16.0271 3.37352 16.4345 3.82316 16.7369C4.54227 17.2852 8.15193 18.0121 7.64589 15.2344C7.37015 13.7241 3.02885 13.7116 4.89321 11.8457C6.75914 9.97972 9.63872 12.958 9.94422 14.2959C10.5364 16.4204 10.9328 18.7156 12.2864 20.5408C12.8442 21.2928 13.9362 22.0119 13.944 22.0229C13.6181 22.0448 13.2954 22.0887 12.9758 22.1529C12.9695 22.1545 12.993 22.1467 12.9758 22.1529C12.5105 22.2704 12.0577 22.4192 11.6049 22.5743C10.0351 23.1383 8.4684 23.9922 7.18841 25.3208C6.5539 25.9835 5.98833 26.7637 5.62799 27.6911C5.43372 28.1455 5.32562 28.65 5.25668 29.1638C5.21438 29.684 5.23475 30.223 5.36478 30.7556C5.50422 31.282 5.72982 31.7975 6.05099 32.2455C6.44737 32.8471 7.02235 33.2592 7.60986 33.6462C7.59576 33.6399 7.71796 33.6806 7.72109 33.6869C6.83121 34.1413 6.12776 35.0045 5.61232 35.8505C5.30995 36.3565 5.04988 36.8939 4.90731 37.519C4.15373 41.4577 4.46394 45.7676 4.46864 49.7564C4.47334 54.068 4.50467 58.3952 4.78511 62.6989C4.78511 62.702 4.78667 62.7051 4.78824 62.7083C4.4138 62.8634 4.0378 62.9762 3.66649 63.1469C3.02258 63.4728 2.44134 63.8942 1.9353 64.3878C0.929481 65.3732 0.185304 66.683 0.0286348 68.1572C-0.0528332 68.8889 0.0427314 69.666 0.274602 70.3412C0.508039 71.0243 0.862114 71.6337 1.28042 72.1711C2.1233 73.2412 3.21528 74.059 4.4749 74.529C4.60807 74.576 4.76161 74.6527 4.90574 74.6652Z" fill="url(#paint32_linear_653_19748)"/>
<path d="M7.16349 135.288C6.79845 135.288 6.52428 135.584 6.32688 135.925V121.856C6.20468 121.896 6.07621 121.924 5.9399 121.924C5.8036 121.924 5.67513 121.897 5.55293 121.856V135.991C5.34769 135.643 5.05472 135.335 4.65992 135.335C3.75593 135.335 3.24049 136.461 3.7152 137.473C4.60508 139.366 5.93364 141 5.93364 141C5.93364 141 7.14939 139.345 8.15207 137.473C8.68631 136.478 8.0283 135.288 7.16349 135.288Z" fill="url(#paint33_linear_653_19748)"/>
<path d="M112.762 4.67969C112.068 4.67969 111.504 5.24214 111.504 5.93775C111.504 6.6318 112.066 7.19582 112.762 7.19582C113.458 7.19582 114.02 6.63337 114.02 5.93775C114.02 5.24214 113.456 4.67969 112.762 4.67969Z" fill="url(#paint34_linear_653_19748)"/>
<path d="M120.153 4.67969C119.459 4.67969 118.895 5.24214 118.895 5.93775C118.895 6.6318 119.457 7.19582 120.153 7.19582C120.847 7.19582 121.411 6.63337 121.411 5.93775C121.411 5.24214 120.847 4.67969 120.153 4.67969Z" fill="url(#paint35_linear_653_19748)"/>
<path d="M116.447 3.91504C115.33 3.91504 114.426 4.82061 114.426 5.93766C114.426 7.05471 115.331 7.95871 116.447 7.95871C117.562 7.95871 118.468 7.05315 118.468 5.93766C118.469 4.82061 117.564 3.91504 116.447 3.91504Z" fill="url(#paint36_linear_653_19748)"/>
<path d="M7.1958 112.76C7.1958 112.066 6.63179 111.502 5.93774 111.502C5.24213 111.502 4.67969 112.064 4.67969 112.76C4.67969 113.454 5.2437 114.018 5.93774 114.018C6.63335 114.018 7.1958 113.454 7.1958 112.76Z" fill="url(#paint37_linear_653_19748)"/>
<path d="M4.67969 120.149C4.67969 120.843 5.2437 121.407 5.93774 121.407C6.63179 121.407 7.1958 120.844 7.1958 120.149C7.1958 119.453 6.63179 118.891 5.93774 118.891C5.2437 118.891 4.67969 119.455 4.67969 120.149Z" fill="url(#paint38_linear_653_19748)"/>
<path d="M7.9616 116.444C7.9616 115.327 7.05605 114.423 5.94057 114.423C4.82508 114.423 3.91797 115.328 3.91797 116.444C3.91797 117.561 4.82352 118.465 5.94057 118.465C7.05762 118.465 7.9616 117.561 7.9616 116.444Z" fill="url(#paint39_linear_653_19748)"/>
<path d="M17.1359 19.0218C18.4234 19.0218 19.4672 17.9781 19.4672 16.6906C19.4672 15.4031 18.4234 14.3594 17.1359 14.3594C15.8484 14.3594 14.8047 15.4031 14.8047 16.6906C14.8047 17.9781 15.8484 19.0218 17.1359 19.0218Z" fill="url(#paint40_linear_653_19748)"/>
<path d="M23.522 21.9524C23.522 21.1283 22.8546 20.4609 22.0306 20.4609C21.2065 20.4609 20.5391 21.1283 20.5391 21.9524C20.5391 22.7765 21.2065 23.4439 22.0306 23.4439C22.8546 23.4439 23.522 22.7765 23.522 21.9524Z" fill="url(#paint41_linear_653_19748)"/>
<defs>
<linearGradient id="paint0_linear_653_19748" x1="75.7764" y1="27.2109" x2="75.7764" y2="34.5356" gradientUnits="userSpaceOnUse">
<stop stop-color="#6E2F2F"/>
<stop offset="1" stop-color="#D45B5B"/>
</linearGradient>
<linearGradient id="paint1_linear_653_19748" x1="77.0025" y1="25.7598" x2="77.0025" y2="28.7688" gradientUnits="userSpaceOnUse">
<stop stop-color="#6E2F2F"/>
<stop offset="1" stop-color="#D45B5B"/>
</linearGradient>
<linearGradient id="paint2_linear_653_19748" x1="72.3911" y1="27.3945" x2="72.3911" y2="33.7445" gradientUnits="userSpaceOnUse">
<stop stop-color="#6E2F2F"/>
<stop offset="1" stop-color="#D45B5B"/>
</linearGradient>
<linearGradient id="paint3_linear_653_19748" x1="67.288" y1="6.49707" x2="67.288" y2="15.0621" gradientUnits="userSpaceOnUse">
<stop stop-color="#6E2F2F"/>
<stop offset="1" stop-color="#D45B5B"/>
</linearGradient>
<linearGradient id="paint4_linear_653_19748" x1="64.7221" y1="15" x2="64.7221" y2="21.6431" gradientUnits="userSpaceOnUse">
<stop stop-color="#6E2F2F"/>
<stop offset="1" stop-color="#D45B5B"/>
</linearGradient>
<linearGradient id="paint5_linear_653_19748" x1="42.5674" y1="24.3252" x2="42.5674" y2="33.1108" gradientUnits="userSpaceOnUse">
<stop stop-color="#6E2F2F"/>
<stop offset="1" stop-color="#D45B5B"/>
</linearGradient>
<linearGradient id="paint6_linear_653_19748" x1="31.5541" y1="21.998" x2="31.5541" y2="25.6436" gradientUnits="userSpaceOnUse">
<stop stop-color="#6E2F2F"/>
<stop offset="1" stop-color="#D45B5B"/>
</linearGradient>
<linearGradient id="paint7_linear_653_19748" x1="58.3617" y1="21.9512" x2="58.3617" y2="32.7099" gradientUnits="userSpaceOnUse">
<stop stop-color="#6E2F2F"/>
<stop offset="1" stop-color="#D45B5B"/>
</linearGradient>
<linearGradient id="paint8_linear_653_19748" x1="95.6827" y1="7.78711" x2="95.6827" y2="16.6468" gradientUnits="userSpaceOnUse">
<stop stop-color="#6E2F2F"/>
<stop offset="1" stop-color="#D45B5B"/>
</linearGradient>
<linearGradient id="paint9_linear_653_19748" x1="49.451" y1="22.2637" x2="49.451" y2="39.0148" gradientUnits="userSpaceOnUse">
<stop stop-color="#6E2F2F"/>
<stop offset="1" stop-color="#D45B5B"/>
</linearGradient>
<linearGradient id="paint10_linear_653_19748" x1="77.0028" y1="8.44141" x2="77.0028" y2="20.2759" gradientUnits="userSpaceOnUse">
<stop stop-color="#6E2F2F"/>
<stop offset="1" stop-color="#D45B5B"/>
</linearGradient>
<linearGradient id="paint11_linear_653_19748" x1="71.586" y1="18.7148" x2="71.586" y2="25.4043" gradientUnits="userSpaceOnUse">
<stop stop-color="#6E2F2F"/>
<stop offset="1" stop-color="#D45B5B"/>
</linearGradient>
<linearGradient id="paint12_linear_653_19748" x1="44.7771" y1="8.66113" x2="44.7771" y2="22.7437" gradientUnits="userSpaceOnUse">
<stop stop-color="#6E2F2F"/>
<stop offset="1" stop-color="#D45B5B"/>
</linearGradient>
<linearGradient id="paint13_linear_653_19748" x1="26.1296" y1="9.4502" x2="26.1296" y2="44.6479" gradientUnits="userSpaceOnUse">
<stop stop-color="#6E2F2F"/>
<stop offset="1" stop-color="#D45B5B"/>
</linearGradient>
<linearGradient id="paint14_linear_653_19748" x1="26.4301" y1="46.2139" x2="26.4301" y2="72.4045" gradientUnits="userSpaceOnUse">
<stop stop-color="#6E2F2F"/>
<stop offset="1" stop-color="#D45B5B"/>
</linearGradient>
<linearGradient id="paint15_linear_653_19748" x1="11.7255" y1="87.8037" x2="11.7255" y2="108.324" gradientUnits="userSpaceOnUse">
<stop stop-color="#6E2F2F"/>
<stop offset="1" stop-color="#D45B5B"/>
</linearGradient>
<linearGradient id="paint16_linear_653_19748" x1="29.7396" y1="42.8164" x2="29.7396" y2="57.9871" gradientUnits="userSpaceOnUse">
<stop stop-color="#6E2F2F"/>
<stop offset="1" stop-color="#D45B5B"/>
</linearGradient>
<linearGradient id="paint17_linear_653_19748" x1="13.7274" y1="69.1113" x2="13.7274" y2="88.3939" gradientUnits="userSpaceOnUse">
<stop stop-color="#6E2F2F"/>
<stop offset="1" stop-color="#D45B5B"/>
</linearGradient>
<linearGradient id="paint18_linear_653_19748" x1="21.1566" y1="63.9629" x2="21.1566" y2="81.0937" gradientUnits="userSpaceOnUse">
<stop stop-color="#6E2F2F"/>
<stop offset="1" stop-color="#D45B5B"/>
</linearGradient>
<linearGradient id="paint19_linear_653_19748" x1="14.8061" y1="29.0762" x2="14.8061" y2="62.3647" gradientUnits="userSpaceOnUse">
<stop stop-color="#6E2F2F"/>
<stop offset="1" stop-color="#D45B5B"/>
</linearGradient>
<linearGradient id="paint20_linear_653_19748" x1="29.9744" y1="74.0781" x2="29.9744" y2="79.3669" gradientUnits="userSpaceOnUse">
<stop stop-color="#6E2F2F"/>
<stop offset="1" stop-color="#D45B5B"/>
</linearGradient>
<linearGradient id="paint21_linear_653_19748" x1="26.3631" y1="74.8799" x2="26.3631" y2="81.0177" gradientUnits="userSpaceOnUse">
<stop stop-color="#6E2F2F"/>
<stop offset="1" stop-color="#D45B5B"/>
</linearGradient>
<linearGradient id="paint22_linear_653_19748" x1="29.6679" y1="71.8857" x2="29.6679" y2="74.7851" gradientUnits="userSpaceOnUse">
<stop stop-color="#6E2F2F"/>
<stop offset="1" stop-color="#D45B5B"/>
</linearGradient>
<linearGradient id="paint23_linear_653_19748" x1="9.88021" y1="65.8906" x2="9.88021" y2="70.5736" gradientUnits="userSpaceOnUse">
<stop stop-color="#6E2F2F"/>
<stop offset="1" stop-color="#D45B5B"/>
</linearGradient>
<linearGradient id="paint24_linear_653_19748" x1="17.4223" y1="62.5234" x2="17.4223" y2="68.8124" gradientUnits="userSpaceOnUse">
<stop stop-color="#6E2F2F"/>
<stop offset="1" stop-color="#D45B5B"/>
</linearGradient>
<linearGradient id="paint25_linear_653_19748" x1="27.7305" y1="10.5771" x2="27.7305" y2="18.6817" gradientUnits="userSpaceOnUse">
<stop stop-color="#6E2F2F"/>
<stop offset="1" stop-color="#D45B5B"/>
</linearGradient>
<linearGradient id="paint26_linear_653_19748" x1="13.7281" y1="25.9521" x2="13.7281" y2="31.3975" gradientUnits="userSpaceOnUse">
<stop stop-color="#6E2F2F"/>
<stop offset="1" stop-color="#D45B5B"/>
</linearGradient>
<linearGradient id="paint27_linear_653_19748" x1="22.3691" y1="18.4697" x2="22.3691" y2="28.1096" gradientUnits="userSpaceOnUse">
<stop stop-color="#6E2F2F"/>
<stop offset="1" stop-color="#D45B5B"/>
</linearGradient>
<linearGradient id="paint28_linear_653_19748" x1="27.8149" y1="37.9668" x2="27.8149" y2="49.0538" gradientUnits="userSpaceOnUse">
<stop stop-color="#6E2F2F"/>
<stop offset="1" stop-color="#D45B5B"/>
</linearGradient>
<linearGradient id="paint29_linear_653_19748" x1="22.9204" y1="26.1592" x2="22.9204" y2="38.8377" gradientUnits="userSpaceOnUse">
<stop stop-color="#6E2F2F"/>
<stop offset="1" stop-color="#D45B5B"/>
</linearGradient>
<linearGradient id="paint30_linear_653_19748" x1="60.221" y1="0" x2="60.221" y2="18.7011" gradientUnits="userSpaceOnUse">
<stop stop-color="#6E2F2F"/>
<stop offset="1" stop-color="#D45B5B"/>
</linearGradient>
<linearGradient id="paint31_linear_653_19748" x1="131.432" y1="3.53125" x2="131.432" y2="8.34137" gradientUnits="userSpaceOnUse">
<stop stop-color="#6E2F2F"/>
<stop offset="1" stop-color="#D45B5B"/>
</linearGradient>
<linearGradient id="paint32_linear_653_19748" x1="9.35023" y1="9.35352" x2="9.35023" y2="111.085" gradientUnits="userSpaceOnUse">
<stop stop-color="#6E2F2F"/>
<stop offset="1" stop-color="#D45B5B"/>
</linearGradient>
<linearGradient id="paint33_linear_653_19748" x1="5.93988" y1="121.856" x2="5.93988" y2="141" gradientUnits="userSpaceOnUse">
<stop stop-color="#6E2F2F"/>
<stop offset="1" stop-color="#D45B5B"/>
</linearGradient>
<linearGradient id="paint34_linear_653_19748" x1="112.762" y1="4.67969" x2="112.762" y2="7.19582" gradientUnits="userSpaceOnUse">
<stop stop-color="#6E2F2F"/>
<stop offset="1" stop-color="#D45B5B"/>
</linearGradient>
<linearGradient id="paint35_linear_653_19748" x1="120.153" y1="4.67969" x2="120.153" y2="7.19582" gradientUnits="userSpaceOnUse">
<stop stop-color="#6E2F2F"/>
<stop offset="1" stop-color="#D45B5B"/>
</linearGradient>
<linearGradient id="paint36_linear_653_19748" x1="116.447" y1="3.91504" x2="116.447" y2="7.95871" gradientUnits="userSpaceOnUse">
<stop stop-color="#6E2F2F"/>
<stop offset="1" stop-color="#D45B5B"/>
</linearGradient>
<linearGradient id="paint37_linear_653_19748" x1="5.93774" y1="111.502" x2="5.93774" y2="114.018" gradientUnits="userSpaceOnUse">
<stop stop-color="#6E2F2F"/>
<stop offset="1" stop-color="#D45B5B"/>
</linearGradient>
<linearGradient id="paint38_linear_653_19748" x1="5.93774" y1="118.891" x2="5.93774" y2="121.407" gradientUnits="userSpaceOnUse">
<stop stop-color="#6E2F2F"/>
<stop offset="1" stop-color="#D45B5B"/>
</linearGradient>
<linearGradient id="paint39_linear_653_19748" x1="5.93979" y1="114.423" x2="5.93979" y2="118.465" gradientUnits="userSpaceOnUse">
<stop stop-color="#6E2F2F"/>
<stop offset="1" stop-color="#D45B5B"/>
</linearGradient>
<linearGradient id="paint40_linear_653_19748" x1="17.1359" y1="14.3594" x2="17.1359" y2="19.0218" gradientUnits="userSpaceOnUse">
<stop stop-color="#6E2F2F"/>
<stop offset="1" stop-color="#D45B5B"/>
</linearGradient>
<linearGradient id="paint41_linear_653_19748" x1="22.0306" y1="20.4609" x2="22.0306" y2="23.4439" gradientUnits="userSpaceOnUse">
<stop stop-color="#6E2F2F"/>
<stop offset="1" stop-color="#D45B5B"/>
</linearGradient>
</defs>
</svg>
