<svg width="160" height="160" viewBox="0 0 160 160" fill="none" xmlns="http://www.w3.org/2000/svg">
<path d="M82.9844 30.8779C84.3835 32.9348 84.691 37.196 85.4661 38.3284C86.147 39.3222 87.7558 39.7026 88.7105 38.1044C89.322 37.0822 88.8154 35.7632 88.0954 34.6752C87.2118 33.3383 85.1443 31.2708 82.9844 30.8779Z" fill="url(#paint0_linear_660_56019)"/>
<path d="M89.8233 29.2652C88.7637 29.0021 85.8163 30.3443 83.8945 29.8768C85.3345 31.3932 86.8989 32.3105 88.1398 32.5932C89.1477 32.8225 90.2091 32.2696 90.6855 31.3754C91.1015 30.5986 90.753 29.4963 89.8233 29.2652Z" fill="url(#paint1_linear_660_56019)"/>
<path d="M80.4981 36.381C80.5016 37.3801 81.3976 38.2814 82.1709 38.2921C83.0598 38.3045 83.7727 37.5863 83.7869 36.5126C83.8047 35.1917 83.6269 33.0709 82.3042 31.0869C82.3042 33.1473 80.4945 35.2415 80.4981 36.381Z" fill="url(#paint2_linear_660_56019)"/>
<path d="M76.313 13.3543C76.3646 12.6041 76.7806 10.3464 77.3637 9.49843C76.8766 11.2175 76.8961 14.5881 76.9672 16.1454C76.9815 16.4582 76.9957 16.7747 77.0028 17.0929C77.1539 17.0893 77.3121 17.0734 77.4757 17.0378C78.2863 16.8618 78.7752 15.9818 78.9352 15.1676C79.0952 14.3534 78.9654 13.5143 78.8499 12.693C78.7148 11.7259 78.5992 10.7571 78.5405 9.78109C78.4925 8.96688 78.4908 8.12067 78.8214 7.37402C78.0979 7.87535 77.2837 8.22375 76.505 8.63441C75.7264 9.04507 74.9655 9.53751 74.4446 10.2451C73.9202 10.9579 73.6749 11.8592 73.6944 12.7446C73.7122 13.6299 73.9842 14.4992 74.4073 15.2778C74.7131 15.8396 75.1113 16.3694 75.6446 16.7231C75.7762 16.8103 76.0286 16.94 76.3593 17.0218C76.3326 15.7987 76.2295 14.5756 76.313 13.3543Z" fill="url(#paint3_linear_660_56019)"/>
<path d="M71.3237 24.1164C71.2117 24.152 69.8677 24.5129 69.8731 24.5449V24.5466C69.9068 24.6284 71.4855 24.2942 71.6135 24.264C72.2819 24.1076 72.9343 23.8906 73.5601 23.608C74.8276 23.0338 75.9085 22.088 76.4649 20.7921C76.9662 19.6277 77.032 18.3512 77.0018 17.0926C76.7671 17.0961 76.5502 17.0677 76.36 17.0215C76.3689 17.3735 76.3707 17.7255 76.36 18.0774C76.3174 19.569 75.9867 21.048 74.9076 22.1449C73.9405 23.1315 72.6232 23.704 71.3237 24.1164Z" fill="url(#paint4_linear_660_56019)"/>
<path d="M51.884 33.8253C50.9525 32.8333 50.0796 31.7862 49.2299 30.7231C48.5081 29.8201 47.781 28.8849 46.8033 28.2663C45.8255 27.6476 44.4655 27.301 43.5091 27.9534C43.3153 28.085 43.1465 28.2289 43.0007 28.38C43.3153 28.6912 43.6229 29.0094 43.9269 29.324C45.438 30.8884 48.8352 34.1381 51.0449 35.2919C49.6263 35.0714 46.9401 33.3311 46.1277 32.6627C44.8086 31.5765 43.6673 30.3 42.4567 29.1C42.2203 29.5125 42.1118 29.8929 42.0727 30.1098C41.918 30.9898 42.0745 31.8982 42.3518 32.7479C42.734 33.923 43.3562 35.0323 44.2362 35.8981C45.1162 36.7656 46.2628 37.3807 47.4895 37.5319C48.7072 37.683 49.9356 37.3825 51.0965 36.9879C52.2574 36.5932 53.3916 36.1008 54.5933 35.8484C53.5195 35.4679 52.6627 34.6537 51.884 33.8253Z" fill="url(#paint5_linear_660_56019)"/>
<path d="M38.7347 25.3797C36.8895 24.7042 34.8931 24.8926 33.0958 25.6268C32.2087 25.9895 31.366 26.4446 30.566 26.9708C30.4132 27.0721 28.5625 28.3521 28.6123 28.4641C28.639 28.5015 30.2923 27.4864 30.4363 27.4064C32.0985 26.4855 33.942 25.698 35.8708 25.6589C38.0165 25.6162 39.8316 26.6988 41.3853 28.0854C41.7516 28.4126 42.1071 28.7521 42.4556 29.0988C42.5907 28.8623 42.7684 28.6135 42.9978 28.3788C41.7533 27.1433 40.3969 25.9877 38.7347 25.3797Z" fill="url(#paint6_linear_660_56019)"/>
<path d="M79.7334 27.4809C77.5628 25.2747 73.9131 24.624 71.0083 25.0187C67.2199 25.5325 63.7178 27.2693 59.8796 27.5662C57.949 27.7155 56.0362 27.5022 54.1642 27.0311C53.8958 26.9565 51.3963 26.0996 51.3696 26.1529C51.2736 26.352 54.0664 27.4684 54.342 27.5662C56.2815 28.2524 58.349 28.5564 60.404 28.4835C65.3426 28.3075 70.4909 25.2943 75.3975 26.9085C77.3654 27.5502 79.6978 28.8835 79.4721 31.2835C79.2978 33.1412 77.3637 35.4469 75.2837 34.5172C74.4411 34.1776 74.4482 32.8567 75.1735 32.7341C75.4633 32.6843 75.9468 33.4452 76.089 33.6407C76.5761 34.3109 78.4321 33.9465 77.5254 31.6888C76.6526 29.5111 73.6855 29.3102 72.2562 31.3794C69.1132 35.9304 74.6508 38.7677 78.3272 36.0656C81.0133 34.0923 82.2151 30.0017 79.7334 27.4809Z" fill="url(#paint7_linear_660_56019)"/>
<path d="M112.512 8.92723C109.392 9.35033 106.507 10.7814 103.348 11.0249C101.758 11.1476 100.183 10.9717 98.6401 10.5859C98.4197 10.5254 96.3611 9.81788 96.338 9.86232C96.258 10.0277 98.5584 10.945 98.7859 11.0267C100.384 11.5921 102.085 11.8428 103.778 11.7823C107.845 11.6383 112.085 9.15659 116.124 10.4863C117.745 11.0143 119.665 12.113 119.481 14.088C119.337 15.6187 117.745 17.5155 116.032 16.7511C115.338 16.4719 115.344 15.384 115.941 15.2827C116.179 15.2418 116.577 15.8693 116.695 16.0293C117.097 16.5822 118.624 16.2817 117.879 14.4204C117.159 12.6267 114.716 12.4614 113.539 14.1645C110.951 17.9119 115.511 20.2496 118.538 18.0239C120.748 16.3991 121.738 13.0303 119.696 10.9539C117.909 9.13703 114.905 8.60191 112.512 8.92723Z" fill="url(#paint8_linear_660_56019)"/>
<path d="M58.7093 30.1197C55.1201 28.1642 51.9077 28.5375 47.5078 25.2646C50.2384 29.8974 57.5929 29.4477 61.2924 34.5302C62.5955 36.3186 63.7474 38.955 62.0319 40.8803C60.7057 42.37 57.5787 43.1309 56.3752 41.0136C55.8649 40.187 56.7058 39.0546 57.4116 39.4066C57.6925 39.547 57.6267 40.5105 57.6249 40.7683C57.6196 41.6554 59.4489 42.5158 60.0995 39.995C60.7253 37.5666 58.2987 35.5133 55.7565 36.3897C50.1655 38.3186 53.1397 44.2722 58.0178 44.2722C61.5786 44.2722 65.2052 41.5096 64.6647 37.7657C64.1954 34.4911 61.463 31.6201 58.7093 30.1197Z" fill="url(#paint9_linear_660_56019)"/>
<path d="M93.2094 9.6286C89.9224 9.2446 86.4451 11.1503 84.2887 13.4258C81.4781 16.3929 81.0159 19.5946 76.7227 23.0078C81.9012 21.5572 83.3518 14.3342 89.213 12.0605C91.277 11.2605 94.1196 10.8232 95.54 12.9743C96.6404 14.6382 96.5746 17.8559 94.2174 18.4764C93.2876 18.7573 92.4076 17.6533 92.9303 17.0631C93.1383 16.8284 94.052 17.1377 94.3009 17.2053C95.156 17.4382 96.4591 15.8898 94.1889 14.6151C92.0023 13.3867 89.3962 15.2071 89.5917 17.888C90.0219 23.7865 96.5391 22.439 97.7906 17.7226C98.7079 14.2809 96.9675 10.0677 93.2094 9.6286Z" fill="url(#paint10_linear_660_56019)"/>
<path d="M85.3943 24.487C85.9792 25.9999 87.8689 26.3199 88.7453 25.0862C89.6537 23.8062 88.5444 23.2977 88.1391 23.6461C88.02 23.7475 87.6022 24.151 87.428 24.0781C86.9907 23.8915 87.1862 23.0631 87.7658 22.976C89.2111 22.7057 90.0768 24.4426 89.9062 25.6337C89.6857 27.1732 88.0236 27.6567 86.692 27.7634C83.373 28.0372 80.5962 25.3723 77.526 24.5208C76.2478 24.1652 74.9056 24.0461 73.5866 24.1848C73.3981 24.2044 71.4782 24.4835 71.5102 24.6239C71.519 24.6613 73.215 24.4995 73.3946 24.4942C74.639 24.4817 75.871 24.6346 77.0603 25.0186C79.4229 25.7812 81.357 27.3972 83.6557 28.2896C85.4174 28.9741 87.8049 29.1163 89.4973 28.0585C91.4333 26.8497 91.2946 24.1048 89.908 22.464C88.0076 20.2134 84.1072 21.1591 85.3943 24.487Z" fill="url(#paint11_linear_660_56019)"/>
<path d="M62.6931 22.9227C56.5279 25.3849 49.6818 21.9289 43.33 22.096C40.6865 22.1654 38.059 22.7218 35.6253 23.7564C35.2786 23.904 31.7836 25.559 31.924 25.8061C31.9614 25.8737 35.1026 24.5742 35.4386 24.4568C37.8048 23.7048 40.2403 23.2782 42.7291 23.3155C47.6766 23.3902 52.3093 25.3386 57.2106 25.6977C60.9687 25.9733 65.5997 24.848 68.2094 21.8436C71.1925 18.4108 69.3241 13.2589 65.7241 10.9407C60.7909 7.76567 53.9129 11.8474 58.3074 17.4366C60.3056 19.977 64.0957 19.4827 65.0433 16.6188C66.0264 13.6482 63.6157 13.3282 63.0433 14.2277C62.8762 14.4908 62.3162 15.506 61.9411 15.4651C60.9989 15.3637 60.8869 13.6713 61.9393 13.1682C64.5348 11.8101 67.1997 14.6135 67.5712 16.9833C68.053 20.0463 65.1659 21.9432 62.6931 22.9227Z" fill="url(#paint12_linear_660_56019)"/>
<path d="M41.6225 19.7261C40.3105 20.0799 38.9843 20.3963 37.7061 20.8585C36.7355 21.2087 35.7986 21.6656 34.876 22.1243C33.2351 22.9402 31.692 23.9304 30.2698 25.0806C30.1916 25.1446 28.2859 26.8352 27.9677 27.1695C27.5019 27.6299 27.0397 28.0939 26.5668 28.5472C26.0797 29.0148 24.1509 31.2245 24.0922 31.2974C22.9278 32.732 21.9269 34.2875 21.1021 35.9444C20.6434 36.8688 20.1865 37.8039 19.8363 38.7745C19.3741 40.0545 19.0577 41.3807 18.7039 42.6909C18.0817 44.9984 17.3048 48.4276 14.7431 49.3325C13.3298 49.8321 11.6143 49.5032 10.9192 48.0507C10.1565 46.4561 10.9743 44.6499 12.528 43.9371C13.2871 43.6313 14.1956 43.5975 14.9173 44.0295C15.5253 44.394 15.9431 45.1584 15.8097 45.8748C15.6657 46.6481 14.848 47.1352 14.0942 47.0765C13.7138 47.0463 13.4009 46.8721 13.1751 46.5681C13.168 46.5575 13.152 46.5184 13.1378 46.4846C13.3902 46.4259 13.6196 46.2713 13.7422 46.0188C13.9609 45.5744 13.7778 45.0393 13.3334 44.8206C12.8889 44.6037 12.3538 44.7851 12.1352 45.2295C11.9165 45.674 12.1014 46.209 12.544 46.4277C12.704 46.5059 12.8729 46.5166 13.0382 46.497C13.0951 46.6463 13.1503 46.7779 13.168 46.801C13.5591 47.3005 14.2222 47.4268 14.8213 47.2899C16.1102 46.9913 16.5919 45.6455 16.0604 44.5024C15.4933 43.2846 14.0302 42.8545 12.7876 43.1069C11.5521 43.3576 10.4676 44.2748 9.98943 45.4375C9.02945 47.7716 10.5885 50.4027 13.1005 50.6392C15.8684 50.8987 17.7386 48.8774 18.7608 46.5326C19.7599 44.2411 20.1439 41.7558 20.9438 39.3986C21.5145 37.7168 22.3607 36.0724 23.2851 34.5577C24.1793 33.0893 25.2246 31.7258 26.3695 30.4459C26.8939 29.8521 27.4255 29.2655 27.9392 28.6628C28.4228 28.2415 28.8992 27.813 29.381 27.3864C30.6609 26.2397 32.0245 25.1962 33.4929 24.302C35.0075 23.3794 36.6519 22.5314 38.3337 21.9625C40.6909 21.1625 43.1762 20.7785 45.4677 19.7794C47.8108 18.7572 49.8338 16.8871 49.5743 14.1191C49.3378 11.609 46.7086 10.0499 44.3726 11.0081C43.21 11.4863 42.2927 12.5707 42.042 13.8062C41.7896 15.0506 42.2198 16.5119 43.4375 17.079C44.5806 17.6106 45.9264 17.1288 46.225 15.84C46.3637 15.2426 46.2357 14.5778 45.7361 14.1867C45.713 14.1707 45.5815 14.1138 45.4322 14.0569C45.4517 13.8916 45.441 13.7227 45.3628 13.5645C45.1442 13.12 44.6091 12.9369 44.1646 13.1556C43.7202 13.3742 43.5371 13.9093 43.7558 14.3538C43.9744 14.7982 44.5095 14.9813 44.954 14.7627C45.2046 14.6382 45.3611 14.4106 45.4197 14.1582C45.4535 14.1724 45.4926 14.1885 45.5033 14.1956C45.8073 14.4214 45.9833 14.7325 46.0117 15.1147C46.0704 15.8684 45.5833 16.6862 44.81 16.8302C44.0953 16.9635 43.3291 16.5475 42.9664 15.9377C42.5344 15.216 42.5682 14.3076 42.874 13.5485C43.5869 11.9947 45.3931 11.1752 46.9877 11.9396C48.4401 12.6365 48.769 14.3502 48.2694 15.7653C47.3592 18.327 43.93 19.1039 41.6225 19.7261Z" fill="url(#paint13_linear_660_56019)"/>
<path d="M23.9953 72.0807C23.6006 74.9856 24.2512 78.6352 26.4574 80.8058C28.9782 83.2876 33.0688 82.0858 35.0421 79.4014C37.7443 75.7251 34.907 70.1875 30.356 73.3305C28.2867 74.7598 28.4894 77.725 30.6653 78.5997C32.9248 79.5063 33.2893 77.6503 32.6173 77.1632C32.4217 77.021 31.6609 76.5357 31.7106 76.2477C31.8351 75.5206 33.1542 75.5153 33.4937 76.3579C34.4235 78.4397 32.1177 80.3721 30.26 80.5463C27.8601 80.7721 26.5268 78.4397 25.885 76.4717C24.2708 71.567 27.2841 66.4168 27.4601 61.4783C27.5329 59.4232 27.229 57.3557 26.5428 55.4162C26.445 55.1406 25.3286 52.3478 25.1295 52.4438C25.0761 52.4705 25.933 54.97 26.0077 55.2385C26.477 57.1104 26.6903 59.0233 26.541 60.9539C26.2459 64.7885 24.5108 68.2924 23.9953 72.0807Z" fill="url(#paint14_linear_660_56019)"/>
<path d="M13.5899 116.001C11.9686 117.121 12.1268 119.444 13.8334 120.128C15.604 120.84 15.8885 119.385 15.364 119.003C15.2112 118.891 14.6138 118.513 14.6529 118.285C14.7507 117.716 15.7836 117.711 16.0502 118.372C16.7791 120.002 14.9729 121.517 13.517 121.654C11.6379 121.83 10.5926 120.002 10.0895 118.461C8.82552 114.618 11.1864 110.584 11.3232 106.714C11.3801 105.103 11.1419 103.484 10.605 101.964C10.5286 101.747 9.65395 99.5583 9.4975 99.6348C9.45484 99.6561 10.1268 101.613 10.1855 101.825C10.5535 103.292 10.7206 104.79 10.6033 106.303C10.3704 109.309 9.0104 112.054 8.60864 115.021C8.29931 117.297 8.80775 120.157 10.5375 121.856C12.5126 123.8 15.7178 122.859 17.2627 120.756C19.3782 117.876 17.1542 113.538 13.5899 116.001Z" fill="url(#paint15_linear_660_56019)"/>
<path d="M35.3671 56.8319C34.4907 59.3741 36.5422 61.8007 38.9723 61.1749C41.4932 60.5242 40.631 58.695 39.7439 58.7003C39.4843 58.7021 38.5226 58.7661 38.3821 58.487C38.0284 57.783 39.1626 56.9403 39.9892 57.4523C42.1083 58.6558 41.3474 61.7828 39.8559 63.109C37.9306 64.8228 35.2942 63.6726 33.5058 62.3695C28.4232 58.6683 28.873 51.3138 24.2402 48.585C27.513 52.9849 27.1379 56.1954 29.0952 59.7865C30.5956 62.5402 33.4667 65.2725 36.743 65.7454C40.487 66.2859 43.2496 62.6593 43.2496 59.0985C43.2478 54.2151 37.2959 51.2409 35.3671 56.8319Z" fill="url(#paint16_linear_660_56019)"/>
<path d="M17.5017 91.6919C14.8138 91.731 13.2281 94.4865 14.6431 96.5575C16.1115 98.7068 17.5391 97.2739 17.2333 96.442C17.1444 96.1984 16.7551 95.3149 16.972 95.0873C17.5142 94.5149 18.691 95.2953 18.4919 96.2464C18.0795 98.6482 14.8814 98.9948 13.1267 98.0455C10.8601 96.8189 11.0468 93.9478 11.6637 91.8216C13.4165 85.7844 20.4848 83.7063 21.4785 78.4229C18.4528 82.9952 15.3062 83.7365 12.5952 86.796C10.517 89.1426 8.92238 92.7727 9.59259 96.0135C10.357 99.7183 14.7071 101.084 18.0546 99.873C22.643 98.2144 23.4163 91.6065 17.5017 91.6919Z" fill="url(#paint17_linear_660_56019)"/>
<path d="M23.9891 78.1297C23.6051 76.9422 23.4505 75.7102 23.4647 74.4658C23.47 74.2863 23.6318 72.5903 23.5944 72.5814C23.4558 72.5512 23.1749 74.4711 23.1554 74.6578C23.0167 75.9769 23.1376 77.3191 23.4931 78.5973C24.3464 81.6674 27.0113 84.4443 26.7357 87.7633C26.629 89.0948 26.1437 90.757 24.606 90.9774C23.4149 91.1481 21.6781 90.2824 21.9483 88.8371C22.0354 88.2575 22.8638 88.062 23.0505 88.4993C23.1251 88.6735 22.7198 89.0913 22.6185 89.2104C22.2718 89.6175 22.7785 90.7268 24.0602 89.8166C25.294 88.9419 24.974 87.0504 23.4611 86.4655C20.1332 85.1784 19.1874 89.0788 21.4363 90.9774C23.0771 92.364 25.8237 92.501 27.0308 90.5668C28.0886 88.8726 27.9463 86.4869 27.2619 84.7251C26.3695 82.4283 24.7535 80.4923 23.9891 78.1297Z" fill="url(#paint18_linear_660_56019)"/>
<path d="M22.2952 43.8024C22.2579 41.3135 22.6845 38.8762 23.4365 36.5118C23.5521 36.1741 24.8534 33.0346 24.7858 32.9973C24.5369 32.8568 22.8836 36.3536 22.7361 36.6985C21.7014 39.134 21.145 41.7597 21.0757 44.4032C20.9086 50.7533 24.3645 57.6011 21.9023 63.7663C20.9228 66.2409 19.0259 69.1262 15.9647 68.6462C13.595 68.2747 10.7915 65.6099 12.1497 63.0144C12.6528 61.9602 14.3469 62.0739 14.4465 63.0161C14.4856 63.3912 13.4705 63.9512 13.2092 64.1184C12.3097 64.6908 12.6296 67.0996 15.6002 66.1165C18.4642 65.169 18.9584 61.3806 16.418 59.3807C10.8288 54.9843 6.74712 61.8642 9.92216 66.7974C12.2385 70.3973 17.3922 72.2657 20.825 69.2827C23.8294 66.673 24.9529 62.0419 24.6791 58.2838C24.3183 53.3826 22.3681 48.7498 22.2952 43.8024Z" fill="url(#paint19_linear_660_56019)"/>
<path d="M37.306 86.5384C36.1735 85.7633 31.9123 85.4557 29.8555 84.0566C30.2483 86.2184 32.3159 88.2841 33.6545 89.1694C34.7425 89.8894 36.0598 90.3961 37.0837 89.7845C38.6784 88.8263 38.2979 87.2193 37.306 86.5384Z" fill="url(#paint20_linear_660_56019)"/>
<path d="M28.8531 84.9666C29.3206 86.8883 27.9784 89.8358 28.2416 90.8953C28.4709 91.825 29.5749 92.1735 30.3517 91.7575C31.2459 91.281 31.797 90.2198 31.5677 89.2118C31.2886 87.9709 30.3695 86.4047 28.8531 84.9666Z" fill="url(#paint21_linear_660_56019)"/>
<path d="M35.488 84.8582C36.5617 84.8439 37.2799 84.1311 37.2675 83.2422C37.2568 82.4689 36.3573 81.5711 35.3564 81.5693C34.2169 81.5658 32.1227 83.3773 30.0605 83.3773C32.0463 84.6999 34.1671 84.8759 35.488 84.8582Z" fill="url(#paint22_linear_660_56019)"/>
<path d="M11.6686 79.9232C12.4899 80.0387 13.329 80.1667 14.1432 80.0085C14.9574 79.8503 15.8374 79.3596 16.0134 78.5489C16.0489 78.3854 16.0667 78.2272 16.0685 78.0761C15.7503 78.069 15.4338 78.0548 15.121 78.0405C13.5637 77.9694 10.1931 77.9499 8.47222 78.437C9.3202 77.8539 11.5779 77.4361 12.3281 77.3863C13.5494 77.3028 14.7725 77.4059 15.9956 77.4343C15.9156 77.1037 15.7858 76.8512 15.6987 76.7197C15.345 76.1863 14.817 75.7881 14.2534 75.4823C13.4748 75.0592 12.6055 74.7872 11.7202 74.7695C10.8348 74.7517 9.93352 74.9952 9.22065 75.5197C8.51133 76.0405 8.02068 76.8015 7.61002 77.5801C7.19937 78.3588 6.85093 79.1729 6.34961 79.8965C7.09626 79.5658 7.94246 79.5676 8.75666 79.6156C9.73264 79.6725 10.7033 79.788 11.6686 79.9232Z" fill="url(#paint23_linear_660_56019)"/>
<path d="M19.7688 77.5391C21.063 76.9827 22.0105 75.9018 22.5847 74.6343C22.8674 74.0086 23.0843 73.3561 23.2407 72.6877C23.2709 72.5597 23.6052 70.9811 23.5234 70.9473H23.5216C23.4896 70.9419 23.1287 72.2859 23.0932 72.3979C22.6807 73.6957 22.1083 75.0148 21.1234 75.9836C20.0266 77.0627 18.5475 77.3916 17.056 77.436C16.704 77.4467 16.352 77.4449 16 77.436C16.0462 77.6262 16.0764 77.8432 16.0711 78.0778C17.328 78.1063 18.6044 78.0405 19.7688 77.5391Z" fill="url(#paint24_linear_660_56019)"/>
<path d="M32.7035 13.7905C31.8804 15.378 31.2226 18.6828 30.9808 20.2241C30.9328 20.5335 30.8813 20.8464 30.8262 21.1592C30.9737 21.1877 31.1337 21.2019 31.3008 21.2001C32.1292 21.1894 32.787 20.4268 33.1052 19.6606C33.4234 18.8944 33.4661 18.0464 33.5177 17.2198C33.5799 16.2456 33.6599 15.2714 33.7985 14.306C33.9141 13.499 34.083 12.6688 34.5559 12.0039C33.747 12.3488 32.8795 12.5265 32.035 12.7736C31.1906 13.0207 30.3462 13.3496 29.6937 13.9398C29.036 14.5336 28.6164 15.3674 28.4564 16.2385C28.2964 17.1095 28.3871 18.0162 28.6467 18.8642C28.8333 19.4757 29.116 20.0748 29.5693 20.5281C29.6813 20.6401 29.9017 20.8179 30.2111 20.9637C30.4279 19.7601 30.5719 18.5406 30.899 17.362C31.0999 16.6313 31.9604 14.5051 32.7035 13.7905Z" fill="url(#paint25_linear_660_56019)"/>
<path d="M12.7669 33.7757C13.4798 33.0326 15.6077 32.174 16.3331 31.9731C17.5135 31.646 18.7312 31.5002 19.9365 31.2833C19.7908 30.9758 19.613 30.7535 19.501 30.6415C19.0477 30.19 18.4503 29.9074 17.8388 29.7189C16.9926 29.4594 16.086 29.3687 15.2131 29.5287C14.3402 29.6887 13.5082 30.1082 12.9145 30.766C12.3243 31.4184 11.9954 32.2629 11.7483 33.1073C11.5012 33.9517 11.3234 34.821 10.9785 35.6281C11.6434 35.1552 12.4736 34.9863 13.2807 34.8708C14.2478 34.7321 15.2202 34.6503 16.1944 34.5899C17.0228 34.5383 17.869 34.4957 18.6352 34.1775C19.4014 33.8575 20.1641 33.2032 20.1747 32.373C20.1765 32.2059 20.1623 32.0459 20.1339 31.8984C19.821 31.9553 19.5081 32.0051 19.1988 32.0531C17.661 32.2948 14.3544 32.9526 12.7669 33.7757Z" fill="url(#paint26_linear_660_56019)"/>
<path d="M19.9375 31.2813C20.0211 31.4591 20.0939 31.6653 20.1366 31.8964C21.3757 31.6742 22.5046 31.1675 23.653 30.6271C24.5649 30.1969 25.932 29.0556 27.0467 27.7596C28.1933 26.7107 29.1675 25.5019 29.5586 24.6735C30.099 23.5251 30.6039 22.3962 30.8279 21.1571C30.5968 21.1144 30.3906 21.0416 30.2128 20.958C30.1506 21.3047 30.0937 21.6531 30.0013 21.9927C29.3186 24.4761 28.0938 26.2574 26.0742 28.2272C24.5187 29.612 22.9757 30.5187 20.9739 31.068C20.6326 31.164 20.2842 31.2191 19.9375 31.2813Z" fill="url(#paint27_linear_660_56019)"/>
<path d="M27.2423 47.8733C27.861 48.8511 28.796 49.5782 29.6991 50.3C30.7622 51.1497 31.8093 52.0225 32.8013 52.9541C33.6297 53.7327 34.4439 54.5896 34.8243 55.6616C35.0768 54.4616 35.5692 53.3274 35.9639 52.1648C36.3585 51.0039 36.659 49.7755 36.5079 48.5577C36.355 47.3311 35.7399 46.1845 34.8723 45.3045C34.0048 44.4245 32.8973 43.8023 31.7222 43.4201C30.8724 43.1445 29.964 42.9881 29.084 43.141C28.8672 43.1783 28.4867 43.2886 28.0743 43.525C29.276 44.7356 30.5524 45.8769 31.6369 47.196C32.3035 48.0067 34.0457 50.6928 34.2661 52.1114C33.1124 49.9017 29.8627 46.5027 28.2983 44.9934C27.9836 44.6894 27.6672 44.3818 27.3543 44.0672C27.205 44.2147 27.0592 44.3836 26.9276 44.5756C26.277 45.5356 26.6236 46.8955 27.2423 47.8733Z" fill="url(#paint28_linear_660_56019)"/>
<path d="M27.061 42.4566C25.6743 40.9029 24.5917 39.0878 24.6344 36.9421C24.6735 35.0133 25.461 33.1697 26.3819 31.5076C26.4619 31.3636 27.4787 29.7103 27.4432 29.6836C27.3312 29.6338 26.0494 31.4844 25.9481 31.6373C25.4219 32.4373 24.9668 33.28 24.6041 34.1671C23.8699 35.9644 23.6815 37.959 24.357 39.8042C24.965 41.4664 26.1205 42.8229 27.3578 44.0691C27.5925 43.8397 27.8396 43.662 28.0761 43.5269C27.7276 43.1784 27.3881 42.8246 27.061 42.4566Z" fill="url(#paint29_linear_660_56019)"/>
<path d="M126.05 6.20019C112.298 5.91042 98.5433 5.73622 84.7908 5.59756C84.7588 5.59044 84.7214 5.60642 84.7268 5.56376C84.7108 5.4002 84.6254 5.22597 84.5721 5.07842C84.0388 3.64734 83.109 2.41003 81.8966 1.45361C81.2868 0.978953 80.5953 0.577188 79.8202 0.312305C79.054 0.0492002 78.1722 -0.0609882 77.342 0.0332318C75.6692 0.212783 74.1812 1.05539 73.063 2.1967C72.5013 2.77091 72.0231 3.43047 71.6551 4.16112C71.4595 4.58422 71.3333 5.01088 71.1573 5.43399C71.1537 5.43221 71.1502 5.43218 71.1466 5.4304C66.2632 5.11397 61.3531 5.07664 56.4608 5.07131C51.9364 5.06598 47.0441 4.71576 42.5748 5.56907C41.8655 5.73085 41.2558 6.02597 40.6816 6.36908C39.7198 6.95395 38.7403 7.75217 38.2265 8.76192C38.2194 8.75659 38.1732 8.61968 38.1803 8.63568C37.7412 7.96903 37.2736 7.31661 36.591 6.86684C36.0808 6.5024 35.4977 6.24815 34.9004 6.08816C34.2959 5.94238 33.6844 5.9175 33.0942 5.96549C32.5111 6.04371 31.9404 6.16643 31.4231 6.38687C30.3725 6.79575 29.4854 7.43746 28.7334 8.15745C27.2277 9.60986 26.257 11.3876 25.617 13.1689C25.441 13.6844 25.2721 14.1964 25.1388 14.7244C25.1335 14.7457 25.1406 14.7173 25.1388 14.7244C25.0659 15.0871 25.0162 15.4551 24.9913 15.8231C24.9788 15.8124 24.1628 14.5733 23.3095 13.9405C21.2367 12.4045 18.6341 11.9547 16.2235 11.2828C14.7053 10.9361 11.3258 7.66684 13.4431 5.55133C15.5586 3.43405 15.5746 8.36191 17.2883 8.6748C20.4403 9.249 19.6172 5.1531 18.9932 4.33711C18.6483 3.8269 18.1879 3.32202 17.571 2.94158C16.963 2.55759 16.1968 2.29628 15.3648 2.30694C13.6884 2.3105 11.9373 3.48911 11.0983 5.31485C10.3605 6.95214 10.4814 8.47748 11.3685 10.0099C11.6991 10.4863 12.108 10.9165 12.5702 11.2863C13.5071 12.0152 14.6182 12.4933 15.7559 12.8542C17.9585 13.56 20.57 13.688 22.4775 15.1102C24.3211 16.4773 24.9415 19.1866 25.7006 21.2203C25.7468 21.0923 25.8037 20.9607 25.8357 20.8274C26.2677 17.5581 26.5646 14.3315 28.3885 11.4907C28.8525 10.7743 29.3947 10.1023 30.0223 9.53165C30.6462 8.96278 31.3591 8.48457 32.1218 8.21436C32.5004 8.05969 32.8915 7.9975 33.2755 7.9495C33.6595 7.93172 34.0382 7.95479 34.3955 8.05079C34.7475 8.15923 35.0835 8.31034 35.3821 8.53434C37.3216 9.80542 37.5207 13.7538 37.9812 15.5493C38.79 12.8596 39.1972 9.83208 41.83 8.28901C42.2389 8.05257 42.6869 7.84992 43.1064 7.76992C52.8004 6.41707 63.4081 7.39128 73.1484 7.96371C73.2746 7.03396 73.3884 6.08109 73.7955 5.22777C74.0443 4.72467 74.3786 4.25536 74.7697 3.85004C75.5501 3.03406 76.5741 2.47224 77.5927 2.35669C78.1029 2.29625 78.5847 2.34784 79.086 2.50784C79.5802 2.66961 80.062 2.93623 80.4993 3.26867C81.3739 3.93532 82.0975 4.8669 82.4833 5.8731C82.5846 6.1451 82.7819 7.73079 83.0006 7.80546C97.3967 7.75924 111.652 7.55127 126.05 7.21883C126 6.9895 126.006 6.40463 126.05 6.20019Z" fill="url(#paint30_linear_660_56019)"/>
<path d="M155.998 4.21189C154.849 3.67146 153.571 4.25811 153.571 5.28386C153.571 5.73185 153.921 6.0643 154.316 6.29719H138.277C138.322 6.43585 138.354 6.58164 138.354 6.7363C138.354 6.89097 138.324 7.03676 138.277 7.17542H154.241C153.854 7.39942 153.518 7.71051 153.518 8.12473C153.518 9.10604 154.869 9.85265 156 9.24644C158.122 8.10869 160.001 6.73099 160.001 6.73099C160.001 6.73099 158.145 5.22165 155.998 4.21189Z" fill="url(#paint31_linear_660_56019)"/>
<path d="M5.56658 84.7223C5.60925 84.7169 5.59147 84.7543 5.59859 84.7863C5.73725 98.5406 5.91146 112.295 6.20123 126.046C6.40567 126.001 6.99233 125.996 7.2181 126.048C7.55054 111.65 7.75853 97.394 7.80475 82.9979C7.73009 82.7792 6.14613 82.5819 5.87236 82.4806C4.86793 82.0948 3.93462 81.3713 3.26797 80.4966C2.93553 80.0575 2.66887 79.5775 2.5071 79.0833C2.3471 78.582 2.29555 78.1002 2.35599 77.59C2.47154 76.5714 3.03331 75.5492 3.84929 74.767C4.25639 74.3759 4.72572 74.0417 5.22704 73.7928C6.08035 73.3857 7.03322 73.2719 7.96297 73.1457C7.39232 63.4054 6.41634 52.7977 7.7692 43.1037C7.84919 42.6842 8.05186 42.2361 8.2883 41.8273C9.83315 39.1944 12.8589 38.7874 15.5486 37.9785C13.7531 37.5163 9.8047 37.319 8.53362 35.3794C8.30963 35.0808 8.15852 34.743 8.05008 34.3928C7.95586 34.0355 7.93275 33.6568 7.94875 33.2728C7.99853 32.8888 8.05897 32.4977 8.21363 32.1191C8.48385 31.3546 8.96206 30.6435 9.53094 30.0195C10.1016 29.392 10.7718 28.8498 11.49 28.3858C14.3308 26.5619 17.5574 26.2632 20.8267 25.833C20.9582 25.801 21.0916 25.7441 21.2196 25.6979C19.1858 24.9388 16.4766 24.3184 15.1095 22.4749C13.6873 20.5673 13.5593 17.9558 12.8535 15.7532C12.4926 14.6137 12.0144 13.5044 11.2856 12.5675C10.914 12.1053 10.4856 11.6964 10.0091 11.3658C8.47674 10.4787 6.95322 10.3578 5.31592 11.0956C3.49019 11.9347 2.31155 13.6875 2.30799 15.3621C2.29733 16.1941 2.55865 16.9603 2.94264 17.5683C3.32308 18.1852 3.82796 18.6474 4.33817 18.9905C5.15415 19.6127 9.25005 20.4376 8.67585 17.2856C8.36296 15.5719 3.43686 15.5577 5.55236 13.4404C7.66965 11.3231 10.9371 14.7026 11.2838 16.2208C11.9558 18.6314 12.4055 21.2357 13.9415 23.3068C14.5744 24.1601 15.8135 24.9761 15.8223 24.9886C15.4526 25.0135 15.0864 25.0633 14.7237 25.1361C14.7166 25.1379 14.7433 25.129 14.7237 25.1361C14.1957 25.2695 13.682 25.4383 13.1682 25.6143C11.3869 26.2543 9.60916 27.2232 8.15675 28.7307C7.43676 29.4827 6.795 30.368 6.38612 31.4204C6.16568 31.9359 6.04302 32.5084 5.96479 33.0915C5.9168 33.6817 5.93991 34.2933 6.08746 34.8977C6.24568 35.495 6.50167 36.0799 6.86611 36.5883C7.31587 37.2709 7.96831 37.7385 8.63496 38.1776C8.61896 38.1705 8.75762 38.2167 8.76118 38.2238C7.75142 38.7394 6.95322 39.7189 6.36834 40.6789C6.02524 41.2531 5.73013 41.8628 5.56836 42.5721C4.71327 47.0414 5.06526 51.9319 5.0706 56.4581C5.07593 61.3504 5.11148 66.2605 5.4297 71.1439C5.4297 71.1475 5.43147 71.151 5.43325 71.1546C5.00837 71.3306 4.58172 71.4586 4.16039 71.6524C3.42974 72.0221 2.7702 72.5003 2.196 73.0603C1.05469 74.1785 0.210266 75.6647 0.0324921 77.3376C-0.0599502 78.1678 0.0484876 79.0495 0.311593 79.8157C0.576475 80.5908 0.978248 81.2824 1.4529 81.8921C2.40933 83.1063 3.6484 84.0343 5.0777 84.5676C5.22881 84.621 5.40303 84.708 5.56658 84.7223Z" fill="url(#paint32_linear_660_56019)"/>
<path d="M8.12491 153.511C7.7107 153.511 7.3996 153.847 7.1756 154.235V138.271C7.03694 138.315 6.89116 138.347 6.7365 138.347C6.58184 138.347 6.43606 138.317 6.29739 138.271V154.309C6.06451 153.915 5.73208 153.564 5.28409 153.564C4.25833 153.564 3.67346 154.843 4.21211 155.991C5.22186 158.139 6.72938 159.993 6.72938 159.993C6.72938 159.993 8.10891 158.115 9.24666 155.991C9.85287 154.862 9.10622 153.511 8.12491 153.511Z" fill="url(#paint33_linear_660_56019)"/>
<path d="M127.951 5.31055C127.163 5.31055 126.523 5.94877 126.523 6.73809C126.523 7.52562 127.162 8.16562 127.951 8.16562C128.74 8.16562 129.378 7.5274 129.378 6.73809C129.378 5.94877 128.738 5.31055 127.951 5.31055Z" fill="url(#paint34_linear_660_56019)"/>
<path d="M136.338 5.31055C135.55 5.31055 134.91 5.94877 134.91 6.73809C134.91 7.52562 135.548 8.16562 136.338 8.16562C137.125 8.16562 137.765 7.5274 137.765 6.73809C137.765 5.94877 137.125 5.31055 136.338 5.31055Z" fill="url(#paint35_linear_660_56019)"/>
<path d="M132.131 4.44336C130.864 4.44336 129.838 5.47092 129.838 6.73844C129.838 8.00597 130.865 9.03174 132.131 9.03174C133.397 9.03174 134.424 8.00419 134.424 6.73844C134.426 5.47092 133.399 4.44336 132.131 4.44336Z" fill="url(#paint36_linear_660_56019)"/>
<path d="M8.1656 127.95C8.1656 127.162 7.52561 126.522 6.73807 126.522C5.94876 126.522 5.31055 127.16 5.31055 127.95C5.31055 128.737 5.95053 129.377 6.73807 129.377C7.52739 129.377 8.1656 128.737 8.1656 127.95Z" fill="url(#paint37_linear_660_56019)"/>
<path d="M5.31055 136.335C5.31055 137.122 5.95053 137.762 6.73807 137.762C7.52561 137.762 8.1656 137.124 8.1656 136.335C8.1656 135.545 7.52561 134.907 6.73807 134.907C5.95053 134.907 5.31055 135.547 5.31055 136.335Z" fill="url(#paint38_linear_660_56019)"/>
<path d="M9.03365 132.129C9.03365 130.862 8.00612 129.836 6.74037 129.836C5.47462 129.836 4.44531 130.863 4.44531 132.129C4.44531 133.397 5.47284 134.423 6.74037 134.423C8.0079 134.423 9.03365 133.397 9.03365 132.129Z" fill="url(#paint39_linear_660_56019)"/>
<path d="M19.4441 21.5842C20.905 21.5842 22.0894 20.3999 22.0894 18.939C22.0894 17.478 20.905 16.2937 19.4441 16.2937C17.9832 16.2937 16.7988 17.478 16.7988 18.939C16.7988 20.3999 17.9832 21.5842 19.4441 21.5842Z" fill="url(#paint40_linear_660_56019)"/>
<path d="M26.6895 24.9102C26.6895 23.9751 25.9322 23.2178 24.9971 23.2178C24.062 23.2178 23.3047 23.9751 23.3047 24.9102C23.3047 25.8453 24.062 26.6026 24.9971 26.6026C25.9322 26.6026 26.6895 25.8453 26.6895 24.9102Z" fill="url(#paint41_linear_660_56019)"/>
<defs>
<linearGradient id="paint0_linear_660_56019" x1="83.3991" y1="28.6427" x2="89.6175" y2="29.389" gradientUnits="userSpaceOnUse">
<stop stop-color="#E3B450"/>
<stop offset="0.427885" stop-color="#F6DC7F"/>
<stop offset="1" stop-color="#CAA043"/>
</linearGradient>
<linearGradient id="paint1_linear_660_56019" x1="84.376" y1="28.3125" x2="90.9434" y2="30.5398" gradientUnits="userSpaceOnUse">
<stop stop-color="#E3B450"/>
<stop offset="0.427885" stop-color="#F6DC7F"/>
<stop offset="1" stop-color="#CAA043"/>
</linearGradient>
<linearGradient id="paint2_linear_660_56019" x1="80.7255" y1="29.1491" x2="84.1648" y2="29.4102" gradientUnits="userSpaceOnUse">
<stop stop-color="#E3B450"/>
<stop offset="0.427885" stop-color="#F6DC7F"/>
<stop offset="1" stop-color="#CAA043"/>
</linearGradient>
<linearGradient id="paint3_linear_660_56019" x1="74.0609" y1="4.76027" x2="79.6049" y2="5.26452" gradientUnits="userSpaceOnUse">
<stop stop-color="#E3B450"/>
<stop offset="0.427885" stop-color="#F6DC7F"/>
<stop offset="1" stop-color="#CAA043"/>
</linearGradient>
<linearGradient id="paint4_linear_660_56019" x1="70.3663" y1="14.9942" x2="77.6868" y2="16.1463" gradientUnits="userSpaceOnUse">
<stop stop-color="#E3B450"/>
<stop offset="0.427885" stop-color="#F6DC7F"/>
<stop offset="1" stop-color="#CAA043"/>
</linearGradient>
<linearGradient id="paint5_linear_660_56019" x1="42.8815" y1="24.9215" x2="55.5522" y2="27.5803" gradientUnits="userSpaceOnUse">
<stop stop-color="#E3B450"/>
<stop offset="0.427885" stop-color="#F6DC7F"/>
<stop offset="1" stop-color="#CAA043"/>
</linearGradient>
<linearGradient id="paint6_linear_660_56019" x1="29.6059" y1="23.8497" x2="40.9417" y2="30.4046" gradientUnits="userSpaceOnUse">
<stop stop-color="#E3B450"/>
<stop offset="0.427885" stop-color="#F6DC7F"/>
<stop offset="1" stop-color="#CAA043"/>
</linearGradient>
<linearGradient id="paint7_linear_660_56019" x1="53.4218" y1="21.627" x2="80.2713" y2="32.4951" gradientUnits="userSpaceOnUse">
<stop stop-color="#E3B450"/>
<stop offset="0.427885" stop-color="#F6DC7F"/>
<stop offset="1" stop-color="#CAA043"/>
</linearGradient>
<linearGradient id="paint8_linear_660_56019" x1="98.0279" y1="6.13398" x2="120.138" y2="15.0835" gradientUnits="userSpaceOnUse">
<stop stop-color="#E3B450"/>
<stop offset="0.427885" stop-color="#F6DC7F"/>
<stop offset="1" stop-color="#CAA043"/>
</linearGradient>
<linearGradient id="paint9_linear_660_56019" x1="48.6976" y1="20.1528" x2="66.3923" y2="22.8167" gradientUnits="userSpaceOnUse">
<stop stop-color="#E3B450"/>
<stop offset="0.427885" stop-color="#F6DC7F"/>
<stop offset="1" stop-color="#CAA043"/>
</linearGradient>
<linearGradient id="paint10_linear_660_56019" x1="78.1958" y1="5.96762" x2="99.1423" y2="11.494" gradientUnits="userSpaceOnUse">
<stop stop-color="#E3B450"/>
<stop offset="0.427885" stop-color="#F6DC7F"/>
<stop offset="1" stop-color="#CAA043"/>
</linearGradient>
<linearGradient id="paint11_linear_660_56019" x1="72.8538" y1="19.1959" x2="90.1566" y2="26.5643" gradientUnits="userSpaceOnUse">
<stop stop-color="#E3B450"/>
<stop offset="0.427885" stop-color="#F6DC7F"/>
<stop offset="1" stop-color="#CAA043"/>
</linearGradient>
<linearGradient id="paint12_linear_660_56019" x1="34.5313" y1="5.53161" x2="68.9325" y2="19.0522" gradientUnits="userSpaceOnUse">
<stop stop-color="#E3B450"/>
<stop offset="0.427885" stop-color="#F6DC7F"/>
<stop offset="1" stop-color="#CAA043"/>
</linearGradient>
<linearGradient id="paint13_linear_660_56019" x1="12.4611" y1="-0.0184189" x2="53.2803" y2="6.76079" gradientUnits="userSpaceOnUse">
<stop stop-color="#E3B450"/>
<stop offset="0.427885" stop-color="#F6DC7F"/>
<stop offset="1" stop-color="#CAA043"/>
</linearGradient>
<linearGradient id="paint14_linear_660_56019" x1="24.7307" y1="44.449" x2="37.5068" y2="45.3216" gradientUnits="userSpaceOnUse">
<stop stop-color="#E3B450"/>
<stop offset="0.427885" stop-color="#F6DC7F"/>
<stop offset="1" stop-color="#CAA043"/>
</linearGradient>
<linearGradient id="paint15_linear_660_56019" x1="9.18454" y1="93.3709" x2="19.1924" y2="94.0543" gradientUnits="userSpaceOnUse">
<stop stop-color="#E3B450"/>
<stop offset="0.427885" stop-color="#F6DC7F"/>
<stop offset="1" stop-color="#CAA043"/>
</linearGradient>
<linearGradient id="paint16_linear_660_56019" x1="25.5544" y1="43.9554" x2="44.8895" y2="47.5055" gradientUnits="userSpaceOnUse">
<stop stop-color="#E3B450"/>
<stop offset="0.427885" stop-color="#F6DC7F"/>
<stop offset="1" stop-color="#CAA043"/>
</linearGradient>
<linearGradient id="paint17_linear_660_56019" x1="10.2864" y1="72.5385" x2="23.0861" y2="73.7329" gradientUnits="userSpaceOnUse">
<stop stop-color="#E3B450"/>
<stop offset="0.427885" stop-color="#F6DC7F"/>
<stop offset="1" stop-color="#CAA043"/>
</linearGradient>
<linearGradient id="paint18_linear_660_56019" x1="20.7356" y1="67.3533" x2="28.6816" y2="67.8691" gradientUnits="userSpaceOnUse">
<stop stop-color="#E3B450"/>
<stop offset="0.427885" stop-color="#F6DC7F"/>
<stop offset="1" stop-color="#CAA043"/>
</linearGradient>
<linearGradient id="paint19_linear_660_56019" x1="9.91514" y1="22.8347" x2="26.6319" y2="24.0104" gradientUnits="userSpaceOnUse">
<stop stop-color="#E3B450"/>
<stop offset="0.427885" stop-color="#F6DC7F"/>
<stop offset="1" stop-color="#CAA043"/>
</linearGradient>
<linearGradient id="paint20_linear_660_56019" x1="30.43" y1="82.4427" x2="38.7277" y2="84.3532" gradientUnits="userSpaceOnUse">
<stop stop-color="#E3B450"/>
<stop offset="0.427885" stop-color="#F6DC7F"/>
<stop offset="1" stop-color="#CAA043"/>
</linearGradient>
<linearGradient id="paint21_linear_660_56019" x1="28.443" y1="83.0935" x2="32.0075" y2="83.3839" gradientUnits="userSpaceOnUse">
<stop stop-color="#E3B450"/>
<stop offset="0.427885" stop-color="#F6DC7F"/>
<stop offset="1" stop-color="#CAA043"/>
</linearGradient>
<linearGradient id="paint22_linear_660_56019" x1="30.5588" y1="80.6845" x2="37.249" y2="83.1213" gradientUnits="userSpaceOnUse">
<stop stop-color="#E3B450"/>
<stop offset="0.427885" stop-color="#F6DC7F"/>
<stop offset="1" stop-color="#CAA043"/>
</linearGradient>
<linearGradient id="paint23_linear_660_56019" x1="7.0215" y1="73.3395" x2="16.3752" y2="76.1839" gradientUnits="userSpaceOnUse">
<stop stop-color="#E3B450"/>
<stop offset="0.427885" stop-color="#F6DC7F"/>
<stop offset="1" stop-color="#CAA043"/>
</linearGradient>
<linearGradient id="paint24_linear_660_56019" x1="16.521" y1="69.0281" x2="24.2078" y2="70.3778" gradientUnits="userSpaceOnUse">
<stop stop-color="#E3B450"/>
<stop offset="0.427885" stop-color="#F6DC7F"/>
<stop offset="1" stop-color="#CAA043"/>
</linearGradient>
<linearGradient id="paint25_linear_660_56019" x1="28.8041" y1="9.53067" x2="35.2207" y2="10.2475" gradientUnits="userSpaceOnUse">
<stop stop-color="#E3B450"/>
<stop offset="0.427885" stop-color="#F6DC7F"/>
<stop offset="1" stop-color="#CAA043"/>
</linearGradient>
<linearGradient id="paint26_linear_660_56019" x1="11.6143" y1="27.7875" x2="20.7256" y2="30.0422" gradientUnits="userSpaceOnUse">
<stop stop-color="#E3B450"/>
<stop offset="0.427885" stop-color="#F6DC7F"/>
<stop offset="1" stop-color="#CAA043"/>
</linearGradient>
<linearGradient id="paint27_linear_660_56019" x1="20.6904" y1="18.0163" x2="31.8354" y2="19.8612" gradientUnits="userSpaceOnUse">
<stop stop-color="#E3B450"/>
<stop offset="0.427885" stop-color="#F6DC7F"/>
<stop offset="1" stop-color="#CAA043"/>
</linearGradient>
<linearGradient id="paint28_linear_660_56019" x1="27.2673" y1="39.6977" x2="37.5707" y2="41.0553" gradientUnits="userSpaceOnUse">
<stop stop-color="#E3B450"/>
<stop offset="0.427885" stop-color="#F6DC7F"/>
<stop offset="1" stop-color="#CAA043"/>
</linearGradient>
<linearGradient id="paint29_linear_660_56019" x1="24.2254" y1="25.8136" x2="28.5648" y2="26.021" gradientUnits="userSpaceOnUse">
<stop stop-color="#E3B450"/>
<stop offset="0.427885" stop-color="#F6DC7F"/>
<stop offset="1" stop-color="#CAA043"/>
</linearGradient>
<linearGradient id="paint30_linear_660_56019" x1="18.5956" y1="-5.70692" x2="85.3539" y2="54.674" gradientUnits="userSpaceOnUse">
<stop stop-color="#E3B450"/>
<stop offset="0.427885" stop-color="#F6DC7F"/>
<stop offset="1" stop-color="#CAA043"/>
</linearGradient>
<linearGradient id="paint31_linear_660_56019" x1="139.779" y1="2.53896" x2="155.664" y2="13.0509" gradientUnits="userSpaceOnUse">
<stop stop-color="#E3B450"/>
<stop offset="0.427885" stop-color="#F6DC7F"/>
<stop offset="1" stop-color="#CAA043"/>
</linearGradient>
<linearGradient id="paint32_linear_660_56019" x1="1.46696" y1="-20.4322" x2="23.7569" y2="-19.7509" gradientUnits="userSpaceOnUse">
<stop stop-color="#E3B450"/>
<stop offset="0.427885" stop-color="#F6DC7F"/>
<stop offset="1" stop-color="#CAA043"/>
</linearGradient>
<linearGradient id="paint33_linear_660_56019" x1="4.38509" y1="132.429" x2="10.113" y2="132.668" gradientUnits="userSpaceOnUse">
<stop stop-color="#E3B450"/>
<stop offset="0.427885" stop-color="#F6DC7F"/>
<stop offset="1" stop-color="#CAA043"/>
</linearGradient>
<linearGradient id="paint34_linear_660_56019" x1="126.721" y1="4.54271" x2="129.642" y2="5.02839" gradientUnits="userSpaceOnUse">
<stop stop-color="#E3B450"/>
<stop offset="0.427885" stop-color="#F6DC7F"/>
<stop offset="1" stop-color="#CAA043"/>
</linearGradient>
<linearGradient id="paint35_linear_660_56019" x1="135.108" y1="4.54271" x2="138.029" y2="5.02839" gradientUnits="userSpaceOnUse">
<stop stop-color="#E3B450"/>
<stop offset="0.427885" stop-color="#F6DC7F"/>
<stop offset="1" stop-color="#CAA043"/>
</linearGradient>
<linearGradient id="paint36_linear_660_56019" x1="130.155" y1="3.20938" x2="134.848" y2="3.98932" gradientUnits="userSpaceOnUse">
<stop stop-color="#E3B450"/>
<stop offset="0.427885" stop-color="#F6DC7F"/>
<stop offset="1" stop-color="#CAA043"/>
</linearGradient>
<linearGradient id="paint37_linear_660_56019" x1="5.50792" y1="125.754" x2="8.42903" y2="126.24" gradientUnits="userSpaceOnUse">
<stop stop-color="#E3B450"/>
<stop offset="0.427885" stop-color="#F6DC7F"/>
<stop offset="1" stop-color="#CAA043"/>
</linearGradient>
<linearGradient id="paint38_linear_660_56019" x1="5.50792" y1="134.139" x2="8.42904" y2="134.625" gradientUnits="userSpaceOnUse">
<stop stop-color="#E3B450"/>
<stop offset="0.427885" stop-color="#F6DC7F"/>
<stop offset="1" stop-color="#CAA043"/>
</linearGradient>
<linearGradient id="paint39_linear_660_56019" x1="4.76252" y1="128.602" x2="9.45693" y2="129.383" gradientUnits="userSpaceOnUse">
<stop stop-color="#E3B450"/>
<stop offset="0.427885" stop-color="#F6DC7F"/>
<stop offset="1" stop-color="#CAA043"/>
</linearGradient>
<linearGradient id="paint40_linear_660_56019" x1="17.1646" y1="14.8709" x2="22.5775" y2="15.7709" gradientUnits="userSpaceOnUse">
<stop stop-color="#E3B450"/>
<stop offset="0.427885" stop-color="#F6DC7F"/>
<stop offset="1" stop-color="#CAA043"/>
</linearGradient>
<linearGradient id="paint41_linear_660_56019" x1="23.5387" y1="22.3075" x2="27.0018" y2="22.8833" gradientUnits="userSpaceOnUse">
<stop stop-color="#E3B450"/>
<stop offset="0.427885" stop-color="#F6DC7F"/>
<stop offset="1" stop-color="#CAA043"/>
</linearGradient>
</defs>
</svg>
