<svg width="67" height="71" viewBox="0 0 67 71" fill="none" xmlns="http://www.w3.org/2000/svg">
<g clip-path="url(#clip0_643_19510)">
<path d="M66.1154 35.8073C66.0973 35.7691 66.0637 35.7377 66.0112 35.7324C64.1004 35.5393 64.0977 33.1162 63.6911 31.7265C63.3328 30.5017 62.7125 29.3423 61.8392 28.4031C61.0702 27.5761 60.0885 26.9526 59.0267 26.6136C59.827 26.5681 60.6203 26.2764 61.2642 25.816C62.0157 25.2786 62.9345 24.2336 62.5598 23.232C62.1786 22.2129 60.9135 22.158 60.0357 22.4607C59.1857 22.7538 58.4342 23.282 57.8497 23.9544C58.0364 23.5092 58.167 23.0393 58.2349 22.5552C58.4426 21.0768 58.2678 19.3159 57.8342 17.8827C57.3337 16.2283 55.8059 14.6215 56.7222 12.83C56.7463 12.783 56.7287 12.7406 56.697 12.7165C56.6962 12.65 56.6417 12.583 56.5551 12.6028C54.8763 12.9854 53.4604 12.241 51.9342 11.67C50.6534 11.1908 49.2809 10.9309 47.9099 11.0261C47.0121 11.0885 46.1157 11.315 45.3014 11.698C45.9329 11.0718 46.4955 10.3561 46.6257 9.46678C46.7415 8.67403 46.4151 7.79776 45.6501 7.44315C44.8572 7.0756 43.9835 7.54813 43.5283 8.21432C43.0493 8.91531 42.924 9.85855 42.8777 10.7688C42.6841 10.0042 42.3372 9.2766 41.8757 8.63617C41.1651 7.65018 40.1893 6.85605 39.0613 6.38895C37.3803 5.69283 35.3618 5.64619 34.2207 4.03509C34.1868 3.98733 34.129 3.99318 34.0972 4.02367C34.0481 4.01003 33.9913 4.01949 33.9533 4.06989C32.911 5.45183 31.1634 5.73654 29.597 6.18902C28.3586 6.54669 27.193 7.09955 26.2321 7.96831C25.3878 8.73167 24.7596 9.72518 24.448 10.7941C24.2491 9.2372 23.7377 6.88779 21.7475 7.41698C20.9825 7.62039 20.6637 8.30662 20.7346 9.05384C20.8293 10.0528 21.5057 10.8188 22.2481 11.4496C21.7026 11.2181 21.0895 11.1315 20.3839 11.1561C18.8181 11.2107 17.332 11.7643 15.8392 12.1811C13.9817 12.6998 12.2155 12.8109 10.3296 12.358C10.2644 12.3423 10.2205 12.3855 10.2104 12.4352C10.1457 12.4604 10.0975 12.5317 10.1429 12.6089C11.1043 14.2508 10.0627 16.0152 9.38741 17.5439C8.77337 18.934 8.63499 20.2841 8.98039 21.7674C9.1965 22.6956 9.51249 23.6603 10.0253 24.4885C9.14454 23.7992 8.15428 23.0885 7.11837 22.7489C6.22518 22.4561 5.06362 22.5807 4.61149 23.5162C4.16679 24.4362 4.90885 25.2551 5.70498 25.6413C6.67576 26.1121 7.79222 26.2106 8.87506 26.1834C7.45144 26.4839 6.12139 27.208 5.10018 28.2981C4.21609 29.2418 3.67992 30.3819 3.28718 31.5988C2.83197 33.0093 2.55072 35.0943 1.0631 35.811C0.940542 35.8701 1.01562 36.0312 1.12613 36.0422C2.18459 36.1482 2.69597 37.0941 3.09754 37.9543C3.44363 38.6955 3.79576 39.4321 4.18332 40.153C4.88 41.4488 5.69167 42.732 6.88502 43.6325C7.46237 44.0683 8.11689 44.3966 8.81091 44.5668C8.18524 44.593 7.55985 44.6236 6.93446 44.6533C6.33022 44.6818 5.68607 44.6541 5.09205 44.7885C4.17029 44.9969 3.77433 45.8275 4.1532 46.6974C4.57297 47.6611 5.64699 48.0919 6.64929 47.9795C7.76126 47.8549 8.63246 47.2103 9.40254 46.4627C8.94327 47.6555 8.92912 49.035 8.97968 50.3938C9.08123 53.1158 10.675 55.8098 9.86741 58.5341C9.84164 58.6208 9.92834 58.7077 10.0159 58.6817C11.7623 58.1633 13.4571 58.7871 15.1548 59.1852C16.695 59.5465 18.315 59.615 19.8834 59.401C20.7961 59.2766 21.6232 58.9721 22.3558 58.5287C21.9899 58.9097 21.6676 59.3426 21.3538 59.7573C20.9612 60.2763 20.5441 60.8128 20.2968 61.4194C19.9219 62.3381 20.0885 63.3322 21.1053 63.7103C21.9296 64.0169 22.9007 63.6897 23.4406 63.0178C23.786 62.5879 23.8758 62.0598 23.9202 61.5256C23.966 60.9747 24.0066 60.4146 24.0261 59.8564C24.4329 61.0631 25.2961 62.1702 26.2625 62.9499C28.4613 64.7239 31.719 65.3524 33.18 67.9397C33.2281 68.0247 33.346 68.0154 33.396 67.9397C35.1198 65.332 38.5134 64.8135 40.7878 62.8492C41.5847 62.1609 42.1881 61.3092 42.4709 60.3192C42.4094 61.3908 42.5236 62.4935 43.193 63.3631C43.7787 64.1241 44.8559 64.5965 45.787 64.1793C46.7213 63.7607 47.0903 62.6791 46.7337 61.7553C46.3462 60.7521 45.4565 59.7885 44.5793 59.0729C45.7875 59.6786 47.216 59.8918 48.6087 59.8257C51.6515 59.6812 54.5739 58.4437 57.6478 58.8443C57.7437 58.8568 57.8021 58.7297 57.756 58.6567C56.9068 57.3074 57.3393 55.7819 57.774 54.3712C58.1852 53.0361 58.2639 51.8252 58.2087 50.4326C58.1597 49.1977 58.0081 47.8627 57.477 46.7485C58.1297 47.3863 58.8767 47.9407 59.7578 48.2025C60.4877 48.4195 61.7136 48.5211 62.155 47.7265C62.5703 46.9792 61.9262 46.2233 61.2935 45.8834C60.2537 45.3245 59.0261 45.1996 57.8559 45.1186C58.8925 44.9077 59.8225 44.3252 60.5807 43.5906C61.6736 42.5318 62.3857 41.1781 63.0846 39.8477C63.8323 38.4246 64.5843 36.7347 66.1337 36.0284C66.2311 35.9838 66.1962 35.8419 66.1154 35.8073ZM59.3812 22.9762C60.2946 22.4911 62.3989 22.0607 62.4179 23.7004C62.4289 24.6373 61.4616 25.4879 60.7 25.8906C59.8766 26.3261 59.0291 26.4156 58.115 26.3469C58.0793 26.3442 58.0534 26.3612 58.0363 26.3853C57.3493 26.2866 56.6469 26.3087 55.9611 26.4717C57.1998 25.9263 58.4473 25.361 59.6392 24.7236C59.7008 24.7608 59.7777 24.7761 59.8699 24.7569C59.872 24.7565 59.8732 24.7554 59.8752 24.7548C60.1038 24.9265 60.4664 24.8857 60.6579 24.6724C60.884 24.4204 60.796 24.0135 60.5336 23.8222C60.2178 23.5918 59.7183 23.7665 59.5252 24.0824C59.4395 24.2226 59.4372 24.4297 59.5119 24.5793C58.3517 25.0845 57.2113 25.6661 56.0895 26.2562C56.2162 26.157 56.3389 26.0525 56.4569 25.9431C56.8928 25.5395 57.2596 25.0738 57.5485 24.5654C58.0479 23.9171 58.6496 23.365 59.3812 22.9762ZM59.8536 24.0046C60.0831 23.8556 60.3964 23.8429 60.5472 24.0996C60.8113 24.5489 60.2405 24.852 59.8822 24.5982C59.8562 24.5798 59.8307 24.5868 59.813 24.6039C59.8104 24.6028 59.8078 24.6016 59.8053 24.6003C59.812 24.5445 59.7529 24.4856 59.6843 24.506C59.5735 24.3564 59.6619 24.1292 59.8536 24.0046ZM49.1367 11.28C50.5335 11.3911 51.7718 11.8808 53.0594 12.387C54.1515 12.8164 55.3319 13.1706 56.4957 12.8572C55.9034 13.8977 56.3001 15.106 56.7893 16.1232C57.1514 16.876 57.5318 17.6026 57.7139 18.4243C57.9135 19.3259 58.0167 20.276 58.0457 21.1988C58.0969 22.8287 57.6527 24.3664 56.4956 25.5565C55.9521 26.1155 55.288 26.5684 54.5564 26.8475C54.3628 26.9214 54.166 26.9831 53.9684 27.0416C53.9762 27.0339 53.9845 27.0271 53.991 27.0161C56.0195 23.4834 56.3728 18.574 52.957 15.7259C51.3667 14.3999 49.2977 13.9176 47.2595 13.9025C45.4767 13.8891 43.5321 14.1572 42.1772 15.3958C42.3321 15.0817 42.4749 14.7616 42.5974 14.435C42.6141 14.4321 42.63 14.4223 42.6418 14.403C44.0154 12.1388 46.5254 11.0722 49.1367 11.28ZM24.9105 55.8752C24.9053 55.8698 24.9001 55.864 24.8935 55.861C25.0294 55.6215 25.156 55.375 25.2697 55.12C25.3192 59.2216 29.2762 62.0526 33.1936 62.1538C37.2336 62.2583 41.7081 59.5277 41.349 55.0591C41.3576 55.0682 41.3669 55.0765 41.3755 55.0856C41.3749 55.1046 41.3774 55.1244 41.3868 55.1452C41.601 55.6265 41.8079 56.1272 41.9785 56.6399C41.9729 56.6475 41.9663 56.6533 41.9618 56.6633C41.531 57.6407 41.1937 58.6737 40.5901 59.5648C40.0776 60.3214 39.4003 60.961 38.6372 61.4646C37.08 62.4924 35.1909 62.9838 33.3319 62.9952C31.2478 63.0081 29.092 62.4399 27.4602 61.1086C25.867 59.8087 25.0674 58.0094 24.9346 55.9998C24.9391 55.9955 24.9442 55.9917 24.9487 55.9874C24.9903 55.947 24.9575 55.883 24.9105 55.8752ZM41.7902 15.5045C41.7986 15.5214 41.8132 15.5305 41.8293 15.5344C41.7167 15.7532 41.6008 15.9697 41.4801 16.1813C41.1891 12.1588 37.8307 8.88468 33.692 8.87382C29.4369 8.86268 25.775 12.4179 25.8615 16.6881C25.8528 16.6915 25.8442 16.6952 25.8353 16.6986C25.8343 16.6929 25.8339 16.6875 25.8321 16.6815C25.7044 16.259 25.55 15.8442 25.3759 15.4374C25.4174 15.4636 25.4783 15.4563 25.4941 15.394C25.9387 13.6393 26.7539 12.0299 28.046 10.7389C29.5865 9.19961 31.4431 8.45698 33.6222 8.44292C35.6786 8.4297 37.7302 9.03574 39.2693 10.4277C40.6442 11.6711 41.5202 13.3745 41.7454 15.2056C41.7282 15.3103 41.742 15.4082 41.7902 15.5045ZM53.8718 27.0707C53.4913 27.1814 53.1093 27.2837 52.7419 27.4353C55.2244 24.2417 55.9262 19.4237 52.6657 16.4546C51.1638 15.0868 49.1391 14.4142 47.1156 14.4566C45.1569 14.4976 42.8417 15.1031 41.5006 16.6197C41.5003 16.6012 41.4987 16.5831 41.4983 16.5646C41.5256 16.558 41.5514 16.5419 41.5698 16.5105C41.7399 16.2223 41.9049 15.9278 42.0601 15.6277C42.0795 15.6341 42.102 15.6326 42.122 15.616C43.5962 14.4016 45.5175 14.0968 47.381 14.1273C49.3932 14.1602 51.4493 14.6707 52.9721 16.0421C56.1173 18.8747 55.7236 23.5184 53.7869 26.8976C53.7401 26.9794 53.8009 27.0557 53.8718 27.0707ZM33.1938 61.919C29.1438 61.8198 25.5971 58.9392 25.3982 54.8123C25.4087 54.8009 25.4192 54.7895 25.4298 54.7784C26.4564 55.2153 27.5255 55.5713 28.6289 55.84C28.4411 56.3646 28.8012 57.0174 29.3417 57.1611C29.729 57.2641 30.1478 57.082 30.3873 56.7736C30.4545 57.1961 30.7285 57.6 31.1488 57.6802C31.4946 57.7462 31.7566 57.4894 31.9689 57.2534C32.0238 57.1924 32.0765 57.1299 32.1238 57.0654C32.015 57.6606 32.0371 58.2754 32.1861 58.8705C32.3213 59.4105 32.5748 60.2144 33.224 60.3176C34.7894 60.5663 34.7083 57.9477 34.7045 56.7265C34.831 57.1342 35.2048 57.45 35.6623 57.4381C36.0738 57.4275 36.3099 57.2007 36.4445 56.8976C36.4599 56.9604 36.4903 57.0214 36.5462 57.0799C36.7685 57.3123 37.223 57.465 37.5409 57.4319C38.3081 57.3519 38.3486 56.4982 38.2502 55.9C39.2286 55.6744 40.1803 55.3793 41.1005 55.0212C41.0991 55.0307 41.0986 55.041 41.0994 55.052C41.4513 59.3949 37.1081 62.015 33.1938 61.919ZM52.4804 27.3883C51.9997 26.3271 51.431 25.3135 50.7839 24.3564C51.1877 24.0273 51.573 23.5627 51.302 23.0276C51.0279 22.4865 50.3976 22.3986 49.8728 22.5746C50.0399 22.2059 49.9451 21.7103 49.6772 21.4192C49.4355 21.1563 49.0656 21.064 48.7406 21.1563C49.5026 20.5915 50.1897 19.9252 50.7699 19.1765C51.214 18.6035 51.5054 17.9139 50.7752 17.4084C49.1688 16.2963 47.5067 19.0001 46.9394 20.0883L46.9393 20.0887C46.9181 20.0709 46.8971 20.0531 46.8758 20.0354C47.1795 19.7759 47.341 19.3433 47.0691 18.9928C46.8433 18.7017 46.3758 18.7092 46.0298 18.8687C46.178 18.6036 46.121 18.2372 45.8339 18.0423C45.4259 17.7655 44.6555 17.8041 44.3932 18.2543C43.5018 17.7094 42.5663 17.2291 41.5929 16.8212C44.3283 13.9588 49.6274 14.014 52.4927 16.626C55.6797 19.5314 54.957 24.2684 52.4939 27.3611C52.4872 27.37 52.4846 27.3792 52.4804 27.3883ZM49.9107 23.1596C49.9166 23.1596 49.9229 23.159 49.9298 23.1567C50.1206 23.0906 50.3692 23.0585 50.5055 23.2477C50.6273 23.4169 50.5022 23.6607 50.3011 23.6742C50.1735 23.5006 50.0437 23.3288 49.9107 23.1596ZM50.6808 23.2557C50.5682 22.9608 50.1313 22.8806 49.8881 23.0583C49.8735 23.0688 49.8669 23.085 49.8655 23.1013C49.799 23.0172 49.7308 22.9345 49.663 22.8514C49.692 22.827 49.7191 22.8012 49.7438 22.7738C50.2441 22.5955 50.9523 22.5832 51.1667 23.1861C51.3182 23.6121 50.9848 23.9427 50.6759 24.1992C50.5886 24.0726 50.5003 23.9471 50.4102 23.8226C50.6335 23.7641 50.7643 23.4744 50.6808 23.2557ZM49.1153 22.1692C49.1069 22.1724 49.0998 22.1777 49.0933 22.1836C48.9821 22.0588 48.8695 21.9351 48.7553 21.813C48.9051 21.7626 49.1274 21.7305 49.2222 21.8814C49.2548 21.9335 49.2597 22.0018 49.2418 22.0597C49.2194 22.1319 49.1792 22.1442 49.1153 22.1692ZM49.355 21.8772C49.2499 21.6178 48.9042 21.6411 48.6911 21.7285C48.6874 21.7301 48.685 21.7326 48.6819 21.7345C48.5997 21.6474 48.5168 21.561 48.4331 21.4754C48.4374 21.4732 48.4417 21.4717 48.4458 21.4683C48.8028 21.1758 49.3199 21.228 49.5955 21.6021C49.8633 21.9659 49.7956 22.3744 49.5558 22.7194C49.4376 22.5771 49.3171 22.4369 49.1951 22.2978C49.3571 22.2658 49.4106 22.0145 49.355 21.8772ZM47.3015 20.4006C47.5156 19.9472 47.7679 19.5157 48.0791 19.1197C48.438 18.6632 49.0912 17.8442 49.7736 17.9732C49.7698 17.9924 49.778 18.0143 49.8025 18.0238C50.9524 18.4666 48.5179 20.6938 48.0613 21.1044C47.814 20.8635 47.5607 20.6289 47.3015 20.4006ZM50.0621 18.0257C50.0931 17.9962 50.1004 17.943 50.0511 17.9171C49.4227 17.5873 48.8794 18.0394 48.442 18.4742C47.9074 19.0056 47.4991 19.6315 47.2151 20.3243C47.1579 20.2745 47.1005 20.2249 47.0428 20.1756C47.0488 20.1707 47.0547 20.1656 47.0594 20.1581C47.6993 19.1633 48.5461 17.5373 49.9004 17.4478C50.8021 17.3882 51.1992 18.065 50.7172 18.868C50.5251 19.1882 50.2102 19.4955 49.9515 19.7676C49.4541 20.2905 48.9055 20.7443 48.3246 21.1725C48.2689 21.2135 48.2648 21.2795 48.2889 21.3285C48.2538 21.2933 48.2189 21.2578 48.1835 21.2227C48.6825 20.8163 51.0272 18.5688 50.0621 18.0257ZM48.3536 21.388C48.3525 21.3894 48.3524 21.3909 48.3514 21.3923C48.3479 21.3887 48.3444 21.3852 48.3409 21.3816C48.3452 21.3837 48.3492 21.3864 48.3536 21.388ZM46.1053 19.4227C46.2382 19.3451 46.4053 19.2446 46.5605 19.3188C46.7601 19.4143 46.618 19.6254 46.525 19.7492C46.3866 19.6386 46.2467 19.5298 46.1053 19.4227ZM46.6845 19.251C46.4827 19.0862 46.2254 19.2166 46.0431 19.3397C46.0342 19.3458 46.0289 19.3534 46.0251 19.3613C45.9486 19.3039 45.8713 19.2477 45.794 19.1913C46.1059 19.068 46.5213 18.7732 46.8521 19.0199C47.1999 19.2792 47.051 19.7063 46.8111 19.9808C46.7499 19.9302 46.6881 19.88 46.6262 19.8301C46.76 19.6684 46.8838 19.4139 46.6845 19.251ZM45.275 18.8251C45.1596 18.7463 45.0432 18.6688 44.926 18.5922C45.0053 18.4658 45.1962 18.3789 45.3194 18.4948C45.4131 18.5826 45.3909 18.7668 45.275 18.8251ZM45.3934 18.4213C45.2256 18.2616 44.9511 18.3565 44.8467 18.5402C44.7617 18.4852 44.6761 18.4309 44.5902 18.377C44.589 18.3572 44.5838 18.3377 44.5711 18.323C44.7649 18.0552 45.1347 18.0401 45.453 18.1008C45.9786 18.2009 46.1139 18.7334 45.6708 19.0526C45.6588 19.0613 45.6529 19.0744 45.6511 19.0877C45.5631 19.0248 45.4743 18.9627 45.3853 18.901C45.5187 18.7839 45.5276 18.5489 45.3934 18.4213ZM37.0923 15.5127C36.845 15.4704 36.5961 15.4325 36.3458 15.399C36.3993 15.1907 36.5377 14.9869 36.7933 15.0371C37.014 15.0803 37.1265 15.3085 37.0923 15.5127ZM36.7762 14.9036C36.5245 14.8808 36.2175 15.1183 36.2151 15.3807C36.0873 15.3644 35.9588 15.3505 35.8303 15.3365C35.8314 15.3088 35.8337 15.2815 35.8333 15.2533C35.9749 14.7964 36.5697 14.3973 37.0509 14.5256C37.5415 14.6565 37.673 15.1776 37.6736 15.6202C37.525 15.5904 37.3761 15.5615 37.2264 15.5349C37.286 15.2504 37.0763 14.9309 36.7762 14.9036ZM34.5772 15.2376C34.5391 15.0413 34.7532 14.8776 34.9357 14.9652C35.0666 15.0279 35.1124 15.146 35.1426 15.272C34.9549 15.2579 34.7663 15.2468 34.5772 15.2376ZM35.273 15.2833C35.2537 15.0625 35.0681 14.8247 34.8401 14.8219C34.6371 14.8194 34.4111 15.0316 34.4997 15.2348C34.3766 15.2294 34.2533 15.2241 34.1295 15.2208C34.1312 15.2166 34.1346 15.2137 34.1347 15.2085C34.1519 14.7239 34.8411 14.3502 35.2715 14.521C35.6218 14.66 35.6193 15.0001 35.6739 15.3189C35.5407 15.3053 35.4069 15.2941 35.273 15.2833ZM32.5087 15.2391C32.2532 14.3086 31.6924 12.4285 32.904 11.9703C33.5534 11.8272 33.3926 13.4093 33.3963 13.6791C33.4033 14.1904 33.3974 14.7041 33.4306 15.2144C33.1218 15.2163 32.8143 15.224 32.5087 15.2391ZM33.5385 12.4218C33.4819 12.1183 33.3295 11.8347 33.0323 11.8474C33.0197 11.8258 32.9956 11.8103 32.9632 11.8162C31.518 12.0757 31.9689 14.2845 32.3954 15.2461C32.2849 15.2522 32.1745 15.2592 32.0644 15.267C32.0654 15.2578 32.0657 15.2481 32.0633 15.2372C31.8137 14.1113 31.2739 12.4219 32.521 11.6366C33.9043 10.7656 33.9163 12.4346 33.9297 13.1321C33.9428 13.8234 33.9078 14.496 33.803 15.1808C33.8011 15.1933 33.8029 15.2046 33.8044 15.2158C33.7348 15.2149 33.6655 15.2133 33.5957 15.2131C33.6275 14.3321 33.6992 13.2828 33.5385 12.4218ZM30.9474 15.3763C30.7813 15.2483 30.903 15.0174 31.0939 15.0156C31.2788 15.0139 31.3739 15.1651 31.4093 15.3235C31.2548 15.3395 31.1008 15.3569 30.9474 15.3763ZM31.5523 15.31C31.5072 15.0434 31.2693 14.8081 30.9796 14.8939C30.7691 14.9561 30.6768 15.2383 30.8131 15.3945C30.6846 15.4115 30.5563 15.4288 30.4287 15.4481C30.4827 14.9866 30.6464 14.2679 31.2943 14.4976C31.497 14.5695 31.6484 14.707 31.7693 14.8716C31.8131 15.0182 31.8603 15.1553 31.9089 15.2785C31.7899 15.2877 31.671 15.2986 31.5523 15.31ZM29.1628 15.6815C29.1621 15.6801 29.1627 15.6787 29.1619 15.6773C29.1147 15.5982 29.0644 15.5331 29.0848 15.4336C29.1117 15.3033 29.2357 15.2411 29.3615 15.245C29.5672 15.2514 29.6842 15.3988 29.7762 15.5585C29.5706 15.5964 29.3662 15.6376 29.1628 15.6815ZM29.9308 15.5298C29.8007 15.251 29.5063 15.0061 29.1855 15.1257C29.0488 15.1766 28.9523 15.2958 28.941 15.442C28.9337 15.5358 28.9632 15.6506 29.0403 15.7081C28.909 15.7372 28.7784 15.7678 28.648 15.7994C28.5327 15.3387 28.7232 14.836 29.2504 14.7385C29.7985 14.637 30.0626 15.0577 30.2891 15.4705C30.1693 15.4896 30.0497 15.5088 29.9308 15.5298ZM36.9535 14.3407C36.5112 14.3057 36.0113 14.594 35.8044 14.9969C35.7256 14.6275 35.4858 14.294 35.0692 14.3051C34.7481 14.3137 34.2547 14.5389 34.0914 14.8688C34.2377 13.9994 34.2501 13.0384 34.1187 12.1897C34.0228 11.5699 33.6344 11.0979 32.9572 11.2089C31.4012 11.4638 31.3728 13.2427 31.6811 14.5407C31.5014 14.3754 31.2738 14.2693 31.0309 14.2837C30.572 14.3109 30.2869 14.8229 30.2989 15.2585C30.0926 14.7651 29.6717 14.4025 29.0771 14.5969C28.5512 14.7687 28.3289 15.3455 28.4746 15.8416C27.6457 16.0503 26.8366 16.3087 26.0506 16.6134C26.2338 12.5052 29.4489 9.09171 33.6921 9.10674C37.8735 9.1215 41.2276 12.5655 41.2598 16.6857C40.1656 16.2494 39.0258 15.9032 37.8494 15.6565C37.8576 15.086 37.6232 14.3938 36.9535 14.3407ZM34.0533 15.219C34.0435 15.2187 34.0336 15.2188 34.0238 15.2185C34.0291 15.1915 34.034 15.1642 34.0395 15.1374C34.0421 15.1642 34.0459 15.1914 34.0533 15.219ZM33.5634 15.4911C43.8496 15.4911 52.3853 23.0782 53.8075 32.9175C53.7841 32.927 53.7614 32.937 53.7409 32.948C53.6583 32.9919 53.7323 33.1186 53.8145 33.0731C53.8188 33.0707 53.8241 33.0687 53.8285 33.0665C53.9519 33.9679 54.017 34.8874 54.017 35.822C54.017 42.2418 51.0073 47.9752 46.3175 51.7038C46.2885 51.676 46.2325 51.685 46.2318 51.737C46.2317 51.7486 46.2335 51.7592 46.2343 51.7703C42.7477 54.5132 38.3446 56.1529 33.5632 56.1529C22.2851 56.1529 13.1096 47.0325 13.1096 35.822C13.1098 24.6116 22.2853 15.4911 33.5634 15.4911ZM54.1275 38.4627C54.3051 38.528 54.5233 38.532 54.646 38.6798C54.764 38.8216 54.6549 38.9801 54.5046 39.0341C54.3546 39.088 54.1985 39.0395 54.0488 39.01C54.0774 38.8283 54.1038 38.6459 54.1275 38.4627ZM54.2844 36.5067C54.4925 36.5015 54.7425 36.5312 54.7995 36.7553C54.876 37.056 54.4742 37.111 54.2548 37.1181C54.2677 36.9149 54.2777 36.7113 54.2844 36.5067ZM54.2432 34.3418C54.2673 34.3343 54.2917 34.3268 54.317 34.3193C54.2924 34.3297 54.2681 34.3411 54.2439 34.3524C54.2436 34.3488 54.2434 34.3453 54.2432 34.3418ZM54.0999 32.986C54.2585 32.9678 54.4245 32.9957 54.5263 33.109C54.7483 33.3558 54.3781 33.4985 54.1721 33.5635C54.1508 33.3702 54.1265 33.1776 54.0999 32.986ZM54.0365 39.0841C54.299 39.1769 54.7829 39.2124 54.8145 38.8257C54.8434 38.4743 54.3934 38.4347 54.1425 38.3367C54.1616 38.1815 54.1793 38.0258 54.1949 37.8695C54.2971 37.8795 54.4062 37.8846 54.5191 37.8807C54.8909 38.0697 55.2796 38.3487 55.1772 38.7974C55.0854 39.1998 54.3774 39.6326 53.9711 39.4737C53.9945 39.3445 54.0156 39.2144 54.0365 39.0841ZM54.3392 37.685C54.3151 37.6766 54.2907 37.668 54.2674 37.6606C54.2438 37.653 54.2236 37.6673 54.2141 37.6864C54.2132 37.6864 54.2124 37.6864 54.2114 37.6864C54.2261 37.5247 54.2389 37.3627 54.2498 37.1999C54.5257 37.2033 54.9416 37.1392 54.9192 36.7792C54.8991 36.4589 54.561 36.3922 54.2892 36.3888C54.2928 36.2564 54.2941 36.1233 54.2952 35.9902C54.419 36.0316 54.5757 36.0774 54.7578 36.1236C55.1414 36.3025 55.5135 36.5615 55.5027 37.0102C55.488 37.6235 54.8306 37.6772 54.3392 37.685ZM54.2963 35.7592C54.2962 35.6945 54.2946 35.63 54.2938 35.5653C54.9847 35.7285 58.8897 36.5021 57.8332 34.7346C57.8104 34.6964 57.7709 34.6949 57.7424 34.7127C57.4971 34.3929 57.0127 34.2779 56.6057 34.2107C56.1181 34.1302 55.5604 34.0732 55.0351 34.136C56.2571 33.8764 57.9747 33.7764 58.3757 34.9771C58.9802 36.7863 55.14 35.9897 54.2963 35.7592ZM57.8231 35.1146C57.8244 35.1195 57.8284 35.1215 57.8312 35.1249C57.9461 35.7569 57.1242 35.7043 56.7973 35.7052C56.5462 35.7061 56.295 35.6981 56.0443 35.6831C55.4642 35.6483 54.8909 35.5634 54.3194 35.4619C54.3095 35.4601 54.3006 35.4613 54.2925 35.4638C54.2872 35.1593 54.2753 34.8567 54.2568 34.5555C55.0927 34.1933 57.5323 34.0279 57.8231 35.1146ZM54.2352 34.2237C54.2202 34.0311 54.202 33.8393 54.1819 33.6482C54.4443 33.6105 54.8119 33.4359 54.6812 33.1179C54.5878 32.8908 54.3256 32.8283 54.081 32.8521C54.0701 32.7771 54.0594 32.702 54.0477 32.6273C54.4879 32.6551 55.0059 32.7353 55.1592 33.2057C55.3218 33.7049 54.683 34.0485 54.2352 34.2237ZM53.7932 31.3003C53.9643 31.2314 54.1826 31.2804 54.262 31.4643C54.3609 31.6929 54.1438 31.9097 53.9229 31.9207C53.8827 31.7128 53.8397 31.506 53.7932 31.3003ZM53.9439 32.0297C54.2296 32.0268 54.4886 31.7414 54.3998 31.4505C54.3244 31.2036 53.9991 31.059 53.7624 31.1618C53.7479 31.1003 53.7321 31.0393 53.7171 30.978C54.1719 30.9614 54.691 31.0352 54.8519 31.5284C55.0374 32.0968 54.4499 32.3108 54.009 32.3962C53.9884 32.2738 53.9669 32.1515 53.9439 32.0297ZM45.7385 52.493C45.772 52.5445 45.7997 52.5963 45.8049 52.6719C45.8125 52.785 45.7745 52.9058 45.6898 52.9842C45.5243 53.1371 45.2694 53.0732 45.1319 52.9174C45.3368 52.7798 45.5386 52.6377 45.7385 52.493ZM45.0645 52.9614C45.2119 53.1676 45.5242 53.2533 45.7433 53.0943C45.9272 52.9608 46.0108 52.5962 45.866 52.4006C45.9391 52.3467 46.0119 52.2924 46.0843 52.2375C46.403 52.5739 46.4032 53.1252 45.9695 53.3857C45.5339 53.6473 45.1703 53.3867 44.8677 53.0901C44.9335 53.0475 44.9992 53.0048 45.0645 52.9614ZM46.9418 51.5534C47.0926 51.64 47.0781 51.8808 46.9286 51.973C46.797 52.0542 46.5972 52.0362 46.4656 51.9428C46.6262 51.8154 46.7849 51.6854 46.9418 51.5534ZM46.2588 52.1044C46.2934 52.0777 46.3286 52.0517 46.363 52.0248C46.5377 52.1781 46.8467 52.2073 47.0369 52.0762C47.2485 51.9301 47.2565 51.5981 47.0697 51.4459C47.1644 51.3649 47.2578 51.2826 47.3509 51.2C47.6173 51.5168 48.1405 52.1825 47.5056 52.4251C47.1307 52.5682 46.4329 52.5133 46.2588 52.1044ZM47.521 51.049C47.6107 50.9675 47.6994 50.885 47.7876 50.8021C48.2377 51.7196 49.0489 52.4577 49.9867 52.8671C50.4954 53.0893 51.3467 53.2036 51.3264 52.4142C51.3241 52.325 51.2009 52.33 51.1905 52.4142C51.0451 53.593 49.2534 52.3026 48.9489 52.0453C48.5063 51.6713 48.1683 51.2204 47.8598 50.7353C48.1134 50.495 48.3605 50.2479 48.6017 49.9952C48.6049 49.9988 48.6063 50.003 48.6104 50.0063C49.0338 50.3598 49.4667 50.7001 49.8802 51.0657C50.305 51.4413 51.1048 51.9691 51.0663 52.5966C51.0637 52.6381 51.122 52.6405 51.1349 52.6058C51.3332 52.073 50.7971 51.6514 50.4524 51.3189C49.9127 50.7984 49.3429 50.294 48.7357 49.8522C48.752 49.8349 48.7682 49.8177 48.7843 49.8003C49.4489 50.2227 52.991 52.7628 50.9988 53.3928C50.2627 53.6256 49.3345 52.899 48.793 52.4472C48.3041 52.039 47.8948 51.5616 47.521 51.049ZM49.5561 48.9246C49.6823 49.0325 49.8193 49.1675 49.7562 49.3379C49.6602 49.5973 49.3736 49.4315 49.2227 49.3156C49.3354 49.1867 49.4467 49.0564 49.5561 48.9246ZM49.1677 49.3773C49.3295 49.5598 49.6323 49.6903 49.8205 49.47C50.0102 49.2483 49.8298 48.9833 49.6392 48.8222C49.7165 48.728 49.7938 48.6339 49.8693 48.5382C50.2888 48.7419 50.3954 49.2825 50.0564 49.6229C49.7357 49.9448 49.2828 49.8656 48.9608 49.609C49.0303 49.5324 49.0992 49.4551 49.1677 49.3773ZM50.0025 48.3657C50.1121 48.224 50.22 48.0809 50.326 47.9363C50.3279 47.9376 50.3288 47.9394 50.3309 47.9405C50.5151 48.0465 50.8394 48.1718 50.9894 47.9458C51.0598 47.8397 51.0443 47.7019 50.9801 47.5964C50.9196 47.4967 50.8213 47.4344 50.7178 47.385C50.7819 47.2912 50.8447 47.1964 50.9074 47.1014C51.1989 47.3906 51.447 47.7797 51.2006 48.1767C50.9245 48.6211 50.4066 48.5644 50.0025 48.3657ZM50.6438 47.4911C50.8032 47.5723 51.0108 47.7172 50.8789 47.8885C50.7683 48.0319 50.5139 47.9177 50.3885 47.8514C50.4748 47.7322 50.5598 47.6121 50.6438 47.4911ZM37.3348 57.2407C37.0163 57.2058 36.5714 57.0371 36.5793 56.6631C36.5826 56.4975 36.6368 56.3735 36.6012 56.2097C36.7441 56.1889 36.8864 56.166 37.0283 56.1422C37.0074 56.3875 37.0702 56.6973 37.3608 56.7214C37.7562 56.7541 37.8687 56.293 37.8288 55.9921C37.9069 55.9758 37.9848 55.9586 38.0627 55.9415C38.1312 56.5011 38.1337 57.3284 37.3348 57.2407ZM28.8246 55.8877C28.9526 55.9176 29.0813 55.9455 29.2103 55.9731C29.133 56.1511 29.1937 56.397 29.368 56.4953C29.508 56.5742 29.6819 56.5398 29.8049 56.4456C29.8976 56.3744 29.9861 56.2448 29.9772 56.1222C30.1298 56.1488 30.2828 56.1741 30.4366 56.1973C30.4024 56.2877 30.3822 56.3853 30.3747 56.486C30.1866 56.8347 29.8214 57.0856 29.3952 56.9693C28.9039 56.8351 28.7359 56.3324 28.8246 55.8877ZM29.31 55.9946C29.4875 56.0315 29.6658 56.0665 29.845 56.0989C29.8291 56.1916 29.8171 56.2688 29.7326 56.3394C29.643 56.4143 29.5094 56.4482 29.4061 56.3779C29.279 56.291 29.2586 56.1282 29.31 55.9946ZM30.6302 56.2242C30.7342 56.239 30.838 56.2542 30.9425 56.2674C30.9365 56.2725 30.9313 56.2788 30.9288 56.2874C30.8572 56.541 30.8492 56.9472 31.1869 57.0036C31.5623 57.0662 31.7616 56.6586 31.8217 56.3591C31.8218 56.3587 31.8217 56.3584 31.8217 56.358C31.9521 56.3689 32.0828 56.3782 32.2139 56.3866C32.2137 56.3884 32.212 56.3892 32.212 56.3911C32.2148 56.8436 31.584 57.6432 31.0827 57.443C30.5923 57.247 30.544 56.6644 30.6302 56.2242ZM31.013 56.2755C31.2354 56.3027 31.4591 56.3257 31.6836 56.3459C31.6138 56.5682 31.5173 56.9159 31.2138 56.8727C30.9425 56.8342 30.997 56.4913 31.0187 56.2995C31.0198 56.2898 31.0172 56.282 31.013 56.2755ZM32.4609 56.4023C32.5804 56.4086 32.7006 56.4126 32.8206 56.4169C32.4488 57.1222 32.3926 57.9623 32.642 58.7197C32.7699 59.1078 33.0912 59.7988 33.5928 59.4326C33.6099 59.4202 33.6189 59.4042 33.6222 59.3878C33.8969 59.2532 33.9787 58.9738 34.0311 58.641C34.1455 57.9144 34.2241 57.1748 34.2986 56.4431C34.2996 56.4336 34.2976 56.4253 34.2954 56.4173C34.3543 56.4152 34.4133 56.4131 34.4721 56.4106C34.4447 56.9421 34.4172 57.4733 34.3899 58.0048C34.3585 58.6118 34.4203 59.6934 33.7154 59.9965C32.6493 60.455 32.3506 58.7265 32.2959 58.1464C32.2402 57.554 32.3221 56.9766 32.4609 56.4023ZM32.306 56.3924C32.307 56.3924 32.308 56.3925 32.309 56.3925C32.3083 56.3944 32.3076 56.3963 32.307 56.3981C32.3064 56.3963 32.3062 56.3944 32.306 56.3924ZM33.5634 56.4314C33.7522 56.4314 33.9403 56.4285 34.128 56.4235C34.0708 56.83 34.0253 57.2381 33.9764 57.6456C33.9206 58.111 33.9781 59.2107 33.4012 59.3586C33.3999 59.3589 33.3992 59.3597 33.398 59.3601C32.8327 59.4733 32.6629 58.0645 32.6562 57.8238C32.6425 57.3291 32.7629 56.8773 32.9373 56.4211C33.1453 56.4274 33.3539 56.4314 33.5634 56.4314ZM35.9781 56.2909C36.0392 56.5038 35.9009 56.7736 35.6533 56.7711C35.4396 56.7689 35.3034 56.5536 35.3152 56.3572C35.5372 56.3387 35.7581 56.3164 35.9781 56.2909ZM35.6347 56.8982C35.9508 56.9198 36.2135 56.5703 36.1196 56.2748C36.218 56.2626 36.3159 56.2491 36.414 56.2358C36.3631 56.7214 36.2176 57.2723 35.612 57.2652C35.1104 57.2592 34.8471 56.8304 34.7483 56.3971C34.9023 56.3885 35.0559 56.3788 35.2089 56.3666C35.1837 56.6166 35.3641 56.8797 35.6347 56.8982ZM37.6809 56.0226C37.6901 56.2326 37.6587 56.6388 37.3448 56.5776C37.1544 56.5404 37.1327 56.2982 37.1339 56.1247C37.3171 56.0929 37.4995 56.0591 37.6809 56.0226ZM15.6849 46.2477C15.4641 46.2928 15.2904 46.5706 15.4294 46.7772C15.5589 46.9699 15.8802 46.9739 16.0269 46.8052C16.1136 46.9416 16.202 47.0768 16.2919 47.211C16.2527 47.248 16.2112 47.2881 16.1688 47.3311C15.7358 47.5556 15.0473 47.8129 14.9004 47.1536C14.7905 46.6605 15.2252 46.3147 15.5518 46.0213C15.5955 46.0972 15.6403 46.1724 15.6849 46.2477ZM15.9513 46.6847C15.862 46.8077 15.662 46.8486 15.5519 46.7219C15.4221 46.5724 15.5752 46.3773 15.7407 46.3414C15.8098 46.4567 15.88 46.571 15.9513 46.6847ZM16.4037 47.3774C16.4808 47.4903 16.559 47.6024 16.6384 47.7136C16.4687 47.8961 16.2542 48.1991 16.4524 48.3801C16.6189 48.5321 16.9241 48.4754 17.1143 48.3526C17.1817 48.4398 17.2494 48.5268 17.318 48.6128C16.9015 48.7386 16.3133 49.017 15.9578 48.716C15.4857 48.3166 16.0587 47.7488 16.4037 47.3774ZM17.0303 48.2439C16.8897 48.3149 16.7212 48.3815 16.5794 48.3039C16.4258 48.2198 16.5835 47.9688 16.7051 47.806C16.8115 47.9536 16.9201 48.0994 17.0303 48.2439ZM17.306 48.811C17.3829 48.7473 17.3921 48.7501 17.4029 48.7177C17.4526 48.7792 17.5019 48.8412 17.5523 48.902C17.0645 49.3271 16.622 49.7915 16.2065 50.2871C15.9363 50.6095 15.6284 50.9487 15.5367 51.3707C15.3994 52.0028 15.8056 52.4681 16.4374 52.4497C16.4754 52.4486 16.4969 52.4263 16.5039 52.3997C16.86 52.4238 17.0389 52.1543 17.3207 51.8002C17.7621 51.2457 18.2386 50.6983 18.637 50.1112C18.7063 50.1826 18.7761 50.2537 18.8462 50.3242C18.8324 50.3325 18.8195 50.3441 18.8086 50.3594C18.4099 50.9164 18.1174 51.5578 17.662 52.0733C17.1103 52.6977 15.6987 53.3211 15.29 52.1349C15.01 51.322 15.8505 50.4791 16.3182 49.9299C16.6334 49.5601 16.9538 49.1395 17.2995 48.8047C17.2955 48.8087 17.3016 48.8144 17.306 48.811ZM18.5241 49.9944C18.176 50.3811 17.8704 50.8124 17.5508 51.222C17.1996 51.672 16.8678 52.3932 16.2179 52.2609C16.2066 52.2586 16.1976 52.2613 16.1909 52.2664C14.9917 51.983 16.2074 50.5784 16.5876 50.1407C16.9265 49.7503 17.277 49.3695 17.62 48.9826C17.9105 49.3296 18.2119 49.6672 18.5241 49.9944ZM18.9923 50.5103C18.9981 50.5023 19.0038 50.4939 19.0096 50.4858C19.1143 50.5886 19.2199 50.6905 19.327 50.7911C19.1467 50.951 19.1139 51.2692 19.2998 51.4427C19.4792 51.6101 19.8231 51.5645 19.9684 51.3703C20.1262 51.5068 20.2861 51.6405 20.4479 51.7723C20.4307 51.7743 20.4131 51.7805 20.3972 51.7963C20.036 52.156 19.3356 52.3589 18.9163 51.958C18.493 51.5527 18.7999 50.9532 18.9923 50.5103ZM19.4166 50.8738C19.5623 51.0092 19.7097 51.1424 19.8592 51.2735C19.745 51.4146 19.5275 51.4861 19.3819 51.3405C19.2475 51.2064 19.2926 50.9957 19.4166 50.8738ZM20.4963 51.9478C20.5053 51.9389 20.515 51.9305 20.5235 51.9215C20.5444 51.8995 20.5503 51.8747 20.5473 51.8515C20.6916 51.9674 20.8373 52.0813 20.9848 52.1935C20.8156 52.3843 20.7179 52.6684 20.9607 52.8402C21.2006 53.0101 21.4809 52.8812 21.647 52.6779C21.7868 52.7758 21.9278 52.872 22.0701 52.9665C22.068 52.9683 22.0658 52.9686 22.0638 52.9706C21.6649 53.3609 21.0261 53.666 20.5144 53.2872C20.2916 53.1222 20.1452 52.8653 20.1875 52.5842C20.2221 52.3543 20.3963 52.1571 20.4963 51.9478ZM21.5321 52.5974C21.4153 52.7336 21.2513 52.8457 21.0695 52.7493C20.8483 52.6321 20.9646 52.4281 21.0853 52.2704C21.2328 52.3811 21.3816 52.4904 21.5321 52.5974ZM13.0324 32.9251C12.674 32.7616 12.2802 32.5396 12.2783 32.0901C12.2764 31.5914 12.8703 31.3883 13.3087 31.4142C13.2771 31.5573 13.247 31.701 13.2185 31.8452C12.9694 31.7518 12.6163 31.8979 12.6149 32.1947C12.6138 32.4315 12.8858 32.6096 13.0959 32.5266C13.0743 32.6596 13.0542 32.7931 13.0353 32.9269C13.0341 32.9265 13.0337 32.9256 13.0324 32.9251ZM12.9166 33.9442C12.7512 33.9617 12.5218 33.9673 12.4791 33.7863C12.4178 33.5269 12.8065 33.5505 12.9556 33.5563C12.9413 33.6852 12.9284 33.8146 12.9166 33.9442ZM12.8322 36.0153C12.8313 36.0153 12.8308 36.0149 12.8299 36.0149C12.2741 36.0305 11.72 36.0505 11.1644 36.0147C10.8567 35.995 10.5446 35.9714 10.2432 35.9054C9.89122 35.8282 8.99789 35.488 9.36486 34.9352C9.97246 34.5247 10.6731 34.7838 11.3176 34.9253C11.8121 35.0338 12.3059 35.1453 12.8018 35.2472C12.8151 35.25 12.8271 35.2491 12.8382 35.2463C12.8329 35.4376 12.8296 35.6296 12.8296 35.8222C12.8296 35.8866 12.8315 35.9508 12.8322 36.0153ZM12.9018 37.5342C12.8361 37.5313 12.7709 37.5367 12.7011 37.5367C12.5985 37.5369 12.4264 37.5016 12.4872 37.3605C12.5291 37.263 12.6296 37.181 12.7204 37.1313C12.7679 37.1053 12.8189 37.0925 12.8693 37.0792C12.8787 37.2314 12.8892 37.3832 12.9018 37.5342ZM13.0369 38.7292C13.0544 38.8521 13.0728 38.9748 13.0925 39.0969C12.9211 39.1125 12.6807 39.1304 12.6568 38.9291C12.6361 38.7547 12.9022 38.742 13.0186 38.7338C13.0256 38.7334 13.0309 38.731 13.0369 38.7292ZM13.1224 32.3682C13.1161 32.3697 13.1096 32.3718 13.1035 32.3761C12.9623 32.4738 12.7362 32.3384 12.7648 32.1649C12.7953 31.98 13.0295 31.924 13.1809 31.9799C13.1848 31.9813 13.1885 31.9808 13.1923 31.9814C13.1676 32.11 13.1444 32.2388 13.1224 32.3682ZM12.9708 33.4239C12.725 33.3807 12.2974 33.4271 12.3303 33.7731C12.3579 34.0631 12.6702 34.0902 12.9071 34.0511C12.8932 34.213 12.8813 34.3754 12.8711 34.5383C12.5911 34.4136 12.2575 34.2892 12.1472 33.9819C11.9436 33.4142 12.5373 33.1307 13.0102 33.1048C12.9959 33.2108 12.9833 33.3173 12.9708 33.4239ZM12.8263 34.6368C12.839 34.6404 12.8515 34.6434 12.8641 34.6467C12.8555 34.7968 12.8491 34.9474 12.8438 35.0984C12.8435 35.0984 12.8434 35.0981 12.8431 35.0981C12.0587 34.9158 11.2539 34.6879 10.4546 34.5855C10.0921 34.5389 9.77203 34.5692 9.49162 34.7444C9.48168 34.7158 9.44708 34.6952 9.4129 34.7126C8.80965 35.0194 9.24917 35.6845 9.68645 35.9128C10.5565 36.367 11.9024 36.2617 12.8333 36.1108C12.8343 36.1853 12.8343 36.26 12.8361 36.3342C11.6286 36.4239 9.28334 36.6673 8.82743 35.2657C8.19981 33.3362 11.9091 34.5919 12.6935 34.7901C12.796 34.8159 12.8541 34.7119 12.8263 34.6368ZM12.8424 36.5088C12.8469 36.6426 12.8515 36.7764 12.8585 36.9095C12.6239 36.9342 12.3415 37.1817 12.3177 37.3861C12.3037 37.5061 12.3807 37.5971 12.4877 37.642C12.626 37.7 12.7691 37.6558 12.912 37.6477C12.9233 37.7758 12.9354 37.9037 12.9491 38.0311C12.5223 37.9856 11.9601 37.9859 11.8555 37.461C11.7594 36.9786 12.1365 36.6978 12.539 36.5467C12.6404 36.5349 12.7415 36.5219 12.8424 36.5088ZM12.9696 38.2089C12.9841 38.3332 12.9993 38.4574 13.0161 38.581C12.7886 38.5638 12.4614 38.6594 12.4819 38.9412C12.5045 39.2534 12.8634 39.3039 13.1168 39.2422C13.1424 39.394 13.1697 39.5452 13.1986 39.6958C12.7543 39.7935 12.2877 39.6052 12.1725 39.1314C12.0629 38.6813 12.3692 38.3256 12.7728 38.2207C12.8401 38.2211 12.9057 38.2164 12.9696 38.2089ZM17.2187 23.1444C17.2232 23.122 17.2204 23.0977 17.205 23.0784C16.9578 22.7676 16.6311 22.305 17.0099 21.9488C17.345 21.6336 17.8224 21.8611 18.1797 22.0196C18.0987 22.1087 18.0185 22.1987 17.939 22.2892C17.9351 22.2761 17.9273 22.2638 17.9141 22.2548C17.735 22.1327 17.2887 22.0441 17.1233 22.2336C16.9551 22.4265 17.2705 22.7362 17.419 22.8354C17.4421 22.8508 17.4656 22.8444 17.4819 22.8292C17.3955 22.9348 17.3095 23.0408 17.2251 23.1481C17.2228 23.1469 17.2207 23.1457 17.2187 23.1444ZM22.005 18.7203C21.9174 18.7129 21.8382 18.6806 21.7778 18.6119C21.697 18.5197 21.6303 18.2914 21.8579 18.3064C21.9369 18.3115 22.0324 18.3778 22.1011 18.4154C22.1665 18.4515 22.2275 18.4935 22.29 18.5336C22.1946 18.5953 22.0992 18.6571 22.005 18.7203ZM22.4002 18.4616C22.2362 18.3138 21.7351 17.9885 21.6019 18.3008C21.5086 18.5198 21.6869 18.7394 21.8967 18.7941C21.7547 18.8906 21.6139 18.9889 21.4744 19.0887C21.4722 19.0847 21.4712 19.0805 21.4681 19.0766C21.465 19.0727 21.4614 19.0692 21.4583 19.0653C21.4705 19.0411 21.4676 19.0056 21.4428 18.9871C21.0276 18.6785 21.1521 18.088 21.6552 17.9515C22.0418 17.8467 22.3678 18.0557 22.5937 18.3413C22.5291 18.3816 22.4641 18.4208 22.4002 18.4616ZM21.3405 19.1857C21.2196 19.2737 21.0999 19.3628 20.9811 19.4533C20.802 19.2143 20.3577 19.0157 20.1326 19.3084C19.9361 19.564 20.2106 19.7806 20.4433 19.876C20.278 20.0106 20.1147 20.1476 19.9537 20.2871C19.8932 20.1042 19.7509 19.9643 19.7005 19.7755C19.6347 19.5284 19.7123 19.2627 19.8687 19.0666C20.2693 18.5648 20.972 18.7604 21.3405 19.1857ZM20.5216 19.8132C20.3449 19.7327 20.0284 19.5278 20.2871 19.351C20.5126 19.1969 20.7055 19.4174 20.8887 19.5238C20.7651 19.619 20.6429 19.7155 20.5216 19.8132ZM19.7533 20.4641C19.6921 20.5185 19.6307 20.5731 19.5701 20.6282C18.9199 19.8968 17.4382 17.932 16.3353 18.9818C16.3177 18.9985 16.3282 19.0228 16.3458 19.0318C16.2343 19.327 16.5448 19.8358 16.6918 20.0491C17.1547 20.721 17.7844 21.2987 18.5318 21.6416C18.4573 21.7196 18.384 21.7986 18.3108 21.8776C17.3854 21.4747 14.6711 19.4539 16.4604 18.4701C17.8243 17.7203 19.0279 19.5371 19.7533 20.4641ZM18.6077 21.5627C18.1898 21.3026 17.7865 21.0291 17.4343 20.682C17.2652 20.5155 16.0363 19.1823 16.6972 18.9396C16.7309 18.9272 16.7432 18.9009 16.7409 18.8758C17.8206 18.61 18.7719 20.0484 19.4579 20.7318C19.1669 21.0009 18.8829 21.2777 18.6077 21.5627ZM17.4868 22.7478C17.396 22.6559 17.1127 22.38 17.3202 22.2953C17.4861 22.2276 17.7084 22.3211 17.8665 22.3666C17.8679 22.367 17.869 22.3667 17.8704 22.367C17.7423 22.5146 17.6166 22.6644 17.4927 22.8154C17.505 22.7951 17.5068 22.768 17.4868 22.7478ZM16.6611 23.8981C16.6575 23.8961 16.6547 23.8936 16.6505 23.8922C16.5597 23.8621 16.4566 23.8362 16.3867 23.7669C16.3132 23.6941 16.2846 23.5714 16.3911 23.5152C16.5601 23.4259 16.6972 23.5989 16.8372 23.6586C16.7782 23.7381 16.7188 23.8174 16.6611 23.8981ZM16.9016 23.5706C16.7671 23.3732 16.4042 23.2423 16.2282 23.4588C16.1469 23.5588 16.1595 23.697 16.2284 23.7999C16.3091 23.9205 16.453 23.9709 16.5902 23.9997C16.4918 24.1388 16.3953 24.2792 16.3003 24.4208C15.8546 24.251 15.5498 23.7815 15.926 23.3476C16.2452 22.9793 16.7484 23.1113 17.1509 23.2443C17.0667 23.3523 16.9834 23.4609 16.9016 23.5706ZM22.7463 18.2467C22.4138 17.808 21.8005 17.5575 21.3097 17.9262C21.056 18.1168 20.9658 18.4703 21.0694 18.747C20.6847 18.5397 20.2011 18.5207 19.8512 18.8272C19.6463 19.0068 19.5142 19.28 19.5086 19.5526C19.5065 19.6578 19.5277 19.7483 19.561 19.8319C19.0674 19.1891 18.5261 18.5251 17.7797 18.2327C17.1412 17.9827 16.3357 18.0509 15.9091 18.6457C15.1333 19.7275 16.3143 20.9508 17.4064 21.6174C17.1939 21.6078 16.9898 21.6706 16.8289 21.8608C16.5385 22.2037 16.6488 22.6836 16.9169 23.0058C16.4489 22.8523 15.8923 22.9253 15.6605 23.4136C15.4442 23.8694 15.7015 24.4698 16.1962 24.5776C15.6388 25.4255 15.1421 26.3162 14.7131 27.2442C11.7048 24.7842 11.3441 19.5934 14.1444 16.8472C15.6141 15.4059 17.9493 14.8559 19.963 14.9028C21.9725 14.9496 23.8832 15.6973 25.5207 16.8267C24.5565 17.2316 23.6299 17.7073 22.7463 18.2467ZM13.3466 31.2413C12.86 31.1526 12.1979 31.4272 12.1034 31.933C12.0159 32.4012 12.351 32.7928 12.7652 32.9579C12.346 33.0302 11.951 33.2925 11.9381 33.7605C11.9292 34.0858 12.139 34.3141 12.4047 34.4652C11.184 34.0812 8.52854 33.2297 8.4438 35.0393C8.41214 35.7158 9.1084 36.1145 9.65493 36.3348C10.4274 36.646 11.2504 36.6645 12.067 36.5951C11.7775 36.7919 11.585 37.0996 11.6528 37.4886C11.7216 37.8835 12.066 38.1042 12.444 38.185C12.1328 38.3477 11.9293 38.6948 11.9796 39.0763C12.0584 39.6737 12.6646 40.0294 13.2311 39.8634C13.4321 40.8645 13.7063 41.8393 14.0479 42.7827C14.0318 42.7848 14.0153 42.7899 13.9982 42.8012C13.987 42.8087 13.9754 42.8161 13.9642 42.8236C12.0626 42.717 10.1753 41.4559 8.91806 40.1082C7.58058 38.6747 6.77213 36.7175 7.02172 34.7486C7.50761 30.9177 11.0868 28.7213 14.5047 27.7099C14.0163 28.8391 13.6266 30.0197 13.3466 31.2413ZM14.1766 43.1275C14.5381 44.0722 14.9674 44.9837 15.4589 45.8563C15.0113 46.1951 14.4523 46.7836 14.7714 47.3902C15.0117 47.8471 15.483 47.8098 15.8968 47.638C15.6225 47.9876 15.4239 48.4072 15.6802 48.7306C15.9786 49.1069 16.536 49.0618 16.9924 48.8866C16.3258 49.4188 15.6961 50.1832 15.2984 50.8755C14.9673 51.4522 14.8426 52.2438 15.406 52.724C16.7069 53.833 17.8442 52.247 18.5874 51.1185C18.4835 51.4983 18.5168 51.8935 18.8701 52.1557C19.2551 52.4414 19.7774 52.4035 20.1834 52.1807C20.0649 52.3571 19.9729 52.5438 19.9951 52.7709C20.021 53.0372 20.1833 53.2823 20.3938 53.4424C20.979 53.8876 21.737 53.5613 22.2015 53.1077C22.2141 53.0953 22.2212 53.0821 22.2257 53.0684C23.1647 53.6805 24.1562 54.2187 25.1923 54.6749C23.9244 56.0296 21.9201 56.2742 20.1416 56.2349C18.2088 56.1923 16.1815 55.7195 14.6873 54.436C11.5569 51.7471 11.0753 45.9748 14.1766 43.1275ZM44.698 53.2004C45.0467 53.6462 45.6805 53.8777 46.1632 53.4811C46.4598 53.2372 46.5343 52.8702 46.4263 52.549C46.499 52.5863 46.578 52.6151 46.6626 52.6331C46.9659 52.6974 47.428 52.709 47.7001 52.5346C47.9616 52.3672 48.0122 52.1348 47.9549 51.8998C48.3545 52.3802 48.8292 52.796 49.3634 53.1346C49.9656 53.5163 50.9077 53.9934 51.5464 53.4062C52.6749 52.3685 50.6695 50.7804 49.4873 49.9742C49.7701 49.9988 50.062 49.8947 50.2577 49.6505C50.5045 49.3424 50.4921 48.9453 50.2937 48.6566C50.6556 48.7529 51.0574 48.6689 51.3126 48.3604C51.7155 47.8736 51.4346 47.2966 51.0275 46.9207C51.6564 45.9464 52.2049 44.9164 52.664 43.8398C53.6874 45.4806 54.3156 47.3371 54.4435 49.2686C54.5858 51.4161 54.1135 53.2913 52.5977 54.8786C49.8574 57.7482 44.6096 57.6818 41.6542 55.1099C41.6349 55.0812 41.6154 55.0525 41.5961 55.024C41.5695 54.9846 41.5343 54.9693 41.4999 54.968C41.4731 54.9431 41.4462 54.9183 41.4193 54.8935C42.5669 54.4246 43.6637 53.8573 44.698 53.2004ZM53.9341 39.665C54.3977 39.8778 55.1451 39.3762 55.314 38.9572C55.5205 38.4454 55.1655 38.0876 54.7459 37.8619C55.1867 37.8014 55.6074 37.5969 55.672 37.1185C55.7255 36.7225 55.5171 36.436 55.2231 36.2298C56.6777 36.5255 58.8845 36.6517 58.634 35.1038C58.3971 33.6412 56.3747 33.606 55.0164 33.9532C55.2367 33.7747 55.3839 33.5446 55.3416 33.2577C55.2629 32.724 54.7664 32.5337 54.2836 32.4655C54.7264 32.3558 55.1504 32.0892 55.0444 31.5608C54.9173 30.9278 54.242 30.7395 53.6701 30.7871C53.4049 29.7413 53.0595 28.7268 52.64 27.7508C52.6407 27.7505 52.6416 27.7501 52.6423 27.7498C54.8165 27.9635 57.1521 29.0672 58.5709 30.7313C59.8875 32.2754 60.4935 34.3719 60.3086 36.3777C60.1235 38.3836 59.0929 40.2029 57.549 41.4918C56.761 42.1498 55.8496 42.667 54.8771 43.0025C54.4289 43.1572 53.967 43.2751 53.4985 43.3506C53.3226 43.3788 53.0252 43.3612 52.8244 43.4496C53.3111 42.24 53.6848 40.9742 53.9341 39.665ZM25.5326 16.5378C23.757 15.3427 21.6592 14.5913 19.4947 14.664C17.4327 14.7333 15.1924 15.3583 13.7646 16.9126C12.437 18.3576 11.8629 20.3306 12.0398 22.2633C12.1789 23.7836 12.7798 25.8308 14.0172 26.9613C13.7889 26.8716 13.5602 26.7828 13.3333 26.691C13.3302 26.68 13.325 26.669 13.3165 26.6586C12.0778 25.1637 11.2952 23.4137 11.3127 21.4498C11.3294 19.579 12.1147 17.784 13.4225 16.4471C16.6171 13.1814 21.3799 14.0317 25.1727 15.6474C25.177 15.6492 25.1809 15.6486 25.1853 15.65C25.3085 15.9425 25.4256 16.2384 25.5326 16.5378ZM14.1016 27.2339C14.118 27.2308 14.1306 27.2243 14.1423 27.2173C14.2464 27.2471 14.3505 27.2756 14.454 27.3026C14.5127 27.3412 14.572 27.3785 14.6331 27.413C10.9641 28.4529 7.03447 30.8825 6.73711 35.0601C6.59663 37.0341 7.47147 38.9539 8.82505 40.3641C10.0132 41.6021 11.8666 42.9255 13.684 43.007C13.4248 43.1747 13.1581 43.3401 12.8851 43.4965C12.8753 43.4847 12.8626 43.4751 12.8438 43.472C10.8805 43.1575 9.2678 41.7742 8.02795 40.2985C6.66806 38.68 5.94813 36.7195 6.23344 34.6041C6.77465 30.5885 10.288 27.9475 14.1016 27.2339ZM12.7368 43.8553C13.0881 43.6665 13.4301 43.4593 13.7627 43.2453C10.6817 46.0753 11.5123 52.0178 14.5177 54.6049C16.0605 55.933 18.1419 56.4301 20.1416 56.4747C21.7977 56.5116 23.647 56.298 24.9549 55.2314C24.8084 55.5372 24.6431 55.833 24.4626 56.1184C21.0944 57.9427 16.5324 57.0313 13.781 54.4476C10.8798 51.7232 10.1218 47.1503 12.7092 43.9499C12.7334 43.9197 12.7408 43.8863 12.7368 43.8553ZM41.8066 55.4922C43.1809 56.6567 45.1645 57.1741 46.9121 57.2378C49.0112 57.3142 51.0862 56.7228 52.5998 55.2323C54.1505 53.7052 54.7669 51.8959 54.7162 49.7458C54.6672 47.666 54.0457 45.6421 52.9714 43.8647C53.235 44.0129 53.5062 44.1586 53.783 44.2973C53.7842 44.3137 53.7887 44.3309 53.7978 44.3483C55.6009 47.7808 56.1341 52.2686 53.3751 55.3847C50.4633 58.6733 45.7664 58.0646 42.168 56.4147C42.0587 56.1018 41.9373 55.7935 41.8066 55.4922ZM54.0384 44.155C53.6839 43.9956 53.3345 43.8277 52.9901 43.6673C52.9958 43.6453 52.9943 43.6232 52.9868 43.6024C53.2049 43.6119 53.517 43.5981 53.5652 43.5903C53.8328 43.5467 54.0982 43.4901 54.3603 43.4203C54.8295 43.2956 55.2875 43.1294 55.7289 42.928C56.6625 42.5023 57.5225 41.9113 58.251 41.1911C59.6826 39.7755 60.536 37.8842 60.589 35.8731C60.6411 33.8938 59.9545 31.8823 58.6079 30.4104C57.2671 28.9448 55.0232 27.7379 52.9758 27.61C53.2741 27.4971 53.5811 27.4112 53.8874 27.3227C53.8867 27.3547 53.9022 27.3858 53.9393 27.3908C57.8455 27.9229 61.1156 31.1113 61.2448 35.1094C61.3088 37.0905 60.6598 39.1041 59.3847 40.6368C58.0107 42.2882 56.0136 43.2356 54.0911 44.1042C54.0637 44.1166 54.0484 44.135 54.0384 44.155ZM42.9466 13.5962C43.594 12.4029 44.1502 11.1675 44.655 9.90853C44.897 9.99123 45.1921 9.90617 45.3252 9.67519C45.4855 9.39675 45.348 9.01569 45.0694 8.87034C44.7671 8.71274 44.3645 8.86644 44.2164 9.16396C44.0695 9.45912 44.2198 9.73993 44.4883 9.84505C44.487 9.84769 44.4849 9.84923 44.4838 9.85201C43.9999 11.0595 43.4609 12.2417 42.9023 13.4164C42.9868 13.0397 43.0403 12.6557 43.05 12.2638C43.0568 11.9853 43.0402 11.7079 43.0043 11.4329C43.0767 10.8136 43.135 10.1906 43.2528 9.5808C43.4333 8.64591 44.0768 7.35057 45.2491 7.56484C46.4715 7.78829 46.5999 9.21701 46.1738 10.1449C45.8106 10.9359 45.1505 11.5091 44.5464 12.1164C43.8438 12.5674 43.2341 13.1515 42.7868 13.8682C42.8124 13.7811 42.8338 13.6929 42.8562 13.6051C42.8808 13.6307 42.9246 13.6367 42.9466 13.5962ZM44.6545 9.71821C44.3174 9.68188 44.2331 9.31641 44.4757 9.10006C44.6439 8.94998 44.9193 8.92673 45.0882 9.08614C45.4215 9.40092 45.1099 9.8889 44.7334 9.82027C44.738 9.77585 44.7122 9.72434 44.6545 9.71821ZM27.5818 7.28472C29.6692 6.06205 32.5828 6.26365 34.1497 4.21803C34.773 5.22643 35.8885 5.67612 36.9962 6.00079C38.5071 6.44353 39.8923 6.86148 41.0256 8.01272C42.0167 9.01959 42.6785 10.3511 42.7876 11.7622C42.8803 12.9612 42.5208 14.1086 42.007 15.181C41.996 15.1478 41.9817 15.1159 41.9625 15.086C41.4297 11.0234 37.9181 8.2707 33.8673 8.20457C31.6913 8.16893 29.7927 8.81187 28.1838 10.2853C26.7333 11.6136 25.6761 13.4127 25.3377 15.3509C25.208 15.054 25.0695 14.7606 24.9171 14.4744C23.6387 11.7244 25.0805 8.74991 27.5818 7.28472ZM21.2366 10.0047C20.7599 9.08753 20.8035 7.61913 22.1317 7.57333C24.0391 7.50748 24.131 10.0859 24.3036 11.3744C24.3044 11.3803 24.3074 11.3844 24.3088 11.3897C24.1806 12.1196 24.2016 12.8705 24.404 13.5966C24.3488 13.5104 24.2899 13.427 24.2327 13.3421C24.2674 13.3326 24.2962 13.2932 24.2764 13.2501C23.8464 12.3108 23.4678 11.2991 22.9772 10.3909C23.2059 10.2432 23.3139 9.92858 23.2619 9.66434C23.1913 9.30583 22.8438 9.11524 22.4945 9.17677C22.1407 9.23914 21.8516 9.5407 21.9096 9.91243C21.9698 10.2981 22.3651 10.6059 22.7559 10.5225C22.7888 10.5156 22.8071 10.4912 22.8139 10.4632C22.8164 10.4626 22.8183 10.4614 22.8207 10.4607C23.0829 11.3192 23.5315 12.1794 23.9769 12.9758C23.8884 12.8538 23.7999 12.7319 23.707 12.6134C23.3873 12.2057 23.0444 11.8951 22.669 11.6668C22.1341 11.1664 21.5779 10.6616 21.2366 10.0047ZM22.8992 10.291C22.8518 10.2782 22.7944 10.3142 22.7959 10.3683C22.7942 10.3692 22.7928 10.3703 22.7912 10.3715C22.777 10.3577 22.7574 10.3497 22.7329 10.3522C22.4446 10.3826 22.1614 10.209 22.097 9.91564C22.0317 9.61867 22.2763 9.38881 22.5549 9.35066C22.8255 9.31363 23.0653 9.46914 23.1055 9.74439C23.1371 9.96033 23.0528 10.154 22.8992 10.291ZM9.02072 20.3768C8.94341 18.7668 9.75634 17.4812 10.3382 16.0436C10.7889 14.9301 10.9958 13.6796 10.413 12.5872C11.6932 12.9575 13.0371 13.0098 14.3516 12.7855C15.8489 12.53 17.2665 11.9564 18.7465 11.6293C20.3458 11.276 22.1634 11.1622 23.3129 12.52C24.0333 13.3708 24.5956 14.327 25.0484 15.3352C21.1301 13.7134 16.2969 12.9858 13.1128 16.4255C10.5606 19.1825 10.3511 23.7654 12.9829 26.545C12.1748 26.1986 11.4073 25.7848 10.7934 25.115C9.68589 23.9067 9.09804 21.9868 9.02072 20.3768ZM6.88404 25.8025C5.89714 25.5795 4.13023 24.8335 4.88588 23.5272C6.0725 21.4757 9.17213 24.1584 10.3425 24.9864C10.3564 24.9961 10.3707 24.9996 10.3848 25.0004C10.5298 25.1839 10.6862 25.3582 10.8578 25.5192C10.9812 25.6347 11.1105 25.7443 11.2448 25.8482C10.1267 25.4475 8.97982 25.115 7.86253 24.7085C7.8771 24.6929 7.89334 24.6787 7.90637 24.662C7.94167 24.6166 7.91982 24.5492 7.875 24.5321C7.89685 24.3198 7.82191 24.1042 7.6345 23.9667C7.35802 23.7638 6.95267 23.8007 6.73599 24.0696C6.52169 24.3355 6.57786 24.71 6.87311 24.8889C7.11949 25.0382 7.44276 25.0035 7.68745 24.8542C7.69781 24.8623 7.71014 24.8668 7.72317 24.8669C8.95419 25.3382 10.2489 25.8202 11.5499 26.0674C11.587 26.0926 11.6237 26.1184 11.6615 26.1429C11.0356 26.0271 10.4019 25.9995 9.77707 26.051C9.76839 26.0381 9.7541 26.0283 9.73281 26.028C8.77925 26.0145 7.81953 26.014 6.88404 25.8025ZM7.73171 24.5933C7.57386 24.6993 7.42273 24.8077 7.21753 24.8001C6.92354 24.7891 6.68417 24.5176 6.84944 24.2378C6.9797 24.0172 7.27454 23.964 7.49192 24.0886C7.67484 24.1933 7.75552 24.3973 7.73171 24.5933ZM5.62374 41.9982C4.71248 40.7948 4.04143 39.4029 3.40974 38.0404C2.9803 37.1143 2.48685 36.1364 1.47433 35.8603C2.26247 35.3377 2.63812 34.4242 2.9394 33.545C3.4145 32.1585 3.7099 30.6915 4.51779 29.4428C6.18638 26.8639 9.29441 25.8033 12.2463 26.4815C12.6999 26.7176 13.1804 26.9106 13.665 27.0704C9.82091 27.918 6.38485 30.7167 5.96059 34.8049C5.75008 36.8336 6.43877 38.7146 7.70958 40.289C8.93346 41.8055 10.6462 43.3787 12.666 43.6187C11.7343 44.1269 10.7285 44.5032 9.66138 44.4481C7.99027 44.3619 6.59663 43.2829 5.62374 41.9982ZM7.20731 47.6309C6.16789 47.9494 4.83181 47.7009 4.37338 46.6047C3.73581 45.0797 5.35145 44.9441 6.38667 44.8911C7.39051 44.8397 8.3952 44.7973 9.3982 44.7329C9.43896 44.7303 9.46501 44.7072 9.47887 44.6785C9.72903 44.7011 9.98227 44.7033 10.2376 44.6806C10.404 44.6657 10.5683 44.642 10.7308 44.6108C10.6752 44.6564 10.6224 44.703 10.5701 44.7501C10.5554 44.7008 10.4994 44.661 10.4373 44.6896C9.17689 45.2727 7.91365 45.794 6.61918 46.2904C6.60909 46.2782 6.59887 46.2659 6.58724 46.2544C6.55895 46.2267 6.52701 46.2243 6.50096 46.236C6.41496 46.0372 6.17377 45.9138 5.95121 45.9585C5.60819 46.0274 5.49166 46.4428 5.60665 46.7347C5.72865 47.0446 6.12237 47.2135 6.42967 47.0684C6.67366 46.9532 6.78613 46.648 6.69019 46.4088C7.96226 46.0791 9.24371 45.5587 10.389 44.9227C10.0267 45.2878 9.75186 45.6928 9.54597 46.1274C8.85517 46.7463 8.10358 47.3563 7.20731 47.6309ZM6.42883 46.4762C6.43569 46.4745 6.4427 46.4724 6.4497 46.4707C6.47295 46.483 6.50362 46.4777 6.52057 46.4554C6.59985 46.6416 6.50867 46.8762 6.29717 46.9339C6.07811 46.9939 5.82851 46.861 5.75708 46.6484C5.69405 46.4609 5.75008 46.2022 5.95555 46.127C6.13932 46.0596 6.3658 46.1866 6.41132 46.3709C6.40782 46.3723 6.40418 46.3737 6.40068 46.3751C6.33849 46.3989 6.3616 46.4922 6.42883 46.4762ZM24.0055 57.1416C23.9882 57.151 23.9727 57.1658 23.9638 57.1885C23.4046 58.5945 22.8308 59.9515 22.0959 61.2786C22.0943 61.2814 22.0943 61.2839 22.0932 61.2867C21.7904 61.3123 21.5436 61.6143 21.532 61.9097C21.5185 62.2493 21.8109 62.4883 22.1361 62.5007C22.4608 62.5131 22.75 62.2865 22.7589 61.9538C22.7671 61.6519 22.5518 61.331 22.2334 61.3058C22.2302 61.3055 22.2278 61.3066 22.2249 61.3067C22.2242 61.306 22.2233 61.3055 22.2225 61.3049C22.8318 60.3734 23.3808 59.3474 23.7835 58.2884C23.7734 58.5729 23.793 58.8574 23.8416 59.1389C23.7393 60.1147 23.8381 61.1501 23.6133 62.1005C23.3556 63.1899 22.1155 63.9762 21.0315 63.4345C18.9262 62.3822 21.9337 59.4402 22.7695 58.2566C23.2272 57.93 23.6436 57.5471 24.0139 57.1165C24.0108 57.1246 24.0086 57.1331 24.0055 57.1416ZM22.2144 61.4469C22.6511 61.6004 22.7134 62.3146 22.1571 62.3133C21.9355 62.3128 21.7172 62.1692 21.7162 61.9316C21.715 61.6744 21.9264 61.4785 22.1735 61.457C22.1885 61.4557 22.2009 61.4514 22.2119 61.4455C22.2128 61.446 22.2134 61.4467 22.2144 61.4469ZM22.8347 57.9417C21.5956 58.9061 20.1299 59.2077 18.5838 59.2625C16.9945 59.3188 15.5241 59.0314 13.9954 58.6398C12.726 58.3145 11.4401 58.0755 10.1554 58.3957C10.734 56.1255 9.70718 53.9553 9.34763 51.7278C8.95055 49.2679 8.96049 46.2392 11.0729 44.5522C11.0821 44.545 11.0884 44.5366 11.0926 44.5277C11.5146 44.4166 11.9223 44.2558 12.3184 44.0666C9.94445 47.3201 10.6686 51.7888 13.5312 54.5421C15.0987 56.0496 17.1834 56.9489 19.3361 57.2177C20.8559 57.4076 22.7428 57.375 24.147 56.5799C23.7734 57.087 23.3394 57.5488 22.8347 57.9417ZM42.2701 60.1229C41.9014 61.6375 40.7306 62.7158 39.4482 63.5175C37.347 64.8309 34.7836 65.5571 33.296 67.6462C32.0225 65.5734 29.597 64.8221 27.6098 63.5981C25.2258 62.1296 23.2217 59.5833 24.3483 56.7016C24.46 56.5515 24.5642 56.3946 24.6655 56.2354C24.7075 56.2021 24.7466 56.1646 24.7874 56.1294C24.6623 57.989 25.6852 59.8541 27.0437 61.0723C28.627 62.4921 30.7685 63.1602 32.8724 63.2342C34.8262 63.3028 36.8315 62.8616 38.5078 61.8418C39.2936 61.3637 40.0006 60.7574 40.5616 60.0289C41.2636 59.1173 41.6416 58.0389 42.0888 56.994C42.39 58.0149 42.5247 59.0764 42.2701 60.1229ZM46.1067 61.0966C46.7621 62.042 46.959 63.4156 45.6856 63.9776C44.4758 64.5115 43.3014 63.488 42.9075 62.407C42.5481 61.4208 42.6417 60.3671 42.6751 59.3406C42.676 59.3129 42.661 59.297 42.6421 59.2915C42.6869 58.533 42.5726 57.7767 42.3669 57.0415C42.4124 57.1182 42.4601 57.1921 42.5087 57.2652C42.5083 57.2716 42.5079 57.2783 42.5097 57.2857C42.8348 58.6825 43.3061 60.1359 44.0633 61.3699C44.0517 61.38 44.0384 61.3875 44.0275 61.3988C44.0112 61.4156 44.0049 61.434 44.003 61.4521C43.766 61.5564 43.6437 61.8714 43.7391 62.1166C43.8717 62.4576 44.3364 62.5606 44.6395 62.3923C44.946 62.2221 45.096 61.7818 44.8891 61.4819C44.7482 61.2775 44.4739 61.1976 44.2451 61.2676C43.6026 60.0881 43.1984 58.8505 42.749 57.5964C43.103 58.0467 43.5181 58.421 43.9782 58.7254C43.9436 58.7644 43.9318 58.8252 43.9776 58.866C44.7515 59.5543 45.5129 60.2399 46.1067 61.0966ZM44.3329 61.44C44.4681 61.4099 44.6188 61.4496 44.7135 61.5596C44.8866 61.7607 44.775 62.0899 44.5676 62.2192C44.3741 62.3399 44.0758 62.3034 43.9438 62.1092C43.7962 61.8918 43.9399 61.614 44.173 61.5406C44.244 61.603 44.3618 61.5327 44.3329 61.44ZM57.9871 52.0297C57.9126 54.2144 56.282 56.4534 57.4151 58.5681C52.3382 58.0517 46.1504 62.0267 42.3949 56.8581C42.3715 56.8259 42.3337 56.8266 42.3092 56.844C42.2824 56.7559 42.2536 56.6685 42.2246 56.5811C45.7756 58.4532 50.6683 58.8191 53.5527 55.5614C56.3243 52.4311 55.8951 47.9745 54.141 44.4706C54.5892 44.6789 55.0512 44.8616 55.5242 44.9922C55.5322 45.0175 55.5485 45.0412 55.5796 45.0579C58 46.3534 58.0688 49.6349 57.9871 52.0297ZM60.0976 45.6724C60.4993 45.7788 60.9096 45.9129 61.2694 46.1235C61.8892 46.4865 62.4656 47.4208 61.6217 47.9471C60.854 48.4259 59.6648 48.0216 58.9565 47.634C58.3016 47.2756 57.7513 46.7652 57.2084 46.2583C56.9837 45.9009 56.7095 45.5752 56.3736 45.2948C57.1928 45.7791 58.0432 46.2104 58.9172 46.5878C58.9006 46.6324 58.931 46.6796 58.9705 46.6917C58.9376 46.8081 58.9603 46.9462 59.0428 47.0427C59.2774 47.3168 59.7842 47.2203 60.0343 47.0201C60.342 46.774 60.2151 46.3784 59.8702 46.2455C59.5832 46.1348 59.2128 46.2235 59.0071 46.4553C58.1052 46.0649 57.2298 45.6333 56.3685 45.1623C56.6513 45.1985 56.9367 45.2138 57.2243 45.1996C57.2756 45.1971 57.3263 45.192 57.3772 45.1876C57.371 45.2486 57.4066 45.3177 57.4863 45.3235C58.3619 45.3887 59.2456 45.447 60.0976 45.6724ZM59.2441 46.4757C59.3161 46.4258 59.3967 46.3887 59.4934 46.3722C59.7209 46.3332 60.1919 46.4771 60.0203 46.7972C59.9249 46.9753 59.6402 47.0491 59.4545 47.0474C59.3196 47.0463 59.1617 47.0069 59.1095 46.8657C59.0663 46.749 59.1078 46.6111 59.2361 46.57C59.2799 46.5561 59.2817 46.4904 59.2441 46.4757ZM63.7141 38.1716C62.9248 39.5093 62.3158 40.9548 61.4137 42.2258C60.5925 43.3826 59.4662 44.4452 58.0572 44.8194C56.7511 45.1663 55.5035 44.7897 54.3124 44.2757C56.2998 43.3756 58.3404 42.3735 59.7129 40.6254C60.9975 38.9893 61.6266 36.8643 61.4784 34.7971C61.1997 30.9062 57.9828 27.6547 54.096 27.2613C54.3476 27.1861 54.5972 27.1048 54.8396 27.0005C54.9042 26.9727 54.9678 26.9432 55.0312 26.913C55.044 26.9187 55.0585 26.9207 55.0745 26.9149C58.0787 25.8081 61.2058 27.3457 62.7124 30.0324C63.0599 30.652 63.3244 31.3151 63.5069 32.0006C63.6927 32.6983 63.7616 33.4267 63.9925 34.1124C64.2833 34.9753 64.86 35.7378 65.7609 35.9397C64.8443 36.4256 64.2354 37.2879 63.7141 38.1716Z" fill="#A96060"/>
<path d="M13.0761 15.2958C13.4484 15.0435 13.3047 14.5362 13.0411 14.2657C12.6335 13.8472 12.0189 13.5838 11.4575 13.4044C11.4476 13.3929 11.4376 13.3813 11.4275 13.3698C11.4029 13.3414 11.3613 13.3359 11.3268 13.3433C11.303 13.3483 11.2794 13.3533 11.2555 13.3585C11.2372 13.3624 11.2236 13.3712 11.2121 13.3815C11.1876 13.3858 11.1651 13.4037 11.166 13.4326C11.1865 13.9972 11.4417 14.5411 11.8445 14.9381C12.1346 15.224 12.6703 15.5709 13.0761 15.2958ZM11.3011 13.5754C11.6675 13.684 12.0203 13.8256 12.3534 14.0138C12.5285 14.1128 12.722 14.2213 12.8685 14.361C13.1268 14.6076 13.3099 15.2235 12.6702 15.2025C12.2646 15.1891 11.8842 14.7911 11.6706 14.4827C11.4785 14.2054 11.3683 13.8991 11.3011 13.5754Z" fill="#A96060"/>
<path d="M33.6873 7.54082C34.0438 7.60013 34.3683 7.33031 34.4851 7.00954C34.7036 6.40935 34.2977 5.67689 34.1144 5.11763C34.0837 5.02407 33.9268 5.03409 33.9335 5.14199C33.9338 5.14742 33.9348 5.15257 33.9352 5.158C33.5479 5.5449 33.187 6.09623 33.1371 6.65285C33.1031 7.02806 33.2687 7.47121 33.6873 7.54082ZM33.4161 6.26915C33.5393 5.91914 33.7337 5.61104 33.9568 5.31825C33.9973 5.52848 34.0798 5.72283 34.1571 5.92874C34.291 6.28572 34.5187 6.94104 34.1285 7.21907C33.7387 7.49696 33.3367 7.25318 33.3114 6.79124C33.3016 6.61749 33.3593 6.43079 33.4161 6.26915Z" fill="#A96060"/>
<path d="M54.6255 15.4099C55.2734 14.984 55.335 14.1046 55.8031 13.5363C55.8552 13.4731 55.8264 13.3957 55.7752 13.3588C55.787 13.3066 55.7453 13.242 55.6748 13.2558C55.0144 13.3857 54.3486 13.6278 53.8369 14.0761C53.4872 14.3825 53.1086 14.8897 53.483 15.3272C53.7788 15.6729 54.2719 15.6422 54.6255 15.4099ZM53.8872 14.3238C54.0452 14.1665 54.2315 14.0324 54.4231 13.9182C54.7833 13.7033 55.1779 13.5681 55.5792 13.4543C55.3876 13.7088 55.2619 13.9882 55.1368 14.2837C54.9385 14.7519 54.4924 15.6724 53.8106 15.3177C53.3925 15.1001 53.6344 14.5756 53.8872 14.3238Z" fill="#A96060"/>
<path d="M2.313 35.5415C2.24689 35.5724 2.25039 35.6522 2.28863 35.7003C2.25277 35.7204 2.23932 35.7832 2.28471 35.8047C2.9776 36.1346 3.78157 36.5194 4.57168 36.3743C5.00014 36.2956 5.4335 36.0366 5.39834 35.55C5.28685 34.006 2.97354 35.2323 2.313 35.5415ZM4.94747 36.0247C4.76007 36.1329 4.55669 36.1911 4.33735 36.1994C4.06422 36.2214 3.78984 36.1702 3.52554 36.1069C3.14456 36.0155 2.77675 35.866 2.41076 35.7279C2.88978 35.5541 5.11877 34.4125 5.16289 35.4462C5.09104 35.6391 5.01933 35.8319 4.94747 36.0247Z" fill="#A96060"/>
<path d="M11.9866 55.3437C11.3151 55.8772 11.2129 56.8842 10.9145 57.6289C10.9037 57.6558 10.9067 57.68 10.9169 57.7008C10.8212 57.7219 10.8648 57.861 10.9596 57.8472C11.7364 57.7349 12.695 57.5279 13.2696 56.9454C13.6538 56.5558 13.8241 55.8891 13.476 55.4192C13.1201 54.9389 12.4164 55.0022 11.9866 55.3437ZM12.6701 57.1262C12.2052 57.3945 11.6683 57.5426 11.1416 57.6546C11.3671 57.2039 11.4477 56.7016 11.6437 56.2385C11.7703 55.9392 11.9457 55.6333 12.2303 55.4551C12.5842 55.2335 13.1303 55.2367 13.3463 55.6476C13.661 56.2467 13.1644 56.8409 12.6701 57.1262Z" fill="#A96060"/>
<path d="M64.5932 35.7553C63.9545 35.5317 63.1906 35.2357 62.5016 35.3485C62.0666 35.4197 61.546 35.7195 61.5712 36.2212C61.5942 36.6777 62.0599 36.8915 62.4715 36.8723C63.1615 36.84 63.9527 36.3395 64.5191 35.9912C64.5504 35.972 64.5645 35.9447 64.5677 35.9165C64.6584 35.9189 64.6879 35.7885 64.5932 35.7553ZM63.4551 36.3263C63.2593 36.4158 63.0487 36.5328 62.8347 36.5769C62.4955 36.6469 61.3035 36.7124 61.9719 35.8163C62.275 35.4099 63.0676 35.5473 63.4738 35.6381C63.7601 35.7021 64.0408 35.7872 64.3247 35.8606C64.0429 36.0308 63.7552 36.1891 63.4551 36.3263Z" fill="#A96060"/>
<path d="M33.0095 63.9073C31.5446 64.0761 32.5483 66.196 33.1955 66.7276C33.2404 66.7643 33.2929 66.7462 33.3166 66.7102C33.376 66.7318 33.4465 66.7135 33.4636 66.6329C33.6073 65.957 34.3487 65.3442 34.1665 64.6023C34.0428 64.0979 33.4992 63.8509 33.0095 63.9073ZM33.2378 66.5384C32.949 66.2092 32.7141 65.8545 32.5954 65.426C32.437 64.8542 32.4567 64.0106 33.3009 64.1402C34.7162 64.3577 33.3893 65.8351 33.2378 66.5384Z" fill="#A96060"/>
<path d="M56.8621 57.8881C55.98 57.5522 56.1331 56.2882 55.2351 55.9552C54.7956 55.7922 54.2431 55.9182 53.9485 56.2909C53.5377 56.8109 53.9188 57.3988 54.3823 57.7338C55.0812 58.2388 55.9825 58.2389 56.8075 58.1842C56.8585 58.1808 56.8847 58.143 56.8866 58.1045C56.9568 58.0631 56.9659 57.9276 56.8621 57.8881ZM54.826 57.7224C54.5645 57.5951 54.2275 57.3743 54.1016 57.0966C53.7091 56.2313 54.7836 55.964 55.2592 56.2146C55.9747 56.5916 55.9257 57.5954 56.6139 58.0153C56.0073 58.0021 55.3797 57.9919 54.826 57.7224Z" fill="#A96060"/>
<path d="M56.1715 54.9815C56.4173 54.8881 56.5498 54.6191 56.4401 54.3738C56.3306 54.1289 55.9307 54.021 55.7831 54.2957C55.7771 54.3069 55.7736 54.3182 55.7722 54.3292C55.6603 54.419 55.6066 54.5754 55.6376 54.7252C55.688 54.9695 55.9512 55.0653 56.1715 54.9815ZM55.875 54.4315C55.8933 54.4296 55.9118 54.4228 55.9286 54.4072C55.9377 54.3987 55.9475 54.3928 55.9572 54.3859C55.9593 54.3853 55.961 54.3842 55.9631 54.3836C55.9762 54.3802 55.9855 54.3724 55.9929 54.3633C56.1138 54.3019 56.2509 54.3534 56.2824 54.5135C56.3106 54.6565 56.203 54.7831 56.0671 54.8162C55.818 54.8772 55.7296 54.5639 55.875 54.4315Z" fill="#A96060"/>
<path d="M56.3125 51.7546C56.3036 51.7742 56.3041 51.7981 56.3118 51.8189C56.2535 51.9051 56.2323 52.0194 56.273 52.1192C56.3793 52.3809 56.717 52.4181 56.929 52.2671C57.1381 52.1181 57.2785 51.792 57.051 51.5959C56.8406 51.4143 56.4286 51.4978 56.3125 51.7546ZM56.9093 52.0259C56.8245 52.1408 56.6738 52.219 56.5347 52.1479C56.3564 52.0568 56.3951 51.81 56.602 51.7938C56.6426 51.7906 56.6615 51.7465 56.6446 51.718C56.678 51.7028 56.7136 51.6916 56.7538 51.6893C56.9709 51.6769 57.0234 51.8712 56.9093 52.0259Z" fill="#A96060"/>
<path d="M57.0245 49.2269C57.227 49.1042 57.3166 48.8015 57.1593 48.6094C57.0246 48.4449 56.6862 48.4059 56.5653 48.6075C56.4349 48.6886 56.3586 48.8632 56.4075 49.0161C56.4856 49.2606 56.8114 49.3558 57.0245 49.2269ZM56.616 48.7562C56.6368 48.7577 56.6589 48.7518 56.6798 48.7332C56.7716 48.651 56.9139 48.6104 57.0114 48.7158C57.1046 48.8166 57.0497 48.9875 56.9494 49.0613C56.8372 49.1438 56.6585 49.1126 56.5834 48.9926C56.5288 48.9058 56.5557 48.8184 56.616 48.7562Z" fill="#A96060"/>
<path d="M52.3479 57.6328C52.1751 57.7347 52.0505 57.9366 52.126 58.1326C52.2267 58.3937 52.5843 58.3331 52.764 58.1971C52.9527 58.0543 53.0117 57.7588 52.8292 57.5841C52.6937 57.4545 52.4482 57.4823 52.3479 57.6328ZM52.5821 58.0978C52.4455 58.1601 52.2363 58.1481 52.2804 57.9475C52.292 57.8948 52.3209 57.8521 52.3563 57.8133C52.3955 57.8372 52.4478 57.8362 52.4703 57.784C52.5203 57.6689 52.6783 57.6369 52.7392 57.7654C52.8044 57.9022 52.7066 58.041 52.5821 58.0978Z" fill="#A96060"/>
<path d="M50.0573 58.3056C49.8692 58.1712 49.5333 58.1885 49.421 58.4142C49.3972 58.4621 49.4244 58.5125 49.4644 58.5299C49.4108 58.6308 49.3971 58.7601 49.4328 58.8583C49.5308 59.1287 49.8956 59.1356 50.0774 58.9524C50.2555 58.7728 50.2761 58.4618 50.0573 58.3056ZM49.9809 58.7877C49.8926 58.9072 49.6653 58.9585 49.6003 58.7872C49.5496 58.6535 49.6405 58.524 49.7555 58.4651C49.7842 58.4504 49.7841 58.4232 49.7715 58.4016C49.8206 58.3984 49.8713 58.4079 49.9213 58.4337C50.059 58.5044 50.0663 58.6722 49.9809 58.7877Z" fill="#A96060"/>
<path d="M46.007 58.3632C46.0091 58.3402 45.9982 58.318 45.9673 58.3123C45.7473 58.2715 45.5246 58.4589 45.542 58.6848C45.5593 58.9111 45.8081 59.0845 46.0244 58.9935C46.2129 58.914 46.3127 58.6662 46.192 58.4907C46.1497 58.4293 46.0816 58.3852 46.007 58.3632ZM45.9711 58.8218C45.8651 58.88 45.7336 58.786 45.7121 58.6776C45.7043 58.6375 45.7102 58.6016 45.7243 58.5695C45.7448 58.5759 45.7672 58.5762 45.7874 58.5661C45.8682 58.5247 45.9651 58.4963 46.0358 58.578C46.1031 58.6554 46.0529 58.7768 45.9711 58.8218Z" fill="#A96060"/>
<path d="M35.9547 63.6761C35.9469 63.681 35.9404 63.6877 35.933 63.6933C35.9065 63.7129 35.8837 63.7361 35.8638 63.7629C35.8542 63.7755 35.8442 63.7875 35.8361 63.8013C35.8345 63.8041 35.8334 63.807 35.832 63.8098C35.7794 63.9036 35.7599 64.0188 35.7887 64.1165C35.8563 64.3447 36.1326 64.4005 36.3266 64.2992C36.5507 64.1819 36.5795 63.8857 36.4008 63.7127C36.277 63.5929 36.0885 63.5918 35.9547 63.6761ZM36.2078 64.1726C36.0917 64.2124 35.9546 64.1691 35.9287 64.0385C35.9253 64.0217 35.924 64.0053 35.9242 63.9891C35.94 63.9799 35.9536 63.9649 35.9607 63.9413C36.005 63.7936 36.1909 63.7218 36.3008 63.8514C36.401 63.9699 36.3487 64.1243 36.2078 64.1726Z" fill="#A96060"/>
<path d="M39.3557 62.0391C39.2011 62.1045 39.127 62.3018 39.2054 62.454C39.3003 62.6377 39.5629 62.684 39.7272 62.568C39.8885 62.4541 39.9496 62.1953 39.8018 62.0453C39.6903 61.932 39.4622 61.9117 39.3557 62.0391ZM39.6329 62.429C39.5511 62.4899 39.4222 62.479 39.3533 62.4024C39.2975 62.3404 39.3019 62.2461 39.3486 62.1816C39.3742 62.2 39.4108 62.2029 39.442 62.1745C39.5073 62.1156 39.6123 62.095 39.68 62.1665C39.7517 62.2421 39.7076 62.3735 39.6329 62.429Z" fill="#A96060"/>
<path d="M41.372 60.0025C41.3599 59.9887 41.3417 59.9799 41.3217 59.9838C41.1358 60.0207 41.0291 60.2395 41.0658 60.4145C41.106 60.6066 41.3081 60.695 41.4888 60.646C41.6752 60.5953 41.7983 60.405 41.7139 60.2201C41.6626 60.1083 41.5089 59.9999 41.372 60.0025ZM41.4196 60.5164C41.3057 60.537 41.2 60.4731 41.1858 60.3549C41.1777 60.2871 41.1966 60.2266 41.2325 60.1771C41.2484 60.1884 41.2689 60.1943 41.2923 60.1893C41.3525 60.1765 41.3928 60.1562 41.4547 60.1806C41.508 60.2016 41.5588 60.2466 41.5791 60.3007C41.6197 60.4099 41.52 60.4981 41.4196 60.5164Z" fill="#A96060"/>
<path d="M29.7476 63.4122C29.7434 63.4194 29.7416 63.427 29.7404 63.4343C29.6892 63.5165 29.6832 63.6247 29.7143 63.714C29.7926 63.9392 30.0583 64.0618 30.2638 63.9149C30.4484 63.7831 30.5008 63.4953 30.3222 63.3365C30.157 63.1897 29.8598 63.2153 29.7476 63.4122ZM30.2281 63.7199C30.1563 63.8246 30.0292 63.8452 29.9338 63.7583C29.889 63.7175 29.857 63.6571 29.8513 63.5965C29.849 63.573 29.8556 63.5282 29.8716 63.4931C29.8885 63.4744 29.9073 63.4579 29.928 63.4446C29.9349 63.4446 29.942 63.4453 29.9499 63.449C29.9856 63.465 30.0276 63.4378 30.0328 63.4058C30.0803 63.399 30.1297 63.405 30.1764 63.429C30.2883 63.4868 30.2936 63.624 30.2281 63.7199Z" fill="#A96060"/>
<path d="M26.8326 61.8637C26.8042 61.8799 26.7937 61.9033 26.7937 61.9266C26.7213 61.9916 26.673 62.0874 26.6683 62.1847C26.6584 62.3969 26.856 62.5303 27.0542 62.5017C27.2527 62.4732 27.4154 62.294 27.3518 62.0888C27.2884 61.8841 27.0262 61.7527 26.8326 61.8637ZM27.0226 62.3408C26.7905 62.3653 26.7912 62.1058 26.9294 61.9969C27.0401 61.9607 27.1796 62.0369 27.2 62.1544C27.2184 62.2599 27.1172 62.3308 27.0226 62.3408Z" fill="#A96060"/>
<path d="M24.9517 59.9125C24.9231 59.9458 24.9297 59.9985 24.958 60.0257C24.8933 60.1148 24.8783 60.2491 24.9119 60.3494C24.9817 60.5581 25.2181 60.618 25.3989 60.5059C25.5855 60.3903 25.6512 60.1392 25.4998 59.9681C25.3789 59.8318 25.0877 59.7538 24.9517 59.9125ZM25.3296 60.3628C25.2283 60.4381 25.0908 60.4157 25.05 60.2898C25.0125 60.174 25.0632 60.0812 25.1499 60.0076C25.1517 60.0061 25.1517 60.0036 25.1531 60.0017C25.2202 59.9902 25.2849 59.998 25.3519 60.0517C25.4604 60.1386 25.4349 60.2844 25.3296 60.3628Z" fill="#A96060"/>
<path d="M14.7687 57.1912C14.7592 57.187 14.748 57.1856 14.7347 57.1898C14.503 57.261 14.4174 57.5398 14.4988 57.7534C14.5932 58.0009 14.8894 58.063 15.1049 57.9281C15.3171 57.7953 15.3996 57.5071 15.2122 57.316C15.0977 57.199 14.9225 57.1522 14.7687 57.1912ZM15.0061 57.7895C14.7257 57.9479 14.5732 57.6438 14.6653 57.4216C14.6761 57.4181 14.6868 57.4124 14.6967 57.4027C14.8005 57.3001 14.9724 57.3185 15.0776 57.4119C15.2117 57.5311 15.1472 57.7097 15.0061 57.7895Z" fill="#A96060"/>
<path d="M17.3123 57.806C17.2709 57.8316 17.2723 57.8836 17.2983 57.9132C17.1912 57.9971 17.1382 58.1465 17.1618 58.2852C17.2003 58.5124 17.4298 58.6229 17.6422 58.5505C17.8566 58.4774 18.0012 58.2484 17.9062 58.0298C17.8164 57.8231 17.5199 57.678 17.3123 57.806ZM17.6004 58.3999C17.2798 58.5202 17.1877 58.0392 17.46 57.9264C17.4653 57.9242 17.4682 57.9191 17.4721 57.915C17.5821 57.9107 17.6867 57.9509 17.7498 58.057C17.8325 58.1965 17.7408 58.3473 17.6004 58.3999Z" fill="#A96060"/>
<path d="M20.0457 58.0976C19.9293 58.1565 19.8666 58.3427 19.9238 58.4647C20.0335 58.699 20.3684 58.7529 20.5708 58.6108C20.766 58.4735 20.7787 58.1729 20.6014 58.0149C20.451 57.8808 20.1324 57.8978 20.0457 58.0976ZM20.5214 58.4207C20.4441 58.5346 20.264 58.5445 20.1536 58.476C20.0391 58.4048 20.0333 58.2795 20.1143 58.2108C20.1213 58.2091 20.1281 58.2063 20.1347 58.2017C20.1443 58.195 20.1536 58.1883 20.163 58.1815C20.1773 58.1755 20.1922 58.1697 20.2092 58.1666C20.2254 58.1636 20.2325 58.1492 20.2324 58.1346C20.2898 58.0999 20.3507 58.0791 20.4265 58.1051C20.5517 58.1484 20.5929 58.3156 20.5214 58.4207Z" fill="#A96060"/>
<path d="M11.2125 53.797C11.374 53.7023 11.4488 53.4992 11.346 53.3341C11.268 53.2088 11.0178 53.0835 10.8939 53.2183C10.8912 53.2212 10.8909 53.2245 10.8891 53.2277C10.87 53.2195 10.8472 53.2184 10.8245 53.2284C10.6639 53.3004 10.6693 53.5528 10.7422 53.6827C10.837 53.8519 11.0492 53.8927 11.2125 53.797ZM10.8714 53.5798C10.8301 53.4776 10.8775 53.4129 10.923 53.3263C10.9289 53.315 10.931 53.3042 10.9315 53.2937C10.9808 53.2965 11.0258 53.2858 11.0755 53.3024C11.1287 53.3202 11.1747 53.3551 11.2058 53.4015C11.272 53.5003 11.2225 53.6151 11.121 53.6662C11.0231 53.7154 10.9133 53.6836 10.8714 53.5798Z" fill="#A96060"/>
<path d="M10.1492 50.0743C9.99356 50.0269 9.66385 50.0958 9.68108 50.3116C9.68122 50.3136 9.68248 50.3146 9.68276 50.3164C9.63878 50.4599 9.69536 50.6274 9.8196 50.7233C10.0024 50.8645 10.2468 50.7704 10.3451 50.5767C10.4444 50.3813 10.3687 50.141 10.1492 50.0743ZM10.2151 50.5014C10.1612 50.6193 10.023 50.6917 9.9063 50.6117C9.81736 50.5507 9.77716 50.4353 9.79719 50.3322C9.88599 50.258 9.94874 50.1862 10.0857 50.2163C10.222 50.2462 10.2703 50.3807 10.2151 50.5014Z" fill="#A96060"/>
<path d="M10.1832 47.3673C9.96151 47.3481 9.77494 47.5788 9.87943 47.7843C9.88517 47.7956 9.8926 47.8035 9.90072 47.8094C9.92019 47.9099 9.97622 48.0029 10.0646 48.0541C10.2323 48.1513 10.4844 48.0674 10.5491 47.8825C10.6282 47.6565 10.412 47.3871 10.1832 47.3673ZM10.3646 47.9047C10.2701 47.9866 10.1311 47.9703 10.0575 47.8709C10.0303 47.8343 10.0152 47.795 10.009 47.7548C10.0105 47.7446 10.0097 47.7339 10.0063 47.7228C10.0039 47.6696 10.0153 47.6154 10.0336 47.5631C10.0932 47.5139 10.1989 47.5024 10.2673 47.5422C10.3839 47.6106 10.4889 47.7973 10.3646 47.9047Z" fill="#A96060"/>
<path d="M4.78425 37.4945C4.71478 37.4714 4.61449 37.4588 4.55791 37.5119C4.53648 37.4957 4.50735 37.4912 4.47569 37.5118C4.31448 37.6166 4.26643 37.8349 4.35313 38.0045C4.44404 38.1822 4.661 38.2298 4.83384 38.1436C5.01116 38.0551 5.09758 37.8453 4.99547 37.6677C4.94939 37.5875 4.87221 37.5238 4.78425 37.4945ZM4.77123 37.9896C4.68285 38.0393 4.56519 38.0347 4.50805 37.9417C4.45244 37.8511 4.47079 37.7159 4.55721 37.6505C4.57612 37.6361 4.58592 37.6175 4.5897 37.5984C4.62514 37.6047 4.66044 37.6002 4.69825 37.6112C4.75414 37.6276 4.80414 37.6638 4.83818 37.7108C4.91031 37.8103 4.87572 37.9307 4.77123 37.9896Z" fill="#A96060"/>
<path d="M6.09061 40.0613C5.98808 40.0187 5.87421 39.9973 5.76916 40.0438C5.70725 40.0712 5.65865 40.1217 5.65025 40.1806C5.30065 40.4769 6.09047 41.1638 6.36094 40.6506C6.48895 40.4076 6.32158 40.1574 6.09061 40.0613ZM6.18936 40.6135C6.04075 40.7871 5.63498 40.5088 5.71314 40.3034C5.75081 40.3115 5.79255 40.2831 5.79802 40.238C5.81468 40.0992 6.07857 40.2302 6.13123 40.272C6.23684 40.3556 6.2846 40.5021 6.18936 40.6135Z" fill="#A96060"/>
<path d="M8.15971 42.2407C8.00424 42.1311 7.76795 42.1242 7.63951 42.277C7.61192 42.3099 7.61584 42.3471 7.63419 42.3738C7.57508 42.4754 7.57018 42.6127 7.63335 42.7195C7.75507 42.9251 8.0436 42.9516 8.21014 42.7848C8.36785 42.6269 8.33843 42.3666 8.15971 42.2407ZM8.13828 42.5893C8.09724 42.7265 7.91768 42.7784 7.81109 42.6822C7.6905 42.5735 7.73476 42.4255 7.84471 42.3366C7.99794 42.299 8.19179 42.4101 8.13828 42.5893Z" fill="#A96060"/>
<path d="M4.33617 32.2074C4.29527 32.3743 4.33084 32.5617 4.45662 32.6852C4.60481 32.8305 4.83886 32.8179 4.98663 32.6778C5.37586 32.309 4.60299 31.8075 4.27846 32.0787C4.22117 32.1266 4.27398 32.2076 4.33617 32.2074ZM4.46054 32.1728C4.70622 32.1485 5.11324 32.4034 4.84698 32.5918C4.72793 32.676 4.58492 32.6413 4.5062 32.5224C4.43659 32.4173 4.43463 32.2916 4.46054 32.1728Z" fill="#A96060"/>
<path d="M5.6305 29.8012C5.6057 29.9379 5.66173 30.0913 5.78513 30.1637C5.96889 30.2716 6.22913 30.1989 6.30799 29.9972C6.38166 29.8086 6.2916 29.5719 6.09985 29.4945C5.8976 29.4129 5.64646 29.5152 5.5641 29.7157C5.5431 29.7669 5.58582 29.8003 5.6305 29.8012ZM5.78821 29.683C5.79017 29.6796 5.78877 29.6766 5.78975 29.6734C5.85138 29.6288 5.92603 29.606 6.00727 29.6241C6.13137 29.6518 6.20266 29.7854 6.17871 29.9057C6.1514 30.0425 5.9969 30.1075 5.87169 30.0544C5.71748 29.9891 5.71551 29.8087 5.78821 29.683Z" fill="#A96060"/>
<path d="M8.38869 28.2473C8.48869 28.0382 8.40956 27.7503 8.16878 27.6838C7.95211 27.6239 7.69158 27.7641 7.66329 27.9903C7.65825 28.0045 7.65447 28.0189 7.65265 28.0329C7.63808 28.1502 7.69551 28.2707 7.78263 28.3477C7.97269 28.5159 8.27481 28.4854 8.38869 28.2473ZM7.78795 28.037C7.79537 28.0155 7.80588 27.9963 7.81764 27.9782C7.82381 27.9773 7.82829 27.9749 7.83627 27.9756C7.87409 27.9792 7.89006 27.9401 7.87969 27.9106C8.02956 27.7926 8.28182 27.8273 8.26291 28.0757C8.25366 28.1968 8.1671 28.3089 8.03558 28.2982C7.96513 28.2925 7.89804 28.2533 7.85084 28.2025C7.83249 28.1829 7.79103 28.1069 7.78179 28.048C7.78375 28.0444 7.78641 28.0413 7.78795 28.037Z" fill="#A96060"/>
<path d="M11.198 17.2281C11.3954 17.15 11.4978 16.9215 11.3663 16.7394C11.2994 16.6469 11.163 16.5748 11.0386 16.5751C11.0335 16.5566 11.019 16.5416 10.9937 16.5425C10.7799 16.5509 10.6693 16.8263 10.7123 17.008C10.7636 17.2246 11.0032 17.3052 11.198 17.2281ZM10.8503 16.9464C10.8388 16.8843 10.8503 16.8317 10.8746 16.7853C10.8889 16.7919 10.9052 16.7935 10.9218 16.7866C11.0302 16.7412 11.1346 16.7203 11.2218 16.8222C11.3106 16.9259 11.2394 17.0471 11.1249 17.0879C11.0054 17.1303 10.8746 17.0783 10.8503 16.9464Z" fill="#A96060"/>
<path d="M10.3167 20.1003C10.5211 20.0001 10.6025 19.764 10.4686 19.5717C10.3707 19.4312 10.2003 19.3711 10.0325 19.3793C10.0206 19.3754 10.0078 19.3751 9.99543 19.381L9.99529 19.3811C9.89192 19.3927 9.79164 19.4301 9.7125 19.4932C9.65382 19.54 9.71838 19.6261 9.78141 19.611C9.7859 19.6099 9.79038 19.6086 9.79472 19.6075C9.75774 19.708 9.75634 19.8223 9.79766 19.9233C9.8831 20.1322 10.1202 20.1967 10.3167 20.1003ZM9.96 19.5643C10.0862 19.535 10.2111 19.5279 10.3156 19.6408C10.4296 19.764 10.3595 19.9168 10.2173 19.9704C10.0838 20.0207 9.95201 19.9561 9.9184 19.8159C9.89711 19.7274 9.91546 19.639 9.96 19.5643Z" fill="#A96060"/>
<path d="M10.0538 22.3018C10.0324 22.2958 10.0077 22.2983 9.98464 22.3161C9.83589 22.4311 9.84472 22.6735 9.94514 22.8154C10.0631 22.982 10.2882 22.9944 10.4453 22.875C10.5995 22.7577 10.6534 22.54 10.5219 22.3846C10.4253 22.2706 10.1799 22.1819 10.0538 22.3018ZM10.3627 22.7687C10.118 22.9447 9.92049 22.6125 10.0869 22.4179C10.0987 22.4041 10.1036 22.3899 10.1052 22.3761C10.1565 22.3632 10.1996 22.3487 10.2582 22.3612C10.3113 22.3725 10.3625 22.3991 10.4009 22.4374C10.503 22.539 10.4761 22.6873 10.3627 22.7687Z" fill="#A96060"/>
<path d="M15.4766 13.8169C15.6565 13.7166 15.7743 13.4557 15.6355 13.2763C15.5336 13.1445 15.2896 13.1146 15.198 13.27C15.059 13.3144 14.9557 13.4572 14.9886 13.6118C15.0359 13.835 15.2855 13.9232 15.4766 13.8169ZM15.2396 13.3986C15.26 13.4034 15.2826 13.3989 15.3026 13.3775C15.3106 13.3759 15.3184 13.374 15.3264 13.3733C15.3487 13.3716 15.3656 13.3577 15.375 13.3402C15.4197 13.331 15.4679 13.3411 15.4985 13.3807C15.5654 13.4668 15.4915 13.5961 15.4183 13.6503C15.3301 13.7158 15.2055 13.7094 15.1547 13.6006C15.1142 13.5139 15.1653 13.4369 15.2396 13.3986Z" fill="#A96060"/>
<path d="M19.0449 13.0455C19.2245 12.9886 19.3494 12.8067 19.2827 12.6206C19.2169 12.4368 18.9823 12.3093 18.7991 12.4044C18.7883 12.41 18.7804 12.4171 18.7743 12.425C18.6404 12.5031 18.5781 12.6729 18.6169 12.825C18.665 13.0132 18.8642 13.1027 19.0449 13.0455ZM18.8447 12.5472C18.8496 12.547 18.8543 12.5478 18.8594 12.5465C18.9712 12.5192 19.0991 12.5641 19.1331 12.6853C19.162 12.7882 19.0756 12.8737 18.9807 12.896C18.7558 12.9492 18.7071 12.6692 18.8447 12.5472Z" fill="#A96060"/>
<path d="M22.3239 13.2955C22.5246 13.1848 22.6261 12.8752 22.4481 12.6992C22.3415 12.5938 22.1285 12.5794 22.0129 12.6768C21.8254 12.6972 21.6852 12.8998 21.7377 13.0897C21.8038 13.3292 22.1218 13.407 22.3239 13.2955ZM21.9385 12.8261C21.9481 12.8817 22.0247 12.9061 22.0614 12.8501C22.1237 12.755 22.2673 12.7157 22.3517 12.8129C22.4478 12.9236 22.3621 13.1082 22.2491 13.1682C22.1353 13.2285 21.9639 13.2012 21.8919 13.0883C21.836 13.0006 21.8678 12.8917 21.9385 12.8261Z" fill="#A96060"/>
<path d="M61.9001 38.767C61.8592 38.8004 61.8756 38.8545 61.9107 38.8818C61.8561 38.9558 61.8258 39.0476 61.839 39.1425C61.87 39.3664 62.1232 39.4891 62.3306 39.4272C62.564 39.3576 62.6459 39.0647 62.5305 38.8642C62.4035 38.6434 62.0896 38.6117 61.9001 38.767ZM62.2796 39.2887C62.1613 39.3228 62.0044 39.2575 61.9697 39.134C61.9344 39.0085 62.0198 38.8804 62.1355 38.8332C62.2308 38.8173 62.3292 38.841 62.3889 38.9301C62.4699 39.0508 62.429 39.2457 62.2796 39.2887Z" fill="#A96060"/>
<path d="M60.5393 41.4429C60.4917 41.4421 60.4465 41.4524 60.4085 41.4726C60.2179 41.4989 60.0849 41.7428 60.124 41.9203C60.1744 42.1486 60.4521 42.2533 60.6582 42.1673C60.8801 42.0747 60.9309 41.7915 60.805 41.6007C60.7463 41.512 60.6487 41.445 60.5393 41.4429ZM60.5546 42.0441C60.4358 42.068 60.2915 42.0065 60.2589 41.8836C60.2348 41.7925 60.2647 41.7183 60.318 41.6601C60.3439 41.6956 60.4105 41.7031 60.4312 41.6572C60.5063 41.4911 60.6889 41.6625 60.7138 41.7687C60.7424 41.8907 60.6847 42.0178 60.5546 42.0441Z" fill="#A96060"/>
<path d="M58.2462 43.495C58.2387 43.4833 58.2262 43.4753 58.2077 43.4773C58.0219 43.4975 57.9053 43.7036 57.9759 43.8749C58.0511 44.0571 58.2878 44.1336 58.4605 44.0443C58.6262 43.9587 58.7271 43.7262 58.5929 43.5701C58.5129 43.477 58.3555 43.4377 58.2462 43.495ZM58.3834 43.9238C58.288 43.9668 58.1576 43.9282 58.1052 43.8361C58.0586 43.7542 58.0892 43.662 58.1558 43.6084C58.1583 43.6584 58.2248 43.69 58.2708 43.6523C58.3308 43.6028 58.4152 43.5969 58.4747 43.6558C58.5631 43.7433 58.4765 43.8817 58.3834 43.9238Z" fill="#A96060"/>
<path d="M62.3045 33.256C62.3128 33.3092 62.3321 33.3608 62.3645 33.404C62.4953 33.5777 62.7356 33.5201 62.8405 33.3511C62.9495 33.1755 62.8785 32.9284 62.6597 32.8909C62.4744 32.8591 62.2502 32.9919 62.254 33.1936C62.2545 33.2251 62.2776 33.2468 62.3045 33.256ZM62.6026 33.0295C62.7383 33.0302 62.7772 33.1634 62.7219 33.2699C62.6678 33.3741 62.5388 33.4213 62.4542 33.3217C62.4225 33.2844 62.4035 33.2353 62.3988 33.1857C62.4233 33.0931 62.5006 33.0289 62.6026 33.0295Z" fill="#A96060"/>
<path d="M60.9907 29.4511C60.9841 29.4398 60.9744 29.43 60.9603 29.4284C60.7444 29.402 60.5615 29.629 60.6206 29.8343C60.6775 30.0319 60.9306 30.1406 61.1075 30.0276C61.2652 29.9268 61.3155 29.6785 61.18 29.5393C61.1314 29.4895 61.0625 29.4595 60.9907 29.4511ZM61.029 29.8907C60.932 29.9584 60.7964 29.8891 60.7582 29.7867C60.7472 29.7575 60.7461 29.7299 60.7499 29.7035C60.768 29.705 60.7867 29.6991 60.8027 29.6805C60.8636 29.6102 60.9639 29.5666 61.0498 29.6298C61.1354 29.6932 61.1094 29.8348 61.029 29.8907Z" fill="#A96060"/>
<path d="M58.3355 27.5101C58.3197 27.5288 58.3145 27.5485 58.3163 27.5668C58.2852 27.6195 58.269 27.6819 58.2778 27.7441C58.3106 27.9743 58.6008 28.0471 58.7918 27.9787C59.0023 27.9034 59.148 27.6488 58.9841 27.4572C58.8085 27.2517 58.4943 27.322 58.3355 27.5101ZM58.7635 27.826C58.6687 27.8711 58.5316 27.8642 58.4583 27.7833C58.4079 27.7276 58.4159 27.6524 58.455 27.5996C58.4785 27.5808 58.5036 27.5622 58.5299 27.5452C58.5485 27.5392 58.5683 27.5357 58.5897 27.5384C58.6149 27.5416 58.6295 27.5189 58.6309 27.4962C58.6894 27.4774 58.7509 27.4763 58.8121 27.5125C58.9584 27.5989 58.8939 27.7641 58.7635 27.826Z" fill="#A96060"/>
<path d="M55.6781 16.9056C55.5287 16.9858 55.4616 17.1767 55.5222 17.334C55.5895 17.508 55.7874 17.5627 55.9513 17.4906C56.1147 17.4188 56.1999 17.2318 56.103 17.072C56.0296 16.9507 55.8672 16.8779 55.7337 16.9227C55.7246 16.9042 55.7029 16.8922 55.6781 16.9056ZM55.9755 17.1582C56.0256 17.2498 55.9513 17.3379 55.8641 17.3667C55.6637 17.433 55.5762 17.215 55.6465 17.0647C55.6678 17.0859 55.7017 17.0968 55.7336 17.082C55.8209 17.0418 55.9279 17.0711 55.9755 17.1582Z" fill="#A96060"/>
<path d="M56.8943 20.8264C57.0767 20.7565 57.1736 20.516 57.0572 20.3509C57.0069 20.2796 56.9236 20.2365 56.8374 20.2252C56.8492 20.2011 56.8348 20.1652 56.8016 20.1642C56.601 20.1581 56.4235 20.3459 56.4499 20.5467C56.4765 20.7483 56.6967 20.9021 56.8943 20.8264ZM56.5908 20.4101C56.6137 20.4298 56.6474 20.4383 56.6751 20.4214C56.7552 20.3721 56.8614 20.3499 56.9282 20.4376C56.9972 20.5283 56.9212 20.6682 56.8185 20.6942C56.7018 20.7239 56.582 20.6117 56.5752 20.4993C56.5731 20.4667 56.5793 20.4371 56.5908 20.4101Z" fill="#A96060"/>
<path d="M56.6419 22.8612C56.6279 22.8765 56.6226 22.8929 56.6219 22.9091C56.5573 23.0056 56.538 23.1332 56.5761 23.2474C56.6479 23.4626 56.9028 23.5168 57.0869 23.408C57.2734 23.2979 57.3446 23.0477 57.1848 22.8823C57.0457 22.7382 56.7848 22.7064 56.6419 22.8612ZM56.9991 23.2834C56.7737 23.4103 56.6436 23.1636 56.7158 22.9869C56.7275 22.9838 56.739 22.9787 56.7499 22.9685C56.8364 22.8879 56.9719 22.8988 57.0594 22.9748C57.1722 23.0727 57.1148 23.2184 56.9991 23.2834Z" fill="#A96060"/>
<path d="M31.1329 7.52334C31.3416 7.46835 31.4239 7.21357 31.3304 7.03076C31.2308 6.83627 30.9452 6.7544 30.7551 6.86119C30.751 6.86342 30.7484 6.8669 30.745 6.86982C30.6033 6.90602 30.5101 7.08799 30.5505 7.23166C30.6139 7.45693 30.9167 7.58028 31.1329 7.52334ZM30.7716 7.01601C30.7796 7.01796 30.7883 7.01921 30.7978 7.0181C30.9036 7.00612 31.0142 6.98092 31.1081 7.049C31.1904 7.10873 31.2168 7.25311 31.128 7.32119C31.0376 7.39038 30.8621 7.32898 30.7851 7.26438C30.7075 7.19895 30.6978 7.07184 30.7716 7.01601Z" fill="#A96060"/>
<path d="M27.902 9.04139C28.1327 8.9896 28.2044 8.73148 28.1526 8.52515C28.1296 8.4334 28.0691 8.34847 27.9733 8.32383C27.8846 8.30099 27.7882 8.33497 27.7527 8.41975C27.5885 8.42087 27.4745 8.62887 27.4896 8.77519C27.5102 8.97414 27.7154 9.0833 27.902 9.04139ZM27.7951 8.51944C27.8224 8.52779 27.8546 8.52473 27.8784 8.50593C27.9829 8.42282 28.0028 8.62789 27.9989 8.69054C27.9918 8.80568 27.9237 8.89618 27.8003 8.88601C27.708 8.8785 27.6385 8.81459 27.6431 8.7195C27.6483 8.61258 27.7182 8.5722 27.7951 8.51944Z" fill="#A96060"/>
<path d="M25.3052 11.2723C25.3711 11.4927 25.6231 11.5491 25.8067 11.4315C25.9896 11.3144 26.0441 11.0614 25.8717 10.9092C25.739 10.7921 25.4284 10.7511 25.3379 10.9456C25.3307 10.9607 25.3295 10.9776 25.3321 10.9939C25.2898 11.0796 25.2789 11.1843 25.3052 11.2723ZM25.477 11.034C25.5596 10.9805 25.64 10.9514 25.7389 11.0139C25.8526 11.0858 25.8263 11.2216 25.7245 11.2917C25.6238 11.3609 25.4831 11.341 25.4508 11.2115C25.434 11.1447 25.446 11.0845 25.477 11.034Z" fill="#A96060"/>
<path d="M37.3894 7.41136C37.5472 7.28244 37.5986 6.99522 37.3835 6.89233C37.3048 6.8546 37.2018 6.85919 37.1212 6.89679C36.9325 6.86351 36.7612 7.09086 36.83 7.27478C36.9123 7.49517 37.214 7.55476 37.3894 7.41136ZM36.9959 7.10339C36.9966 7.10966 36.9951 7.11495 36.9965 7.12149C37.0112 7.19305 37.1109 7.18192 37.1314 7.12149C37.1542 7.05369 37.2277 7.01234 37.2986 7.04074C37.3981 7.08056 37.3566 7.20879 37.2989 7.26712C37.2209 7.34606 37.0871 7.34161 37.0111 7.26016C36.964 7.20962 36.9664 7.14864 36.9959 7.10339Z" fill="#A96060"/>
<path d="M39.7544 9.02526C39.9535 9.01829 40.1208 8.86376 40.1096 8.65965C40.1043 8.56164 40.0543 8.46919 39.9644 8.42436C39.9012 8.3929 39.8337 8.39262 39.7677 8.40752C39.5862 8.35809 39.4109 8.51681 39.3956 8.69669C39.3786 8.89731 39.567 9.0318 39.7544 9.02526ZM39.5843 8.60355C39.6095 8.62805 39.6474 8.64086 39.6881 8.6229C39.7889 8.57835 39.954 8.53686 39.932 8.70546C39.9192 8.80389 39.826 8.85693 39.7326 8.85624C39.6442 8.85554 39.549 8.80584 39.5485 8.70769C39.5484 8.67135 39.5623 8.63487 39.5843 8.60355Z" fill="#A96060"/>
<path d="M41.4872 11.2408C41.7067 11.1772 41.8103 10.8921 41.6701 10.7082C41.6109 10.6303 41.5154 10.5953 41.4219 10.5975C41.4177 10.5798 41.4058 10.5637 41.3816 10.5618C41.1687 10.5469 40.9726 10.7407 41.0032 10.9563C41.0342 11.1761 41.2819 11.3003 41.4872 11.2408ZM41.1659 10.8417C41.1969 10.8897 41.2819 10.9013 41.32 10.8424C41.3725 10.7609 41.5037 10.7508 41.5393 10.8548C41.5764 10.9632 41.4946 11.0717 41.3844 11.0786C41.2806 11.0853 41.17 11.0185 41.1597 10.9102C41.1575 10.8871 41.1606 10.8641 41.1659 10.8417Z" fill="#A96060"/>
<path d="M51.8912 13.6917C52.1167 13.6207 52.236 13.3687 52.0469 13.1874C51.9196 13.0654 51.7237 13.0728 51.5801 13.1608C51.4545 13.1818 51.3577 13.3294 51.3802 13.462C51.4185 13.6868 51.7025 13.7511 51.8912 13.6917ZM51.5346 13.3823C51.6286 13.33 51.734 13.2345 51.8499 13.2657C51.9088 13.2815 51.9737 13.3361 51.9691 13.4011C51.9644 13.466 51.9027 13.5053 51.8455 13.5268C51.7612 13.5586 51.6476 13.5565 51.5772 13.4955C51.5413 13.4646 51.5291 13.4223 51.5346 13.3823Z" fill="#A96060"/>
<path d="M48.2897 12.9177C48.5061 12.8684 48.6127 12.6079 48.4933 12.4207C48.4398 12.3367 48.3442 12.2945 48.2489 12.2923C48.2442 12.2888 48.2412 12.2839 48.2337 12.2825C48.0287 12.2447 47.842 12.4417 47.8607 12.6429C47.8794 12.8456 48.1021 12.9603 48.2897 12.9177ZM48.0119 12.5336C48.044 12.5578 48.0929 12.5634 48.1229 12.5311C48.1912 12.4571 48.3211 12.4258 48.3615 12.5501C48.395 12.6533 48.3243 12.7528 48.2185 12.7619C48.128 12.7695 48.024 12.7178 48.0059 12.6234C48 12.592 48.003 12.5617 48.0119 12.5336Z" fill="#A96060"/>
<path d="M45.4304 13.1211C45.5522 12.998 45.6363 12.7371 45.4784 12.608C45.4295 12.5681 45.3545 12.5532 45.2872 12.5636C45.276 12.5525 45.2588 12.5477 45.2426 12.5576C45.0875 12.6536 44.9565 12.8579 45.0315 13.04C45.1019 13.2112 45.299 13.2538 45.4304 13.1211ZM45.1477 12.8408C45.1546 12.8188 45.1643 12.7986 45.1753 12.7793C45.2078 12.7986 45.2547 12.7933 45.2798 12.7552C45.3314 12.6768 45.4059 12.7399 45.4031 12.8199C45.4004 12.8975 45.3463 13.0382 45.2574 13.0503C45.1481 13.0655 45.1235 12.9186 45.1477 12.8408Z" fill="#A96060"/>
<g filter="url(#filter0_d_643_19510)">
<rect x="13" y="15" width="42" height="42" rx="21" fill="url(#paint0_linear_643_19510)" shape-rendering="crispEdges"/>
<g clip-path="url(#clip1_643_19510)">
<path d="M37.6634 44.25V42.4167C37.6634 41.4442 37.2771 40.5116 36.5895 39.8239C35.9018 39.1363 34.9692 38.75 33.9967 38.75H28.4967C27.5243 38.75 26.5917 39.1363 25.904 39.8239C25.2164 40.5116 24.8301 41.4442 24.8301 42.4167V44.25" stroke="#6E2F2F" stroke-width="1.8" stroke-linecap="round" stroke-linejoin="round"/>
<path d="M37.6621 27.8677C38.4484 28.0715 39.1447 28.5307 39.6418 29.1731C40.1389 29.8155 40.4086 30.6047 40.4086 31.417C40.4086 32.2293 40.1389 33.0186 39.6418 33.661C39.1447 34.3034 38.4484 34.7625 37.6621 34.9663" stroke="#6E2F2F" stroke-width="1.8" stroke-linecap="round" stroke-linejoin="round"/>
<path d="M43.1621 44.2505V42.4171C43.1615 41.6047 42.8911 40.8155 42.3934 40.1734C41.8956 39.5313 41.1987 39.0727 40.4121 38.8696" stroke="#6E2F2F" stroke-width="1.8" stroke-linecap="round" stroke-linejoin="round"/>
<path d="M31.2467 35.0833C33.2718 35.0833 34.9134 33.4417 34.9134 31.4167C34.9134 29.3916 33.2718 27.75 31.2467 27.75C29.2217 27.75 27.5801 29.3916 27.5801 31.4167C27.5801 33.4417 29.2217 35.0833 31.2467 35.0833Z" stroke="#6E2F2F" stroke-width="1.8" stroke-linecap="round" stroke-linejoin="round"/>
</g>
</g>
</g>
<defs>
<filter id="filter0_d_643_19510" x="7.92308" y="11.6154" width="52.1538" height="52.1538" filterUnits="userSpaceOnUse" color-interpolation-filters="sRGB">
<feFlood flood-opacity="0" result="BackgroundImageFix"/>
<feColorMatrix in="SourceAlpha" type="matrix" values="0 0 0 0 0 0 0 0 0 0 0 0 0 0 0 0 0 0 127 0" result="hardAlpha"/>
<feOffset dy="1.69231"/>
<feGaussianBlur stdDeviation="2.53846"/>
<feComposite in2="hardAlpha" operator="out"/>
<feColorMatrix type="matrix" values="0 0 0 0 0.831373 0 0 0 0 0.686275 0 0 0 0 0.215686 0 0 0 0.1 0"/>
<feBlend mode="normal" in2="BackgroundImageFix" result="effect1_dropShadow_643_19510"/>
<feBlend mode="normal" in="SourceGraphic" in2="effect1_dropShadow_643_19510" result="shape"/>
</filter>
<linearGradient id="paint0_linear_643_19510" x1="15.9036" y1="3.70466" x2="58.8754" y2="10.8495" gradientUnits="userSpaceOnUse">
<stop stop-color="#E3B450"/>
<stop offset="0.427885" stop-color="#F6DC7F"/>
<stop offset="1" stop-color="#CAA043"/>
</linearGradient>
<clipPath id="clip0_643_19510">
<rect width="67" height="71" fill="white"/>
</clipPath>
<clipPath id="clip1_643_19510">
<rect width="22" height="22" fill="white" transform="translate(22.9961 25)"/>
</clipPath>
</defs>
</svg>
