<svg width="191" height="281" viewBox="0 0 191 281" fill="none" xmlns="http://www.w3.org/2000/svg">
<path d="M54.7253 -32.2664C46.3244 -29.8271 41.2246 -24.6173 40.7354 -18.0311L40.5311 -15.2249L38.3697 -15.9997C34.2915 -17.4178 26.0922 -16.6927 21.5651 -14.4919C17.3633 -12.46 13.7744 -7.69812 13.1211 -3.26175C12.6319 0.0326843 12.8765 0.319672 16.5057 0.193665C19.1188 0.115936 19.9736 0.276733 21.6458 1.08896C24.0518 2.26572 28.1729 6.05426 30.743 9.42911C33.149 12.6029 36.3293 19.2254 37.2272 22.8843C37.9207 25.8115 38.1654 33.1345 37.5954 34.0674C37.3911 34.3971 36.8185 33.7007 35.9233 32.036C35.1894 30.6528 34.2915 29.187 33.9232 28.7795C33.5979 28.4176 33.313 27.8474 33.313 27.523C33.313 25.853 31.4366 20.0349 29.8451 16.7431C28.4579 13.8936 27.5197 12.5536 25.7669 10.9265C23.3179 8.73373 19.9736 6.61823 17.0783 5.47629C14.9169 4.62387 10.5108 3.97275 10.2258 4.4606C10.1022 4.62411 9.81721 4.70789 9.6129 4.54437C8.83868 4.09406 4.67719 6.57571 2.43514 8.81131C-1.35806 12.5963 -3.72376 16.6641 -4.62165 20.8163C-5.15125 23.1725 -5.11092 30.5348 -4.54101 32.9313C-4.29637 34.0303 -4.33669 35.0464 -4.62165 35.9417C-4.86629 36.6735 -5.19158 38.4241 -5.35557 39.8421L-5.68353 42.4075L-6.57873 40.9835C-7.068 40.2088 -8.00623 38.0152 -8.57883 36.104C-9.55737 33.0106 -9.67834 32.0781 -9.63802 27.1565C-9.63802 22.68 -9.43372 20.9368 -8.57883 17.8059C-6.21313 8.77505 -2.5409 3.68521 2.39482 2.59152C4.31158 2.18408 4.55621 1.98257 4.67719 1.04706C5.08581 -2.36533 -0.134872 -7.40793 -5.51955 -8.87421C-10.8612 -10.2574 -19.0605 -8.59235 -23.9156 -5.09418C-25.0151 -4.31949 -25.9533 -3.74933 -25.9963 -3.83243C-26.077 -3.91016 -26.362 -4.6022 -26.6469 -5.37689C-28.1174 -9.15652 -31.666 -12.4553 -35.8248 -13.7956C-38.0695 -14.5274 -46.1048 -14.9372 -48.0619 -14.3663C-48.9195 -14.1625 -49.8147 -13.2723 -51.1212 -11.3611C-54.1805 -6.88452 -55.8526 -1.51349 -55.4037 2.18842C-55.1187 4.58752 -53.2826 8.69568 -51.9788 9.83224C-50.9599 10.7704 -50.8766 11.2982 -51.7745 11.2982C-53.1213 11.2982 -57.2398 13.858 -59.6055 16.2195C-62.4202 18.9832 -64.7052 22.2406 -65.6838 24.8005C-66.622 27.2828 -66.622 32.4851 -65.6434 35.214C-64.8692 37.4496 -62.8691 40.1772 -61.9712 40.1772C-61.6863 40.1772 -60.7077 39.3597 -59.7695 38.3867C-57.4844 35.9876 -55.0381 35.1738 -50.3067 35.214C-42.5186 35.2917 -32.6042 39.0367 -27.2195 43.9154C-24.9345 46.0303 -21.7542 49.9347 -21.7542 50.6692C-21.7542 51.4814 -28.8513 48.5977 -31.2573 46.8472C-39.169 41.0304 -45.3709 39.4442 -53.2826 41.2348C-62.0519 43.2238 -65.3155 47.7788 -64.8665 57.6219C-64.5815 65.1088 -62.8261 68.7671 -56.5462 75.0719C-54.6698 76.9054 -52.7934 79.1825 -52.3041 80.1555C-51.8148 81.0937 -51.0406 82.3898 -50.632 83.0036C-49.5297 84.5477 -49.9384 84.7889 -52.0191 83.8989C-56.9145 81.741 -61.2776 77.8346 -64.8665 72.4279C-70.9851 63.1129 -72.6976 53.108 -68.864 49.1247C-67.2322 47.4547 -67.6005 46.2764 -70.0872 45.0567C-71.84 44.2043 -72.6572 44.041 -75.8375 44.041C-79.222 44.0786 -79.835 44.2035 -82.2813 45.4232C-87.7467 48.1091 -93.376 55.3879 -94.1905 60.7946C-94.3142 61.773 -94.5588 62.5433 -94.6395 62.5433C-94.7631 62.5433 -95.497 62.1359 -96.3116 61.648C-99.4112 59.7368 -104.307 59.4131 -108.14 60.8365C-111.689 62.1768 -117.522 66.6538 -118.786 68.9725C-119.399 70.1493 -118.622 76.2504 -117.399 79.4644C-115.237 85.1607 -111.444 88.5722 -106.1 89.5533L-104.592 89.8307L-105.734 92.1501C-107.242 95.1175 -107.979 99.719 -107.731 104.48C-107.527 107.653 -107.283 108.539 -106.019 111.139C-104.266 114.72 -101.368 117.453 -98.1074 118.673C-94.4352 120.056 -93.5399 119.642 -93.5399 116.631C-93.4996 114.071 -92.2765 111.636 -89.7468 109.197C-84.1175 103.747 -74.0014 99.841 -65.6004 99.841C-59.7265 99.8839 -54.0165 101.505 -57.3204 102.197C-58.0543 102.366 -59.6055 102.934 -60.705 103.422C-62.1325 104.031 -64.0089 104.395 -66.6596 104.558C-71.3507 104.883 -76.1224 106.068 -78.9774 107.569C-81.5474 108.909 -86.4832 113.752 -88.0746 116.438C-91.1339 121.683 -91.1742 125.26 -88.1956 130.385C-86.5638 133.269 -81.6281 138.113 -78.9774 139.537C-76.1224 141.04 -71.3507 142.217 -66.6596 142.547C-64.0089 142.711 -62.1325 143.075 -60.705 143.688C-59.6028 144.176 -58.0543 144.742 -57.3204 144.903C-54.0165 145.6 -59.7265 147.221 -65.6004 147.264C-74.0041 147.264 -84.1175 143.358 -89.7468 137.908C-92.2765 135.469 -93.4996 133.03 -93.5399 130.427C-93.5399 127.459 -94.4379 127.049 -98.1074 128.432C-101.371 129.652 -104.266 132.38 -106.019 135.956C-107.283 138.564 -107.527 139.46 -107.731 142.626C-107.976 147.384 -107.242 151.98 -105.734 154.95L-104.592 157.269L-106.1 157.557C-111.444 158.53 -115.237 161.945 -117.399 167.641C-118.622 170.855 -119.396 176.956 -118.786 178.133C-117.522 180.451 -111.689 184.928 -108.14 186.269C-104.307 187.692 -99.4112 187.368 -96.3116 185.457C-95.497 184.964 -94.7604 184.562 -94.6395 184.562C-94.5588 184.562 -94.3142 185.332 -94.1905 186.311C-93.376 191.72 -87.7467 199.001 -82.2813 201.682C-79.835 202.902 -79.222 203.027 -75.8375 203.064C-72.6545 203.064 -71.84 202.901 -70.0872 202.049C-67.5978 200.829 -67.2322 199.651 -68.864 197.981C-74.6546 191.965 -67.2322 172.927 -56.2183 165.609C-53.4439 163.776 -50.425 162.352 -50.0593 162.719C-49.9384 162.84 -50.183 163.45 -50.6293 164.102C-51.0379 164.715 -51.8121 166.012 -52.3014 166.95C-52.7907 167.928 -54.6671 170.203 -56.5435 172.033C-62.8261 178.338 -64.5789 181.996 -64.8638 189.483C-65.3128 199.326 -62.0492 203.876 -53.2799 205.87C-45.3683 207.661 -39.1663 206.075 -31.2547 200.258C-28.8486 198.51 -21.7515 195.624 -21.7515 196.436C-21.7515 197.168 -24.9318 201.07 -27.2168 203.185C-32.6015 208.069 -42.5133 211.814 -50.304 211.891C-55.0354 211.934 -57.4818 211.118 -59.7668 208.719C-60.705 207.746 -61.6836 206.928 -61.9685 206.928C-62.8664 206.928 -64.8638 209.656 -65.6407 211.891C-66.6193 214.62 -66.6193 219.822 -65.6811 222.305C-64.7025 224.865 -62.4175 228.122 -59.6028 230.886C-57.2371 233.242 -53.1186 235.807 -51.7718 235.807C-50.8739 235.807 -50.9572 236.335 -51.9761 237.268C-53.2799 238.41 -55.116 242.512 -55.401 244.917C-55.8499 248.619 -54.1778 253.985 -51.1185 258.461C-49.812 260.372 -48.9168 261.268 -48.0592 261.471C-46.1022 262.037 -38.0668 261.635 -35.8221 260.901C-31.6633 259.561 -28.1147 256.267 -26.6442 252.482C-26.3593 251.707 -26.0743 251.021 -25.9937 250.938C-25.9506 250.855 -25.0124 251.425 -23.9129 252.199C-21.4236 253.985 -18.3239 255.248 -14.4904 255.979C-10.6972 256.711 -8.24818 256.711 -5.51686 255.979C-0.132187 254.513 5.08849 249.471 4.67987 246.053C4.5589 245.12 4.31427 244.916 2.39751 244.508C-2.53822 243.409 -6.21044 238.33 -8.57615 229.299C-9.43103 226.168 -9.63533 224.42 -9.63533 219.943C-9.67566 215.022 -9.55469 214.089 -8.57615 210.996C-8.00354 209.085 -7.06532 206.891 -6.57604 206.122L-5.68083 204.698L-5.35288 207.263C-5.1889 208.681 -4.8636 210.432 -4.61897 211.164C-4.33401 212.059 -4.29369 213.075 -4.53832 214.174C-5.10824 216.573 -5.14856 223.93 -4.61897 226.289C-3.72107 230.436 -1.35536 234.506 2.43783 238.294C4.67987 240.53 8.84136 243.011 9.6156 242.566C9.8199 242.397 10.1049 242.484 10.2285 242.645C10.5135 243.132 14.9196 242.481 17.081 241.629C19.9763 240.487 23.3206 238.371 25.7696 236.179C27.5224 234.552 28.4606 233.212 29.8478 230.362C31.4392 227.068 33.3157 221.252 33.3157 219.582C33.3157 219.258 33.6006 218.688 33.9259 218.326C34.2942 217.918 35.1921 216.452 35.926 215.069C36.8212 213.405 37.3938 212.708 37.5981 213.027C38.1681 213.966 37.9234 221.288 37.2298 224.221C36.3319 227.88 33.1517 234.505 30.7457 237.676C28.1757 241.054 24.0545 244.834 21.6485 246.016C19.9763 246.829 19.1214 246.989 16.5084 246.912C12.8792 246.791 12.6346 247.075 13.1238 250.367C13.7771 254.801 17.366 259.56 21.5678 261.592C26.0949 263.79 34.2942 264.523 38.3724 263.105L40.5338 262.33L40.7381 265.136C41.023 268.718 42.4505 271.722 45.1442 274.204C47.5502 276.445 52.5666 278.963 56.1152 279.738L58.6449 280.262L61.5402 278.309C66.5162 274.891 70.0244 269.85 70.6374 265.215C70.882 263.341 70.3498 260.166 69.4546 257.77C69.2502 257.282 69.6992 257.162 72.0246 257.079C73.9816 257.036 75.6134 256.711 77.6109 255.896C83.6488 253.539 87.9312 249.921 89.8883 245.728C91.6035 241.949 91.6438 235.807 89.9716 234.137C89.1947 233.368 89.1544 233.369 87.0333 234.425C81.2427 237.392 71.7799 233.651 63.4166 225.111C59.0535 220.677 56.2388 215.634 55.5049 210.954L55.2173 209.169L57.5427 211.284C58.8492 212.461 60.0724 213.436 60.2767 213.436C60.481 213.436 61.3359 214.495 62.1531 215.755C65.6183 221.248 69.6992 225.356 73.4521 227.184C78.9577 229.827 86.8693 230.483 90.9502 228.572C95.9262 226.21 100.453 216.039 99.5958 208.965C99.2705 206.158 97.679 201.561 95.7623 197.577C94.9047 195.907 94.2138 193.792 94.1304 192.897C94.0901 192.002 93.8455 190.578 93.6412 189.682C93.3966 188.83 93.3159 188.018 93.4772 187.892C93.6009 187.771 94.4584 188.389 95.3536 189.284C101.187 194.855 104.287 203.435 104.287 213.849C104.287 221.253 102.695 225.363 98.9855 227.556C96.7811 228.853 96.8242 229.955 99.1065 232.027C102.206 234.876 107.386 236.253 111.793 235.441C116.809 234.502 123.661 230.075 126.315 226.006L127.823 223.687L129.699 225.64C132.35 228.403 134.756 229.463 138.713 229.624C140.466 229.745 143.036 229.586 144.423 229.299C147.483 228.691 152.623 226.41 153.152 225.357C154.908 222.143 155.518 214.127 154.335 210.101C153.48 207.294 151.031 204.084 148.544 202.666C147.523 202.052 146.708 201.483 146.708 201.363C146.708 201.242 147.606 200.346 148.706 199.368C151.031 197.296 154.09 191.562 154.865 187.777C156.171 181.839 154.499 175.988 150.461 172.321C147.647 169.761 146.504 169.719 145.525 172.285C143.364 177.772 136.307 180.657 125.293 180.614C117.586 180.571 113.056 179.352 107.47 175.813C104.411 173.902 104.615 173.662 109.102 173.662C111.873 173.662 113.709 173.867 115.301 174.389C117.831 175.29 118.726 175.452 123.051 176.018C127.578 176.631 130.923 175.98 135.899 173.457C140.509 171.096 146.504 165.039 144.179 165.039C143.894 165.039 142.547 166.138 141.203 167.478C139.367 169.347 137.735 170.441 134.552 172.028C130.678 173.939 129.984 174.147 126.925 174.311C124.03 174.474 115.709 173.454 115.709 172.923C115.709 172.846 116.973 172.154 118.564 171.384C122.113 169.636 123.989 168.326 128.312 164.667C130.229 163.08 132.065 161.787 132.474 161.787C133.288 161.787 133.942 159.793 133.288 159.343C133.044 159.222 132.474 156.986 132.025 154.421C131.003 148.851 129.82 144.777 128.476 142.092C127.293 139.735 127.334 139.736 131.984 142.379C139.162 146.406 143.079 152.71 143.813 161.374C144.015 163.693 144.219 164.421 144.668 164.421C145.566 164.421 145.485 158.206 144.547 155.316C141.732 146.94 137.694 142.793 128.476 138.767C126.804 138.07 124.64 136.685 123.54 135.709C122.479 134.731 121.175 133.595 120.602 133.228L119.583 132.537H121.54C122.602 132.494 124.804 132.777 126.436 133.144C135.979 135.259 147.074 144.734 149.932 153.154C150.95 156.127 150.991 157.064 150.176 159.343C149.319 161.742 149.399 162.028 150.786 162.599C153.641 163.776 159.884 162.071 163.349 159.138C167.959 155.238 171.344 144.536 169.712 138.966C169.551 138.395 170.04 138.318 173.344 138.359C176.809 138.396 177.341 138.275 179.828 137.055C183.336 135.347 186.476 131.892 188.802 127.254C190.393 124.04 190.474 123.793 189.985 122.375C188.148 117.206 183.906 112.042 179.828 110.05C177.341 108.831 176.809 108.704 173.344 108.747C170.04 108.79 169.551 108.705 169.712 108.139C170.65 105.003 170 100.043 168.08 95.2076C166.043 90.0823 163.921 87.7217 159.351 85.5638C156.335 84.1806 152.703 83.7369 150.786 84.5062C149.399 85.0772 149.319 85.3582 150.176 87.7627C150.991 90.0412 150.95 90.9759 149.932 93.9406C147.074 102.366 135.979 111.836 126.436 113.951C124.804 114.323 122.602 114.603 121.54 114.563H119.583L120.602 113.872C121.175 113.505 122.479 112.369 123.54 111.391C124.64 110.417 126.804 109.03 128.476 108.343C137.694 104.312 141.649 100.285 144.507 91.8255C145.485 88.8983 145.606 82.679 144.668 82.679C144.219 82.679 144.015 83.4101 143.813 85.7261C143.079 94.3897 139.162 100.694 131.984 104.721C127.334 107.364 127.293 107.365 128.476 105.003C129.82 102.323 131.003 98.2543 132.025 92.6841C132.474 90.1188 133.044 87.8833 133.288 87.7627C133.942 87.3124 133.288 85.323 132.474 85.323C132.065 85.323 130.229 84.0199 128.312 82.433C123.989 78.774 122.113 77.4688 118.564 75.7211C116.973 74.9517 115.709 74.2597 115.709 74.1766C115.709 73.6485 124.03 72.6336 126.925 72.7944C129.984 72.9579 130.678 73.1606 134.552 75.0719C137.735 76.6588 139.367 77.7584 141.203 79.6267C142.547 80.967 143.894 82.0665 144.179 82.0665C146.504 82.0665 140.509 76.0094 135.899 73.6478C130.923 71.1254 127.578 70.4738 123.051 71.0876C118.726 71.6586 117.831 71.8101 115.301 72.7054C113.709 73.2335 111.873 73.4384 109.102 73.4384C104.615 73.4384 104.411 73.1926 107.47 71.2813C113.056 67.7483 117.586 66.5285 125.293 66.4856C136.307 66.4427 143.364 69.3361 145.525 74.8205C146.504 77.3859 147.647 77.3439 150.461 74.7839C154.499 71.1196 156.171 65.2611 154.865 59.3182C154.09 55.5386 151.031 49.8094 148.706 47.7373C147.606 46.7589 146.708 45.8632 146.708 45.7426C146.708 45.6219 147.523 45.0501 148.544 44.4389C151.031 43.0155 153.48 39.8031 154.335 36.9993C155.518 32.973 154.908 24.9569 153.152 21.7482C152.623 20.6894 147.483 18.4145 144.423 17.8007C143.036 17.5192 140.466 17.3554 138.713 17.4761C134.756 17.6396 132.35 18.6966 129.699 21.4603L127.823 23.4131L126.315 21.0938C123.661 17.0247 116.809 12.5976 111.793 11.6594C107.386 10.8472 102.206 12.2314 99.1065 15.0782C96.8242 17.1503 96.7811 18.2466 98.9855 19.5493C102.695 21.7474 104.287 25.8548 104.287 33.2559C104.287 43.6699 101.187 52.2506 95.3536 57.8209C94.4584 58.7162 93.6009 59.3237 93.4772 59.203C93.3159 59.0824 93.3966 58.2703 93.6412 57.4125C93.8455 56.5225 94.0901 55.0984 94.1304 54.2031C94.2138 53.3078 94.9047 51.1926 95.7623 49.5226C97.679 45.5392 99.2705 40.9419 99.5958 38.1354C100.453 31.0613 95.9262 20.8899 90.9502 18.5336C86.8693 16.6224 78.9577 17.2701 73.4521 19.9158C69.6992 21.7493 65.6183 25.8534 62.1531 31.303C61.3359 32.6058 60.481 33.6642 60.2767 33.6642C60.0724 33.6642 58.8492 34.6375 57.5427 35.7794L55.2173 37.9312L55.5049 36.1459C56.2388 31.4656 59.0535 26.4227 63.4166 21.9891C71.7799 13.4488 81.2427 9.7077 87.0333 12.6751C89.1544 13.7339 89.1947 13.7351 89.9716 12.9631C91.6438 11.2931 91.6035 5.15128 89.8883 1.37167C87.9312 -2.82077 83.6488 -6.43933 77.6109 -8.80093C75.6134 -9.61313 73.9816 -9.93869 72.0246 -9.97891C69.6992 -10.0566 69.2502 -10.1821 69.4546 -10.67C71.7369 -16.5646 70.8417 -21.4483 66.5995 -26.654C64.4355 -29.2568 59.3384 -33.0423 58.0319 -32.9994C57.54 -32.9994 56.0722 -32.6739 54.7253 -32.2664ZM59.0078 -31.0885C59.0078 -30.925 59.5401 -30.475 60.1906 -30.0675C63.0483 -28.4029 67.1264 -23.6457 68.4303 -20.429C69.2072 -18.4748 69.1239 -14.5704 68.2287 -12.005C67.6561 -10.2144 67.2904 -9.81668 66.1076 -9.36636C65.3307 -9.12509 64.7204 -8.67401 64.7204 -8.39255C64.7204 -7.74387 67.0458 -7.33401 67.9814 -7.82187C69.0836 -8.43573 71.9385 -8.3093 74.6725 -7.61771C80.7911 -6.03079 86.665 -1.47733 88.3372 2.91614C89.192 5.23483 89.6007 9.90973 88.9877 10.8479C88.8264 11.1294 88.0092 10.9693 86.7054 10.4814C84.216 9.50302 80.7508 9.42383 77.7318 10.3192C71.4493 12.1473 63.7419 17.6382 59.2551 23.455C55.7469 28.0093 53.0935 34.7218 53.3812 38.2977C53.4618 39.4798 53.2172 40.4549 52.5236 41.6746C51.9537 42.653 51.3811 43.4232 51.1768 43.4232C50.7278 43.4232 49.6283 41.1877 49.6283 40.2924C49.6283 38.4589 52.6473 29.1463 54.1554 26.3398C55.0533 24.6751 57.3357 21.4603 59.2551 19.2247C64.1478 13.4508 65.9436 9.45844 65.9436 4.29831C65.9436 0.435608 64.7204 -2.61722 62.231 -5.09943C60.5186 -6.76407 59.989 -7.01038 58.5615 -7.01038C57.2147 -7.01038 56.6421 -6.76477 55.5023 -5.6282C53.2172 -3.3497 53.8301 -1.96375 56.2361 -3.95807C57.8249 -5.30374 59.0911 -5.26038 60.7633 -3.75391C63.4139 -1.4754 64.5564 3.11969 63.6989 7.83752C63.2096 10.4403 61.2525 13.731 57.3356 18.4918C53.0129 23.6599 51.0155 27.4397 49.424 33.3396L48.2411 37.6066L47.3432 36.549C46.405 35.4902 46.405 35.4909 45.1415 36.1825L43.8753 36.9155L44.2033 35.371C44.3646 34.5588 44.4883 31.3867 44.448 28.3764C44.448 22.4389 44.284 21.7842 41.2247 13.3243C39.9208 9.70554 39.7165 8.5726 39.7165 5.8009C39.7568 0.841827 41.4693 -2.98303 44.8136 -5.38214C45.9561 -6.23456 46.9776 -6.60202 48.0368 -6.60202C49.545 -6.60202 50.1176 -6.15717 51.5047 -3.9162C52.3193 -2.6188 52.9725 -3.71729 52.3999 -5.50256C51.0155 -9.93622 45.7921 -9.89725 41.714 -5.34024C39.0633 -2.45596 38.0444 0.273254 37.8804 5.03128L37.7164 9.13593L40.0821 16.0049L42.4478 22.8791L42.4075 29.1827C42.3672 37.6855 42.2435 38.7425 40.8161 40.2034C40.2058 40.8575 39.5526 41.3866 39.3886 41.3866C39.2273 41.3866 38.8993 40.4491 38.6547 39.35C38.2891 37.6854 38.3293 37.0708 38.8186 36.1406C39.8375 34.1034 40.2864 29.917 39.8778 26.1722C38.6546 15.3963 30.7027 3.07379 22.5033 -0.748718C20.9925 -1.48053 19.729 -1.72775 17.6483 -1.72775H14.8336L15.0782 -3.1937C15.6912 -6.97333 18.8714 -10.8801 22.912 -12.7485C28.4982 -15.3513 37.3508 -15.3513 40.6951 -12.7485C42.1225 -11.6494 44.3243 -11.2452 44.3243 -12.0574C44.3243 -12.4247 43.835 -12.9956 43.2651 -13.3977C42.2032 -14.0518 42.2032 -14.1727 42.4075 -17.183C42.7758 -22.512 45.1819 -25.8832 50.5262 -28.6121C54.521 -30.6386 59.0078 -31.9436 59.0078 -31.0885ZM-36.3141 -12.1359C-32.2762 -10.9163 -29.3809 -8.10883 -27.7088 -3.79578C-27.0959 -2.20889 -27.0959 -1.92844 -27.6685 -1.0733C-28.4024 0.0686035 -28.483 1.28763 -27.7491 0.963287C-27.5045 0.842651 -26.9346 0.597015 -26.5259 0.476379C-26.1577 0.312866 -25.8324 0.0702515 -25.8324 -0.136169C-25.8324 -0.34256 -25.2194 -1.1947 -24.4452 -2.04712C-21.8752 -4.8537 -16.6545 -6.84811 -10.6999 -7.29309C-7.15135 -7.5397 -4.74531 -6.92523 -1.64301 -4.97375C0.190414 -3.83719 2.72011 -0.873749 2.72011 0.104675C2.72011 0.345917 1.6609 0.875214 0.394714 1.28265C-8.25087 4.00613 -14.2888 21.9047 -10.9849 34.9993C-9.92297 39.1462 -8.53851 42.0791 -6.66208 44.0305C-5.80451 44.9259 -5.39587 45.8591 -5.19157 47.3656L-4.94695 49.4807L-6.66208 48.8263C-8.33421 48.1776 -8.53851 47.8936 -10.3719 43.9049C-13.7995 36.5869 -14.4931 33.7814 -14.6974 25.7691C-14.9017 16.2933 -15.8803 13.1561 -19.7541 9.05215C-22.1198 6.52972 -24.8941 5.10498 -27.7491 4.86374C-31.623 4.5394 -33.5827 6.15695 -33.5827 9.61758C-33.5827 12.4241 -32.1956 12.1354 -31.9913 9.2511C-31.7869 5.62695 -25.1791 6.23956 -21.2219 10.3087C-17.7137 13.8846 -16.4502 18.2825 -16.4905 26.989C-16.5308 34.5134 -15.9206 36.7482 -11.2295 46.3446C-11.1488 46.5135 -11.7591 46.5125 -12.536 46.3865C-13.8802 46.1828 -14.0441 46.2646 -14.5334 47.4441L-15.063 48.7059L-17.2244 45.4913C-20.8563 40.0818 -24.7705 36.7119 -32.4402 32.4444C-39.0481 28.78 -42.8009 22.3148 -41.6987 16.4604C-41.0455 12.922 -39.7013 11.612 -37.2523 12.183C-35.0102 12.7539 -34.6823 12.7546 -34.521 12.2668C-34.2763 11.5349 -36.9673 10.0678 -38.5991 10.0678C-42.352 10.0678 -44.758 15.3143 -43.6988 21.2142C-43.1665 24.1414 -41.2901 27.3927 -38.5588 30.1617C-36.4377 32.3142 -35.0102 33.2919 -29.0126 36.6694C-25.1791 38.8219 -22.3644 41.6736 -17.469 48.3027C-15.227 51.3961 -14.6571 53.3075 -15.5926 54.7738C-16.1652 55.6638 -18.9799 53.0158 -19.5498 51.0671C-22.2435 42.1568 -37.2523 33.2963 -49.8981 33.1355C-54.6295 33.0926 -57.4844 33.9049 -60.1351 36.1459C-62.2159 37.8534 -62.2562 37.8526 -63.603 35.2873C-64.1729 34.2284 -64.3369 32.9726 -64.3772 30.2036C-64.3772 26.9949 -64.2133 26.2615 -63.2347 24.3503C-60.1754 18.4128 -53.5676 12.8795 -49.2851 12.7589C-47.6936 12.6758 -45.9812 11.617 -46.3898 10.9684C-46.5538 10.6869 -47.2071 10.5171 -47.8576 10.56C-49.4491 10.6859 -50.8363 9.34039 -52.425 6.08884C-54.0568 2.83194 -54.1375 0.0683594 -52.7933 -4.07849C-51.8148 -7.01105 -49.2448 -11.6079 -47.9383 -12.581C-47.0001 -13.3127 -39.2927 -13.0259 -36.3141 -12.1359ZM12.9168 6.0051C16.0595 6.77975 17.8929 7.63226 21.3608 9.91077C24.99 12.3099 26.4605 13.937 28.2133 17.3923C29.4364 19.8316 31.3532 25.1612 31.1086 25.4079C31.0279 25.5285 30.0494 24.9573 28.9472 24.188C26.2965 22.2767 23.3179 20.8533 18.2612 18.942C15.8955 18.0842 13.6938 17.1512 13.3658 16.8269C12.4679 16.0951 11.2044 16.1716 11.0001 16.9892C10.8791 17.3564 9.4086 18.817 7.69615 20.2404C3.57767 23.618 -0.0945435 27.4022 -1.60268 29.7638C-2.25594 30.7797 -2.90921 31.6276 -3.11353 31.6276C-3.68344 31.6276 -3.11351 21.3868 -2.46025 19.2719C-1.64301 16.7065 1.25229 12.4349 3.78198 9.95267C6.34931 7.47043 9.69624 5.19928 10.4705 5.40298C10.7958 5.47806 11.898 5.76382 12.9168 6.0051ZM116.4 15.6018C121.782 18.2877 126.269 22.924 126.312 25.811C126.352 26.7063 127.697 28.3764 128.35 28.3764C128.718 28.3764 128.799 27.8891 128.594 26.79C128.35 25.2809 128.474 25.0427 130.39 23.0885C131.49 21.9466 133.366 20.567 134.549 20.0362C138.262 18.3287 143.891 18.8174 149.601 21.3399L151.886 22.3556L152.58 25.366C153.434 29.3091 153.394 34.517 152.496 36.9993C151.601 39.4815 149.276 42.2013 146.87 43.6274C145.154 44.6005 144.789 44.6857 143.523 44.3185C142.708 44.0719 141.974 43.9518 141.851 44.0724C141.445 44.4799 142.993 46.4753 143.81 46.5959C144.3 46.679 145.644 47.6111 146.87 48.753C150.335 51.9268 153.354 58.7175 153.313 63.3496C153.313 67.9521 151.558 71.655 148.254 74.2551C147.644 74.743 147.439 74.5798 146.542 72.7892C144.259 68.2697 139.24 65.6693 130.595 64.5328C120.315 63.1925 109.709 66.0373 104.08 71.6531C101.959 73.768 98.4532 75.9602 97.921 75.475C97.8806 75.3919 98.0043 74.5329 98.2059 73.5169C98.5742 71.7692 98.8189 71.567 102.98 68.7631C109.954 64.1257 113.096 62.8631 120.194 61.7265C128.678 60.3863 133.856 57.2027 136.59 51.6325C138.302 48.2201 138.506 44.2352 137.079 42.3185C135.815 40.611 134.264 40.0055 132.267 40.4076C129.941 40.9357 129.982 41.9517 132.388 42.0777C135.038 42.1983 135.896 43.2149 135.856 46.1823C135.856 49.1497 134.673 51.7161 132.183 54.4021C129.452 57.2864 126.393 58.6263 119.376 59.8889C111.545 61.3123 108.65 62.4958 102.736 66.6427C99.6764 68.8408 99.3888 68.9604 99.6361 68.0249C99.9614 66.7623 99.2275 65.7893 97.921 65.7893C97.3914 65.7893 96.9424 65.7074 96.9424 65.627C96.9424 65.5439 98.4533 63.9572 100.327 62.0459C104.488 57.816 106.65 54.3168 108.935 48.0148C111.096 42.0773 112.279 40.0058 114.849 37.6013C117.624 34.9985 119.745 34.026 123.21 33.7794C125.78 33.6159 126.269 33.6965 127.535 34.5543C128.839 35.4442 128.963 35.6901 128.963 37.6013C128.963 40.0836 129.248 40.534 130.062 39.2715C131.858 36.5024 131.001 33.6591 128.025 32.3135C125.374 31.1769 121.132 31.5024 117.868 33.0465C112.973 35.4456 109.75 39.8789 106.61 48.5854C104.652 53.952 103.021 56.3925 98.0043 61.6009C93.6788 66.0721 93.5175 66.1977 91.8024 66.1977C90.8238 66.1977 90.0093 66.1107 90.0093 66.0249C90.0093 65.9472 90.4583 65.0932 91.0282 64.0773C91.6411 62.9354 92.5793 62.0406 93.4745 61.5957C98.0043 59.4378 102.693 52.7258 104.857 45.2818C107.833 34.9938 106.895 24.5442 102.491 20.0677C101.593 19.0946 100.451 18.1143 100.042 17.9106C99.0635 17.3825 99.4318 16.8165 101.714 15.4709C106.489 12.7152 110.731 12.7148 116.4 15.6018ZM15.4465 19.8739L18.5865 21.1357L16.9977 23.4969C16.0998 24.8372 15.3659 26.014 15.3659 26.1775C15.3659 26.5447 14.0594 27.5221 13.4894 27.5596C13.2448 27.5596 12.6319 27.1975 12.1426 26.79C11.6533 26.3397 10.3468 25.4077 9.24731 24.633L7.24721 23.2927L9.57259 20.9734C10.8361 19.6706 11.9786 18.6551 12.1023 18.6122C12.2233 18.6122 13.7341 19.185 15.4465 19.8739ZM88.9877 19.2666C90.9072 19.5079 91.1518 19.6679 92.7836 21.8687C97.8 28.7014 99.0635 36.8737 96.2489 44.24C95.5956 45.9046 94.8617 47.6534 94.617 48.1038C94.1681 48.8302 94.1278 48.8293 93.8831 47.6954C92.9852 43.7067 90.9072 38.9893 87.8049 33.8266C86.9903 32.5238 86.3371 31.0623 86.3371 30.612C86.3371 29.596 84.8289 28.5813 84.1757 29.1094C83.8907 29.3077 80.5868 29.5961 76.7533 29.7167C70.511 29.9204 68.554 30.209 64.7608 31.4287C63.8226 31.7155 63.8629 31.6312 65.1694 29.8057C67.5351 26.5086 71.4896 22.8127 73.9386 21.6278C78.3421 19.4727 83.7267 18.6528 88.9877 19.2666ZM22.912 22.8843L25.1943 23.8582L22.8689 27.235C21.5651 29.1088 20.4629 30.6965 20.3823 30.7742C20.3016 30.8949 19.1591 30.4491 17.8122 29.8004C15.2019 28.5379 14.9976 27.9659 16.5057 26.3817C16.9143 25.9742 17.8929 24.7956 18.7505 23.7796C19.608 22.7208 20.3822 21.8687 20.4629 21.8687C20.5866 21.8713 21.6861 22.3161 22.912 22.8843ZM11.1641 27.3188C13.0405 28.257 13.0002 28.9472 10.8361 31.0622L8.83869 33.0098L7.9408 32.1564C7.4112 31.7115 5.94337 30.6529 4.67719 29.8004C3.37336 28.948 2.31149 28.1734 2.31149 28.0099C2.31149 27.8893 3.08841 27.0328 4.02663 26.0571L5.73907 24.3084L7.98112 25.612C9.24731 26.3036 10.6748 27.0722 11.1641 27.3188ZM29.2321 26.79L31.3532 28.4549L28.7832 31.0622C26.8261 33.011 26.3368 33.7849 26.6621 34.1093C27.0304 34.4765 27.7643 34.0316 29.6811 32.3187C31.4366 30.7747 32.4151 30.1665 32.7 30.4078C33.27 30.8581 35.5147 34.8856 35.2701 35.0464C35.2298 35.0893 33.9232 35.9833 32.4554 36.9993C29.7214 38.8676 29.7214 38.8667 29.3155 37.9312C28.5386 36.2665 26.2562 33.9886 24.0518 32.769C22.8689 32.1203 21.8904 31.4666 21.8904 31.303C21.8904 30.8581 26.4175 25.1199 26.7455 25.1199C26.9498 25.1199 28.0923 25.8545 29.2321 26.79ZM5.04549 31.8737L8.02413 33.7428L6.63697 35.3291C4.92183 37.2029 3.69865 39.4804 3.33304 41.5123C3.16905 42.3647 2.88409 43.0984 2.72011 43.219C2.39483 43.4228 -3.23449 42.0837 -3.64311 41.7165C-3.92808 41.4296 -3.11353 36.8726 -2.66457 36.4705C-2.50059 36.2668 -1.11341 36.6742 0.478065 37.3658C2.02653 38.0145 3.57767 38.4602 3.90295 38.3396C4.80084 37.9723 3.78198 37.1636 0.67968 35.7375C-2.50058 34.2712 -2.41993 34.5595 -0.258537 31.0988C0.883995 29.2707 0.803345 29.2709 5.04549 31.8737ZM22.2184 33.5805C24.6244 34.7573 27.1111 37.2387 28.3369 39.6432C28.7832 40.4956 29.7214 42.9817 30.3747 45.1771L31.6409 49.1561L30.2134 51.1142C28.6622 53.3123 25.5223 59.4531 24.7454 61.8522C23.9711 64.2513 23.8905 63.4021 24.5411 60.2658C26.5815 50.7471 23.1566 41.5539 17.159 40.3343C15.5272 40.0099 13.5298 41.6324 12.2636 44.4389C10.1452 48.9155 11.6533 57.0512 15.6912 62.8627C17.3633 65.2645 16.9977 65.06 14.019 61.8889C12.3066 60.0553 9.53226 57.5389 7.86013 56.2764C6.18801 54.9736 4.76053 53.5905 4.63686 53.1456C4.51589 52.7381 4.47289 50.0509 4.47289 47.1666C4.55622 40.3714 5.24979 38.8685 10.5108 33.502L14.304 29.6748L17.159 31.0622C18.7504 31.8717 21.0355 32.972 22.2184 33.5805ZM85.9715 34.2297L87.4796 37.2401L84.8693 37.9312C83.4418 38.2984 82.1353 38.7877 82.0143 38.9888C81.646 39.6428 79.4039 39.3966 79.4039 38.7479C79.4039 38.4236 79.1996 38.1354 78.955 38.1354C78.7104 38.1354 78.5867 37.8551 78.7104 37.528C78.8313 37.2037 78.6297 35.7797 78.2211 34.3134C77.6915 32.4451 77.6082 31.586 77.9361 31.4653C78.1808 31.3876 79.7696 31.2612 81.4417 31.2612H84.501L85.9715 34.2297ZM76.1 32.6852C76.8339 34.3552 78.1807 38.4595 78.1807 39.1511C78.1807 39.5585 77.7722 39.7653 77.0786 39.8055C76.4253 39.8055 75.2021 39.8837 74.2639 40.0097L72.5918 40.2086L71.5729 36.2244C70.796 33.3401 70.6347 32.156 71.0003 31.9522C71.2449 31.7887 72.3875 31.6276 73.53 31.6276C75.3661 31.6276 75.6511 31.7524 76.1 32.6852ZM69.8578 35.7794C70.4707 37.6478 71.0406 39.3547 71.1239 39.6013C71.2046 39.8828 70.5514 40.1734 69.5325 40.3343C68.554 40.4978 67.4114 40.7006 66.9625 40.8212C66.2286 40.9847 65.9033 40.5398 64.7204 37.6904C63.9435 35.8568 63.3333 34.2299 63.4139 34.1093C63.5376 33.7849 67.1668 32.5212 68.0647 32.481C68.5539 32.4435 69.0432 33.3401 69.8578 35.7794ZM63.2499 38.1354C64.1075 39.6794 64.9651 40.9835 65.25 40.9835C65.4947 40.9835 64.6371 41.7147 63.2929 42.5698L60.8842 44.1614L59.8654 42.6903C59.3358 41.8378 58.3976 40.6627 57.8249 40.0516L56.7658 38.8736L58.8062 37.083C59.9057 36.11 61.0482 35.2925 61.2928 35.2925C61.5375 35.2925 62.4353 36.5485 63.2499 38.1354ZM36.5336 38.4233C37.6761 42.7739 37.6761 42.7734 35.3104 45.2557C34.1679 46.4753 33.1087 47.4077 32.985 47.287C32.8237 47.1235 30.4983 40.2513 30.458 39.884C30.458 39.7205 35.555 36.9155 35.84 36.9155C36.004 36.9155 36.3293 37.6084 36.5336 38.4233ZM49.5046 44.3604C55.1339 56.1147 55.5426 57.7787 55.5023 68.8468C55.5023 74.7414 55.2979 77.547 54.8893 79.0508C53.7871 82.7527 54.6447 82.9993 58.3169 79.9461C61.5375 77.2655 65.25 74.8639 69.4518 72.7892C75.7317 69.6582 80.5464 68.4375 88.3775 68.0301C91.1921 67.8666 94.4961 67.6292 95.7192 67.4228C96.9424 67.2539 98.0043 67.1355 98.085 67.2186C98.1656 67.2963 97.8403 68.6804 97.3914 70.3075C96.9021 71.9775 96.0876 75.1503 95.5553 77.3859C94.9854 79.6216 94.0068 82.9199 93.3132 84.7052C90.9072 90.9295 84.38 99.5902 78.7507 104.15C74.7532 107.318 75.0381 107.683 81.646 107.846C92.4556 108.176 101.349 111.02 109.056 116.673C110.811 117.971 113.666 119.967 115.419 121.15C117.134 122.369 118.562 123.427 118.562 123.547C118.562 123.668 117.134 124.728 115.419 125.95C113.666 127.127 110.811 129.124 109.056 130.427C101.349 136.075 92.4556 138.924 81.646 139.254C75.0381 139.417 74.7532 139.782 78.7507 142.955C84.38 147.51 90.9072 156.171 93.3132 162.395C94.0068 164.185 94.9854 167.478 95.5553 169.714C96.0876 171.955 96.9021 175.122 97.3914 176.792C97.8403 178.42 98.1656 179.804 98.085 179.881C98.0043 179.965 96.9424 179.838 95.7192 179.682C94.4961 179.479 91.1921 179.228 88.3775 179.065C80.5464 178.657 75.7317 177.442 69.4518 174.311C65.25 172.239 61.5375 169.84 58.3169 167.154C54.6447 164.101 53.7871 164.347 54.8893 168.049C55.2979 169.553 55.5023 172.356 55.5023 178.253C55.5426 189.158 55.134 190.943 49.709 202.253C47.7922 206.279 46.2007 209.613 46.1604 209.656C46.1201 209.733 43.2651 206.969 39.7972 203.556C33.27 197.169 31.1086 194.362 28.5386 189.033C26.0519 183.865 23.5222 175.531 23.5222 172.52C23.5222 171.344 22.9523 170.735 21.9307 170.735C21.7291 170.735 20.9925 171.913 20.3016 173.374C18.5865 176.829 14.183 182.448 10.2258 186.185C5.69875 190.458 1.7819 192.979 -4.41733 195.499C-6.21312 196.274 -8.90412 197.453 -10.3719 198.185L-13.0656 199.567L-13.6355 193.996C-14.4528 185.901 -14.3694 176.997 -13.4312 173.175C-12.0037 167.395 -8.25086 158.573 -6.41743 156.458C-5.68353 155.6 -5.68353 154.504 -6.45776 154.217C-6.78304 154.053 -7.68095 154.259 -8.41486 154.583C-12.536 156.457 -19.9181 158.044 -26.1173 158.369C-31.9106 158.693 -35.9888 158.044 -43.8601 155.683C-46.8388 154.788 -49.5701 154.055 -49.8981 154.055C-50.226 154.055 -50.7959 153.895 -51.1212 153.657C-51.6105 153.332 -51.6105 153.206 -51.0406 152.557C-50.6723 152.15 -48.7555 149.343 -46.7178 146.296C-41.0078 137.672 -37.1743 134.013 -28.975 129.333C-25.5501 127.378 -20.0014 124.983 -18.289 124.699C-17.7164 124.616 -17.4717 124.244 -17.4717 123.553C-17.4717 122.861 -17.7164 122.494 -18.289 122.411C-20.0014 122.13 -25.5501 119.732 -28.975 117.778C-37.1743 113.103 -41.0078 109.438 -46.7178 100.82C-48.7582 97.7669 -50.675 94.9606 -51.0406 94.5532C-51.6105 93.9045 -51.6105 93.7834 -51.1212 93.4537C-50.7959 93.2124 -50.2233 93.0506 -49.8981 93.0506C-49.5728 93.0506 -46.8388 92.3229 -43.8601 91.4276C-35.9888 89.0713 -31.9106 88.4174 -26.1173 88.7417C-19.9181 89.0715 -12.536 90.6534 -8.41486 92.5218C-7.68095 92.8515 -6.78304 93.0543 -6.45776 92.8935C-5.68353 92.6067 -5.68353 91.5051 -6.41743 90.6527C-8.25086 88.5377 -12.0037 79.7151 -13.4312 73.9357C-14.3694 70.1132 -14.4528 61.2095 -13.6355 53.1142L-13.0656 47.5436L-10.3719 48.9258C-8.90412 49.6575 -6.21312 50.8369 -4.41733 51.6116C1.7819 54.1286 5.69875 56.6527 10.2258 60.9255C14.183 64.6649 18.5865 70.2762 20.3016 73.7368C21.1968 75.6052 21.8097 76.3807 22.3797 76.3807C23.2372 76.3807 23.2776 76.3388 23.8905 72.4332C24.7884 66.4555 28.0923 57.9921 31.5979 52.5854C32.8641 50.6312 45.1818 37.6166 45.9561 37.4129C46.0797 37.3673 47.6685 40.4977 49.5046 44.3604ZM89.6813 41.2662L90.7029 43.6274L87.1543 44.5227C85.1946 45.0105 83.3611 45.4606 83.0332 45.5384C82.6675 45.6215 82.0143 44.7637 81.3207 43.3028C80.2185 41.0243 80.1782 40.9017 80.8718 40.3709C81.2804 40.0895 81.81 39.9266 82.0546 40.0097C82.2589 40.0874 83.2778 39.8828 84.2993 39.6013C85.3182 39.277 86.7054 38.9888 87.3989 38.9888C88.5818 38.9539 88.7431 39.1512 89.6813 41.2662ZM57.54 42.0829C59.946 44.6429 60.11 45.2138 58.8465 46.5541C58.2335 47.1679 57.255 48.464 56.6421 49.4022C56.0318 50.3806 55.3786 51.1508 55.1339 51.1508C54.4807 51.1079 52.3596 46.0295 52.6472 45.1771C53.0532 43.9146 55.2979 40.5751 55.7039 40.5751C55.9082 40.5724 56.7657 41.2654 57.54 42.0829ZM78.9953 41.5123C78.9953 41.7937 79.6486 43.3815 80.4631 45.0515C82.5842 49.4449 83.4821 52.2084 83.4821 54.444C83.4821 56.642 81.974 61.6842 80.3018 64.9411C79.1996 67.0937 79.1593 67.0929 76.0597 67.9882C74.3445 68.5163 71.0406 69.8621 68.7583 70.9986C66.4329 72.1405 64.4758 73.0346 64.4328 72.9515C64.3521 72.8737 65.0457 72.3016 65.9839 71.6583C68.4733 69.9454 72.3875 65.5163 73.7343 62.8679C76.1404 58.1099 76.1807 53.4314 73.8553 50.9519C72.9171 49.9359 72.6321 49.8582 70.839 50.0566C64.6774 50.7884 60.2337 56.6911 58.4379 66.695L57.8679 69.6636L57.8249 67.428C57.7846 64.2489 57.0507 58.6842 56.3168 55.9151L55.7039 53.512L57.2147 51.355C62.3547 43.9111 65.2903 42.1251 73.6106 41.5542C75.5704 41.3906 77.2425 41.2341 77.3232 41.151C77.7721 40.7811 78.9953 41.0244 78.9953 41.5123ZM-43.3708 42.6536C-40.8412 43.1817 -37.048 44.8889 -33.9887 46.8001L-31.7869 48.2242L-33.787 48.465C-38.3141 49.036 -40.8842 49.684 -45.8602 51.3969C-48.7152 52.3699 -51.3255 53.1049 -51.6535 52.9414C-52.4681 52.6599 -52.917 53.4689 -53.0004 55.423C-53.0407 56.3183 -53.4896 59.614 -53.9789 62.7422C-54.5918 66.8891 -54.7934 69.3335 -54.5918 71.6897L-54.3472 74.9462L-56.6726 72.5012C-59.3232 69.6947 -61.8529 65.5895 -62.5868 62.9464C-63.4014 60.0192 -63.2804 53.0592 -62.3825 49.4859L-61.6083 46.4336L-58.5087 44.9311C-53.5676 42.6124 -47.6936 41.7181 -43.3708 42.6536ZM0.109764 44.2766L2.67979 44.7269L2.80076 48.4284C2.88409 50.5005 2.88409 52.291 2.84377 52.4545C2.63946 52.8994 -2.29627 50.5007 -2.86888 49.6482C-3.15384 49.1979 -3.51945 47.7357 -3.64311 46.3499C-3.9684 43.4629 -4.13238 43.5421 0.109764 44.2766ZM91.6008 46.3499C91.7621 46.8779 92.047 48.1402 92.211 49.1561L92.496 51.0304L89.52 51.3131C87.8882 51.4767 86.1758 51.6794 85.7268 51.8C84.9096 52.0038 84.6246 51.4762 83.4418 47.5331C83.3181 47.1257 84.095 46.7575 86.3371 46.2295C90.5389 45.2564 91.1921 45.2937 91.6008 46.3499ZM-70.9851 46.5959L-69.8022 47.0828L-70.7001 48.4284C-72.4529 51.0312 -72.8615 52.4914 -72.8615 55.8314C-72.8615 59.8951 -71.9636 63.1917 -69.4339 68.4751C-64.7025 78.4013 -56.3822 85.8458 -49.1615 86.658C-48.0592 86.8215 -47.0404 87.3072 -46.0618 88.2025C-44.4731 89.6259 -44.5134 89.8731 -46.5511 90.5218C-47.8146 90.9722 -48.3039 90.8036 -52.874 88.6109C-58.8689 85.7614 -62.0115 83.5286 -65.2321 79.7838C-70.1275 74.0929 -73.2271 71.2816 -76.2031 69.8206C-78.8941 68.5179 -79.2624 68.4385 -83.3405 68.4385C-86.7251 68.4385 -87.908 68.6023 -89.0505 69.2081C-91.1312 70.3071 -93.048 72.2613 -93.333 73.564C-93.7819 75.553 -91.2522 79.538 -90.2333 78.522C-89.9484 78.2406 -90.0694 77.6697 -90.642 76.7315C-91.7442 74.9462 -91.7038 74.2554 -90.478 72.7892C-87.5827 69.3339 -79.9533 69.2903 -74.9772 72.7054C-73.0605 74.0082 -70.1248 77.0177 -68.0844 79.6634C-65.2294 83.443 -61.3959 86.452 -56.0919 89.0978C-51.2368 91.4969 -51.1158 91.5801 -52.1347 92.1082C-53.2369 92.7167 -53.5219 94.1404 -52.6643 94.9982C-51.9707 95.6898 -52.5003 95.607 -56.6215 94.4275C-62.0062 92.9183 -67.5521 92.7159 -73.5497 93.815C-78.6494 94.7532 -83.2572 94.9149 -85.4186 94.2233C-91.0882 92.4327 -94.9621 88.2862 -94.6771 84.3806C-94.5534 82.7937 -94.3921 82.5891 -92.72 81.7366C-91.7011 81.2488 -90.8033 80.6367 -90.7629 80.433C-90.5183 79.7843 -93.4539 79.9456 -94.7604 80.6372C-96.3116 81.4494 -96.8009 82.3848 -96.8009 84.6633C-96.8009 89.751 -91.5802 94.8742 -85.053 96.2547C-81.913 96.9088 -78.7704 96.8263 -73.754 95.8934C-67.0252 94.6684 -63.4336 94.7949 -56.4199 96.5426C-50.5056 98.0089 -50.4653 98.0039 -49.5674 99.5426L-48.6695 101.092L-50.7906 101.26C-52.382 101.338 -53.1563 101.176 -54.1348 100.527C-57.9683 97.924 -66.6972 97.0283 -73.1438 98.5322C-84.9723 101.301 -94.0695 108.007 -95.1691 114.762C-95.3734 116.06 -95.6583 117.244 -95.739 117.364C-96.2282 117.815 -100.511 115.292 -101.898 113.705C-104.428 110.941 -105.487 108.096 -105.691 103.705C-105.976 97.7271 -104.508 92.434 -101.898 90.0349C-100.839 89.0619 -100.185 87.1457 -100.796 86.7784C-101 86.6578 -101.489 86.8988 -101.898 87.3491C-102.347 87.837 -103.161 88.1711 -104.019 88.1711C-105.895 88.1711 -109.648 86.7776 -111.361 85.4748C-114.256 83.2821 -116.417 78.4441 -117.194 72.5012L-117.563 69.6583L-115.442 67.7055C-113.076 65.5128 -108.67 62.7417 -106.549 62.093C-105.774 61.8464 -104.019 61.6857 -102.632 61.6428C-100.551 61.6428 -99.6128 61.8893 -97.3305 62.9883C-94.9648 64.1651 -94.5561 64.5313 -94.3115 65.7108C-93.6986 68.8042 -92.6394 67.6262 -92.4754 63.6375C-92.3114 59.815 -90.9269 56.6004 -87.6633 52.4911C-83.7061 47.6125 -80.0769 45.742 -74.9772 45.9886C-73.3911 46.0664 -71.598 46.3493 -70.9851 46.5959ZM-30.1955 50.622C-30.1148 50.8258 -30.1552 52.2916 -30.2788 53.8785C-30.5638 57.173 -30.4831 57.6586 -29.7062 57.6586C-29.3406 57.6586 -29.096 56.7192 -28.932 54.69C-28.768 53.0629 -28.483 51.4758 -28.319 51.2346C-27.8701 50.5028 -22.6924 52.4548 -22.937 53.2241C-23.0177 53.5484 -23.4263 54.9724 -23.7919 56.4387C-24.2006 57.905 -24.6898 59.0417 -24.8941 58.9989C-25.0581 58.9613 -26.3619 58.7176 -27.7491 58.4334C-29.6659 58.026 -30.9294 58.0253 -32.8488 58.3497C-34.2763 58.5963 -35.4592 58.7563 -35.4995 58.7161C-35.5398 58.6786 -35.7038 57.009 -35.8651 55.0146C-36.1097 51.8006 -36.0694 51.356 -35.3758 50.8681C-34.6016 50.2971 -30.4831 50.1342 -30.1955 50.622ZM-37.4163 54.69C-37.2119 56.6844 -37.048 58.5122 -37.048 58.8365C-37.048 59.2038 -38.0292 59.6952 -39.618 60.1402C-42.7606 61.0355 -42.8412 60.9531 -42.8009 55.868L-42.7606 52.2503L-41.1288 51.7634C-37.7819 50.7072 -37.7819 50.704 -37.4163 54.69ZM-44.1451 55.868C-43.6155 59.4064 -43.6155 60.5067 -44.0644 60.9517C-44.2687 61.1554 -46.1452 61.4026 -48.2259 61.4857L-52.0191 61.6794L-51.7745 59.9727C-51.6105 59.0345 -51.3659 57.533 -51.2449 56.6376L-51.0406 54.9675L-47.9006 53.9989C-46.1882 53.428 -44.7607 52.9824 -44.6801 53.0199C-44.6344 53.0628 -44.3897 54.324 -44.1451 55.868ZM92.4557 53.0199C92.4557 53.1888 92.2513 54.4865 92.0067 55.9099L91.5578 58.5119L88.2135 58.2345C86.4204 58.1085 84.9096 57.9474 84.8693 57.9099C84.8289 57.9099 84.9096 56.7668 84.9929 55.3864L85.1945 52.9466L88.8264 52.8262C90.8239 52.7806 92.4557 52.8564 92.4557 53.0199ZM-19.0605 55.1769C-16.0416 57.3348 -15.9206 57.6167 -16.3292 61.0773L-16.6545 64.1663L-19.6735 62.1245C-21.3456 61.0308 -22.8537 60.0531 -23.0984 59.9727C-23.671 59.8091 -21.5902 53.9989 -20.937 53.9989C-20.773 54.0016 -19.9181 54.5282 -19.0605 55.1769ZM87.8049 59.7318C89.1114 59.9784 90.3346 60.2586 90.4986 60.3444C90.8642 60.591 88.6625 65.0631 87.8882 65.6689C87.1946 66.2399 81.2804 66.8514 81.4847 66.3233C83.2375 61.9299 84.544 59.2868 84.9096 59.2868C85.1542 59.2868 86.4607 59.4906 87.8049 59.7318ZM-25.7087 60.669C-22.9774 61.8109 -19.3455 63.9199 -17.6733 65.3862C-16.6948 66.2386 -16.4502 66.8525 -16.2459 68.8468C-15.9609 71.6534 -14.7781 76.9366 -13.8398 79.5796C-12.8613 82.2656 -13.0253 82.146 -15.063 78.6425C-17.3078 74.82 -21.5499 70.4316 -24.4049 69.0458C-26.0367 68.2336 -27.0555 68.0301 -29.6256 68.0301C-32.6445 68.0301 -32.8892 68.1127 -33.8274 69.1662C-35.0102 70.5547 -35.1312 72.8295 -34.1123 75.7996C-33.0935 78.8474 -29.0126 82.7159 -24.6092 84.8308C-22.6924 85.7208 -20.3267 86.6994 -19.3455 86.946C-18.4073 87.1872 -17.6734 87.4685 -17.7137 87.5114C-17.797 87.5891 -19.6331 87.4344 -21.7542 87.1449C-23.8753 86.8206 -27.5851 86.656 -29.9912 86.7418L-34.357 86.8988L-37.091 83.9722C-40.0669 80.7582 -41.903 77.8744 -42.5966 75.3493C-42.8816 74.2905 -42.9622 71.7732 -42.7606 67.9882L-42.473 62.2553L-39.782 61.6061C-38.2738 61.2818 -36.0291 60.7106 -34.8059 60.3863C-31.3783 59.4481 -28.4427 59.5699 -25.7087 60.669ZM-44.1047 62.5381C-43.6988 62.5381 -43.9838 67.1752 -44.4327 67.9097C-44.5537 68.0732 -45.4919 68.2334 -46.5538 68.2709C-47.613 68.2709 -49.4491 68.4399 -50.5916 68.6008L-52.753 68.8835L-52.7127 67.4594C-52.589 63.6369 -52.2234 63.271 -47.941 62.826C-47.0027 62.7429 -46.0645 62.5393 -45.9436 62.3757C-45.7796 62.2122 -45.414 62.208 -45.086 62.3286C-44.7983 62.4573 -44.3494 62.5381 -44.1047 62.5381ZM-44.594 72.0143V74.5797L-47.7367 75.3493C-49.4921 75.7568 -51.1212 76.1669 -51.3659 76.2446C-51.8551 76.4483 -52.1401 75.6372 -52.5487 72.6269C-52.8337 70.8362 -52.753 70.7165 -51.8955 70.4698C-51.0809 70.2661 -47.0834 69.6944 -45.0833 69.496C-44.758 69.4532 -44.594 70.229 -44.594 72.0143ZM22.299 70.1452C22.299 70.349 22.1754 70.8762 22.0544 71.407L21.7694 72.3441L21.1565 71.4489C20.6672 70.7171 20.6269 70.5105 21.1161 70.229C21.8097 69.7787 22.299 69.7807 22.299 70.1452ZM-43.0859 78.6058L-42.2283 80.2288L-45.2473 81.6948L-48.2663 83.2026L-49.0405 82.1031C-50.2233 80.4331 -51.1616 78.4024 -50.9572 78.0351C-50.8336 77.8716 -49.3658 77.3031 -47.6533 76.8153C-45.9812 76.2872 -44.594 75.6797 -44.5537 75.4331C-44.5537 75.1516 -44.3897 75.3909 -44.2284 75.9619C-44.0241 76.5275 -43.5348 77.7105 -43.0859 78.6058ZM111.056 75.7577C111.177 76.082 110.975 77.7517 110.607 79.4592L109.913 82.5482L108.69 82.3073C107.997 82.1813 106.895 82.0612 106.244 82.0612H105.018L105.306 78.8833C105.467 77.1758 105.671 75.6368 105.795 75.4331C105.876 75.2696 107.059 75.1504 108.405 75.1504C110.198 75.1504 110.892 75.3074 111.056 75.7577ZM103.795 79.2131L103.674 82.1817L100.002 82.9199C98.0043 83.322 96.2085 83.6842 96.0876 83.6842C95.6789 83.6842 97.3107 78.2753 97.8403 77.7472C98.6145 77.0154 103.225 75.5502 103.591 75.9148C103.755 76.081 103.876 77.5914 103.795 79.2131ZM57.9889 77.7524C57.255 78.2805 57.1743 78.2805 57.0507 77.7524C56.97 77.4227 57.0104 76.8579 57.1744 76.4907C57.3787 75.8822 57.4594 75.8822 58.0696 76.4907C58.7228 77.1421 58.7228 77.2243 57.9889 77.7524ZM116.236 76.7315C117.255 77.1818 118.153 77.6691 118.274 77.8728C118.478 78.1972 116.032 84.7051 115.583 85.1554C115.502 85.2332 114.32 84.704 112.973 83.9722C111.016 82.9563 110.607 82.5891 111.016 82.1817C111.301 81.9002 111.871 80.3969 112.279 78.81C113.137 75.596 113.341 75.5118 116.236 76.7315ZM122.315 80.1084C124.597 81.6524 124.68 82.1798 123.253 85.2758C122.11 87.675 122.191 89.4655 123.333 87.9617C123.659 87.5113 124.393 86.17 124.925 84.9879L125.903 82.8728L128.554 84.7837C131.49 86.9469 131.449 86.7414 130.35 91.7836L129.941 93.815L127.412 92.5951C126.024 91.9464 124.637 91.4223 124.352 91.4223C123.538 91.4223 122.516 90.2414 122.804 89.5847C123.089 88.7724 122.315 88.4091 121.621 88.9774C121.008 89.5054 119.296 88.6918 117.5 87.0245L116.645 86.213L118.193 83.0403C119.091 81.2497 119.785 79.5784 119.785 79.2969C119.785 78.5651 120.194 78.6904 122.315 80.1084ZM-36.642 87.0664C-36.642 87.2648 -37.7819 87.7932 -39.169 88.1658C-42.188 88.9781 -43.1665 88.6898 -45.5726 86.213L-47.121 84.5848L-46.1828 83.9722C-45.6532 83.605 -44.387 82.872 -43.4085 82.344L-41.6154 81.3283L-39.126 83.9722C-37.7819 85.4385 -36.642 86.8198 -36.642 87.0664ZM109.629 84.2183C111.341 84.7464 113.341 85.9268 117.745 88.9774C118.766 89.6689 119.825 90.4002 120.11 90.5637C120.519 90.805 120.315 91.9868 119.212 96.0505C118.438 98.9 117.419 101.829 116.97 102.558C115.462 104.998 112.32 107.481 108.322 109.432L104.448 111.343L101.674 110.124C100.166 109.432 96.8215 108.339 94.2111 107.647C91.5578 106.993 89.3964 106.384 89.3561 106.344C89.3157 106.301 91.0282 106.265 93.1896 106.265C99.0232 106.222 104.04 104.716 107.139 102.113C108.69 100.816 110.282 98.1642 110.607 96.218C110.852 94.8295 110.771 94.5475 109.588 93.4485C107.916 91.9044 104.368 90.845 101.878 91.1291C97.7166 91.6224 92.6599 94.1401 88.3775 97.8044C86.4204 99.5119 86.1758 99.3473 87.9286 97.5164C88.9877 96.4174 93.0686 89.9929 94.0471 87.8779L94.9854 85.8046L98.3296 84.9565C100.125 84.5061 102.002 84.0614 102.448 83.9408C104.284 83.5655 107.956 83.7331 109.629 84.2183ZM158.738 87.3491C162.736 89.2604 165.631 93.2876 167.303 99.1447C168.322 102.726 168.322 107.478 167.263 109.558C166.489 111.102 166.405 113.38 167.099 113.38C167.303 113.38 167.752 112.852 168.121 112.16C168.895 110.694 170.037 110.328 173.871 110.328C176.277 110.328 177.134 110.532 179.132 111.548C181.987 113.014 185.374 116.75 187.452 120.862L188.839 123.547L187.452 126.233C185.374 130.337 181.987 134.081 179.132 135.547C177.134 136.563 176.277 136.767 173.871 136.767C170.037 136.767 168.895 136.401 168.121 134.935C167.752 134.243 167.303 133.715 167.099 133.715C166.405 133.715 166.489 135.993 167.263 137.542C168.322 139.609 168.322 144.374 167.303 147.95C165.061 155.839 160.451 160.437 154.332 160.887L151.926 161.086L152.211 158.892C152.701 155.595 152.539 154.092 151.437 151.285C148.991 145.066 141.361 137.376 133.856 133.636C129.084 131.234 122.151 129.929 118.887 130.825C117.339 131.275 116.89 131.233 115.134 130.458L113.177 129.647L114.645 128.469C115.787 127.531 116.481 127.292 117.46 127.453C118.193 127.531 120.763 127.819 123.253 128.06C128.635 128.588 132.92 129.895 137.243 132.374C144.706 136.682 146.991 137.495 152.007 137.495C155.066 137.495 155.8 137.375 158.126 136.238C161.185 134.815 162.163 134.04 163.591 131.888C165.061 129.73 165.018 127.531 163.47 125.987C162.327 124.851 160.37 124.034 159.881 124.485C159.757 124.605 160.33 125.38 161.185 126.149C162.572 127.452 162.696 127.772 162.491 129.113C161.962 132.287 157.432 135.255 152.539 135.662C148.542 135.987 145.359 134.887 138.711 130.987C133.041 127.652 127.452 126.022 121.538 125.982C118.927 125.982 118.478 125.7 119.581 124.762C119.906 124.481 120.194 123.95 120.194 123.542C120.194 123.135 119.906 122.604 119.581 122.322C118.478 121.384 118.927 121.102 121.538 121.102C127.452 121.06 133.041 119.442 138.711 116.108C145.359 112.202 148.542 111.103 152.539 111.427C157.432 111.829 161.962 114.801 162.491 117.966C162.696 119.312 162.572 119.637 161.185 120.94C160.33 121.709 159.757 122.484 159.881 122.605C160.37 123.055 162.327 122.244 163.47 121.102C165.018 119.558 165.061 117.36 163.591 115.207C162.163 113.049 161.185 112.275 158.126 110.851C155.8 109.709 155.066 109.59 152.007 109.59C146.991 109.59 144.706 110.407 137.243 114.715C132.92 117.197 128.635 118.501 123.253 119.029C120.763 119.27 118.193 119.556 117.46 119.636C116.481 119.8 115.787 119.559 114.645 118.621L113.177 117.443L115.134 116.626C116.89 115.851 117.339 115.815 118.887 116.26C122.151 117.155 129.084 115.852 133.856 113.453C141.361 109.711 148.991 102.029 151.437 95.8044C152.539 92.9979 152.701 91.4917 152.211 88.1973L151.926 86.0036L154.332 86.2078C155.679 86.2935 157.556 86.7781 158.738 87.3491ZM-9.59769 89.1815C-9.10842 90.1975 -9.06809 90.1985 -10.9849 89.5847C-11.5145 89.4212 -11.5548 89.261 -11.1489 88.7732C-10.4553 87.9207 -10.1273 87.9967 -9.59769 89.1815ZM123.987 92.2705C124.272 92.5117 125.576 93.2873 126.922 94.0191C129.573 95.5229 129.616 95.6049 128.718 98.9824L128.269 100.689L124.516 98.8986C120.438 96.9445 120.479 96.9875 121.417 93.5322C121.866 91.7845 122.885 91.2974 123.987 92.2705ZM122.559 99.5897C123.578 100.078 125.129 100.891 125.984 101.422L127.535 102.396L126.312 104.841C125.619 106.181 124.965 107.281 124.801 107.281C124.637 107.281 123.293 106.423 121.742 105.37C119.621 103.981 118.806 103.616 118.478 103.946C118.193 104.227 118.072 104.473 118.193 104.553C122.436 107.805 123.454 108.667 123.454 108.951C123.454 109.155 122.516 110.045 121.333 110.94L119.255 112.605L116.89 110.296L114.524 107.977L116.277 106.019C117.255 104.92 118.562 102.849 119.212 101.385C119.866 99.9246 120.438 98.7416 120.519 98.7416C120.6 98.7416 121.497 99.1447 122.559 99.5897ZM-45.5726 105.815L-43.7392 108.296L-45.2876 108.579C-46.1452 108.7 -47.9786 108.904 -49.4061 108.987L-52.0164 109.108L-52.7503 107.113C-54.0138 103.819 -53.9735 103.454 -52.3417 103.213C-51.5675 103.087 -50.14 103.088 -49.1615 103.171C-47.5323 103.294 -47.2474 103.496 -45.5726 105.815ZM-54.2208 107.239C-53.6509 108.662 -53.202 109.843 -53.2423 109.883C-55.729 110.856 -58.463 112.69 -59.8905 114.317C-61.9712 116.596 -61.8072 116.631 -64.7455 113.422C-67.3962 110.615 -67.3962 110.615 -65.2751 108.621C-64.2563 107.648 -63.2347 106.872 -63.0331 106.872C-62.8288 106.872 -61.9712 107.888 -61.1567 109.108C-59.3609 111.673 -58.6673 112.321 -58.0974 111.956C-57.8124 111.83 -58.3017 110.693 -59.2399 109.192C-60.1378 107.803 -60.912 106.422 -60.9927 106.097C-61.1567 105.328 -56.3849 103.496 -55.772 104.15C-55.5274 104.431 -54.8338 105.815 -54.2208 107.239ZM81.974 105.689C81.7697 105.893 81.2804 105.976 80.8718 105.815C80.2185 105.568 80.2185 105.492 80.8718 104.757C81.525 104.066 81.646 104.065 81.974 104.673C82.1783 105.084 82.1783 105.491 81.974 105.689ZM-68.3747 108.904C-69.8022 110.491 -72.4126 114.15 -74.125 117.04C-75.8778 119.929 -77.5499 122.368 -77.7973 122.448C-78.4908 122.735 -78.3268 124.239 -77.5526 124.888C-77.2273 125.134 -75.5955 127.616 -73.9234 130.38C-72.2916 133.109 -69.7619 136.647 -68.3344 138.186C-66.9069 139.778 -65.9687 141.034 -66.294 141.034C-69.1087 141.034 -76.4101 139.079 -78.4478 137.825C-82.4453 135.342 -86.5235 130.625 -88.2789 126.395L-89.5021 123.547L-88.2789 120.699C-86.5262 116.469 -82.4453 111.747 -78.4478 109.265C-76.3671 107.968 -70.0872 106.261 -66.6999 106.092C-65.8854 106.06 -66.0897 106.464 -68.3747 108.904ZM115.462 110.982C117.379 113.338 117.46 113.5 116.685 113.945C115.623 114.559 112.36 115.82 111.79 115.82C111.381 115.82 107.548 113.421 106.61 112.563C106.405 112.405 107.671 111.591 109.384 110.736C111.096 109.884 112.564 109.018 112.688 108.82C113.096 108.209 113.462 108.5 115.462 110.982ZM-40.0266 112.364C-37.8249 114.318 -31.7063 118.747 -29.9508 119.6C-28.7277 120.171 -30.8084 119.563 -33.5827 118.547C-39.9029 116.146 -46.3898 116.263 -50.2233 118.788C-52.2207 120.171 -53.9762 122.365 -53.9762 123.542C-53.9762 124.719 -52.2207 126.921 -50.2233 128.301C-46.3898 130.818 -39.9029 130.944 -33.5827 128.542C-30.8084 127.526 -28.7277 126.921 -29.9508 127.49C-31.7063 128.342 -37.8249 132.774 -40.0266 134.725C-42.7606 137.207 -43.4515 137.367 -48.5915 136.558C-54.8311 135.542 -57.5651 133.667 -61.9282 127.322L-64.5789 123.542L-61.9282 119.757C-60.5007 117.647 -58.5033 115.212 -57.5221 114.317C-54.8311 111.83 -50.0163 110.286 -44.6747 110.16C-42.5563 110.12 -42.3923 110.209 -40.0266 112.364ZM-63.3181 119.155C-64.9095 121.637 -65.6434 122.286 -66.5816 122.045C-67.0306 121.919 -67.4392 121.595 -67.4392 121.354C-67.4392 121.107 -67.9688 120.333 -68.5817 119.642C-71.4367 116.511 -71.5604 116.306 -70.7835 115.087C-70.4179 114.478 -69.7216 113.499 -69.2753 112.893L-68.4608 111.83L-65.4821 114.841L-62.4632 117.851L-63.3181 119.155ZM-70.8641 119.155C-70.1705 119.887 -68.9474 121.109 -68.1301 121.841C-67.3156 122.61 -66.622 123.344 -66.622 123.547C-66.622 123.751 -67.2752 124.49 -68.1301 125.259C-68.9447 125.991 -70.2512 127.249 -70.9851 128.018C-72.2916 129.364 -72.4126 129.412 -72.8615 128.72C-73.1465 128.313 -73.9637 127.045 -74.6573 125.903C-76.0445 123.831 -76.2891 122.942 -75.6359 122.532C-75.3912 122.406 -74.6573 121.312 -73.9637 120.087C-73.2701 118.867 -72.5362 117.851 -72.3722 117.851C-72.2083 117.848 -71.5147 118.463 -70.8641 119.155ZM-22.1601 123.139C-21.6305 123.506 -21.6305 123.589 -22.1601 123.956C-23.1387 124.604 -23.7919 124.443 -23.7919 123.547C-23.7919 122.652 -23.1387 122.49 -22.1601 123.139ZM-64.9472 125.663C-64.5386 126.191 -63.8046 127.205 -63.3154 127.94L-62.4578 129.238L-65.4364 132.249L-68.4151 135.223L-69.2726 134.16C-69.7216 133.594 -70.4152 132.622 -70.8238 132.008C-71.5577 130.826 -71.4367 130.584 -68.5817 127.453C-67.9688 126.761 -67.4392 125.988 -67.4392 125.741C-67.4392 125.46 -67.1139 125.133 -66.7053 125.055C-66.337 124.929 -65.9311 124.852 -65.8881 124.809C-65.8047 124.812 -65.3961 125.177 -64.9472 125.663ZM-95.4191 130.746C-95.3384 131.395 -95.1341 132.575 -94.9701 133.39C-94.8492 134.243 -93.9513 135.949 -92.9297 137.338C-89.2575 142.297 -81.7948 146.525 -73.1465 148.557C-66.7026 150.067 -57.9737 149.171 -54.1375 146.568C-53.159 145.919 -52.382 145.754 -50.7933 145.84L-48.6722 146.002L-49.5701 147.547C-50.468 149.096 -50.5083 149.096 -56.4226 150.557C-63.439 152.305 -67.0279 152.431 -73.7567 151.212C-78.7731 150.274 -81.9157 150.191 -85.0557 150.845C-91.5829 152.228 -96.8036 157.311 -96.8036 162.353C-96.8036 164.715 -96.3143 165.643 -94.7631 166.452C-93.4593 167.149 -90.521 167.311 -90.7656 166.657C-90.8059 166.453 -91.7039 165.849 -92.7227 165.363C-94.3948 164.511 -94.5588 164.304 -94.6798 162.719C-94.9648 158.814 -91.0909 154.667 -85.4213 152.877C-83.2599 152.185 -78.6494 152.344 -73.5524 153.275C-67.5575 154.374 -62.0089 154.176 -56.6242 152.667C-52.503 151.49 -51.9734 151.405 -52.667 152.097C-53.5246 152.954 -53.2396 154.375 -52.1374 154.987C-51.1185 155.515 -51.2395 155.595 -56.0946 157.997C-61.3959 160.64 -65.2321 163.644 -68.0871 167.431C-70.1275 170.074 -73.0631 173.084 -74.9799 174.384C-79.956 177.802 -87.5827 177.766 -90.4807 174.311C-91.7038 172.85 -91.7442 172.149 -90.6447 170.358C-90.072 169.425 -89.9511 168.854 -90.236 168.567C-91.2549 167.552 -93.7846 171.544 -93.3356 173.536C-93.0507 174.839 -91.1339 176.793 -89.0532 177.892C-87.9106 178.5 -86.7278 178.662 -83.3432 178.662C-79.2651 178.662 -78.8968 178.58 -76.2058 177.274C-73.2271 175.808 -70.1275 173.002 -65.2348 167.311C-62.0115 163.569 -58.8716 161.333 -52.8767 158.484C-48.3092 156.286 -47.82 156.128 -46.5538 156.573C-44.5134 157.222 -44.4731 157.469 -46.0645 158.892C-47.0431 159.788 -48.0619 160.276 -49.1641 160.437C-56.3849 161.249 -64.7052 168.694 -69.4366 178.614C-71.9663 183.903 -72.8642 187.194 -72.8642 191.269C-72.8642 194.598 -72.4556 196.064 -70.7028 198.666L-69.8049 200.012L-70.9878 200.457C-72.9449 201.269 -76.9424 201.396 -79.3081 200.661C-82.491 199.766 -84.9374 197.976 -87.6284 194.598C-90.9323 190.494 -92.3195 187.28 -92.4808 183.457C-92.6447 179.474 -93.7039 178.288 -94.3169 181.384C-94.5615 182.561 -94.9701 182.932 -97.3358 184.112C-99.6209 185.211 -100.559 185.457 -102.637 185.457C-104.024 185.414 -105.777 185.254 -106.554 185.007C-108.675 184.358 -113.081 181.59 -115.447 179.389L-117.568 177.436L-117.2 174.588C-116.425 168.651 -114.264 163.813 -111.366 161.615C-109.654 160.312 -105.901 158.929 -104.024 158.929C-103.167 158.929 -102.352 159.258 -101.903 159.746C-101.495 160.191 -101.005 160.437 -100.801 160.311C-100.188 159.949 -100.841 158.038 -101.903 157.06C-104.514 154.661 -105.981 149.376 -105.696 143.395C-105.492 139.045 -104.433 136.154 -101.944 133.39C-100.637 131.967 -96.9272 129.647 -95.9487 129.647C-95.7847 129.647 -95.5401 130.132 -95.4191 130.746ZM-59.8501 132.861C-58.463 134.405 -55.6886 136.239 -53.2423 137.212C-53.0783 137.295 -55.2827 142.379 -55.729 142.95C-56.0139 143.312 -56.6269 143.232 -58.3796 142.584C-59.6862 142.133 -60.826 141.645 -60.99 141.484C-61.154 141.321 -60.5007 139.897 -59.4818 138.27C-58.42 136.562 -57.85 135.259 -58.0947 135.139C-58.6646 134.772 -59.3582 135.43 -61.154 137.992C-61.9685 139.212 -62.8261 140.228 -63.0304 140.228C-63.2347 140.228 -64.2536 139.457 -65.2724 138.479C-66.6999 137.096 -67.0682 136.567 -66.7806 136.039C-66.3316 135.265 -62.1298 130.872 -61.8449 130.872C-61.7266 130.869 -60.8287 131.762 -59.8501 132.861ZM114.075 132.008C117.745 133.431 117.704 133.391 115.908 135.584C115.013 136.645 114.075 137.783 113.83 138.107C113.462 138.595 113.137 138.558 111.79 137.662C110.892 137.134 109.301 136.274 108.201 135.751C107.099 135.258 106.405 134.729 106.569 134.568C107.507 133.716 111.381 131.27 111.79 131.27C112.035 131.272 113.053 131.601 114.075 132.008ZM121.742 136.442C122.68 137.212 123.454 137.986 123.454 138.149C123.454 138.431 122.436 139.285 118.193 142.542C118.072 142.62 118.193 142.87 118.478 143.154C118.806 143.484 119.621 143.111 121.742 141.73C123.293 140.677 124.637 139.819 124.801 139.819C124.965 139.819 125.619 140.919 126.312 142.264L127.535 144.704L125.984 145.673C124.272 146.731 120.559 148.484 120.438 148.28C120.395 148.202 119.704 146.772 118.887 145.102C118.072 143.437 116.726 141.4 115.951 140.631L114.481 139.249L116.806 136.887C118.073 135.625 119.296 134.688 119.54 134.814C119.785 134.932 120.763 135.668 121.742 136.442ZM109.139 138.065C112.728 139.899 115.502 142.212 116.97 144.573C117.704 145.715 120.804 156.087 120.519 156.285C118.562 157.588 115.747 159.463 113.747 160.803C109.384 163.73 105.263 164.055 98.249 162.144L94.9854 161.248L94.0471 159.175C93.0686 157.103 88.9877 150.672 87.9286 149.578C86.1758 147.745 86.4204 147.588 88.3775 149.296C92.6599 152.96 97.7166 155.48 101.878 155.971C104.368 156.252 107.916 155.196 109.588 153.652C110.771 152.552 110.852 152.262 110.607 150.882C109.505 144.784 102.776 140.918 93.1896 140.84C91.0282 140.84 89.3157 140.797 89.3561 140.756C89.3964 140.714 91.5578 140.107 94.1681 139.458C96.7784 138.766 100.082 137.667 101.51 137.013C102.94 136.364 104.448 135.919 104.857 136.039C105.306 136.152 107.223 137.049 109.139 138.065ZM-45.2876 138.558L-43.7392 138.798L-45.6156 141.322C-47.371 143.761 -47.5727 143.881 -49.2045 143.924C-51.7342 144.002 -53.3256 143.842 -53.6509 143.557C-53.8552 143.311 -53.366 141.486 -52.1428 138.27C-51.9358 137.742 -49.5701 137.823 -45.2876 138.558ZM82.0143 141.4C82.1783 141.604 82.1353 142.091 82.0143 142.458C81.7697 143.072 81.689 143.03 80.9954 142.416C80.3825 141.851 80.3018 141.648 80.7078 141.364C81.4013 140.956 81.7697 140.955 82.0143 141.4ZM129.248 150.432C129.369 151.608 129.207 151.816 126.922 153.076C125.576 153.807 124.272 154.575 123.987 154.819C122.925 155.757 121.866 155.306 121.457 153.72C120.395 149.736 120.11 150.269 124.352 148.275L128.146 146.437L128.635 147.783C128.879 148.52 129.167 149.7 129.248 150.432ZM130.799 157.426C131.084 158.93 131.245 160.232 131.165 160.274C131.084 160.312 129.861 161.247 128.474 162.306L125.903 164.264L124.925 162.112C124.393 160.93 123.659 159.589 123.333 159.138C122.191 157.635 122.11 159.42 123.253 161.824C124.68 164.918 124.597 165.443 122.315 166.95C120.194 168.416 119.785 168.536 119.785 167.761C119.785 167.52 119.091 165.85 118.193 164.06L116.645 160.892L117.5 160.07C119.296 158.4 121.008 157.589 121.621 158.117C122.315 158.688 123.089 158.322 122.804 157.505C122.516 156.862 123.538 155.678 124.352 155.678C124.637 155.678 125.984 155.15 127.331 154.542C130.146 153.199 129.982 153.033 130.799 157.426ZM-9.59769 157.913C-10.1273 159.095 -10.4553 159.177 -11.1489 158.322C-11.5548 157.834 -11.5548 157.673 -11.1058 157.552C-10.6166 157.383 -9.55737 157.055 -9.23208 156.934C-9.14874 156.897 -9.35306 157.35 -9.59769 157.913ZM-36.642 160.028C-36.642 160.275 -37.7819 161.656 -39.1287 163.123L-41.6181 165.761L-43.4112 164.746C-44.3897 164.217 -45.6559 163.487 -46.1855 163.123L-47.1237 162.51L-45.5753 160.887C-43.1665 158.399 -42.1907 158.117 -39.1717 158.929C-37.7819 159.293 -36.642 159.822 -36.642 160.028ZM-18.2863 159.746C-18.7352 159.909 -20.4074 160.559 -22.0392 161.17C-29.7895 164.019 -34.8059 169.503 -34.8059 175.039C-34.8059 176.301 -34.521 177.111 -33.8274 177.923C-32.8892 178.985 -32.6445 179.065 -29.6256 179.065C-27.0555 179.065 -26.0367 178.861 -24.4049 178.049C-21.5499 176.666 -17.3078 172.275 -15.063 168.447C-13.0253 164.949 -12.8613 164.829 -13.8398 167.515C-14.7781 170.158 -15.9609 175.447 -16.2459 178.248C-16.5308 181.017 -17.1034 181.665 -21.1009 184.065C-26.4856 187.362 -29.7895 187.97 -34.6016 186.75C-35.9484 186.383 -38.2738 185.818 -39.782 185.489L-42.473 184.839L-42.7606 179.107C-42.9622 175.322 -42.8816 172.796 -42.5966 171.745C-41.903 169.223 -40.0669 166.331 -37.091 163.123L-34.357 160.185L-29.9912 160.353C-27.5851 160.436 -23.9559 160.231 -21.9558 159.95C-17.469 159.339 -17.2674 159.295 -18.2863 159.746ZM116.847 164.709C118.642 169.059 118.642 169.142 116.521 170.196C113.462 171.705 113.137 171.542 112.279 168.285C111.871 166.698 111.301 165.197 111.016 164.913C110.607 164.506 110.975 164.181 112.809 163.159C114.075 162.427 115.218 161.862 115.338 161.819C115.462 161.819 116.153 163.122 116.847 164.709ZM100.002 164.18L103.674 164.913L103.795 167.871C103.876 169.498 103.755 171.009 103.591 171.17C103.225 171.537 98.6145 170.072 97.8403 169.337C97.3107 168.809 95.6789 163.4 96.0876 163.4C96.2085 163.405 98.0043 163.773 100.002 164.18ZM-43.2069 168.772C-43.7391 169.833 -44.1881 171.014 -44.1881 171.416C-44.1881 171.909 -44.3091 171.986 -44.5134 171.662C-44.6774 171.38 -46.1048 170.767 -47.6533 170.279C-49.2448 169.835 -50.6723 169.3 -50.8336 169.102C-51.2019 168.772 -50.3443 166.86 -49.0378 164.992L-48.2636 163.897L-45.2446 165.4L-42.2256 166.861L-43.2069 168.772ZM110.607 167.677C111.016 169.342 111.177 171.013 111.056 171.337C110.892 171.782 110.198 171.95 108.405 171.95C107.059 171.95 105.876 171.824 105.795 171.62C105.671 171.456 105.467 169.911 105.306 168.206L105.018 165.075L106.814 164.913C107.792 164.83 108.895 164.744 109.26 164.709C109.793 164.623 110.077 165.276 110.607 167.677ZM58.5615 169.793C58.6422 169.835 58.4782 170.161 58.1932 170.526C57.54 171.338 56.97 170.928 56.97 169.63C56.97 168.692 57.0507 168.653 57.704 169.143C58.0696 169.428 58.4782 169.752 58.5615 169.793ZM-47.7367 171.745L-44.594 172.515V175.08V177.682L-45.9005 177.478C-46.6344 177.358 -48.1453 177.154 -49.2851 177.028C-52.874 176.583 -52.874 176.583 -52.5487 174.468C-52.1401 171.458 -51.8551 170.684 -51.3659 170.85C-51.1212 170.928 -49.4894 171.335 -47.7367 171.745ZM99.8377 172.232C100.776 172.594 102.693 174.024 104.08 175.447C109.709 181.055 120.315 183.902 130.595 182.562C139.24 181.42 144.259 178.82 146.542 174.306C147.439 172.515 147.644 172.352 148.254 172.845C151.558 175.448 153.313 179.14 153.313 183.735C153.354 188.372 150.335 195.165 146.87 198.337C145.644 199.478 144.3 200.413 143.81 200.494C142.993 200.614 141.445 202.61 141.851 203.017C141.974 203.138 142.708 203.018 143.523 202.771C144.789 202.404 145.154 202.484 146.87 203.462C149.276 204.885 151.601 207.608 152.496 210.09C153.394 212.572 153.434 217.775 152.58 221.724L151.886 224.734L149.601 225.75C143.891 228.272 138.262 228.761 134.549 227.053C133.366 226.525 131.49 225.143 130.39 224.001C128.474 222.047 128.35 221.809 128.594 220.299C128.799 219.2 128.718 218.713 128.35 218.713C127.697 218.713 126.352 220.378 126.312 221.273C126.312 222.662 124.557 225.426 122.355 227.498C121.008 228.801 118.683 230.347 116.277 231.566C112.524 233.478 112.199 233.556 109.016 233.556C106.325 233.518 105.306 233.359 103.47 232.503C102.246 231.932 100.776 231.033 100.206 230.545C99.1872 229.693 99.1872 229.697 100.002 229.247C101.798 228.188 104.244 225.216 105.018 223.059C107.139 217.488 107.059 209.359 104.857 201.792C102.693 194.348 98.0043 187.636 93.4745 185.478C92.5793 185.033 91.6411 184.138 91.0282 183.002C90.4583 181.98 90.0093 181.127 90.0093 181.044C90.0093 180.966 90.8238 180.887 91.8024 180.887C93.5175 180.887 93.6788 181.007 98.0043 185.478C103.021 190.687 104.652 193.13 106.61 198.494C109.75 207.195 112.973 211.628 117.868 214.033C121.132 215.577 125.374 215.902 128.025 214.766C131.001 213.42 131.858 210.577 130.062 207.808C129.248 206.55 128.963 206.995 128.963 209.478C128.963 211.389 128.839 211.629 127.535 212.525C126.269 213.383 125.78 213.463 123.21 213.3C119.745 213.053 117.624 212.081 114.849 209.478C112.279 207.076 111.096 204.997 108.935 199.059C106.65 192.754 104.488 189.263 100.327 185.033C98.4533 183.122 96.9424 181.535 96.9424 181.452C96.9424 181.374 97.3914 181.285 97.921 181.285C99.2275 181.285 99.9614 180.312 99.6361 179.049C99.3888 178.111 99.6764 178.236 102.736 180.436C108.65 184.583 111.545 185.759 119.376 187.185C126.393 188.447 129.452 189.793 132.183 192.677C134.673 195.363 135.856 197.924 135.856 200.897C135.896 203.859 135.038 204.881 132.388 205.001C129.982 205.127 129.941 206.143 132.267 206.671C134.264 207.074 135.815 206.463 137.079 204.755C138.506 202.839 138.302 198.856 136.59 195.441C133.856 189.866 128.678 186.693 120.194 185.353C113.096 184.216 109.954 182.953 102.98 178.316C99.3888 175.917 98.5742 175.143 98.3699 174.169C98.2059 173.473 98.0043 172.627 97.921 172.217C97.6763 171.38 97.7166 171.38 99.8377 172.232ZM-54.5891 175.484C-54.7934 177.845 -54.6295 180.12 -53.9762 184.353C-53.4869 187.483 -53.038 190.776 -52.9977 191.672C-52.917 193.626 -52.4681 194.435 -51.6508 194.153C-51.3255 193.99 -48.7152 194.725 -45.8575 195.698C-40.8815 197.411 -38.3115 198.059 -33.7844 198.63L-31.7843 198.871L-33.986 200.295C-39.411 203.712 -44.1021 205.139 -48.6292 204.729C-52.8713 204.322 -55.1564 203.714 -58.5006 202.127L-61.6002 200.661L-62.3745 197.604C-63.2724 194.028 -63.3933 187.073 -62.5788 184.148C-61.8852 181.666 -59.3555 177.519 -56.8285 174.672C-55.686 173.41 -54.6268 172.353 -54.5031 172.353C-54.3794 172.353 -54.4251 173.776 -54.5891 175.484ZM69.2072 176.3C71.5729 177.437 74.7532 178.74 76.3446 179.185C79.119 179.96 79.1996 180.004 80.3018 182.154C81.974 185.411 83.4821 190.453 83.4821 192.651C83.4821 194.886 82.5842 197.65 80.4631 202.043C79.6486 203.713 78.9953 205.295 78.9953 205.624C78.9953 206.026 78.5464 206.112 77.2829 205.949C76.3043 205.828 74.2639 205.625 72.6724 205.499C65.1694 204.85 62.1907 202.983 57.2147 195.74L55.7039 193.577L56.3168 191.18C57.0507 188.416 57.7846 182.84 57.8249 179.672L57.8679 177.431L58.4379 180.4C59.4997 186.259 61.2928 190.403 64.0268 193.379C66.0646 195.571 68.1857 196.709 70.839 197.033C72.6321 197.237 72.9171 197.159 73.8553 196.138C76.1807 193.621 76.1404 188.982 73.694 184.143C72.5111 181.824 68.0243 176.816 65.3307 174.824C63.7419 173.655 64.1075 173.775 69.2072 176.3ZM22.2587 176.703C22.299 177.317 21.9307 177.356 21.1565 176.871C20.6672 176.584 20.6672 176.378 21.1161 175.646C21.6458 174.877 21.6861 174.877 21.9737 175.525C22.0947 175.893 22.2587 176.462 22.2587 176.703ZM-46.5538 178.819C-45.4919 178.861 -44.5537 179.022 -44.4327 179.185C-44.3091 179.389 -44.1048 180.65 -43.9435 182.033C-43.6558 184.676 -43.8198 184.883 -45.8199 184.593C-46.1452 184.556 -47.1667 184.429 -48.0619 184.311C-52.3041 183.74 -52.589 183.458 -52.7127 179.63L-52.753 178.217L-50.5916 178.494C-49.4491 178.655 -47.613 178.819 -46.5538 178.819ZM87.8882 181.421C88.7028 182.075 90.8642 186.509 90.4986 186.75C90.0496 187.037 84.7053 187.932 84.544 187.766C84.3397 187.562 81.4417 180.774 81.4417 180.567C81.4417 180.246 87.399 181.019 87.8882 181.421ZM16.7504 182.604C16.5891 182.885 16.0998 183.621 15.6912 184.232C11.6533 190.049 10.1452 198.179 12.2636 202.656C13.5298 205.462 15.5272 207.08 17.159 206.755C23.1566 205.536 26.5815 196.342 24.5411 186.829C23.8905 183.698 23.9711 182.841 24.7454 185.243C25.5223 187.642 28.6622 193.783 30.2537 195.981L31.6409 197.928L30.2537 202.331C28.8262 206.88 27.3557 209.566 25.2776 211.483C24.6244 212.126 21.8904 213.714 19.1994 215.012L14.3443 217.415L10.5511 213.593C5.24979 208.264 4.59655 206.715 4.47289 199.923C4.47289 197.033 4.51589 194.351 4.63686 193.944C4.76053 193.499 6.26867 192.076 8.02413 190.693C9.7769 189.352 12.4276 186.865 13.9787 185.201C16.7504 182.153 17.323 181.625 16.7504 182.604ZM-16.7351 189.923C-17.5927 190.896 -20.5283 193.096 -20.937 193.096C-21.5902 193.096 -23.671 187.278 -23.0984 187.117C-22.8537 187.039 -21.3456 186.059 -19.6735 184.96L-16.6545 182.928L-16.3292 186.017C-16.0012 188.703 -16.0846 189.189 -16.7351 189.923ZM-44.0644 186.143C-43.6558 186.545 -43.6155 187.884 -43.9435 189.436C-44.0644 190.002 -44.2687 191.274 -44.3897 192.29L-44.6344 194.117L-47.8173 193.101L-51.0406 192.085L-51.2449 190.457C-51.3686 189.562 -51.6105 188.058 -51.7745 187.122L-52.0191 185.415L-48.2259 185.62C-46.1452 185.695 -44.2687 185.939 -44.0644 186.143ZM-37.048 188.258C-37.048 188.583 -37.2119 190.411 -37.4163 192.363C-37.7819 196.346 -37.7415 196.346 -40.9245 195.373L-42.7606 194.844L-42.8009 191.227C-42.8412 186.144 -42.7606 186.059 -39.618 186.955C-38.0292 187.4 -37.048 187.886 -37.048 188.258ZM-23.7516 190.776C-23.3833 192.165 -23.0177 193.541 -22.937 193.871C-22.6924 194.64 -27.8701 196.595 -28.319 195.86C-28.483 195.619 -28.768 194.032 -28.932 192.405C-29.096 190.373 -29.3406 189.436 -29.7062 189.436C-30.4831 189.436 -30.5638 189.924 -30.2788 193.216C-30.1552 194.803 -30.1148 196.27 -30.1955 196.431C-30.4401 196.919 -34.357 196.798 -35.2952 196.31C-36.0694 195.903 -36.1097 195.619 -35.8651 192.164C-35.7038 190.127 -35.5398 188.422 -35.4995 188.379C-35.4592 188.296 -34.6823 188.421 -33.787 188.625C-31.502 189.153 -29.2169 189.109 -26.8512 188.452C-25.7087 188.17 -24.7301 188.008 -24.6495 188.085C-24.5258 188.174 -24.1602 189.396 -23.7516 190.776ZM92.0067 191.185C92.2513 192.608 92.4557 193.909 92.4557 194.075C92.4557 194.233 90.8239 194.317 88.7861 194.279L85.1139 194.153V192.525C85.1139 191.592 84.9929 190.453 84.8693 189.965C84.6246 189.153 84.7886 189.071 86.786 188.907C92.09 188.54 91.5174 188.293 92.0067 191.185ZM-15.4716 192.525C-14.6141 194.723 -15.5926 196.676 -21.1413 203.63C-23.0177 205.948 -26.6066 209.08 -29.0126 210.42C-35.0102 213.798 -36.4377 214.775 -38.5588 216.928C-41.2901 219.697 -43.1665 222.953 -43.6988 225.886C-44.758 231.78 -42.352 237.022 -38.5991 237.022C-36.9673 237.022 -34.2763 235.56 -34.521 234.833C-34.6823 234.34 -35.0102 234.336 -37.2523 234.907C-39.7013 235.478 -41.0455 234.175 -41.6987 230.634C-42.8009 224.78 -39.0481 218.315 -32.4402 214.65C-24.7705 210.383 -20.8563 207.005 -17.2244 201.598L-15.063 198.384L-14.5334 199.651C-14.0441 200.827 -13.8802 200.912 -12.536 200.708C-11.7591 200.582 -11.1488 200.581 -11.2295 200.745C-15.9206 210.347 -16.5308 212.581 -16.4905 220.106C-16.4502 228.812 -17.7137 233.205 -21.2219 236.781C-24.2812 239.912 -29.3406 241.257 -31.1337 239.467C-31.5826 239.022 -31.9509 238.294 -31.9509 237.849C-31.9509 236.624 -31.9913 236.461 -32.4402 235.933C-33.1338 235.12 -33.5827 235.73 -33.5827 237.472C-33.5827 240.933 -31.623 242.561 -27.7491 242.231C-24.8941 241.99 -22.1198 240.568 -19.7541 238.043C-15.8803 233.939 -14.9017 230.807 -14.6974 221.326C-14.4931 213.316 -13.7995 210.511 -10.3719 203.185C-8.53851 199.201 -8.33421 198.917 -6.66208 198.263L-4.94695 197.614L-5.19157 199.729C-5.39587 201.238 -5.80451 202.169 -6.66208 203.064C-8.53851 205.018 -9.92297 207.949 -10.9849 212.095C-14.2888 225.19 -8.25087 243.091 0.394714 245.812C1.6609 246.22 2.72011 246.746 2.72011 246.99C2.72011 247.969 0.190414 250.935 -1.64301 252.069C-4.74531 254.023 -7.15135 254.634 -10.6999 254.388C-16.6545 253.943 -21.8752 251.948 -24.4452 249.142C-25.2194 248.289 -25.8324 247.429 -25.8324 247.231C-25.8324 247.027 -26.1577 246.787 -26.5259 246.618C-26.9346 246.498 -27.5045 246.252 -27.7491 246.131C-28.483 245.807 -28.4024 247.026 -27.6685 248.163C-27.0959 249.021 -27.0959 249.304 -27.7088 250.891C-29.3809 255.198 -32.2762 258.006 -36.3141 259.225C-38.6394 259.917 -46.3898 260.409 -47.613 259.964C-48.6319 259.556 -51.5299 254.713 -52.6294 251.582C-54.1375 247.309 -54.0972 244.381 -52.425 241.006C-50.8336 237.754 -49.4464 236.414 -47.8576 236.535C-47.2044 236.572 -46.5538 236.413 -46.3898 236.126C-45.9812 235.478 -47.6963 234.419 -49.2851 234.336C-53.5676 234.215 -60.1754 228.687 -63.2347 222.744C-64.2133 220.833 -64.3772 220.103 -64.3772 216.891C-64.3369 214.122 -64.1729 212.858 -63.603 211.808C-62.2562 209.242 -62.2159 209.241 -60.1351 210.949C-57.4844 213.19 -54.6295 214.002 -49.8981 213.959C-41.6987 213.839 -31.7869 209.975 -25.8324 204.603C-22.6494 201.676 -19.9584 197.973 -19.4692 195.818C-19.3052 195.092 -18.5713 193.951 -17.7137 193.216C-16.0012 191.712 -15.7969 191.63 -15.4716 192.525ZM2.80076 198.666L2.67979 202.368L0.109764 202.818C-4.09205 203.55 -3.9684 203.63 -3.68343 200.823C-3.51945 199.44 -3.19416 197.975 -2.98985 197.53C-2.5409 196.713 2.3545 194.235 2.72011 194.682C2.84377 194.803 2.88409 196.592 2.80076 198.666ZM89.52 195.782L92.496 196.064L92.211 197.928C91.8024 200.614 91.3534 201.63 90.5389 201.63C90.1302 201.63 88.3372 201.267 86.5414 200.865C84.1757 200.337 83.3181 199.969 83.4418 199.562C84.6246 195.578 84.9096 195.091 85.7268 195.295C86.1758 195.418 87.8882 195.621 89.52 195.782ZM56.6421 197.693C57.255 198.631 58.2335 199.927 58.8465 200.541C59.7847 201.557 59.8654 201.839 59.4567 202.614C58.8062 203.791 56.1958 206.52 55.7039 206.52C55.2979 206.52 53.0532 203.18 52.6472 201.923C52.3596 201.065 54.4807 195.984 55.1339 195.944C55.3786 195.944 56.0318 196.714 56.6421 197.693ZM96.2489 202.855C99.0635 210.216 97.8 218.393 92.7836 225.226C91.1518 227.419 90.9072 227.587 88.9877 227.828C83.7267 228.442 78.7103 227.665 74.2236 225.593C71.5326 224.29 67.6964 220.792 65.1694 217.294C63.8629 215.466 63.8226 215.382 64.7608 215.666C68.554 216.891 70.511 217.174 76.7533 217.378C80.5868 217.499 83.8907 217.784 84.1757 217.991C84.8289 218.524 86.3371 217.499 86.3371 216.483C86.3371 216.032 86.9903 214.576 87.8049 213.273C90.9072 208.105 92.9852 203.383 93.8831 199.399C94.1278 198.257 94.1681 198.262 94.617 199.001C94.8617 199.444 95.5956 201.19 96.2489 202.855ZM37.0228 203.792C37.4315 204.524 36.8185 208.715 36.168 209.771C35.9233 210.178 35.1894 209.934 33.1087 208.797C31.6409 207.945 30.458 207.049 30.579 206.802C30.6596 206.521 31.1489 205.011 31.6409 203.467C32.1705 201.88 32.6597 200.373 32.7404 200.049C32.864 199.646 33.4743 200.011 34.7808 201.268C35.7997 202.247 36.8185 203.382 37.0228 203.792ZM87.8049 202.734L90.7029 203.467L89.6813 205.787C88.5415 208.473 88.0925 208.632 84.38 207.53C83.1971 207.163 82.0949 206.959 81.9337 207.08C81.7697 207.163 81.3207 207.003 80.9121 206.713C80.2588 206.225 80.2588 206.105 81.0358 204.237C82.2589 201.468 82.5036 201.227 83.8101 201.672C84.4203 201.881 86.2161 202.367 87.8049 202.734ZM63.6182 204.729C64.7608 205.498 65.4947 206.111 65.25 206.111C64.9651 206.111 64.1075 207.372 63.2499 208.959C62.4353 210.503 61.5375 211.813 61.2928 211.813C61.0482 211.813 59.9057 210.99 58.8062 210.012L56.7658 208.274L58.0696 206.808C58.7632 206.033 59.661 204.813 60.0697 204.122C60.4783 203.473 60.9676 202.985 61.1289 203.106C61.3332 203.229 62.4354 203.954 63.6182 204.729ZM3.33304 205.703C3.9836 208.142 4.92183 209.892 6.63697 211.766L8.02413 213.352L5.04549 215.221C0.803345 217.824 0.883995 217.824 -0.258537 215.996C-2.41993 212.535 -2.50058 212.826 0.67968 211.362C3.78198 209.939 4.80084 209.122 3.90295 208.755C3.57767 208.635 2.02653 209.08 0.478065 209.729C-1.11341 210.421 -2.50059 210.828 -2.66457 210.624C-3.11353 210.217 -3.92808 205.665 -3.60279 205.378C-3.27482 205.011 1.57758 203.751 2.27116 203.834C2.63947 203.869 3.0884 204.644 3.33304 205.703ZM52.5236 205.378C53.2172 206.641 53.4618 207.615 53.3812 208.797C53.0935 212.373 55.7469 219.085 59.2551 223.64C63.7419 229.457 71.4493 234.95 77.7318 236.776C80.7508 237.671 84.216 237.594 86.7054 236.613C88.0092 236.125 88.8264 235.96 88.9877 236.242C89.6007 237.18 89.192 241.86 88.3372 244.173C86.665 248.567 80.7911 253.126 74.6725 254.712C71.9385 255.404 69.0836 255.525 67.9814 254.911C67.0458 254.424 64.7204 254.839 64.7204 255.487C64.7204 255.769 65.3307 256.215 66.1076 256.456C67.2904 256.906 67.6561 257.309 68.2287 259.1C69.1239 261.665 69.2072 265.564 68.4303 267.519C67.8604 268.907 65.9436 271.832 64.4328 273.623C64.0268 274.068 62.68 275.25 61.4568 276.183C60.2337 277.116 59.0911 278.053 58.9272 278.257C58.5185 278.827 54.1554 277.526 50.8111 275.859C45.1818 273.009 42.7758 269.717 42.4075 264.267C42.2032 261.257 42.2032 261.136 43.2651 260.482C43.835 260.08 44.3243 259.509 44.3243 259.142C44.3243 258.329 42.1225 258.734 40.6951 259.833C37.3508 262.436 28.4982 262.436 22.912 259.833C18.8714 257.964 15.6912 254.058 15.0782 250.273L14.8336 248.812H17.6483C19.729 248.812 20.9925 248.565 22.5033 247.833C30.7027 244.011 38.6546 231.688 39.8778 220.912C40.2864 217.17 39.8375 212.981 38.8186 210.944C38.3293 210.005 38.2891 209.399 38.6547 207.734C38.8993 206.635 39.2273 205.698 39.3886 205.698C39.5526 205.698 40.2058 206.227 40.8161 206.876C42.2435 208.342 42.3672 209.399 42.4075 217.902L42.4478 224.205L40.0821 231.079L37.7164 237.954L37.8804 242.053C38.0041 245.388 38.2487 246.577 39.1036 248.446C42.6118 256.053 50.5665 258.535 52.3999 252.592C52.9725 250.807 52.3193 249.708 51.5047 251.011C50.1176 253.247 49.545 253.692 48.0368 253.692C46.9776 253.692 45.9561 253.324 44.8136 252.472C41.4693 250.073 39.7568 246.242 39.7165 241.283C39.7165 238.52 39.9208 237.379 41.2247 233.755C44.284 225.295 44.448 224.651 44.448 218.708C44.4883 215.698 44.3646 212.528 44.2033 211.718L43.8753 210.174L45.1415 210.897C46.405 211.593 46.405 211.594 47.3432 210.535L48.2411 209.478L49.424 213.745C51.0155 219.645 53.0129 223.424 57.3356 228.593C61.2525 233.351 63.2096 236.644 63.6989 239.247C64.5564 243.97 63.4139 248.562 60.7633 250.838C59.0911 252.347 57.8249 252.383 56.2361 251.042C53.8301 249.048 53.2172 250.429 55.5023 252.712C56.6421 253.849 57.2147 254.095 58.5615 254.095C59.989 254.095 60.5186 253.849 62.231 252.142C64.7204 249.703 65.9436 246.649 65.9436 242.786C65.9436 237.623 64.1478 233.634 59.2551 227.86C57.3357 225.624 55.0533 222.414 54.1554 220.75C52.6473 217.938 49.6283 208.631 49.6283 206.797C49.6283 205.902 50.7278 203.666 51.1768 203.666C51.3811 203.674 51.9537 204.445 52.5236 205.378ZM69.5325 206.76C70.5514 206.924 71.2046 207.207 71.1239 207.493C71.0406 207.74 70.4707 209.448 69.8578 211.279C69.0432 213.756 68.5539 214.651 68.0647 214.614C66.8818 214.571 63.4946 213.225 63.4542 212.823C63.4542 212.577 64.0269 210.99 64.7608 209.242C65.9033 206.519 66.2286 206.11 66.9625 206.274C67.4114 206.394 68.554 206.6 69.5325 206.76ZM77.0786 207.289C78.4254 207.332 78.4657 207.778 77.3635 210.949C75.8554 215.468 75.8554 215.467 73.53 215.467C72.3875 215.467 71.2449 215.303 71.0003 215.137C70.6347 214.939 70.796 213.755 71.5729 210.87L72.5918 206.881L74.2639 207.085C75.2021 207.206 76.4253 207.289 77.0786 207.289ZM82.0143 208.101C82.1353 208.304 83.4418 208.799 84.8693 209.164L87.4796 209.855L85.9715 212.86L84.501 215.834L81.5653 215.87C77.3232 215.87 77.3635 215.912 78.2211 212.781C78.6297 211.315 78.8313 209.891 78.7104 209.567C78.5867 209.242 78.7104 208.959 78.955 208.959C79.1996 208.959 79.4039 208.674 79.4039 208.347C79.4039 207.701 81.646 207.457 82.0143 208.101ZM35.2701 212.048C35.5147 212.212 33.27 216.239 32.7 216.687C32.4151 216.928 31.4366 216.32 29.6811 214.776C27.7643 213.063 27.0304 212.618 26.6621 212.985C26.3368 213.31 26.8261 214.084 28.7832 216.033L31.3532 218.64L29.2321 220.305C28.0923 221.243 26.9498 221.975 26.7455 221.975C26.4175 221.975 21.8904 216.237 21.8904 215.792C21.8904 215.628 22.8689 214.974 24.0518 214.326C26.2562 213.106 28.5386 210.828 29.3155 209.164C29.7214 208.225 29.7214 208.224 32.4554 210.095C33.9232 211.111 35.2298 212.005 35.2701 212.048ZM10.9597 216.153C12.6319 217.866 12.7959 218.191 12.3469 218.802C12.062 219.204 11.6937 219.535 11.613 219.535C11.4893 219.535 10.1022 220.258 8.59405 221.153L5.81973 222.781L4.06695 221.074C3.08841 220.136 2.31149 219.24 2.31149 219.08C2.31149 218.919 3.49434 218.02 4.92183 217.085C6.39233 216.147 7.7768 215.132 8.06445 214.807C8.75803 214.001 8.879 214.043 10.9597 216.153ZM-1.60268 217.336C-0.0945435 219.698 3.57767 223.477 7.69615 226.854C9.4086 228.278 10.8791 229.738 11.0001 230.106C11.2044 230.923 12.4679 231 13.3658 230.268C13.6938 229.944 15.8955 229.011 18.2612 228.153C23.3179 226.241 26.2965 224.818 28.9472 222.907C30.0494 222.137 31.0279 221.566 31.1086 221.687C31.3532 221.934 29.4364 227.263 28.2133 229.702C26.4605 233.158 24.99 234.785 21.3608 237.184C17.6079 239.666 16.7504 240.073 12.7555 241.132L9.94089 241.865L7.57519 240.273C3.16906 237.263 -1.11341 231.938 -2.46025 227.792C-3.11351 225.714 -3.64312 215.467 -3.11353 215.467C-2.90921 215.467 -2.25594 216.323 -1.60268 217.336ZM22.8286 219.776L25.1943 223.237L22.8286 224.252L20.4629 225.305L19.2397 223.891C14.7529 218.849 14.7529 218.808 17.487 217.425C18.6698 216.811 19.8527 216.326 20.0543 216.326C20.3016 216.323 21.5248 217.865 22.8286 219.776ZM14.6723 220.101C15.0379 220.382 15.3659 220.754 15.3659 220.917C15.3659 221.081 16.0998 222.258 16.9977 223.598L18.5865 225.959L15.3659 227.263L12.1023 228.561L9.65323 226.242L7.24721 223.886L9.57259 222.216C10.8361 221.32 12.1426 220.348 12.4276 220.059C13.1212 219.41 13.7341 219.409 14.6723 220.101Z" fill="#E3B450" fill-opacity="0.45"/>
<path d="M45.8084 46.5691C45.7681 46.8935 44.3406 48.3158 42.6685 49.7419C37.2838 54.2131 33.6143 59.8249 31.0443 67.553C28.3103 75.6886 28.1893 80.7729 30.391 96.5106C31.5335 104.971 32.0228 114.123 31.2889 113.228C30.8399 112.783 28.5549 106.192 27.985 103.709C27.7403 102.693 26.9231 98.8722 26.1488 95.1703C22.9283 79.9205 20.2749 74.2252 12.8928 66.5374C8.57003 62.0661 3.63432 58.9307 -2.32027 56.8988C-3.74776 56.4109 -5.01394 55.8391 -5.13492 55.5951C-5.6672 54.8258 -6.68608 55.6382 -6.64576 56.815C-6.64576 57.4289 -6.85006 59.0139 -7.13503 60.3542C-8.3582 66.2971 -7.58397 74.0598 -5.01395 81.1392C-2.15897 88.9504 1.63422 93.9499 11.3417 102.573C18.8474 109.285 25.8639 116.525 25.3343 117.013C24.845 117.501 17.2156 112.578 12.1993 108.552C-3.4628 95.9401 -11.3368 92.5685 -24.4692 92.8929C-29.8942 93.0564 -32.6282 93.5412 -36.9107 95.2541C-38.1339 95.742 -39.521 96.1058 -40.0506 96.0656C-41.1528 95.9878 -41.3571 97.208 -40.3356 98.0551C-40.0103 98.3419 -39.3167 99.322 -38.8678 100.217C-34.7089 108.348 -25.7757 115.668 -15.9446 119.002C-10.6836 120.793 -7.46032 121.16 8.97596 121.809C14.6886 122.055 22.6406 123.11 22.6406 123.641C22.6406 124.172 14.6886 125.232 8.97596 125.479C-7.46032 126.127 -10.6836 126.494 -15.9446 128.285C-25.7757 131.62 -34.7089 138.94 -38.8678 147.075C-39.3167 147.965 -40.0103 148.943 -40.3356 149.227C-41.3571 150.079 -41.1528 151.305 -40.0506 151.222C-39.521 151.179 -38.1339 151.545 -36.9107 152.033C-32.6282 153.746 -29.8942 154.231 -24.4692 154.394C-11.3368 154.719 -3.4628 151.342 12.1993 138.735C17.2156 134.709 24.845 129.787 25.3343 130.274C25.8639 130.762 18.8474 138.002 11.3417 144.714C1.63422 153.337 -2.15897 158.337 -5.01395 166.148C-7.58397 173.227 -8.3582 180.996 -7.13503 186.933C-6.85006 188.273 -6.64576 189.861 -6.64576 190.472C-6.68608 191.649 -5.6672 192.461 -5.13492 191.692C-5.01394 191.445 -3.74776 190.874 -2.32027 190.388C3.63432 188.357 8.57003 185.226 12.8928 180.75C20.2749 173.065 22.9283 167.369 26.1488 152.117C26.9231 148.415 27.7403 144.594 27.985 143.578C28.5549 141.096 30.8399 134.505 31.2889 134.06C32.0228 133.164 31.5335 142.306 30.391 150.766C28.1893 166.509 28.3103 171.594 31.0443 179.724C33.6143 187.457 37.2838 193.072 42.6685 197.54C44.3406 198.964 45.7681 200.388 45.8084 200.713C46.0127 201.565 47.7279 201.366 47.7279 200.519C47.7682 200.189 48.6231 198.352 49.6446 196.441C53.3142 189.771 54.497 184.975 54.497 176.917C54.497 168.096 53.0695 163.218 47.0343 151.745C44.9938 147.802 42.6685 143.405 41.9346 141.944C40.3028 138.687 38.0607 132.588 38.4667 132.588C38.671 132.588 39.8135 133.812 41.0367 135.321C43.2814 138.002 45.4428 141.212 51.6017 151.012C57.9246 160.981 63.0216 165.938 71.3849 170.085C77.0545 172.937 84.6006 174.609 89.8616 174.164C91.2488 174.08 92.2273 174.2 92.636 174.525C93.6145 175.342 94.2678 174.404 93.6951 172.98C93.4505 172.372 93.0446 170.661 92.7973 169.2C91.1251 158.301 83.2941 147.476 72.6081 141.217C69.9574 139.707 66.0809 137.959 54.8653 133.41C50.3785 131.577 43.0368 127.714 43.0368 127.185C43.0368 127.022 43.4427 126.981 43.975 127.102C44.4642 127.185 46.3407 127.552 48.1338 127.877C49.9296 128.201 52.5802 128.892 54.0481 129.337C65.5916 133.079 68.081 133.857 70.8957 134.588C84.7619 138.207 99.6927 134.874 109.156 126.133C110.134 125.238 111.277 124.468 111.683 124.468C112.091 124.468 112.376 124.134 112.376 123.646C112.376 123.158 112.091 122.835 111.683 122.835C111.277 122.835 110.134 122.06 109.156 121.165C99.6927 112.421 84.7619 109.085 70.8957 112.704C68.081 113.436 65.5916 114.213 54.0481 117.95C52.5802 118.4 49.9296 119.097 48.1338 119.421C46.3407 119.746 44.4642 120.108 43.975 120.186C43.4427 120.312 43.0368 120.273 43.0368 120.112C43.0368 119.584 50.3785 115.718 54.8653 113.892C66.0809 109.333 69.9574 107.582 72.6081 106.081C83.2941 99.8193 91.1251 88.9966 92.7973 78.0973C93.0446 76.6311 93.4505 74.9231 93.6951 74.3173C94.2678 72.8939 93.6145 71.9553 92.636 72.7728C92.2273 73.0972 91.2488 73.2171 89.8616 73.1393C84.6006 72.689 77.0545 74.3632 71.3849 77.2073C63.0216 81.3595 57.9246 86.3165 51.6017 96.2802C45.4428 106.08 43.2814 109.299 41.0367 111.94C39.8135 113.489 38.671 114.704 38.4667 114.704C38.0607 114.704 40.3028 108.61 41.9346 105.353C42.6685 103.887 44.9938 99.4983 47.0343 95.5525C53.0695 84.0823 54.497 79.1969 54.497 70.3697C54.497 62.3173 53.3142 57.5211 49.6446 50.8518C48.6231 48.9405 47.7682 47.1081 47.7279 46.7838C47.7279 45.9126 46.0127 45.7167 45.8084 46.5691ZM48.5424 52.3439C51.7657 59.1338 52.2146 61.2475 52.2146 70.1551C52.2146 78.6579 51.8866 80.406 49.1553 86.6679C47.2789 90.9407 41.8136 101.191 41.8136 100.416C41.8136 100.296 42.5475 98.1813 43.4024 95.6991C46.0557 88.2953 47.8085 79.7583 46.7466 79.1444C46.3004 78.863 45.8084 79.512 45.6471 80.6941C44.9939 85.5674 43.4857 90.5371 38.7543 103.709C36.9182 108.878 36.144 111.605 36.2649 112.374C36.7139 114.653 34.7138 119.938 33.7782 119.002C33.2056 118.437 33.6143 112.579 34.2245 112.091C34.6734 111.724 34.8374 108.999 35.0417 98.4268C35.2057 89.7203 35.4907 83.9468 35.8563 81.5423C36.6332 77.0282 36.6332 77.2754 35.9396 77.2754C35.4074 77.2754 35.0417 78.3333 34.0229 82.5632C33.8186 83.5792 33.4906 87.8532 33.3696 92.118L33.0847 99.8456L32.1868 93.5421C30.8803 84.6372 30.5953 80.1564 31.1652 75.8461C32.0228 69.5011 35.4074 60.9655 38.9156 56.3281C40.2221 54.6206 46.2574 48.3963 46.5853 48.3963C46.666 48.399 47.5639 50.1431 48.5424 52.3439ZM1.7982 60.6422C6.44896 62.9984 10.5271 66.4974 14.6456 71.6629C19.092 77.1929 21.4174 82.8466 23.6622 93.5421C24.2321 96.3486 24.8047 99.0706 24.9257 99.6362C25.3343 101.553 24.7214 100.255 22.8853 95.296C20.3582 88.5007 16.1968 80.935 15.0139 80.935C14.3203 80.935 14.3606 81.7863 15.0542 82.7674C17.2156 85.9412 20.1943 92.8095 25.3343 106.641C26.9661 111.113 27.9043 113.065 28.3102 113.065C29.0038 113.108 31.2082 117.575 31.2082 118.835C31.2082 119.609 30.5147 119.774 29.7808 119.243C28.7995 118.552 26.3532 114.646 26.5575 114.118C26.7215 113.75 24.3558 110.579 20.3179 105.657C11.6696 95.1652 8.08076 90.3273 6.6936 87.3171C6.40864 86.7032 6.04034 86.2176 5.87635 86.2176C5.06179 86.2176 5.14246 87.1948 6.04035 88.9505C8.40606 93.4995 9.7529 95.5357 13.4224 100.05C14.9736 101.961 16.522 103.872 16.8903 104.322C18.0732 105.783 13.1375 101.514 8.44637 97.0027C1.83852 90.6927 -0.607826 87.0774 -3.17784 79.8774C-5.4629 73.5325 -6.07315 69.7868 -5.74786 64.0557C-5.6242 61.3751 -5.37957 58.7715 -5.25859 58.281C-5.01396 57.4688 -4.93061 57.4727 -3.62679 58.0035C-2.85256 58.3251 -0.403519 59.5002 1.7982 60.6422ZM91.9827 74.6733C91.9827 75.322 89.8616 82.7248 89.168 84.4323C88.0658 87.2389 86.926 89.1562 83.7834 93.3379C79.5843 98.9912 74.9335 102.897 69.1805 105.626C65.8363 107.17 54.4567 111.806 54.4567 111.605C54.4567 111.521 56.6181 110.18 59.2687 108.631C61.9221 107.087 65.1024 105.011 66.3255 104.076C68.9359 102.044 72.4038 98.7934 72.4038 98.343C72.4038 97.815 70.8553 97.9762 70.487 98.5472C69.4278 100.338 58.9838 107.05 44.9939 115.06C43.5664 115.872 42.6282 116.646 42.6282 117.091C42.6282 117.823 38.55 120.793 37.5284 120.793C36.3886 120.793 36.9182 119.409 38.835 117.458C39.8942 116.399 41.077 115.505 41.4453 115.505C41.8136 115.505 45.1175 111.973 48.8274 107.657C55.8438 99.5214 61.2688 93.8319 64.0432 91.6311C65.226 90.6929 65.5513 90.2068 65.226 89.8825C64.9383 89.601 64.0028 90.0461 61.9624 91.5526C58.2096 94.3591 56.7014 95.8194 52.5399 100.741C50.6232 103.06 48.951 104.935 48.8677 104.935C48.6661 104.935 49.1957 103.992 52.5399 98.6205C60.4946 85.8502 68.1213 79.4722 79.5412 76.0974C83.2135 75.001 91.9827 74.0166 91.9827 74.6733ZM-16.6785 95.3326C-7.66463 96.9195 -2.80954 99.3207 6.93824 107.086C11.7906 110.992 12.7289 111.845 10.8121 110.746C10.0379 110.301 8.04045 109.164 6.40865 108.186C1.67724 105.5 -5.66721 102.49 -7.62429 102.49C-9.17276 102.49 -8.27756 103.63 -6.19681 104.322C-2.64825 105.464 2.36812 107.945 12.3632 113.521C17.8286 116.609 22.1513 118.766 22.56 118.683C23.5788 118.402 28.5146 120.881 28.6785 121.693C28.7995 122.264 28.5549 122.421 27.6597 122.421C25.7402 122.378 22.56 121.367 22.1917 120.678C21.99 120.31 21.1325 119.899 20.2749 119.735C5.02148 117.049 -2.27995 115.506 -7.66462 113.798C-9.82601 113.107 -11.7428 112.656 -11.9068 112.819C-13.0493 113.961 -4.97363 116.813 4.89781 118.767L8.97596 119.542L1.55358 119.369C-11.5815 119.002 -16.7618 117.541 -25.8967 111.641C-30.6684 108.51 -32.7492 106.359 -37.1956 99.9713C-38.4188 98.2235 -38.8274 97.2069 -38.3382 97.2069C-38.2575 97.2069 -37.115 96.9197 -35.8085 96.5525C-30.6684 95.1291 -28.792 94.844 -24.4692 94.8038C-21.9825 94.7609 -18.5146 95.0083 -16.6785 95.3326ZM90.3509 114.165C95.2866 115.138 99.6094 116.725 102.792 118.72C106.79 121.242 109.93 123.394 109.93 123.641C109.93 123.882 106.79 126.04 102.792 128.562C95.042 133.406 82.2752 135.274 72.8124 132.955C68.5703 131.939 57.1503 128.154 58.1289 128.154C58.4542 128.111 60.8602 128.484 63.4302 128.929C68.6106 129.867 78.6864 130.149 79.4606 129.374C80.0735 128.765 79.5412 128.682 72.6081 128.154C69.2638 127.913 61.7581 126.89 55.9648 125.96C48.0128 124.615 45.2788 124.289 44.9536 124.657C44.3003 125.305 39.1199 124.943 38.5097 124.212C38.1414 123.761 38.1414 123.521 38.5097 123.07C39.1199 122.344 44.3003 121.971 44.9536 122.625C45.2788 122.987 48.0128 122.673 55.9648 121.327C61.7581 120.389 69.2638 119.372 72.6081 119.133C79.5412 118.605 80.0735 118.519 79.4606 117.913C78.6864 117.139 68.6106 117.426 63.4302 118.358C60.8602 118.809 58.4542 119.171 58.1289 119.133C57.352 119.133 67.5917 115.669 71.5892 114.61C77.6245 113.02 83.907 112.862 90.3509 114.165ZM34.9181 122.259C35.695 122.95 35.652 124.254 34.8375 125.023C33.2057 126.573 31.0846 125.799 31.0846 123.641C31.0846 121.483 33.1653 120.712 34.9181 122.259ZM28.6785 125.552C28.5146 126.404 23.5788 128.886 22.56 128.604C22.1513 128.521 17.8286 130.676 12.3632 133.766C2.36812 139.342 -2.64825 141.818 -6.19681 142.96C-8.27756 143.652 -9.17276 144.798 -7.62429 144.798C-5.66721 144.798 1.67724 141.787 6.40865 139.101C8.04045 138.128 10.0379 136.986 10.8121 136.541C12.7289 135.442 11.7906 136.295 6.93824 140.201C-2.80954 147.964 -7.66463 150.368 -16.6785 151.955C-22.9207 153.054 -28.7113 152.681 -35.8085 150.735C-37.115 150.367 -38.2575 150.08 -38.3382 150.08C-39.0721 150.08 -37.9699 148.213 -34.1767 143.128C-30.5878 138.284 -23.1224 133.08 -16.1489 130.557C-11.4175 128.815 -6.93071 128.157 1.55358 127.918L8.97596 127.756L4.89781 128.526C-2.80955 130.07 -10.1943 132.349 -11.5815 133.651C-12.8047 134.75 -11.5385 134.706 -7.66462 133.484C-2.27995 131.776 5.02148 130.227 20.2749 127.547C21.1325 127.383 21.99 126.977 22.1917 126.61C22.6003 125.878 25.294 124.983 27.4554 124.903C28.5549 124.86 28.7995 125.024 28.6785 125.552ZM40.3861 127.992C41.6496 128.844 42.6282 129.826 42.6282 130.191C42.6282 130.636 43.5664 131.41 44.9939 132.222C58.9838 140.237 69.4278 146.944 70.487 148.735C70.8553 149.306 72.4038 149.467 72.4038 148.939C72.4038 148.494 68.9359 145.233 66.3255 143.196C65.1024 142.263 61.9221 140.195 59.2687 138.651C56.6181 137.102 54.4567 135.761 54.4567 135.677C54.4567 135.474 65.8363 140.112 69.1805 141.662C74.9335 144.385 79.5843 148.291 83.7834 153.944C86.926 158.134 88.0658 160.038 89.168 162.844C90.2299 165.404 92.1064 172.488 91.8187 172.734C91.2891 173.3 81.7456 171.915 78.4417 170.776C67.2234 167.08 60.3306 161.18 52.5399 148.651C49.1957 143.284 48.6661 142.353 48.8677 142.353C48.951 142.353 50.6232 144.221 52.5399 146.499C56.7014 151.458 58.2096 152.928 61.9624 155.729C64.0028 157.239 64.9383 157.684 65.226 157.4C65.5513 157.075 65.226 156.581 64.0432 155.651C61.2688 153.453 55.8438 147.762 48.8274 139.583C45.1578 135.316 41.8136 131.777 41.4856 131.777C40.5877 131.777 36.9182 128.112 36.9182 127.217C36.9182 126.123 37.8967 126.327 40.3861 127.992ZM31.2082 128.4C31.2082 129.703 29.0038 134.174 28.3102 134.217C27.9043 134.217 26.9661 136.165 25.3343 140.599C20.1943 154.468 17.2156 161.341 15.0542 164.515C14.3606 165.493 14.3203 166.352 15.0139 166.352C16.1968 166.352 20.3582 158.786 22.8853 151.996C24.7214 147.032 25.3343 145.729 24.9257 147.641C24.8047 148.211 24.2321 150.939 23.6622 153.745C21.4174 164.441 19.092 170.092 14.6456 175.624C10.0378 181.358 6.44897 184.33 0.411041 187.294C-5.82851 190.431 -5.37957 190.711 -5.74786 183.315C-6.07315 177.456 -5.4629 173.757 -3.17784 167.41C-0.607826 160.21 1.83852 156.589 8.44637 150.284C13.1375 145.77 18.0732 141.499 16.8903 142.965C16.522 143.41 14.9736 145.321 13.4224 147.237C9.7529 151.751 8.40606 153.78 6.04035 158.337C5.14246 160.09 5.06179 161.064 5.87635 161.064C6.04034 161.064 6.40864 160.581 6.6936 159.97C8.08076 156.965 11.6696 152.117 20.3179 141.62C24.3558 136.704 26.7215 133.534 26.5575 133.17C26.3532 132.642 28.7995 128.736 29.7808 128.044C30.5147 127.508 31.2082 127.666 31.2082 128.4ZM34.8375 128.683C35.5714 129.535 36.5096 133.648 36.2649 134.908C36.144 135.677 36.9182 138.407 38.7543 143.573C43.4857 156.75 44.9939 161.709 45.6471 166.593C45.8084 167.77 46.3004 168.422 46.7466 168.138C47.8085 167.524 46.0557 158.981 43.4024 151.578C42.5475 149.095 41.8136 146.981 41.8136 146.86C41.8136 146.086 47.2789 156.336 49.1553 160.604C51.8866 166.871 52.2146 168.619 52.2146 177.116C52.2146 186.027 51.7657 188.142 48.5424 194.975L46.666 198.959L44.5449 196.969C41.241 193.916 38.6306 190.786 36.9182 187.896C35.0014 184.602 32.676 178.827 31.7782 175.085C30.719 170.734 30.7996 163.127 32.0228 154.546L33.0417 147.426L33.2863 154.96C33.5309 161.589 33.9799 165.126 35.1224 169.069C35.2461 169.598 35.652 170.007 35.9396 170.007C36.6332 170.007 36.6332 170.254 35.8563 165.734C35.4907 163.335 35.2057 157.562 35.0417 148.855C34.8374 139.138 34.6735 135.519 34.3079 135.232C33.6949 134.782 33.1653 130.353 33.5309 129.007C33.7783 127.991 34.1842 127.871 34.8375 128.683Z" fill="#E3B450" fill-opacity="0.45"/>
</svg>
