<svg width="26" height="26" viewBox="0 0 26 26" fill="none" xmlns="http://www.w3.org/2000/svg">
<path d="M0.4 12.8038C0.505058 12.8826 0.624606 12.9399 0.751819 12.9725C0.879032 13.0051 1.01142 13.0123 1.14142 12.9937C1.27142 12.9751 1.39649 12.9311 1.50949 12.8642C1.62249 12.7973 1.72121 12.7088 1.8 12.6038C2.40546 11.7965 3.19055 11.1413 4.09311 10.69C4.99567 10.2387 5.99091 10.0038 7 10.0038C8.00909 10.0038 9.00433 10.2387 9.90689 10.69C10.8094 11.1413 11.5945 11.7965 12.2 12.6038C12.3593 12.8157 12.5963 12.9558 12.8588 12.993C13.1214 13.0303 13.388 12.9618 13.6 12.8025C13.6756 12.7463 13.7425 12.6793 13.7987 12.6038C14.4042 11.7965 15.1893 11.1413 16.0919 10.69C16.9944 10.2387 17.9897 10.0038 18.9988 10.0038C20.0078 10.0038 21.0031 10.2387 21.9056 10.69C22.8082 11.1413 23.5933 11.7965 24.1987 12.6038C24.358 12.8159 24.5951 12.9561 24.8578 12.9935C25.1204 13.0309 25.3872 12.9624 25.5994 12.8031C25.8115 12.6438 25.9518 12.4068 25.9891 12.1441C26.0265 11.8815 25.958 11.6147 25.7987 11.4025C24.9136 10.2158 23.7332 9.28155 22.375 8.69252C23.1196 8.01269 23.6413 7.12363 23.8716 6.14201C24.1019 5.1604 24.03 4.13209 23.6654 3.19204C23.3009 2.252 22.6606 1.44414 21.8287 0.874483C20.9967 0.304829 20.012 0 19.0037 0C17.9955 0 17.0108 0.304829 16.1788 0.874483C15.3469 1.44414 14.7066 2.252 14.3421 3.19204C13.9775 4.13209 13.9056 5.1604 14.1359 6.14201C14.3662 7.12363 14.8879 8.01269 15.6325 8.69252C14.6518 9.11658 13.7609 9.72366 13.0075 10.4813C12.2541 9.72366 11.3632 9.11658 10.3825 8.69252C11.1271 8.01269 11.6488 7.12363 11.8791 6.14201C12.1094 5.1604 12.0375 4.13209 11.6729 3.19204C11.3084 2.252 10.6681 1.44414 9.83616 0.874483C9.00423 0.304829 8.01952 0 7.01125 0C6.00298 0 5.01827 0.304829 4.18634 0.874483C3.35442 1.44414 2.71415 2.252 2.34957 3.19204C1.98499 4.13209 1.91313 5.1604 2.14342 6.14201C2.37371 7.12363 2.89539 8.01269 3.64 8.69252C2.27581 9.27963 1.08963 10.2145 0.2 11.4038C0.121207 11.5088 0.0638779 11.6284 0.0312863 11.7556C-0.00130532 11.8828 -0.00852115 12.0152 0.0100506 12.1452C0.0286223 12.2752 0.072618 12.4003 0.139526 12.5133C0.206433 12.6263 0.294943 12.725 0.4 12.8038ZM19 2.00377C19.5933 2.00377 20.1734 2.17971 20.6667 2.50936C21.1601 2.839 21.5446 3.30754 21.7716 3.85572C21.9987 4.40389 22.0581 5.00709 21.9424 5.58904C21.8266 6.17098 21.5409 6.70553 21.1213 7.12509C20.7018 7.54464 20.1672 7.83037 19.5853 7.94612C19.0033 8.06188 18.4001 8.00247 17.8519 7.7754C17.3038 7.54834 16.8352 7.16382 16.5056 6.67048C16.1759 6.17713 16 5.59711 16 5.00377C16 4.20812 16.3161 3.44505 16.8787 2.88245C17.4413 2.31984 18.2044 2.00377 19 2.00377ZM7 2.00377C7.59334 2.00377 8.17336 2.17971 8.66671 2.50936C9.16006 2.839 9.54458 3.30754 9.77164 3.85572C9.9987 4.40389 10.0581 5.00709 9.94236 5.58904C9.8266 6.17098 9.54088 6.70553 9.12132 7.12509C8.70176 7.54464 8.16721 7.83037 7.58527 7.94612C7.00333 8.06188 6.40013 8.00247 5.85195 7.7754C5.30377 7.54834 4.83524 7.16382 4.50559 6.67048C4.17595 6.17713 4 5.59711 4 5.00377C4 4.20812 4.31607 3.44505 4.87868 2.88245C5.44129 2.31984 6.20435 2.00377 7 2.00377ZM22.375 21.6925C23.1196 21.0127 23.6413 20.1236 23.8716 19.142C24.1019 18.1604 24.03 17.1321 23.6654 16.192C23.3009 15.252 22.6606 14.4441 21.8287 13.8745C20.9967 13.3048 20.012 13 19.0037 13C17.9955 13 17.0108 13.3048 16.1788 13.8745C15.3469 14.4441 14.7066 15.252 14.3421 16.192C13.9775 17.1321 13.9056 18.1604 14.1359 19.142C14.3662 20.1236 14.8879 21.0127 15.6325 21.6925C14.6518 22.1166 13.7609 22.7237 13.0075 23.4813C12.2541 22.7237 11.3632 22.1166 10.3825 21.6925C11.1271 21.0127 11.6488 20.1236 11.8791 19.142C12.1094 18.1604 12.0375 17.1321 11.6729 16.192C11.3084 15.252 10.6681 14.4441 9.83616 13.8745C9.00423 13.3048 8.01952 13 7.01125 13C6.00298 13 5.01827 13.3048 4.18634 13.8745C3.35442 14.4441 2.71415 15.252 2.34957 16.192C1.98499 17.1321 1.91313 18.1604 2.14342 19.142C2.37371 20.1236 2.89539 21.0127 3.64 21.6925C2.27581 22.2796 1.08963 23.2145 0.2 24.4038C0.121207 24.5088 0.0638779 24.6284 0.0312863 24.7556C-0.00130532 24.8828 -0.00852115 25.0152 0.0100506 25.1452C0.0286223 25.2752 0.072618 25.4003 0.139526 25.5133C0.206433 25.6263 0.294943 25.725 0.4 25.8038C0.505058 25.8826 0.624606 25.9399 0.751819 25.9725C0.879032 26.0051 1.01142 26.0123 1.14142 25.9937C1.27142 25.9751 1.39649 25.9311 1.50949 25.8642C1.62249 25.7973 1.72121 25.7088 1.8 25.6038C2.40546 24.7965 3.19055 24.1413 4.09311 23.69C4.99567 23.2387 5.99091 23.0038 7 23.0038C8.00909 23.0038 9.00433 23.2387 9.90689 23.69C10.8094 24.1413 11.5945 24.7965 12.2 25.6038C12.3593 25.8157 12.5963 25.9558 12.8588 25.993C13.1214 26.0303 13.388 25.9618 13.6 25.8025C13.6756 25.7463 13.7425 25.6793 13.7987 25.6038C14.4042 24.7965 15.1893 24.1413 16.0919 23.69C16.9944 23.2387 17.9897 23.0038 18.9988 23.0038C20.0078 23.0038 21.0031 23.2387 21.9056 23.69C22.8082 24.1413 23.5933 24.7965 24.1987 25.6038C24.358 25.8159 24.5951 25.9561 24.8578 25.9935C25.1204 26.0309 25.3872 25.9624 25.5994 25.8031C25.8115 25.6438 25.9518 25.4068 25.9891 25.1441C26.0265 24.8815 25.958 24.6147 25.7987 24.4025C24.9136 23.2158 23.7332 22.2815 22.375 21.6925ZM7 15.0038C7.59334 15.0038 8.17336 15.1797 8.66671 15.5094C9.16006 15.839 9.54458 16.3075 9.77164 16.8557C9.9987 17.4039 10.0581 18.0071 9.94236 18.589C9.8266 19.171 9.54088 19.7055 9.12132 20.1251C8.70176 20.5446 8.16721 20.8304 7.58527 20.9461C7.00333 21.0619 6.40013 21.0025 5.85195 20.7754C5.30377 20.5483 4.83524 20.1638 4.50559 19.6705C4.17595 19.1771 4 18.5971 4 18.0038C4 17.2081 4.31607 16.4451 4.87868 15.8824C5.44129 15.3198 6.20435 15.0038 7 15.0038ZM19 15.0038C19.5933 15.0038 20.1734 15.1797 20.6667 15.5094C21.1601 15.839 21.5446 16.3075 21.7716 16.8557C21.9987 17.4039 22.0581 18.0071 21.9424 18.589C21.8266 19.171 21.5409 19.7055 21.1213 20.1251C20.7018 20.5446 20.1672 20.8304 19.5853 20.9461C19.0033 21.0619 18.4001 21.0025 17.8519 20.7754C17.3038 20.5483 16.8352 20.1638 16.5056 19.6705C16.1759 19.1771 16 18.5971 16 18.0038C16 17.2081 16.3161 16.4451 16.8787 15.8824C17.4413 15.3198 18.2044 15.0038 19 15.0038Z" fill="#429466"/>
</svg>
