<svg width="32" height="32" viewBox="0 0 32 32" fill="none" xmlns="http://www.w3.org/2000/svg">
<path d="M19.9987 2.6665H7.9987C7.29145 2.6665 6.61318 2.94746 6.11308 3.44755C5.61298 3.94765 5.33203 4.62593 5.33203 5.33317V26.6665C5.33203 27.3737 5.61298 28.052 6.11308 28.5521C6.61318 29.0522 7.29145 29.3332 7.9987 29.3332H23.9987C24.7059 29.3332 25.3842 29.0522 25.8843 28.5521C26.3844 28.052 26.6654 27.3737 26.6654 26.6665V9.33317L19.9987 2.6665Z" stroke="#6E2F2F" stroke-width="2.66667" stroke-linecap="round" stroke-linejoin="round"/>
<path d="M18.668 2.6665V7.99984C18.668 8.70708 18.9489 9.38536 19.449 9.88546C19.9491 10.3856 20.6274 10.6665 21.3346 10.6665H26.668" stroke="#6E2F2F" stroke-width="2.66667" stroke-linecap="round" stroke-linejoin="round"/>
<path d="M13.3346 12H10.668" stroke="#6E2F2F" stroke-width="2.66667" stroke-linecap="round" stroke-linejoin="round"/>
<path d="M21.3346 17.3335H10.668" stroke="#6E2F2F" stroke-width="2.66667" stroke-linecap="round" stroke-linejoin="round"/>
<path d="M21.3346 22.6665H10.668" stroke="#6E2F2F" stroke-width="2.66667" stroke-linecap="round" stroke-linejoin="round"/>
</svg>
