<svg width="32" height="32" viewBox="0 0 32 32" fill="none" xmlns="http://www.w3.org/2000/svg">
<path d="M21.3346 28V25.3333C21.3346 23.9188 20.7727 22.5623 19.7725 21.5621C18.7723 20.5619 17.4158 20 16.0013 20H8.0013C6.58681 20 5.23026 20.5619 4.23007 21.5621C3.22987 22.5623 2.66797 23.9188 2.66797 25.3333V28" stroke="#6E2F2F" stroke-width="2.66667" stroke-linecap="round" stroke-linejoin="round"/>
<path d="M21.332 4.1709C22.4757 4.46739 23.4886 5.13525 24.2116 6.06965C24.9347 7.00405 25.327 8.15208 25.327 9.33357C25.327 10.515 24.9347 11.6631 24.2116 12.5975C23.4886 13.5319 22.4757 14.1997 21.332 14.4962" stroke="#6E2F2F" stroke-width="2.66667" stroke-linecap="round" stroke-linejoin="round"/>
<path d="M29.332 28V25.3333C29.3311 24.1516 28.9378 23.0037 28.2139 22.0698C27.4899 21.1358 26.4762 20.4688 25.332 20.1733" stroke="#6E2F2F" stroke-width="2.66667" stroke-linecap="round" stroke-linejoin="round"/>
<path d="M12.0013 14.6667C14.9468 14.6667 17.3346 12.2789 17.3346 9.33333C17.3346 6.38781 14.9468 4 12.0013 4C9.05578 4 6.66797 6.38781 6.66797 9.33333C6.66797 12.2789 9.05578 14.6667 12.0013 14.6667Z" stroke="#6E2F2F" stroke-width="2.66667" stroke-linecap="round" stroke-linejoin="round"/>
</svg>
