<svg width="32" height="32" viewBox="0 0 32 32" fill="none" xmlns="http://www.w3.org/2000/svg">
<path d="M16.0013 29.3332C23.3651 29.3332 29.3346 23.3636 29.3346 15.9998C29.3346 8.63604 23.3651 2.6665 16.0013 2.6665C8.63751 2.6665 2.66797 8.63604 2.66797 15.9998C2.66797 23.3636 8.63751 29.3332 16.0013 29.3332Z" stroke="#6E2F2F" stroke-width="2.66667" stroke-linecap="round" stroke-linejoin="round"/>
<path d="M12.1191 11.9998C12.4326 11.1087 13.0513 10.3573 13.8657 9.87863C14.6802 9.39999 15.6377 9.22503 16.5687 9.38473C17.4998 9.54443 18.3442 10.0285 18.9526 10.7512C19.5609 11.4738 19.8939 12.3885 19.8925 13.3331C19.8925 15.9998 15.8925 17.3331 15.8925 17.3331" stroke="#6E2F2F" stroke-width="2.66667" stroke-linecap="round" stroke-linejoin="round"/>
<path d="M16 22.6665H16.0133" stroke="#6E2F2F" stroke-width="2.66667" stroke-linecap="round" stroke-linejoin="round"/>
</svg>
