<svg width="186" height="254" viewBox="0 0 186 254" fill="none" xmlns="http://www.w3.org/2000/svg">
<path d="M49.7253 -59.2664C41.3244 -56.8271 36.2246 -51.6173 35.7354 -45.0311L35.5311 -42.2249L33.3697 -42.9997C29.2915 -44.4178 21.0922 -43.6927 16.5651 -41.4919C12.3633 -39.46 8.7744 -34.6981 8.12114 -30.2617C7.63187 -26.9673 7.87651 -26.6803 11.5057 -26.8063C14.1188 -26.8841 14.9736 -26.7233 16.6458 -25.911C19.0518 -24.7343 23.1729 -20.9457 25.743 -17.5709C28.149 -14.3971 31.3293 -7.77463 32.2272 -4.11566C32.9207 -1.18846 33.1654 6.13454 32.5954 7.06738C32.3911 7.39709 31.8185 6.70065 30.9233 5.03601C30.1894 3.65283 29.2915 2.18697 28.9232 1.77953C28.5979 1.41765 28.313 0.847351 28.313 0.52301C28.313 -1.147 26.4366 -6.96515 24.8451 -10.2569C23.4579 -13.1064 22.5197 -14.4464 20.7669 -16.0735C18.3179 -18.2663 14.9736 -20.3818 12.0783 -21.5237C9.91693 -22.3761 5.51082 -23.0273 5.22585 -22.5394C5.10219 -22.3759 4.81721 -22.2921 4.6129 -22.4556C3.83868 -22.9059 -0.322815 -20.4243 -2.56486 -18.1887C-6.35806 -14.4037 -8.72376 -10.3359 -9.62165 -6.18369C-10.1512 -3.82745 -10.1109 3.53484 -9.54101 5.93127C-9.29637 7.03032 -9.33669 8.04639 -9.62165 8.9417C-9.86629 9.67349 -10.1916 11.4241 -10.3556 12.8421L-10.6835 15.4075L-11.5787 13.9835C-12.068 13.2088 -13.0062 11.0152 -13.5788 9.10399C-14.5574 6.0106 -14.6783 5.07806 -14.638 0.156525C-14.638 -4.32004 -14.4337 -6.06317 -13.5788 -9.19409C-11.2131 -18.2249 -7.5409 -23.3148 -2.60518 -24.4085C-0.688423 -24.8159 -0.443787 -25.0174 -0.322815 -25.9529C0.0858078 -29.3653 -5.13487 -34.4079 -10.5195 -35.8742C-15.8612 -37.2574 -24.0605 -35.5923 -28.9156 -32.0942C-30.0151 -31.3195 -30.9533 -30.7493 -30.9963 -30.8324C-31.077 -30.9102 -31.362 -31.6022 -31.6469 -32.3769C-33.1174 -36.1565 -36.666 -39.4553 -40.8248 -40.7956C-43.0695 -41.5274 -51.1048 -41.9372 -53.0619 -41.3663C-53.9195 -41.1625 -54.8147 -40.2723 -56.1212 -38.3611C-59.1805 -33.8845 -60.8526 -28.5135 -60.4037 -24.8116C-60.1187 -22.4125 -58.2826 -18.3043 -56.9788 -17.1678C-55.9599 -16.2296 -55.8766 -15.7018 -56.7745 -15.7018C-58.1213 -15.7018 -62.2398 -13.142 -64.6055 -10.7805C-67.4202 -8.01678 -69.7052 -4.7594 -70.6838 -2.19946C-71.622 0.282761 -71.622 5.48514 -70.6434 8.21396C-69.8692 10.4496 -67.8691 13.1772 -66.9712 13.1772C-66.6863 13.1772 -65.7077 12.3597 -64.7695 11.3867C-62.4844 8.98756 -60.0381 8.17375 -55.3067 8.21396C-47.5186 8.2917 -37.6042 12.0367 -32.2195 16.9154C-29.9345 19.0303 -26.7542 22.9347 -26.7542 23.6692C-26.7542 24.4814 -33.8513 21.5977 -36.2573 19.8472C-44.169 14.0304 -50.3709 12.4442 -58.2826 14.2348C-67.0519 16.2238 -70.3155 20.7788 -69.8665 30.6219C-69.5815 38.1088 -67.8261 41.7671 -61.5462 48.0719C-59.6698 49.9054 -57.7934 52.1825 -57.3041 53.1555C-56.8148 54.0937 -56.0406 55.3898 -55.632 56.0036C-54.5297 57.5477 -54.9384 57.7889 -57.0191 56.8989C-61.9145 54.741 -66.2776 50.8346 -69.8665 45.4279C-75.9851 36.1129 -77.6976 26.108 -73.864 22.1247C-72.2322 20.4547 -72.6005 19.2764 -75.0872 18.0567C-76.84 17.2043 -77.6572 17.041 -80.8375 17.041C-84.222 17.0786 -84.835 17.2035 -87.2813 18.4232C-92.7467 21.1091 -98.376 28.3879 -99.1905 33.7946C-99.3142 34.773 -99.5588 35.5433 -99.6395 35.5433C-99.7631 35.5433 -100.497 35.1359 -101.312 34.648C-104.411 32.7368 -109.307 32.4131 -113.14 33.8365C-116.689 35.1768 -122.522 39.6538 -123.786 41.9725C-124.399 43.1493 -123.622 49.2504 -122.399 52.4644C-120.237 58.1607 -116.444 61.5722 -111.1 62.5533L-109.592 62.8307L-110.734 65.1501C-112.242 68.1175 -112.979 72.719 -112.731 77.4797C-112.527 80.6535 -112.283 81.5391 -111.019 84.1392C-109.266 87.7205 -106.368 90.4535 -103.107 91.6731C-99.4352 93.0563 -98.5399 92.6416 -98.5399 89.6313C-98.4996 87.0713 -97.2765 84.6362 -94.7468 82.1969C-89.1175 76.7473 -79.0014 72.841 -70.6004 72.841C-64.7265 72.8839 -59.0165 74.5054 -62.3204 75.197C-63.0543 75.3659 -64.6055 75.9342 -65.705 76.4221C-67.1325 77.0306 -69.0089 77.3947 -71.6596 77.5582C-76.3507 77.8826 -81.1224 79.0675 -83.9774 80.5686C-86.5474 81.9089 -91.4832 86.7516 -93.0746 89.4376C-96.1339 94.6835 -96.1742 98.2597 -93.1956 103.385C-91.5638 106.269 -86.6281 111.113 -83.9774 112.537C-81.1224 114.04 -76.3507 115.217 -71.6596 115.547C-69.0089 115.711 -67.1325 116.075 -65.705 116.688C-64.6028 117.176 -63.0543 117.742 -62.3204 117.903C-59.0165 118.6 -64.7265 120.221 -70.6004 120.264C-79.0041 120.264 -89.1175 116.358 -94.7468 110.908C-97.2765 108.469 -98.4996 106.03 -98.5399 103.427C-98.5399 100.459 -99.4379 100.049 -103.107 101.432C-106.371 102.652 -109.266 105.38 -111.019 108.956C-112.283 111.564 -112.527 112.46 -112.731 115.626C-112.976 120.384 -112.242 124.98 -110.734 127.95L-109.592 130.269L-111.1 130.557C-116.444 131.53 -120.237 134.945 -122.399 140.641C-123.622 143.855 -124.396 149.956 -123.786 151.133C-122.522 153.451 -116.689 157.928 -113.14 159.269C-109.307 160.692 -104.411 160.368 -101.312 158.457C-100.497 157.964 -99.7604 157.562 -99.6395 157.562C-99.5588 157.562 -99.3142 158.332 -99.1905 159.311C-98.376 164.72 -92.7467 172.001 -87.2813 174.682C-84.835 175.902 -84.222 176.027 -80.8375 176.064C-77.6545 176.064 -76.84 175.901 -75.0872 175.049C-72.5978 173.829 -72.2322 172.651 -73.864 170.981C-79.6546 164.965 -72.2322 145.927 -61.2183 138.609C-58.4439 136.776 -55.425 135.352 -55.0593 135.719C-54.9384 135.84 -55.183 136.45 -55.6293 137.102C-56.0379 137.715 -56.8121 139.012 -57.3014 139.95C-57.7907 140.928 -59.6671 143.203 -61.5435 145.033C-67.8261 151.338 -69.5789 154.996 -69.8638 162.483C-70.3128 172.326 -67.0492 176.876 -58.2799 178.87C-50.3683 180.661 -44.1663 179.075 -36.2547 173.258C-33.8486 171.51 -26.7515 168.624 -26.7515 169.436C-26.7515 170.168 -29.9318 174.07 -32.2168 176.185C-37.6015 181.069 -47.5133 184.814 -55.304 184.891C-60.0354 184.934 -62.4818 184.118 -64.7668 181.719C-65.705 180.746 -66.6836 179.928 -66.9685 179.928C-67.8664 179.928 -69.8638 182.656 -70.6407 184.891C-71.6193 187.62 -71.6193 192.822 -70.6811 195.305C-69.7025 197.865 -67.4175 201.122 -64.6028 203.886C-62.2371 206.242 -58.1186 208.807 -56.7718 208.807C-55.8739 208.807 -55.9572 209.335 -56.9761 210.268C-58.2799 211.41 -60.116 215.512 -60.401 217.917C-60.8499 221.619 -59.1778 226.985 -56.1185 231.461C-54.812 233.372 -53.9168 234.268 -53.0592 234.471C-51.1022 235.037 -43.0668 234.635 -40.8221 233.901C-36.6633 232.561 -33.1147 229.267 -31.6442 225.482C-31.3593 224.707 -31.0743 224.021 -30.9937 223.938C-30.9506 223.855 -30.0124 224.425 -28.9129 225.199C-26.4236 226.985 -23.3239 228.248 -19.4904 228.979C-15.6972 229.711 -13.2482 229.711 -10.5169 228.979C-5.13219 227.513 0.0884933 222.471 -0.320129 219.053C-0.441101 218.12 -0.68573 217.916 -2.60249 217.508C-7.53822 216.409 -11.2104 211.33 -13.5761 202.299C-14.431 199.168 -14.6353 197.42 -14.6353 192.943C-14.6757 188.022 -14.5547 187.089 -13.5761 183.996C-13.0035 182.085 -12.0653 179.891 -11.576 179.122L-10.6808 177.698L-10.3529 180.263C-10.1889 181.681 -9.8636 183.432 -9.61897 184.164C-9.33401 185.059 -9.29369 186.075 -9.53832 187.174C-10.1082 189.573 -10.1486 196.93 -9.61897 199.289C-8.72107 203.436 -6.35536 207.506 -2.56217 211.294C-0.320129 213.53 3.84136 216.011 4.6156 215.566C4.8199 215.397 5.10487 215.484 5.22853 215.645C5.5135 216.132 9.91962 215.481 12.081 214.629C14.9763 213.487 18.3206 211.371 20.7696 209.179C22.5224 207.552 23.4606 206.212 24.8478 203.362C26.4392 200.068 28.3157 194.252 28.3157 192.582C28.3157 192.258 28.6006 191.688 28.9259 191.326C29.2942 190.918 30.1921 189.452 30.926 188.069C31.8212 186.405 32.3938 185.708 32.5981 186.027C33.1681 186.966 32.9234 194.288 32.2298 197.221C31.3319 200.88 28.1517 207.505 25.7457 210.676C23.1757 214.054 19.0545 217.834 16.6485 219.016C14.9763 219.829 14.1214 219.989 11.5084 219.912C7.8792 219.791 7.63455 220.075 8.12383 223.367C8.77708 227.801 12.366 232.56 16.5678 234.592C21.0949 236.79 29.2942 237.523 33.3724 236.105L35.5338 235.33L35.7381 238.136C36.023 241.718 37.4505 244.722 40.1442 247.204C42.5502 249.445 47.5666 251.963 51.1152 252.738L53.6449 253.262L56.5402 251.309C61.5162 247.891 65.0244 242.85 65.6374 238.215C65.882 236.341 65.3498 233.166 64.4546 230.77C64.2502 230.282 64.6992 230.162 67.0246 230.079C68.9816 230.036 70.6134 229.711 72.6109 228.896C78.6488 226.539 82.9312 222.921 84.8883 218.728C86.6035 214.949 86.6438 208.807 84.9716 207.137C84.1947 206.368 84.1544 206.369 82.0333 207.425C76.2427 210.392 66.7799 206.651 58.4166 198.111C54.0535 193.677 51.2388 188.634 50.5049 183.954L50.2173 182.169L52.5427 184.284C53.8492 185.461 55.0724 186.436 55.2767 186.436C55.481 186.436 56.3359 187.495 57.1531 188.755C60.6183 194.248 64.6992 198.356 68.4521 200.184C73.9577 202.827 81.8693 203.483 85.9502 201.572C90.9262 199.21 95.4533 189.039 94.5958 181.965C94.2705 179.158 92.679 174.561 90.7623 170.577C89.9047 168.907 89.2138 166.792 89.1304 165.897C89.0901 165.002 88.8455 163.578 88.6412 162.682C88.3966 161.83 88.3159 161.018 88.4772 160.892C88.6009 160.771 89.4584 161.389 90.3536 162.284C96.1872 167.855 99.2868 176.435 99.2868 186.849C99.2868 194.253 97.6954 198.363 93.9855 200.556C91.7811 201.853 91.8242 202.955 94.1065 205.027C97.2061 207.876 102.386 209.253 106.793 208.441C111.809 207.502 118.661 203.075 121.315 199.006L122.823 196.687L124.699 198.64C127.35 201.403 129.756 202.463 133.713 202.624C135.466 202.745 138.036 202.586 139.423 202.299C142.483 201.691 147.623 199.41 148.152 198.357C149.908 195.143 150.518 187.127 149.335 183.101C148.48 180.294 146.031 177.084 143.544 175.666C142.523 175.052 141.708 174.483 141.708 174.363C141.708 174.242 142.606 173.346 143.706 172.368C146.031 170.296 149.09 164.562 149.865 160.777C151.171 154.839 149.499 148.988 145.461 145.321C142.647 142.761 141.504 142.719 140.525 145.285C138.364 150.772 131.307 153.657 120.293 153.614C112.586 153.571 108.056 152.352 102.47 148.813C99.4105 146.902 99.6148 146.662 104.102 146.662C106.873 146.662 108.709 146.867 110.301 147.389C112.831 148.29 113.726 148.452 118.051 149.018C122.578 149.631 125.923 148.98 130.899 146.457C135.509 144.096 141.504 138.039 139.179 138.039C138.894 138.039 137.547 139.138 136.203 140.478C134.367 142.347 132.735 143.441 129.552 145.028C125.678 146.939 124.984 147.147 121.925 147.311C119.03 147.474 110.709 146.454 110.709 145.923C110.709 145.846 111.973 145.154 113.564 144.384C117.113 142.636 118.989 141.326 123.312 137.667C125.229 136.08 127.065 134.787 127.474 134.787C128.288 134.787 128.942 132.793 128.288 132.343C128.044 132.222 127.474 129.986 127.025 127.421C126.003 121.851 124.82 117.777 123.476 115.092C122.293 112.735 122.334 112.736 126.984 115.379C134.162 119.406 138.079 125.71 138.813 134.374C139.015 136.693 139.219 137.421 139.668 137.421C140.566 137.421 140.485 131.206 139.547 128.316C136.732 119.94 132.694 115.793 123.476 111.767C121.804 111.07 119.64 109.685 118.54 108.709C117.479 107.731 116.175 106.595 115.602 106.228L114.583 105.537H116.54C117.602 105.494 119.804 105.777 121.436 106.144C130.979 108.259 142.074 117.734 144.932 126.154C145.95 129.127 145.991 130.064 145.176 132.343C144.319 134.742 144.399 135.028 145.786 135.599C148.641 136.776 154.884 135.071 158.349 132.138C162.959 128.238 166.344 117.536 164.712 111.966C164.551 111.395 165.04 111.318 168.344 111.359C171.809 111.396 172.341 111.275 174.828 110.055C178.336 108.347 181.476 104.892 183.802 100.254C185.393 97.0401 185.474 96.7926 184.985 95.3746C183.148 90.2065 178.906 85.0419 174.828 83.0502C172.341 81.8306 171.809 81.7037 168.344 81.7466C165.04 81.7895 164.551 81.7049 164.712 81.1393C165.65 78.003 165 73.0434 163.08 68.2076C161.043 63.0823 158.921 60.7217 154.351 58.5638C151.335 57.1806 147.703 56.7369 145.786 57.5062C144.399 58.0772 144.319 58.3582 145.176 60.7627C145.991 63.0412 145.95 63.9759 144.932 66.9406C142.074 75.3657 130.979 84.8357 121.436 86.9507C119.804 87.3233 117.602 87.6035 116.54 87.5633H114.583L115.602 86.8722C116.175 86.5049 117.479 85.369 118.54 84.3905C119.64 83.4175 121.804 82.0297 123.476 81.3435C132.694 77.3119 136.649 73.2854 139.507 64.8255C140.485 61.8983 140.606 55.679 139.668 55.679C139.219 55.679 139.015 56.4101 138.813 58.7261C138.079 67.3897 134.162 73.6943 126.984 77.7205C122.334 80.3636 122.293 80.3648 123.476 78.0032C124.82 75.3226 126.003 71.2543 127.025 65.6841C127.474 63.1188 128.044 60.8833 128.288 60.7627C128.942 60.3124 128.288 58.323 127.474 58.323C127.065 58.323 125.229 57.0199 123.312 55.433C118.989 51.774 117.113 50.4688 113.564 48.7211C111.973 47.9517 110.709 47.2597 110.709 47.1766C110.709 46.6485 119.03 45.6336 121.925 45.7944C124.984 45.9579 125.678 46.1606 129.552 48.0719C132.735 49.6588 134.367 50.7584 136.203 52.6267C137.547 53.967 138.894 55.0665 139.179 55.0665C141.504 55.0665 135.509 49.0094 130.899 46.6478C125.923 44.1254 122.578 43.4738 118.051 44.0876C113.726 44.6586 112.831 44.8101 110.301 45.7054C108.709 46.2335 106.873 46.4384 104.102 46.4384C99.6148 46.4384 99.4105 46.1926 102.47 44.2813C108.056 40.7483 112.586 39.5285 120.293 39.4856C131.307 39.4427 138.364 42.3361 140.525 47.8205C141.504 50.3859 142.647 50.3439 145.461 47.7839C149.499 44.1196 151.171 38.2611 149.865 32.3182C149.09 28.5386 146.031 22.8094 143.706 20.7373C142.606 19.7589 141.708 18.8632 141.708 18.7426C141.708 18.6219 142.523 18.0501 143.544 17.4389C146.031 16.0155 148.48 12.8031 149.335 9.99927C150.518 5.97304 149.908 -2.04311 148.152 -5.25177C147.623 -6.31058 142.483 -8.58548 139.423 -9.19934C138.036 -9.48077 135.466 -9.64456 133.713 -9.52393C129.756 -9.36041 127.35 -8.30338 124.699 -5.5397L122.823 -3.58685L121.315 -5.90619C118.661 -9.97531 111.809 -14.4024 106.793 -15.3406C102.386 -16.1528 97.2061 -14.7686 94.1065 -11.9218C91.8242 -9.8497 91.7811 -8.75342 93.9855 -7.45068C97.6954 -5.25259 99.2868 -1.1452 99.2868 6.25587C99.2868 16.6699 96.1872 25.2506 90.3536 30.8209C89.4584 31.7162 88.6009 32.3237 88.4772 32.203C88.3159 32.0824 88.3966 31.2703 88.6412 30.4125C88.8455 29.5225 89.0901 28.0984 89.1304 27.2031C89.2138 26.3078 89.9047 24.1926 90.7623 22.5226C92.679 18.5392 94.2705 13.9419 94.5958 11.1354C95.4533 4.06133 90.9262 -6.11014 85.9502 -8.46637C81.8693 -10.3776 73.9577 -9.72992 68.4521 -7.0842C64.6992 -5.25067 60.6183 -1.14658 57.1531 4.30304C56.3359 5.6058 55.481 6.66425 55.2767 6.66425C55.0724 6.66425 53.8492 7.63747 52.5427 8.77939L50.2173 10.9312L50.5049 9.14587C51.2388 4.46559 54.0535 -0.577255 58.4166 -5.01093C66.7799 -13.5512 76.2427 -17.2923 82.0333 -14.3249C84.1544 -13.2661 84.1947 -13.2649 84.9716 -14.0369C86.6438 -15.7069 86.6035 -21.8487 84.8883 -25.6283C82.9312 -29.8208 78.6488 -33.4393 72.6109 -35.8009C70.6134 -36.6131 68.9816 -36.9387 67.0246 -36.9789C64.6992 -37.0566 64.2502 -37.1821 64.4546 -37.67C66.7369 -43.5646 65.8417 -48.4483 61.5995 -53.654C59.4355 -56.2568 54.3384 -60.0423 53.0319 -59.9994C52.54 -59.9994 51.0722 -59.6739 49.7253 -59.2664ZM54.0078 -58.0885C54.0078 -57.925 54.5401 -57.475 55.1906 -57.0675C58.0483 -55.4029 62.1264 -50.6457 63.4303 -47.429C64.2072 -45.4748 64.1239 -41.5704 63.2287 -39.005C62.6561 -37.2144 62.2904 -36.8167 61.1076 -36.3664C60.3307 -36.1251 59.7204 -35.674 59.7204 -35.3925C59.7204 -34.7439 62.0458 -34.334 62.9814 -34.8219C64.0836 -35.4357 66.9385 -35.3093 69.6725 -34.6177C75.7911 -33.0308 81.665 -28.4773 83.3372 -24.0839C84.192 -21.7652 84.6007 -17.0903 83.9877 -16.1521C83.8264 -15.8706 83.0092 -16.0307 81.7054 -16.5186C79.216 -17.497 75.7508 -17.5762 72.7318 -16.6808C66.4493 -14.8527 58.7419 -9.36185 54.2551 -3.54498C50.7469 1.00932 48.0935 7.72179 48.3812 11.2977C48.4618 12.4798 48.2172 13.4549 47.5236 14.6746C46.9537 15.653 46.3811 16.4232 46.1768 16.4232C45.7278 16.4232 44.6283 14.1877 44.6283 13.2924C44.6283 11.4589 47.6473 2.14635 49.1554 -0.660217C50.0533 -2.32486 52.3357 -5.53967 54.2551 -7.77527C59.1478 -13.5492 60.9436 -17.5416 60.9436 -22.7017C60.9436 -26.5644 59.7204 -29.6172 57.231 -32.0994C55.5186 -33.7641 54.989 -34.0104 53.5615 -34.0104C52.2147 -34.0104 51.6421 -33.7648 50.5023 -32.6282C48.2172 -30.3497 48.8301 -28.9637 51.2361 -30.9581C52.8249 -32.3037 54.0911 -32.2604 55.7633 -30.7539C58.4139 -28.4754 59.5564 -23.8803 58.6989 -19.1625C58.2096 -16.5597 56.2525 -13.269 52.3356 -8.50824C48.0129 -3.34009 46.0155 0.439697 44.424 6.33965L43.2411 10.6066L42.3432 9.54901C41.405 8.49019 41.405 8.49094 40.1415 9.18253L38.8753 9.9155L39.2033 8.37102C39.3646 7.55881 39.4883 4.38667 39.448 1.37639C39.448 -4.5611 39.284 -5.21579 36.2247 -13.6757C34.9208 -17.2945 34.7165 -18.4274 34.7165 -21.1991C34.7568 -26.1582 36.4693 -29.983 39.8136 -32.3821C40.9561 -33.2346 41.9776 -33.602 43.0368 -33.602C44.545 -33.602 45.1176 -33.1572 46.5047 -30.9162C47.3193 -29.6188 47.9725 -30.7173 47.3999 -32.5026C46.0155 -36.9362 40.7921 -36.8972 36.714 -32.3402C34.0633 -29.456 33.0444 -26.7267 32.8804 -21.9687L32.7164 -17.8641L35.0821 -10.9951L37.4478 -4.12088L37.4075 2.18266C37.3672 10.6855 37.2435 11.7425 35.8161 13.2034C35.2058 13.8575 34.5526 14.3866 34.3886 14.3866C34.2273 14.3866 33.8993 13.4491 33.6547 12.35C33.2891 10.6854 33.3293 10.0708 33.8186 9.14064C34.8375 7.10341 35.2864 2.91701 34.8778 -0.827759C33.6546 -11.6037 25.7027 -23.9262 17.5033 -27.7487C15.9925 -28.4805 14.729 -28.7278 12.6483 -28.7278H9.83359L10.0782 -30.1937C10.6912 -33.9733 13.8714 -37.8801 17.912 -39.7485C23.4982 -42.3513 32.3508 -42.3513 35.6951 -39.7485C37.1225 -38.6494 39.3243 -38.2452 39.3243 -39.0574C39.3243 -39.4247 38.835 -39.9956 38.2651 -40.3977C37.2032 -41.0518 37.2032 -41.1727 37.4075 -44.183C37.7758 -49.512 40.1819 -52.8832 45.5262 -55.6121C49.521 -57.6386 54.0078 -58.9436 54.0078 -58.0885ZM-41.3141 -39.1359C-37.2762 -37.9163 -34.3809 -35.1088 -32.7088 -30.7958C-32.0959 -29.2089 -32.0959 -28.9284 -32.6685 -28.0733C-33.4024 -26.9314 -33.483 -25.7124 -32.7491 -26.0367C-32.5045 -26.1573 -31.9346 -26.403 -31.5259 -26.5236C-31.1577 -26.6871 -30.8324 -26.9297 -30.8324 -27.1362C-30.8324 -27.3426 -30.2194 -28.1947 -29.4452 -29.0471C-26.8752 -31.8537 -21.6545 -33.8481 -15.6999 -34.2931C-12.1514 -34.5397 -9.74531 -33.9252 -6.64301 -31.9738C-4.80959 -30.8372 -2.27989 -27.8737 -2.27989 -26.8953C-2.27989 -26.6541 -3.3391 -26.1248 -4.60529 -25.7173C-13.2509 -22.9939 -19.2888 -5.09531 -15.9849 7.9993C-14.923 12.1462 -13.5385 15.0791 -11.6621 17.0305C-10.8045 17.9259 -10.3959 18.8591 -10.1916 20.3656L-9.94695 22.4807L-11.6621 21.8263C-13.3342 21.1776 -13.5385 20.8936 -15.3719 16.9049C-18.7995 9.58691 -19.4931 6.78136 -19.6974 -1.2309C-19.9017 -10.7067 -20.8803 -13.8439 -24.7541 -17.9478C-27.1198 -20.4703 -29.8941 -21.895 -32.7491 -22.1363C-36.623 -22.4606 -38.5827 -20.843 -38.5827 -17.3824C-38.5827 -14.5759 -37.1956 -14.8646 -36.9913 -17.7489C-36.7869 -21.373 -30.1791 -20.7604 -26.2219 -16.6913C-22.7137 -13.1154 -21.4502 -8.71753 -21.4905 -0.0110168C-21.5308 7.51337 -20.9206 9.74817 -16.2295 19.3446C-16.1488 19.5135 -16.7591 19.5125 -17.536 19.3865C-18.8802 19.1828 -19.0441 19.2646 -19.5334 20.4441L-20.063 21.7059L-22.2244 18.4913C-25.8563 13.0818 -29.7705 9.71185 -37.4402 5.44438C-44.0481 1.78003 -47.8009 -4.68524 -46.6987 -10.5396C-46.0455 -14.078 -44.7013 -15.388 -42.2523 -14.817C-40.0102 -14.2461 -39.6823 -14.2454 -39.521 -14.7332C-39.2763 -15.4651 -41.9673 -16.9322 -43.5991 -16.9322C-47.352 -16.9322 -49.758 -11.6857 -48.6988 -5.78577C-48.1665 -2.85858 -46.2901 0.392654 -43.5588 3.1617C-41.4377 5.31421 -40.0102 6.2919 -34.0126 9.66943C-30.1791 11.8219 -27.3644 14.6736 -22.469 21.3027C-20.227 24.3961 -19.6571 26.3075 -20.5926 27.7738C-21.1652 28.6638 -23.9799 26.0158 -24.5498 24.0671C-27.2435 15.1568 -42.2523 6.2963 -54.8981 6.13547C-59.6295 6.09258 -62.4844 6.90492 -65.1351 9.14587C-67.2159 10.8534 -67.2562 10.8526 -68.603 8.28726C-69.1729 7.22842 -69.3369 5.97263 -69.3772 3.20358C-69.3772 -0.00506592 -69.2133 -0.738464 -68.2347 -2.6497C-65.1754 -8.58719 -58.5676 -14.1205 -54.2851 -14.2411C-52.6936 -14.3242 -50.9812 -15.383 -51.3898 -16.0316C-51.5538 -16.3131 -52.2071 -16.4829 -52.8576 -16.44C-54.4491 -16.3141 -55.8363 -17.6596 -57.425 -20.9112C-59.0568 -24.1681 -59.1375 -26.9316 -57.7933 -31.0785C-56.8148 -34.011 -54.2448 -38.6079 -52.9383 -39.581C-52.0001 -40.3127 -44.2927 -40.0259 -41.3141 -39.1359ZM7.91684 -20.9949C11.0595 -20.2202 12.8929 -19.3677 16.3608 -17.0892C19.99 -14.6901 21.4605 -13.063 23.2133 -9.6077C24.4364 -7.16837 26.3532 -1.83876 26.1086 -1.59213C26.0279 -1.47151 25.0494 -2.04268 23.9472 -2.81201C21.2965 -4.72327 18.3179 -6.14673 13.2612 -8.05798C10.8955 -8.91577 8.69376 -9.84879 8.36578 -10.1731C7.4679 -10.9049 6.20438 -10.8284 6.00006 -10.0108C5.87909 -9.64359 4.4086 -8.18298 2.69615 -6.75958C-1.42233 -3.38205 -5.09454 0.402206 -6.60268 2.76379C-7.25594 3.77974 -7.90921 4.62764 -8.11353 4.62764C-8.68344 4.62764 -8.11351 -5.61316 -7.46025 -7.72815C-6.64301 -10.2935 -3.74771 -14.5651 -1.21802 -17.0473C1.34931 -19.5296 4.69624 -21.8007 5.47047 -21.597C5.79576 -21.5219 6.89798 -21.2362 7.91684 -20.9949ZM111.4 -11.3982C116.782 -8.71231 121.269 -4.07599 121.312 -1.18901C121.352 -0.293686 122.697 1.37639 123.35 1.37639C123.718 1.37639 123.799 0.889069 123.594 -0.209961C123.35 -1.71913 123.474 -1.95732 125.39 -3.91147C126.49 -5.05341 128.366 -6.43301 129.549 -6.96378C133.262 -8.6713 138.891 -8.18256 144.601 -5.66013L146.886 -4.64444L147.58 -1.63402C148.434 2.30911 148.394 7.51704 147.496 9.99927C146.601 12.4815 144.276 15.2013 141.87 16.6274C140.154 17.6005 139.789 17.6857 138.523 17.3185C137.708 17.0719 136.974 16.9518 136.851 17.0724C136.445 17.4799 137.993 19.4753 138.81 19.5959C139.3 19.679 140.644 20.6111 141.87 21.753C145.335 24.9268 148.354 31.7175 148.313 36.3496C148.313 40.9521 146.558 44.655 143.254 47.2551C142.644 47.743 142.439 47.5798 141.542 45.7892C139.259 41.2697 134.24 38.6693 125.595 37.5328C115.315 36.1925 104.709 39.0373 99.0799 44.6531C96.9588 46.768 93.4532 48.9602 92.921 48.475C92.8806 48.3919 93.0043 47.5329 93.2059 46.5169C93.5742 44.7692 93.8189 44.567 97.9804 41.7631C104.954 37.1257 108.096 35.8631 115.194 34.7265C123.678 33.3863 128.856 30.2027 131.59 24.6325C133.302 21.2201 133.506 17.2352 132.079 15.3185C130.815 13.611 129.264 13.0055 127.267 13.4076C124.941 13.9357 124.982 14.9517 127.388 15.0777C130.038 15.1983 130.896 16.2149 130.856 19.1823C130.856 22.1497 129.673 24.7161 127.183 27.4021C124.452 30.2864 121.393 31.6263 114.376 32.8889C106.545 34.3123 103.65 35.4958 97.7357 39.6427C94.6764 41.8408 94.3888 41.9604 94.6361 41.0249C94.9614 39.7623 94.2275 38.7893 92.921 38.7893C92.3914 38.7893 91.9424 38.7074 91.9424 38.627C91.9424 38.5439 93.4533 36.9572 95.327 35.0459C99.4885 30.816 101.65 27.3168 103.935 21.0148C106.096 15.0773 107.279 13.0058 109.849 10.6013C112.624 7.9985 114.745 7.02605 118.21 6.77943C120.78 6.61592 121.269 6.6965 122.535 7.55429C123.839 8.44424 123.963 8.69009 123.963 10.6013C123.963 13.0836 124.248 13.534 125.062 12.2715C126.858 9.50244 126.001 6.65913 123.025 5.31349C120.374 4.17693 116.132 4.50244 112.868 6.04646C107.973 8.44557 104.75 12.8789 101.61 21.5854C99.6525 26.952 98.0207 29.3925 93.0043 34.6009C88.6788 39.0721 88.5175 39.1977 86.8024 39.1977C85.8238 39.1977 85.0093 39.1107 85.0093 39.0249C85.0093 38.9472 85.4583 38.0932 86.0282 37.0773C86.6411 35.9354 87.5793 35.0406 88.4745 34.5957C93.0043 32.4378 97.6927 25.7258 99.8568 18.2818C102.833 7.99377 101.895 -2.4558 97.4911 -6.93234C96.5932 -7.9054 95.4507 -8.88565 95.042 -9.08939C94.0635 -9.61746 94.4318 -10.1835 96.7142 -11.5291C101.489 -14.2848 105.731 -14.2852 111.4 -11.3982ZM10.4465 -7.12607L13.5865 -5.86432L11.9977 -3.50311C11.0998 -2.16281 10.3659 -0.986038 10.3659 -0.822525C10.3659 -0.455276 9.05936 0.522125 8.48944 0.559647C8.24481 0.559647 7.63188 0.197479 7.14261 -0.209961C6.65334 -0.660309 5.34683 -1.5923 4.24731 -2.36699L2.24721 -3.70728L4.57259 -6.02661C5.83609 -7.32938 6.97862 -8.34494 7.10228 -8.38782C7.22325 -8.38782 8.73409 -7.81497 10.4465 -7.12607ZM83.9877 -7.7334C85.9072 -7.49213 86.1518 -7.33209 87.7836 -5.13135C92.8 1.70145 94.0635 9.87373 91.2489 17.24C90.5956 18.9046 89.8617 20.6534 89.617 21.1038C89.1681 21.8302 89.1278 21.8293 88.8831 20.6954C87.9852 16.7067 85.9072 11.9893 82.8049 6.82655C81.9903 5.52379 81.3371 4.06229 81.3371 3.61195C81.3371 2.59601 79.8289 1.58128 79.1757 2.10936C78.8907 2.30772 75.5868 2.59605 71.7533 2.71667C65.511 2.92041 63.554 3.20903 59.7608 4.4287C58.8226 4.71552 58.8629 4.63116 60.1694 2.80568C62.5351 -0.491425 66.4896 -4.18735 68.9386 -5.37216C73.3421 -7.52734 78.7267 -8.34723 83.9877 -7.7334ZM17.912 -4.11566L20.1943 -3.14185L17.8689 0.235046C16.5651 2.10878 15.4629 3.69652 15.3823 3.77425C15.3016 3.89488 14.1591 3.44914 12.8122 2.80045C10.2019 1.5379 9.99759 0.965881 11.5057 -0.618332C11.9143 -1.02579 12.8929 -2.20444 13.7505 -3.22037C14.608 -4.27921 15.3822 -5.13135 15.4629 -5.13135C15.5866 -5.12866 16.6861 -4.68393 17.912 -4.11566ZM6.16406 0.318817C8.0405 1.25702 8.00017 1.94724 5.83609 4.06221L3.83869 6.00981L2.9408 5.15642C2.4112 4.71146 0.943375 3.65288 -0.322815 2.80045C-1.62664 1.94803 -2.68851 1.17342 -2.68851 1.0099C-2.68851 0.889282 -1.91159 0.0327911 -0.973373 -0.942932L0.739075 -2.69159L2.98112 -1.38795C4.24731 -0.696365 5.67479 0.0722046 6.16406 0.318817ZM24.2321 -0.209961L26.3532 1.45493L23.7832 4.06221C21.8261 6.01099 21.3368 6.78491 21.6621 7.10927C22.0304 7.4765 22.7643 7.03162 24.6811 5.31873C26.4366 3.77472 27.4151 3.16652 27.7 3.40776C28.27 3.85811 30.5147 7.88559 30.2701 8.04642C30.2298 8.08931 28.9232 8.98332 27.4554 9.99927C24.7214 11.8676 24.7214 11.8667 24.3155 10.9312C23.5386 9.26654 21.2562 6.98865 19.0518 5.76898C17.8689 5.12029 16.8904 4.46655 16.8904 4.30304C16.8904 3.85806 21.4175 -1.8801 21.7455 -1.8801C21.9498 -1.8801 23.0923 -1.14549 24.2321 -0.209961ZM0.0454865 4.8737L3.02413 6.74278L1.63697 8.32915C-0.0781708 10.2029 -1.30135 12.4804 -1.66696 14.5123C-1.83095 15.3647 -2.11591 16.0984 -2.27989 16.219C-2.60517 16.4228 -8.23449 15.0837 -8.64311 14.7165C-8.92808 14.4296 -8.11353 9.87257 -7.66457 9.47047C-7.50059 9.26675 -6.11341 9.67416 -4.52193 10.3658C-2.97347 11.0145 -1.42233 11.4602 -1.09705 11.3396C-0.199158 10.9723 -1.21802 10.1636 -4.32032 8.7375C-7.50058 7.27124 -7.41993 7.55948 -5.25854 4.09885C-4.116 2.27071 -4.19666 2.27086 0.0454865 4.8737ZM17.2184 6.58047C19.6244 7.75726 22.1111 10.2387 23.3369 12.6432C23.7832 13.4956 24.7214 15.9817 25.3747 18.1771L26.6409 22.1561L25.2134 24.1142C23.6622 26.3123 20.5223 32.4531 19.7454 34.8522C18.9711 37.2513 18.8905 36.4021 19.5411 33.2658C21.5815 23.7471 18.1566 14.5539 12.159 13.3343C10.5272 13.0099 8.52977 14.6324 7.26358 17.4389C5.14519 21.9155 6.65334 30.0512 10.6912 35.8627C12.3633 38.2645 11.9977 38.06 9.01903 34.8889C7.30658 33.0553 4.53226 30.5389 2.86013 29.2764C1.18801 27.9736 -0.239471 26.5905 -0.363136 26.1456C-0.484108 25.7381 -0.527115 23.0509 -0.527115 20.1666C-0.443779 13.3714 0.249786 11.8685 5.5108 6.50195L9.304 2.67479L12.159 4.06221C13.7504 4.87173 16.0355 5.97198 17.2184 6.58047ZM80.9715 7.22969L82.4796 10.2401L79.8693 10.9312C78.4418 11.2984 77.1353 11.7877 77.0143 11.9888C76.646 12.6428 74.4039 12.3966 74.4039 11.7479C74.4039 11.4236 74.1996 11.1354 73.955 11.1354C73.7104 11.1354 73.5867 10.8551 73.7104 10.528C73.8313 10.2037 73.6297 8.77972 73.2211 7.31345C72.6915 5.44508 72.6082 4.58597 72.9361 4.46533C73.1808 4.3876 74.7696 4.26115 76.4417 4.26115H79.501L80.9715 7.22969ZM71.1 5.68521C71.8339 7.35521 73.1807 11.4595 73.1807 12.1511C73.1807 12.5585 72.7722 12.7653 72.0786 12.8055C71.4253 12.8055 70.2021 12.8837 69.2639 13.0097L67.5918 13.2086L66.5729 9.22441C65.796 6.3401 65.6347 5.15596 66.0003 4.95224C66.2449 4.78873 67.3875 4.62764 68.53 4.62764C70.3661 4.62764 70.6511 4.75237 71.1 5.68521ZM64.8578 8.77939C65.4707 10.6478 66.0406 12.3547 66.1239 12.6013C66.2046 12.8828 65.5514 13.1734 64.5325 13.3343C63.554 13.4978 62.4114 13.7006 61.9625 13.8212C61.2286 13.9847 60.9033 13.5398 59.7204 10.6904C58.9435 8.85684 58.3333 7.22989 58.4139 7.10927C58.5376 6.78491 62.1668 5.52124 63.0647 5.48103C63.5539 5.4435 64.0432 6.34007 64.8578 8.77939ZM58.2499 11.1354C59.1075 12.6794 59.9651 13.9835 60.25 13.9835C60.4947 13.9835 59.6371 14.7147 58.2929 15.5698L55.8842 17.1614L54.8654 15.6903C54.3358 14.8378 53.3976 13.6627 52.8249 13.0516L51.7658 11.8736L53.8062 10.083C54.9057 9.10999 56.0482 8.2925 56.2928 8.2925C56.5375 8.2925 57.4353 9.54846 58.2499 11.1354ZM31.5336 11.4233C32.6761 15.7739 32.6761 15.7734 30.3104 18.2557C29.1679 19.4753 28.1087 20.4077 27.985 20.287C27.8237 20.1235 25.4983 13.2513 25.458 12.884C25.458 12.7205 30.555 9.9155 30.84 9.9155C31.004 9.9155 31.3293 10.6084 31.5336 11.4233ZM44.5046 17.3604C50.1339 29.1147 50.5426 30.7787 50.5023 41.8468C50.5023 47.7414 50.2979 50.547 49.8893 52.0508C48.7871 55.7527 49.6447 55.9993 53.3169 52.9461C56.5375 50.2655 60.25 47.8639 64.4518 45.7892C70.7317 42.6582 75.5464 41.4375 83.3775 41.0301C86.1921 40.8666 89.4961 40.6292 90.7192 40.4228C91.9424 40.2539 93.0043 40.1355 93.085 40.2186C93.1656 40.2963 92.8403 41.6804 92.3914 43.3075C91.9021 44.9775 91.0876 48.1503 90.5553 50.3859C89.9854 52.6216 89.0068 55.9199 88.3132 57.7052C85.9072 63.9295 79.38 72.5902 73.7507 77.1498C69.7532 80.3183 70.0381 80.6826 76.646 80.8461C87.4556 81.1758 96.3485 84.0198 104.056 89.6732C105.811 90.9706 108.666 92.9674 110.419 94.1495C112.134 95.3692 113.562 96.4268 113.562 96.5474C113.562 96.668 112.134 97.7281 110.419 98.9505C108.666 100.127 105.811 102.124 104.056 103.427C96.3485 109.075 87.4556 111.924 76.646 112.254C70.0381 112.417 69.7532 112.782 73.7507 115.955C79.38 120.51 85.9072 129.171 88.3132 135.395C89.0068 137.185 89.9854 140.478 90.5553 142.714C91.0876 144.955 91.9021 148.122 92.3914 149.792C92.8403 151.42 93.1656 152.804 93.085 152.881C93.0043 152.965 91.9424 152.838 90.7192 152.682C89.4961 152.479 86.1921 152.228 83.3775 152.065C75.5464 151.657 70.7317 150.442 64.4518 147.311C60.25 145.239 56.5375 142.84 53.3169 140.154C49.6447 137.101 48.7871 137.347 49.8893 141.049C50.2979 142.553 50.5023 145.356 50.5023 151.253C50.5426 162.158 50.134 163.943 44.709 175.253C42.7922 179.279 41.2007 182.613 41.1604 182.656C41.1201 182.733 38.2651 179.969 34.7972 176.556C28.27 170.169 26.1086 167.362 23.5386 162.033C21.0519 156.865 18.5222 148.531 18.5222 145.52C18.5222 144.344 17.9523 143.735 16.9307 143.735C16.7291 143.735 15.9925 144.913 15.3016 146.374C13.5865 149.829 9.18303 155.448 5.22585 159.185C0.698746 163.458 -3.2181 165.979 -9.41733 168.499C-11.2131 169.274 -13.9041 170.453 -15.3719 171.185L-18.0656 172.567L-18.6355 166.996C-19.4528 158.901 -19.3694 149.997 -18.4312 146.175C-17.0037 140.395 -13.2509 131.573 -11.4174 129.458C-10.6835 128.6 -10.6835 127.504 -11.4578 127.217C-11.783 127.053 -12.6809 127.259 -13.4149 127.583C-17.536 129.457 -24.9181 131.044 -31.1173 131.369C-36.9106 131.693 -40.9888 131.044 -48.8601 128.683C-51.8388 127.788 -54.5701 127.055 -54.8981 127.055C-55.226 127.055 -55.7959 126.895 -56.1212 126.657C-56.6105 126.332 -56.6105 126.206 -56.0406 125.557C-55.6723 125.15 -53.7555 122.343 -51.7178 119.296C-46.0078 110.672 -42.1743 107.013 -33.975 102.333C-30.5501 100.378 -25.0014 97.9833 -23.289 97.6992C-22.7164 97.6161 -22.4717 97.2442 -22.4717 96.5526C-22.4717 95.861 -22.7164 95.4944 -23.289 95.4113C-25.0014 95.1298 -30.5501 92.732 -33.975 90.7779C-42.1743 86.1029 -46.0078 82.4381 -51.7178 73.8201C-53.7582 70.7669 -55.675 67.9606 -56.0406 67.5532C-56.6105 66.9045 -56.6105 66.7834 -56.1212 66.4537C-55.7959 66.2124 -55.2233 66.0506 -54.8981 66.0506C-54.5728 66.0506 -51.8388 65.3229 -48.8601 64.4276C-40.9888 62.0713 -36.9106 61.4174 -31.1173 61.7417C-24.9181 62.0715 -17.536 63.6534 -13.4149 65.5218C-12.6809 65.8515 -11.783 66.0543 -11.4578 65.8935C-10.6835 65.6067 -10.6835 64.5051 -11.4174 63.6527C-13.2509 61.5377 -17.0037 52.7151 -18.4312 46.9357C-19.3694 43.1132 -19.4528 34.2095 -18.6355 26.1142L-18.0656 20.5436L-15.3719 21.9258C-13.9041 22.6575 -11.2131 23.8369 -9.41733 24.6116C-3.2181 27.1286 0.698746 29.6527 5.22585 33.9255C9.18303 37.6649 13.5865 43.2762 15.3016 46.7368C16.1968 48.6052 16.8097 49.3807 17.3797 49.3807C18.2372 49.3807 18.2776 49.3388 18.8905 45.4332C19.7884 39.4555 23.0923 30.9921 26.5979 25.5854C27.8641 23.6312 40.1818 10.6166 40.9561 10.4129C41.0797 10.3673 42.6685 13.4977 44.5046 17.3604ZM84.6813 14.2662L85.7029 16.6274L82.1543 17.5227C80.1946 18.0105 78.3611 18.4606 78.0332 18.5384C77.6675 18.6215 77.0143 17.7637 76.3207 16.3028C75.2185 14.0243 75.1782 13.9017 75.8718 13.3709C76.2804 13.0895 76.81 12.9266 77.0546 13.0097C77.2589 13.0874 78.2778 12.8828 79.2993 12.6013C80.3182 12.277 81.7054 11.9888 82.3989 11.9888C83.5818 11.9539 83.7431 12.1512 84.6813 14.2662ZM52.54 15.0829C54.946 17.6429 55.11 18.2138 53.8465 19.5541C53.2335 20.1679 52.255 21.464 51.6421 22.4022C51.0318 23.3806 50.3786 24.1508 50.1339 24.1508C49.4807 24.1079 47.3596 19.0295 47.6472 18.1771C48.0532 16.9146 50.2979 13.5751 50.7039 13.5751C50.9082 13.5724 51.7657 14.2654 52.54 15.0829ZM73.9953 14.5123C73.9953 14.7937 74.6486 16.3815 75.4631 18.0515C77.5842 22.4449 78.4821 25.2084 78.4821 27.444C78.4821 29.642 76.974 34.6842 75.3018 37.9411C74.1996 40.0937 74.1593 40.0929 71.0597 40.9882C69.3445 41.5163 66.0406 42.8621 63.7583 43.9986C61.4329 45.1405 59.4758 46.0346 59.4328 45.9515C59.3521 45.8737 60.0457 45.3016 60.9839 44.6583C63.4733 42.9454 67.3875 38.5163 68.7343 35.8679C71.1404 31.1099 71.1807 26.4314 68.8553 23.9519C67.9171 22.9359 67.6321 22.8582 65.839 23.0566C59.6774 23.7884 55.2337 29.6911 53.4379 39.695L52.8679 42.6636L52.8249 40.428C52.7846 37.2489 52.0507 31.6842 51.3168 28.9151L50.7039 26.512L52.2147 24.355C57.3547 16.9111 60.2903 15.1251 68.6106 14.5542C70.5704 14.3906 72.2425 14.2341 72.3232 14.151C72.7721 13.7811 73.9953 14.0244 73.9953 14.5123ZM-48.3708 15.6536C-45.8412 16.1817 -42.048 17.8889 -38.9887 19.8001L-36.7869 21.2242L-38.787 21.465C-43.3141 22.036 -45.8842 22.684 -50.8602 24.3969C-53.7152 25.3699 -56.3255 26.1049 -56.6535 25.9414C-57.4681 25.6599 -57.917 26.4689 -58.0004 28.423C-58.0407 29.3183 -58.4896 32.614 -58.9789 35.7422C-59.5918 39.8891 -59.7934 42.3335 -59.5918 44.6897L-59.3472 47.9462L-61.6726 45.5012C-64.3232 42.6947 -66.8529 38.5895 -67.5868 35.9464C-68.4014 33.0192 -68.2804 26.0592 -67.3825 22.4859L-66.6083 19.4336L-63.5087 17.9311C-58.5676 15.6124 -52.6936 14.7181 -48.3708 15.6536ZM-4.89024 17.2766L-2.32021 17.7269L-2.19924 21.4284C-2.11591 23.5005 -2.11591 25.291 -2.15623 25.4545C-2.36054 25.8994 -7.29627 23.5007 -7.86888 22.6482C-8.15384 22.1979 -8.51945 20.7357 -8.64311 19.3499C-8.9684 16.4629 -9.13238 16.5421 -4.89024 17.2766ZM86.6008 19.3499C86.7621 19.8779 87.047 21.1402 87.211 22.1561L87.496 24.0304L84.52 24.3131C82.8882 24.4767 81.1758 24.6794 80.7268 24.8C79.9096 25.0038 79.6246 24.4762 78.4418 20.5331C78.3181 20.1257 79.095 19.7575 81.3371 19.2295C85.5389 18.2564 86.1921 18.2937 86.6008 19.3499ZM-75.9851 19.5959L-74.8022 20.0828L-75.7001 21.4284C-77.4529 24.0312 -77.8615 25.4914 -77.8615 28.8314C-77.8615 32.8951 -76.9636 36.1917 -74.4339 41.4751C-69.7025 51.4013 -61.3822 58.8458 -54.1615 59.658C-53.0592 59.8215 -52.0404 60.3072 -51.0618 61.2025C-49.4731 62.6259 -49.5134 62.8731 -51.5511 63.5218C-52.8146 63.9722 -53.3039 63.8036 -57.874 61.6109C-63.8689 58.7614 -67.0115 56.5286 -70.2321 52.7838C-75.1275 47.0929 -78.2271 44.2816 -81.2031 42.8206C-83.8941 41.5179 -84.2624 41.4385 -88.3405 41.4385C-91.7251 41.4385 -92.908 41.6023 -94.0505 42.2081C-96.1312 43.3071 -98.048 45.2613 -98.333 46.564C-98.7819 48.553 -96.2522 52.538 -95.2333 51.522C-94.9484 51.2406 -95.0694 50.6697 -95.642 49.7315C-96.7442 47.9462 -96.7038 47.2554 -95.478 45.7892C-92.5827 42.3339 -84.9533 42.2903 -79.9772 45.7054C-78.0605 47.0082 -75.1248 50.0177 -73.0844 52.6634C-70.2294 56.443 -66.3959 59.452 -61.0919 62.0978C-56.2368 64.4969 -56.1158 64.5801 -57.1347 65.1082C-58.2369 65.7167 -58.5219 67.1404 -57.6643 67.9982C-56.9707 68.6898 -57.5003 68.607 -61.6215 67.4275C-67.0062 65.9183 -72.5521 65.7159 -78.5497 66.815C-83.6494 67.7532 -88.2572 67.9149 -90.4186 67.2233C-96.0882 65.4327 -99.9621 61.2862 -99.6771 57.3806C-99.5534 55.7937 -99.3921 55.5891 -97.72 54.7366C-96.7011 54.2488 -95.8033 53.6367 -95.7629 53.433C-95.5183 52.7843 -98.4539 52.9456 -99.7604 53.6372C-101.312 54.4494 -101.801 55.3848 -101.801 57.6633C-101.801 62.751 -96.5802 67.8742 -90.053 69.2547C-86.913 69.9088 -83.7704 69.8263 -78.754 68.8934C-72.0252 67.6684 -68.4336 67.7949 -61.4199 69.5426C-55.5056 71.0089 -55.4653 71.0039 -54.5674 72.5426L-53.6695 74.0923L-55.7906 74.2598C-57.382 74.3376 -58.1563 74.1756 -59.1348 73.5269C-62.9683 70.924 -71.6972 70.0283 -78.1438 71.5322C-89.9723 74.3012 -99.0695 81.0071 -100.169 87.7622C-100.373 89.0596 -100.658 90.2436 -100.739 90.3643C-101.228 90.8146 -105.511 88.2915 -106.898 86.7046C-109.428 83.941 -110.487 81.0956 -110.691 76.7048C-110.976 70.7271 -109.508 65.434 -106.898 63.0349C-105.839 62.0619 -105.185 60.1457 -105.796 59.7784C-106 59.6578 -106.489 59.8988 -106.898 60.3491C-107.347 60.837 -108.161 61.1711 -109.019 61.1711C-110.895 61.1711 -114.648 59.7776 -116.361 58.4748C-119.256 56.2821 -121.417 51.4441 -122.194 45.5012L-122.563 42.6583L-120.442 40.7055C-118.076 38.5128 -113.67 35.7417 -111.549 35.093C-110.774 34.8464 -109.019 34.6857 -107.632 34.6428C-105.551 34.6428 -104.613 34.8893 -102.33 35.9883C-99.9648 37.1651 -99.5561 37.5313 -99.3115 38.7108C-98.6986 41.8042 -97.6394 40.6262 -97.4754 36.6375C-97.3114 32.815 -95.9269 29.6004 -92.6633 25.4911C-88.7061 20.6125 -85.0769 18.742 -79.9772 18.9886C-78.3911 19.0664 -76.598 19.3493 -75.9851 19.5959ZM-35.1955 23.622C-35.1148 23.8258 -35.1552 25.2916 -35.2788 26.8785C-35.5638 30.173 -35.4831 30.6586 -34.7062 30.6586C-34.3406 30.6586 -34.096 29.7192 -33.932 27.69C-33.768 26.0629 -33.483 24.4758 -33.319 24.2346C-32.8701 23.5028 -27.6924 25.4548 -27.937 26.2241C-28.0177 26.5484 -28.4263 27.9724 -28.7919 29.4387C-29.2006 30.905 -29.6898 32.0417 -29.8941 31.9989C-30.0581 31.9613 -31.3619 31.7176 -32.7491 31.4334C-34.6659 31.026 -35.9294 31.0253 -37.8488 31.3497C-39.2763 31.5963 -40.4592 31.7563 -40.4995 31.7161C-40.5398 31.6786 -40.7038 30.009 -40.8651 28.0146C-41.1097 24.8006 -41.0694 24.356 -40.3758 23.8681C-39.6016 23.2971 -35.4831 23.1342 -35.1955 23.622ZM-42.4163 27.69C-42.2119 29.6844 -42.048 31.5122 -42.048 31.8365C-42.048 32.2038 -43.0292 32.6952 -44.618 33.1402C-47.7606 34.0355 -47.8412 33.9531 -47.8009 28.868L-47.7606 25.2503L-46.1288 24.7634C-42.7819 23.7072 -42.7819 23.704 -42.4163 27.69ZM-49.1451 28.868C-48.6155 32.4064 -48.6155 33.5067 -49.0644 33.9517C-49.2687 34.1554 -51.1452 34.4026 -53.2259 34.4857L-57.0191 34.6794L-56.7745 32.9727C-56.6105 32.0345 -56.3659 30.533 -56.2449 29.6376L-56.0406 27.9675L-52.9006 26.9989C-51.1882 26.428 -49.7607 25.9824 -49.6801 26.0199C-49.6344 26.0628 -49.3897 27.324 -49.1451 28.868ZM87.4557 26.0199C87.4557 26.1888 87.2513 27.4865 87.0067 28.9099L86.5578 31.5119L83.2135 31.2345C81.4204 31.1085 79.9096 30.9474 79.8693 30.9099C79.8289 30.9099 79.9096 29.7668 79.9929 28.3864L80.1945 25.9466L83.8264 25.8262C85.8239 25.7806 87.4557 25.8564 87.4557 26.0199ZM-24.0605 28.1769C-21.0416 30.3348 -20.9206 30.6167 -21.3292 34.0773L-21.6545 37.1663L-24.6735 35.1245C-26.3456 34.0308 -27.8537 33.0531 -28.0984 32.9727C-28.671 32.8091 -26.5902 26.9989 -25.937 26.9989C-25.773 27.0016 -24.9181 27.5282 -24.0605 28.1769ZM82.8049 32.7318C84.1114 32.9784 85.3346 33.2586 85.4986 33.3444C85.8642 33.591 83.6625 38.0631 82.8882 38.6689C82.1946 39.2399 76.2804 39.8514 76.4847 39.3233C78.2375 34.9299 79.544 32.2868 79.9096 32.2868C80.1542 32.2868 81.4607 32.4906 82.8049 32.7318ZM-30.7087 33.669C-27.9774 34.8109 -24.3455 36.9199 -22.6733 38.3862C-21.6948 39.2386 -21.4502 39.8525 -21.2459 41.8468C-20.9609 44.6534 -19.7781 49.9366 -18.8398 52.5796C-17.8613 55.2656 -18.0253 55.146 -20.063 51.6425C-22.3078 47.82 -26.5499 43.4316 -29.4049 42.0458C-31.0367 41.2336 -32.0555 41.0301 -34.6256 41.0301C-37.6445 41.0301 -37.8892 41.1127 -38.8274 42.1662C-40.0102 43.5547 -40.1312 45.8295 -39.1123 48.7996C-38.0935 51.8474 -34.0126 55.7159 -29.6092 57.8308C-27.6924 58.7208 -25.3267 59.6994 -24.3455 59.946C-23.4073 60.1872 -22.6734 60.4685 -22.7137 60.5114C-22.797 60.5891 -24.6331 60.4344 -26.7542 60.1449C-28.8753 59.8206 -32.5851 59.656 -34.9912 59.7418L-39.357 59.8988L-42.091 56.9722C-45.0669 53.7582 -46.903 50.8744 -47.5966 48.3493C-47.8816 47.2905 -47.9622 44.7732 -47.7606 40.9882L-47.473 35.2553L-44.782 34.6061C-43.2738 34.2818 -41.0291 33.7106 -39.8059 33.3863C-36.3783 32.4481 -33.4427 32.5699 -30.7087 33.669ZM-49.1047 35.5381C-48.6988 35.5381 -48.9838 40.1752 -49.4327 40.9097C-49.5537 41.0732 -50.4919 41.2334 -51.5538 41.2709C-52.613 41.2709 -54.4491 41.4399 -55.5916 41.6008L-57.753 41.8835L-57.7127 40.4594C-57.589 36.6369 -57.2234 36.271 -52.941 35.826C-52.0027 35.7429 -51.0645 35.5393 -50.9436 35.3757C-50.7796 35.2122 -50.414 35.208 -50.086 35.3286C-49.7983 35.4573 -49.3494 35.5381 -49.1047 35.5381ZM-49.594 45.0143V47.5797L-52.7367 48.3493C-54.4921 48.7568 -56.1212 49.1669 -56.3659 49.2446C-56.8551 49.4483 -57.1401 48.6372 -57.5487 45.6269C-57.8337 43.8362 -57.753 43.7165 -56.8955 43.4698C-56.0809 43.2661 -52.0834 42.6944 -50.0833 42.496C-49.758 42.4532 -49.594 43.229 -49.594 45.0143ZM17.299 43.1452C17.299 43.349 17.1754 43.8762 17.0544 44.407L16.7694 45.3441L16.1565 44.4489C15.6672 43.7171 15.6269 43.5105 16.1161 43.229C16.8097 42.7787 17.299 42.7807 17.299 43.1452ZM-48.0859 51.6058L-47.2283 53.2288L-50.2473 54.6948L-53.2663 56.2026L-54.0405 55.1031C-55.2233 53.4331 -56.1616 51.4024 -55.9572 51.0351C-55.8336 50.8716 -54.3658 50.3031 -52.6533 49.8153C-50.9812 49.2872 -49.594 48.6797 -49.5537 48.4331C-49.5537 48.1516 -49.3897 48.3909 -49.2284 48.9619C-49.0241 49.5275 -48.5348 50.7105 -48.0859 51.6058ZM106.056 48.7577C106.177 49.082 105.975 50.7517 105.607 52.4592L104.913 55.5482L103.69 55.3073C102.997 55.1813 101.895 55.0612 101.244 55.0612H100.018L100.306 51.8833C100.467 50.1758 100.671 48.6368 100.795 48.4331C100.876 48.2696 102.059 48.1504 103.405 48.1504C105.198 48.1504 105.892 48.3074 106.056 48.7577ZM98.7949 52.2131L98.6739 55.1817L95.0017 55.9199C93.0043 56.322 91.2085 56.6842 91.0876 56.6842C90.6789 56.6842 92.3107 51.2753 92.8403 50.7472C93.6145 50.0154 98.225 48.5502 98.5906 48.9148C98.7546 49.081 98.8755 50.5914 98.7949 52.2131ZM52.9889 50.7524C52.255 51.2805 52.1743 51.2805 52.0507 50.7524C51.97 50.4227 52.0104 49.8579 52.1744 49.4907C52.3787 48.8822 52.4594 48.8822 53.0696 49.4907C53.7228 50.1421 53.7228 50.2243 52.9889 50.7524ZM111.236 49.7315C112.255 50.1818 113.153 50.6691 113.274 50.8728C113.478 51.1972 111.032 57.7051 110.583 58.1554C110.502 58.2332 109.32 57.704 107.973 56.9722C106.016 55.9563 105.607 55.5891 106.016 55.1817C106.301 54.9002 106.871 53.3969 107.279 51.81C108.137 48.596 108.341 48.5118 111.236 49.7315ZM117.315 53.1084C119.597 54.6524 119.68 55.1798 118.253 58.2758C117.11 60.675 117.191 62.4655 118.333 60.9617C118.659 60.5113 119.393 59.17 119.925 57.9879L120.903 55.8728L123.554 57.7837C126.49 59.9469 126.449 59.7414 125.35 64.7836L124.941 66.815L122.412 65.5951C121.024 64.9464 119.637 64.4223 119.352 64.4223C118.538 64.4223 117.516 63.2414 117.804 62.5847C118.089 61.7724 117.315 61.4091 116.621 61.9774C116.008 62.5054 114.296 61.6918 112.5 60.0245L111.645 59.213L113.193 56.0403C114.091 54.2497 114.785 52.5784 114.785 52.2969C114.785 51.5651 115.194 51.6904 117.315 53.1084ZM-41.642 60.0664C-41.642 60.2648 -42.7819 60.7932 -44.169 61.1658C-47.188 61.9781 -48.1665 61.6898 -50.5726 59.213L-52.121 57.5848L-51.1828 56.9722C-50.6532 56.605 -49.387 55.872 -48.4085 55.344L-46.6154 54.3283L-44.126 56.9722C-42.7819 58.4385 -41.642 59.8198 -41.642 60.0664ZM104.629 57.2183C106.341 57.7464 108.341 58.9268 112.745 61.9774C113.766 62.6689 114.825 63.4002 115.11 63.5637C115.519 63.805 115.315 64.9868 114.212 69.0505C113.438 71.9 112.419 74.8291 111.97 75.5582C110.462 77.9976 107.32 80.481 103.322 82.4325L99.4482 84.3434L96.6738 83.1236C95.1657 82.432 91.8215 81.3387 89.2111 80.6472C86.5578 79.9931 84.3964 79.3837 84.3561 79.3435C84.3157 79.3006 86.0282 79.265 88.1896 79.265C94.0232 79.2221 99.0395 77.7161 102.139 75.1132C103.69 73.8158 105.282 71.1642 105.607 69.218C105.852 67.8295 105.771 67.5475 104.588 66.4485C102.916 64.9044 99.3675 63.845 96.8781 64.1291C92.7166 64.6224 87.6599 67.1401 83.3775 70.8044C81.4204 72.5119 81.1758 72.3473 82.9286 70.5164C83.9877 69.4174 88.0686 62.9929 89.0471 60.8779L89.9854 58.8046L93.3296 57.9565C95.1254 57.5061 97.0018 57.0614 97.4481 56.9408C99.2842 56.5655 102.956 56.7331 104.629 57.2183ZM153.738 60.3491C157.736 62.2604 160.631 66.2876 162.303 72.1447C163.322 75.726 163.322 80.478 162.263 82.5581C161.489 84.1021 161.405 86.38 162.099 86.38C162.303 86.38 162.752 85.8517 163.121 85.1602C163.895 83.6939 165.037 83.3277 168.871 83.3277C171.277 83.3277 172.134 83.5317 174.132 84.5476C176.987 86.0139 180.374 89.7496 182.452 93.8616L183.839 96.5474L182.452 99.2332C180.374 103.337 176.987 107.081 174.132 108.547C172.134 109.563 171.277 109.767 168.871 109.767C165.037 109.767 163.895 109.401 163.121 107.935C162.752 107.243 162.303 106.715 162.099 106.715C161.405 106.715 161.489 108.993 162.263 110.542C163.322 112.609 163.322 117.374 162.303 120.95C160.061 128.839 155.451 133.437 149.332 133.887L146.926 134.086L147.211 131.892C147.701 128.595 147.539 127.092 146.437 124.285C143.991 118.066 136.361 110.376 128.856 106.636C124.084 104.234 117.151 102.929 113.887 103.825C112.339 104.275 111.89 104.233 110.134 103.458L108.177 102.647L109.645 101.469C110.787 100.531 111.481 100.292 112.46 100.453C113.193 100.531 115.763 100.819 118.253 101.06C123.635 101.588 127.92 102.895 132.243 105.374C139.706 109.682 141.991 110.495 147.007 110.495C150.066 110.495 150.8 110.375 153.126 109.238C156.185 107.815 157.163 107.04 158.591 104.888C160.061 102.73 160.018 100.531 158.47 98.9871C157.327 97.8506 155.37 97.0342 154.881 97.4845C154.757 97.6052 155.33 98.3801 156.185 99.1494C157.572 100.452 157.696 100.772 157.491 102.113C156.962 105.287 152.432 108.255 147.539 108.662C143.542 108.987 140.359 107.887 133.711 103.987C128.041 100.652 122.452 99.0221 116.538 98.9819C113.927 98.9819 113.478 98.7002 114.581 97.762C114.906 97.4806 115.194 96.9496 115.194 96.5421C115.194 96.1347 114.906 95.6037 114.581 95.3223C113.478 94.3841 113.927 94.1024 116.538 94.1024C122.452 94.0595 128.041 92.4424 133.711 89.1077C140.359 85.2021 143.542 84.1028 147.539 84.4272C152.432 84.8293 156.962 87.8006 157.491 90.9663C157.696 92.312 157.572 92.6373 156.185 93.9401C155.33 94.7094 154.757 95.4844 154.881 95.605C155.37 96.0553 157.327 95.2443 158.47 94.1024C160.018 92.5584 160.061 90.3597 158.591 88.2072C157.163 86.0494 156.185 85.2747 153.126 83.8513C150.8 82.7094 150.066 82.5895 147.007 82.5895C141.991 82.5895 139.706 83.4074 132.243 87.7151C127.92 90.1973 123.635 91.5011 118.253 92.0291C115.763 92.2704 113.193 92.556 112.46 92.6365C111.481 92.8 110.787 92.559 109.645 91.6208L108.177 90.4428L110.134 89.626C111.89 88.8514 112.339 88.8146 113.887 89.2596C117.151 90.1549 124.084 88.8524 128.856 86.4533C136.361 82.7112 143.991 75.0287 146.437 68.8044C147.539 65.9979 147.701 64.4917 147.211 61.1973L146.926 59.0036L149.332 59.2078C150.679 59.2935 152.556 59.7781 153.738 60.3491ZM-14.5977 62.1815C-14.1084 63.1975 -14.0681 63.1985 -15.9849 62.5847C-16.5145 62.4212 -16.5548 62.261 -16.1489 61.7732C-15.4553 60.9207 -15.1273 60.9967 -14.5977 62.1815ZM118.987 65.2705C119.272 65.5117 120.576 66.2873 121.922 67.0191C124.573 68.5229 124.616 68.6049 123.718 71.9824L123.269 73.6892L119.516 71.8986C115.438 69.9445 115.479 69.9875 116.417 66.5322C116.866 64.7845 117.885 64.2974 118.987 65.2705ZM117.559 72.5897C118.578 73.0776 120.129 73.8914 120.984 74.4221L122.535 75.396L121.312 77.8409C120.619 79.1812 119.965 80.2807 119.801 80.2807C119.637 80.2807 118.293 79.4232 116.742 78.3697C114.621 76.9812 113.806 76.6159 113.478 76.9456C113.193 77.2271 113.072 77.4725 113.193 77.553C117.436 80.8045 118.454 81.6667 118.454 81.9508C118.454 82.1545 117.516 83.045 116.333 83.9403L114.255 85.6052L111.89 83.2963L109.524 80.977L111.277 79.0189C112.255 77.9199 113.562 75.8491 114.212 74.3855C114.866 72.9246 115.438 71.7416 115.519 71.7416C115.6 71.7416 116.497 72.1447 117.559 72.5897ZM-50.5726 78.8147L-48.7392 81.2964L-50.2876 81.5791C-51.1452 81.6997 -52.9786 81.9043 -54.4061 81.9874L-57.0164 82.1079L-57.7503 80.1131C-59.0138 76.8187 -58.9735 76.4539 -57.3417 76.2127C-56.5675 76.0867 -55.14 76.0877 -54.1615 76.1708C-52.5323 76.2941 -52.2474 76.496 -50.5726 78.8147ZM-59.2208 80.2388C-58.6509 81.6622 -58.202 82.8425 -58.2423 82.8827C-60.729 83.8558 -63.463 85.6901 -64.8905 87.3172C-66.9712 89.5957 -66.8072 89.6306 -69.7455 86.4219C-72.3962 83.6154 -72.3962 83.6153 -70.2751 81.621C-69.2563 80.6479 -68.2347 79.8723 -68.0331 79.8723C-67.8288 79.8723 -66.9712 80.8882 -66.1567 82.1079C-64.3609 84.6732 -63.6673 85.3205 -63.0974 84.956C-62.8124 84.83 -63.3017 83.6927 -64.2399 82.1916C-65.1378 80.8031 -65.912 79.4218 -65.9927 79.0974C-66.1567 78.3281 -61.3849 76.4958 -60.772 77.1498C-60.5274 77.4313 -59.8338 78.8154 -59.2208 80.2388ZM76.974 78.6891C76.7697 78.8928 76.2804 78.9756 75.8718 78.8147C75.2185 78.5681 75.2185 78.4916 75.8718 77.7572C76.525 77.0656 76.646 77.0649 76.974 77.6734C77.1783 78.0835 77.1783 78.4907 76.974 78.6891ZM-73.3747 81.9037C-74.8022 83.4906 -77.4126 87.15 -79.125 90.0396C-80.8778 92.9293 -82.5499 95.3675 -82.7973 95.4479C-83.4908 95.7347 -83.3268 97.239 -82.5526 97.8877C-82.2273 98.1343 -80.5955 100.616 -78.9234 103.38C-77.2916 106.109 -74.7619 109.647 -73.3344 111.186C-71.9069 112.778 -70.9687 114.034 -71.294 114.034C-74.1087 114.034 -81.4101 112.079 -83.4478 110.825C-87.4453 108.342 -91.5235 103.625 -93.2789 99.3955L-94.5021 96.5474L-93.2789 93.6993C-91.5262 89.4693 -87.4453 84.7471 -83.4478 82.2649C-81.3671 80.9675 -75.0872 79.2611 -71.6999 79.0922C-70.8854 79.06 -71.0897 79.4644 -73.3747 81.9037ZM110.462 83.9822C112.379 86.3384 112.46 86.5005 111.685 86.9455C110.623 87.5593 107.36 88.8198 106.79 88.8198C106.381 88.8198 102.548 86.4211 101.61 85.5633C101.405 85.4051 102.671 84.5912 104.384 83.7361C106.096 82.8837 107.564 82.0183 107.688 81.8199C108.096 81.2087 108.462 81.5 110.462 83.9822ZM-45.0266 85.3643C-42.8249 87.3185 -36.7063 91.7474 -34.9508 92.5998C-33.7277 93.1708 -35.8084 92.5634 -38.5827 91.5475C-44.9029 89.1457 -51.3898 89.2632 -55.2233 91.7883C-57.2207 93.1715 -58.9762 95.3654 -58.9762 96.5421C-58.9762 97.7189 -57.2207 99.9207 -55.2233 101.301C-51.3898 103.818 -44.9029 103.944 -38.5827 101.542C-35.8084 100.526 -33.7277 99.9214 -34.9508 100.49C-36.7063 101.342 -42.8249 105.774 -45.0266 107.725C-47.7606 110.207 -48.4515 110.367 -53.5915 109.558C-59.8311 108.542 -62.5651 106.667 -66.9282 100.322L-69.5789 96.5421L-66.9282 92.7569C-65.5007 90.6473 -63.5033 88.2125 -62.5221 87.3172C-59.8311 84.8296 -55.0163 83.2862 -49.6747 83.1602C-47.5563 83.12 -47.3923 83.2092 -45.0266 85.3643ZM-68.3181 92.1548C-69.9095 94.637 -70.6434 95.286 -71.5816 95.0448C-72.0306 94.9188 -72.4392 94.595 -72.4392 94.3537C-72.4392 94.1071 -72.9688 93.3333 -73.5817 92.6417C-76.4367 89.5108 -76.5604 89.3065 -75.7835 88.0868C-75.4179 87.4783 -74.7216 86.4989 -74.2753 85.8931L-73.4608 84.8303L-70.4821 87.8407L-67.4632 90.8512L-68.3181 92.1548ZM-75.8641 92.1548C-75.1705 92.8866 -73.9474 94.1088 -73.1301 94.8406C-72.3156 95.6099 -71.622 96.3437 -71.622 96.5474C-71.622 96.7511 -72.2752 97.4901 -73.1301 98.2594C-73.9447 98.9912 -75.2512 100.249 -75.9851 101.018C-77.2916 102.364 -77.4126 102.412 -77.8615 101.72C-78.1465 101.313 -78.9637 100.045 -79.6573 98.9034C-81.0445 96.8313 -81.2891 95.9418 -80.6359 95.5317C-80.3912 95.4057 -79.6573 94.3117 -78.9637 93.0867C-78.2701 91.8671 -77.5362 90.8512 -77.3722 90.8512C-77.2083 90.8485 -76.5147 91.4632 -75.8641 92.1548ZM-27.1601 96.139C-26.6305 96.5063 -26.6305 96.5885 -27.1601 96.9557C-28.1387 97.6044 -28.7919 97.4427 -28.7919 96.5474C-28.7919 95.6521 -28.1387 95.4903 -27.1601 96.139ZM-69.9472 98.6625C-69.5386 99.1906 -68.8046 100.205 -68.3154 100.94L-67.4578 102.238L-70.4364 105.249L-73.4151 108.223L-74.2726 107.16C-74.7216 106.594 -75.4152 105.622 -75.8238 105.008C-76.5577 103.826 -76.4367 103.584 -73.5817 100.453C-72.9688 99.7615 -72.4392 98.9877 -72.4392 98.7411C-72.4392 98.4596 -72.1139 98.1329 -71.7053 98.0552C-71.337 97.9292 -70.9311 97.852 -70.8881 97.8091C-70.8047 97.8118 -70.3961 98.1773 -69.9472 98.6625ZM-100.419 103.746C-100.338 104.395 -100.134 105.575 -99.9701 106.39C-99.8492 107.243 -98.9513 108.949 -97.9297 110.338C-94.2575 115.297 -86.7948 119.525 -78.1465 121.557C-71.7026 123.067 -62.9737 122.171 -59.1375 119.568C-58.159 118.919 -57.382 118.754 -55.7933 118.84L-53.6722 119.002L-54.5701 120.547C-55.468 122.096 -55.5083 122.096 -61.4226 123.557C-68.439 125.305 -72.0279 125.431 -78.7567 124.212C-83.7731 123.274 -86.9157 123.191 -90.0557 123.845C-96.5829 125.228 -101.804 130.311 -101.804 135.353C-101.804 137.715 -101.314 138.643 -99.7631 139.452C-98.4593 140.149 -95.521 140.311 -95.7656 139.657C-95.8059 139.453 -96.7039 138.849 -97.7227 138.363C-99.3948 137.511 -99.5588 137.304 -99.6798 135.719C-99.9648 131.814 -96.0909 127.667 -90.4213 125.877C-88.2599 125.185 -83.6494 125.344 -78.5524 126.275C-72.5575 127.374 -67.0089 127.176 -61.6242 125.667C-57.503 124.49 -56.9734 124.405 -57.667 125.097C-58.5246 125.954 -58.2396 127.375 -57.1374 127.987C-56.1185 128.515 -56.2395 128.595 -61.0946 130.997C-66.3959 133.64 -70.2321 136.644 -73.0871 140.431C-75.1275 143.074 -78.0631 146.084 -79.9799 147.384C-84.956 150.802 -92.5827 150.766 -95.4807 147.311C-96.7038 145.85 -96.7442 145.149 -95.6447 143.358C-95.072 142.425 -94.9511 141.854 -95.236 141.567C-96.2549 140.552 -98.7846 144.544 -98.3356 146.536C-98.0507 147.839 -96.1339 149.793 -94.0532 150.892C-92.9106 151.5 -91.7278 151.662 -88.3432 151.662C-84.2651 151.662 -83.8968 151.58 -81.2058 150.274C-78.2271 148.808 -75.1275 146.002 -70.2348 140.311C-67.0115 136.569 -63.8716 134.333 -57.8767 131.484C-53.3092 129.286 -52.82 129.128 -51.5538 129.573C-49.5134 130.222 -49.4731 130.469 -51.0645 131.892C-52.0431 132.788 -53.0619 133.276 -54.1641 133.437C-61.3849 134.249 -69.7052 141.694 -74.4366 151.614C-76.9663 156.903 -77.8642 160.194 -77.8642 164.269C-77.8642 167.598 -77.4556 169.064 -75.7028 171.666L-74.8049 173.012L-75.9878 173.457C-77.9449 174.269 -81.9424 174.396 -84.3081 173.661C-87.491 172.766 -89.9374 170.976 -92.6284 167.598C-95.9323 163.494 -97.3195 160.28 -97.4808 156.457C-97.6447 152.474 -98.7039 151.288 -99.3169 154.384C-99.5615 155.561 -99.9701 155.932 -102.336 157.112C-104.621 158.211 -105.559 158.457 -107.637 158.457C-109.024 158.414 -110.777 158.254 -111.554 158.007C-113.675 157.358 -118.081 154.59 -120.447 152.389L-122.568 150.436L-122.2 147.588C-121.425 141.651 -119.264 136.813 -116.366 134.615C-114.654 133.312 -110.901 131.929 -109.024 131.929C-108.167 131.929 -107.352 132.258 -106.903 132.746C-106.495 133.191 -106.005 133.437 -105.801 133.311C-105.188 132.949 -105.841 131.038 -106.903 130.06C-109.514 127.661 -110.981 122.376 -110.696 116.395C-110.492 112.045 -109.433 109.154 -106.944 106.39C-105.637 104.967 -101.927 102.647 -100.949 102.647C-100.785 102.647 -100.54 103.132 -100.419 103.746ZM-64.8501 105.861C-63.463 107.405 -60.6886 109.239 -58.2423 110.212C-58.0783 110.295 -60.2827 115.379 -60.729 115.95C-61.0139 116.312 -61.6269 116.232 -63.3796 115.584C-64.6862 115.133 -65.826 114.645 -65.99 114.484C-66.154 114.321 -65.5007 112.897 -64.4818 111.27C-63.42 109.562 -62.85 108.259 -63.0947 108.139C-63.6646 107.772 -64.3582 108.43 -66.154 110.992C-66.9685 112.212 -67.8261 113.228 -68.0304 113.228C-68.2347 113.228 -69.2536 112.457 -70.2724 111.479C-71.6999 110.096 -72.0682 109.567 -71.7806 109.039C-71.3316 108.265 -67.1298 103.872 -66.8449 103.872C-66.7266 103.869 -65.8287 104.762 -64.8501 105.861ZM109.075 105.008C112.745 106.431 112.704 106.391 110.908 108.584C110.013 109.645 109.075 110.783 108.83 111.107C108.462 111.595 108.137 111.558 106.79 110.662C105.892 110.134 104.301 109.274 103.201 108.751C102.099 108.258 101.405 107.729 101.569 107.568C102.507 106.716 106.381 104.27 106.79 104.27C107.035 104.272 108.053 104.601 109.075 105.008ZM116.742 109.442C117.68 110.212 118.454 110.986 118.454 111.149C118.454 111.431 117.436 112.285 113.193 115.542C113.072 115.62 113.193 115.87 113.478 116.154C113.806 116.484 114.621 116.111 116.742 114.73C118.293 113.677 119.637 112.819 119.801 112.819C119.965 112.819 120.619 113.919 121.312 115.264L122.535 117.704L120.984 118.673C119.272 119.731 115.559 121.484 115.438 121.28C115.395 121.202 114.704 119.772 113.887 118.102C113.072 116.437 111.726 114.4 110.951 113.631L109.481 112.249L111.806 109.887C113.073 108.625 114.296 107.688 114.54 107.814C114.785 107.932 115.763 108.668 116.742 109.442ZM104.139 111.065C107.728 112.899 110.502 115.212 111.97 117.573C112.704 118.715 115.804 129.087 115.519 129.285C113.562 130.588 110.747 132.463 108.747 133.803C104.384 136.73 100.263 137.055 93.249 135.144L89.9854 134.248L89.0471 132.175C88.0686 130.103 83.9877 123.672 82.9286 122.578C81.1758 120.745 81.4204 120.588 83.3775 122.296C87.6599 125.96 92.7166 128.48 96.8781 128.971C99.3675 129.252 102.916 128.196 104.588 126.652C105.771 125.552 105.852 125.262 105.607 123.882C104.505 117.784 97.776 113.918 88.1896 113.84C86.0282 113.84 84.3157 113.797 84.3561 113.756C84.3964 113.714 86.5578 113.107 89.1681 112.458C91.7784 111.766 95.0824 110.667 96.5099 110.013C97.94 109.364 99.4482 108.919 99.8568 109.039C100.306 109.152 102.223 110.049 104.139 111.065ZM-50.2876 111.558L-48.7392 111.798L-50.6156 114.322C-52.371 116.761 -52.5727 116.881 -54.2045 116.924C-56.7342 117.002 -58.3256 116.842 -58.6509 116.557C-58.8552 116.311 -58.366 114.486 -57.1428 111.27C-56.9358 110.742 -54.5701 110.823 -50.2876 111.558ZM77.0143 114.4C77.1783 114.604 77.1353 115.091 77.0143 115.458C76.7697 116.072 76.689 116.03 75.9954 115.416C75.3825 114.851 75.3018 114.648 75.7078 114.364C76.4013 113.956 76.7697 113.955 77.0143 114.4ZM124.248 123.432C124.369 124.608 124.207 124.816 121.922 126.076C120.576 126.807 119.272 127.575 118.987 127.819C117.925 128.757 116.866 128.306 116.457 126.72C115.395 122.736 115.11 123.269 119.352 121.275L123.146 119.437L123.635 120.783C123.879 121.52 124.167 122.7 124.248 123.432ZM125.799 130.426C126.084 131.93 126.245 133.232 126.165 133.274C126.084 133.312 124.861 134.247 123.474 135.306L120.903 137.264L119.925 135.112C119.393 133.93 118.659 132.589 118.333 132.138C117.191 130.635 117.11 132.42 118.253 134.824C119.68 137.918 119.597 138.443 117.315 139.95C115.194 141.416 114.785 141.536 114.785 140.761C114.785 140.52 114.091 138.85 113.193 137.06L111.645 133.892L112.5 133.07C114.296 131.4 116.008 130.589 116.621 131.117C117.315 131.688 118.089 131.322 117.804 130.505C117.516 129.862 118.538 128.678 119.352 128.678C119.637 128.678 120.984 128.15 122.331 127.542C125.146 126.199 124.982 126.033 125.799 130.426ZM-14.5977 130.913C-15.1273 132.095 -15.4553 132.177 -16.1489 131.322C-16.5548 130.834 -16.5548 130.673 -16.1058 130.552C-15.6166 130.383 -14.5574 130.055 -14.2321 129.934C-14.1487 129.897 -14.3531 130.35 -14.5977 130.913ZM-41.642 133.028C-41.642 133.275 -42.7819 134.656 -44.1287 136.123L-46.6181 138.761L-48.4112 137.746C-49.3897 137.217 -50.6559 136.487 -51.1855 136.123L-52.1237 135.51L-50.5753 133.887C-48.1665 131.399 -47.1907 131.117 -44.1717 131.929C-42.7819 132.293 -41.642 132.822 -41.642 133.028ZM-23.2863 132.746C-23.7352 132.909 -25.4074 133.559 -27.0392 134.17C-34.7895 137.019 -39.8059 142.503 -39.8059 148.039C-39.8059 149.301 -39.521 150.111 -38.8274 150.923C-37.8892 151.985 -37.6445 152.065 -34.6256 152.065C-32.0555 152.065 -31.0367 151.861 -29.4049 151.049C-26.5499 149.666 -22.3078 145.275 -20.063 141.447C-18.0253 137.949 -17.8613 137.829 -18.8398 140.515C-19.7781 143.158 -20.9609 148.447 -21.2459 151.248C-21.5308 154.017 -22.1034 154.665 -26.1009 157.065C-31.4856 160.362 -34.7895 160.97 -39.6016 159.75C-40.9484 159.383 -43.2738 158.818 -44.782 158.489L-47.473 157.839L-47.7606 152.107C-47.9622 148.322 -47.8816 145.796 -47.5966 144.745C-46.903 142.223 -45.0669 139.331 -42.091 136.123L-39.357 133.185L-34.9912 133.353C-32.5851 133.436 -28.9559 133.231 -26.9558 132.95C-22.469 132.339 -22.2674 132.295 -23.2863 132.746ZM111.847 137.709C113.642 142.059 113.642 142.142 111.521 143.196C108.462 144.705 108.137 144.542 107.279 141.285C106.871 139.698 106.301 138.197 106.016 137.913C105.607 137.506 105.975 137.181 107.809 136.159C109.075 135.427 110.218 134.862 110.338 134.819C110.462 134.819 111.153 136.122 111.847 137.709ZM95.0017 137.18L98.6739 137.913L98.7949 140.871C98.8755 142.498 98.7546 144.009 98.5906 144.17C98.225 144.537 93.6145 143.072 92.8403 142.337C92.3107 141.809 90.6789 136.4 91.0876 136.4C91.2085 136.405 93.0043 136.773 95.0017 137.18ZM-48.2069 141.772C-48.7391 142.833 -49.1881 144.014 -49.1881 144.416C-49.1881 144.909 -49.3091 144.986 -49.5134 144.662C-49.6774 144.38 -51.1048 143.767 -52.6533 143.279C-54.2448 142.835 -55.6723 142.3 -55.8336 142.102C-56.2019 141.772 -55.3443 139.86 -54.0378 137.992L-53.2636 136.897L-50.2446 138.4L-47.2256 139.861L-48.2069 141.772ZM105.607 140.677C106.016 142.342 106.177 144.013 106.056 144.337C105.892 144.782 105.198 144.95 103.405 144.95C102.059 144.95 100.876 144.824 100.795 144.62C100.671 144.456 100.467 142.911 100.306 141.206L100.018 138.075L101.814 137.913C102.792 137.83 103.895 137.744 104.26 137.709C104.793 137.623 105.077 138.276 105.607 140.677ZM53.5615 142.793C53.6422 142.835 53.4782 143.161 53.1932 143.526C52.54 144.338 51.97 143.928 51.97 142.63C51.97 141.692 52.0507 141.653 52.704 142.143C53.0696 142.428 53.4782 142.752 53.5615 142.793ZM-52.7367 144.745L-49.594 145.515V148.08V150.682L-50.9005 150.478C-51.6344 150.358 -53.1453 150.154 -54.2851 150.028C-57.874 149.583 -57.874 149.583 -57.5487 147.468C-57.1401 144.458 -56.8551 143.684 -56.3659 143.85C-56.1212 143.928 -54.4894 144.335 -52.7367 144.745ZM94.8377 145.232C95.7759 145.594 97.6927 147.024 99.0799 148.447C104.709 154.055 115.315 156.902 125.595 155.562C134.24 154.42 139.259 151.82 141.542 147.306C142.439 145.515 142.644 145.352 143.254 145.845C146.558 148.448 148.313 152.14 148.313 156.735C148.354 161.372 145.335 168.165 141.87 171.337C140.644 172.478 139.3 173.413 138.81 173.494C137.993 173.614 136.445 175.61 136.851 176.017C136.974 176.138 137.708 176.018 138.523 175.771C139.789 175.404 140.154 175.484 141.87 176.462C144.276 177.885 146.601 180.608 147.496 183.09C148.394 185.572 148.434 190.775 147.58 194.724L146.886 197.734L144.601 198.75C138.891 201.272 133.262 201.761 129.549 200.053C128.366 199.525 126.49 198.143 125.39 197.001C123.474 195.047 123.35 194.809 123.594 193.299C123.799 192.2 123.718 191.713 123.35 191.713C122.697 191.713 121.352 193.378 121.312 194.273C121.312 195.662 119.557 198.426 117.355 200.498C116.008 201.801 113.683 203.347 111.277 204.566C107.524 206.478 107.199 206.556 104.016 206.556C101.325 206.518 100.306 206.359 98.4697 205.503C97.2465 204.932 95.776 204.033 95.206 203.545C94.1872 202.693 94.1872 202.697 95.0017 202.247C96.7975 201.188 99.2439 198.216 100.018 196.059C102.139 190.488 102.059 182.359 99.8568 174.792C97.6927 167.348 93.0043 160.636 88.4745 158.478C87.5793 158.033 86.6411 157.138 86.0282 156.002C85.4583 154.98 85.0093 154.127 85.0093 154.044C85.0093 153.966 85.8238 153.887 86.8024 153.887C88.5175 153.887 88.6788 154.007 93.0043 158.478C98.0207 163.687 99.6525 166.13 101.61 171.494C104.75 180.195 107.973 184.628 112.868 187.033C116.132 188.577 120.374 188.902 123.025 187.766C126.001 186.42 126.858 183.577 125.062 180.808C124.248 179.55 123.963 179.995 123.963 182.478C123.963 184.389 123.839 184.629 122.535 185.525C121.269 186.383 120.78 186.463 118.21 186.3C114.745 186.053 112.624 185.081 109.849 182.478C107.279 180.076 106.096 177.997 103.935 172.059C101.65 165.754 99.4885 162.263 95.327 158.033C93.4533 156.122 91.9424 154.535 91.9424 154.452C91.9424 154.374 92.3914 154.285 92.921 154.285C94.2275 154.285 94.9614 153.312 94.6361 152.049C94.3888 151.111 94.6764 151.236 97.7357 153.436C103.65 157.583 106.545 158.759 114.376 160.185C121.393 161.447 124.452 162.793 127.183 165.677C129.673 168.363 130.856 170.924 130.856 173.897C130.896 176.859 130.038 177.881 127.388 178.001C124.982 178.127 124.941 179.143 127.267 179.671C129.264 180.074 130.815 179.463 132.079 177.755C133.506 175.839 133.302 171.856 131.59 168.441C128.856 162.866 123.678 159.693 115.194 158.353C108.096 157.216 104.954 155.953 97.9804 151.316C94.3888 148.917 93.5742 148.143 93.3699 147.169C93.2059 146.473 93.0043 145.627 92.921 145.217C92.6763 144.38 92.7166 144.38 94.8377 145.232ZM-59.5891 148.484C-59.7934 150.845 -59.6295 153.12 -58.9762 157.353C-58.4869 160.483 -58.038 163.776 -57.9977 164.672C-57.917 166.626 -57.4681 167.435 -56.6508 167.153C-56.3255 166.99 -53.7152 167.725 -50.8575 168.698C-45.8815 170.411 -43.3115 171.059 -38.7844 171.63L-36.7843 171.871L-38.986 173.295C-44.411 176.712 -49.1021 178.139 -53.6292 177.729C-57.8713 177.322 -60.1564 176.714 -63.5006 175.127L-66.6002 173.661L-67.3745 170.604C-68.2724 167.028 -68.3933 160.073 -67.5788 157.148C-66.8852 154.666 -64.3555 150.519 -61.8285 147.672C-60.686 146.41 -59.6268 145.353 -59.5031 145.353C-59.3794 145.353 -59.4251 146.776 -59.5891 148.484ZM64.2072 149.3C66.5729 150.437 69.7532 151.74 71.3446 152.185C74.119 152.96 74.1996 153.004 75.3018 155.154C76.974 158.411 78.4821 163.453 78.4821 165.651C78.4821 167.886 77.5842 170.65 75.4631 175.043C74.6486 176.713 73.9953 178.295 73.9953 178.624C73.9953 179.026 73.5464 179.112 72.2829 178.949C71.3043 178.828 69.2639 178.625 67.6724 178.499C60.1694 177.85 57.1907 175.983 52.2147 168.74L50.7039 166.577L51.3168 164.18C52.0507 161.416 52.7846 155.84 52.8249 152.672L52.8679 150.431L53.4379 153.4C54.4997 159.259 56.2928 163.403 59.0268 166.379C61.0646 168.571 63.1857 169.709 65.839 170.033C67.6321 170.237 67.9171 170.159 68.8553 169.138C71.1807 166.621 71.1404 161.982 68.694 157.143C67.5111 154.824 63.0243 149.816 60.3307 147.824C58.7419 146.655 59.1075 146.775 64.2072 149.3ZM17.2587 149.703C17.299 150.317 16.9307 150.356 16.1565 149.871C15.6672 149.584 15.6672 149.378 16.1161 148.646C16.6458 147.877 16.6861 147.877 16.9737 148.525C17.0947 148.893 17.2587 149.462 17.2587 149.703ZM-51.5538 151.819C-50.4919 151.861 -49.5537 152.022 -49.4327 152.185C-49.3091 152.389 -49.1048 153.65 -48.9435 155.033C-48.6558 157.676 -48.8198 157.883 -50.8199 157.593C-51.1452 157.556 -52.1667 157.429 -53.0619 157.311C-57.3041 156.74 -57.589 156.458 -57.7127 152.63L-57.753 151.217L-55.5916 151.494C-54.4491 151.655 -52.613 151.819 -51.5538 151.819ZM82.8882 154.421C83.7028 155.075 85.8642 159.509 85.4986 159.75C85.0496 160.037 79.7053 160.932 79.544 160.766C79.3397 160.562 76.4417 153.774 76.4417 153.567C76.4417 153.246 82.399 154.019 82.8882 154.421ZM11.7504 155.604C11.5891 155.885 11.0998 156.621 10.6912 157.232C6.65334 163.049 5.14519 171.179 7.26358 175.656C8.52977 178.462 10.5272 180.08 12.159 179.755C18.1566 178.536 21.5815 169.342 19.5411 159.829C18.8905 156.698 18.9711 155.841 19.7454 158.243C20.5223 160.642 23.6622 166.783 25.2537 168.981L26.6409 170.928L25.2537 175.331C23.8262 179.88 22.3557 182.566 20.2776 184.483C19.6244 185.126 16.8904 186.714 14.1994 188.012L9.34433 190.415L5.55112 186.593C0.249786 181.264 -0.40345 179.715 -0.527115 172.923C-0.527115 170.033 -0.484108 167.351 -0.363136 166.944C-0.239471 166.499 1.26867 165.076 3.02413 163.693C4.7769 162.352 7.42757 159.865 8.97871 158.201C11.7504 155.153 12.323 154.625 11.7504 155.604ZM-21.7351 162.923C-22.5927 163.896 -25.5283 166.096 -25.937 166.096C-26.5902 166.096 -28.671 160.278 -28.0984 160.117C-27.8537 160.039 -26.3456 159.059 -24.6735 157.96L-21.6545 155.928L-21.3292 159.017C-21.0012 161.703 -21.0846 162.189 -21.7351 162.923ZM-49.0644 159.143C-48.6558 159.545 -48.6155 160.884 -48.9435 162.436C-49.0644 163.002 -49.2687 164.274 -49.3897 165.29L-49.6344 167.117L-52.8173 166.101L-56.0406 165.085L-56.2449 163.457C-56.3686 162.562 -56.6105 161.058 -56.7745 160.122L-57.0191 158.415L-53.2259 158.62C-51.1452 158.695 -49.2687 158.939 -49.0644 159.143ZM-42.048 161.258C-42.048 161.583 -42.2119 163.411 -42.4163 165.363C-42.7819 169.346 -42.7415 169.346 -45.9245 168.373L-47.7606 167.844L-47.8009 164.227C-47.8412 159.144 -47.7606 159.059 -44.618 159.955C-43.0292 160.4 -42.048 160.886 -42.048 161.258ZM-28.7516 163.776C-28.3833 165.165 -28.0177 166.541 -27.937 166.871C-27.6924 167.64 -32.8701 169.595 -33.319 168.86C-33.483 168.619 -33.768 167.032 -33.932 165.405C-34.096 163.373 -34.3406 162.436 -34.7062 162.436C-35.4831 162.436 -35.5638 162.924 -35.2788 166.216C-35.1552 167.803 -35.1148 169.27 -35.1955 169.431C-35.4401 169.919 -39.357 169.798 -40.2952 169.31C-41.0694 168.903 -41.1097 168.619 -40.8651 165.164C-40.7038 163.127 -40.5398 161.422 -40.4995 161.379C-40.4592 161.296 -39.6823 161.421 -38.787 161.625C-36.502 162.153 -34.2169 162.109 -31.8512 161.452C-30.7087 161.17 -29.7301 161.008 -29.6495 161.085C-29.5258 161.174 -29.1602 162.396 -28.7516 163.776ZM87.0067 164.185C87.2513 165.608 87.4557 166.909 87.4557 167.075C87.4557 167.233 85.8239 167.317 83.7861 167.279L80.1139 167.153V165.525C80.1139 164.592 79.9929 163.453 79.8693 162.965C79.6246 162.153 79.7886 162.071 81.786 161.907C87.09 161.54 86.5174 161.293 87.0067 164.185ZM-20.4716 165.525C-19.6141 167.723 -20.5926 169.676 -26.1413 176.63C-28.0177 178.948 -31.6066 182.08 -34.0126 183.42C-40.0102 186.798 -41.4377 187.775 -43.5588 189.928C-46.2901 192.697 -48.1665 195.953 -48.6988 198.886C-49.758 204.78 -47.352 210.022 -43.5991 210.022C-41.9673 210.022 -39.2763 208.56 -39.521 207.833C-39.6823 207.34 -40.0102 207.336 -42.2523 207.907C-44.7013 208.478 -46.0455 207.175 -46.6987 203.634C-47.8009 197.78 -44.0481 191.315 -37.4402 187.65C-29.7705 183.383 -25.8563 180.005 -22.2244 174.598L-20.063 171.384L-19.5334 172.651C-19.0441 173.827 -18.8802 173.912 -17.536 173.708C-16.7591 173.582 -16.1488 173.581 -16.2295 173.745C-20.9206 183.347 -21.5308 185.581 -21.4905 193.106C-21.4502 201.812 -22.7137 206.205 -26.2219 209.781C-29.2812 212.912 -34.3406 214.257 -36.1337 212.467C-36.5826 212.022 -36.9509 211.294 -36.9509 210.849C-36.9509 209.624 -36.9913 209.461 -37.4402 208.933C-38.1338 208.12 -38.5827 208.73 -38.5827 210.472C-38.5827 213.933 -36.623 215.561 -32.7491 215.231C-29.8941 214.99 -27.1198 213.568 -24.7541 211.043C-20.8803 206.939 -19.9017 203.807 -19.6974 194.326C-19.4931 186.316 -18.7995 183.511 -15.3719 176.185C-13.5385 172.201 -13.3342 171.917 -11.6621 171.263L-9.94695 170.614L-10.1916 172.729C-10.3959 174.238 -10.8045 175.169 -11.6621 176.064C-13.5385 178.018 -14.923 180.949 -15.9849 185.095C-19.2888 198.19 -13.2509 216.091 -4.60529 218.812C-3.3391 219.22 -2.27989 219.746 -2.27989 219.99C-2.27989 220.969 -4.80959 223.935 -6.64301 225.069C-9.74531 227.023 -12.1514 227.634 -15.6999 227.388C-21.6545 226.943 -26.8752 224.948 -29.4452 222.142C-30.2194 221.289 -30.8324 220.429 -30.8324 220.231C-30.8324 220.027 -31.1577 219.787 -31.5259 219.618C-31.9346 219.498 -32.5045 219.252 -32.7491 219.131C-33.483 218.807 -33.4024 220.026 -32.6685 221.163C-32.0959 222.021 -32.0959 222.304 -32.7088 223.891C-34.3809 228.198 -37.2762 231.006 -41.3141 232.225C-43.6394 232.917 -51.3898 233.409 -52.613 232.964C-53.6319 232.556 -56.5299 227.713 -57.6294 224.582C-59.1375 220.309 -59.0972 217.381 -57.425 214.006C-55.8336 210.754 -54.4464 209.414 -52.8576 209.535C-52.2044 209.572 -51.5538 209.413 -51.3898 209.126C-50.9812 208.478 -52.6963 207.419 -54.2851 207.336C-58.5676 207.215 -65.1754 201.687 -68.2347 195.744C-69.2133 193.833 -69.3772 193.103 -69.3772 189.891C-69.3369 187.122 -69.1729 185.858 -68.603 184.808C-67.2562 182.242 -67.2159 182.241 -65.1351 183.949C-62.4844 186.19 -59.6295 187.002 -54.8981 186.959C-46.6987 186.839 -36.7869 182.975 -30.8324 177.603C-27.6494 174.676 -24.9584 170.973 -24.4692 168.818C-24.3052 168.092 -23.5713 166.951 -22.7137 166.216C-21.0012 164.712 -20.7969 164.63 -20.4716 165.525ZM-2.19924 171.666L-2.32021 175.368L-4.89024 175.818C-9.09205 176.55 -8.9684 176.63 -8.68343 173.823C-8.51945 172.44 -8.19416 170.975 -7.98985 170.53C-7.5409 169.713 -2.6455 167.235 -2.27989 167.682C-2.15623 167.803 -2.11591 169.592 -2.19924 171.666ZM84.52 168.782L87.496 169.064L87.211 170.928C86.8024 173.614 86.3534 174.63 85.5389 174.63C85.1302 174.63 83.3372 174.267 81.5414 173.865C79.1757 173.337 78.3181 172.969 78.4418 172.562C79.6246 168.578 79.9096 168.091 80.7268 168.295C81.1758 168.418 82.8882 168.621 84.52 168.782ZM51.6421 170.693C52.255 171.631 53.2335 172.927 53.8465 173.541C54.7847 174.557 54.8654 174.839 54.4567 175.614C53.8062 176.791 51.1958 179.52 50.7039 179.52C50.2979 179.52 48.0532 176.18 47.6472 174.923C47.3596 174.065 49.4807 168.984 50.1339 168.944C50.3786 168.944 51.0318 169.714 51.6421 170.693ZM91.2489 175.855C94.0635 183.216 92.8 191.393 87.7836 198.226C86.1518 200.419 85.9072 200.587 83.9877 200.828C78.7267 201.442 73.7103 200.665 69.2236 198.593C66.5326 197.29 62.6964 193.792 60.1694 190.294C58.8629 188.466 58.8226 188.382 59.7608 188.666C63.554 189.891 65.511 190.174 71.7533 190.378C75.5868 190.499 78.8907 190.784 79.1757 190.991C79.8289 191.524 81.3371 190.499 81.3371 189.483C81.3371 189.032 81.9903 187.576 82.8049 186.273C85.9072 181.105 87.9852 176.383 88.8831 172.399C89.1278 171.257 89.1681 171.262 89.617 172.001C89.8617 172.444 90.5956 174.19 91.2489 175.855ZM32.0228 176.792C32.4315 177.524 31.8185 181.715 31.168 182.771C30.9233 183.178 30.1894 182.934 28.1087 181.797C26.6409 180.945 25.458 180.049 25.579 179.802C25.6596 179.521 26.1489 178.011 26.6409 176.467C27.1705 174.88 27.6597 173.373 27.7404 173.049C27.864 172.646 28.4743 173.011 29.7808 174.268C30.7997 175.247 31.8185 176.382 32.0228 176.792ZM82.8049 175.734L85.7029 176.467L84.6813 178.787C83.5415 181.473 83.0925 181.632 79.38 180.53C78.1971 180.163 77.0949 179.959 76.9337 180.08C76.7697 180.163 76.3207 180.003 75.9121 179.713C75.2588 179.225 75.2588 179.105 76.0358 177.237C77.2589 174.468 77.5036 174.227 78.8101 174.672C79.4203 174.881 81.2161 175.367 82.8049 175.734ZM58.6182 177.729C59.7608 178.498 60.4947 179.111 60.25 179.111C59.9651 179.111 59.1075 180.372 58.2499 181.959C57.4353 183.503 56.5375 184.813 56.2928 184.813C56.0482 184.813 54.9057 183.99 53.8062 183.012L51.7658 181.274L53.0696 179.808C53.7632 179.033 54.661 177.813 55.0697 177.122C55.4783 176.473 55.9676 175.985 56.1289 176.106C56.3332 176.229 57.4354 176.954 58.6182 177.729ZM-1.66696 178.703C-1.0164 181.142 -0.0781708 182.892 1.63697 184.766L3.02413 186.352L0.0454865 188.221C-4.19666 190.824 -4.116 190.824 -5.25854 188.996C-7.41993 185.535 -7.50058 185.826 -4.32032 184.362C-1.21802 182.939 -0.199158 182.122 -1.09705 181.755C-1.42233 181.635 -2.97347 182.08 -4.52193 182.729C-6.11341 183.421 -7.50059 183.828 -7.66457 183.624C-8.11353 183.217 -8.92808 178.665 -8.60279 178.378C-8.27482 178.011 -3.42242 176.751 -2.72884 176.834C-2.36053 176.869 -1.9116 177.644 -1.66696 178.703ZM47.5236 178.378C48.2172 179.641 48.4618 180.615 48.3812 181.797C48.0935 185.373 50.7469 192.085 54.2551 196.64C58.7419 202.457 66.4493 207.95 72.7318 209.776C75.7508 210.671 79.216 210.594 81.7054 209.613C83.0092 209.125 83.8264 208.96 83.9877 209.242C84.6007 210.18 84.192 214.86 83.3372 217.173C81.665 221.567 75.7911 226.126 69.6725 227.712C66.9385 228.404 64.0836 228.525 62.9814 227.911C62.0458 227.424 59.7204 227.839 59.7204 228.487C59.7204 228.769 60.3307 229.215 61.1076 229.456C62.2904 229.906 62.6561 230.309 63.2287 232.1C64.1239 234.665 64.2072 238.564 63.4303 240.519C62.8604 241.907 60.9436 244.832 59.4328 246.623C59.0268 247.068 57.68 248.25 56.4568 249.183C55.2337 250.116 54.0911 251.053 53.9272 251.257C53.5185 251.827 49.1554 250.526 45.8111 248.859C40.1818 246.009 37.7758 242.717 37.4075 237.267C37.2032 234.257 37.2032 234.136 38.2651 233.482C38.835 233.08 39.3243 232.509 39.3243 232.142C39.3243 231.329 37.1225 231.734 35.6951 232.833C32.3508 235.436 23.4982 235.436 17.912 232.833C13.8714 230.964 10.6912 227.058 10.0782 223.273L9.83359 221.812H12.6483C14.729 221.812 15.9925 221.565 17.5033 220.833C25.7027 217.011 33.6546 204.688 34.8778 193.912C35.2864 190.17 34.8375 185.981 33.8186 183.944C33.3293 183.005 33.2891 182.399 33.6547 180.734C33.8993 179.635 34.2273 178.698 34.3886 178.698C34.5526 178.698 35.2058 179.227 35.8161 179.876C37.2435 181.342 37.3672 182.399 37.4075 190.902L37.4478 197.205L35.0821 204.079L32.7164 210.954L32.8804 215.053C33.0041 218.388 33.2487 219.577 34.1036 221.446C37.6118 229.053 45.5665 231.535 47.3999 225.592C47.9725 223.807 47.3193 222.708 46.5047 224.011C45.1176 226.247 44.545 226.692 43.0368 226.692C41.9776 226.692 40.9561 226.324 39.8136 225.472C36.4693 223.073 34.7568 219.242 34.7165 214.283C34.7165 211.52 34.9208 210.379 36.2247 206.755C39.284 198.295 39.448 197.651 39.448 191.708C39.4883 188.698 39.3646 185.528 39.2033 184.718L38.8753 183.174L40.1415 183.897C41.405 184.593 41.405 184.594 42.3432 183.535L43.2411 182.478L44.424 186.745C46.0155 192.645 48.0129 196.424 52.3356 201.593C56.2525 206.351 58.2096 209.644 58.6989 212.247C59.5564 216.97 58.4139 221.562 55.7633 223.838C54.0911 225.347 52.8249 225.383 51.2361 224.042C48.8301 222.048 48.2172 223.429 50.5023 225.712C51.6421 226.849 52.2147 227.095 53.5615 227.095C54.989 227.095 55.5186 226.849 57.231 225.142C59.7204 222.703 60.9436 219.649 60.9436 215.786C60.9436 210.623 59.1478 206.634 54.2551 200.86C52.3357 198.624 50.0533 195.414 49.1554 193.75C47.6473 190.938 44.6283 181.631 44.6283 179.797C44.6283 178.902 45.7278 176.666 46.1768 176.666C46.3811 176.674 46.9537 177.445 47.5236 178.378ZM64.5325 179.76C65.5514 179.924 66.2046 180.207 66.1239 180.493C66.0406 180.74 65.4707 182.448 64.8578 184.279C64.0432 186.756 63.5539 187.651 63.0647 187.614C61.8818 187.571 58.4946 186.225 58.4542 185.823C58.4542 185.577 59.0269 183.99 59.7608 182.242C60.9033 179.519 61.2286 179.11 61.9625 179.274C62.4114 179.394 63.554 179.6 64.5325 179.76ZM72.0786 180.289C73.4254 180.332 73.4657 180.778 72.3635 183.949C70.8554 188.468 70.8554 188.467 68.53 188.467C67.3875 188.467 66.2449 188.303 66.0003 188.137C65.6347 187.939 65.796 186.755 66.5729 183.87L67.5918 179.881L69.2639 180.085C70.2021 180.206 71.4253 180.289 72.0786 180.289ZM77.0143 181.101C77.1353 181.304 78.4418 181.799 79.8693 182.164L82.4796 182.855L80.9715 185.86L79.501 188.834L76.5653 188.87C72.3232 188.87 72.3635 188.912 73.2211 185.781C73.6297 184.315 73.8313 182.891 73.7104 182.567C73.5867 182.242 73.7104 181.959 73.955 181.959C74.1996 181.959 74.4039 181.674 74.4039 181.347C74.4039 180.701 76.646 180.457 77.0143 181.101ZM30.2701 185.048C30.5147 185.212 28.27 189.239 27.7 189.687C27.4151 189.928 26.4366 189.32 24.6811 187.776C22.7643 186.063 22.0304 185.618 21.6621 185.985C21.3368 186.31 21.8261 187.084 23.7832 189.033L26.3532 191.64L24.2321 193.305C23.0923 194.243 21.9498 194.975 21.7455 194.975C21.4175 194.975 16.8904 189.237 16.8904 188.792C16.8904 188.628 17.8689 187.974 19.0518 187.326C21.2562 186.106 23.5386 183.828 24.3155 182.164C24.7214 181.225 24.7214 181.224 27.4554 183.095C28.9232 184.111 30.2298 185.005 30.2701 185.048ZM5.95975 189.153C7.63187 190.866 7.79587 191.191 7.34692 191.802C7.06197 192.204 6.69366 192.535 6.61301 192.535C6.48935 192.535 5.10219 193.258 3.59405 194.153L0.819725 195.781L-0.933052 194.074C-1.91159 193.136 -2.68851 192.24 -2.68851 192.08C-2.68851 191.919 -1.50566 191.02 -0.0781708 190.085C1.39233 189.147 2.7768 188.132 3.06445 187.807C3.75803 187.001 3.879 187.043 5.95975 189.153ZM-6.60268 190.336C-5.09454 192.698 -1.42233 196.477 2.69615 199.854C4.4086 201.278 5.87909 202.738 6.00006 203.106C6.20438 203.923 7.4679 204 8.36578 203.268C8.69376 202.944 10.8955 202.011 13.2612 201.153C18.3179 199.241 21.2965 197.818 23.9472 195.907C25.0494 195.137 26.0279 194.566 26.1086 194.687C26.3532 194.934 24.4364 200.263 23.2133 202.702C21.4605 206.158 19.99 207.785 16.3608 210.184C12.6079 212.666 11.7504 213.073 7.75552 214.132L4.94089 214.865L2.57519 213.273C-1.83094 210.263 -6.11341 204.938 -7.46025 200.792C-8.11351 198.714 -8.64312 188.467 -8.11353 188.467C-7.90921 188.467 -7.25594 189.323 -6.60268 190.336ZM17.8286 192.776L20.1943 196.237L17.8286 197.252L15.4629 198.305L14.2397 196.891C9.75294 191.849 9.75294 191.808 12.487 190.425C13.6698 189.811 14.8527 189.326 15.0543 189.326C15.3016 189.323 16.5248 190.865 17.8286 192.776ZM9.6723 193.101C10.0379 193.382 10.3659 193.754 10.3659 193.917C10.3659 194.081 11.0998 195.258 11.9977 196.598L13.5865 198.959L10.3659 200.263L7.10228 201.561L4.65323 199.242L2.24721 196.886L4.57259 195.216C5.83609 194.32 7.14261 193.348 7.42757 193.059C8.12115 192.41 8.73409 192.409 9.6723 193.101Z" fill="#E3B450" fill-opacity="0.45"/>
<path d="M40.8084 19.5691C40.7681 19.8935 39.3406 21.3158 37.6685 22.7419C32.2838 27.2131 28.6143 32.8249 26.0443 40.553C23.3103 48.6886 23.1893 53.7729 25.391 69.5106C26.5335 77.9705 27.0228 87.1229 26.2889 86.2276C25.8399 85.7826 23.5549 79.1916 22.985 76.7094C22.7403 75.6935 21.9231 71.8722 21.1488 68.1703C17.9283 52.9205 15.2749 47.2252 7.89282 39.5374C3.57003 35.0661 -1.36568 31.9307 -7.32027 29.8988C-8.74776 29.4109 -10.0139 28.8391 -10.1349 28.5951C-10.6672 27.8258 -11.6861 28.6382 -11.6458 29.815C-11.6458 30.4289 -11.8501 32.0139 -12.135 33.3542C-13.3582 39.2971 -12.584 47.0598 -10.014 54.1392C-7.15897 61.9504 -3.36578 66.9499 6.34168 75.5733C13.8474 82.2855 20.8639 89.525 20.3343 90.0128C19.845 90.5007 12.2156 85.5785 7.19925 81.5523C-8.4628 68.9401 -16.3368 65.5685 -29.4692 65.8929C-34.8942 66.0564 -37.6282 66.5412 -41.9107 68.2541C-43.1339 68.742 -44.521 69.1058 -45.0506 69.0656C-46.1528 68.9878 -46.3571 70.208 -45.3356 71.0551C-45.0103 71.3419 -44.3167 72.322 -43.8678 73.2173C-39.7089 81.3475 -30.7757 88.6677 -20.9446 92.0023C-15.6836 93.793 -12.4603 94.1599 3.97596 94.8086C9.68861 95.0552 17.6406 96.1102 17.6406 96.641C17.6406 97.1717 9.68861 98.232 3.97596 98.4787C-12.4603 99.1273 -15.6836 99.4943 -20.9446 101.285C-30.7757 104.62 -39.7089 111.94 -43.8678 120.075C-44.3167 120.965 -45.0103 121.943 -45.3356 122.227C-46.3571 123.079 -46.1528 124.305 -45.0506 124.222C-44.521 124.179 -43.1339 124.545 -41.9107 125.033C-37.6282 126.746 -34.8942 127.231 -29.4692 127.394C-16.3368 127.719 -8.4628 124.342 7.19925 111.735C12.2156 107.709 19.845 102.787 20.3343 103.274C20.8639 103.762 13.8474 111.002 6.34168 117.714C-3.36578 126.337 -7.15897 131.337 -10.014 139.148C-12.584 146.227 -13.3582 153.996 -12.135 159.933C-11.8501 161.273 -11.6458 162.861 -11.6458 163.472C-11.6861 164.649 -10.6672 165.461 -10.1349 164.692C-10.0139 164.445 -8.74776 163.874 -7.32027 163.388C-1.36568 161.357 3.57003 158.226 7.89282 153.75C15.2749 146.065 17.9283 140.369 21.1488 125.117C21.9231 121.415 22.7403 117.594 22.985 116.578C23.5549 114.096 25.8399 107.505 26.2889 107.06C27.0228 106.164 26.5335 115.306 25.391 123.766C23.1893 139.509 23.3103 144.594 26.0443 152.724C28.6143 160.457 32.2838 166.072 37.6685 170.54C39.3406 171.964 40.7681 173.388 40.8084 173.713C41.0127 174.565 42.7279 174.366 42.7279 173.519C42.7682 173.189 43.6231 171.352 44.6446 169.441C48.3142 162.771 49.497 157.975 49.497 149.917C49.497 141.096 48.0695 136.218 42.0343 124.745C39.9938 120.802 37.6685 116.405 36.9346 114.944C35.3028 111.687 33.0607 105.588 33.4667 105.588C33.671 105.588 34.8135 106.812 36.0367 108.321C38.2814 111.002 40.4428 114.212 46.6017 124.012C52.9246 133.981 58.0216 138.938 66.3849 143.085C72.0545 145.937 79.6006 147.609 84.8616 147.164C86.2488 147.08 87.2273 147.2 87.636 147.525C88.6145 148.342 89.2678 147.404 88.6951 145.98C88.4505 145.372 88.0446 143.661 87.7973 142.2C86.1251 131.301 78.2941 120.476 67.6081 114.217C64.9574 112.707 61.0809 110.959 49.8653 106.41C45.3785 104.577 38.0368 100.714 38.0368 100.185C38.0368 100.022 38.4427 99.981 38.975 100.102C39.4642 100.185 41.3407 100.552 43.1338 100.877C44.9296 101.201 47.5802 101.892 49.0481 102.337C60.5916 106.079 63.081 106.857 65.8957 107.588C79.7619 111.207 94.6927 107.874 104.156 99.1331C105.134 98.2378 106.277 97.4682 106.683 97.4682C107.091 97.4682 107.376 97.1341 107.376 96.6462C107.376 96.1584 107.091 95.8347 106.683 95.8347C106.277 95.8347 105.134 95.0599 104.156 94.1646C94.6927 85.4205 79.7619 82.0852 65.8957 85.704C63.081 86.4358 60.5916 87.2133 49.0481 90.95C47.5802 91.4003 44.9296 92.0968 43.1338 92.4212C41.3407 92.7455 39.4642 93.1078 38.975 93.1856C38.4427 93.3115 38.0368 93.2731 38.0368 93.1123C38.0368 92.5842 45.3785 88.7179 49.8653 86.8925C61.0809 82.3328 64.9574 80.5822 67.6081 79.0811C78.2941 72.8193 86.1251 61.9966 87.7973 51.0973C88.0446 49.6311 88.4505 47.9231 88.6951 47.3173C89.2678 45.8939 88.6145 44.9553 87.636 45.7728C87.2273 46.0972 86.2488 46.2171 84.8616 46.1393C79.6006 45.689 72.0545 47.3632 66.3849 50.2073C58.0216 54.3595 52.9246 59.3165 46.6017 69.2802C40.4428 79.0804 38.2814 82.2993 36.0367 84.9396C34.8135 86.489 33.671 87.704 33.4667 87.704C33.0607 87.704 35.3028 81.6103 36.9346 78.3534C37.6685 76.8871 39.9938 72.4983 42.0343 68.5525C48.0695 57.0823 49.497 52.1969 49.497 43.3697C49.497 35.3173 48.3142 30.5211 44.6446 23.8518C43.6231 21.9405 42.7682 20.1081 42.7279 19.7838C42.7279 18.9126 41.0127 18.7167 40.8084 19.5691ZM43.5424 25.3439C46.7657 32.1338 47.2146 34.2475 47.2146 43.1551C47.2146 51.6579 46.8866 53.406 44.1553 59.6679C42.2789 63.9407 36.8136 74.191 36.8136 73.4163C36.8136 73.2957 37.5475 71.1813 38.4024 68.6991C41.0557 61.2953 42.8085 52.7583 41.7466 52.1444C41.3004 51.863 40.8084 52.512 40.6471 53.6941C39.9939 58.5674 38.4857 63.5371 33.7543 76.7094C31.9182 81.8776 31.144 84.6049 31.2649 85.3742C31.7139 87.6527 29.7138 92.9379 28.7782 92.0023C28.2056 91.4367 28.6143 85.5793 29.2245 85.0915C29.6734 84.7242 29.8374 81.999 30.0417 71.4268C30.2057 62.7203 30.4907 56.9468 30.8563 54.5423C31.6332 50.0282 31.6332 50.2754 30.9396 50.2754C30.4074 50.2754 30.0417 51.3333 29.0229 55.5632C28.8186 56.5792 28.4906 60.8532 28.3696 65.118L28.0847 72.8456L27.1868 66.5421C25.8803 57.6372 25.5953 53.1564 26.1652 48.8461C27.0228 42.5011 30.4074 33.9655 33.9156 29.3281C35.2221 27.6206 41.2574 21.3963 41.5853 21.3963C41.666 21.399 42.5639 23.1431 43.5424 25.3439ZM-3.2018 33.6422C1.44896 35.9984 5.52712 39.4974 9.6456 44.6629C14.092 50.1929 16.4174 55.8466 18.6622 66.5421C19.2321 69.3486 19.8047 72.0706 19.9257 72.6362C20.3343 74.5528 19.7214 73.255 17.8853 68.296C15.3582 61.5007 11.1968 53.935 10.0139 53.935C9.32032 53.935 9.36064 54.7863 10.0542 55.7674C12.2156 58.9412 15.1943 65.8095 20.3343 79.6413C21.9661 84.1125 22.9043 86.0653 23.3102 86.0653C24.0038 86.1082 26.2082 90.5749 26.2082 91.8348C26.2082 92.6095 25.5147 92.7739 24.7808 92.2432C23.7995 91.5516 21.3532 87.6457 21.5575 87.1176C21.7215 86.7504 19.3558 83.5786 15.3179 78.657C6.66965 68.1652 3.08076 63.3273 1.6936 60.3171C1.40864 59.7032 1.04034 59.2176 0.87635 59.2176C0.0617943 59.2176 0.142456 60.1948 1.04035 61.9505C3.40606 66.4995 4.7529 68.5357 8.42244 73.0498C9.97359 74.9611 11.522 76.8716 11.8903 77.322C13.0732 78.7829 8.13746 74.5142 3.44637 70.0027C-3.16148 63.6927 -5.60783 60.0774 -8.17784 52.8774C-10.4629 46.5325 -11.0731 42.7868 -10.7479 37.0557C-10.6242 34.3751 -10.3796 31.7715 -10.2586 31.281C-10.014 30.4688 -9.93061 30.4727 -8.62679 31.0035C-7.85256 31.3251 -5.40352 32.5002 -3.2018 33.6422ZM86.9827 47.6733C86.9827 48.322 84.8616 55.7248 84.168 57.4323C83.0658 60.2389 81.926 62.1562 78.7834 66.3379C74.5843 71.9912 69.9335 75.8968 64.1805 78.6256C60.8363 80.1696 49.4567 84.8056 49.4567 84.6046C49.4567 84.5215 51.6181 83.1802 54.2687 81.6308C56.9221 80.0868 60.1024 78.0114 61.3255 77.0759C63.9359 75.044 67.4038 71.7934 67.4038 71.343C67.4038 70.815 65.8553 70.9762 65.487 71.5472C64.4278 73.3378 53.9838 80.0504 39.9939 88.06C38.5664 88.8722 37.6282 89.6464 37.6282 90.0914C37.6282 90.8232 33.55 93.7929 32.5284 93.7929C31.3886 93.7929 31.9182 92.4093 33.835 90.4579C34.8942 89.399 36.077 88.505 36.4453 88.505C36.8136 88.505 40.1175 84.9727 43.8274 80.657C50.8438 72.5214 56.2688 66.8319 59.0432 64.6311C60.226 63.6929 60.5513 63.2068 60.226 62.8825C59.9383 62.601 59.0028 63.0461 56.9624 64.5526C53.2096 67.3591 51.7014 68.8194 47.5399 73.7409C45.6232 76.0596 43.951 77.9345 43.8677 77.9345C43.6661 77.9345 44.1957 76.9924 47.5399 71.6205C55.4946 58.8502 63.1213 52.4722 74.5412 49.0974C78.2135 48.001 86.9827 47.0166 86.9827 47.6733ZM-21.6785 68.3326C-12.6646 69.9195 -7.80954 72.3207 1.93824 80.0863C6.79063 83.9919 7.72885 84.845 5.81209 83.7459C5.03786 83.301 3.04045 82.1642 1.40865 81.1858C-3.32276 78.4998 -10.6672 75.4895 -12.6243 75.4895C-14.1728 75.4895 -13.2776 76.6304 -11.1968 77.322C-7.64825 78.4639 -2.63188 80.9452 7.36323 86.5208C12.8286 89.6088 17.1513 91.7661 17.56 91.683C18.5788 91.4015 23.5146 93.8812 23.6785 94.6934C23.7995 95.2643 23.5549 95.4211 22.6597 95.4211C20.7402 95.3782 17.56 94.3666 17.1917 93.6777C16.99 93.3105 16.1325 92.8988 15.2749 92.7353C0.0214806 90.0494 -7.27995 88.5058 -12.6646 86.7982C-14.826 86.1067 -16.7428 85.6557 -16.9068 85.8192C-18.0493 86.9611 -9.97363 89.8126 -0.102188 91.7667L3.97596 92.5416L-3.44642 92.3688C-16.5815 92.0016 -21.7618 90.5412 -30.8967 84.6412C-35.6684 81.5103 -37.7492 79.3591 -42.1956 72.9713C-43.4188 71.2235 -43.8274 70.2069 -43.3382 70.2069C-43.2575 70.2069 -42.115 69.9197 -40.8085 69.5525C-35.6684 68.1291 -33.792 67.844 -29.4692 67.8038C-26.9825 67.7609 -23.5146 68.0083 -21.6785 68.3326ZM85.3509 87.1647C90.2866 88.1378 94.6094 89.7253 97.7924 91.7196C101.79 94.242 104.93 96.3944 104.93 96.641C104.93 96.8822 101.79 99.0399 97.7924 101.562C90.042 106.406 77.2752 108.274 67.8124 105.955C63.5703 104.939 52.1503 101.154 53.1289 101.154C53.4542 101.111 55.8602 101.484 58.4302 101.929C63.6106 102.867 73.6864 103.149 74.4606 102.374C75.0735 101.765 74.5412 101.682 67.6081 101.154C64.2638 100.913 56.7581 99.8905 50.9648 98.9603C43.0128 97.6147 40.2788 97.2894 39.9536 97.6567C39.3003 98.3054 34.1199 97.9435 33.5097 97.2117C33.1414 96.7613 33.1414 96.5207 33.5097 96.0703C34.1199 95.3439 39.3003 94.9712 39.9536 95.6253C40.2788 95.9872 43.0128 95.6725 50.9648 94.3269C56.7581 93.3887 64.2638 92.3718 67.6081 92.1332C74.5412 91.6051 75.0735 91.5192 74.4606 90.9133C73.6864 90.1387 63.6106 90.4255 58.4302 91.3584C55.8602 91.8087 53.4542 92.1707 53.1289 92.1332C52.352 92.1332 62.5917 88.6686 66.5892 87.6097C72.6245 86.0202 78.907 85.862 85.3509 87.1647ZM29.9181 95.2588C30.695 95.9504 30.652 97.2538 29.8375 98.0232C28.2057 99.5725 26.0846 98.7989 26.0846 96.641C26.0846 94.4831 28.1653 93.7121 29.9181 95.2588ZM23.6785 98.5519C23.5146 99.4044 18.5788 101.886 17.56 101.604C17.1513 101.521 12.8286 103.676 7.36323 106.766C-2.63188 112.342 -7.64825 114.818 -11.1968 115.96C-13.2776 116.652 -14.1728 117.798 -12.6243 117.798C-10.6672 117.798 -3.32276 114.787 1.40865 112.101C3.04045 111.128 5.03786 109.986 5.81209 109.541C7.72885 108.442 6.79063 109.295 1.93824 113.201C-7.80954 120.964 -12.6646 123.368 -21.6785 124.955C-27.9207 126.054 -33.7113 125.681 -40.8085 123.735C-42.115 123.367 -43.2575 123.08 -43.3382 123.08C-44.0721 123.08 -42.9699 121.213 -39.1767 116.128C-35.5878 111.284 -28.1224 106.08 -21.1489 103.557C-16.4175 101.815 -11.9307 101.157 -3.44642 100.918L3.97596 100.756L-0.102188 101.526C-7.80955 103.07 -15.1943 105.349 -16.5815 106.651C-17.8047 107.75 -16.5385 107.706 -12.6646 106.484C-7.27995 104.776 0.0214806 103.227 15.2749 100.547C16.1325 100.383 16.99 99.9768 17.1917 99.6095C17.6003 98.8777 20.294 97.9832 22.4554 97.9027C23.5549 97.8599 23.7995 98.0239 23.6785 98.5519ZM35.3861 100.992C36.6496 101.844 37.6282 102.826 37.6282 103.191C37.6282 103.636 38.5664 104.41 39.9939 105.222C53.9838 113.237 64.4278 119.944 65.487 121.735C65.8553 122.306 67.4038 122.467 67.4038 121.939C67.4038 121.494 63.9359 118.233 61.3255 116.196C60.1024 115.263 56.9221 113.195 54.2687 111.651C51.6181 110.102 49.4567 108.761 49.4567 108.677C49.4567 108.474 60.8363 113.112 64.1805 114.662C69.9335 117.385 74.5843 121.291 78.7834 126.944C81.926 131.134 83.0658 133.038 84.168 135.844C85.2299 138.404 87.1064 145.488 86.8187 145.734C86.2891 146.3 76.7456 144.915 73.4417 143.776C62.2234 140.08 55.3306 134.18 47.5399 121.651C44.1957 116.284 43.6661 115.353 43.8677 115.353C43.951 115.353 45.6232 117.221 47.5399 119.499C51.7014 124.458 53.2096 125.928 56.9624 128.729C59.0028 130.239 59.9383 130.684 60.226 130.4C60.5513 130.075 60.226 129.581 59.0432 128.651C56.2688 126.453 50.8438 120.762 43.8274 112.583C40.1578 108.316 36.8136 104.777 36.4856 104.777C35.5877 104.777 31.9182 101.112 31.9182 100.217C31.9182 99.1232 32.8967 99.3271 35.3861 100.992ZM26.2082 101.4C26.2082 102.703 24.0038 107.174 23.3102 107.217C22.9043 107.217 21.9661 109.165 20.3343 113.599C15.1943 127.468 12.2156 134.341 10.0542 137.515C9.36064 138.493 9.32032 139.352 10.0139 139.352C11.1968 139.352 15.3582 131.786 17.8853 124.996C19.7214 120.032 20.3343 118.729 19.9257 120.641C19.8047 121.211 19.2321 123.939 18.6622 126.745C16.4174 137.441 14.092 143.092 9.6456 148.624C5.03785 154.358 1.44897 157.33 -4.58896 160.294C-10.8285 163.431 -10.3796 163.711 -10.7479 156.315C-11.0731 150.456 -10.4629 146.757 -8.17784 140.41C-5.60783 133.21 -3.16148 129.589 3.44637 123.284C8.13746 118.77 13.0732 114.499 11.8903 115.965C11.522 116.41 9.97359 118.321 8.42244 120.237C4.7529 124.751 3.40606 126.78 1.04035 131.337C0.142456 133.09 0.0617943 134.064 0.87635 134.064C1.04034 134.064 1.40864 133.581 1.6936 132.97C3.08076 129.965 6.66965 125.117 15.3179 114.62C19.3558 109.704 21.7215 106.534 21.5575 106.17C21.3532 105.642 23.7995 101.736 24.7808 101.044C25.5147 100.508 26.2082 100.666 26.2082 101.4ZM29.8375 101.683C30.5714 102.535 31.5096 106.648 31.2649 107.908C31.144 108.677 31.9182 111.407 33.7543 116.573C38.4857 129.75 39.9939 134.709 40.6471 139.593C40.8084 140.77 41.3004 141.422 41.7466 141.138C42.8085 140.524 41.0557 131.981 38.4024 124.578C37.5475 122.095 36.8136 119.981 36.8136 119.86C36.8136 119.086 42.2789 129.336 44.1553 133.604C46.8866 139.871 47.2146 141.619 47.2146 150.116C47.2146 159.027 46.7657 161.142 43.5424 167.975L41.666 171.959L39.5449 169.969C36.241 166.916 33.6306 163.786 31.9182 160.896C30.0014 157.602 27.676 151.827 26.7782 148.085C25.719 143.734 25.7996 136.127 27.0228 127.546L28.0417 120.426L28.2863 127.96C28.5309 134.589 28.9799 138.126 30.1224 142.069C30.2461 142.598 30.652 143.007 30.9396 143.007C31.6332 143.007 31.6332 143.254 30.8563 138.734C30.4907 136.335 30.2057 130.562 30.0417 121.855C29.8374 112.138 29.6735 108.519 29.3079 108.232C28.6949 107.782 28.1653 103.353 28.5309 102.007C28.7783 100.991 29.1842 100.871 29.8375 101.683Z" fill="#E3B450" fill-opacity="0.45"/>
</svg>
