<svg width="173" height="446" viewBox="0 0 173 446" fill="none" xmlns="http://www.w3.org/2000/svg">
<path d="M247.177 1.04379C235.224 4.51578 227.968 11.9311 227.272 21.3055L226.981 25.2997L223.906 24.1968C218.103 22.1785 206.437 23.2105 199.996 26.3429C194.018 29.235 188.912 36.0128 187.982 42.3272C187.286 47.0163 187.634 47.4248 192.798 47.2455C196.516 47.1348 197.732 47.3637 200.111 48.5197C203.534 50.1947 209.398 55.587 213.055 60.3906C216.478 64.908 221.003 74.334 222.28 79.5419C223.267 83.7083 223.615 94.1314 222.804 95.4591C222.514 95.9284 221.699 94.9371 220.425 92.5678C219.381 90.5991 218.103 88.5127 217.579 87.9327C217.117 87.4177 216.711 86.606 216.711 86.1443C216.711 83.7673 214.041 75.4861 211.777 70.8009C209.803 66.7451 208.468 64.8377 205.975 62.5218C202.49 59.4008 197.732 56.3897 193.612 54.7644C190.537 53.5511 184.268 52.6244 183.863 53.3188C183.687 53.5515 183.281 53.6707 182.991 53.438C181.889 52.797 175.968 56.3293 172.778 59.5113C167.381 64.8986 164.015 70.6884 162.738 76.5984C161.984 79.9521 162.042 90.4312 162.852 93.8421C163.201 95.4064 163.143 96.8526 162.738 98.1269C162.39 99.1685 161.927 101.66 161.693 103.679L161.227 107.33L159.953 105.303C159.257 104.2 157.922 101.078 157.107 98.3579C155.715 93.955 155.543 92.6277 155.6 85.6227C155.6 79.251 155.891 76.7699 157.107 72.3136C160.473 59.4596 165.698 52.2151 172.721 50.6584C175.448 50.0785 175.796 49.7917 175.968 48.4601C176.549 43.6031 169.121 36.4258 161.46 34.3388C153.86 32.3701 142.194 34.74 135.286 39.7191C133.722 40.8217 132.387 41.6332 132.326 41.515C132.211 41.4043 131.806 40.4193 131.4 39.3167C129.308 33.937 124.259 29.2417 118.342 27.334C115.148 26.2924 103.715 25.7091 100.931 26.5218C99.7106 26.8117 98.4369 28.0788 96.578 30.7992C92.2253 37.1708 89.8462 44.8156 90.4849 50.0846C90.8904 53.4994 93.5028 59.3466 95.3579 60.9644C96.8075 62.2997 96.9261 63.0509 95.6486 63.0509C93.7323 63.0509 87.8725 66.6943 84.5066 70.0557C80.5019 73.9893 77.2507 78.6256 75.8584 82.2693C74.5235 85.8023 74.5235 93.2071 75.9158 97.0911C77.0174 100.273 79.8631 104.155 81.1406 104.155C81.5461 104.155 82.9384 102.992 84.2733 101.607C87.5244 98.1922 91.0051 97.0339 97.737 97.0911C108.818 97.2018 122.924 102.532 130.585 109.476C133.837 112.486 138.361 118.044 138.361 119.089C138.361 120.245 128.264 116.141 124.84 113.649C113.584 105.37 104.76 103.112 93.5028 105.661C81.0259 108.492 76.3825 114.975 77.0212 128.985C77.4267 139.641 79.9243 144.849 88.8593 153.822C91.5291 156.432 94.1989 159.673 94.8951 161.058C95.5912 162.393 96.6928 164.238 97.2742 165.112C98.8424 167.31 98.261 167.653 95.3005 166.386C88.3353 163.315 82.1275 157.755 77.0212 150.059C68.3157 136.801 65.8792 122.56 71.3335 116.891C73.6553 114.514 73.1313 112.837 69.5932 111.101C67.0994 109.887 65.9366 109.655 61.4117 109.655C56.5961 109.708 55.724 109.886 52.2434 111.622C44.4673 115.445 36.4579 125.805 35.299 133.501C35.123 134.894 34.7749 135.99 34.6602 135.99C34.4842 135.99 33.44 135.41 32.2811 134.716C27.871 131.995 20.9058 131.535 15.4515 133.561C10.4026 135.468 2.10246 141.841 0.304746 145.141C-0.567336 146.816 0.538091 155.5 2.27843 160.074C5.35367 168.182 10.7506 173.038 18.3546 174.434L20.5004 174.829L18.8748 178.13C16.729 182.354 15.681 188.903 16.0328 195.68C16.3235 200.197 16.6716 201.457 18.4693 205.158C20.9631 210.256 25.0864 214.146 29.726 215.882C34.9509 217.85 36.2246 217.26 36.2246 212.975C36.282 209.332 38.0223 205.866 41.6216 202.394C49.6309 194.637 64.0241 189.077 75.977 189.077C84.3345 189.138 92.4586 191.446 87.7578 192.43C86.7136 192.671 84.5066 193.48 82.9422 194.174C80.9111 195.04 78.2414 195.559 74.47 195.791C67.7955 196.253 61.0063 197.94 56.9442 200.076C53.2876 201.984 46.265 208.877 44.0007 212.7C39.6479 220.166 39.5905 225.256 43.8285 232.551C46.1503 236.657 53.1728 243.551 56.9442 245.577C61.0063 247.718 67.7955 249.393 74.47 249.862C78.2414 250.095 80.9111 250.613 82.9422 251.487C84.5104 252.181 86.7136 252.987 87.7578 253.215C92.4586 254.207 84.3345 256.515 75.977 256.576C64.0203 256.576 49.6309 251.016 41.6216 243.26C38.0223 239.788 36.282 236.316 36.2246 232.611C36.2246 228.387 34.9471 227.803 29.726 229.772C25.0826 231.508 20.9631 235.391 18.4693 240.48C16.6716 244.193 16.3235 245.468 16.0328 249.974C15.6848 256.746 16.729 263.288 18.8748 267.516L20.5004 270.817L18.3546 271.227C10.7506 272.612 5.35367 277.471 2.27843 285.579C0.538091 290.154 -0.563511 298.838 0.304746 300.513C2.10246 303.813 10.4026 310.185 15.4515 312.093C20.9058 314.119 27.871 313.658 32.2811 310.938C33.44 310.236 34.4881 309.663 34.6602 309.663C34.7749 309.663 35.123 310.76 35.299 312.152C36.4579 319.852 44.4673 330.216 52.2434 334.031C55.724 335.767 56.5961 335.945 61.4117 335.998C65.9404 335.998 67.0994 335.766 69.5932 334.553C73.1351 332.817 73.6553 331.14 71.3335 328.763C63.0947 320.201 73.6553 293.104 89.326 282.688C93.2733 280.078 97.5687 278.052 98.0889 278.574C98.261 278.746 97.9129 279.614 97.278 280.542C96.6966 281.415 95.595 283.26 94.8989 284.595C94.2027 285.988 91.5329 289.225 88.8631 291.831C79.9243 300.805 77.4305 306.012 77.025 316.668C76.3863 330.678 81.0297 337.154 93.5066 339.993C104.763 342.541 113.587 340.284 124.844 332.004C128.268 329.517 138.365 325.408 138.365 326.564C138.365 327.606 133.84 333.16 130.589 336.17C122.928 343.121 108.825 348.452 97.7408 348.562C91.0089 348.623 87.5283 347.461 84.2771 344.046C82.9422 342.662 81.5499 341.498 81.1445 341.498C79.8669 341.498 77.025 345.38 75.9196 348.562C74.5274 352.446 74.5274 359.851 75.8623 363.384C77.2545 367.028 80.5057 371.664 84.5104 375.598C87.8763 378.951 93.7361 382.603 95.6524 382.603C96.9299 382.603 96.8113 383.354 95.3617 384.682C93.5066 386.307 90.8942 392.146 90.4887 395.569C89.85 400.838 92.2291 408.475 96.5819 414.847C98.4408 417.567 99.7145 418.842 100.935 419.132C103.719 419.937 115.152 419.365 118.346 418.319C124.263 416.412 129.312 411.724 131.404 406.337C131.809 405.234 132.215 404.257 132.33 404.138C132.391 404.02 133.726 404.832 135.29 405.934C138.832 408.475 143.242 410.273 148.696 411.315C154.093 412.356 157.578 412.356 161.464 411.315C169.125 409.228 176.553 402.05 175.972 397.186C175.8 395.858 175.452 395.567 172.725 394.988C165.702 393.423 160.477 386.194 157.111 373.34C155.895 368.883 155.604 366.395 155.604 360.023C155.547 353.018 155.719 351.691 157.111 347.288C157.926 344.568 159.261 341.445 159.957 340.35L161.231 338.323L161.697 341.975C161.931 343.993 162.393 346.485 162.742 347.527C163.147 348.801 163.204 350.247 162.856 351.811C162.045 355.226 161.988 365.697 162.742 369.055C164.019 374.957 167.385 380.751 172.782 386.142C175.972 389.324 181.893 392.856 182.994 392.223C183.285 391.983 183.691 392.106 183.867 392.335C184.272 393.029 190.541 392.102 193.616 390.889C197.736 389.264 202.494 386.253 205.978 383.132C208.472 380.816 209.807 378.908 211.781 374.853C214.045 370.163 216.715 361.886 216.715 359.509C216.715 359.047 217.12 358.236 217.583 357.721C218.107 357.141 219.385 355.054 220.429 353.086C221.703 350.716 222.517 349.725 222.808 350.179C223.619 351.515 223.271 361.938 222.284 366.112C221.007 371.319 216.482 380.749 213.058 385.263C209.402 390.07 203.538 395.451 200.115 397.134C197.736 398.29 196.519 398.519 192.802 398.408C187.638 398.236 187.29 398.641 187.986 403.326C188.915 409.637 194.022 416.411 200 419.303C206.441 422.432 218.107 423.475 223.91 421.457L226.985 420.354L227.276 424.348C227.681 429.445 229.712 433.722 233.545 437.255C236.968 440.444 244.105 444.029 249.154 445.131L252.753 445.876L256.873 443.097C263.953 438.232 268.944 431.057 269.816 424.46C270.164 421.793 269.407 417.274 268.133 413.863C267.843 413.169 268.481 412.998 271.79 412.88C274.575 412.818 276.896 412.355 279.738 411.195C288.329 407.842 294.422 402.691 297.207 396.724C299.647 391.344 299.704 382.602 297.325 380.225C296.22 379.13 296.162 379.132 293.145 380.635C284.906 384.859 271.442 379.534 259.543 367.378C253.335 361.068 249.33 353.89 248.286 347.228L247.877 344.687L251.185 347.698C253.044 349.373 254.784 350.761 255.075 350.761C255.366 350.761 256.582 352.269 257.745 354.062C262.675 361.88 268.481 367.727 273.821 370.329C281.655 374.091 292.911 375.024 298.717 372.304C305.797 368.943 312.239 354.465 311.018 344.397C310.556 340.402 308.291 333.859 305.564 328.189C304.344 325.812 303.361 322.801 303.242 321.527C303.185 320.253 302.837 318.226 302.546 316.951C302.198 315.738 302.083 314.582 302.313 314.403C302.489 314.231 303.709 315.111 304.983 316.385C313.283 324.313 317.693 336.527 317.693 351.349C317.693 361.887 315.428 367.737 310.15 370.858C307.014 372.705 307.075 374.273 310.322 377.222C314.732 381.278 322.103 383.237 328.372 382.081C335.509 380.746 345.259 374.444 349.034 368.653L351.18 365.351L353.85 368.131C357.621 372.065 361.045 373.573 366.675 373.802C369.169 373.974 372.825 373.748 374.799 373.34C379.152 372.474 386.465 369.228 387.218 367.729C389.716 363.154 390.584 351.744 388.901 346.014C387.685 342.019 384.201 337.45 380.663 335.432C379.209 334.558 378.05 333.748 378.05 333.577C378.05 333.405 379.328 332.13 380.892 330.737C384.201 327.788 388.553 319.626 389.655 314.239C391.514 305.788 389.135 297.46 383.39 292.241C379.385 288.597 377.759 288.538 376.367 292.189C373.292 299.999 363.252 304.106 347.581 304.045C336.615 303.984 330.17 302.248 322.222 297.211C317.869 294.491 318.16 294.149 324.543 294.149C328.487 294.149 331.099 294.441 333.364 295.184C336.963 296.466 338.237 296.697 344.391 297.502C350.832 298.376 355.59 297.448 362.67 293.858C369.23 290.497 377.759 281.875 374.451 281.875C374.045 281.875 372.129 283.44 370.217 285.348C367.604 288.007 365.283 289.565 360.754 291.824C355.242 294.544 354.255 294.84 349.903 295.073C345.783 295.305 333.945 293.853 333.945 293.098C333.945 292.987 335.743 292.002 338.007 290.907C343.056 288.419 345.726 286.554 351.876 281.346C354.603 279.088 357.216 277.248 357.797 277.248C358.956 277.248 359.886 274.409 358.956 273.768C358.608 273.596 357.797 270.414 357.158 266.763C355.705 258.835 354.022 253.037 352.109 249.214C350.427 245.86 350.484 245.862 357.101 249.624C367.314 255.354 372.886 264.328 373.931 276.659C374.218 279.959 374.508 280.996 375.147 280.996C376.425 280.996 376.31 272.15 374.975 268.037C370.97 256.114 365.225 250.213 352.109 244.482C349.73 243.49 346.651 241.519 345.087 240.13C343.576 238.737 341.721 237.12 340.906 236.598L339.457 235.614H342.241C343.752 235.553 346.885 235.956 349.206 236.479C362.785 239.489 378.57 252.976 382.636 264.96C384.086 269.191 384.143 270.525 382.984 273.768C381.764 277.183 381.879 277.59 383.853 278.403C387.915 280.078 396.796 277.651 401.726 273.477C408.286 267.926 413.102 252.693 410.78 244.765C410.551 243.952 411.247 243.843 415.947 243.901C420.878 243.954 421.635 243.781 425.173 242.045C430.165 239.615 434.632 234.696 437.941 228.095C440.205 223.521 440.32 223.168 439.624 221.15C437.011 213.794 430.976 206.443 425.173 203.608C421.635 201.872 420.878 201.692 415.947 201.753C411.247 201.814 410.551 201.693 410.78 200.888C412.115 196.424 411.189 189.365 408.458 182.482C405.559 175.187 402.541 171.827 396.039 168.756C391.747 166.787 386.58 166.156 383.853 167.251C381.879 168.063 381.764 168.463 382.984 171.886C384.143 175.129 384.086 176.459 382.636 180.679C378.57 192.671 362.785 206.15 349.206 209.16C346.885 209.69 343.752 210.089 342.241 210.032H339.457L340.906 209.048C341.721 208.525 343.576 206.909 345.087 205.516C346.651 204.131 349.73 202.156 352.109 201.179C365.225 195.441 370.852 189.71 374.918 177.668C376.31 173.502 376.482 164.65 375.147 164.65C374.508 164.65 374.218 165.69 373.931 168.987C372.886 181.318 367.314 190.292 357.101 196.022C350.484 199.784 350.427 199.786 352.109 196.425C354.022 192.609 355.705 186.819 357.158 178.89C357.797 175.239 358.608 172.057 358.956 171.886C359.886 171.245 358.956 168.413 357.797 168.413C357.216 168.413 354.603 166.558 351.876 164.3C345.726 159.092 343.056 157.234 338.007 154.746C335.743 153.651 333.945 152.666 333.945 152.548C333.945 151.796 345.783 150.352 349.903 150.581C354.255 150.813 355.242 151.102 360.754 153.822C365.283 156.081 367.604 157.646 370.217 160.305C372.129 162.213 374.045 163.778 374.451 163.778C377.759 163.778 369.23 155.157 362.67 151.795C355.59 148.205 350.832 147.278 344.391 148.151C338.237 148.964 336.963 149.18 333.364 150.454C331.099 151.206 328.487 151.497 324.543 151.497C318.16 151.497 317.869 151.147 322.222 148.427C330.17 143.398 336.615 141.662 347.581 141.601C363.252 141.54 373.292 145.658 376.367 153.465C377.759 157.116 379.385 157.056 383.39 153.412C389.135 148.197 391.514 139.858 389.655 131.4C388.553 126.02 384.201 117.865 380.892 114.916C379.328 113.523 378.05 112.249 378.05 112.077C378.05 111.905 379.209 111.091 380.663 110.221C384.201 108.195 387.685 103.623 388.901 99.6322C390.584 93.9015 389.716 82.4919 387.218 77.9249C386.465 76.4178 379.152 73.1799 374.799 72.3062C372.825 71.9055 369.169 71.6724 366.675 71.8441C361.045 72.0769 357.621 73.5814 353.85 77.515L351.18 80.2946L349.034 76.9934C345.259 71.2017 335.509 64.9005 328.372 63.5651C322.103 62.409 314.732 64.3792 310.322 68.4312C307.075 71.3804 307.014 72.9408 310.15 74.7951C315.428 77.9237 317.693 83.7699 317.693 94.3041C317.693 109.127 313.283 121.34 304.983 129.268C303.709 130.543 302.489 131.407 302.313 131.236C302.083 131.064 302.198 129.908 302.546 128.687C302.837 127.42 303.185 125.393 303.242 124.119C303.361 122.845 304.344 119.834 305.564 117.457C308.291 111.787 310.556 105.244 311.018 101.249C312.239 91.1805 305.797 76.7031 298.717 73.3494C292.911 70.6291 281.655 71.5509 273.821 75.3167C268.481 77.9264 262.675 83.7679 257.745 91.5245C256.582 93.3788 255.366 94.8853 255.075 94.8853C254.784 94.8853 253.044 96.2706 251.185 97.8959L247.877 100.959L248.286 98.4175C249.33 91.7559 253.335 84.5782 259.543 78.2676C271.442 66.1119 284.906 60.7871 293.145 65.0107C296.162 66.5178 296.22 66.5194 297.325 65.4206C299.704 63.0436 299.647 54.3018 297.207 48.9221C294.422 42.9549 288.329 37.8045 279.738 34.4431C276.896 33.2871 274.575 32.8237 271.79 32.7664C268.481 32.6558 267.843 32.4772 268.133 31.7828C271.381 23.3928 270.107 16.4417 264.071 9.0322C260.992 5.32748 253.74 -0.0605164 251.881 0.000518799C251.181 0.000518799 249.093 0.463837 247.177 1.04379ZM253.27 2.72046C253.27 2.95319 254.027 3.59363 254.953 4.17358C259.019 6.54291 264.821 13.3141 266.676 17.8925C267.781 20.6739 267.663 26.2313 266.389 29.8826C265.574 32.4312 265.054 32.9973 263.371 33.6383C262.266 33.9817 261.398 34.6237 261.398 35.0244C261.398 35.9477 264.706 36.531 266.037 35.8366C267.606 34.9629 271.668 35.1429 275.558 36.1273C284.263 38.386 292.621 44.8671 295 51.1204C296.216 54.4207 296.797 61.0747 295.925 62.41C295.696 62.8106 294.533 62.5828 292.678 61.8884C289.136 60.4958 284.206 60.3831 279.91 61.6574C270.971 64.2595 260.005 72.0748 253.622 80.3542C248.63 86.8365 244.855 96.3906 245.264 101.48C245.379 103.163 245.031 104.551 244.044 106.287C243.233 107.679 242.418 108.776 242.128 108.776C241.489 108.776 239.925 105.594 239.925 104.319C239.925 101.71 244.22 88.4548 246.366 84.4602C247.643 82.0908 250.891 77.5151 253.622 74.333C260.583 66.1147 263.138 60.4323 263.138 53.0877C263.138 47.5898 261.398 43.2446 257.856 39.7116C255.419 37.3423 254.666 36.9917 252.635 36.9917C250.719 36.9917 249.904 37.3412 248.282 38.959C245.031 42.202 245.903 44.1747 249.326 41.3361C251.587 39.4208 253.388 39.4825 255.767 41.6267C259.539 44.8698 261.164 51.4102 259.944 58.1252C259.248 61.8299 256.464 66.5137 250.891 73.2898C244.74 80.6458 241.898 86.0257 239.634 94.4233L237.951 100.497L236.673 98.9913C235.339 97.4843 235.339 97.4853 233.541 98.4697L231.739 99.513L232.206 97.3147C232.435 96.1586 232.611 91.6436 232.554 87.3589C232.554 78.9079 232.321 77.9761 227.968 65.9348C226.113 60.784 225.822 59.1715 225.822 55.2264C225.879 48.168 228.316 42.724 233.074 39.3092C234.7 38.0959 236.153 37.5729 237.66 37.5729C239.806 37.5729 240.621 38.2061 242.594 41.3957C243.753 43.2424 244.683 41.6788 243.868 39.1378C241.898 32.8272 234.466 32.8827 228.664 39.3688C224.893 43.4742 223.443 47.3587 223.21 54.131L222.976 59.9733L226.342 69.7502L229.708 79.5345L229.651 88.5065C229.593 100.609 229.418 102.113 227.387 104.193C226.518 105.124 225.589 105.877 225.355 105.877C225.126 105.877 224.659 104.542 224.311 102.978C223.791 100.609 223.848 99.734 224.545 98.4101C225.994 95.5104 226.633 89.5518 226.052 84.2217C224.311 68.8839 212.997 51.3448 201.331 45.9041C199.182 44.8625 197.384 44.5106 194.423 44.5106H190.419L190.767 42.4241C191.639 37.0444 196.164 31.4837 201.913 28.8244C209.861 25.1197 222.456 25.1197 227.214 28.8244C229.245 30.3887 232.378 30.9641 232.378 29.808C232.378 29.2853 231.682 28.4727 230.871 27.9004C229.36 26.9694 229.36 26.7973 229.651 22.5127C230.175 14.9277 233.598 10.1292 241.202 6.24521C246.886 3.36078 253.27 1.50336 253.27 2.72046ZM117.646 29.6963C123.391 31.4323 127.51 35.4282 129.889 41.5671C130.761 43.8258 130.761 44.225 129.947 45.4421C128.902 47.0674 128.788 48.8026 129.832 48.3409C130.18 48.1692 130.991 47.8195 131.572 47.6479C132.096 47.4151 132.559 47.0698 132.559 46.776C132.559 46.4822 133.431 45.2693 134.533 44.0561C138.189 40.0614 145.617 37.2226 154.09 36.5893C159.138 36.2383 162.562 37.1129 166.976 39.8904C169.584 41.5082 173.184 45.7262 173.184 47.1188C173.184 47.4622 171.677 48.2155 169.875 48.7954C157.574 52.6718 148.983 78.1475 153.684 96.7856C155.195 102.688 157.165 106.862 159.835 109.64C161.055 110.914 161.636 112.243 161.927 114.387L162.275 117.397L159.835 116.466C157.455 115.543 157.165 115.138 154.556 109.461C149.679 99.0453 148.693 95.052 148.402 83.6479C148.111 70.1606 146.719 65.6954 141.207 59.854C137.841 56.2638 133.894 54.2359 129.832 53.8925C124.32 53.4309 121.532 55.7332 121.532 60.6588C121.532 64.6535 123.505 64.2426 123.796 60.1372C124.087 54.9789 133.488 55.8508 139.119 61.6425C144.11 66.7322 145.908 72.9919 145.851 85.3842C145.793 96.0939 146.662 99.2748 153.336 112.934C153.451 113.174 152.583 113.173 151.477 112.993C149.565 112.703 149.331 112.82 148.635 114.499L147.882 116.295L144.806 111.719C139.639 104.02 134.07 99.2231 123.157 93.149C113.756 87.9334 108.416 78.7312 109.984 70.3985C110.914 65.3622 112.826 63.4976 116.311 64.3103C119.501 65.123 119.967 65.1239 120.197 64.4295C120.545 63.3879 116.716 61.2997 114.395 61.2997C109.055 61.2997 105.632 68.7672 107.139 77.1648C107.896 81.3311 110.566 85.9588 114.452 89.9C117.47 92.9638 119.501 94.3554 128.034 99.1627C133.489 102.226 137.493 106.285 144.458 115.721C147.648 120.124 148.459 122.844 147.128 124.931C146.313 126.198 142.309 122.429 141.498 119.655C137.665 106.973 116.311 94.3616 98.3184 94.1327C91.5865 94.0717 87.5244 95.2279 83.7531 98.4175C80.7926 100.848 80.7352 100.847 78.8189 97.1954C78.008 95.6884 77.7747 93.9009 77.7173 89.9597C77.7173 85.3927 77.9507 84.3488 79.3429 81.6284C83.6957 73.1774 93.0974 65.3017 99.1905 65.13C101.455 65.0117 103.891 63.5048 103.31 62.5814C103.077 62.1808 102.147 61.9391 101.221 62.0002C98.9571 62.1795 96.9835 60.2643 94.7229 55.6363C92.4012 51.0006 92.2865 47.0671 94.1989 41.1647C95.5912 36.9907 99.2478 30.4478 101.107 29.0629C102.442 28.0213 113.408 28.4296 117.646 29.6963ZM187.691 55.5171C192.163 56.6197 194.771 57.8331 199.706 61.0761C204.869 64.4909 206.961 66.8069 209.455 71.7249C211.196 75.1969 213.923 82.7827 213.575 83.1337C213.46 83.3054 212.068 82.4924 210.499 81.3974C206.728 78.6771 202.49 76.651 195.295 73.9307C191.929 72.7097 188.797 71.3817 188.33 70.9201C187.053 69.8785 185.255 69.9874 184.964 71.1511C184.792 71.6738 182.7 73.7527 180.263 75.7787C174.404 80.5861 169.179 85.9724 167.033 89.3337C166.104 90.7797 165.174 91.9866 164.883 91.9866C164.073 91.9866 164.883 77.4104 165.813 74.4001C166.976 70.7488 171.095 64.6688 174.694 61.1358C178.347 57.6028 183.109 54.3701 184.211 54.6601C184.674 54.7669 186.242 55.1737 187.691 55.5171ZM334.928 69.1764C342.586 72.9993 348.969 79.5984 349.03 83.7075C349.088 84.9818 351 87.3589 351.93 87.3589C352.454 87.3589 352.569 86.6653 352.278 85.101C351.93 82.953 352.106 82.614 354.833 79.8326C356.397 78.2072 359.067 76.2435 360.75 75.4881C366.032 73.0577 374.042 73.7534 382.166 77.3436L385.417 78.7893L386.404 83.0741C387.62 88.6865 387.563 96.0992 386.285 99.6322C385.012 103.165 381.703 107.036 378.28 109.066C375.839 110.451 375.319 110.573 373.518 110.05C372.359 109.699 371.314 109.528 371.139 109.7C370.561 110.28 372.764 113.12 373.927 113.292C374.623 113.41 376.535 114.736 378.28 116.362C383.21 120.879 387.505 130.545 387.448 137.138C387.448 143.689 384.95 148.959 380.249 152.66C379.381 153.354 379.091 153.122 377.813 150.573C374.566 144.141 367.425 140.439 355.124 138.822C340.497 136.914 325.408 140.963 317.398 148.956C314.38 151.967 309.393 155.087 308.635 154.396C308.578 154.278 308.754 153.055 309.041 151.609C309.565 149.121 309.913 148.834 315.834 144.843C325.756 138.242 330.227 136.445 340.325 134.827C352.396 132.92 359.763 128.389 363.653 120.46C366.09 115.603 366.38 109.931 364.349 107.203C362.552 104.773 360.345 103.911 357.503 104.483C354.194 105.235 354.251 106.681 357.675 106.861C361.446 107.032 362.666 108.479 362.609 112.703C362.609 116.926 360.926 120.579 357.384 124.402C353.498 128.508 349.145 130.415 339.162 132.212C328.02 134.238 323.901 135.922 315.486 141.825C311.133 144.953 310.724 145.124 311.076 143.792C311.539 141.995 310.494 140.61 308.635 140.61C307.882 140.61 307.243 140.494 307.243 140.379C307.243 140.261 309.393 138.002 312.059 135.282C317.98 129.261 321.055 124.281 324.306 115.311C327.381 106.86 329.064 103.912 332.721 100.489C336.668 96.7845 339.686 95.4003 344.616 95.0493C348.273 94.8166 348.969 94.9312 350.771 96.1522C352.626 97.4189 352.802 97.7688 352.802 100.489C352.802 104.022 353.207 104.663 354.366 102.866C356.921 98.925 355.701 94.8781 351.467 92.9628C347.696 91.345 341.66 91.8084 337.016 94.006C330.051 97.4208 325.465 103.731 320.998 116.123C318.213 123.762 315.891 127.235 308.754 134.649C302.6 141.013 302.37 141.191 299.93 141.191C298.538 141.191 297.379 141.068 297.379 140.945C297.379 140.835 298.017 139.619 298.828 138.173C299.7 136.548 301.035 135.274 302.309 134.641C308.754 131.57 315.425 122.016 318.504 111.421C322.738 96.7777 321.403 81.9044 315.138 75.5328C313.86 74.1478 312.235 72.7526 311.653 72.4626C310.261 71.711 310.785 70.9054 314.032 68.9901C320.826 65.0679 326.861 65.0672 334.928 69.1764ZM191.291 75.2571L195.758 77.053L193.498 80.4138C192.22 82.3215 191.176 83.9964 191.176 84.2292C191.176 84.7519 189.317 86.143 188.506 86.1964C188.158 86.1964 187.286 85.681 186.59 85.101C185.894 84.4601 184.035 83.1335 182.47 82.0309L179.625 80.1232L182.933 76.822C184.731 74.9677 186.357 73.5222 186.533 73.4612C186.705 73.4612 188.854 74.2766 191.291 75.2571ZM295.925 74.3927C298.656 74.7361 299.004 74.9638 301.326 78.0963C308.463 87.8216 310.261 99.4535 306.256 109.938C305.327 112.307 304.283 114.797 303.935 115.438C303.296 116.472 303.238 116.47 302.89 114.856C301.613 109.179 298.656 102.465 294.242 95.1164C293.083 93.2621 292.154 91.1819 292.154 90.5409C292.154 89.0949 290.008 87.6506 289.079 88.4022C288.673 88.6845 283.972 89.0949 278.518 89.2666C269.637 89.5566 266.852 89.9674 261.455 91.7034C260.12 92.1116 260.178 91.9916 262.036 89.3933C265.402 84.7004 271.029 79.4398 274.513 77.7535C280.779 74.6859 288.44 73.519 295.925 74.3927ZM201.913 79.5419L205.16 80.928L201.851 85.7344C199.996 88.4014 198.428 90.6613 198.313 90.7719C198.199 90.9436 196.573 90.3092 194.657 89.3859C190.943 87.5888 190.652 86.7747 192.798 84.5198C193.379 83.9398 194.771 82.2622 195.992 80.8162C197.212 79.3091 198.313 78.0963 198.428 78.0963C198.604 78.1001 200.168 78.7331 201.913 79.5419ZM185.198 85.8537C187.867 87.189 187.81 88.1714 184.731 91.1818L181.889 93.9539L180.612 92.7392C179.858 92.1059 177.77 90.5992 175.968 89.3859C174.113 88.1726 172.602 87.07 172.602 86.8373C172.602 86.6656 173.708 85.4466 175.042 84.0578L177.479 81.5688L180.669 83.4243C182.47 84.4087 184.501 85.5027 185.198 85.8537ZM210.905 85.101L213.923 87.4707L210.266 91.1818C207.482 93.9555 206.785 95.0571 207.248 95.5188C207.772 96.0414 208.817 95.4082 211.544 92.9702C214.041 90.7726 215.434 89.9069 215.839 90.2503C216.65 90.8913 219.844 96.6237 219.496 96.8526C219.438 96.9137 217.579 98.1862 215.491 99.6322C211.601 102.292 211.601 102.29 211.023 100.959C209.918 98.5893 206.671 95.3471 203.534 93.6111C201.851 92.6877 200.459 91.7573 200.459 91.5245C200.459 90.8912 206.9 82.7239 207.367 82.7239C207.658 82.7239 209.283 83.7695 210.905 85.101ZM176.492 92.3368L180.73 94.9971L178.756 97.255C176.316 99.922 174.576 103.164 174.056 106.056C173.822 107.269 173.417 108.313 173.184 108.485C172.721 108.775 164.711 106.869 164.13 106.346C163.725 105.938 164.883 99.4518 165.522 98.8795C165.756 98.5896 167.729 99.1695 169.994 100.154C172.197 101.077 174.404 101.712 174.867 101.54C176.144 101.017 174.694 99.8661 170.28 97.8363C165.756 95.7493 165.87 96.1595 168.946 91.2339C170.571 88.6318 170.456 88.6321 176.492 92.3368ZM200.926 94.7661C204.349 96.4411 207.887 99.973 209.631 103.395C210.266 104.609 211.601 108.147 212.531 111.272L214.332 116.935L212.301 119.722C210.094 122.851 205.627 131.592 204.521 135.006C203.42 138.421 203.305 137.212 204.23 132.748C207.134 119.2 202.261 106.115 193.727 104.379C191.405 103.917 188.564 106.227 186.762 110.221C183.748 116.593 185.894 128.173 191.639 136.444C194.018 139.863 193.498 139.572 189.26 135.058C186.823 132.449 182.876 128.867 180.497 127.07C178.118 125.216 176.087 123.247 175.911 122.614C175.739 122.034 175.677 118.209 175.677 114.104C175.796 104.432 176.783 102.293 184.268 94.6543L189.665 89.207L193.727 91.1818C195.992 92.334 199.243 93.9 200.926 94.7661ZM291.634 95.6902L293.779 99.975L290.065 100.959C288.034 101.481 286.176 102.178 286.003 102.464C285.479 103.395 282.289 103.044 282.289 102.121C282.289 101.659 281.999 101.249 281.651 101.249C281.303 101.249 281.127 100.85 281.303 100.385C281.475 99.9232 281.188 97.8964 280.606 95.8094C279.853 93.1501 279.734 91.9272 280.201 91.7556C280.549 91.6449 282.81 91.4649 285.189 91.4649H289.542L291.634 95.6902ZM277.589 93.4919C278.633 95.8688 280.549 101.711 280.549 102.695C280.549 103.275 279.968 103.569 278.981 103.626C278.051 103.626 276.311 103.738 274.976 103.917L272.597 104.2L271.147 98.5293C270.042 94.424 269.813 92.7386 270.333 92.4486C270.681 92.2159 272.306 91.9866 273.932 91.9866C276.544 91.9866 276.95 92.1641 277.589 93.4919ZM268.707 97.8959C269.579 100.555 270.39 102.985 270.509 103.336C270.623 103.736 269.694 104.15 268.244 104.379C266.852 104.612 265.226 104.9 264.588 105.072C263.543 105.305 263.081 104.672 261.398 100.616C260.292 98.0061 259.424 95.6904 259.539 95.5188C259.715 95.0571 264.878 93.2585 266.156 93.2012C266.852 93.1478 267.548 94.4239 268.707 97.8959ZM259.305 101.249C260.526 103.447 261.746 105.303 262.151 105.303C262.499 105.303 261.279 106.344 259.367 107.561L255.94 109.826L254.49 107.732C253.736 106.519 252.402 104.847 251.587 103.977L250.08 102.3L252.983 99.7514C254.547 98.3665 256.173 97.2029 256.521 97.2029C256.869 97.2029 258.146 98.9906 259.305 101.249ZM221.293 101.659C222.919 107.851 222.919 107.851 219.553 111.384C217.927 113.12 216.42 114.447 216.244 114.275C216.015 114.042 212.706 104.261 212.649 103.738C212.649 103.505 219.901 99.513 220.307 99.513C220.54 99.513 221.003 100.499 221.293 101.659ZM239.749 110.11C247.758 126.84 248.339 129.208 248.282 144.962C248.282 153.352 247.991 157.345 247.41 159.486C245.842 164.755 247.062 165.106 252.287 160.76C256.869 156.945 262.151 153.526 268.13 150.573C277.065 146.117 283.915 144.379 295.057 143.799C299.062 143.567 303.763 143.229 305.503 142.935C307.243 142.695 308.754 142.526 308.869 142.644C308.984 142.755 308.521 144.725 307.882 147.041C307.186 149.418 306.027 153.934 305.27 157.116C304.459 160.298 303.066 164.993 302.08 167.534C298.656 176.393 289.369 188.72 281.36 195.21C275.672 199.72 276.078 200.238 285.479 200.471C300.859 200.94 313.512 204.988 324.478 213.035C326.976 214.882 331.038 217.724 333.532 219.406C335.972 221.142 338.003 222.648 338.003 222.819C338.003 222.991 335.972 224.5 333.532 226.24C331.038 227.915 326.976 230.757 324.478 232.611C313.512 240.65 300.859 244.706 285.479 245.175C276.078 245.408 275.672 245.926 281.36 250.443C289.369 256.926 298.656 269.253 302.08 278.112C303.066 280.661 304.459 285.348 305.27 288.53C306.027 291.72 307.186 296.228 307.882 298.605C308.521 300.921 308.984 302.891 308.869 303.002C308.754 303.12 307.243 302.94 305.503 302.718C303.763 302.428 299.062 302.072 295.057 301.839C283.915 301.259 277.065 299.529 268.13 295.073C262.151 292.123 256.869 288.709 252.287 284.886C247.062 280.54 245.842 280.891 247.41 286.16C247.991 288.301 248.282 292.29 248.282 300.684C248.339 316.205 247.758 318.746 240.039 334.843C237.312 340.574 235.048 345.319 234.99 345.38C234.933 345.491 230.871 341.556 225.937 336.699C216.65 327.607 213.575 323.612 209.918 316.027C206.38 308.671 202.781 296.809 202.781 292.524C202.781 290.849 201.97 289.983 200.516 289.983C200.23 289.983 199.182 291.659 198.199 293.739C195.758 298.657 189.493 306.655 183.863 311.974C177.422 318.055 171.849 321.644 163.028 325.23C160.473 326.333 156.645 328.012 154.556 329.053L150.724 331.021L149.913 323.092C148.75 311.569 148.869 298.896 150.203 293.456C152.234 285.23 157.574 272.672 160.183 269.662C161.227 268.441 161.227 266.881 160.125 266.472C159.662 266.24 158.385 266.532 157.341 266.994C151.477 269.661 140.974 271.92 132.154 272.382C123.911 272.843 118.108 271.92 106.909 268.559C102.671 267.285 98.785 266.241 98.3184 266.241C97.8517 266.241 97.0408 266.015 96.578 265.675C95.8819 265.213 95.8819 265.033 96.6928 264.11C97.2168 263.53 99.944 259.536 102.843 255.198C110.967 242.924 116.422 237.715 128.088 231.054C132.961 228.272 140.855 224.863 143.292 224.459C144.106 224.34 144.455 223.811 144.455 222.827C144.455 221.842 144.106 221.32 143.292 221.202C140.855 220.802 132.961 217.389 128.088 214.607C116.422 207.953 110.967 202.737 102.843 190.471C99.9401 186.125 97.213 182.131 96.6928 181.551C95.8819 180.627 95.8819 180.455 96.578 179.986C97.0408 179.642 97.8555 179.412 98.3184 179.412C98.7812 179.412 102.671 178.376 106.909 177.102C118.108 173.748 123.911 172.817 132.154 173.279C140.974 173.748 151.477 176 157.341 178.659C158.385 179.129 159.662 179.417 160.125 179.188C161.227 178.78 161.227 177.212 160.183 175.999C157.574 172.989 152.234 160.431 150.203 152.205C148.869 146.765 148.75 134.091 149.913 122.569L150.724 114.64L154.556 116.608C156.645 117.649 160.473 119.328 163.028 120.43C171.849 124.013 177.422 127.606 183.863 133.687C189.493 139.01 195.758 146.996 198.199 151.922C199.472 154.581 200.344 155.685 201.155 155.685C202.375 155.685 202.433 155.626 203.305 150.067C204.582 141.558 209.283 129.512 214.271 121.816C216.072 119.035 233.598 100.511 234.7 100.221C234.876 100.156 237.136 104.612 239.749 110.11ZM296.912 105.705L298.366 109.066L293.317 110.341C290.528 111.035 287.92 111.676 287.453 111.786C286.933 111.904 286.003 110.684 285.017 108.604C283.448 105.361 283.391 105.187 284.378 104.431C284.959 104.031 285.713 103.799 286.061 103.917C286.352 104.028 287.801 103.736 289.255 103.336C290.704 102.874 292.678 102.464 293.665 102.464C295.348 102.414 295.577 102.695 296.912 105.705ZM251.181 106.868C254.605 110.512 254.838 111.324 253.04 113.232C252.168 114.106 250.776 115.95 249.904 117.286C249.036 118.678 248.106 119.775 247.758 119.775C246.829 119.714 243.811 112.485 244.22 111.272C244.798 109.475 247.991 104.722 248.569 104.722C248.86 104.718 250.08 105.704 251.181 106.868ZM281.708 106.056C281.708 106.456 282.637 108.716 283.796 111.093C286.814 117.347 288.092 121.28 288.092 124.462C288.092 127.59 285.946 134.767 283.567 139.403C281.999 142.467 281.941 142.466 277.531 143.74C275.091 144.492 270.39 146.407 267.143 148.025C263.834 149.65 261.05 150.923 260.988 150.804C260.874 150.694 261.861 149.879 263.195 148.964C266.737 146.526 272.306 140.222 274.223 136.452C277.646 129.68 277.703 123.021 274.395 119.491C273.06 118.045 272.654 117.935 270.103 118.217C261.337 119.259 255.014 127.66 252.459 141.899L251.648 146.124L251.587 142.943C251.529 138.418 250.485 130.497 249.441 126.556L248.569 123.135L250.719 120.065C258.032 109.47 262.209 106.928 274.047 106.115C276.835 105.883 279.214 105.66 279.329 105.542C279.968 105.015 281.708 105.361 281.708 106.056ZM107.605 107.68C111.205 108.432 116.602 110.862 120.954 113.582L124.087 115.609L121.241 115.952C114.8 116.764 111.143 117.687 104.063 120.125C100.001 121.51 96.2873 122.556 95.8207 122.323C94.6617 121.923 94.023 123.074 93.9044 125.855C93.847 127.13 93.2083 131.821 92.5121 136.273C91.64 142.175 91.3532 145.655 91.6401 149.008L91.9881 153.643L88.6796 150.163C84.9082 146.169 81.309 140.326 80.2647 136.564C79.1058 132.397 79.2779 122.491 80.5554 117.405L81.657 113.06L86.0671 110.922C93.0974 107.621 101.455 106.349 107.605 107.68ZM169.47 109.99L173.126 110.631L173.298 115.9C173.417 118.849 173.417 121.397 173.359 121.63C173.069 122.263 166.046 118.849 165.232 117.636C164.826 116.995 164.306 114.914 164.13 112.941C163.667 108.832 163.434 108.945 169.47 109.99ZM299.643 112.941C299.873 113.693 300.278 115.489 300.511 116.935L300.917 119.603L296.683 120.006C294.361 120.238 291.924 120.527 291.286 120.699C290.123 120.989 289.717 120.238 288.034 114.625C287.858 114.045 288.964 113.521 292.154 112.77C298.132 111.385 299.062 111.438 299.643 112.941ZM68.3157 113.292L69.9986 113.985L68.7211 115.9C66.2273 119.604 65.6459 121.683 65.6459 126.437C65.6459 132.221 66.9234 136.913 70.5227 144.433C77.2545 158.561 89.0927 169.157 99.3664 170.313C100.935 170.546 102.384 171.237 103.777 172.512C106.037 174.538 105.98 174.889 103.08 175.813C101.283 176.454 100.587 176.214 94.0842 173.093C85.5546 169.037 81.0833 165.859 76.501 160.529C69.5358 152.429 65.1257 148.427 60.8915 146.348C57.0628 144.494 56.5388 144.381 50.7364 144.381C45.9208 144.381 44.2378 144.614 42.6122 145.476C39.6517 147.04 36.9245 149.822 36.5191 151.676C35.8803 154.507 39.4796 160.179 40.9292 158.733C41.3347 158.332 41.1626 157.52 40.3479 156.185C38.7796 153.643 38.837 152.66 40.5812 150.573C44.7006 145.655 55.5558 145.593 62.6357 150.454C65.3628 152.308 69.5396 156.592 72.4428 160.358C76.5048 165.737 81.9592 170.02 89.5058 173.786C96.4136 177.201 96.5857 177.319 95.136 178.071C93.5678 178.937 93.1624 180.963 94.3825 182.184C95.3693 183.169 94.6158 183.051 88.7522 181.372C81.0909 179.224 73.2001 178.936 64.6667 180.5C57.4108 181.835 50.8549 182.066 47.7797 181.081C39.7129 178.533 34.2012 172.631 34.6066 167.072C34.7826 164.813 35.0121 164.522 37.3912 163.309C38.8409 162.614 40.1184 161.743 40.1757 161.453C40.5238 160.53 36.347 160.759 34.4881 161.744C32.2811 162.9 31.585 164.231 31.585 167.474C31.585 174.716 39.013 182.008 48.2999 183.973C52.7674 184.904 57.2387 184.786 64.376 183.458C73.9498 181.715 79.0599 181.895 89.0391 184.382C97.4539 186.469 97.5113 186.462 98.7888 188.652L100.066 190.858L97.0485 191.097C94.7841 191.207 93.6826 190.977 92.2903 190.053C86.836 186.349 74.4164 185.074 65.2443 187.214C48.4146 191.155 35.4711 200.7 33.9067 210.315C33.616 212.162 33.2106 213.847 33.0958 214.019C32.3997 214.66 26.3066 211.068 24.3329 208.81C20.7337 204.876 19.2266 200.826 18.9359 194.577C18.5305 186.068 20.6189 178.535 24.3329 175.12C25.8399 173.735 26.7694 171.007 25.9011 170.485C25.6104 170.313 24.9143 170.656 24.3329 171.297C23.6942 171.991 22.5352 172.467 21.3151 172.467C18.6453 172.467 13.3057 170.483 10.8692 168.629C6.74974 165.508 3.67451 158.622 2.56911 150.163L2.04509 146.117L5.06296 143.337C8.42889 140.217 14.6979 136.272 17.7158 135.349C18.8174 134.998 21.315 134.769 23.2887 134.708C26.2492 134.708 27.5841 135.059 30.8315 136.623C34.1974 138.298 34.7788 138.82 35.1268 140.498C35.9989 144.901 37.5059 143.225 37.7393 137.547C37.9726 132.107 39.9424 127.531 44.5859 121.682C50.2162 114.738 55.3798 112.076 62.6357 112.427C64.8924 112.538 67.4436 112.94 68.3157 113.292ZM126.351 119.022C126.466 119.312 126.409 121.398 126.233 123.657C125.827 128.346 125.942 129.037 127.047 129.037C127.568 129.037 127.916 127.7 128.149 124.812C128.382 122.496 128.788 120.237 129.021 119.894C129.66 118.852 137.027 121.631 136.679 122.726C136.564 123.187 135.982 125.214 135.462 127.301C134.881 129.388 134.185 131.006 133.894 130.945C133.661 130.892 131.806 130.545 129.832 130.14C127.105 129.56 125.307 129.559 122.576 130.021C120.545 130.372 118.862 130.6 118.805 130.543C118.747 130.489 118.514 128.113 118.284 125.274C117.936 120.699 117.994 120.067 118.981 119.372C120.082 118.56 125.942 118.328 126.351 119.022ZM116.077 124.812C116.368 127.651 116.601 130.252 116.601 130.714C116.601 131.237 115.205 131.936 112.945 132.57C108.474 133.844 108.359 133.727 108.416 126.489L108.474 121.34L110.795 120.647C115.557 119.143 115.557 119.139 116.077 124.812ZM106.504 126.489C107.257 131.525 107.257 133.091 106.618 133.725C106.328 134.015 103.658 134.366 100.697 134.485L95.3005 134.76L95.6486 132.331C95.8819 130.996 96.2299 128.859 96.4021 127.584L96.6928 125.207L101.16 123.828C103.597 123.016 105.628 122.382 105.743 122.435C105.808 122.496 106.156 124.291 106.504 126.489ZM300.859 122.435C300.859 122.675 300.569 124.522 300.221 126.548L299.582 130.252L294.824 129.857C292.272 129.678 290.123 129.448 290.065 129.395C290.008 129.395 290.123 127.768 290.241 125.803L290.528 122.331L295.696 122.159C298.538 122.094 300.859 122.202 300.859 122.435ZM142.194 125.505C146.489 128.577 146.662 128.978 146.08 133.903L145.617 138.3L141.322 135.394C138.943 133.837 136.797 132.446 136.449 132.331C135.634 132.098 138.595 123.828 139.524 123.828C139.758 123.832 140.974 124.582 142.194 125.505ZM294.242 131.988C296.101 132.339 297.842 132.738 298.075 132.86C298.595 133.211 295.462 139.576 294.361 140.439C293.374 141.251 284.959 142.122 285.25 141.37C287.744 135.117 289.603 131.355 290.123 131.355C290.471 131.355 292.33 131.645 294.242 131.988ZM132.735 133.322C136.621 134.948 141.789 137.949 144.168 140.036C145.56 141.25 145.908 142.123 146.199 144.962C146.604 148.957 148.287 156.476 149.622 160.238C151.014 164.061 150.781 163.891 147.882 158.904C144.688 153.464 138.652 147.218 134.59 145.245C132.268 144.089 130.819 143.799 127.162 143.799C122.867 143.799 122.519 143.917 121.184 145.417C119.501 147.393 119.329 150.631 120.778 154.858C122.228 159.196 128.034 164.702 134.299 167.713C137.027 168.979 140.393 170.372 141.789 170.723C143.124 171.067 144.168 171.467 144.11 171.528C143.992 171.639 141.379 171.418 138.361 171.006C135.344 170.545 130.065 170.31 126.642 170.433L120.43 170.656L116.54 166.49C112.306 161.916 109.694 157.811 108.707 154.217C108.301 152.71 108.187 149.127 108.474 143.74L108.883 135.58L112.712 134.656C114.857 134.194 118.051 133.381 119.791 132.92C124.668 131.584 128.845 131.758 132.735 133.322ZM106.561 135.982C107.139 135.982 106.733 142.583 106.094 143.628C105.922 143.861 104.587 144.089 103.077 144.142C101.57 144.142 98.9571 144.383 97.3315 144.612L94.2563 145.014L94.3137 142.987C94.4896 137.547 95.0098 137.026 101.103 136.392C102.438 136.274 103.773 135.984 103.945 135.751C104.178 135.519 104.698 135.513 105.165 135.684C105.574 135.868 106.213 135.982 106.561 135.982ZM105.865 149.47V153.122L101.394 154.217C98.8959 154.797 96.578 155.381 96.2299 155.492C95.5338 155.781 95.1284 154.627 94.547 150.342C94.1415 147.794 94.2563 147.623 95.4764 147.272C96.6354 146.982 102.323 146.168 105.169 145.886C105.632 145.825 105.865 146.929 105.865 149.47ZM201.04 146.81C201.04 147.1 200.865 147.851 200.692 148.606L200.287 149.94L199.415 148.666C198.719 147.624 198.661 147.33 199.357 146.929C200.344 146.288 201.04 146.291 201.04 146.81ZM108.011 158.852L109.231 161.162L104.935 163.249L100.64 165.395L99.5385 163.83C97.8555 161.453 96.5206 158.563 96.8113 158.04C96.9873 157.807 99.0757 156.998 101.512 156.304C103.891 155.552 105.865 154.687 105.922 154.336C105.922 153.936 106.156 154.276 106.385 155.089C106.676 155.894 107.372 157.578 108.011 158.852ZM327.324 154.798C327.496 155.26 327.209 157.637 326.685 160.067L325.698 164.464L323.958 164.121C322.971 163.941 321.403 163.771 320.477 163.771H318.733L319.143 159.247C319.372 156.817 319.663 154.626 319.839 154.336C319.953 154.104 321.636 153.934 323.553 153.934C326.104 153.934 327.091 154.158 327.324 154.798ZM316.993 159.717L316.821 163.942L311.596 164.993C308.754 165.565 306.199 166.081 306.027 166.081C305.446 166.081 307.767 158.382 308.521 157.63C309.622 156.589 316.182 154.503 316.702 155.022C316.936 155.259 317.108 157.408 316.993 159.717ZM251.82 157.638C250.776 158.389 250.661 158.389 250.485 157.638C250.37 157.168 250.428 156.364 250.661 155.842C250.952 154.976 251.067 154.976 251.935 155.842C252.864 156.769 252.864 156.886 251.82 157.638ZM334.695 156.185C336.144 156.826 337.422 157.519 337.594 157.809C337.885 158.271 334.404 167.534 333.765 168.175C333.65 168.285 331.967 167.532 330.051 166.49C327.267 165.044 326.685 164.522 327.267 163.942C327.672 163.541 328.483 161.402 329.064 159.143C330.285 154.568 330.575 154.449 334.695 156.185ZM343.343 160.991C346.59 163.189 346.709 163.939 344.678 168.346C343.052 171.761 343.167 174.309 344.792 172.169C345.255 171.528 346.299 169.619 347.057 167.936L348.449 164.926L352.22 167.646C356.397 170.725 356.34 170.432 354.776 177.609L354.194 180.5L350.595 178.764C348.621 177.84 346.648 177.095 346.242 177.095C345.083 177.095 343.63 175.414 344.039 174.479C344.444 173.323 343.343 172.806 342.356 173.614C341.484 174.366 339.047 173.208 336.492 170.835L335.276 169.68L337.479 165.164C338.757 162.615 339.744 160.237 339.744 159.836C339.744 158.794 340.325 158.973 343.343 160.991ZM117.179 170.895C117.179 171.177 115.557 171.929 113.584 172.459C109.288 173.616 107.896 173.205 104.473 169.68L102.27 167.362L103.604 166.49C104.358 165.968 106.159 164.925 107.552 164.173L110.103 162.727L113.645 166.49C115.557 168.577 117.179 170.544 117.179 170.895ZM325.293 166.841C327.73 167.592 330.575 169.273 336.84 173.614C338.294 174.599 339.801 175.64 340.206 175.872C340.788 176.216 340.497 177.898 338.929 183.682C337.827 187.738 336.378 191.907 335.739 192.945C333.593 196.417 329.122 199.951 323.434 202.729L317.922 205.449L313.975 203.713C311.829 202.728 307.071 201.172 303.357 200.188C299.582 199.257 296.507 198.39 296.449 198.332C296.392 198.271 298.828 198.221 301.904 198.221C310.204 198.16 317.341 196.016 321.751 192.311C323.958 190.465 326.222 186.69 326.685 183.92C327.033 181.944 326.919 181.543 325.236 179.978C322.857 177.781 317.808 176.273 314.266 176.677C308.345 177.379 301.15 180.963 295.057 186.178C292.272 188.609 291.924 188.374 294.418 185.768C295.925 184.204 301.732 175.06 303.124 172.05L304.459 169.099L309.217 167.891C311.772 167.25 314.442 166.617 315.077 166.446C317.689 165.912 322.914 166.15 325.293 166.841ZM395.167 171.297C400.854 174.017 404.974 179.749 407.353 188.086C408.803 193.183 408.803 199.947 407.296 202.908C406.194 205.105 406.075 208.348 407.062 208.348C407.353 208.348 407.992 207.596 408.516 206.611C409.617 204.524 411.243 204.003 416.697 204.003C420.12 204.003 421.341 204.294 424.182 205.74C428.245 207.827 433.064 213.144 436.021 218.996L437.994 222.819L436.021 226.642C433.064 232.483 428.245 237.812 424.182 239.899C421.341 241.345 420.12 241.635 416.697 241.635C411.243 241.635 409.617 241.114 408.516 239.027C407.992 238.043 407.353 237.291 407.062 237.291C406.075 237.291 406.194 240.533 407.296 242.738C408.803 245.68 408.803 252.463 407.353 257.552C404.163 268.781 397.603 275.325 388.898 275.966L385.474 276.249L385.88 273.127C386.576 268.434 386.346 266.294 384.778 262.299C381.297 253.448 370.442 242.501 359.763 237.179C352.974 233.76 343.109 231.903 338.466 233.177C336.263 233.818 335.624 233.758 333.126 232.656L330.342 231.501L332.43 229.824C334.056 228.489 335.043 228.149 336.435 228.378C337.479 228.489 341.136 228.899 344.678 229.243C352.335 229.994 358.432 231.854 364.583 235.383C375.201 241.514 378.452 242.671 385.589 242.671C389.942 242.671 390.986 242.5 394.295 240.883C398.647 238.857 400.04 237.754 402.071 234.69C404.163 231.619 404.102 228.489 401.899 226.292C400.273 224.674 397.488 223.512 396.792 224.153C396.616 224.325 397.431 225.428 398.647 226.523C400.621 228.377 400.797 228.833 400.506 230.741C399.753 235.258 393.308 239.483 386.346 240.063C380.659 240.525 376.13 238.96 366.671 233.408C358.604 228.662 350.652 226.342 342.237 226.284C338.523 226.284 337.885 225.883 339.453 224.548C339.916 224.147 340.325 223.392 340.325 222.812C340.325 222.232 339.916 221.476 339.453 221.076C337.885 219.74 338.523 219.339 342.237 219.339C350.652 219.278 358.604 216.976 366.671 212.23C376.13 206.671 380.659 205.106 386.346 205.568C393.308 206.14 399.753 210.37 400.506 214.876C400.797 216.791 400.621 217.254 398.647 219.108C397.431 220.203 396.616 221.306 396.792 221.478C397.488 222.119 400.273 220.965 401.899 219.339C404.102 217.142 404.163 214.012 402.071 210.948C400.04 207.877 398.647 206.774 394.295 204.748C390.986 203.123 389.942 202.953 385.589 202.953C378.452 202.953 375.201 204.117 364.583 210.248C358.432 213.781 352.335 215.637 344.678 216.388C341.136 216.732 337.479 217.138 336.435 217.253C335.043 217.485 334.056 217.142 332.43 215.807L330.342 214.13L333.126 212.968C335.624 211.865 336.263 211.813 338.466 212.446C343.109 213.721 352.974 211.867 359.763 208.452C370.442 203.126 381.297 192.191 384.778 183.332C386.346 179.337 386.576 177.193 385.88 172.504L385.474 169.382L388.898 169.672C390.814 169.795 393.484 170.484 395.167 171.297ZM155.658 173.905C156.354 175.351 156.411 175.353 153.684 174.479C152.931 174.246 152.873 174.018 153.451 173.324C154.438 172.111 154.904 172.219 155.658 173.905ZM345.722 178.302C346.127 178.645 347.982 179.749 349.899 180.791C353.67 182.931 353.731 183.048 352.454 187.855L351.815 190.284L346.475 187.736C340.673 184.954 340.73 185.016 342.065 180.098C342.704 177.61 344.154 176.917 345.722 178.302ZM343.691 188.719C345.141 189.414 347.348 190.572 348.564 191.328L350.771 192.714L349.03 196.194C348.044 198.101 347.114 199.666 346.881 199.666C346.648 199.666 344.735 198.446 342.528 196.946C339.51 194.97 338.351 194.45 337.885 194.919C337.479 195.32 337.307 195.669 337.479 195.784C343.515 200.412 344.965 201.639 344.965 202.043C344.965 202.333 343.63 203.601 341.947 204.875L338.99 207.245L335.624 203.959L332.258 200.657L334.752 197.87C336.144 196.306 338.003 193.359 338.929 191.275C339.858 189.196 340.673 187.512 340.788 187.512C340.903 187.512 342.18 188.086 343.691 188.719ZM104.473 197.58L107.081 201.112L104.878 201.514C103.658 201.686 101.049 201.977 99.0183 202.096L95.3043 202.267L94.2601 199.428C92.4624 194.739 92.5198 194.22 94.8415 193.876C95.9431 193.697 97.9741 193.698 99.3664 193.817C101.684 193.992 102.09 194.279 104.473 197.58ZM92.1679 199.607C92.9788 201.633 93.6175 203.313 93.5602 203.37C90.0221 204.755 86.1322 207.366 84.1011 209.682C81.1406 212.925 81.374 212.974 77.1933 208.407C73.422 204.413 73.422 204.413 76.4398 201.574C77.8895 200.189 79.3429 199.085 79.6298 199.085C79.9205 199.085 81.1406 200.531 82.2996 202.267C84.8546 205.918 85.8415 206.84 86.6524 206.321C87.0578 206.141 86.3616 204.523 85.0268 202.386C83.7492 200.41 82.6477 198.444 82.5329 197.982C82.2996 196.887 89.0888 194.279 89.9609 195.21C90.309 195.611 91.2958 197.581 92.1679 199.607ZM285.946 197.401C285.655 197.691 284.959 197.809 284.378 197.58C283.448 197.229 283.448 197.12 284.378 196.074C285.307 195.09 285.479 195.089 285.946 195.955C286.237 196.539 286.237 197.119 285.946 197.401ZM72.0297 201.976C69.9987 204.235 66.2847 209.444 63.8482 213.557C61.3543 217.67 58.9752 221.14 58.6233 221.254C57.6365 221.663 57.8698 223.804 58.9714 224.727C59.4342 225.078 61.7559 228.61 64.135 232.544C66.4568 236.428 70.056 241.465 72.0871 243.655C74.1181 245.921 75.453 247.709 74.9902 247.709C70.9855 247.709 60.597 244.926 57.6977 243.141C52.01 239.608 46.2077 232.894 43.71 226.873L41.9696 222.819L43.71 218.765C46.2038 212.745 52.01 206.024 57.6977 202.491C60.6582 200.644 69.5932 198.215 74.4126 197.975C75.5715 197.929 75.2809 198.504 72.0297 201.976ZM333.593 204.935C336.32 208.288 336.435 208.519 335.333 209.153C333.823 210.026 329.179 211.82 328.368 211.82C327.787 211.82 322.333 208.406 320.998 207.185C320.707 206.96 322.508 205.802 324.945 204.585C327.381 203.371 329.47 202.139 329.646 201.857C330.227 200.987 330.747 201.402 333.593 204.935ZM112.363 206.902C115.496 209.683 124.202 215.987 126.699 217.201C128.44 218.013 125.479 217.149 121.532 215.703C112.539 212.284 103.31 212.451 97.8556 216.046C95.0136 218.014 92.516 221.137 92.516 222.812C92.516 224.487 95.0136 227.621 97.8556 229.586C103.31 233.168 112.539 233.347 121.532 229.928C125.479 228.482 128.44 227.622 126.699 228.431C124.202 229.644 115.496 235.951 112.363 238.729C108.474 242.262 107.491 242.489 100.177 241.337C91.2996 239.891 87.4097 237.223 81.2018 228.192L77.4305 222.812L81.2018 217.424C83.2329 214.421 86.0748 210.956 87.4709 209.682C91.2996 206.141 98.1501 203.944 105.75 203.765C108.764 203.708 108.998 203.834 112.363 206.902ZM79.2244 216.567C76.96 220.1 75.9158 221.024 74.5809 220.681C73.9422 220.501 73.3608 220.04 73.3608 219.697C73.3608 219.346 72.6072 218.245 71.7352 217.26C67.6731 212.804 67.4971 212.513 68.6025 210.777C69.1227 209.911 70.1134 208.517 70.7483 207.655L71.9073 206.142L76.1453 210.427L80.4407 214.712L79.2244 216.567ZM68.4878 216.567C69.4746 217.609 71.215 219.348 72.3777 220.39C73.5367 221.485 74.5235 222.529 74.5235 222.819C74.5235 223.109 73.5941 224.161 72.3777 225.256C71.2188 226.298 69.3599 228.088 68.3157 229.183C66.4568 231.098 66.2846 231.166 65.6459 230.182C65.2404 229.602 64.0777 227.798 63.0908 226.173C61.1172 223.223 60.7691 221.957 61.6986 221.374C62.0466 221.194 63.0908 219.637 64.0777 217.894C65.0645 216.158 66.1087 214.712 66.342 214.712C66.5754 214.708 67.5622 215.583 68.4878 216.567ZM137.784 222.238C138.537 222.761 138.537 222.878 137.784 223.401C136.392 224.324 135.462 224.094 135.462 222.819C135.462 221.545 136.392 221.315 137.784 222.238ZM76.9064 225.83C77.4878 226.581 78.532 228.026 79.2282 229.071L80.4483 230.919L76.2103 235.204L71.9723 239.437L70.7522 237.924C70.1134 237.119 69.1266 235.735 68.5452 234.862C67.501 233.179 67.6731 232.835 71.7352 228.378C72.6072 227.394 73.3608 226.293 73.3608 225.942C73.3608 225.541 73.8236 225.076 74.4049 224.965C74.929 224.786 75.5065 224.676 75.5677 224.615C75.6863 224.619 76.2677 225.139 76.9064 225.83ZM33.551 233.066C33.6657 233.989 33.9564 235.669 34.1897 236.829C34.3618 238.042 35.6394 240.471 37.0929 242.448C42.3177 249.506 52.9357 255.525 65.2404 258.417C74.4088 260.565 86.8283 259.29 92.2865 255.585C93.6787 254.662 94.7841 254.427 97.0446 254.549L100.063 254.78L98.785 256.979C97.5075 259.184 97.4501 259.184 89.0353 261.264C79.0522 263.751 73.946 263.931 64.3722 262.195C57.2349 260.86 52.7636 260.742 48.2961 261.673C39.0091 263.642 31.5811 270.876 31.5811 278.053C31.5811 281.414 32.2773 282.735 34.4843 283.887C36.3393 284.879 40.52 285.109 40.1719 284.178C40.1145 283.888 38.837 283.028 37.3874 282.337C35.0083 281.124 34.7749 280.829 34.6028 278.574C34.1974 273.015 39.7091 267.113 47.7759 264.565C50.8511 263.58 57.4108 263.807 64.6629 265.131C73.1925 266.695 81.0871 266.415 88.7484 264.267C94.612 262.592 95.3655 262.47 94.3787 263.454C93.1585 264.675 93.564 266.698 95.1322 267.568C96.5818 268.319 96.4097 268.434 89.5019 271.853C81.9592 275.615 76.501 279.89 72.4389 285.281C69.5358 289.043 65.359 293.327 62.6319 295.177C55.5519 300.042 44.7006 299.991 40.5774 295.073C38.837 292.993 38.7796 291.995 40.344 289.447C41.1587 288.119 41.3309 287.306 40.9254 286.898C39.4758 285.452 35.8765 291.135 36.5153 293.97C36.9207 295.824 39.6479 298.605 42.6084 300.17C44.234 301.036 45.917 301.265 50.7325 301.265C56.5349 301.265 57.0589 301.149 60.8877 299.29C65.1257 297.203 69.5358 293.21 76.4972 285.11C81.0833 279.783 85.5508 276.601 94.0804 272.546C100.579 269.417 101.275 269.192 103.077 269.826C105.98 270.749 106.037 271.101 103.773 273.127C102.38 274.401 100.931 275.096 99.3626 275.325C89.0888 276.481 77.2507 287.077 70.5188 301.198C66.9196 308.726 65.6421 313.41 65.6421 319.209C65.6421 323.948 66.2234 326.034 68.7173 329.739L69.9948 331.654L68.3119 332.287C65.5273 333.443 59.8397 333.623 56.4737 332.578C51.945 331.304 48.4643 328.756 44.6356 323.949C39.9348 318.107 37.9611 313.532 37.7316 308.091C37.4983 302.422 35.9913 300.733 35.1192 305.14C34.7711 306.815 34.1897 307.344 30.8238 309.023C27.5726 310.587 26.2377 310.938 23.2811 310.938C21.3074 310.877 18.8136 310.648 17.7081 310.297C14.6903 309.374 8.42124 305.433 5.05531 302.301L2.03745 299.521L2.56146 295.468C3.66304 287.017 6.73827 280.13 10.8615 277.002C13.298 275.148 18.6376 273.179 21.3074 273.179C22.5276 273.179 23.6865 273.647 24.3253 274.342C24.9067 274.975 25.6028 275.326 25.8935 275.146C26.7656 274.631 25.8361 271.911 24.3253 270.519C20.6113 267.104 18.5229 259.581 18.9283 251.069C19.219 244.877 20.726 240.762 24.2679 236.829C26.1268 234.803 31.4052 231.501 32.7975 231.501C33.0308 231.501 33.3788 232.192 33.551 233.066ZM84.1585 236.076C86.1322 238.274 90.0795 240.884 93.5602 242.269C93.7935 242.387 90.657 249.623 90.0221 250.436C89.6167 250.951 88.7446 250.838 86.2507 249.914C84.3918 249.273 82.7701 248.578 82.5367 248.349C82.3034 248.117 83.2329 246.09 84.6825 243.774C86.1934 241.344 87.0042 239.489 86.6562 239.318C85.8453 238.795 84.8585 239.732 82.3034 243.379C81.1445 245.115 79.9243 246.561 79.6336 246.561C79.3429 246.561 77.8933 245.465 76.4436 244.072C74.4126 242.103 73.8886 241.351 74.2979 240.599C74.9366 239.497 80.915 233.244 81.3204 233.244C81.4887 233.241 82.7662 234.512 84.1585 236.076ZM331.619 234.862C336.84 236.887 336.783 236.83 334.228 239.951C332.954 241.462 331.619 243.081 331.271 243.543C330.747 244.237 330.285 244.184 328.368 242.91C327.091 242.158 324.826 240.934 323.262 240.19C321.694 239.488 320.707 238.734 320.94 238.505C322.275 237.292 327.787 233.811 328.368 233.811C328.716 233.815 330.166 234.282 331.619 234.862ZM342.528 241.173C343.863 242.268 344.965 243.37 344.965 243.603C344.965 244.003 343.515 245.219 337.479 249.855C337.307 249.965 337.479 250.322 337.885 250.727C338.351 251.196 339.51 250.665 342.528 248.7C344.735 247.2 346.648 245.98 346.881 245.98C347.114 245.98 348.044 247.544 349.03 249.46L350.771 252.932L348.564 254.311C346.127 255.818 340.845 258.312 340.673 258.022C340.612 257.911 339.629 255.876 338.466 253.499C337.307 251.129 335.391 248.23 334.289 247.135L332.197 245.167L335.506 241.807C337.307 240.01 339.047 238.676 339.396 238.856C339.744 239.024 341.136 240.071 342.528 241.173ZM324.597 243.483C329.703 246.093 333.65 249.385 335.739 252.746C336.783 254.371 341.193 269.134 340.788 269.416C338.003 271.27 333.999 273.939 331.153 275.847C324.945 280.013 319.081 280.475 309.102 277.755L304.459 276.48L303.124 273.529C301.732 270.58 295.925 261.427 294.418 259.87C291.924 257.26 292.272 257.037 295.057 259.468C301.15 264.683 308.345 268.271 314.266 268.969C317.808 269.369 322.857 267.865 325.236 265.668C326.919 264.103 327.033 263.69 326.685 261.726C325.117 253.046 315.543 247.543 301.904 247.433C298.828 247.433 296.392 247.371 296.449 247.314C296.507 247.253 299.582 246.389 303.296 245.466C307.01 244.481 311.711 242.916 313.742 241.986C315.777 241.062 317.922 240.428 318.504 240.599C319.143 240.76 321.87 242.037 324.597 243.483ZM104.878 244.184L107.081 244.527L104.411 248.118C101.914 251.59 101.627 251.761 99.3052 251.822C95.7059 251.933 93.4416 251.705 92.9788 251.3C92.6881 250.949 93.3842 248.352 95.1245 243.774C95.4191 243.022 98.785 243.138 104.878 244.184ZM286.003 248.23C286.237 248.52 286.176 249.213 286.003 249.735C285.655 250.609 285.541 250.55 284.554 249.676C283.682 248.871 283.567 248.582 284.145 248.178C285.131 247.598 285.655 247.597 286.003 248.23ZM353.207 261.085C353.379 262.76 353.15 263.055 349.899 264.848C347.982 265.889 346.127 266.982 345.722 267.329C344.211 268.665 342.704 268.023 342.123 265.764C340.612 260.095 340.206 260.853 346.242 258.015L351.639 255.399L352.335 257.314C352.683 258.363 353.093 260.043 353.207 261.085ZM355.414 271.04C355.82 273.181 356.049 275.033 355.934 275.094C355.82 275.148 354.079 276.478 352.106 277.986L348.449 280.773L347.057 277.71C346.299 276.027 345.255 274.118 344.792 273.477C343.167 271.337 343.052 273.878 344.678 277.3C346.709 281.703 346.59 282.451 343.343 284.595C340.325 286.682 339.744 286.853 339.744 285.75C339.744 285.407 338.757 283.031 337.479 280.482L335.276 275.974L336.492 274.804C339.047 272.427 341.484 271.272 342.356 272.024C343.343 272.837 344.444 272.316 344.039 271.152C343.63 270.236 345.083 268.551 346.242 268.551C346.648 268.551 348.564 267.8 350.48 266.934C354.485 265.023 354.252 264.787 355.414 271.04ZM155.658 271.733C154.904 273.416 154.438 273.532 153.451 272.315C152.873 271.62 152.873 271.391 153.512 271.219C154.208 270.979 155.715 270.512 156.178 270.34C156.297 270.286 156.006 270.932 155.658 271.733ZM117.179 274.744C117.179 275.095 115.557 277.061 113.641 279.148L110.099 282.904L107.548 281.458C106.156 280.706 104.354 279.667 103.601 279.148L102.266 278.276L104.469 275.966C107.896 272.425 109.284 272.023 113.58 273.179C115.557 273.698 117.179 274.45 117.179 274.744ZM143.296 274.342C142.657 274.574 140.278 275.499 137.956 276.368C126.929 280.424 119.791 288.23 119.791 296.109C119.791 297.906 120.197 299.058 121.184 300.215C122.519 301.725 122.867 301.839 127.162 301.839C130.819 301.839 132.268 301.549 134.59 300.393C138.652 298.425 144.688 292.175 147.882 286.727C150.781 281.748 151.014 281.577 149.622 285.4C148.287 289.162 146.604 296.689 146.199 300.677C145.793 304.618 144.979 305.541 139.291 308.956C131.63 313.648 126.929 314.514 120.082 312.778C118.166 312.256 114.857 311.452 112.712 310.982L108.883 310.058L108.474 301.899C108.187 296.511 108.301 292.917 108.707 291.421C109.694 287.831 112.306 283.715 116.54 279.148L120.43 274.968L126.642 275.206C130.065 275.324 135.229 275.033 138.075 274.632C144.458 273.762 144.745 273.701 143.296 274.342ZM335.563 281.406C338.118 287.598 338.118 287.716 335.1 289.216C330.747 291.364 330.285 291.131 329.064 286.496C328.483 284.237 327.672 282.101 327.267 281.697C326.685 281.117 327.209 280.654 329.818 279.2C331.619 278.159 333.245 277.354 333.417 277.293C333.593 277.293 334.576 279.147 335.563 281.406ZM311.596 280.653L316.821 281.697L316.993 285.907C317.108 288.223 316.936 290.373 316.702 290.602C316.182 291.124 309.622 289.039 308.521 287.993C307.767 287.242 305.446 279.543 306.027 279.543C306.199 279.551 308.754 280.073 311.596 280.653ZM107.839 287.189C107.081 288.7 106.442 290.38 106.442 290.952C106.442 291.654 106.27 291.764 105.98 291.302C105.746 290.901 103.715 290.029 101.512 289.335C99.2478 288.701 97.2168 287.94 96.9873 287.658C96.4633 287.189 97.6834 284.468 99.5423 281.808L100.644 280.251L104.939 282.39L109.235 284.469L107.839 287.189ZM326.685 285.631C327.267 288.001 327.496 290.378 327.324 290.84C327.091 291.473 326.104 291.712 323.553 291.712C321.636 291.712 319.953 291.532 319.839 291.242C319.663 291.01 319.372 288.81 319.143 286.384L318.733 281.928L321.288 281.697C322.681 281.578 324.249 281.456 324.769 281.406C325.526 281.284 325.932 282.213 326.685 285.631ZM252.635 288.642C252.75 288.703 252.516 289.166 252.111 289.685C251.181 290.841 250.37 290.257 250.37 288.411C250.37 287.075 250.485 287.02 251.415 287.718C251.935 288.122 252.516 288.585 252.635 288.642ZM101.394 291.421L105.865 292.517V296.168V299.872L104.006 299.581C102.962 299.409 100.812 299.12 99.1905 298.94C94.0842 298.307 94.0842 298.307 94.547 295.296C95.1284 291.012 95.5338 289.91 96.2299 290.147C96.578 290.258 98.8997 290.838 101.394 291.421ZM311.363 292.114C312.698 292.629 315.425 294.664 317.398 296.69C325.408 304.672 340.497 308.725 355.124 306.817C367.425 305.192 374.566 301.49 377.813 295.065C379.091 292.517 379.381 292.284 380.249 292.986C384.95 296.691 387.448 301.947 387.448 308.486C387.505 315.087 383.21 324.756 378.28 329.269C376.535 330.895 374.623 332.225 373.927 332.34C372.764 332.511 370.561 335.351 371.139 335.931C371.314 336.103 372.359 335.932 373.518 335.581C375.319 335.058 375.839 335.172 378.28 336.565C381.703 338.591 385.012 342.466 386.285 345.999C387.563 349.532 387.62 356.937 386.404 362.557L385.417 366.842L382.166 368.287C374.042 371.878 366.032 372.573 360.75 370.143C359.067 369.391 356.397 367.424 354.833 365.799C352.106 363.017 351.93 362.678 352.278 360.53C352.569 358.966 352.454 358.272 351.93 358.272C351 358.272 349.088 360.642 349.03 361.916C349.03 363.892 346.533 367.827 343.4 370.776C341.484 372.631 338.175 374.831 334.752 376.567C329.412 379.287 328.95 379.398 324.421 379.398C320.592 379.345 319.143 379.117 316.53 377.9C314.79 377.088 312.698 375.808 311.887 375.113C310.437 373.9 310.437 373.906 311.596 373.265C314.151 371.758 317.632 367.529 318.733 364.457C321.751 356.529 321.636 344.958 318.504 334.188C315.425 323.592 308.754 314.039 302.309 310.968C301.035 310.334 299.7 309.061 298.828 307.443C298.017 305.989 297.379 304.774 297.379 304.656C297.379 304.545 298.538 304.432 299.93 304.432C302.37 304.432 302.6 304.604 308.754 310.968C315.891 318.381 318.213 321.858 320.998 329.493C325.465 341.878 330.051 348.188 337.016 351.61C341.66 353.808 347.696 354.271 351.467 352.653C355.701 350.738 356.921 346.691 354.366 342.75C353.207 340.96 352.802 341.594 352.802 345.127C352.802 347.847 352.626 348.19 350.771 349.464C348.969 350.685 348.273 350.8 344.616 350.567C339.686 350.216 336.668 348.832 332.721 345.127C329.064 341.708 327.381 338.749 324.306 330.298C321.055 321.324 317.98 316.355 312.059 310.334C309.393 307.614 307.243 305.355 307.243 305.237C307.243 305.126 307.882 304.999 308.635 304.999C310.494 304.999 311.539 303.614 311.076 301.817C310.724 300.481 311.133 300.659 315.486 303.791C323.901 309.694 328.02 311.367 339.162 313.397C349.145 315.194 353.498 317.109 357.384 321.214C360.926 325.037 362.609 328.682 362.609 332.913C362.666 337.129 361.446 338.584 357.675 338.756C354.251 338.935 354.194 340.381 357.503 341.133C360.345 341.705 362.552 340.836 364.349 338.405C366.38 335.677 366.09 330.009 363.653 325.149C359.763 317.213 352.396 312.696 340.325 310.789C330.227 309.171 325.756 307.374 315.834 300.773C310.724 297.359 309.565 296.257 309.274 294.872C309.041 293.88 308.754 292.676 308.635 292.092C308.287 290.902 308.345 290.901 311.363 292.114ZM91.6439 296.742C91.3532 300.103 91.5865 303.341 92.516 309.365C93.2121 313.822 93.8508 318.509 93.9082 319.783C94.023 322.565 94.6618 323.716 95.8245 323.315C96.2873 323.083 100.001 324.129 104.067 325.514C111.147 327.952 114.804 328.874 121.245 329.687L124.091 330.029L120.958 332.056C113.239 336.921 106.565 338.952 100.124 338.368C94.088 337.788 90.8368 336.923 86.0786 334.665L81.6685 332.578L80.5669 328.226C79.2894 323.136 79.1173 313.237 80.2762 309.075C81.263 305.542 84.8623 299.639 88.4577 295.587C90.0833 293.79 91.5903 292.286 91.7663 292.286C91.9422 292.286 91.8772 294.312 91.6439 296.742ZM267.781 297.904C271.147 299.522 275.672 301.377 277.937 302.01C281.884 303.113 281.999 303.176 283.567 306.236C285.946 310.871 288.092 318.048 288.092 321.177C288.092 324.359 286.814 328.292 283.796 334.545C282.637 336.922 281.708 339.173 281.708 339.642C281.708 340.215 281.069 340.337 279.272 340.104C277.879 339.933 274.976 339.643 272.712 339.464C262.036 338.54 257.798 335.882 250.719 325.573L248.569 322.496L249.441 319.083C250.485 315.149 251.529 307.213 251.587 302.703L251.648 299.514L252.459 303.739C253.97 312.08 256.521 317.977 260.411 322.212C263.31 325.333 266.328 326.952 270.103 327.414C272.654 327.704 273.06 327.593 274.395 326.14C277.703 322.557 277.646 315.954 274.165 309.067C272.482 305.767 266.099 298.638 262.266 295.803C260.005 294.139 260.526 294.31 267.781 297.904ZM200.983 298.478C201.04 299.352 200.516 299.407 199.415 298.717C198.719 298.308 198.719 298.015 199.357 296.973C200.111 295.878 200.168 295.878 200.578 296.802C200.75 297.324 200.983 298.135 200.983 298.478ZM103.077 301.489C104.587 301.55 105.922 301.778 106.094 302.01C106.27 302.3 106.561 304.096 106.791 306.064C107.2 309.826 106.967 310.12 104.121 309.708C103.658 309.655 102.204 309.474 100.931 309.306C94.8951 308.493 94.4896 308.092 94.3137 302.644L94.2563 300.632L97.3315 301.027C98.9571 301.256 101.57 301.489 103.077 301.489ZM294.361 305.192C295.52 306.123 298.595 312.435 298.075 312.778C297.436 313.187 289.832 314.461 289.603 314.224C289.312 313.934 285.189 304.271 285.189 303.978C285.189 303.52 293.665 304.62 294.361 305.192ZM193.146 306.876C192.916 307.277 192.22 308.324 191.639 309.194C185.894 317.473 183.748 329.046 186.762 335.417C188.564 339.412 191.405 341.714 193.727 341.252C202.261 339.516 207.134 326.431 204.23 312.89C203.305 308.434 203.42 307.214 204.521 310.632C205.627 314.047 210.094 322.787 212.358 325.916L214.332 328.688L212.358 334.955C210.327 341.43 208.235 345.253 205.278 347.981C204.349 348.897 200.459 351.157 196.63 353.004L189.723 356.424L184.326 350.984C176.783 343.399 175.853 341.195 175.677 331.527C175.677 327.414 175.739 323.597 175.911 323.017C176.087 322.384 178.232 320.358 180.73 318.39C183.224 316.482 186.995 312.942 189.202 310.573C193.146 306.235 193.96 305.484 193.146 306.876ZM145.503 317.294C144.282 318.679 140.106 321.81 139.524 321.81C138.595 321.81 135.634 313.529 136.449 313.3C136.797 313.189 138.943 311.794 141.322 310.23L145.617 307.339L146.08 311.735C146.547 315.558 146.428 316.249 145.503 317.294ZM106.618 311.914C107.2 312.486 107.257 314.392 106.791 316.601C106.618 317.406 106.328 319.216 106.156 320.662L105.808 323.263L101.279 321.818L96.6928 320.372L96.4021 318.054C96.2261 316.78 95.8819 314.639 95.6486 313.307L95.3005 310.878L100.697 311.169C103.658 311.276 106.328 311.624 106.618 311.914ZM116.601 314.925C116.601 315.386 116.368 317.989 116.077 320.767C115.557 326.436 115.615 326.437 111.086 325.052L108.474 324.299L108.416 319.15C108.359 311.916 108.474 311.795 112.945 313.069C115.205 313.702 116.601 314.394 116.601 314.925ZM135.52 318.509C136.044 320.485 136.564 322.444 136.679 322.913C137.027 324.008 129.66 326.79 129.021 325.745C128.788 325.401 128.382 323.142 128.149 320.826C127.916 317.934 127.568 316.601 127.047 316.601C125.942 316.601 125.827 317.296 126.233 321.981C126.409 324.24 126.466 326.328 126.351 326.557C126.003 327.251 120.43 327.08 119.095 326.386C117.994 325.806 117.936 325.402 118.284 320.484C118.514 317.584 118.747 315.157 118.805 315.096C118.862 314.978 119.967 315.156 121.241 315.446C124.492 316.198 127.743 316.135 131.109 315.2C132.735 314.8 134.127 314.568 134.242 314.679C134.418 314.805 134.938 316.544 135.52 318.509ZM300.221 319.09C300.569 321.116 300.859 322.967 300.859 323.204C300.859 323.429 298.538 323.548 295.638 323.494L290.414 323.315V320.998C290.414 319.67 290.241 318.048 290.065 317.354C289.717 316.198 289.951 316.081 292.793 315.849C300.339 315.326 299.525 314.973 300.221 319.09ZM147.3 320.998C148.52 324.126 147.128 326.906 139.234 336.803C136.564 340.104 131.457 344.561 128.034 346.468C119.501 351.276 117.47 352.667 114.452 355.731C110.566 359.672 107.896 364.307 107.139 368.481C105.632 376.871 109.055 384.331 114.395 384.331C116.716 384.331 120.545 382.25 120.197 381.216C119.967 380.514 119.501 380.508 116.311 381.321C112.826 382.133 110.914 380.28 109.984 375.24C108.416 366.907 113.756 357.705 123.157 352.489C134.07 346.415 139.639 341.608 144.806 333.912L147.882 329.336L148.635 331.14C149.331 332.815 149.565 332.935 151.477 332.645C152.583 332.466 153.451 332.465 153.336 332.697C146.662 346.364 145.793 349.545 145.851 360.254C145.908 372.647 144.11 378.899 139.119 383.989C134.766 388.445 127.568 390.36 125.016 387.811C124.378 387.178 123.854 386.142 123.854 385.509C123.854 383.765 123.796 383.533 123.157 382.781C122.171 381.625 121.532 382.492 121.532 384.972C121.532 389.898 124.32 392.215 129.832 391.746C133.894 391.403 137.841 389.379 141.207 385.784C146.719 379.943 148.111 375.486 148.402 361.991C148.693 350.59 149.679 346.597 154.556 336.17C157.165 330.5 157.455 330.096 159.835 329.165L162.275 328.241L161.927 331.252C161.636 333.4 161.055 334.724 159.835 335.998C157.165 338.78 155.195 342.951 153.684 348.853C148.983 367.491 157.574 392.97 169.875 396.843C171.677 397.423 173.184 398.173 173.184 398.52C173.184 399.912 169.584 404.134 166.976 405.748C162.562 408.529 159.138 409.4 154.09 409.049C145.617 408.416 138.189 405.577 134.533 401.582C133.431 400.369 132.559 399.145 132.559 398.863C132.559 398.573 132.096 398.231 131.572 397.991C130.991 397.819 130.18 397.469 129.832 397.298C128.788 396.836 128.902 398.571 129.947 400.189C130.761 401.41 130.761 401.813 129.889 404.071C127.51 410.203 123.391 414.199 117.646 415.935C114.337 416.919 103.31 417.619 101.57 416.986C100.12 416.406 95.9966 409.511 94.4322 405.055C92.2865 398.973 92.3438 394.806 94.7229 390.002C96.9873 385.374 98.9609 383.467 101.221 383.638C102.151 383.692 103.077 383.465 103.31 383.057C103.891 382.134 101.451 380.627 99.1905 380.509C93.0974 380.337 83.6957 372.469 79.3429 364.01C77.9507 361.29 77.7173 360.25 77.7173 355.679C77.7747 351.738 78.008 349.939 78.8189 348.443C80.7352 344.792 80.7926 344.791 83.7531 347.221C87.5244 350.411 91.5865 351.567 98.3184 351.506C109.984 351.334 124.087 345.835 132.559 338.189C137.088 334.023 140.917 328.753 141.613 325.685C141.846 324.651 142.89 323.027 144.11 321.981C146.547 319.841 146.837 319.723 147.3 320.998ZM173.298 329.739L173.126 335.007L169.47 335.648C163.491 336.69 163.667 336.804 164.073 332.809C164.306 330.84 164.769 328.755 165.059 328.122C165.698 326.958 172.663 323.431 173.184 324.068C173.359 324.24 173.417 326.786 173.298 329.739ZM296.683 325.633L300.917 326.035L300.511 328.688C299.93 332.511 299.291 333.957 298.132 333.957C297.551 333.957 295 333.441 292.445 332.869C289.079 332.117 287.858 331.593 288.034 331.013C289.717 325.344 290.123 324.65 291.286 324.94C291.924 325.115 294.361 325.404 296.683 325.633ZM249.904 328.353C250.776 329.688 252.168 331.533 253.04 332.407C254.375 333.853 254.49 334.255 253.908 335.358C252.983 337.033 249.269 340.917 248.569 340.917C247.991 340.917 244.798 336.163 244.22 334.374C243.811 333.153 246.829 325.921 247.758 325.864C248.106 325.864 249.036 326.96 249.904 328.353ZM306.256 335.7C310.261 346.177 308.463 357.817 301.326 367.542C299.004 370.663 298.656 370.902 295.925 371.246C288.44 372.12 281.303 371.013 274.919 368.064C271.09 366.21 265.632 361.232 262.036 356.253C260.178 353.651 260.12 353.531 261.455 353.935C266.852 355.679 269.637 356.082 278.518 356.372C283.972 356.544 288.673 356.95 289.079 357.244C290.008 358.003 292.154 356.544 292.154 355.098C292.154 354.457 293.083 352.384 294.242 350.53C298.656 343.174 301.613 336.452 302.89 330.782C303.238 329.157 303.296 329.163 303.935 330.216C304.283 330.845 305.327 333.331 306.256 335.7ZM221.99 337.034C222.571 338.076 221.699 344.041 220.773 345.544C220.425 346.124 219.381 345.776 216.42 344.158C214.332 342.945 212.649 341.67 212.821 341.319C212.936 340.918 213.632 338.77 214.332 336.572C215.086 334.314 215.782 332.168 215.896 331.706C216.072 331.134 216.941 331.653 218.8 333.442C220.249 334.835 221.699 336.451 221.99 337.034ZM294.242 335.529L298.366 336.572L296.912 339.873C295.29 343.696 294.652 343.923 289.369 342.355C287.686 341.832 286.118 341.542 285.889 341.714C285.655 341.832 285.017 341.604 284.435 341.192C283.506 340.498 283.506 340.327 284.611 337.668C286.352 333.726 286.7 333.383 288.558 334.016C289.427 334.314 291.982 335.006 294.242 335.529ZM259.829 338.368C261.455 339.463 262.499 340.335 262.151 340.335C261.746 340.335 260.526 342.131 259.305 344.389C258.146 346.587 256.869 348.451 256.521 348.451C256.173 348.451 254.547 347.28 252.983 345.887L250.08 343.413L251.935 341.327C252.922 340.224 254.199 338.488 254.781 337.504C255.362 336.58 256.058 335.886 256.288 336.058C256.578 336.234 258.147 337.266 259.829 338.368ZM174.056 339.754C174.981 343.226 176.316 345.717 178.756 348.383L180.73 350.641L176.492 353.302C170.456 357.006 170.571 357.007 168.946 354.405C165.87 349.479 165.756 349.893 170.28 347.81C174.694 345.784 176.144 344.621 174.867 344.099C174.404 343.927 172.197 344.561 169.994 345.485C167.729 346.469 165.756 347.049 165.522 346.759C164.883 346.179 163.725 339.7 164.187 339.292C164.654 338.769 171.558 336.976 172.545 337.094C173.069 337.143 173.708 338.247 174.056 339.754ZM244.044 339.292C245.031 341.089 245.379 342.476 245.264 344.158C244.855 349.248 248.63 358.802 253.622 365.284C260.005 373.564 270.971 381.383 279.91 383.981C284.206 385.255 289.136 385.147 292.678 383.75C294.533 383.056 295.696 382.82 295.925 383.221C296.797 384.556 296.216 391.218 295 394.511C292.621 400.764 284.263 407.253 275.558 409.511C271.668 410.496 267.606 410.668 266.037 409.794C264.706 409.1 261.398 409.691 261.398 410.614C261.398 411.015 262.266 411.649 263.371 411.993C265.054 412.634 265.574 413.207 266.389 415.756C267.663 419.407 267.781 424.957 266.676 427.739C265.865 429.715 263.138 433.879 260.988 436.427C260.411 437.061 258.495 438.744 256.754 440.071C255.014 441.399 253.388 442.732 253.155 443.022C252.574 443.835 246.366 441.983 241.608 439.609C233.598 435.554 230.175 430.868 229.651 423.111C229.36 418.826 229.36 418.654 230.871 417.723C231.682 417.151 232.378 416.338 232.378 415.816C232.378 414.66 229.245 415.235 227.214 416.799C222.456 420.504 209.861 420.504 201.913 416.799C196.164 414.14 191.639 408.579 190.767 403.192L190.419 401.113H194.423C197.384 401.113 199.182 400.761 201.331 399.72C212.997 394.279 224.311 376.74 226.052 361.402C226.633 356.076 225.994 350.113 224.545 347.214C223.848 345.878 223.791 345.015 224.311 342.646C224.659 341.081 225.126 339.747 225.355 339.747C225.589 339.747 226.518 340.5 227.387 341.423C229.418 343.51 229.593 345.015 229.651 357.117L229.708 366.089L226.342 375.873L222.976 385.658L223.21 391.493C223.386 396.239 223.734 397.932 224.95 400.591C229.942 411.419 241.259 414.952 243.868 406.493C244.683 403.952 243.753 402.389 242.594 404.243C240.621 407.425 239.806 408.058 237.66 408.058C236.153 408.058 234.7 407.535 233.074 406.322C228.316 402.907 225.879 397.456 225.822 390.397C225.822 386.464 226.113 384.84 227.968 379.681C232.321 367.64 232.554 366.723 232.554 358.265C232.611 353.98 232.435 349.469 232.206 348.316L231.739 346.118L233.541 347.146C235.339 348.138 235.339 348.139 236.673 346.632L237.951 345.127L239.634 351.2C241.898 359.598 244.74 364.978 250.891 372.334C256.464 379.106 259.248 383.794 259.944 387.498C261.164 394.221 259.539 400.758 255.767 403.997C253.388 406.145 251.587 406.195 249.326 404.288C245.903 401.449 245.031 403.414 248.282 406.665C249.904 408.282 250.719 408.632 252.635 408.632C254.666 408.632 255.419 408.283 257.856 405.852C261.398 402.38 263.138 398.034 263.138 392.536C263.138 385.188 260.583 379.509 253.622 371.291C250.891 368.109 247.643 363.54 246.366 361.171C244.22 357.169 239.925 343.921 239.925 341.312C239.925 340.037 241.489 336.855 242.128 336.855C242.418 336.867 243.233 337.964 244.044 339.292ZM268.244 341.259C269.694 341.492 270.623 341.895 270.509 342.303C270.39 342.654 269.579 345.085 268.707 347.69C267.548 351.216 266.852 352.491 266.156 352.437C264.473 352.376 259.654 350.461 259.596 349.889C259.596 349.538 260.411 347.279 261.455 344.792C263.081 340.915 263.543 340.334 264.588 340.566C265.226 340.738 266.852 341.031 268.244 341.259ZM278.981 342.012C280.897 342.073 280.954 342.707 279.386 347.221C277.241 353.654 277.241 353.652 273.932 353.652C272.306 353.652 270.681 353.419 270.333 353.182C269.813 352.9 270.042 351.215 271.147 347.109L272.597 341.431L274.976 341.722C276.311 341.893 278.051 342.012 278.981 342.012ZM286.003 343.167C286.176 343.457 288.034 344.161 290.065 344.68L293.779 345.664L291.634 349.941L289.542 354.174L285.365 354.226C279.329 354.226 279.386 354.285 280.606 349.829C281.188 347.742 281.475 345.715 281.303 345.254C281.127 344.792 281.303 344.389 281.651 344.389C281.999 344.389 282.289 343.983 282.289 343.517C282.289 342.598 285.479 342.251 286.003 343.167ZM219.496 348.786C219.844 349.019 216.65 354.751 215.839 355.388C215.434 355.732 214.041 354.866 211.544 352.668C208.817 350.23 207.772 349.597 207.248 350.12C206.785 350.581 207.482 351.683 210.266 354.457L213.923 358.168L210.905 360.538C209.283 361.873 207.658 362.915 207.367 362.915C206.9 362.915 200.459 354.747 200.459 354.114C200.459 353.881 201.851 352.951 203.534 352.027C206.671 350.291 209.918 347.049 211.023 344.68C211.601 343.345 211.601 343.343 215.491 346.006C217.579 347.452 219.438 348.725 219.496 348.786ZM184.907 354.628C187.286 357.066 187.519 357.529 186.881 358.399C186.475 358.971 185.951 359.442 185.836 359.442C185.66 359.442 183.687 360.47 181.541 361.745L177.594 364.062L175.1 361.633C173.708 360.298 172.602 359.023 172.602 358.794C172.602 358.565 174.285 357.286 176.316 355.955C178.408 354.619 180.378 353.175 180.787 352.713C181.774 351.565 181.946 351.625 184.907 354.628ZM167.033 356.312C169.179 359.674 174.404 365.052 180.263 369.86C182.7 371.886 184.792 373.965 184.964 374.487C185.255 375.651 187.053 375.76 188.33 374.718C188.797 374.257 191.929 372.929 195.295 371.708C202.49 368.988 206.728 366.961 210.499 364.241C212.068 363.146 213.46 362.333 213.575 362.505C213.923 362.856 211.196 370.442 209.455 373.914C206.961 378.832 204.869 381.148 199.706 384.562C194.366 388.095 193.146 388.674 187.462 390.181L183.457 391.224L180.091 388.959C173.822 384.674 167.729 377.096 165.813 371.194C164.883 368.237 164.13 353.652 164.883 353.652C165.174 353.652 166.104 354.87 167.033 356.312ZM201.794 359.785L205.16 364.711L201.794 366.156L198.428 367.654L196.688 365.642C190.304 358.465 190.304 358.408 194.194 356.439C195.877 355.565 197.56 354.874 197.847 354.874C198.199 354.87 199.939 357.065 201.794 359.785ZM190.189 360.247C190.709 360.647 191.176 361.177 191.176 361.409C191.176 361.642 192.22 363.317 193.498 365.225L195.758 368.586L191.176 370.441L186.533 372.289L183.048 368.988L179.625 365.635L182.933 363.257C184.731 361.983 186.59 360.599 186.995 360.187C187.982 359.264 188.854 359.263 190.189 360.247Z" fill="#E3B450" fill-opacity="0.45"/>
<path d="M234.395 113.168C234.338 113.63 232.307 115.655 229.929 117.686C222.27 124.054 217.05 132.047 213.394 143.054C209.506 154.641 209.333 161.882 212.465 184.297C214.09 196.346 214.786 209.381 213.742 208.106C213.104 207.472 209.853 198.085 209.043 194.55C208.695 193.103 207.532 187.66 206.431 182.388C201.85 160.668 198.076 152.557 187.576 141.607C181.427 135.239 174.406 130.774 165.936 127.88C163.906 127.185 162.105 126.37 161.933 126.023C161.176 124.927 159.726 126.084 159.784 127.76C159.784 128.635 159.493 130.892 159.088 132.801C157.348 141.265 158.449 152.321 162.105 162.404C166.166 173.529 171.561 180.65 185.369 192.932C196.045 202.491 206.026 212.802 205.272 213.497C204.577 214.192 193.724 207.182 186.589 201.447C164.311 183.484 153.111 178.682 134.432 179.144C126.715 179.377 122.826 180.068 116.735 182.507C114.995 183.202 113.022 183.72 112.268 183.663C110.701 183.552 110.41 185.29 111.863 186.497C112.326 186.905 113.312 188.301 113.951 189.576C119.866 201.156 132.573 211.581 146.557 216.331C154.04 218.881 158.625 219.404 182.004 220.327C190.13 220.679 201.441 222.181 201.441 222.937C201.441 223.693 190.13 225.203 182.004 225.555C158.625 226.479 154.04 227.001 146.557 229.551C132.573 234.301 119.866 244.726 113.951 256.313C113.312 257.581 112.326 258.973 111.863 259.378C110.41 260.592 110.701 262.337 112.268 262.219C113.022 262.158 114.995 262.68 116.735 263.375C122.826 265.814 126.715 266.505 134.432 266.738C153.111 267.2 164.311 262.39 186.589 244.435C193.724 238.701 204.577 231.69 205.272 232.385C206.026 233.08 196.045 243.391 185.369 252.95C171.561 265.232 166.166 272.353 162.105 283.478C158.449 293.561 157.348 304.625 159.088 313.081C159.493 314.99 159.784 317.251 159.784 318.122C159.726 319.798 161.176 320.955 161.933 319.859C162.105 319.508 163.906 318.693 165.936 318.002C174.406 315.109 181.427 310.65 187.576 304.275C198.076 293.329 201.85 285.218 206.431 263.494C207.532 258.222 208.695 252.779 209.043 251.332C209.853 247.797 213.104 238.41 213.742 237.776C214.786 236.501 214.09 249.521 212.465 261.57C209.333 283.992 209.506 291.234 213.394 302.813C217.05 313.828 222.27 321.824 229.929 328.188C232.307 330.216 234.338 332.245 234.395 332.707C234.686 333.921 237.125 333.638 237.125 332.431C237.183 331.962 238.399 329.344 239.852 326.622C245.071 317.124 246.754 310.293 246.754 298.816C246.754 286.252 244.723 279.305 236.139 262.965C233.236 257.349 229.929 251.087 228.885 249.006C226.564 244.367 223.375 235.681 223.952 235.681C224.243 235.681 225.868 237.424 227.608 239.573C230.801 243.391 233.875 247.963 242.635 261.921C251.629 276.119 258.879 283.179 270.775 289.085C278.84 293.148 289.573 295.528 297.057 294.894C299.03 294.776 300.422 294.947 301.003 295.409C302.395 296.573 303.324 295.236 302.51 293.209C302.162 292.342 301.584 289.906 301.232 287.825C298.854 272.302 287.715 256.884 272.515 247.969C268.745 245.82 263.231 243.33 247.278 236.851C240.896 234.24 230.453 228.738 230.453 227.985C230.453 227.753 231.03 227.694 231.787 227.866C232.483 227.985 235.152 228.508 237.703 228.97C240.257 229.432 244.027 230.416 246.115 231.05C262.535 236.38 266.076 237.487 270.079 238.529C289.803 243.683 311.041 238.937 324.501 226.487C325.892 225.212 327.518 224.115 328.095 224.115C328.676 224.115 329.082 223.64 329.082 222.945C329.082 222.25 328.676 221.789 328.095 221.789C327.518 221.789 325.892 220.685 324.501 219.41C311.041 206.957 289.803 202.206 270.079 207.36C266.076 208.403 262.535 209.51 246.115 214.832C244.027 215.473 240.257 216.465 237.703 216.927C235.152 217.389 232.483 217.905 231.787 218.016C231.03 218.195 230.453 218.141 230.453 217.912C230.453 217.159 240.896 211.653 247.278 209.053C263.231 202.559 268.745 200.066 272.515 197.928C287.715 189.009 298.854 173.595 301.232 158.072C301.584 155.983 302.162 153.551 302.51 152.688C303.324 150.661 302.395 149.324 301.003 150.488C300.422 150.95 299.03 151.121 297.057 151.01C289.573 150.369 278.84 152.753 270.775 156.804C258.879 162.718 251.629 169.778 242.635 183.969C233.875 197.927 230.801 202.511 227.608 206.272C225.868 208.478 224.243 210.209 223.952 210.209C223.375 210.209 226.564 201.53 228.885 196.891C229.929 194.803 233.236 188.552 236.139 182.932C244.723 166.596 246.754 159.638 246.754 147.066C246.754 135.597 245.071 128.766 239.852 119.267C238.399 116.545 237.183 113.935 237.125 113.473C237.125 112.233 234.686 111.954 234.395 113.168ZM238.284 121.392C242.869 131.063 243.507 134.073 243.507 146.76C243.507 158.87 243.041 161.36 239.156 170.278C236.487 176.364 228.713 190.963 228.713 189.859C228.713 189.688 229.757 186.676 230.973 183.141C234.747 172.596 237.24 160.437 235.73 159.563C235.095 159.162 234.395 160.087 234.166 161.77C233.236 168.711 231.091 175.789 224.361 194.55C221.75 201.91 220.648 205.795 220.82 206.891C221.459 210.136 218.614 217.663 217.283 216.331C216.469 215.525 217.05 207.183 217.918 206.488C218.557 205.965 218.79 202.083 219.08 187.026C219.314 174.626 219.719 166.403 220.239 162.978C221.344 156.549 221.344 156.901 220.358 156.901C219.6 156.901 219.08 158.408 217.631 164.432C217.341 165.879 216.874 171.967 216.702 178.041L216.297 189.047L215.02 180.069C213.161 167.386 212.756 161.004 213.566 154.865C214.786 145.829 219.601 133.672 224.591 127.067C226.449 124.635 235.034 115.77 235.5 115.77C235.615 115.774 236.892 118.258 238.284 121.392ZM171.795 133.211C178.41 136.567 184.211 141.55 190.069 148.907C196.393 156.784 199.701 164.836 202.894 180.069C203.705 184.066 204.519 187.943 204.691 188.748C205.272 191.478 204.401 189.63 201.789 182.567C198.194 172.889 192.275 162.113 190.593 162.113C189.606 162.113 189.663 163.326 190.65 164.723C193.724 169.243 197.961 179.026 205.272 198.725C207.594 205.094 208.928 207.875 209.505 207.875C210.492 207.936 213.628 214.298 213.628 216.092C213.628 217.195 212.641 217.43 211.597 216.674C210.201 215.689 206.722 210.126 207.012 209.374C207.246 208.851 203.881 204.333 198.137 197.324C185.836 182.381 180.731 175.49 178.758 171.203C178.352 170.329 177.829 169.637 177.595 169.637C176.437 169.637 176.551 171.029 177.829 173.529C181.194 180.008 183.109 182.908 188.329 189.338C190.535 192.06 192.738 194.781 193.262 195.422C194.944 197.503 187.924 191.423 181.251 184.998C171.852 176.011 168.372 170.862 164.717 160.607C161.466 151.57 160.598 146.235 161.061 138.073C161.237 134.255 161.585 130.547 161.757 129.848C162.105 128.691 162.223 128.697 164.078 129.453C165.179 129.911 168.663 131.585 171.795 133.211ZM300.074 153.195C300.074 154.119 297.057 164.662 296.07 167.094C294.502 171.092 292.881 173.822 288.411 179.778C282.438 187.83 275.823 193.392 267.64 197.279C262.883 199.478 246.696 206.081 246.696 205.794C246.696 205.676 249.771 203.766 253.541 201.559C257.315 199.36 261.839 196.404 263.579 195.072C267.292 192.178 272.225 187.548 272.225 186.907C272.225 186.155 270.022 186.384 269.498 187.197C267.991 189.748 253.136 199.308 233.236 210.716C231.206 211.873 229.871 212.975 229.871 213.609C229.871 214.651 224.071 218.881 222.618 218.881C220.996 218.881 221.75 216.91 224.476 214.131C225.983 212.623 227.665 211.35 228.189 211.35C228.713 211.35 233.412 206.319 238.689 200.172C248.67 188.585 256.386 180.482 260.332 177.347C262.015 176.011 262.477 175.319 262.015 174.857C261.606 174.456 260.275 175.09 257.373 177.235C252.035 181.233 249.889 183.312 243.97 190.322C241.244 193.624 238.865 196.295 238.747 196.295C238.46 196.295 239.213 194.953 243.97 187.302C255.285 169.114 266.133 160.03 282.377 155.223C287.6 153.662 300.074 152.26 300.074 153.195ZM145.513 182.619C158.335 184.879 165.24 188.299 179.106 199.359C186.008 204.922 187.342 206.137 184.616 204.572C183.515 203.938 180.674 202.319 178.352 200.925C171.622 197.1 161.176 192.812 158.392 192.812C156.189 192.812 157.463 194.437 160.422 195.422C165.47 197.049 172.605 200.582 186.822 208.524C194.596 212.922 200.745 215.994 201.326 215.876C202.775 215.475 209.796 219.007 210.029 220.163C210.201 220.977 209.853 221.2 208.58 221.2C205.85 221.139 201.326 219.698 200.802 218.717C200.516 218.194 199.296 217.608 198.076 217.375C176.379 213.549 165.994 211.351 158.335 208.919C155.26 207.934 152.534 207.291 152.3 207.524C150.675 209.151 162.162 213.212 176.203 215.995L182.004 217.099L171.447 216.853C152.763 216.33 145.395 214.25 132.401 205.847C125.614 201.387 122.654 198.324 116.329 189.226C114.589 186.736 114.008 185.289 114.704 185.289C114.819 185.289 116.444 184.88 118.302 184.356C125.614 182.329 128.283 181.923 134.432 181.866C137.969 181.805 142.901 182.157 145.513 182.619ZM297.753 209.441C304.773 210.827 310.922 213.088 315.45 215.928C321.136 219.521 325.602 222.586 325.602 222.937C325.602 223.281 321.136 226.354 315.45 229.947C304.425 236.845 286.266 239.505 272.806 236.203C266.772 234.756 250.528 229.365 251.92 229.365C252.382 229.304 255.805 229.835 259.46 230.469C266.829 231.805 281.161 232.206 282.262 231.102C283.134 230.236 282.377 230.117 272.515 229.365C267.758 229.021 257.082 227.565 248.842 226.241C237.531 224.324 233.642 223.861 233.179 224.384C232.25 225.308 224.881 224.792 224.013 223.75C223.489 223.109 223.489 222.766 224.013 222.125C224.881 221.09 232.25 220.559 233.179 221.491C233.642 222.006 237.531 221.558 248.842 219.641C257.082 218.305 267.758 216.857 272.515 216.517C282.377 215.765 283.134 215.643 282.262 214.78C281.161 213.676 266.829 214.085 259.46 215.414C255.805 216.055 252.382 216.571 251.92 216.517C250.815 216.517 265.38 211.583 271.066 210.075C279.65 207.811 288.587 207.585 297.753 209.441ZM218.905 220.969C220.01 221.954 219.948 223.81 218.79 224.906C216.469 227.113 213.452 226.011 213.452 222.937C213.452 219.864 216.411 218.766 218.905 220.969ZM210.029 225.659C209.796 226.873 202.775 230.407 201.326 230.006C200.745 229.888 194.596 232.957 186.822 237.359C172.605 245.3 165.47 248.826 160.422 250.452C157.463 251.437 156.189 253.07 158.392 253.07C161.176 253.07 171.622 248.782 178.352 244.957C180.674 243.571 183.515 241.944 184.616 241.311C187.342 239.745 186.008 240.96 179.106 246.523C165.24 257.579 158.335 261.003 145.513 263.263C136.634 264.828 128.397 264.297 118.302 261.526C116.444 261.003 114.819 260.594 114.704 260.594C113.66 260.594 115.228 257.933 120.624 250.691C125.728 243.792 136.347 236.38 146.266 232.788C152.996 230.306 159.378 229.369 171.447 229.029L182.004 228.798L176.203 229.894C165.24 232.093 154.736 235.339 152.763 237.194C151.023 238.76 152.824 238.697 158.335 236.956C165.994 234.524 176.379 232.318 198.076 228.5C199.296 228.267 200.516 227.688 200.802 227.165C201.384 226.123 205.215 224.849 208.289 224.734C209.853 224.673 210.201 224.907 210.029 225.659ZM226.682 229.134C228.48 230.348 229.871 231.746 229.871 232.266C229.871 232.899 231.206 234.002 233.236 235.159C253.136 246.574 267.991 256.127 269.498 258.677C270.022 259.49 272.225 259.72 272.225 258.968C272.225 258.334 267.292 253.69 263.579 250.788C261.839 249.459 257.315 246.515 253.541 244.316C249.771 242.109 246.696 240.199 246.696 240.08C246.696 239.79 262.883 246.396 267.64 248.603C275.823 252.482 282.438 258.045 288.411 266.097C292.881 272.064 294.502 274.776 296.07 278.773C297.581 282.419 300.25 292.507 299.841 292.859C299.087 293.664 285.512 291.692 280.813 290.07C264.856 284.805 255.052 276.402 243.97 258.558C239.213 250.915 238.46 249.587 238.747 249.587C238.865 249.587 241.244 252.248 243.97 255.493C249.889 262.556 252.035 264.65 257.373 268.639C260.275 270.789 261.606 271.423 262.015 271.018C262.477 270.556 262.015 269.852 260.332 268.527C256.386 265.397 248.67 257.291 238.689 245.643C233.47 239.565 228.713 234.525 228.246 234.525C226.969 234.525 221.749 229.305 221.749 228.03C221.749 226.473 223.141 226.763 226.682 229.134ZM213.628 229.715C213.628 231.571 210.492 237.939 209.505 238C208.928 238 207.594 240.775 205.272 247.089C197.961 266.843 193.724 276.631 190.65 281.152C189.663 282.545 189.606 283.769 190.593 283.769C192.275 283.769 198.194 272.993 201.789 263.323C204.401 256.252 205.272 254.397 204.691 257.119C204.519 257.932 203.705 261.816 202.894 265.813C199.701 281.046 196.393 289.095 190.069 296.975C183.515 305.141 178.41 309.373 169.821 313.596C160.946 318.062 161.585 318.462 161.061 307.928C160.598 299.583 161.466 294.316 164.717 285.275C168.372 275.02 171.852 269.864 181.251 260.884C187.924 254.455 194.944 248.372 193.262 250.46C192.738 251.094 190.535 253.815 188.329 256.545C183.109 262.974 181.194 265.862 177.829 272.353C176.551 274.85 176.437 276.238 177.595 276.238C177.829 276.238 178.352 275.55 178.758 274.679C180.731 270.399 185.836 263.494 198.137 248.544C203.881 241.542 207.246 237.028 207.012 236.508C206.722 235.756 210.201 230.193 211.597 229.208C212.641 228.445 213.628 228.669 213.628 229.715ZM218.79 230.118C219.834 231.332 221.168 237.19 220.82 238.984C220.648 240.08 221.75 243.968 224.361 251.325C231.091 270.093 233.236 277.156 234.166 284.112C234.395 285.788 235.095 286.716 235.73 286.312C237.24 285.437 234.747 273.271 230.973 262.726C229.757 259.191 228.713 256.179 228.713 256.008C228.713 254.904 236.487 269.503 239.156 275.581C243.041 284.507 243.507 286.997 243.507 299.1C243.507 311.79 242.869 314.803 238.284 324.535L235.615 330.209L232.598 327.375C227.898 323.027 224.185 318.569 221.749 314.453C219.023 309.761 215.715 301.536 214.438 296.207C212.932 290.01 213.046 279.175 214.786 266.954L216.236 256.813L216.583 267.543C216.931 276.985 217.57 282.023 219.195 287.639C219.371 288.391 219.948 288.974 220.358 288.974C221.344 288.974 221.344 289.326 220.239 282.889C219.719 279.472 219.314 271.249 219.08 258.849C218.79 245.009 218.557 239.855 218.037 239.446C217.165 238.805 216.411 232.497 216.931 230.58C217.283 229.133 217.861 228.961 218.79 230.118Z" fill="#E3B450" fill-opacity="0.45"/>
</svg>
